<?xml version="1.0" encoding="UTF-8"?>
<!DOCTYPE svg PUBLIC "-//W3C//DTD SVG 1.1//EN" 
"http://www.w3.org/Graphics/SVG/1.1/DTD/svg11.dtd">

<svg version="1.1"
   width="182px"
   height="182px"
xmlns="http://www.w3.org/2000/svg">
    <rect width="100%" height="100%" fill="white"/>

  <line x1="72.6855" y1="110.0655" x2="72.7828" y2="90.1122" stroke="#595959"
     style="stroke-width:2;stroke-miterlimit:4;stroke-dasharray:1,1;stroke-dashoffset:0" />
  <line x1="72.6493" y1="70.1761" x2="75.8211" y2="50.5139" stroke="#595959"
     style="stroke-width:2;stroke-miterlimit:4;stroke-dasharray:1,1;stroke-dashoffset:0" />
  <line x1="86.4660" y1="33.6090" x2="106.3453" y2="35.2753" stroke="#595959"
     style="stroke-width:2;stroke-miterlimit:4;stroke-dasharray:1,1;stroke-dashoffset:0" />
  <line x1="106.3453" y1="35.2753" x2="116.3024" y2="52.6016" stroke="#595959"
     style="stroke-width:2;stroke-miterlimit:4;stroke-dasharray:1,1;stroke-dashoffset:0" />
  <line x1="116.3024" y1="52.6016" x2="105.6701" y2="69.6654" stroke="#595959"
     style="stroke-width:2;stroke-miterlimit:4;stroke-dasharray:1,1;stroke-dashoffset:0" />
  <line x1="105.7841" y1="90.0859" x2="105.6339" y2="110.4334" stroke="#595959"
     style="stroke-width:2;stroke-miterlimit:4;stroke-dasharray:1,1;stroke-dashoffset:0" />
  <line x1="71.6902" y1="150.0145" x2="72.2679" y2="130.0347" stroke="#eca100" stroke-width="1.0" />
  <rect
     style="fill:#ffffff;fill-opacity:1;fill-rule:nonzero;stroke:none"
     width="2"
     height="2"
     x="71.4791"
     y="139.0246"
     transform="rotate(-88.3439 71.9791 140.0246)" /> 
  <path
     style="fill:none;stroke:#eca100;stroke-width:1px;stroke-linecap:butt;stroke-linejoin:miter;stroke-opacity:1"
     d="m 71.9791,138.0246 2,2 -2,2 m -2.370121,-4 2,2 -2,2"
     transform="rotate(-88.3439 71.9791 140.0246)"/>
  <line x1="71.6624" y1="151.2642" x2="104.6522" y2="151.9998" stroke="#000000" stroke-width="1.0" />
  <line x1="71.7181" y1="148.7648" x2="104.7080" y2="149.5004" stroke="#000000" stroke-width="1.0" />
  <line x1="72.2679" y1="130.0347" x2="72.6855" y2="110.0655" stroke="#000000" stroke-width="1.0" />
  <rect
     style="fill:#ffffff;fill-opacity:1;fill-rule:nonzero;stroke:none"
     width="2"
     height="2"
     x="71.9767"
     y="119.0501"
     transform="rotate(-88.8020 72.4767 120.0501)" /> 
  <path
     style="fill:none;stroke:#000000;stroke-width:1px;stroke-linecap:butt;stroke-linejoin:miter;stroke-opacity:1"
     d="m 72.4767,118.0501 2,2 -2,2 m -2.370121,-4 2,2 -2,2"
     transform="rotate(-88.8020 72.4767 120.0501)"/>
  <line x1="72.2441" y1="131.2844" x2="105.1975" y2="131.9123" stroke="#000000" stroke-width="1.0" />
  <line x1="72.2917" y1="128.7849" x2="105.2451" y2="129.4128" stroke="#000000" stroke-width="1.0" />
  <line x1="72.2679" y1="130.0347" x2="104.6801" y2="150.7501" stroke="#bb2700" stroke-width="1.0" />
  <rect
     style="fill:#ffffff;stroke:none"
     width="5.5"
     height="2"
     x="85.7240"
     y="139.3924" 
     transform="rotate(32.5837 88.4740 140.3924)"    /> 
  <path
     style="fill:none;stroke:#bb2700;stroke-width:1px;stroke-linecap:butt;stroke-linejoin:miter;stroke-opacity:1"
    d="m 89.2240,138.3924 2,2 -2,2 m -1.5,-4 -2,2 2,2" transform="rotate(32.5837 88.4740 140.3924)"/>
  <line x1="72.6715" y1="111.3154" x2="105.6200" y2="111.6833" stroke="#000000" stroke-width="1.0" />
  <line x1="72.6994" y1="108.8156" x2="105.6479" y2="109.1835" stroke="#000000" stroke-width="1.0" />
  <line x1="72.7828" y1="90.1122" x2="72.6493" y2="70.1761" stroke="#000000" stroke-width="1.0" />
  <rect
     style="fill:#ffffff;fill-opacity:1;fill-rule:nonzero;stroke:none"
     width="2"
     height="2"
     x="72.2160"
     y="79.1441"
     transform="rotate(269.6165 72.7160 80.1441)" /> 
  <path
     style="fill:none;stroke:#000000;stroke-width:1px;stroke-linecap:butt;stroke-linejoin:miter;stroke-opacity:1"
     d="m 72.7160,78.1441 2,2 -2,2 m -2.370121,-4 2,2 -2,2"
     transform="rotate(269.6165 72.7160 80.1441)"/>
  <line x1="72.7838" y1="91.3622" x2="105.7851" y2="91.3359" stroke="#000000" stroke-width="1.0" />
  <line x1="72.7818" y1="88.8622" x2="105.7831" y2="88.8359" stroke="#000000" stroke-width="1.0" />
  <line x1="72.7828" y1="90.1122" x2="105.6339" y2="110.4334" stroke="#000000" stroke-width="1.0" />
  <rect
     style="fill:#ffffff;stroke:none"
     width="5.5"
     height="2"
     x="86.4583"
     y="99.2728" 
     transform="rotate(31.7403 89.2083 100.2728)"    /> 
  <path
     style="fill:none;stroke:#000000;stroke-width:1px;stroke-linecap:butt;stroke-linejoin:miter;stroke-opacity:1"
    d="m 89.9583,98.2728 2,2 -2,2 m -1.5,-4 -2,2 2,2" transform="rotate(31.7403 89.2083 100.2728)"/>
  <line x1="72.6686" y1="71.4259" x2="105.6894" y2="70.9152" stroke="#44006e" stroke-width="1.0" />
  <line x1="72.6300" y1="68.9262" x2="105.6508" y2="68.4155" stroke="#44006e" stroke-width="1.0" />
  <line x1="75.8211" y1="50.5139" x2="86.4660" y2="33.6090" stroke="#17000d" stroke-width="1.0" />
  <rect
     style="fill:#ffffff;fill-opacity:1;fill-rule:nonzero;stroke:none"
     width="2"
     height="2"
     x="80.6436"
     y="41.0614"
     transform="rotate(-57.8019 81.1436 42.0614)" /> 
  <path
     style="fill:none;stroke:#17000d;stroke-width:1px;stroke-linecap:butt;stroke-linejoin:miter;stroke-opacity:1"
     d="m 81.1436,40.0614 2,2 -2,2 m -2.370121,-4 2,2 -2,2"
     transform="rotate(-57.8019 81.1436 42.0614)"/>
  <line x1="75.8211" y1="50.5139" x2="105.6701" y2="69.6654" stroke="#17000d" stroke-width="1.0" />
  <rect
     style="fill:#ffffff;stroke:none"
     width="5.5"
     height="2"
     x="87.9956"
     y="59.0896" 
     transform="rotate(32.6847 90.7456 60.0896)"    /> 
  <path
     style="fill:none;stroke:#17000d;stroke-width:1px;stroke-linecap:butt;stroke-linejoin:miter;stroke-opacity:1"
    d="m 91.4956,58.0896 2,2 -2,2 m -1.5,-4 -2,2 2,2" transform="rotate(32.6847 90.7456 60.0896)"/>
  <line x1="86.4660" y1="33.6090" x2="116.3024" y2="52.6016" stroke="#9d0eb1" stroke-width="1.0" />
  <path d="M 99.3842 45.3553 L 99.3842 40.8553 L 103.3842 43.1053 z" style="stroke:#9d0eb1;stroke-width:1.0" fill="#ffffff"
    transform="rotate(32.4792 101.3842 43.1053)"/>
  <line x1="105.6701" y1="69.6654" x2="105.7841" y2="90.0859" stroke="#000000" stroke-width="1.0" />
  <rect
     style="fill:#ffffff;fill-opacity:1;fill-rule:nonzero;stroke:none"
     width="2"
     height="2"
     x="105.2271"
     y="78.8756"
     transform="rotate(89.6800 105.7271 79.8756)" /> 
  <path
     style="fill:none;stroke:#000000;stroke-width:1px;stroke-linecap:butt;stroke-linejoin:miter;stroke-opacity:1"
     d="m 105.7271,77.8756 2,2 -2,2 m -2.370121,-4 2,2 -2,2"
     transform="rotate(89.6800 105.7271 79.8756)"/>
  <line x1="105.6339" y1="110.4334" x2="105.2213" y2="130.6625" stroke="#000000" stroke-width="1.0" />
  <rect
     style="fill:#ffffff;fill-opacity:1;fill-rule:nonzero;stroke:none"
     width="2"
     height="2"
     x="104.9276"
     y="119.5480"
     transform="rotate(91.1685 105.4276 120.5480)" /> 
  <path
     style="fill:none;stroke:#000000;stroke-width:1px;stroke-linecap:butt;stroke-linejoin:miter;stroke-opacity:1"
     d="m 105.4276,118.5480 2,2 -2,2 m -2.370121,-4 2,2 -2,2"
     transform="rotate(91.1685 105.4276 120.5480)"/>
  <line x1="105.2213" y1="130.6625" x2="104.6801" y2="150.7501" stroke="#ce4700" stroke-width="1.0" />
  <rect
     style="fill:#ffffff;fill-opacity:1;fill-rule:nonzero;stroke:none"
     width="2"
     height="2"
     x="104.4507"
     y="139.7063"
     transform="rotate(91.5433 104.9507 140.7063)" /> 
  <path
     style="fill:none;stroke:#ce4700;stroke-width:1px;stroke-linecap:butt;stroke-linejoin:miter;stroke-opacity:1"
     d="m 104.9507,138.7063 2,2 -2,2 m -2.370121,-4 2,2 -2,2"
     transform="rotate(91.5433 104.9507 140.7063)"/>
<circle cx="71.6902" cy="150.0145" r="5.0" stroke="#595959" stroke-width="1.0" fill="#ffffff"/>
<text x="71.6902" y="152.7145" text-anchor="middle" font-family="Helvetica" font-size="7.5" fill="#000000" >G</text>
<circle cx="72.2679" cy="130.0347" r="5.0" stroke="#595959" stroke-width="1.0" fill="#ffffff"/>
<text x="72.2679" y="132.7347" text-anchor="middle" font-family="Helvetica" font-size="7.5" fill="#000000" >G</text>
<circle cx="72.6855" cy="110.0655" r="5.0" stroke="#595959" stroke-width="1.0" fill="#ffffff"/>
<text x="72.6855" y="112.7655" text-anchor="middle" font-family="Helvetica" font-size="7.5" fill="#000000" >C</text>
<circle cx="72.7828" cy="90.1122" r="5.0" stroke="#595959" stroke-width="1.0" fill="#ffffff"/>
<text x="72.7828" y="92.8122" text-anchor="middle" font-family="Helvetica" font-size="7.5" fill="#000000" >G</text>
<circle cx="72.6493" cy="70.1761" r="5.0" stroke="#595959" stroke-width="1.0" fill="#ffffff"/>
<text x="72.6493" y="72.8761" text-anchor="middle" font-family="Helvetica" font-size="7.5" fill="#000000" >C</text>
<circle cx="75.8211" cy="50.5139" r="5.0" stroke="#595959" stroke-width="1.0" fill="#ffffff"/>
<text x="75.8211" y="53.2139" text-anchor="middle" font-family="Helvetica" font-size="7.5" fill="#000000" >A</text>
<circle cx="86.4660" cy="33.6090" r="5.0" stroke="#595959" stroke-width="1.0" fill="#ffffff"/>
<text x="86.4660" y="36.3090" text-anchor="middle" font-family="Helvetica" font-size="7.5" fill="#000000" >U</text>
<circle cx="106.3453" cy="35.2753" r="5.0" stroke="#595959" stroke-width="1.0" fill="#ffffff"/>
<text x="106.3453" y="37.9753" text-anchor="middle" font-family="Helvetica" font-size="7.5" fill="#000000" >C</text>
<circle cx="116.3024" cy="52.6016" r="5.0" stroke="#595959" stroke-width="1.0" fill="#ffffff"/>
<text x="116.3024" y="55.3016" text-anchor="middle" font-family="Helvetica" font-size="7.5" fill="#000000" >G</text>
<circle cx="105.6701" cy="69.6654" r="5.0" stroke="#595959" stroke-width="1.0" fill="#ffffff"/>
<text x="105.6701" y="72.3654" text-anchor="middle" font-family="Helvetica" font-size="7.5" fill="#000000" >G</text>
<circle cx="105.7841" cy="90.0859" r="5.0" stroke="#595959" stroke-width="1.0" fill="#ffffff"/>
<text x="105.7841" y="92.7859" text-anchor="middle" font-family="Helvetica" font-size="7.5" fill="#000000" >C</text>
<circle cx="105.6339" cy="110.4334" r="5.0" stroke="#595959" stroke-width="1.0" fill="#ffffff"/>
<text x="105.6339" y="113.1334" text-anchor="middle" font-family="Helvetica" font-size="7.5" fill="#000000" >G</text>
<circle cx="105.2213" cy="130.6625" r="5.0" stroke="#595959" stroke-width="1.0" fill="#ffffff"/>
<text x="105.2213" y="133.3625" text-anchor="middle" font-family="Helvetica" font-size="7.5" fill="#000000" >C</text>
<circle cx="104.6801" cy="150.7501" r="5.0" stroke="#595959" stroke-width="1.0" fill="#ffffff"/>
<text x="104.6801" y="153.4501" text-anchor="middle" font-family="Helvetica" font-size="7.5" fill="#000000" >C</text>
</svg>