<?xml version="1.0" encoding="UTF-8"?>
<!DOCTYPE svg PUBLIC "-//W3C//DTD SVG 1.1//EN" 
"http://www.w3.org/Graphics/SVG/1.1/DTD/svg11.dtd">

<svg version="1.1"
   width="182px"
   height="182px"
xmlns="http://www.w3.org/2000/svg">
    <rect width="100%" height="100%" fill="white"/>

  <line x1="74.3926" y1="110.3130" x2="74.3419" y2="90.2975" stroke="#595959"
     style="stroke-width:2;stroke-miterlimit:4;stroke-dasharray:1,1;stroke-dashoffset:0" />
  <line x1="74.1399" y1="70.2861" x2="69.8943" y2="50.7389" stroke="#595959"
     style="stroke-width:2;stroke-miterlimit:4;stroke-dasharray:1,1;stroke-dashoffset:0" />
  <line x1="81.1086" y1="34.2191" x2="101.0572" y2="34.9541" stroke="#595959"
     style="stroke-width:2;stroke-miterlimit:4;stroke-dasharray:1,1;stroke-dashoffset:0" />
  <line x1="101.0572" y1="34.9541" x2="112.9432" y2="50.9651" stroke="#595959"
     style="stroke-width:2;stroke-miterlimit:4;stroke-dasharray:1,1;stroke-dashoffset:0" />
  <line x1="112.9432" y1="50.9651" x2="107.7173" y2="70.2480" stroke="#595959"
     style="stroke-width:2;stroke-miterlimit:4;stroke-dasharray:1,1;stroke-dashoffset:0" />
  <line x1="107.6002" y1="90.2806" x2="107.4646" y2="110.3189" stroke="#595959"
     style="stroke-width:2;stroke-miterlimit:4;stroke-dasharray:1,1;stroke-dashoffset:0" />
  <line x1="101.0572" y1="34.9541" x2="107.7173" y2="70.2480" stroke="#9109e5" stroke-width="1.0" />
  <path d="M 98.6372 54.8510 L 98.6372 50.3510 L 103.1372 50.3510 L 103.1372 54.8510 z" style="stroke:#9109e5;stroke-width:1.0" fill="#9109e5" 
    transform="rotate(79.3138 104.3872 52.6010)"/>
  <path d="M 106.1372 54.8510 L 106.1372 50.3510 L 110.1372 52.6010 z" style="stroke:#9109e5;stroke-width:1.0" fill="#9109e5"
    transform="rotate(79.3138 104.3872 52.6010)"/>
  <line x1="74.2756" y1="150.3314" x2="74.3389" y2="130.3242" stroke="#eb9d00" stroke-width="1.0" />
  <rect
     style="fill:#ffffff;fill-opacity:1;fill-rule:nonzero;stroke:none"
     width="2"
     height="2"
     x="73.8073"
     y="139.3278"
     transform="rotate(-89.8186 74.3073 140.3278)" /> 
  <path
     style="fill:none;stroke:#eb9d00;stroke-width:1px;stroke-linecap:butt;stroke-linejoin:miter;stroke-opacity:1"
     d="m 74.3073,138.3278 2,2 -2,2 m -2.370121,-4 2,2 -2,2"
     transform="rotate(-89.8186 74.3073 140.3278)"/>
  <line x1="74.2741" y1="151.5814" x2="107.3294" y2="151.6206" stroke="#000000" stroke-width="1.0" />
  <line x1="74.2771" y1="149.0814" x2="107.3323" y2="149.1206" stroke="#000000" stroke-width="1.0" />
  <line x1="74.3389" y1="130.3242" x2="74.3926" y2="110.3130" stroke="#000000" stroke-width="1.0" />
  <rect
     style="fill:#ffffff;fill-opacity:1;fill-rule:nonzero;stroke:none"
     width="2"
     height="2"
     x="73.8658"
     y="119.3186"
     transform="rotate(-89.8464 74.3658 120.3186)" /> 
  <path
     style="fill:none;stroke:#000000;stroke-width:1px;stroke-linecap:butt;stroke-linejoin:miter;stroke-opacity:1"
     d="m 74.3658,118.3186 2,2 -2,2 m -2.370121,-4 2,2 -2,2"
     transform="rotate(-89.8464 74.3658 120.3186)"/>
  <line x1="74.3379" y1="131.5742" x2="107.3938" y2="131.6025" stroke="#000000" stroke-width="1.0" />
  <line x1="74.3400" y1="129.0742" x2="107.3959" y2="129.1025" stroke="#000000" stroke-width="1.0" />
  <line x1="74.3389" y1="130.3242" x2="107.3309" y2="150.3706" stroke="#b82400" stroke-width="1.0" />
  <rect
     style="fill:#ffffff;stroke:none"
     width="5.5"
     height="2"
     x="88.0849"
     y="139.3474" 
     transform="rotate(31.2835 90.8349 140.3474)"    /> 
  <path
     style="fill:none;stroke:#b82400;stroke-width:1px;stroke-linecap:butt;stroke-linejoin:miter;stroke-opacity:1"
    d="m 91.5849,138.3474 2,2 -2,2 m -1.5,-4 -2,2 2,2" transform="rotate(31.2835 90.8349 140.3474)"/>
  <line x1="74.3924" y1="111.5630" x2="107.4644" y2="111.5689" stroke="#000000" stroke-width="1.0" />
  <line x1="74.3928" y1="109.0630" x2="107.4648" y2="109.0689" stroke="#000000" stroke-width="1.0" />
  <line x1="74.3419" y1="90.2975" x2="74.1399" y2="70.2861" stroke="#000000" stroke-width="1.0" />
  <rect
     style="fill:#ffffff;fill-opacity:1;fill-rule:nonzero;stroke:none"
     width="2"
     height="2"
     x="73.7409"
     y="79.2918"
     transform="rotate(269.4217 74.2409 80.2918)" /> 
  <path
     style="fill:none;stroke:#000000;stroke-width:1px;stroke-linecap:butt;stroke-linejoin:miter;stroke-opacity:1"
     d="m 74.2409,78.2918 2,2 -2,2 m -2.370121,-4 2,2 -2,2"
     transform="rotate(269.4217 74.2409 80.2918)"/>
  <line x1="74.3426" y1="91.5475" x2="107.6008" y2="91.5306" stroke="#000000" stroke-width="1.0" />
  <line x1="74.3413" y1="89.0475" x2="107.5995" y2="89.0306" stroke="#000000" stroke-width="1.0" />
  <line x1="74.3419" y1="90.2975" x2="107.4646" y2="110.3189" stroke="#000000" stroke-width="1.0" />
  <rect
     style="fill:#ffffff;stroke:none"
     width="5.5"
     height="2"
     x="88.1533"
     y="99.3082" 
     transform="rotate(31.1513 90.9033 100.3082)"    /> 
  <path
     style="fill:none;stroke:#000000;stroke-width:1px;stroke-linecap:butt;stroke-linejoin:miter;stroke-opacity:1"
    d="m 91.6533,98.3082 2,2 -2,2 m -1.5,-4 -2,2 2,2" transform="rotate(31.1513 90.9033 100.3082)"/>
  <line x1="74.1413" y1="71.5361" x2="107.7187" y2="71.4980" stroke="#000000" stroke-width="1.0" />
  <line x1="74.1385" y1="69.0361" x2="107.7158" y2="68.9980" stroke="#000000" stroke-width="1.0" />
  <line x1="69.8943" y1="50.7389" x2="81.1086" y2="34.2191" stroke="#000000" stroke-width="1.0" />
  <rect
     style="fill:#ffffff;fill-opacity:1;fill-rule:nonzero;stroke:none"
     width="2"
     height="2"
     x="75.0015"
     y="41.4790"
     transform="rotate(-55.8297 75.5015 42.4790)" /> 
  <path
     style="fill:none;stroke:#000000;stroke-width:1px;stroke-linecap:butt;stroke-linejoin:miter;stroke-opacity:1"
     d="m 75.5015,40.4790 2,2 -2,2 m -2.370121,-4 2,2 -2,2"
     transform="rotate(-55.8297 75.5015 42.4790)"/>
  <line x1="69.8943" y1="50.7389" x2="101.0572" y2="34.9541" stroke="#b82400" stroke-width="1.0" />
  <path d="M 79.7257 45.0965 L 79.7257 40.5965 L 84.2257 40.5965 L 84.2257 45.0965 z" style="stroke:#b82400;stroke-width:1.0" fill="#ffffff" 
    transform="rotate(153.1366 85.4757 42.8465)"/>
  <path d="M 87.2257 45.0965 L 87.2257 40.5965 L 91.2257 42.8465 z" style="stroke:#b82400;stroke-width:1.0" fill="#ffffff"
    transform="rotate(153.1366 85.4757 42.8465)"/>
  <line x1="69.8943" y1="50.7389" x2="107.7173" y2="70.2480" stroke="#17000d" stroke-width="1.0" />
  <rect
     style="fill:#ffffff;stroke:none"
     width="5.5"
     height="2"
     x="86.0558"
     y="59.4934" 
     transform="rotate(27.2848 88.8058 60.4934)"    /> 
  <path
     style="fill:none;stroke:#17000d;stroke-width:1px;stroke-linecap:butt;stroke-linejoin:miter;stroke-opacity:1"
    d="m 89.5558,58.4934 2,2 -2,2 m -1.5,-4 -2,2 2,2" transform="rotate(27.2848 88.8058 60.4934)"/>
  <line x1="81.1086" y1="34.2191" x2="112.9432" y2="50.9651" stroke="#e17900" stroke-width="1.0" />
  <path d="M 95.0259 44.8421 L 95.0259 40.3421 L 99.0259 42.5921 z" style="stroke:#e17900;stroke-width:1.0" fill="#ffffff"
    transform="rotate(27.7458 97.0259 42.5921)"/>
  <line x1="107.7173" y1="70.2480" x2="107.6002" y2="90.2806" stroke="#000000" stroke-width="1.0" />
  <rect
     style="fill:#ffffff;fill-opacity:1;fill-rule:nonzero;stroke:none"
     width="2"
     height="2"
     x="107.1587"
     y="79.2643"
     transform="rotate(90.3348 107.6587 80.2643)" /> 
  <path
     style="fill:none;stroke:#000000;stroke-width:1px;stroke-linecap:butt;stroke-linejoin:miter;stroke-opacity:1"
     d="m 107.6587,78.2643 2,2 -2,2 m -2.370121,-4 2,2 -2,2"
     transform="rotate(90.3348 107.6587 80.2643)"/>
  <line x1="107.4646" y1="110.3189" x2="107.3949" y2="130.3525" stroke="#000000" stroke-width="1.0" />
  <rect
     style="fill:#ffffff;fill-opacity:1;fill-rule:nonzero;stroke:none"
     width="2"
     height="2"
     x="106.9297"
     y="119.3357"
     transform="rotate(90.1994 107.4297 120.3357)" /> 
  <path
     style="fill:none;stroke:#000000;stroke-width:1px;stroke-linecap:butt;stroke-linejoin:miter;stroke-opacity:1"
     d="m 107.4297,118.3357 2,2 -2,2 m -2.370121,-4 2,2 -2,2"
     transform="rotate(90.1994 107.4297 120.3357)"/>
  <line x1="107.3949" y1="130.3525" x2="107.3309" y2="150.3706" stroke="#c83b00" stroke-width="1.0" />
  <rect
     style="fill:#ffffff;fill-opacity:1;fill-rule:nonzero;stroke:none"
     width="2"
     height="2"
     x="106.8629"
     y="139.3616"
     transform="rotate(90.1832 107.3629 140.3616)" /> 
  <path
     style="fill:none;stroke:#c83b00;stroke-width:1px;stroke-linecap:butt;stroke-linejoin:miter;stroke-opacity:1"
     d="m 107.3629,138.3616 2,2 -2,2 m -2.370121,-4 2,2 -2,2"
     transform="rotate(90.1832 107.3629 140.3616)"/>
<circle cx="74.2756" cy="150.3314" r="5.0" stroke="#595959" stroke-width="1.0" fill="#ffffff"/>
<text x="74.2756" y="153.0314" text-anchor="middle" font-family="Helvetica" font-size="7.5" fill="#000000" >G</text>
<circle cx="74.3389" cy="130.3242" r="5.0" stroke="#595959" stroke-width="1.0" fill="#ffffff"/>
<text x="74.3389" y="133.0242" text-anchor="middle" font-family="Helvetica" font-size="7.5" fill="#000000" >G</text>
<circle cx="74.3926" cy="110.3130" r="5.0" stroke="#595959" stroke-width="1.0" fill="#ffffff"/>
<text x="74.3926" y="113.0130" text-anchor="middle" font-family="Helvetica" font-size="7.5" fill="#000000" >C</text>
<circle cx="74.3419" cy="90.2975" r="5.0" stroke="#595959" stroke-width="1.0" fill="#ffffff"/>
<text x="74.3419" y="92.9975" text-anchor="middle" font-family="Helvetica" font-size="7.5" fill="#000000" >G</text>
<circle cx="74.1399" cy="70.2861" r="5.0" stroke="#595959" stroke-width="1.0" fill="#ffffff"/>
<text x="74.1399" y="72.9861" text-anchor="middle" font-family="Helvetica" font-size="7.5" fill="#000000" >C</text>
<circle cx="69.8943" cy="50.7389" r="5.0" stroke="#595959" stroke-width="1.0" fill="#ffffff"/>
<text x="69.8943" y="53.4389" text-anchor="middle" font-family="Helvetica" font-size="7.5" fill="#000000" >A</text>
<circle cx="81.1086" cy="34.2191" r="5.0" stroke="#595959" stroke-width="1.0" fill="#ffffff"/>
<text x="81.1086" y="36.9191" text-anchor="middle" font-family="Helvetica" font-size="7.5" fill="#000000" >U</text>
<circle cx="101.0572" cy="34.9541" r="5.0" stroke="#595959" stroke-width="1.0" fill="#ffffff"/>
<text x="101.0572" y="37.6541" text-anchor="middle" font-family="Helvetica" font-size="7.5" fill="#000000" >C</text>
<circle cx="112.9432" cy="50.9651" r="5.0" stroke="#595959" stroke-width="1.0" fill="#ffffff"/>
<text x="112.9432" y="53.6651" text-anchor="middle" font-family="Helvetica" font-size="7.5" fill="#000000" >G</text>
<circle cx="107.7173" cy="70.2480" r="5.0" stroke="#595959" stroke-width="1.0" fill="#ffffff"/>
<text x="107.7173" y="72.9480" text-anchor="middle" font-family="Helvetica" font-size="7.5" fill="#000000" >G</text>
<circle cx="107.6002" cy="90.2806" r="5.0" stroke="#595959" stroke-width="1.0" fill="#ffffff"/>
<text x="107.6002" y="92.9806" text-anchor="middle" font-family="Helvetica" font-size="7.5" fill="#000000" >C</text>
<circle cx="107.4646" cy="110.3189" r="5.0" stroke="#595959" stroke-width="1.0" fill="#ffffff"/>
<text x="107.4646" y="113.0189" text-anchor="middle" font-family="Helvetica" font-size="7.5" fill="#000000" >G</text>
<circle cx="107.3949" cy="130.3525" r="5.0" stroke="#595959" stroke-width="1.0" fill="#ffffff"/>
<text x="107.3949" y="133.0525" text-anchor="middle" font-family="Helvetica" font-size="7.5" fill="#000000" >C</text>
<circle cx="107.3309" cy="150.3706" r="5.0" stroke="#595959" stroke-width="1.0" fill="#ffffff"/>
<text x="107.3309" y="153.0706" text-anchor="middle" font-family="Helvetica" font-size="7.5" fill="#000000" >C</text>
</svg>