<?xml version="1.0" encoding="UTF-8"?>
<!DOCTYPE svg PUBLIC "-//W3C//DTD SVG 1.1//EN" 
"http://www.w3.org/Graphics/SVG/1.1/DTD/svg11.dtd">

<svg version="1.1"
   width="182px"
   height="182px"
xmlns="http://www.w3.org/2000/svg">
    <rect width="100%" height="100%" fill="white"/>

  <line x1="73.9201" y1="109.0009" x2="74.0675" y2="88.9002" stroke="#595959"
     style="stroke-width:2;stroke-miterlimit:4;stroke-dasharray:1,1;stroke-dashoffset:0" />
  <line x1="73.8492" y1="68.8005" x2="69.5643" y2="49.2704" stroke="#595959"
     style="stroke-width:2;stroke-miterlimit:4;stroke-dasharray:1,1;stroke-dashoffset:0" />
  <line x1="83.6302" y1="35.1235" x2="100.4638" y2="45.9937" stroke="#595959"
     style="stroke-width:2;stroke-miterlimit:4;stroke-dasharray:1,1;stroke-dashoffset:0" />
  <line x1="100.4638" y1="45.9937" x2="119.2003" y2="52.7047" stroke="#595959"
     style="stroke-width:2;stroke-miterlimit:4;stroke-dasharray:1,1;stroke-dashoffset:0" />
  <line x1="119.2003" y1="52.7047" x2="106.8072" y2="68.3522" stroke="#595959"
     style="stroke-width:2;stroke-miterlimit:4;stroke-dasharray:1,1;stroke-dashoffset:0" />
  <line x1="106.8948" y1="88.8700" x2="106.7363" y2="109.3227" stroke="#595959"
     style="stroke-width:2;stroke-miterlimit:4;stroke-dasharray:1,1;stroke-dashoffset:0" />
  <line x1="73.0531" y1="149.1684" x2="73.5447" y2="129.1109" stroke="#d55800" stroke-width="1.0" />
  <rect
     style="fill:#ffffff;fill-opacity:1;fill-rule:nonzero;stroke:none"
     width="2"
     height="2"
     x="72.7989"
     y="138.1397"
     transform="rotate(-88.5962 73.2989 139.1397)" /> 
  <path
     style="fill:none;stroke:#d55800;stroke-width:1px;stroke-linecap:butt;stroke-linejoin:miter;stroke-opacity:1"
     d="m 73.2989,137.1397 2,2 -2,2 m -2.370121,-4 2,2 -2,2"
     transform="rotate(-88.5962 73.2989 139.1397)"/>
  <line x1="73.0304" y1="150.4182" x2="105.8609" y2="151.0145" stroke="#2d0032" stroke-width="1.0" />
  <line x1="73.0758" y1="147.9186" x2="105.9063" y2="148.5149" stroke="#2d0032" stroke-width="1.0" />
  <line x1="73.5447" y1="129.1109" x2="73.9201" y2="109.0009" stroke="#000000" stroke-width="1.0" />
  <rect
     style="fill:#ffffff;fill-opacity:1;fill-rule:nonzero;stroke:none"
     width="2"
     height="2"
     x="73.2324"
     y="118.0559"
     transform="rotate(-88.9303 73.7324 119.0559)" /> 
  <path
     style="fill:none;stroke:#000000;stroke-width:1px;stroke-linecap:butt;stroke-linejoin:miter;stroke-opacity:1"
     d="m 73.7324,117.0559 2,2 -2,2 m -2.370121,-4 2,2 -2,2"
     transform="rotate(-88.9303 73.7324 119.0559)"/>
  <line x1="73.5254" y1="130.3608" x2="106.3656" y2="130.8671" stroke="#2d0032" stroke-width="1.0" />
  <line x1="73.5639" y1="127.8611" x2="106.4041" y2="128.3674" stroke="#2d0032" stroke-width="1.0" />
  <line x1="73.5447" y1="129.1109" x2="105.8836" y2="149.7647" stroke="#e78c00" stroke-width="1.0" />
  <rect
     style="fill:#ffffff;stroke:none"
     width="5.5"
     height="2"
     x="86.9641"
     y="138.4378" 
     transform="rotate(32.5650 89.7141 139.4378)"    /> 
  <path
     style="fill:none;stroke:#e78c00;stroke-width:1px;stroke-linecap:butt;stroke-linejoin:miter;stroke-opacity:1"
    d="m 90.4641,137.4378 2,2 -2,2 m -1.5,-4 -2,2 2,2" transform="rotate(32.5650 89.7141 139.4378)"/>
  <line x1="73.9079" y1="110.2508" x2="106.7241" y2="110.5727" stroke="#270026" stroke-width="1.0" />
  <line x1="73.9324" y1="107.7510" x2="106.7486" y2="108.0728" stroke="#270026" stroke-width="1.0" />
  <line x1="74.0675" y1="88.9002" x2="73.8492" y2="68.8005" stroke="#000000" stroke-width="1.0" />
  <rect
     style="fill:#ffffff;fill-opacity:1;fill-rule:nonzero;stroke:none"
     width="2"
     height="2"
     x="73.4584"
     y="77.8503"
     transform="rotate(269.3778 73.9584 78.8503)" /> 
  <path
     style="fill:none;stroke:#000000;stroke-width:1px;stroke-linecap:butt;stroke-linejoin:miter;stroke-opacity:1"
     d="m 73.9584,76.8503 2,2 -2,2 m -2.370121,-4 2,2 -2,2"
     transform="rotate(269.3778 73.9584 78.8503)"/>
  <line x1="74.0687" y1="90.1502" x2="106.8959" y2="90.1200" stroke="#270026" stroke-width="1.0" />
  <line x1="74.0664" y1="87.6502" x2="106.8936" y2="87.6200" stroke="#270026" stroke-width="1.0" />
  <line x1="74.0675" y1="88.9002" x2="106.7363" y2="109.3227" stroke="#17000d" stroke-width="1.0" />
  <rect
     style="fill:#ffffff;stroke:none"
     width="5.5"
     height="2"
     x="87.6519"
     y="98.1115" 
     transform="rotate(32.0111 90.4019 99.1115)"    /> 
  <path
     style="fill:none;stroke:#17000d;stroke-width:1px;stroke-linecap:butt;stroke-linejoin:miter;stroke-opacity:1"
    d="m 91.1519,97.1115 2,2 -2,2 m -1.5,-4 -2,2 2,2" transform="rotate(32.0111 90.4019 99.1115)"/>
  <line x1="73.8492" y1="68.8005" x2="100.4638" y2="45.9937" stroke="#8a06f6" stroke-width="1.0" />
  <rect
     style="fill:#ffffff;fill-opacity:1;fill-rule:nonzero;stroke:none"
     width="2"
     height="2"
     x="86.6565"
     y="56.3971"
     transform="rotate(-40.5942 87.1565 57.3971)" /> 
  <path
     style="fill:none;stroke:#8a06f6;stroke-width:1px;stroke-linecap:butt;stroke-linejoin:miter;stroke-opacity:1"
     d="m 87.1565,55.3971 2,2 -2,2 m -2.370121,-4 2,2 -2,2"
     transform="rotate(-40.5942 87.1565 57.3971)"/>
  <line x1="73.8662" y1="70.0503" x2="106.8242" y2="69.6021" stroke="#270026" stroke-width="1.0" />
  <line x1="73.8322" y1="67.5506" x2="106.7902" y2="67.1023" stroke="#270026" stroke-width="1.0" />
  <line x1="69.5643" y1="49.2704" x2="83.6302" y2="35.1235" stroke="#17000d" stroke-width="1.0" />
  <rect
     style="fill:#ffffff;fill-opacity:1;fill-rule:nonzero;stroke:none"
     width="2"
     height="2"
     x="76.0973"
     y="41.1970"
     transform="rotate(-45.1644 76.5973 42.1970)" /> 
  <path
     style="fill:none;stroke:#17000d;stroke-width:1px;stroke-linecap:butt;stroke-linejoin:miter;stroke-opacity:1"
     d="m 76.5973,40.1970 2,2 -2,2 m -2.370121,-4 2,2 -2,2"
     transform="rotate(-45.1644 76.5973 42.1970)"/>
  <line x1="100.4638" y1="45.9937" x2="106.8072" y2="68.3522" stroke="#d75b00" stroke-width="1.0" />
  <rect
     style="fill:#ffffff;stroke:none"
     width="5.5"
     height="2"
     x="100.8855"
     y="56.1729" 
     transform="rotate(74.1605 103.6355 57.1729)"    /> 
  <path
     style="fill:none;stroke:#d75b00;stroke-width:1px;stroke-linecap:butt;stroke-linejoin:miter;stroke-opacity:1"
    d="m 104.3855,55.1729 2,2 -2,2 m -1.5,-4 -2,2 2,2" transform="rotate(74.1605 103.6355 57.1729)"/>
  <line x1="106.8072" y1="68.3522" x2="106.8948" y2="88.8700" stroke="#000000" stroke-width="1.0" />
  <rect
     style="fill:#ffffff;fill-opacity:1;fill-rule:nonzero;stroke:none"
     width="2"
     height="2"
     x="106.3510"
     y="77.6111"
     transform="rotate(89.7555 106.8510 78.6111)" /> 
  <path
     style="fill:none;stroke:#000000;stroke-width:1px;stroke-linecap:butt;stroke-linejoin:miter;stroke-opacity:1"
     d="m 106.8510,76.6111 2,2 -2,2 m -2.370121,-4 2,2 -2,2"
     transform="rotate(89.7555 106.8510 78.6111)"/>
  <line x1="106.7363" y1="109.3227" x2="106.3848" y2="129.6172" stroke="#000000" stroke-width="1.0" />
  <rect
     style="fill:#ffffff;fill-opacity:1;fill-rule:nonzero;stroke:none"
     width="2"
     height="2"
     x="106.0606"
     y="118.4700"
     transform="rotate(90.9922 106.5606 119.4700)" /> 
  <path
     style="fill:none;stroke:#000000;stroke-width:1px;stroke-linecap:butt;stroke-linejoin:miter;stroke-opacity:1"
     d="m 106.5606,117.4700 2,2 -2,2 m -2.370121,-4 2,2 -2,2"
     transform="rotate(90.9922 106.5606 119.4700)"/>
  <line x1="106.3848" y1="129.6172" x2="105.8836" y2="149.7647" stroke="#9d0eb1" stroke-width="1.0" />
  <rect
     style="fill:#ffffff;fill-opacity:1;fill-rule:nonzero;stroke:none"
     width="2"
     height="2"
     x="105.6342"
     y="138.6910"
     transform="rotate(91.4252 106.1342 139.6910)" /> 
  <path
     style="fill:none;stroke:#9d0eb1;stroke-width:1px;stroke-linecap:butt;stroke-linejoin:miter;stroke-opacity:1"
     d="m 106.1342,137.6910 2,2 -2,2 m -2.370121,-4 2,2 -2,2"
     transform="rotate(91.4252 106.1342 139.6910)"/>
<circle cx="73.0531" cy="149.1684" r="5.0" stroke="#595959" stroke-width="1.0" fill="#ffffff"/>
<text x="73.0531" y="151.8684" text-anchor="middle" font-family="Helvetica" font-size="7.5" fill="#000000" >G</text>
<circle cx="73.5447" cy="129.1109" r="5.0" stroke="#595959" stroke-width="1.0" fill="#ffffff"/>
<text x="73.5447" y="131.8109" text-anchor="middle" font-family="Helvetica" font-size="7.5" fill="#000000" >G</text>
<circle cx="73.9201" cy="109.0009" r="5.0" stroke="#595959" stroke-width="1.0" fill="#ffffff"/>
<text x="73.9201" y="111.7009" text-anchor="middle" font-family="Helvetica" font-size="7.5" fill="#000000" >C</text>
<circle cx="74.0675" cy="88.9002" r="5.0" stroke="#595959" stroke-width="1.0" fill="#ffffff"/>
<text x="74.0675" y="91.6002" text-anchor="middle" font-family="Helvetica" font-size="7.5" fill="#000000" >G</text>
<circle cx="73.8492" cy="68.8005" r="5.0" stroke="#595959" stroke-width="1.0" fill="#ffffff"/>
<text x="73.8492" y="71.5005" text-anchor="middle" font-family="Helvetica" font-size="7.5" fill="#000000" >C</text>
<circle cx="69.5643" cy="49.2704" r="5.0" stroke="#595959" stroke-width="1.0" fill="#ffffff"/>
<text x="69.5643" y="51.9704" text-anchor="middle" font-family="Helvetica" font-size="7.5" fill="#000000" >A</text>
<circle cx="83.6302" cy="35.1235" r="5.0" stroke="#595959" stroke-width="1.0" fill="#ffffff"/>
<text x="83.6302" y="37.8235" text-anchor="middle" font-family="Helvetica" font-size="7.5" fill="#000000" >U</text>
<circle cx="100.4638" cy="45.9937" r="5.0" stroke="#595959" stroke-width="1.0" fill="#ffffff"/>
<text x="100.4638" y="48.6937" text-anchor="middle" font-family="Helvetica" font-size="7.5" fill="#000000" >C</text>
<circle cx="119.2003" cy="52.7047" r="5.0" stroke="#595959" stroke-width="1.0" fill="#ffffff"/>
<text x="119.2003" y="55.4047" text-anchor="middle" font-family="Helvetica" font-size="7.5" fill="#000000" >G</text>
<circle cx="106.8072" cy="68.3522" r="5.0" stroke="#595959" stroke-width="1.0" fill="#ffffff"/>
<text x="106.8072" y="71.0522" text-anchor="middle" font-family="Helvetica" font-size="7.5" fill="#000000" >G</text>
<circle cx="106.8948" cy="88.8700" r="5.0" stroke="#595959" stroke-width="1.0" fill="#ffffff"/>
<text x="106.8948" y="91.5700" text-anchor="middle" font-family="Helvetica" font-size="7.5" fill="#000000" >C</text>
<circle cx="106.7363" cy="109.3227" r="5.0" stroke="#595959" stroke-width="1.0" fill="#ffffff"/>
<text x="106.7363" y="112.0227" text-anchor="middle" font-family="Helvetica" font-size="7.5" fill="#000000" >G</text>
<circle cx="106.3848" cy="129.6172" r="5.0" stroke="#595959" stroke-width="1.0" fill="#ffffff"/>
<text x="106.3848" y="132.3172" text-anchor="middle" font-family="Helvetica" font-size="7.5" fill="#000000" >C</text>
<circle cx="105.8836" cy="149.7647" r="5.0" stroke="#595959" stroke-width="1.0" fill="#ffffff"/>
<text x="105.8836" y="152.4647" text-anchor="middle" font-family="Helvetica" font-size="7.5" fill="#000000" >C</text>
</svg>