<?xml version="1.0" encoding="UTF-8"?>
<!DOCTYPE svg PUBLIC "-//W3C//DTD SVG 1.1//EN" 
"http://www.w3.org/Graphics/SVG/1.1/DTD/svg11.dtd">

<svg version="1.1"
   width="182px"
   height="182px"
xmlns="http://www.w3.org/2000/svg">
    <rect width="100%" height="100%" fill="white"/>

  <line x1="72.9816" y1="108.6021" x2="73.0228" y2="88.5213" stroke="#595959"
     style="stroke-width:2;stroke-miterlimit:4;stroke-dasharray:1,1;stroke-dashoffset:0" />
  <line x1="72.8266" y1="68.4288" x2="70.7096" y2="48.5560" stroke="#595959"
     style="stroke-width:2;stroke-miterlimit:4;stroke-dasharray:1,1;stroke-dashoffset:0" />
  <line x1="102.7678" y1="47.4071" x2="121.2554" y2="54.7282" stroke="#595959"
     style="stroke-width:2;stroke-miterlimit:4;stroke-dasharray:1,1;stroke-dashoffset:0" />
  <line x1="121.2554" y1="54.7282" x2="106.2654" y2="68.0709" stroke="#595959"
     style="stroke-width:2;stroke-miterlimit:4;stroke-dasharray:1,1;stroke-dashoffset:0" />
  <line x1="106.2983" y1="88.5140" x2="106.1103" y2="108.9542" stroke="#595959"
     style="stroke-width:2;stroke-miterlimit:4;stroke-dasharray:1,1;stroke-dashoffset:0" />
  <line x1="72.0372" y1="148.7409" x2="72.5698" y2="128.6813" stroke="#d35200" stroke-width="1.0" />
  <rect
     style="fill:#ffffff;fill-opacity:1;fill-rule:nonzero;stroke:none"
     width="2"
     height="2"
     x="71.8035"
     y="137.7111"
     transform="rotate(-88.4792 72.3035 138.7111)" /> 
  <path
     style="fill:none;stroke:#d35200;stroke-width:1px;stroke-linecap:butt;stroke-linejoin:miter;stroke-opacity:1"
     d="m 72.3035,136.7111 2,2 -2,2 m -2.370121,-4 2,2 -2,2"
     transform="rotate(-88.4792 72.3035 138.7111)"/>
  <line x1="72.0114" y1="149.9907" x2="105.1314" y2="150.6750" stroke="#33003e" stroke-width="1.0" />
  <line x1="72.0631" y1="147.4912" x2="105.1830" y2="148.1755" stroke="#33003e" stroke-width="1.0" />
  <line x1="72.5698" y1="128.6813" x2="72.9816" y2="108.6021" stroke="#000000" stroke-width="1.0" />
  <rect
     style="fill:#ffffff;fill-opacity:1;fill-rule:nonzero;stroke:none"
     width="2"
     height="2"
     x="72.2757"
     y="117.6417"
     transform="rotate(-88.8251 72.7757 118.6417)" /> 
  <path
     style="fill:none;stroke:#000000;stroke-width:1px;stroke-linecap:butt;stroke-linejoin:miter;stroke-opacity:1"
     d="m 72.7757,116.6417 2,2 -2,2 m -2.370121,-4 2,2 -2,2"
     transform="rotate(-88.8251 72.7757 118.6417)"/>
  <line x1="72.5474" y1="129.9311" x2="105.6880" y2="130.5257" stroke="#270026" stroke-width="1.0" />
  <line x1="72.5922" y1="127.4315" x2="105.7329" y2="128.0261" stroke="#270026" stroke-width="1.0" />
  <line x1="72.5698" y1="128.6813" x2="105.1572" y2="149.4252" stroke="#eb9d00" stroke-width="1.0" />
  <rect
     style="fill:#ffffff;stroke:none"
     width="5.5"
     height="2"
     x="86.1135"
     y="138.0533" 
     transform="rotate(32.4793 88.8635 139.0533)"    /> 
  <path
     style="fill:none;stroke:#eb9d00;stroke-width:1px;stroke-linecap:butt;stroke-linejoin:miter;stroke-opacity:1"
    d="m 89.6135,137.0533 2,2 -2,2 m -1.5,-4 -2,2 2,2" transform="rotate(32.4793 88.8635 139.0533)"/>
  <line x1="72.9683" y1="109.8520" x2="106.0971" y2="110.2042" stroke="#2d0032" stroke-width="1.0" />
  <line x1="72.9949" y1="107.3522" x2="106.1236" y2="107.7043" stroke="#2d0032" stroke-width="1.0" />
  <line x1="73.0228" y1="88.5213" x2="72.8266" y2="68.4288" stroke="#000000" stroke-width="1.0" />
  <rect
     style="fill:#ffffff;fill-opacity:1;fill-rule:nonzero;stroke:none"
     width="2"
     height="2"
     x="72.4247"
     y="77.4750"
     transform="rotate(269.4403 72.9247 78.4750)" /> 
  <path
     style="fill:none;stroke:#000000;stroke-width:1px;stroke-linecap:butt;stroke-linejoin:miter;stroke-opacity:1"
     d="m 72.9247,76.4750 2,2 -2,2 m -2.370121,-4 2,2 -2,2"
     transform="rotate(269.4403 72.9247 78.4750)"/>
  <line x1="73.0231" y1="89.7713" x2="106.2986" y2="89.7640" stroke="#270026" stroke-width="1.0" />
  <line x1="73.0226" y1="87.2713" x2="106.2980" y2="87.2640" stroke="#270026" stroke-width="1.0" />
  <line x1="73.0228" y1="88.5213" x2="106.1103" y2="108.9542" stroke="#33003e" stroke-width="1.0" />
  <rect
     style="fill:#ffffff;stroke:none"
     width="5.5"
     height="2"
     x="86.8166"
     y="97.7378" 
     transform="rotate(31.6970 89.5666 98.7378)"    /> 
  <path
     style="fill:none;stroke:#33003e;stroke-width:1px;stroke-linecap:butt;stroke-linejoin:miter;stroke-opacity:1"
    d="m 90.3166,96.7378 2,2 -2,2 m -1.5,-4 -2,2 2,2" transform="rotate(31.6970 89.5666 98.7378)"/>
  <line x1="72.8399" y1="69.6787" x2="106.2788" y2="69.3208" stroke="#270026" stroke-width="1.0" />
  <line x1="72.8132" y1="67.1788" x2="106.2520" y2="66.8210" stroke="#270026" stroke-width="1.0" />
  <line x1="70.7096" y1="48.5560" x2="86.2876" y2="36.0939" stroke="#17000d" stroke-width="1.0" />
  <rect
     style="fill:#ffffff;fill-opacity:1;fill-rule:nonzero;stroke:none"
     width="2"
     height="2"
     x="77.9986"
     y="41.3250"
     transform="rotate(-38.6591 78.4986 42.3250)" /> 
  <path
     style="fill:none;stroke:#17000d;stroke-width:1px;stroke-linecap:butt;stroke-linejoin:miter;stroke-opacity:1"
     d="m 78.4986,40.3250 2,2 -2,2 m -2.370121,-4 2,2 -2,2"
     transform="rotate(-38.6591 78.4986 42.3250)"/>
  <line x1="86.2876" y1="36.0939" x2="102.7678" y2="47.4071" stroke="#2d0032" stroke-width="1.0" />
  <rect
     style="fill:#ffffff;fill-opacity:1;fill-rule:nonzero;stroke:none"
     width="2"
     height="2"
     x="94.0277"
     y="40.7505"
     transform="rotate(34.4684 94.5277 41.7505)" /> 
  <path
     style="fill:none;stroke:#2d0032;stroke-width:1px;stroke-linecap:butt;stroke-linejoin:miter;stroke-opacity:1"
     d="m 94.5277,39.7505 2,2 -2,2 m -2.370121,-4 2,2 -2,2"
     transform="rotate(34.4684 94.5277 41.7505)"/>
  <line x1="102.7678" y1="47.4071" x2="106.2654" y2="68.0709" stroke="#5500a3" stroke-width="1.0" />
  <rect
     style="fill:#ffffff;fill-opacity:1;fill-rule:nonzero;stroke:none"
     width="2"
     height="2"
     x="104.0166"
     y="56.7390"
     transform="rotate(80.3931 104.5166 57.7390)" /> 
  <path
     style="fill:none;stroke:#5500a3;stroke-width:1px;stroke-linecap:butt;stroke-linejoin:miter;stroke-opacity:1"
     d="m 104.5166,55.7390 2,2 -2,2 m -2.370121,-4 2,2 -2,2"
     transform="rotate(80.3931 104.5166 57.7390)"/>
  <line x1="106.2654" y1="68.0709" x2="106.2983" y2="88.5140" stroke="#000000" stroke-width="1.0" />
  <rect
     style="fill:#ffffff;fill-opacity:1;fill-rule:nonzero;stroke:none"
     width="2"
     height="2"
     x="105.7818"
     y="77.2925"
     transform="rotate(89.9079 106.2818 78.2925)" /> 
  <path
     style="fill:none;stroke:#000000;stroke-width:1px;stroke-linecap:butt;stroke-linejoin:miter;stroke-opacity:1"
     d="m 106.2818,76.2925 2,2 -2,2 m -2.370121,-4 2,2 -2,2"
     transform="rotate(89.9079 106.2818 78.2925)"/>
  <line x1="106.1103" y1="108.9542" x2="105.7104" y2="129.2759" stroke="#000000" stroke-width="1.0" />
  <rect
     style="fill:#ffffff;fill-opacity:1;fill-rule:nonzero;stroke:none"
     width="2"
     height="2"
     x="105.4104"
     y="118.1151"
     transform="rotate(91.1274 105.9104 119.1151)" /> 
  <path
     style="fill:none;stroke:#000000;stroke-width:1px;stroke-linecap:butt;stroke-linejoin:miter;stroke-opacity:1"
     d="m 105.9104,117.1151 2,2 -2,2 m -2.370121,-4 2,2 -2,2"
     transform="rotate(91.1274 105.9104 119.1151)"/>
  <line x1="105.7104" y1="129.2759" x2="105.1572" y2="149.4252" stroke="#8f08ea" stroke-width="1.0" />
  <rect
     style="fill:#ffffff;fill-opacity:1;fill-rule:nonzero;stroke:none"
     width="2"
     height="2"
     x="104.9338"
     y="138.3506"
     transform="rotate(91.5728 105.4338 139.3506)" /> 
  <path
     style="fill:none;stroke:#8f08ea;stroke-width:1px;stroke-linecap:butt;stroke-linejoin:miter;stroke-opacity:1"
     d="m 105.4338,137.3506 2,2 -2,2 m -2.370121,-4 2,2 -2,2"
     transform="rotate(91.5728 105.4338 139.3506)"/>
<circle cx="72.0372" cy="148.7409" r="5.0" stroke="#595959" stroke-width="1.0" fill="#ffffff"/>
<text x="72.0372" y="151.4409" text-anchor="middle" font-family="Helvetica" font-size="7.5" fill="#000000" >G</text>
<circle cx="72.5698" cy="128.6813" r="5.0" stroke="#595959" stroke-width="1.0" fill="#ffffff"/>
<text x="72.5698" y="131.3813" text-anchor="middle" font-family="Helvetica" font-size="7.5" fill="#000000" >G</text>
<circle cx="72.9816" cy="108.6021" r="5.0" stroke="#595959" stroke-width="1.0" fill="#ffffff"/>
<text x="72.9816" y="111.3021" text-anchor="middle" font-family="Helvetica" font-size="7.5" fill="#000000" >C</text>
<circle cx="73.0228" cy="88.5213" r="5.0" stroke="#595959" stroke-width="1.0" fill="#ffffff"/>
<text x="73.0228" y="91.2213" text-anchor="middle" font-family="Helvetica" font-size="7.5" fill="#000000" >G</text>
<circle cx="72.8266" cy="68.4288" r="5.0" stroke="#595959" stroke-width="1.0" fill="#ffffff"/>
<text x="72.8266" y="71.1288" text-anchor="middle" font-family="Helvetica" font-size="7.5" fill="#000000" >C</text>
<circle cx="70.7096" cy="48.5560" r="5.0" stroke="#595959" stroke-width="1.0" fill="#ffffff"/>
<text x="70.7096" y="51.2560" text-anchor="middle" font-family="Helvetica" font-size="7.5" fill="#000000" >A</text>
<circle cx="86.2876" cy="36.0939" r="5.0" stroke="#595959" stroke-width="1.0" fill="#ffffff"/>
<text x="86.2876" y="38.7939" text-anchor="middle" font-family="Helvetica" font-size="7.5" fill="#000000" >U</text>
<circle cx="102.7678" cy="47.4071" r="5.0" stroke="#595959" stroke-width="1.0" fill="#ffffff"/>
<text x="102.7678" y="50.1071" text-anchor="middle" font-family="Helvetica" font-size="7.5" fill="#000000" >C</text>
<circle cx="121.2554" cy="54.7282" r="5.0" stroke="#595959" stroke-width="1.0" fill="#ffffff"/>
<text x="121.2554" y="57.4282" text-anchor="middle" font-family="Helvetica" font-size="7.5" fill="#000000" >G</text>
<circle cx="106.2654" cy="68.0709" r="5.0" stroke="#595959" stroke-width="1.0" fill="#ffffff"/>
<text x="106.2654" y="70.7709" text-anchor="middle" font-family="Helvetica" font-size="7.5" fill="#000000" >G</text>
<circle cx="106.2983" cy="88.5140" r="5.0" stroke="#595959" stroke-width="1.0" fill="#ffffff"/>
<text x="106.2983" y="91.2140" text-anchor="middle" font-family="Helvetica" font-size="7.5" fill="#000000" >C</text>
<circle cx="106.1103" cy="108.9542" r="5.0" stroke="#595959" stroke-width="1.0" fill="#ffffff"/>
<text x="106.1103" y="111.6542" text-anchor="middle" font-family="Helvetica" font-size="7.5" fill="#000000" >G</text>
<circle cx="105.7104" cy="129.2759" r="5.0" stroke="#595959" stroke-width="1.0" fill="#ffffff"/>
<text x="105.7104" y="131.9759" text-anchor="middle" font-family="Helvetica" font-size="7.5" fill="#000000" >C</text>
<circle cx="105.1572" cy="149.4252" r="5.0" stroke="#595959" stroke-width="1.0" fill="#ffffff"/>
<text x="105.1572" y="152.1252" text-anchor="middle" font-family="Helvetica" font-size="7.5" fill="#000000" >C</text>
</svg>