<?xml version="1.0" encoding="UTF-8"?>
<!DOCTYPE svg PUBLIC "-//W3C//DTD SVG 1.1//EN" 
"http://www.w3.org/Graphics/SVG/1.1/DTD/svg11.dtd">

<svg version="1.1"
   width="182px"
   height="182px"
xmlns="http://www.w3.org/2000/svg">
    <rect width="100%" height="100%" fill="white"/>

  <line x1="76.0487" y1="106.8878" x2="76.2171" y2="85.7706" stroke="#595959"
     style="stroke-width:2;stroke-miterlimit:4;stroke-dasharray:1,1;stroke-dashoffset:0" />
  <line x1="76.1151" y1="65.4982" x2="76.0967" y2="45.1993" stroke="#595959"
     style="stroke-width:2;stroke-miterlimit:4;stroke-dasharray:1,1;stroke-dashoffset:0" />
  <line x1="76.0967" y1="45.1993" x2="86.2119" y2="27.9864" stroke="#595959"
     style="stroke-width:2;stroke-miterlimit:4;stroke-dasharray:1,1;stroke-dashoffset:0" />
  <line x1="86.2119" y1="27.9864" x2="98.1891" y2="43.9920" stroke="#595959"
     style="stroke-width:2;stroke-miterlimit:4;stroke-dasharray:1,1;stroke-dashoffset:0" />
  <line x1="98.1891" y1="43.9920" x2="100.3665" y2="64.2446" stroke="#595959"
     style="stroke-width:2;stroke-miterlimit:4;stroke-dasharray:1,1;stroke-dashoffset:0" />
  <line x1="102.3099" y1="84.5989" x2="119.4767" y2="94.7211" stroke="#595959"
     style="stroke-width:2;stroke-miterlimit:4;stroke-dasharray:1,1;stroke-dashoffset:0" />
  <line x1="119.4767" y1="94.7211" x2="103.5889" y2="106.7373" stroke="#595959"
     style="stroke-width:2;stroke-miterlimit:4;stroke-dasharray:1,1;stroke-dashoffset:0" />
  <line x1="75.4838" y1="147.1435" x2="75.6912" y2="127.0387" stroke="#c73900" stroke-width="1.0" />
  <rect
     style="fill:#ffffff;fill-opacity:1;fill-rule:nonzero;stroke:none"
     width="2"
     height="2"
     x="75.0875"
     y="136.0911"
     transform="rotate(-89.4092 75.5875 137.0911)" /> 
  <path
     style="fill:none;stroke:#c73900;stroke-width:1px;stroke-linecap:butt;stroke-linejoin:miter;stroke-opacity:1"
     d="m 75.5875,135.0911 2,2 -2,2 m -2.370121,-4 2,2 -2,2"
     transform="rotate(-89.4092 75.5875 137.0911)"/>
  <line x1="75.4835" y1="148.3935" x2="104.2054" y2="148.4024" stroke="#2d0032" stroke-width="1.0" />
  <line x1="75.4842" y1="145.8935" x2="104.2062" y2="145.9024" stroke="#2d0032" stroke-width="1.0" />
  <line x1="75.6912" y1="127.0387" x2="76.0487" y2="106.8878" stroke="#000000" stroke-width="1.0" />
  <rect
     style="fill:#ffffff;fill-opacity:1;fill-rule:nonzero;stroke:none"
     width="2"
     height="2"
     x="75.3699"
     y="115.9633"
     transform="rotate(-88.9836 75.8699 116.9633)" /> 
  <path
     style="fill:none;stroke:#000000;stroke-width:1px;stroke-linecap:butt;stroke-linejoin:miter;stroke-opacity:1"
     d="m 75.8699,114.9633 2,2 -2,2 m -2.370121,-4 2,2 -2,2"
     transform="rotate(-88.9836 75.8699 116.9633)"/>
  <line x1="75.6916" y1="128.2887" x2="103.9989" y2="128.2793" stroke="#37004b" stroke-width="1.0" />
  <line x1="75.6907" y1="125.7887" x2="103.9981" y2="125.7793" stroke="#37004b" stroke-width="1.0" />
  <line x1="75.6912" y1="127.0387" x2="104.2058" y2="147.1524" stroke="#e68800" stroke-width="1.0" />
  <rect
     style="fill:#ffffff;stroke:none"
     width="5.5"
     height="2"
     x="87.1985"
     y="136.0956" 
     transform="rotate(35.1984 89.9485 137.0956)"    /> 
  <path
     style="fill:none;stroke:#e68800;stroke-width:1px;stroke-linecap:butt;stroke-linejoin:miter;stroke-opacity:1"
    d="m 90.6985,135.0956 2,2 -2,2 m -1.5,-4 -2,2 2,2" transform="rotate(35.1984 89.9485 137.0956)"/>
  <line x1="76.0555" y1="108.1378" x2="103.5958" y2="107.9873" stroke="#2d0032" stroke-width="1.0" />
  <line x1="76.0418" y1="105.6378" x2="103.5821" y2="105.4873" stroke="#2d0032" stroke-width="1.0" />
  <line x1="76.2171" y1="85.7706" x2="76.1151" y2="65.4982" stroke="#270026" stroke-width="1.0" />
  <rect
     style="fill:#ffffff;fill-opacity:1;fill-rule:nonzero;stroke:none"
     width="2"
     height="2"
     x="75.6661"
     y="74.6344"
     transform="rotate(269.7116 76.1661 75.6344)" /> 
  <path
     style="fill:none;stroke:#270026;stroke-width:1px;stroke-linecap:butt;stroke-linejoin:miter;stroke-opacity:1"
     d="m 76.1661,73.6344 2,2 -2,2 m -2.370121,-4 2,2 -2,2"
     transform="rotate(269.7116 76.1661 75.6344)"/>
  <line x1="76.2171" y1="85.7706" x2="102.3099" y2="84.5989" stroke="#37004b" stroke-width="1.0" />
  <path d="M 87.2635 87.4347 L 87.2635 82.9347 L 91.2635 85.1847 z" style="stroke:#37004b;stroke-width:1.0" fill="#ffffff"
    transform="rotate(-2.5711 89.2635 85.1847)"/>
  <line x1="76.2171" y1="85.7706" x2="103.5889" y2="106.7373" stroke="#520099" stroke-width="1.0" />
  <rect
     style="fill:#ffffff;stroke:none"
     width="5.5"
     height="2"
     x="87.1530"
     y="95.2539" 
     transform="rotate(37.4521 89.9030 96.2539)"    /> 
  <path
     style="fill:none;stroke:#520099;stroke-width:1px;stroke-linecap:butt;stroke-linejoin:miter;stroke-opacity:1"
    d="m 90.6530,94.2539 2,2 -2,2 m -1.5,-4 -2,2 2,2" transform="rotate(37.4521 89.9030 96.2539)"/>
  <line x1="76.1151" y1="65.4982" x2="100.3665" y2="64.2446" stroke="#8204ff" stroke-width="1.0" />
  <circle cx="91.7408" cy="64.8714" r="2.25" stroke="#8204ff" stroke-width="1.0" fill="#ffffff"
    transform="rotate(-2.9589 88.2408 64.8714)" />
  <path d="M 86.4908 67.1214 L 86.4908 62.6214 L 82.4908 64.8714 z" style="stroke:#8204ff;stroke-width:1.0" fill="#ffffff" 
    transform="rotate(-2.9589 88.2408 64.8714)"/>
  <line x1="76.0967" y1="45.1993" x2="98.1891" y2="43.9920" stroke="#000000" stroke-width="1.0" />
  <rect
     style="fill:#ffffff;fill-opacity:1;fill-rule:nonzero;stroke:none"
     width="2"
     height="2"
     x="86.1429"
     y="43.5956" 
     transform="rotate(-3.1282 87.1429 44.5956)" /> 
  <path
     style="fill:none;stroke:#000000;stroke-width:1px;stroke-linecap:butt;stroke-linejoin:miter;stroke-opacity:1"
     d="m 90.1429,42.5956 -2,2 2,2 m -6,-4 2,2 -2,2"
     transform="rotate(-3.1282 87.1429 44.5956)"/>
  <line x1="76.0967" y1="45.1993" x2="100.3665" y2="64.2446" stroke="#000000" stroke-width="1.0" />
  <rect
     style="fill:#ffffff;fill-opacity:1;fill-rule:nonzero;stroke:none"
     width="2"
     height="2"
     x="87.7316"
     y="53.7220"
     transform="rotate(218.1224 88.2316 54.7220)" /> 
  <path
     style="fill:none;stroke:#000000;stroke-width:1px;stroke-linecap:butt;stroke-linejoin:miter;stroke-opacity:1"
     d="m 88.2316,52.7220 2,2 -2,2 m -2.370121,-4 2,2 -2,2"
     transform="rotate(218.1224 88.2316 54.7220)"/>
  <line x1="100.3665" y1="64.2446" x2="102.3099" y2="84.5989" stroke="#520099" stroke-width="1.0" />
  <rect
     style="fill:#ffffff;fill-opacity:1;fill-rule:nonzero;stroke:none"
     width="2"
     height="2"
     x="100.8382"
     y="73.4218"
     transform="rotate(264.5460 101.3382 74.4218)" /> 
  <path
     style="fill:none;stroke:#520099;stroke-width:1px;stroke-linecap:butt;stroke-linejoin:miter;stroke-opacity:1"
     d="m 101.3382,72.4218 2,2 -2,2 m -2.370121,-4 2,2 -2,2"
     transform="rotate(264.5460 101.3382 74.4218)"/>
  <line x1="103.5889" y1="106.7373" x2="103.9985" y2="127.0293" stroke="#000000" stroke-width="1.0" />
  <rect
     style="fill:#ffffff;fill-opacity:1;fill-rule:nonzero;stroke:none"
     width="2"
     height="2"
     x="103.2937"
     y="115.8833"
     transform="rotate(88.8437 103.7937 116.8833)" /> 
  <path
     style="fill:none;stroke:#000000;stroke-width:1px;stroke-linecap:butt;stroke-linejoin:miter;stroke-opacity:1"
     d="m 103.7937,114.8833 2,2 -2,2 m -2.370121,-4 2,2 -2,2"
     transform="rotate(88.8437 103.7937 116.8833)"/>
  <line x1="103.9985" y1="127.0293" x2="104.2058" y2="147.1524" stroke="#c73900" stroke-width="1.0" />
  <rect
     style="fill:#ffffff;fill-opacity:1;fill-rule:nonzero;stroke:none"
     width="2"
     height="2"
     x="103.6022"
     y="136.0909"
     transform="rotate(89.4097 104.1022 137.0909)" /> 
  <path
     style="fill:none;stroke:#c73900;stroke-width:1px;stroke-linecap:butt;stroke-linejoin:miter;stroke-opacity:1"
     d="m 104.1022,135.0909 2,2 -2,2 m -2.370121,-4 2,2 -2,2"
     transform="rotate(89.4097 104.1022 137.0909)"/>
<circle cx="75.4838" cy="147.1435" r="5.0" stroke="#595959" stroke-width="1.0" fill="#ffffff"/>
<text x="75.4838" y="149.8435" text-anchor="middle" font-family="Helvetica" font-size="7.5" fill="#000000" >G</text>
<circle cx="75.6912" cy="127.0387" r="5.0" stroke="#595959" stroke-width="1.0" fill="#ffffff"/>
<text x="75.6912" y="129.7387" text-anchor="middle" font-family="Helvetica" font-size="7.5" fill="#000000" >G</text>
<circle cx="76.0487" cy="106.8878" r="5.0" stroke="#595959" stroke-width="1.0" fill="#ffffff"/>
<text x="76.0487" y="109.5878" text-anchor="middle" font-family="Helvetica" font-size="7.5" fill="#000000" >C</text>
<circle cx="76.2171" cy="85.7706" r="5.0" stroke="#595959" stroke-width="1.0" fill="#ffffff"/>
<text x="76.2171" y="88.4706" text-anchor="middle" font-family="Helvetica" font-size="7.5" fill="#000000" >A</text>
<circle cx="76.1151" cy="65.4982" r="5.0" stroke="#595959" stroke-width="1.0" fill="#ffffff"/>
<text x="76.1151" y="68.1982" text-anchor="middle" font-family="Helvetica" font-size="7.5" fill="#000000" >C</text>
<circle cx="76.0967" cy="45.1993" r="5.0" stroke="#595959" stroke-width="1.0" fill="#ffffff"/>
<text x="76.0967" y="47.8993" text-anchor="middle" font-family="Helvetica" font-size="7.5" fill="#000000" >U</text>
<circle cx="86.2119" cy="27.9864" r="5.0" stroke="#595959" stroke-width="1.0" fill="#ffffff"/>
<text x="86.2119" y="30.6864" text-anchor="middle" font-family="Helvetica" font-size="7.5" fill="#000000" >U</text>
<circle cx="98.1891" cy="43.9920" r="5.0" stroke="#595959" stroke-width="1.0" fill="#ffffff"/>
<text x="98.1891" y="46.6920" text-anchor="middle" font-family="Helvetica" font-size="7.5" fill="#000000" >C</text>
<circle cx="100.3665" cy="64.2446" r="5.0" stroke="#595959" stroke-width="1.0" fill="#ffffff"/>
<text x="100.3665" y="66.9446" text-anchor="middle" font-family="Helvetica" font-size="7.5" fill="#000000" >G</text>
<circle cx="102.3099" cy="84.5989" r="5.0" stroke="#595959" stroke-width="1.0" fill="#ffffff"/>
<text x="102.3099" y="87.2989" text-anchor="middle" font-family="Helvetica" font-size="7.5" fill="#000000" >G</text>
<circle cx="119.4767" cy="94.7211" r="5.0" stroke="#595959" stroke-width="1.0" fill="#ffffff"/>
<text x="119.4767" y="97.4211" text-anchor="middle" font-family="Helvetica" font-size="7.5" fill="#000000" >U</text>
<circle cx="103.5889" cy="106.7373" r="5.0" stroke="#595959" stroke-width="1.0" fill="#ffffff"/>
<text x="103.5889" y="109.4373" text-anchor="middle" font-family="Helvetica" font-size="7.5" fill="#000000" >G</text>
<circle cx="103.9985" cy="127.0293" r="5.0" stroke="#595959" stroke-width="1.0" fill="#ffffff"/>
<text x="103.9985" y="129.7293" text-anchor="middle" font-family="Helvetica" font-size="7.5" fill="#000000" >C</text>
<circle cx="104.2058" cy="147.1524" r="5.0" stroke="#595959" stroke-width="1.0" fill="#ffffff"/>
<text x="104.2058" y="149.8524" text-anchor="middle" font-family="Helvetica" font-size="7.5" fill="#000000" >C</text>
</svg>