<?xml version="1.0" encoding="UTF-8"?>
<!DOCTYPE svg PUBLIC "-//W3C//DTD SVG 1.1//EN" 
"http://www.w3.org/Graphics/SVG/1.1/DTD/svg11.dtd">

<svg version="1.1"
   width="308px"
   height="308px"
xmlns="http://www.w3.org/2000/svg">
    <rect width="100%" height="100%" fill="white"/>

  <line x1="136.2453" y1="217.6537" x2="136.6295" y2="197.6752" stroke="#595959"
     style="stroke-width:2;stroke-miterlimit:4;stroke-dasharray:1,1;stroke-dashoffset:0" />
  <line x1="134.8895" y1="76.2108" x2="139.8977" y2="56.6843" stroke="#595959"
     style="stroke-width:2;stroke-miterlimit:4;stroke-dasharray:1,1;stroke-dashoffset:0" />
  <line x1="139.8977" y1="56.6843" x2="159.8010" y2="54.9679" stroke="#595959"
     style="stroke-width:2;stroke-miterlimit:4;stroke-dasharray:1,1;stroke-dashoffset:0" />
  <line x1="159.8010" y1="54.9679" x2="167.8494" y2="73.8935" stroke="#595959"
     style="stroke-width:2;stroke-miterlimit:4;stroke-dasharray:1,1;stroke-dashoffset:0" />
  <line x1="167.8494" y1="73.8935" x2="185.2764" y2="83.4464" stroke="#595959"
     style="stroke-width:2;stroke-miterlimit:4;stroke-dasharray:1,1;stroke-dashoffset:0" />
  <line x1="185.2764" y1="83.4464" x2="169.1451" y2="95.3225" stroke="#595959"
     style="stroke-width:2;stroke-miterlimit:4;stroke-dasharray:1,1;stroke-dashoffset:0" />
  <line x1="169.6692" y1="198.3785" x2="169.0432" y2="218.3856" stroke="#595959"
     style="stroke-width:2;stroke-miterlimit:4;stroke-dasharray:1,1;stroke-dashoffset:0" />
  <line x1="136.5954" y1="199.2749" x2="169.6351" y2="199.9781" stroke="#d85e00" stroke-width="1.0" />
  <circle cx="153.1153" cy="199.6265" r="2.25" stroke="#d85e00" stroke-width="1.0" fill="#d85e00"/>
  <line x1="137.4570" y1="157.7042" x2="170.5074" y2="157.9161" stroke="#df7200" stroke-width="1.0" />
  <circle cx="153.9822" cy="157.8102" r="2.25" stroke="#df7200" stroke-width="1.0" fill="#df7200"/>
  <line x1="137.4272" y1="139.2897" x2="170.4671" y2="138.8815" stroke="#eb9d00" stroke-width="1.0" />
  <circle cx="153.9472" cy="139.0856" r="2.25" stroke="#eb9d00" stroke-width="1.0" fill="#eb9d00"/>
  <line x1="134.8895" y1="76.2108" x2="167.8494" y2="73.8935" stroke="#000000" stroke-width="1.0" />
  <path d="M 145.6194 77.3022 L 145.6194 72.8022 L 150.1194 72.8022 L 150.1194 77.3022 z" style="stroke:#000000;stroke-width:1.0" fill="#000000" 
    transform="rotate(175.9783 151.3694 75.0522)"/>
  <path d="M 153.1194 77.3022 L 153.1194 72.8022 L 157.1194 75.0522 z" style="stroke:#000000;stroke-width:1.0" fill="#000000"
    transform="rotate(175.9783 151.3694 75.0522)"/>
  <line x1="135.1948" y1="257.6142" x2="135.7362" y2="237.6310" stroke="#d14c00" stroke-width="1.0" />
  <rect
     style="fill:#ffffff;fill-opacity:1;fill-rule:nonzero;stroke:none"
     width="2"
     height="2"
     x="134.9655"
     y="246.6226"
     transform="rotate(-88.4480 135.4655 247.6226)" /> 
  <path
     style="fill:none;stroke:#d14c00;stroke-width:1px;stroke-linecap:butt;stroke-linejoin:miter;stroke-opacity:1"
     d="m 135.4655,245.6226 2,2 -2,2 m -2.370121,-4 2,2 -2,2"
     transform="rotate(-88.4480 135.4655 247.6226)"/>
  <line x1="135.1660" y1="258.8638" x2="167.8543" y2="259.6172" stroke="#37004b" stroke-width="1.0" />
  <line x1="135.2236" y1="256.3645" x2="167.9119" y2="257.1179" stroke="#37004b" stroke-width="1.0" />
  <line x1="135.7362" y1="237.6310" x2="136.2453" y2="217.6537" stroke="#000000" stroke-width="1.0" />
  <rect
     style="fill:#ffffff;fill-opacity:1;fill-rule:nonzero;stroke:none"
     width="2"
     height="2"
     x="135.4907"
     y="226.6424"
     transform="rotate(-88.5400 135.9907 227.6424)" /> 
  <path
     style="fill:none;stroke:#000000;stroke-width:1px;stroke-linecap:butt;stroke-linejoin:miter;stroke-opacity:1"
     d="m 135.9907,225.6424 2,2 -2,2 m -2.370121,-4 2,2 -2,2"
     transform="rotate(-88.5400 135.9907 227.6424)"/>
  <line x1="135.7077" y1="238.8807" x2="168.4174" y2="239.6261" stroke="#200019" stroke-width="1.0" />
  <line x1="135.7646" y1="236.3813" x2="168.4744" y2="237.1268" stroke="#200019" stroke-width="1.0" />
  <line x1="135.7362" y1="237.6310" x2="167.8831" y2="258.3676" stroke="#eda600" stroke-width="1.0" />
  <rect
     style="fill:#ffffff;stroke:none"
     width="5.5"
     height="2"
     x="149.0597"
     y="246.9993" 
     transform="rotate(32.8242 151.8097 247.9993)"    /> 
  <path
     style="fill:none;stroke:#eda600;stroke-width:1px;stroke-linecap:butt;stroke-linejoin:miter;stroke-opacity:1"
    d="m 152.5597,245.9993 2,2 -2,2 m -1.5,-4 -2,2 2,2" transform="rotate(32.8242 151.8097 247.9993)"/>
  <line x1="136.2174" y1="218.9034" x2="169.0153" y2="219.6352" stroke="#270026" stroke-width="1.0" />
  <line x1="136.2732" y1="216.4040" x2="169.0710" y2="217.1359" stroke="#270026" stroke-width="1.0" />
  <line x1="136.6295" y1="197.6752" x2="137.1599" y2="177.6929" stroke="#ab1751" stroke-width="1.0" />
  <rect
     style="fill:#ffffff;fill-opacity:1;fill-rule:nonzero;stroke:none"
     width="2"
     height="2"
     x="136.3947"
     y="186.6841"
     transform="rotate(-88.4795 136.8947 187.6841)" /> 
  <path
     style="fill:none;stroke:#ab1751;stroke-width:1px;stroke-linecap:butt;stroke-linejoin:miter;stroke-opacity:1"
     d="m 136.8947,185.6841 2,2 -2,2 m -2.370121,-4 2,2 -2,2"
     transform="rotate(-88.4795 136.8947 187.6841)"/>
  <line x1="136.6635" y1="196.0756" x2="169.7032" y2="196.7789" stroke="#8d07ef" stroke-width="1.0" />
  <line x1="136.6295" y1="197.6752" x2="169.0432" y2="218.3856" stroke="#400062" stroke-width="1.0" />
  <rect
     style="fill:#ffffff;stroke:none"
     width="5.5"
     height="2"
     x="150.0863"
     y="207.0304" 
     transform="rotate(32.5761 152.8363 208.0304)"    /> 
  <path
     style="fill:none;stroke:#400062;stroke-width:1px;stroke-linecap:butt;stroke-linejoin:miter;stroke-opacity:1"
    d="m 153.5863,206.0304 2,2 -2,2 m -1.5,-4 -2,2 2,2" transform="rotate(32.5761 152.8363 208.0304)"/>
  <line x1="137.1599" y1="177.6929" x2="137.4570" y2="157.7042" stroke="#8605fc" stroke-width="1.0" />
  <rect
     style="fill:#ffffff;fill-opacity:1;fill-rule:nonzero;stroke:none"
     width="2"
     height="2"
     x="136.8085"
     y="166.6986"
     transform="rotate(-89.1484 137.3085 167.6986)" /> 
  <path
     style="fill:none;stroke:#8605fc;stroke-width:1px;stroke-linecap:butt;stroke-linejoin:miter;stroke-opacity:1"
     d="m 137.3085,165.6986 2,2 -2,2 m -2.370121,-4 2,2 -2,2"
     transform="rotate(-89.1484 137.3085 167.6986)"/>
  <line x1="137.1379" y1="178.9427" x2="170.1655" y2="179.5233" stroke="#4e008f" stroke-width="1.0" />
  <line x1="137.1819" y1="176.4431" x2="170.2094" y2="177.0237" stroke="#4e008f" stroke-width="1.0" />
  <line x1="137.4570" y1="157.7042" x2="137.4075" y2="137.6898" stroke="#9d0eb1" stroke-width="1.0" />
  <rect
     style="fill:#ffffff;fill-opacity:1;fill-rule:nonzero;stroke:none"
     width="2"
     height="2"
     x="136.9322"
     y="146.6970"
     transform="rotate(269.8581 137.4322 147.6970)" /> 
  <path
     style="fill:none;stroke:#9d0eb1;stroke-width:1px;stroke-linecap:butt;stroke-linejoin:miter;stroke-opacity:1"
     d="m 137.4322,145.6970 2,2 -2,2 m -2.370121,-4 2,2 -2,2"
     transform="rotate(269.8581 137.4322 147.6970)"/>
  <line x1="137.4075" y1="137.6898" x2="136.9802" y2="117.4379" stroke="#a21194" stroke-width="1.0" />
  <rect
     style="fill:#ffffff;fill-opacity:1;fill-rule:nonzero;stroke:none"
     width="2"
     height="2"
     x="136.6938"
     y="126.5638"
     transform="rotate(268.7914 137.1938 127.5638)" /> 
  <path
     style="fill:none;stroke:#a21194;stroke-width:1px;stroke-linecap:butt;stroke-linejoin:miter;stroke-opacity:1"
     d="m 137.1938,125.5638 2,2 -2,2 m -2.370121,-4 2,2 -2,2"
     transform="rotate(268.7914 137.1938 127.5638)"/>
  <line x1="137.3877" y1="136.0899" x2="170.4276" y2="135.6818" stroke="#8004ff" stroke-width="1.0" />
  <line x1="136.9802" y1="117.4379" x2="136.1434" y2="96.9816" stroke="#8405fd" stroke-width="1.0" />
  <rect
     style="fill:#ffffff;fill-opacity:1;fill-rule:nonzero;stroke:none"
     width="2"
     height="2"
     x="136.0618"
     y="106.2097"
     transform="rotate(267.6575 136.5618 107.2097)" /> 
  <path
     style="fill:none;stroke:#8405fd;stroke-width:1px;stroke-linecap:butt;stroke-linejoin:miter;stroke-opacity:1"
     d="m 136.5618,105.2097 2,2 -2,2 m -2.370121,-4 2,2 -2,2"
     transform="rotate(267.6575 136.5618 107.2097)"/>
  <line x1="137.0189" y1="118.6873" x2="170.0423" y2="117.6641" stroke="#33003e" stroke-width="1.0" />
  <line x1="136.9415" y1="116.1885" x2="169.9649" y2="115.1653" stroke="#33003e" stroke-width="1.0" />
  <line x1="136.9802" y1="117.4379" x2="170.4473" y2="137.2816" stroke="#efaf00" stroke-width="1.0" />
  <rect
     style="fill:#ffffff;stroke:none"
     width="5.5"
     height="2"
     x="150.9638"
     y="126.3598" 
     transform="rotate(30.6651 153.7138 127.3598)"    /> 
  <path
     style="fill:none;stroke:#efaf00;stroke-width:1px;stroke-linecap:butt;stroke-linejoin:miter;stroke-opacity:1"
    d="m 154.4638,125.3598 2,2 -2,2 m -1.5,-4 -2,2 2,2" transform="rotate(30.6651 153.7138 127.3598)"/>
  <line x1="136.1434" y1="96.9816" x2="134.8895" y2="76.2108" stroke="#33003e" stroke-width="1.0" />
  <rect
     style="fill:#ffffff;fill-opacity:1;fill-rule:nonzero;stroke:none"
     width="2"
     height="2"
     x="135.0164"
     y="85.5962"
     transform="rotate(266.5454 135.5164 86.5962)" /> 
  <path
     style="fill:none;stroke:#33003e;stroke-width:1px;stroke-linecap:butt;stroke-linejoin:miter;stroke-opacity:1"
     d="m 135.5164,84.5962 2,2 -2,2 m -2.370121,-4 2,2 -2,2"
     transform="rotate(266.5454 135.5164 86.5962)"/>
  <line x1="136.1434" y1="96.9816" x2="169.1451" y2="95.3225" stroke="#270026" stroke-width="1.0" />
  <line x1="167.8494" y1="73.8935" x2="169.1451" y2="95.3225" stroke="#6001c6" stroke-width="1.0" />
  <rect
     style="fill:#ffffff;fill-opacity:1;fill-rule:nonzero;stroke:none"
     width="2"
     height="2"
     x="167.9972"
     y="83.6080"
     transform="rotate(86.5398 168.4972 84.6080)" /> 
  <path
     style="fill:none;stroke:#6001c6;stroke-width:1px;stroke-linecap:butt;stroke-linejoin:miter;stroke-opacity:1"
     d="m 168.4972,82.6080 2,2 -2,2 m -2.370121,-4 2,2 -2,2"
     transform="rotate(86.5398 168.4972 84.6080)"/>
  <line x1="169.1451" y1="95.3225" x2="170.0036" y2="116.4147" stroke="#940ad9" stroke-width="1.0" />
  <rect
     style="fill:#ffffff;fill-opacity:1;fill-rule:nonzero;stroke:none"
     width="2"
     height="2"
     x="169.0744"
     y="104.8686"
     transform="rotate(87.6691 169.5744 105.8686)" /> 
  <path
     style="fill:none;stroke:#940ad9;stroke-width:1px;stroke-linecap:butt;stroke-linejoin:miter;stroke-opacity:1"
     d="m 169.5744,103.8686 2,2 -2,2 m -2.370121,-4 2,2 -2,2"
     transform="rotate(87.6691 169.5744 105.8686)"/>
  <line x1="170.0036" y1="116.4147" x2="170.4473" y2="137.2816" stroke="#af1b2c" stroke-width="1.0" />
  <rect
     style="fill:#ffffff;fill-opacity:1;fill-rule:nonzero;stroke:none"
     width="2"
     height="2"
     x="169.7255"
     y="125.8482"
     transform="rotate(88.7818 170.2255 126.8482)" /> 
  <path
     style="fill:none;stroke:#af1b2c;stroke-width:1px;stroke-linecap:butt;stroke-linejoin:miter;stroke-opacity:1"
     d="m 170.2255,124.8482 2,2 -2,2 m -2.370121,-4 2,2 -2,2"
     transform="rotate(88.7818 170.2255 126.8482)"/>
  <line x1="170.4473" y1="137.2816" x2="170.5074" y2="157.9161" stroke="#9309df" stroke-width="1.0" />
  <rect
     style="fill:#ffffff;fill-opacity:1;fill-rule:nonzero;stroke:none"
     width="2"
     height="2"
     x="169.9774"
     y="146.5989"
     transform="rotate(89.8332 170.4774 147.5989)" /> 
  <path
     style="fill:none;stroke:#9309df;stroke-width:1px;stroke-linecap:butt;stroke-linejoin:miter;stroke-opacity:1"
     d="m 170.4774,145.5989 2,2 -2,2 m -2.370121,-4 2,2 -2,2"
     transform="rotate(89.8332 170.4774 147.5989)"/>
  <line x1="170.5074" y1="157.9161" x2="170.1875" y2="178.2735" stroke="#c53700" stroke-width="1.0" />
  <rect
     style="fill:#ffffff;fill-opacity:1;fill-rule:nonzero;stroke:none"
     width="2"
     height="2"
     x="169.8474"
     y="167.0948"
     transform="rotate(90.9004 170.3474 168.0948)" /> 
  <path
     style="fill:none;stroke:#c53700;stroke-width:1px;stroke-linecap:butt;stroke-linejoin:miter;stroke-opacity:1"
     d="m 170.3474,166.0948 2,2 -2,2 m -2.370121,-4 2,2 -2,2"
     transform="rotate(90.9004 170.3474 168.0948)"/>
  <line x1="170.1875" y1="178.2735" x2="169.6692" y2="198.3785" stroke="#8d07ef" stroke-width="1.0" />
  <rect
     style="fill:#ffffff;fill-opacity:1;fill-rule:nonzero;stroke:none"
     width="2"
     height="2"
     x="169.4283"
     y="187.3260"
     transform="rotate(91.4767 169.9283 188.3260)" /> 
  <path
     style="fill:none;stroke:#8d07ef;stroke-width:1px;stroke-linecap:butt;stroke-linejoin:miter;stroke-opacity:1"
     d="m 169.9283,186.3260 2,2 -2,2 m -2.370121,-4 2,2 -2,2"
     transform="rotate(91.4767 169.9283 188.3260)"/>
  <line x1="169.0432" y1="218.3856" x2="168.4459" y2="238.3764" stroke="#000000" stroke-width="1.0" />
  <rect
     style="fill:#ffffff;fill-opacity:1;fill-rule:nonzero;stroke:none"
     width="2"
     height="2"
     x="168.2445"
     y="227.3810"
     transform="rotate(91.7113 168.7445 228.3810)" /> 
  <path
     style="fill:none;stroke:#000000;stroke-width:1px;stroke-linecap:butt;stroke-linejoin:miter;stroke-opacity:1"
     d="m 168.7445,226.3810 2,2 -2,2 m -2.370121,-4 2,2 -2,2"
     transform="rotate(91.7113 168.7445 228.3810)"/>
  <line x1="168.4459" y1="238.3764" x2="167.8831" y2="258.3676" stroke="#990cc2" stroke-width="1.0" />
  <rect
     style="fill:#ffffff;fill-opacity:1;fill-rule:nonzero;stroke:none"
     width="2"
     height="2"
     x="167.6645"
     y="247.3720"
     transform="rotate(91.6125 168.1645 248.3720)" /> 
  <path
     style="fill:none;stroke:#990cc2;stroke-width:1px;stroke-linecap:butt;stroke-linejoin:miter;stroke-opacity:1"
     d="m 168.1645,246.3720 2,2 -2,2 m -2.370121,-4 2,2 -2,2"
     transform="rotate(91.6125 168.1645 248.3720)"/>
<circle cx="135.1948" cy="257.6142" r="5.0" stroke="#595959" stroke-width="1.0" fill="#ffffff"/>
<text x="135.1948" y="260.3142" text-anchor="middle" font-family="Helvetica" font-size="7.5" fill="#000000" >G</text>
<circle cx="135.7362" cy="237.6310" r="5.0" stroke="#595959" stroke-width="1.0" fill="#ffffff"/>
<text x="135.7362" y="240.3310" text-anchor="middle" font-family="Helvetica" font-size="7.5" fill="#000000" >G</text>
<circle cx="136.2453" cy="217.6537" r="5.0" stroke="#595959" stroke-width="1.0" fill="#ffffff"/>
<text x="136.2453" y="220.3537" text-anchor="middle" font-family="Helvetica" font-size="7.5" fill="#000000" >C</text>
<circle cx="136.6295" cy="197.6752" r="5.0" stroke="#595959" stroke-width="1.0" fill="#ffffff"/>
<text x="136.6295" y="200.3752" text-anchor="middle" font-family="Helvetica" font-size="7.5" fill="#000000" >A</text>
<circle cx="137.1599" cy="177.6929" r="5.0" stroke="#595959" stroke-width="1.0" fill="#ffffff"/>
<text x="137.1599" y="180.3929" text-anchor="middle" font-family="Helvetica" font-size="7.5" fill="#000000" >G</text>
<circle cx="137.4570" cy="157.7042" r="5.0" stroke="#595959" stroke-width="1.0" fill="#ffffff"/>
<text x="137.4570" y="160.4042" text-anchor="middle" font-family="Helvetica" font-size="7.5" fill="#000000" >A</text>
<circle cx="137.4075" cy="137.6898" r="5.0" stroke="#595959" stroke-width="1.0" fill="#ffffff"/>
<text x="137.4075" y="140.3898" text-anchor="middle" font-family="Helvetica" font-size="7.5" fill="#000000" >U</text>
<circle cx="136.9802" cy="117.4379" r="5.0" stroke="#595959" stroke-width="1.0" fill="#ffffff"/>
<text x="136.9802" y="120.1379" text-anchor="middle" font-family="Helvetica" font-size="7.5" fill="#000000" >C</text>
<circle cx="136.1434" cy="96.9816" r="5.0" stroke="#595959" stroke-width="1.0" fill="#ffffff"/>
<text x="136.1434" y="99.6816" text-anchor="middle" font-family="Helvetica" font-size="7.5" fill="#000000" >U</text>
<circle cx="134.8895" cy="76.2108" r="5.0" stroke="#595959" stroke-width="1.0" fill="#ffffff"/>
<text x="134.8895" y="78.9108" text-anchor="middle" font-family="Helvetica" font-size="7.5" fill="#000000" >G</text>
<circle cx="139.8977" cy="56.6843" r="5.0" stroke="#595959" stroke-width="1.0" fill="#ffffff"/>
<text x="139.8977" y="59.3843" text-anchor="middle" font-family="Helvetica" font-size="7.5" fill="#000000" >U</text>
<circle cx="159.8010" cy="54.9679" r="5.0" stroke="#595959" stroke-width="1.0" fill="#ffffff"/>
<text x="159.8010" y="57.6679" text-anchor="middle" font-family="Helvetica" font-size="7.5" fill="#000000" >A</text>
<circle cx="167.8494" cy="73.8935" r="5.0" stroke="#595959" stroke-width="1.0" fill="#ffffff"/>
<text x="167.8494" y="76.5935" text-anchor="middle" font-family="Helvetica" font-size="7.5" fill="#000000" >A</text>
<circle cx="185.2764" cy="83.4464" r="5.0" stroke="#595959" stroke-width="1.0" fill="#ffffff"/>
<text x="185.2764" y="86.1464" text-anchor="middle" font-family="Helvetica" font-size="7.5" fill="#000000" >U</text>
<circle cx="169.1451" cy="95.3225" r="5.0" stroke="#595959" stroke-width="1.0" fill="#ffffff"/>
<text x="169.1451" y="98.0225" text-anchor="middle" font-family="Helvetica" font-size="7.5" fill="#000000" >A</text>
<circle cx="170.0036" cy="116.4147" r="5.0" stroke="#595959" stroke-width="1.0" fill="#ffffff"/>
<text x="170.0036" y="119.1147" text-anchor="middle" font-family="Helvetica" font-size="7.5" fill="#000000" >G</text>
<circle cx="170.4473" cy="137.2816" r="5.0" stroke="#595959" stroke-width="1.0" fill="#ffffff"/>
<text x="170.4473" y="139.9816" text-anchor="middle" font-family="Helvetica" font-size="7.5" fill="#000000" >A</text>
<circle cx="170.5074" cy="157.9161" r="5.0" stroke="#595959" stroke-width="1.0" fill="#ffffff"/>
<text x="170.5074" y="160.6161" text-anchor="middle" font-family="Helvetica" font-size="7.5" fill="#000000" >A</text>
<circle cx="170.1875" cy="178.2735" r="5.0" stroke="#595959" stroke-width="1.0" fill="#ffffff"/>
<text x="170.1875" y="180.9735" text-anchor="middle" font-family="Helvetica" font-size="7.5" fill="#000000" >C</text>
<circle cx="169.6692" cy="198.3785" r="5.0" stroke="#595959" stroke-width="1.0" fill="#ffffff"/>
<text x="169.6692" y="201.0785" text-anchor="middle" font-family="Helvetica" font-size="7.5" fill="#000000" >U</text>
<circle cx="169.0432" cy="218.3856" r="5.0" stroke="#595959" stroke-width="1.0" fill="#ffffff"/>
<text x="169.0432" y="221.0856" text-anchor="middle" font-family="Helvetica" font-size="7.5" fill="#000000" >G</text>
<circle cx="168.4459" cy="238.3764" r="5.0" stroke="#595959" stroke-width="1.0" fill="#ffffff"/>
<text x="168.4459" y="241.0764" text-anchor="middle" font-family="Helvetica" font-size="7.5" fill="#000000" >C</text>
<circle cx="167.8831" cy="258.3676" r="5.0" stroke="#595959" stroke-width="1.0" fill="#ffffff"/>
<text x="167.8831" y="261.0676" text-anchor="middle" font-family="Helvetica" font-size="7.5" fill="#000000" >C</text>
</svg>