<?xml version="1.0" encoding="UTF-8"?>
<!DOCTYPE svg PUBLIC "-//W3C//DTD SVG 1.1//EN" 
"http://www.w3.org/Graphics/SVG/1.1/DTD/svg11.dtd">

<svg version="1.1"
   width="182px"
   height="182px"
xmlns="http://www.w3.org/2000/svg">
    <rect width="100%" height="100%" fill="white"/>

  <line x1="73.6285" y1="110.3986" x2="73.8223" y2="90.4457" stroke="#595959"
     style="stroke-width:2;stroke-miterlimit:4;stroke-dasharray:1,1;stroke-dashoffset:0" />
  <line x1="73.7258" y1="70.5066" x2="74.1412" y2="50.5813" stroke="#595959"
     style="stroke-width:2;stroke-miterlimit:4;stroke-dasharray:1,1;stroke-dashoffset:0" />
  <line x1="74.1412" y1="50.5813" x2="83.5298" y2="32.9696" stroke="#595959"
     style="stroke-width:2;stroke-miterlimit:4;stroke-dasharray:1,1;stroke-dashoffset:0" />
  <line x1="83.5298" y1="32.9696" x2="103.4628" y2="34.2115" stroke="#595959"
     style="stroke-width:2;stroke-miterlimit:4;stroke-dasharray:1,1;stroke-dashoffset:0" />
  <line x1="103.4628" y1="34.2115" x2="113.4908" y2="51.4907" stroke="#595959"
     style="stroke-width:2;stroke-miterlimit:4;stroke-dasharray:1,1;stroke-dashoffset:0" />
  <line x1="113.4908" y1="51.4907" x2="106.4913" y2="70.2544" stroke="#595959"
     style="stroke-width:2;stroke-miterlimit:4;stroke-dasharray:1,1;stroke-dashoffset:0" />
  <line x1="106.6636" y1="90.4399" x2="106.5886" y2="110.5955" stroke="#595959"
     style="stroke-width:2;stroke-miterlimit:4;stroke-dasharray:1,1;stroke-dashoffset:0" />
  <line x1="72.9512" y1="150.3445" x2="73.3438" y2="130.3639" stroke="#d14c00" stroke-width="1.0" />
  <rect
     style="fill:#ffffff;fill-opacity:1;fill-rule:nonzero;stroke:none"
     width="2"
     height="2"
     x="72.6475"
     y="139.3542"
     transform="rotate(-88.8742 73.1475 140.3542)" /> 
  <path
     style="fill:none;stroke:#d14c00;stroke-width:1px;stroke-linecap:butt;stroke-linejoin:miter;stroke-opacity:1"
     d="m 73.1475,138.3542 2,2 -2,2 m -2.370121,-4 2,2 -2,2"
     transform="rotate(-88.8742 73.1475 140.3542)"/>
  <line x1="72.9372" y1="151.5944" x2="105.8710" y2="151.9626" stroke="#33003e" stroke-width="1.0" />
  <line x1="72.9651" y1="149.0946" x2="105.8989" y2="149.4628" stroke="#33003e" stroke-width="1.0" />
  <line x1="73.3438" y1="130.3639" x2="73.6285" y2="110.3986" stroke="#000000" stroke-width="1.0" />
  <rect
     style="fill:#ffffff;fill-opacity:1;fill-rule:nonzero;stroke:none"
     width="2"
     height="2"
     x="72.9862"
     y="119.3812"
     transform="rotate(-89.1830 73.4862 120.3812)" /> 
  <path
     style="fill:none;stroke:#000000;stroke-width:1px;stroke-linecap:butt;stroke-linejoin:miter;stroke-opacity:1"
     d="m 73.4862,118.3812 2,2 -2,2 m -2.370121,-4 2,2 -2,2"
     transform="rotate(-89.1830 73.4862 120.3812)"/>
  <line x1="73.3316" y1="131.6138" x2="106.2632" y2="131.9352" stroke="#270026" stroke-width="1.0" />
  <line x1="73.3560" y1="129.1139" x2="106.2876" y2="129.4353" stroke="#270026" stroke-width="1.0" />
  <line x1="73.3438" y1="130.3639" x2="105.8850" y2="150.7127" stroke="#e89000" stroke-width="1.0" />
  <rect
     style="fill:#ffffff;stroke:none"
     width="5.5"
     height="2"
     x="86.8644"
     y="139.5383" 
     transform="rotate(32.0188 89.6144 140.5383)"    /> 
  <path
     style="fill:none;stroke:#e89000;stroke-width:1px;stroke-linecap:butt;stroke-linejoin:miter;stroke-opacity:1"
    d="m 90.3644,138.5383 2,2 -2,2 m -1.5,-4 -2,2 2,2" transform="rotate(32.0188 89.6144 140.5383)"/>
  <line x1="73.6210" y1="111.6486" x2="106.5811" y2="111.8455" stroke="#2d0032" stroke-width="1.0" />
  <line x1="73.6360" y1="109.1486" x2="106.5961" y2="109.3456" stroke="#2d0032" stroke-width="1.0" />
  <line x1="73.8223" y1="90.4457" x2="73.7258" y2="70.5066" stroke="#000000" stroke-width="1.0" />
  <rect
     style="fill:#ffffff;fill-opacity:1;fill-rule:nonzero;stroke:none"
     width="2"
     height="2"
     x="73.2740"
     y="79.4761"
     transform="rotate(269.7229 73.7740 80.4761)" /> 
  <path
     style="fill:none;stroke:#000000;stroke-width:1px;stroke-linecap:butt;stroke-linejoin:miter;stroke-opacity:1"
     d="m 73.7740,78.4761 2,2 -2,2 m -2.370121,-4 2,2 -2,2"
     transform="rotate(269.7229 73.7740 80.4761)"/>
  <line x1="73.8225" y1="91.6957" x2="106.6638" y2="91.6899" stroke="#3c0057" stroke-width="1.0" />
  <line x1="73.8220" y1="89.1957" x2="106.6633" y2="89.1899" stroke="#3c0057" stroke-width="1.0" />
  <line x1="73.8223" y1="90.4457" x2="106.5886" y2="110.5955" stroke="#200019" stroke-width="1.0" />
  <rect
     style="fill:#ffffff;stroke:none"
     width="5.5"
     height="2"
     x="87.4554"
     y="99.5206" 
     transform="rotate(31.5896 90.2054 100.5206)"    /> 
  <path
     style="fill:none;stroke:#200019;stroke-width:1px;stroke-linecap:butt;stroke-linejoin:miter;stroke-opacity:1"
    d="m 90.9554,98.5206 2,2 -2,2 m -1.5,-4 -2,2 2,2" transform="rotate(31.5896 90.2054 100.5206)"/>
  <line x1="73.7354" y1="71.7565" x2="106.5009" y2="71.5043" stroke="#000000" stroke-width="1.0" />
  <line x1="73.7162" y1="69.2566" x2="106.4817" y2="69.0044" stroke="#000000" stroke-width="1.0" />
  <line x1="74.1412" y1="50.5813" x2="106.4913" y2="70.2544" stroke="#6801dc" stroke-width="1.0" />
  <rect
     style="fill:#ffffff;stroke:none"
     width="5.5"
     height="2"
     x="87.5663"
     y="59.4178" 
     transform="rotate(31.3051 90.3163 60.4178)"    /> 
  <path
     style="fill:none;stroke:#6801dc;stroke-width:1px;stroke-linecap:butt;stroke-linejoin:miter;stroke-opacity:1"
    d="m 91.0663,58.4178 2,2 -2,2 m -1.5,-4 -2,2 2,2" transform="rotate(31.3051 90.3163 60.4178)"/>
  <line x1="106.4913" y1="70.2544" x2="106.6636" y2="90.4399" stroke="#000000" stroke-width="1.0" />
  <rect
     style="fill:#ffffff;fill-opacity:1;fill-rule:nonzero;stroke:none"
     width="2"
     height="2"
     x="106.0774"
     y="79.3472"
     transform="rotate(89.5111 106.5774 80.3472)" /> 
  <path
     style="fill:none;stroke:#000000;stroke-width:1px;stroke-linecap:butt;stroke-linejoin:miter;stroke-opacity:1"
     d="m 106.5774,78.3472 2,2 -2,2 m -2.370121,-4 2,2 -2,2"
     transform="rotate(89.5111 106.5774 80.3472)"/>
  <line x1="106.5886" y1="110.5955" x2="106.2754" y2="130.6852" stroke="#000000" stroke-width="1.0" />
  <rect
     style="fill:#ffffff;fill-opacity:1;fill-rule:nonzero;stroke:none"
     width="2"
     height="2"
     x="105.9320"
     y="119.6404"
     transform="rotate(90.8933 106.4320 120.6404)" /> 
  <path
     style="fill:none;stroke:#000000;stroke-width:1px;stroke-linecap:butt;stroke-linejoin:miter;stroke-opacity:1"
     d="m 106.4320,118.6404 2,2 -2,2 m -2.370121,-4 2,2 -2,2"
     transform="rotate(90.8933 106.4320 120.6404)"/>
  <line x1="106.2754" y1="130.6852" x2="105.8850" y2="150.7127" stroke="#b62200" stroke-width="1.0" />
  <rect
     style="fill:#ffffff;fill-opacity:1;fill-rule:nonzero;stroke:none"
     width="2"
     height="2"
     x="105.5802"
     y="139.6990"
     transform="rotate(91.1168 106.0802 140.6990)" /> 
  <path
     style="fill:none;stroke:#b62200;stroke-width:1px;stroke-linecap:butt;stroke-linejoin:miter;stroke-opacity:1"
     d="m 106.0802,138.6990 2,2 -2,2 m -2.370121,-4 2,2 -2,2"
     transform="rotate(91.1168 106.0802 140.6990)"/>
<circle cx="72.9512" cy="150.3445" r="5.0" stroke="#595959" stroke-width="1.0" fill="#ffffff"/>
<text x="72.9512" y="153.0445" text-anchor="middle" font-family="Helvetica" font-size="7.5" fill="#000000" >G</text>
<circle cx="73.3438" cy="130.3639" r="5.0" stroke="#595959" stroke-width="1.0" fill="#ffffff"/>
<text x="73.3438" y="133.0639" text-anchor="middle" font-family="Helvetica" font-size="7.5" fill="#000000" >G</text>
<circle cx="73.6285" cy="110.3986" r="5.0" stroke="#595959" stroke-width="1.0" fill="#ffffff"/>
<text x="73.6285" y="113.0986" text-anchor="middle" font-family="Helvetica" font-size="7.5" fill="#000000" >C</text>
<circle cx="73.8223" cy="90.4457" r="5.0" stroke="#595959" stroke-width="1.0" fill="#ffffff"/>
<text x="73.8223" y="93.1457" text-anchor="middle" font-family="Helvetica" font-size="7.5" fill="#000000" >G</text>
<circle cx="73.7258" cy="70.5066" r="5.0" stroke="#595959" stroke-width="1.0" fill="#ffffff"/>
<text x="73.7258" y="73.2066" text-anchor="middle" font-family="Helvetica" font-size="7.5" fill="#000000" >C</text>
<circle cx="74.1412" cy="50.5813" r="5.0" stroke="#595959" stroke-width="1.0" fill="#ffffff"/>
<text x="74.1412" y="53.2813" text-anchor="middle" font-family="Helvetica" font-size="7.5" fill="#000000" >A</text>
<circle cx="83.5298" cy="32.9696" r="5.0" stroke="#595959" stroke-width="1.0" fill="#ffffff"/>
<text x="83.5298" y="35.6696" text-anchor="middle" font-family="Helvetica" font-size="7.5" fill="#000000" >U</text>
<circle cx="103.4628" cy="34.2115" r="5.0" stroke="#595959" stroke-width="1.0" fill="#ffffff"/>
<text x="103.4628" y="36.9115" text-anchor="middle" font-family="Helvetica" font-size="7.5" fill="#000000" >C</text>
<circle cx="113.4908" cy="51.4907" r="5.0" stroke="#595959" stroke-width="1.0" fill="#ffffff"/>
<text x="113.4908" y="54.1907" text-anchor="middle" font-family="Helvetica" font-size="7.5" fill="#000000" >G</text>
<circle cx="106.4913" cy="70.2544" r="5.0" stroke="#595959" stroke-width="1.0" fill="#ffffff"/>
<text x="106.4913" y="72.9544" text-anchor="middle" font-family="Helvetica" font-size="7.5" fill="#000000" >G</text>
<circle cx="106.6636" cy="90.4399" r="5.0" stroke="#595959" stroke-width="1.0" fill="#ffffff"/>
<text x="106.6636" y="93.1399" text-anchor="middle" font-family="Helvetica" font-size="7.5" fill="#000000" >C</text>
<circle cx="106.5886" cy="110.5955" r="5.0" stroke="#595959" stroke-width="1.0" fill="#ffffff"/>
<text x="106.5886" y="113.2955" text-anchor="middle" font-family="Helvetica" font-size="7.5" fill="#000000" >G</text>
<circle cx="106.2754" cy="130.6852" r="5.0" stroke="#595959" stroke-width="1.0" fill="#ffffff"/>
<text x="106.2754" y="133.3852" text-anchor="middle" font-family="Helvetica" font-size="7.5" fill="#000000" >C</text>
<circle cx="105.8850" cy="150.7127" r="5.0" stroke="#595959" stroke-width="1.0" fill="#ffffff"/>
<text x="105.8850" y="153.4127" text-anchor="middle" font-family="Helvetica" font-size="7.5" fill="#000000" >C</text>
</svg>