<?xml version="1.0" encoding="UTF-8"?>
<!DOCTYPE svg PUBLIC "-//W3C//DTD SVG 1.1//EN" 
"http://www.w3.org/Graphics/SVG/1.1/DTD/svg11.dtd">

<svg version="1.1"
   width="182px"
   height="182px"
xmlns="http://www.w3.org/2000/svg">
    <rect width="100%" height="100%" fill="white"/>

  <line x1="72.7316" y1="108.5653" x2="72.9073" y2="88.4194" stroke="#595959"
     style="stroke-width:2;stroke-miterlimit:4;stroke-dasharray:1,1;stroke-dashoffset:0" />
  <line x1="72.7251" y1="68.2652" x2="72.1761" y2="47.9310" stroke="#595959"
     style="stroke-width:2;stroke-miterlimit:4;stroke-dasharray:1,1;stroke-dashoffset:0" />
  <line x1="72.1761" y1="47.9310" x2="87.9471" y2="35.6882" stroke="#595959"
     style="stroke-width:2;stroke-miterlimit:4;stroke-dasharray:1,1;stroke-dashoffset:0" />
  <line x1="104.7177" y1="46.6441" x2="121.9945" y2="56.4560" stroke="#595959"
     style="stroke-width:2;stroke-miterlimit:4;stroke-dasharray:1,1;stroke-dashoffset:0" />
  <line x1="121.9945" y1="56.4560" x2="105.3424" y2="67.7112" stroke="#595959"
     style="stroke-width:2;stroke-miterlimit:4;stroke-dasharray:1,1;stroke-dashoffset:0" />
  <line x1="105.4955" y1="88.4021" x2="105.3359" y2="109.0732" stroke="#595959"
     style="stroke-width:2;stroke-miterlimit:4;stroke-dasharray:1,1;stroke-dashoffset:0" />
  <line x1="71.4903" y1="148.7835" x2="72.2174" y2="128.6834" stroke="#cf4a00" stroke-width="1.0" />
  <rect
     style="fill:#ffffff;fill-opacity:1;fill-rule:nonzero;stroke:none"
     width="2"
     height="2"
     x="71.3538"
     y="137.7335"
     transform="rotate(-87.9281 71.8538 138.7335)" /> 
  <path
     style="fill:none;stroke:#cf4a00;stroke-width:1px;stroke-linecap:butt;stroke-linejoin:miter;stroke-opacity:1"
     d="m 71.8538,136.7335 2,2 -2,2 m -2.370121,-4 2,2 -2,2"
     transform="rotate(-87.9281 71.8538 138.7335)"/>
  <line x1="71.4514" y1="150.0329" x2="104.0473" y2="151.0477" stroke="#3c0057" stroke-width="1.0" />
  <line x1="71.5291" y1="147.5342" x2="104.1251" y2="148.5490" stroke="#3c0057" stroke-width="1.0" />
  <line x1="72.2174" y1="128.6834" x2="72.7316" y2="108.5653" stroke="#000000" stroke-width="1.0" />
  <rect
     style="fill:#ffffff;fill-opacity:1;fill-rule:nonzero;stroke:none"
     width="2"
     height="2"
     x="71.9745"
     y="117.6244"
     transform="rotate(-88.5359 72.4745 118.6244)" /> 
  <path
     style="fill:none;stroke:#000000;stroke-width:1px;stroke-linecap:butt;stroke-linejoin:miter;stroke-opacity:1"
     d="m 72.4745,116.6244 2,2 -2,2 m -2.370121,-4 2,2 -2,2"
     transform="rotate(-88.5359 72.4745 118.6244)"/>
  <line x1="72.1831" y1="129.9330" x2="104.7987" y2="130.8285" stroke="#2d0032" stroke-width="1.0" />
  <line x1="72.2517" y1="127.4339" x2="104.8673" y2="128.3294" stroke="#2d0032" stroke-width="1.0" />
  <line x1="72.2174" y1="128.6834" x2="104.0862" y2="149.7983" stroke="#e78c00" stroke-width="1.0" />
  <rect
     style="fill:#ffffff;stroke:none"
     width="5.5"
     height="2"
     x="85.4018"
     y="138.2409" 
     transform="rotate(33.5268 88.1518 139.2409)"    /> 
  <path
     style="fill:none;stroke:#e78c00;stroke-width:1px;stroke-linecap:butt;stroke-linejoin:miter;stroke-opacity:1"
    d="m 88.9018,137.2409 2,2 -2,2 m -1.5,-4 -2,2 2,2" transform="rotate(33.5268 88.1518 139.2409)"/>
  <line x1="72.7122" y1="109.8152" x2="105.3164" y2="110.3230" stroke="#2d0032" stroke-width="1.0" />
  <line x1="72.7511" y1="107.3155" x2="105.3553" y2="107.8233" stroke="#2d0032" stroke-width="1.0" />
  <line x1="72.9073" y1="88.4194" x2="72.7251" y2="68.2652" stroke="#000000" stroke-width="1.0" />
  <rect
     style="fill:#ffffff;fill-opacity:1;fill-rule:nonzero;stroke:none"
     width="2"
     height="2"
     x="72.3162"
     y="77.3423"
     transform="rotate(269.4820 72.8162 78.3423)" /> 
  <path
     style="fill:none;stroke:#000000;stroke-width:1px;stroke-linecap:butt;stroke-linejoin:miter;stroke-opacity:1"
     d="m 72.8162,76.3423 2,2 -2,2 m -2.370121,-4 2,2 -2,2"
     transform="rotate(269.4820 72.8162 78.3423)"/>
  <line x1="72.9080" y1="89.6694" x2="105.4962" y2="89.6521" stroke="#200019" stroke-width="1.0" />
  <line x1="72.9067" y1="87.1694" x2="105.4948" y2="87.1521" stroke="#200019" stroke-width="1.0" />
  <line x1="72.9073" y1="88.4194" x2="105.3359" y2="109.0732" stroke="#17000d" stroke-width="1.0" />
  <rect
     style="fill:#ffffff;stroke:none"
     width="5.5"
     height="2"
     x="86.3716"
     y="97.7463" 
     transform="rotate(32.4931 89.1216 98.7463)"    /> 
  <path
     style="fill:none;stroke:#17000d;stroke-width:1px;stroke-linecap:butt;stroke-linejoin:miter;stroke-opacity:1"
    d="m 89.8716,96.7463 2,2 -2,2 m -1.5,-4 -2,2 2,2" transform="rotate(32.4931 89.1216 98.7463)"/>
  <line x1="72.7464" y1="69.5150" x2="105.3636" y2="68.9610" stroke="#17000d" stroke-width="1.0" />
  <line x1="72.7039" y1="67.0154" x2="105.3211" y2="66.4614" stroke="#17000d" stroke-width="1.0" />
  <line x1="72.1761" y1="47.9310" x2="104.7177" y2="46.6441" stroke="#d14c00" stroke-width="1.0" />
  <path d="M 82.6969 49.5376 L 82.6969 45.0376 L 87.1969 45.0376 L 87.1969 49.5376 z" style="stroke:#d14c00;stroke-width:1.0" fill="#ffffff" 
    transform="rotate(177.7353 88.4469 47.2876)"/>
  <path d="M 90.1969 49.5376 L 90.1969 45.0376 L 94.1969 47.2876 z" style="stroke:#d14c00;stroke-width:1.0" fill="#ffffff"
    transform="rotate(177.7353 88.4469 47.2876)"/>
  <line x1="72.1761" y1="47.9310" x2="105.3424" y2="67.7112" stroke="#c53700" stroke-width="1.0" />
  <rect
     style="fill:#ffffff;stroke:none"
     width="5.5"
     height="2"
     x="86.0092"
     y="56.8211" 
     transform="rotate(30.8116 88.7592 57.8211)"    /> 
  <path
     style="fill:none;stroke:#c53700;stroke-width:1px;stroke-linecap:butt;stroke-linejoin:miter;stroke-opacity:1"
    d="m 89.5092,55.8211 2,2 -2,2 m -1.5,-4 -2,2 2,2" transform="rotate(30.8116 88.7592 57.8211)"/>
  <line x1="87.9471" y1="35.6882" x2="104.7177" y2="46.6441" stroke="#400062" stroke-width="1.0" />
  <rect
     style="fill:#ffffff;fill-opacity:1;fill-rule:nonzero;stroke:none"
     width="2"
     height="2"
     x="95.8324"
     y="40.1661"
     transform="rotate(33.1558 96.3324 41.1661)" /> 
  <path
     style="fill:none;stroke:#400062;stroke-width:1px;stroke-linecap:butt;stroke-linejoin:miter;stroke-opacity:1"
     d="m 96.3324,39.1661 2,2 -2,2 m -2.370121,-4 2,2 -2,2"
     transform="rotate(33.1558 96.3324 41.1661)"/>
  <line x1="104.7177" y1="46.6441" x2="105.3424" y2="67.7112" stroke="#ab1751" stroke-width="1.0" />
  <rect
     style="fill:#ffffff;fill-opacity:1;fill-rule:nonzero;stroke:none"
     width="2"
     height="2"
     x="104.5300"
     y="56.1776"
     transform="rotate(88.3016 105.0300 57.1776)" /> 
  <path
     style="fill:none;stroke:#ab1751;stroke-width:1px;stroke-linecap:butt;stroke-linejoin:miter;stroke-opacity:1"
     d="m 105.0300,55.1776 2,2 -2,2 m -2.370121,-4 2,2 -2,2"
     transform="rotate(88.3016 105.0300 57.1776)"/>
  <line x1="105.3424" y1="67.7112" x2="105.4955" y2="88.4021" stroke="#000000" stroke-width="1.0" />
  <rect
     style="fill:#ffffff;fill-opacity:1;fill-rule:nonzero;stroke:none"
     width="2"
     height="2"
     x="104.9189"
     y="77.0566"
     transform="rotate(89.5759 105.4189 78.0566)" /> 
  <path
     style="fill:none;stroke:#000000;stroke-width:1px;stroke-linecap:butt;stroke-linejoin:miter;stroke-opacity:1"
     d="m 105.4189,76.0566 2,2 -2,2 m -2.370121,-4 2,2 -2,2"
     transform="rotate(89.5759 105.4189 78.0566)"/>
  <line x1="105.3359" y1="109.0732" x2="104.8330" y2="129.5790" stroke="#000000" stroke-width="1.0" />
  <rect
     style="fill:#ffffff;fill-opacity:1;fill-rule:nonzero;stroke:none"
     width="2"
     height="2"
     x="104.5844"
     y="118.3261"
     transform="rotate(91.4049 105.0844 119.3261)" /> 
  <path
     style="fill:none;stroke:#000000;stroke-width:1px;stroke-linecap:butt;stroke-linejoin:miter;stroke-opacity:1"
     d="m 105.0844,117.3261 2,2 -2,2 m -2.370121,-4 2,2 -2,2"
     transform="rotate(91.4049 105.0844 119.3261)"/>
  <line x1="104.8330" y1="129.5790" x2="104.0862" y2="149.7983" stroke="#bb2700" stroke-width="1.0" />
  <rect
     style="fill:#ffffff;fill-opacity:1;fill-rule:nonzero;stroke:none"
     width="2"
     height="2"
     x="103.9596"
     y="138.6887"
     transform="rotate(92.1151 104.4596 139.6887)" /> 
  <path
     style="fill:none;stroke:#bb2700;stroke-width:1px;stroke-linecap:butt;stroke-linejoin:miter;stroke-opacity:1"
     d="m 104.4596,137.6887 2,2 -2,2 m -2.370121,-4 2,2 -2,2"
     transform="rotate(92.1151 104.4596 139.6887)"/>
<circle cx="71.4903" cy="148.7835" r="5.0" stroke="#595959" stroke-width="1.0" fill="#ffffff"/>
<text x="71.4903" y="151.4835" text-anchor="middle" font-family="Helvetica" font-size="7.5" fill="#000000" >G</text>
<circle cx="72.2174" cy="128.6834" r="5.0" stroke="#595959" stroke-width="1.0" fill="#ffffff"/>
<text x="72.2174" y="131.3834" text-anchor="middle" font-family="Helvetica" font-size="7.5" fill="#000000" >G</text>
<circle cx="72.7316" cy="108.5653" r="5.0" stroke="#595959" stroke-width="1.0" fill="#ffffff"/>
<text x="72.7316" y="111.2653" text-anchor="middle" font-family="Helvetica" font-size="7.5" fill="#000000" >C</text>
<circle cx="72.9073" cy="88.4194" r="5.0" stroke="#595959" stroke-width="1.0" fill="#ffffff"/>
<text x="72.9073" y="91.1194" text-anchor="middle" font-family="Helvetica" font-size="7.5" fill="#000000" >G</text>
<circle cx="72.7251" cy="68.2652" r="5.0" stroke="#595959" stroke-width="1.0" fill="#ffffff"/>
<text x="72.7251" y="70.9652" text-anchor="middle" font-family="Helvetica" font-size="7.5" fill="#000000" >C</text>
<circle cx="72.1761" cy="47.9310" r="5.0" stroke="#595959" stroke-width="1.0" fill="#ffffff"/>
<text x="72.1761" y="50.6310" text-anchor="middle" font-family="Helvetica" font-size="7.5" fill="#000000" >A</text>
<circle cx="87.9471" cy="35.6882" r="5.0" stroke="#595959" stroke-width="1.0" fill="#ffffff"/>
<text x="87.9471" y="38.3882" text-anchor="middle" font-family="Helvetica" font-size="7.5" fill="#000000" >U</text>
<circle cx="104.7177" cy="46.6441" r="5.0" stroke="#595959" stroke-width="1.0" fill="#ffffff"/>
<text x="104.7177" y="49.3441" text-anchor="middle" font-family="Helvetica" font-size="7.5" fill="#000000" >C</text>
<circle cx="121.9945" cy="56.4560" r="5.0" stroke="#595959" stroke-width="1.0" fill="#ffffff"/>
<text x="121.9945" y="59.1560" text-anchor="middle" font-family="Helvetica" font-size="7.5" fill="#000000" >G</text>
<circle cx="105.3424" cy="67.7112" r="5.0" stroke="#595959" stroke-width="1.0" fill="#ffffff"/>
<text x="105.3424" y="70.4112" text-anchor="middle" font-family="Helvetica" font-size="7.5" fill="#000000" >G</text>
<circle cx="105.4955" cy="88.4021" r="5.0" stroke="#595959" stroke-width="1.0" fill="#ffffff"/>
<text x="105.4955" y="91.1021" text-anchor="middle" font-family="Helvetica" font-size="7.5" fill="#000000" >C</text>
<circle cx="105.3359" cy="109.0732" r="5.0" stroke="#595959" stroke-width="1.0" fill="#ffffff"/>
<text x="105.3359" y="111.7732" text-anchor="middle" font-family="Helvetica" font-size="7.5" fill="#000000" >G</text>
<circle cx="104.8330" cy="129.5790" r="5.0" stroke="#595959" stroke-width="1.0" fill="#ffffff"/>
<text x="104.8330" y="132.2790" text-anchor="middle" font-family="Helvetica" font-size="7.5" fill="#000000" >C</text>
<circle cx="104.0862" cy="149.7983" r="5.0" stroke="#595959" stroke-width="1.0" fill="#ffffff"/>
<text x="104.0862" y="152.4983" text-anchor="middle" font-family="Helvetica" font-size="7.5" fill="#000000" >C</text>
</svg>