<?xml version="1.0" encoding="UTF-8"?>
<!DOCTYPE svg PUBLIC "-//W3C//DTD SVG 1.1//EN" 
"http://www.w3.org/Graphics/SVG/1.1/DTD/svg11.dtd">

<svg version="1.1"
   width="182px"
   height="182px"
xmlns="http://www.w3.org/2000/svg">
    <rect width="100%" height="100%" fill="white"/>

  <line x1="74.4042" y1="110.3747" x2="74.2955" y2="90.3308" stroke="#595959"
     style="stroke-width:2;stroke-miterlimit:4;stroke-dasharray:1,1;stroke-dashoffset:0" />
  <line x1="69.5827" y1="50.7775" x2="81.0126" y2="34.3732" stroke="#595959"
     style="stroke-width:2;stroke-miterlimit:4;stroke-dasharray:1,1;stroke-dashoffset:0" />
  <line x1="81.0126" y1="34.3732" x2="100.9874" y2="34.3732" stroke="#595959"
     style="stroke-width:2;stroke-miterlimit:4;stroke-dasharray:1,1;stroke-dashoffset:0" />
  <line x1="112.4173" y1="50.7775" x2="107.9023" y2="70.2970" stroke="#595959"
     style="stroke-width:2;stroke-miterlimit:4;stroke-dasharray:1,1;stroke-dashoffset:0" />
  <line x1="107.7045" y1="90.3308" x2="107.5958" y2="110.3747" stroke="#595959"
     style="stroke-width:2;stroke-miterlimit:4;stroke-dasharray:1,1;stroke-dashoffset:0" />
  <line x1="74.4209" y1="150.4342" x2="74.4126" y2="130.4126" stroke="#c53700" stroke-width="1.0" />
  <rect
     style="fill:#ffffff;fill-opacity:1;fill-rule:nonzero;stroke:none"
     width="2"
     height="2"
     x="73.9167"
     y="139.4234"
     transform="rotate(269.9761 74.4167 140.4234)" /> 
  <path
     style="fill:none;stroke:#c53700;stroke-width:1px;stroke-linecap:butt;stroke-linejoin:miter;stroke-opacity:1"
     d="m 74.4167,138.4234 2,2 -2,2 m -2.370121,-4 2,2 -2,2"
     transform="rotate(269.9761 74.4167 140.4234)"/>
  <line x1="74.4209" y1="151.6842" x2="107.5791" y2="151.6842" stroke="#33003e" stroke-width="1.0" />
  <line x1="74.4209" y1="149.1842" x2="107.5791" y2="149.1842" stroke="#33003e" stroke-width="1.0" />
  <line x1="74.4126" y1="130.4126" x2="74.4042" y2="110.3747" stroke="#000000" stroke-width="1.0" />
  <rect
     style="fill:#ffffff;fill-opacity:1;fill-rule:nonzero;stroke:none"
     width="2"
     height="2"
     x="73.9084"
     y="119.3936"
     transform="rotate(269.9761 74.4084 120.3936)" /> 
  <path
     style="fill:none;stroke:#000000;stroke-width:1px;stroke-linecap:butt;stroke-linejoin:miter;stroke-opacity:1"
     d="m 74.4084,118.3936 2,2 -2,2 m -2.370121,-4 2,2 -2,2"
     transform="rotate(269.9761 74.4084 120.3936)"/>
  <line x1="74.4126" y1="131.6626" x2="107.5874" y2="131.6626" stroke="#270026" stroke-width="1.0" />
  <line x1="74.4126" y1="129.1626" x2="107.5874" y2="129.1626" stroke="#270026" stroke-width="1.0" />
  <line x1="74.4126" y1="130.4126" x2="107.5791" y2="150.4342" stroke="#eca100" stroke-width="1.0" />
  <rect
     style="fill:#ffffff;stroke:none"
     width="5.5"
     height="2"
     x="88.2458"
     y="139.4234" 
     transform="rotate(31.1181 90.9958 140.4234)"    /> 
  <path
     style="fill:none;stroke:#eca100;stroke-width:1px;stroke-linecap:butt;stroke-linejoin:miter;stroke-opacity:1"
    d="m 91.7458,138.4234 2,2 -2,2 m -1.5,-4 -2,2 2,2" transform="rotate(31.1181 90.9958 140.4234)"/>
  <line x1="74.4042" y1="111.6247" x2="107.5958" y2="111.6247" stroke="#17000d" stroke-width="1.0" />
  <line x1="74.4042" y1="109.1247" x2="107.5958" y2="109.1247" stroke="#17000d" stroke-width="1.0" />
  <line x1="74.2955" y1="90.3308" x2="74.0977" y2="70.2970" stroke="#000000" stroke-width="1.0" />
  <rect
     style="fill:#ffffff;fill-opacity:1;fill-rule:nonzero;stroke:none"
     width="2"
     height="2"
     x="73.6966"
     y="79.3139"
     transform="rotate(269.4345 74.1966 80.3139)" /> 
  <path
     style="fill:none;stroke:#000000;stroke-width:1px;stroke-linecap:butt;stroke-linejoin:miter;stroke-opacity:1"
     d="m 74.1966,78.3139 2,2 -2,2 m -2.370121,-4 2,2 -2,2"
     transform="rotate(269.4345 74.1966 80.3139)"/>
  <line x1="74.2955" y1="90.3308" x2="107.7045" y2="90.3308" stroke="#4e008f" stroke-width="1.0" />
  <line x1="74.2955" y1="90.3308" x2="107.5958" y2="110.3747" stroke="#17000d" stroke-width="1.0" />
  <rect
     style="fill:#ffffff;stroke:none"
     width="5.5"
     height="2"
     x="88.1956"
     y="99.3528" 
     transform="rotate(31.0443 90.9456 100.3528)"    /> 
  <path
     style="fill:none;stroke:#17000d;stroke-width:1px;stroke-linecap:butt;stroke-linejoin:miter;stroke-opacity:1"
    d="m 91.6956,98.3528 2,2 -2,2 m -1.5,-4 -2,2 2,2" transform="rotate(31.0443 90.9456 100.3528)"/>
  <line x1="74.0977" y1="70.2970" x2="69.5827" y2="50.7775" stroke="#17000d" stroke-width="1.0" />
  <rect
     style="fill:#ffffff;fill-opacity:1;fill-rule:nonzero;stroke:none"
     width="2"
     height="2"
     x="71.3402"
     y="59.5372"
     transform="rotate(256.9761 71.8402 60.5372)" /> 
  <path
     style="fill:none;stroke:#17000d;stroke-width:1px;stroke-linecap:butt;stroke-linejoin:miter;stroke-opacity:1"
     d="m 71.8402,58.5372 2,2 -2,2 m -2.370121,-4 2,2 -2,2"
     transform="rotate(256.9761 71.8402 60.5372)"/>
  <line x1="74.0977" y1="71.5470" x2="107.9023" y2="71.5470" stroke="#270026" stroke-width="1.0" />
  <line x1="74.0977" y1="69.0470" x2="107.9023" y2="69.0470" stroke="#270026" stroke-width="1.0" />
  <line x1="100.9874" y1="34.3732" x2="112.4173" y2="50.7775" stroke="#33003e" stroke-width="1.0" />
  <rect
     style="fill:#ffffff;fill-opacity:1;fill-rule:nonzero;stroke:none"
     width="2"
     height="2"
     x="106.2023"
     y="41.5754"
     transform="rotate(235.1328 106.7023 42.5754)" /> 
  <path
     style="fill:none;stroke:#33003e;stroke-width:1px;stroke-linecap:butt;stroke-linejoin:miter;stroke-opacity:1"
     d="m 106.7023,40.5754 2,2 -2,2 m -2.370121,-4 2,2 -2,2"
     transform="rotate(235.1328 106.7023 42.5754)"/>
  <line x1="107.9023" y1="70.2970" x2="107.7045" y2="90.3308" stroke="#000000" stroke-width="1.0" />
  <rect
     style="fill:#ffffff;fill-opacity:1;fill-rule:nonzero;stroke:none"
     width="2"
     height="2"
     x="107.3034"
     y="79.3139"
     transform="rotate(90.5655 107.8034 80.3139)" /> 
  <path
     style="fill:none;stroke:#000000;stroke-width:1px;stroke-linecap:butt;stroke-linejoin:miter;stroke-opacity:1"
     d="m 107.8034,78.3139 2,2 -2,2 m -2.370121,-4 2,2 -2,2"
     transform="rotate(90.5655 107.8034 80.3139)"/>
  <line x1="107.5958" y1="110.3747" x2="107.5874" y2="130.4126" stroke="#000000" stroke-width="1.0" />
  <rect
     style="fill:#ffffff;fill-opacity:1;fill-rule:nonzero;stroke:none"
     width="2"
     height="2"
     x="107.0916"
     y="119.3936"
     transform="rotate(90.0239 107.5916 120.3936)" /> 
  <path
     style="fill:none;stroke:#000000;stroke-width:1px;stroke-linecap:butt;stroke-linejoin:miter;stroke-opacity:1"
     d="m 107.5916,118.3936 2,2 -2,2 m -2.370121,-4 2,2 -2,2"
     transform="rotate(90.0239 107.5916 120.3936)"/>
  <line x1="107.5874" y1="130.4126" x2="107.5791" y2="150.4342" stroke="#a81568" stroke-width="1.0" />
  <rect
     style="fill:#ffffff;fill-opacity:1;fill-rule:nonzero;stroke:none"
     width="2"
     height="2"
     x="107.0833"
     y="139.4234"
     transform="rotate(90.0239 107.5833 140.4234)" /> 
  <path
     style="fill:none;stroke:#a81568;stroke-width:1px;stroke-linecap:butt;stroke-linejoin:miter;stroke-opacity:1"
     d="m 107.5833,138.4234 2,2 -2,2 m -2.370121,-4 2,2 -2,2"
     transform="rotate(90.0239 107.5833 140.4234)"/>
<circle cx="74.4209" cy="150.4342" r="5.0" stroke="#595959" stroke-width="1.0" fill="#ffffff"/>
<text x="74.4209" y="153.1342" text-anchor="middle" font-family="Helvetica" font-size="7.5" fill="#000000" >G</text>
<circle cx="74.4126" cy="130.4126" r="5.0" stroke="#595959" stroke-width="1.0" fill="#ffffff"/>
<text x="74.4126" y="133.1126" text-anchor="middle" font-family="Helvetica" font-size="7.5" fill="#000000" >G</text>
<circle cx="74.4042" cy="110.3747" r="5.0" stroke="#595959" stroke-width="1.0" fill="#ffffff"/>
<text x="74.4042" y="113.0747" text-anchor="middle" font-family="Helvetica" font-size="7.5" fill="#000000" >C</text>
<circle cx="74.2955" cy="90.3308" r="5.0" stroke="#595959" stroke-width="1.0" fill="#ffffff"/>
<text x="74.2955" y="93.0308" text-anchor="middle" font-family="Helvetica" font-size="7.5" fill="#000000" >A</text>
<circle cx="74.0977" cy="70.2970" r="5.0" stroke="#595959" stroke-width="1.0" fill="#ffffff"/>
<text x="74.0977" y="72.9970" text-anchor="middle" font-family="Helvetica" font-size="7.5" fill="#000000" >C</text>
<circle cx="69.5827" cy="50.7775" r="5.0" stroke="#595959" stroke-width="1.0" fill="#ffffff"/>
<text x="69.5827" y="53.4775" text-anchor="middle" font-family="Helvetica" font-size="7.5" fill="#000000" >U</text>
<circle cx="81.0126" cy="34.3732" r="5.0" stroke="#595959" stroke-width="1.0" fill="#ffffff"/>
<text x="81.0126" y="37.0732" text-anchor="middle" font-family="Helvetica" font-size="7.5" fill="#000000" >U</text>
<circle cx="100.9874" cy="34.3732" r="5.0" stroke="#595959" stroke-width="1.0" fill="#ffffff"/>
<text x="100.9874" y="37.0732" text-anchor="middle" font-family="Helvetica" font-size="7.5" fill="#000000" >C</text>
<circle cx="112.4173" cy="50.7775" r="5.0" stroke="#595959" stroke-width="1.0" fill="#ffffff"/>
<text x="112.4173" y="53.4775" text-anchor="middle" font-family="Helvetica" font-size="7.5" fill="#000000" >G</text>
<circle cx="107.9023" cy="70.2970" r="5.0" stroke="#595959" stroke-width="1.0" fill="#ffffff"/>
<text x="107.9023" y="72.9970" text-anchor="middle" font-family="Helvetica" font-size="7.5" fill="#000000" >G</text>
<circle cx="107.7045" cy="90.3308" r="5.0" stroke="#595959" stroke-width="1.0" fill="#ffffff"/>
<text x="107.7045" y="93.0308" text-anchor="middle" font-family="Helvetica" font-size="7.5" fill="#000000" >U</text>
<circle cx="107.5958" cy="110.3747" r="5.0" stroke="#595959" stroke-width="1.0" fill="#ffffff"/>
<text x="107.5958" y="113.0747" text-anchor="middle" font-family="Helvetica" font-size="7.5" fill="#000000" >G</text>
<circle cx="107.5874" cy="130.4126" r="5.0" stroke="#595959" stroke-width="1.0" fill="#ffffff"/>
<text x="107.5874" y="133.1126" text-anchor="middle" font-family="Helvetica" font-size="7.5" fill="#000000" >C</text>
<circle cx="107.5791" cy="150.4342" r="5.0" stroke="#595959" stroke-width="1.0" fill="#ffffff"/>
<text x="107.5791" y="153.1342" text-anchor="middle" font-family="Helvetica" font-size="7.5" fill="#000000" >C</text>
</svg>