<?xml version="1.0" encoding="UTF-8"?>
<!DOCTYPE svg PUBLIC "-//W3C//DTD SVG 1.1//EN" 
"http://www.w3.org/Graphics/SVG/1.1/DTD/svg11.dtd">

<svg version="1.1"
   width="182px"
   height="182px"
xmlns="http://www.w3.org/2000/svg">
    <rect width="100%" height="100%" fill="white"/>

  <line x1="78.7838" y1="109.6914" x2="79.2490" y2="89.1868" stroke="#595959"
     style="stroke-width:2;stroke-miterlimit:4;stroke-dasharray:1,1;stroke-dashoffset:0" />
  <line x1="79.9838" y1="68.6092" x2="64.7019" y2="55.7360" stroke="#595959"
     style="stroke-width:2;stroke-miterlimit:4;stroke-dasharray:1,1;stroke-dashoffset:0" />
  <line x1="64.7019" y1="55.7360" x2="82.0621" y2="46.0556" stroke="#595959"
     style="stroke-width:2;stroke-miterlimit:4;stroke-dasharray:1,1;stroke-dashoffset:0" />
  <line x1="82.0621" y1="46.0556" x2="94.4991" y2="30.2764" stroke="#595959"
     style="stroke-width:2;stroke-miterlimit:4;stroke-dasharray:1,1;stroke-dashoffset:0" />
  <line x1="94.4991" y1="30.2764" x2="104.8752" y2="47.2928" stroke="#595959"
     style="stroke-width:2;stroke-miterlimit:4;stroke-dasharray:1,1;stroke-dashoffset:0" />
  <line x1="104.8752" y1="47.2928" x2="105.3090" y2="68.8524" stroke="#595959"
     style="stroke-width:2;stroke-miterlimit:4;stroke-dasharray:1,1;stroke-dashoffset:0" />
  <line x1="105.8609" y1="89.1793" x2="106.5091" y2="109.4615" stroke="#595959"
     style="stroke-width:2;stroke-miterlimit:4;stroke-dasharray:1,1;stroke-dashoffset:0" />
  <line x1="79.2490" y1="89.1868" x2="105.8609" y2="89.1793" stroke="#d55800" stroke-width="1.0" />
  <circle cx="92.5550" cy="89.1831" r="2.25" stroke="#d55800" stroke-width="1.0" fill="#d55800"/>
  <line x1="79.9838" y1="68.6092" x2="105.3090" y2="68.8524" stroke="#6f02ec" stroke-width="1.0" />
  <path d="M 86.8964 70.9808 L 86.8964 66.4808 L 91.3964 66.4808 L 91.3964 70.9808 z" style="stroke:#6f02ec;stroke-width:1.0" fill="#6f02ec" 
    transform="rotate(180.5502 92.6464 68.7308)"/>
  <path d="M 94.3964 70.9808 L 94.3964 66.4808 L 98.3964 68.7308 z" style="stroke:#6f02ec;stroke-width:1.0" fill="#6f02ec"
    transform="rotate(180.5502 92.6464 68.7308)"/>
  <line x1="79.9838" y1="68.6092" x2="105.8609" y2="89.1793" stroke="#5800ac" stroke-width="1.0" />
  <circle cx="96.4224" cy="78.8943" r="2.25" stroke="#5800ac" stroke-width="1.0" fill="#5800ac"
    transform="rotate(38.4817 92.9224 78.8943)" />
  <path d="M 91.1724 81.1443 L 91.1724 76.6443 L 87.1724 78.8943 z" style="stroke:#5800ac;stroke-width:1.0" fill="#5800ac" 
    transform="rotate(38.4817 92.9224 78.8943)"/>
  <line x1="78.7447" y1="150.1957" x2="78.6455" y2="130.0472" stroke="#af1b2c" stroke-width="1.0" />
  <rect
     style="fill:#ffffff;fill-opacity:1;fill-rule:nonzero;stroke:none"
     width="2"
     height="2"
     x="78.1951"
     y="139.1214"
     transform="rotate(269.7180 78.6951 140.1214)" /> 
  <path
     style="fill:none;stroke:#af1b2c;stroke-width:1px;stroke-linecap:butt;stroke-linejoin:miter;stroke-opacity:1"
     d="m 78.6951,138.1214 2,2 -2,2 m -2.370121,-4 2,2 -2,2"
     transform="rotate(269.7180 78.6951 140.1214)"/>
  <line x1="78.7631" y1="151.4456" x2="107.6544" y2="151.0193" stroke="#4b0084" stroke-width="1.0" />
  <line x1="78.7262" y1="148.9459" x2="107.6175" y2="148.5196" stroke="#4b0084" stroke-width="1.0" />
  <line x1="78.6455" y1="130.0472" x2="78.7838" y2="109.6914" stroke="#000000" stroke-width="1.0" />
  <rect
     style="fill:#ffffff;fill-opacity:1;fill-rule:nonzero;stroke:none"
     width="2"
     height="2"
     x="78.2146"
     y="118.8693"
     transform="rotate(-89.6108 78.7146 119.8693)" /> 
  <path
     style="fill:none;stroke:#000000;stroke-width:1px;stroke-linecap:butt;stroke-linejoin:miter;stroke-opacity:1"
     d="m 78.7146,117.8693 2,2 -2,2 m -2.370121,-4 2,2 -2,2"
     transform="rotate(-89.6108 78.7146 119.8693)"/>
  <line x1="78.6631" y1="131.2971" x2="107.1576" y2="130.8960" stroke="#33003e" stroke-width="1.0" />
  <line x1="78.6279" y1="128.7973" x2="107.1225" y2="128.3963" stroke="#33003e" stroke-width="1.0" />
  <line x1="78.7941" y1="110.9414" x2="106.5194" y2="110.7115" stroke="#400062" stroke-width="1.0" />
  <line x1="78.7734" y1="108.4415" x2="106.4987" y2="108.2116" stroke="#400062" stroke-width="1.0" />
  <line x1="79.2490" y1="89.1868" x2="79.9838" y2="68.6092" stroke="#17000d" stroke-width="1.0" />
  <rect
     style="fill:#ffffff;fill-opacity:1;fill-rule:nonzero;stroke:none"
     width="2"
     height="2"
     x="79.1164"
     y="77.8980"
     transform="rotate(-87.9550 79.6164 78.8980)" /> 
  <path
     style="fill:none;stroke:#17000d;stroke-width:1px;stroke-linecap:butt;stroke-linejoin:miter;stroke-opacity:1"
     d="m 79.6164,76.8980 2,2 -2,2 m -2.370121,-4 2,2 -2,2"
     transform="rotate(-87.9550 79.6164 78.8980)"/>
  <line x1="79.2490" y1="89.1868" x2="106.5091" y2="109.4615" stroke="#44006e" stroke-width="1.0" />
  <rect
     style="fill:#ffffff;stroke:none"
     width="5.5"
     height="2"
     x="90.1290"
     y="98.3242" 
     transform="rotate(36.6401 92.8790 99.3242)"    /> 
  <path
     style="fill:none;stroke:#44006e;stroke-width:1px;stroke-linecap:butt;stroke-linejoin:miter;stroke-opacity:1"
    d="m 93.6290,97.3242 2,2 -2,2 m -1.5,-4 -2,2 2,2" transform="rotate(36.6401 92.8790 99.3242)"/>
  <line x1="82.0621" y1="46.0556" x2="104.8752" y2="47.2928" stroke="#5d01be" stroke-width="1.0" />
  <rect
     style="fill:#ffffff;fill-opacity:1;fill-rule:nonzero;stroke:none"
     width="2"
     height="2"
     x="92.9686"
     y="45.6742"
     transform="rotate(3.1041 93.4686 46.6742)" /> 
  <path
     style="fill:none;stroke:#5d01be;stroke-width:1px;stroke-linecap:butt;stroke-linejoin:miter;stroke-opacity:1"
     d="m 93.4686,44.6742 2,2 -2,2 m -2.370121,-4 2,2 -2,2"
     transform="rotate(3.1041 93.4686 46.6742)"/>
  <line x1="105.3090" y1="68.8524" x2="105.8609" y2="89.1793" stroke="#520099" stroke-width="1.0" />
  <rect
     style="fill:#ffffff;fill-opacity:1;fill-rule:nonzero;stroke:none"
     width="2"
     height="2"
     x="105.0850"
     y="78.0159"
     transform="rotate(88.4448 105.5850 79.0159)" /> 
  <path
     style="fill:none;stroke:#520099;stroke-width:1px;stroke-linecap:butt;stroke-linejoin:miter;stroke-opacity:1"
     d="m 105.5850,77.0159 2,2 -2,2 m -2.370121,-4 2,2 -2,2"
     transform="rotate(88.4448 105.5850 79.0159)"/>
  <line x1="106.5091" y1="109.4615" x2="107.1401" y2="129.6462" stroke="#000000" stroke-width="1.0" />
  <rect
     style="fill:#ffffff;fill-opacity:1;fill-rule:nonzero;stroke:none"
     width="2"
     height="2"
     x="106.3246"
     y="118.5538"
     transform="rotate(88.2095 106.8246 119.5538)" /> 
  <path
     style="fill:none;stroke:#000000;stroke-width:1px;stroke-linecap:butt;stroke-linejoin:miter;stroke-opacity:1"
     d="m 106.8246,117.5538 2,2 -2,2 m -2.370121,-4 2,2 -2,2"
     transform="rotate(88.2095 106.8246 119.5538)"/>
  <line x1="107.1401" y1="129.6462" x2="107.6359" y2="149.7695" stroke="#b41f06" stroke-width="1.0" />
  <rect
     style="fill:#ffffff;fill-opacity:1;fill-rule:nonzero;stroke:none"
     width="2"
     height="2"
     x="106.8880"
     y="138.7078"
     transform="rotate(88.5884 107.3880 139.7078)" /> 
  <path
     style="fill:none;stroke:#b41f06;stroke-width:1px;stroke-linecap:butt;stroke-linejoin:miter;stroke-opacity:1"
     d="m 107.3880,137.7078 2,2 -2,2 m -2.370121,-4 2,2 -2,2"
     transform="rotate(88.5884 107.3880 139.7078)"/>
<circle cx="78.7447" cy="150.1957" r="5.0" stroke="#595959" stroke-width="1.0" fill="#ffffff"/>
<text x="78.7447" y="152.8957" text-anchor="middle" font-family="Helvetica" font-size="7.5" fill="#000000" >G</text>
<circle cx="78.6455" cy="130.0472" r="5.0" stroke="#595959" stroke-width="1.0" fill="#ffffff"/>
<text x="78.6455" y="132.7472" text-anchor="middle" font-family="Helvetica" font-size="7.5" fill="#000000" >G</text>
<circle cx="78.7838" cy="109.6914" r="5.0" stroke="#595959" stroke-width="1.0" fill="#ffffff"/>
<text x="78.7838" y="112.3914" text-anchor="middle" font-family="Helvetica" font-size="7.5" fill="#000000" >C</text>
<circle cx="79.2490" cy="89.1868" r="5.0" stroke="#595959" stroke-width="1.0" fill="#ffffff"/>
<text x="79.2490" y="91.8868" text-anchor="middle" font-family="Helvetica" font-size="7.5" fill="#000000" >A</text>
<circle cx="79.9838" cy="68.6092" r="5.0" stroke="#595959" stroke-width="1.0" fill="#ffffff"/>
<text x="79.9838" y="71.3092" text-anchor="middle" font-family="Helvetica" font-size="7.5" fill="#000000" >C</text>
<circle cx="64.7019" cy="55.7360" r="5.0" stroke="#595959" stroke-width="1.0" fill="#ffffff"/>
<text x="64.7019" y="58.4360" text-anchor="middle" font-family="Helvetica" font-size="7.5" fill="#000000" >U</text>
<circle cx="82.0621" cy="46.0556" r="5.0" stroke="#595959" stroke-width="1.0" fill="#ffffff"/>
<text x="82.0621" y="48.7556" text-anchor="middle" font-family="Helvetica" font-size="7.5" fill="#000000" >U</text>
<circle cx="94.4991" cy="30.2764" r="5.0" stroke="#595959" stroke-width="1.0" fill="#ffffff"/>
<text x="94.4991" y="32.9764" text-anchor="middle" font-family="Helvetica" font-size="7.5" fill="#000000" >C</text>
<circle cx="104.8752" cy="47.2928" r="5.0" stroke="#595959" stroke-width="1.0" fill="#ffffff"/>
<text x="104.8752" y="49.9928" text-anchor="middle" font-family="Helvetica" font-size="7.5" fill="#000000" >G</text>
<circle cx="105.3090" cy="68.8524" r="5.0" stroke="#595959" stroke-width="1.0" fill="#ffffff"/>
<text x="105.3090" y="71.5524" text-anchor="middle" font-family="Helvetica" font-size="7.5" fill="#000000" >G</text>
<circle cx="105.8609" cy="89.1793" r="5.0" stroke="#595959" stroke-width="1.0" fill="#ffffff"/>
<text x="105.8609" y="91.8793" text-anchor="middle" font-family="Helvetica" font-size="7.5" fill="#000000" >U</text>
<circle cx="106.5091" cy="109.4615" r="5.0" stroke="#595959" stroke-width="1.0" fill="#ffffff"/>
<text x="106.5091" y="112.1615" text-anchor="middle" font-family="Helvetica" font-size="7.5" fill="#000000" >G</text>
<circle cx="107.1401" cy="129.6462" r="5.0" stroke="#595959" stroke-width="1.0" fill="#ffffff"/>
<text x="107.1401" y="132.3462" text-anchor="middle" font-family="Helvetica" font-size="7.5" fill="#000000" >C</text>
<circle cx="107.6359" cy="149.7695" r="5.0" stroke="#595959" stroke-width="1.0" fill="#ffffff"/>
<text x="107.6359" y="152.4695" text-anchor="middle" font-family="Helvetica" font-size="7.5" fill="#000000" >C</text>
</svg>