<?xml version="1.0" encoding="UTF-8"?>
<!DOCTYPE svg PUBLIC "-//W3C//DTD SVG 1.1//EN" 
"http://www.w3.org/Graphics/SVG/1.1/DTD/svg11.dtd">

<svg version="1.1"
   width="182px"
   height="182px"
xmlns="http://www.w3.org/2000/svg">
    <rect width="100%" height="100%" fill="white"/>

  <line x1="72.9949" y1="108.9224" x2="73.2043" y2="88.7581" stroke="#595959"
     style="stroke-width:2;stroke-miterlimit:4;stroke-dasharray:1,1;stroke-dashoffset:0" />
  <line x1="73.0391" y1="68.5962" x2="72.2567" y2="47.4728" stroke="#595959"
     style="stroke-width:2;stroke-miterlimit:4;stroke-dasharray:1,1;stroke-dashoffset:0" />
  <line x1="87.4547" y1="34.4999" x2="104.3455" y2="45.3933" stroke="#595959"
     style="stroke-width:2;stroke-miterlimit:4;stroke-dasharray:1,1;stroke-dashoffset:0" />
  <line x1="104.3455" y1="45.3933" x2="121.2277" y2="55.8598" stroke="#595959"
     style="stroke-width:2;stroke-miterlimit:4;stroke-dasharray:1,1;stroke-dashoffset:0" />
  <line x1="121.2277" y1="55.8598" x2="105.3476" y2="68.0116" stroke="#595959"
     style="stroke-width:2;stroke-miterlimit:4;stroke-dasharray:1,1;stroke-dashoffset:0" />
  <line x1="105.5251" y1="88.7775" x2="105.3919" y2="109.4465" stroke="#595959"
     style="stroke-width:2;stroke-miterlimit:4;stroke-dasharray:1,1;stroke-dashoffset:0" />
  <line x1="72.2567" y1="47.4728" x2="104.3455" y2="45.3933" stroke="#e99400" stroke-width="1.0" />
  <path d="M 82.5511 48.6831 L 82.5511 44.1831 L 87.0511 44.1831 L 87.0511 48.6831 z" style="stroke:#e99400;stroke-width:1.0" fill="#e99400" 
    transform="rotate(176.2922 88.3011 46.4331)"/>
  <path d="M 90.0511 48.6831 L 90.0511 44.1831 L 94.0511 46.4331 z" style="stroke:#e99400;stroke-width:1.0" fill="#e99400"
    transform="rotate(176.2922 88.3011 46.4331)"/>
  <line x1="104.3455" y1="45.3933" x2="105.3476" y2="68.0116" stroke="#e99400" stroke-width="1.0" />
  <circle cx="108.3466" cy="56.7024" r="2.25" stroke="#e99400" stroke-width="1.0" fill="#e99400"
    transform="rotate(267.4632 104.8466 56.7024)" />
  <path d="M 103.0966 58.9524 L 103.0966 54.4524 L 99.0966 56.7024 z" style="stroke:#e99400;stroke-width:1.0" fill="#e99400" 
    transform="rotate(267.4632 104.8466 56.7024)"/>
  <line x1="71.7270" y1="149.1428" x2="72.4674" y2="129.0503" stroke="#eb9d00" stroke-width="1.0" />
  <rect
     style="fill:#ffffff;fill-opacity:1;fill-rule:nonzero;stroke:none"
     width="2"
     height="2"
     x="71.5972"
     y="138.0966"
     transform="rotate(-87.8897 72.0972 139.0966)" /> 
  <path
     style="fill:none;stroke:#eb9d00;stroke-width:1px;stroke-linecap:butt;stroke-linejoin:miter;stroke-opacity:1"
     d="m 72.0972,137.0966 2,2 -2,2 m -2.370121,-4 2,2 -2,2"
     transform="rotate(-87.8897 72.0972 139.0966)"/>
  <line x1="71.6885" y1="150.3922" x2="104.1017" y2="151.3900" stroke="#000000" stroke-width="1.0" />
  <line x1="71.7654" y1="147.8934" x2="104.1787" y2="148.8912" stroke="#000000" stroke-width="1.0" />
  <line x1="72.4674" y1="129.0503" x2="72.9949" y2="108.9224" stroke="#000000" stroke-width="1.0" />
  <rect
     style="fill:#ffffff;fill-opacity:1;fill-rule:nonzero;stroke:none"
     width="2"
     height="2"
     x="72.2311"
     y="117.9863"
     transform="rotate(-88.4988 72.7311 118.9863)" /> 
  <path
     style="fill:none;stroke:#000000;stroke-width:1px;stroke-linecap:butt;stroke-linejoin:miter;stroke-opacity:1"
     d="m 72.7311,116.9863 2,2 -2,2 m -2.370121,-4 2,2 -2,2"
     transform="rotate(-88.4988 72.7311 118.9863)"/>
  <line x1="72.4335" y1="130.2999" x2="104.8440" y2="131.1778" stroke="#000000" stroke-width="1.0" />
  <line x1="72.5012" y1="127.8008" x2="104.9117" y2="128.6787" stroke="#000000" stroke-width="1.0" />
  <line x1="72.4674" y1="129.0503" x2="104.1402" y2="150.1406" stroke="#bd2b00" stroke-width="1.0" />
  <rect
     style="fill:#ffffff;stroke:none"
     width="5.5"
     height="2"
     x="85.5538"
     y="138.5954" 
     transform="rotate(33.6588 88.3038 139.5954)"    /> 
  <path
     style="fill:none;stroke:#bd2b00;stroke-width:1px;stroke-linecap:butt;stroke-linejoin:miter;stroke-opacity:1"
    d="m 89.0538,137.5954 2,2 -2,2 m -1.5,-4 -2,2 2,2" transform="rotate(33.6588 88.3038 139.5954)"/>
  <line x1="72.9746" y1="110.1722" x2="105.3717" y2="110.6964" stroke="#000000" stroke-width="1.0" />
  <line x1="73.0151" y1="107.6725" x2="105.4121" y2="108.1967" stroke="#000000" stroke-width="1.0" />
  <line x1="73.2043" y1="88.7581" x2="73.0391" y2="68.5962" stroke="#000000" stroke-width="1.0" />
  <rect
     style="fill:#ffffff;fill-opacity:1;fill-rule:nonzero;stroke:none"
     width="2"
     height="2"
     x="72.6217"
     y="77.6771"
     transform="rotate(269.5307 73.1217 78.6771)" /> 
  <path
     style="fill:none;stroke:#000000;stroke-width:1px;stroke-linecap:butt;stroke-linejoin:miter;stroke-opacity:1"
     d="m 73.1217,76.6771 2,2 -2,2 m -2.370121,-4 2,2 -2,2"
     transform="rotate(269.5307 73.1217 78.6771)"/>
  <line x1="73.2035" y1="90.0081" x2="105.5244" y2="90.0275" stroke="#000000" stroke-width="1.0" />
  <line x1="73.2050" y1="87.5081" x2="105.5259" y2="87.5275" stroke="#000000" stroke-width="1.0" />
  <line x1="73.2043" y1="88.7581" x2="105.3919" y2="109.4465" stroke="#200019" stroke-width="1.0" />
  <rect
     style="fill:#ffffff;stroke:none"
     width="5.5"
     height="2"
     x="86.5481"
     y="98.1023" 
     transform="rotate(32.7307 89.2981 99.1023)"    /> 
  <path
     style="fill:none;stroke:#200019;stroke-width:1px;stroke-linecap:butt;stroke-linejoin:miter;stroke-opacity:1"
    d="m 90.0481,97.1023 2,2 -2,2 m -1.5,-4 -2,2 2,2" transform="rotate(32.7307 89.2981 99.1023)"/>
  <line x1="73.0618" y1="69.8459" x2="105.3703" y2="69.2613" stroke="#000000" stroke-width="1.0" />
  <line x1="73.0165" y1="67.3464" x2="105.3250" y2="66.7618" stroke="#000000" stroke-width="1.0" />
  <line x1="72.2567" y1="47.4728" x2="87.4547" y2="34.4999" stroke="#270026" stroke-width="1.0" />
  <rect
     style="fill:#ffffff;fill-opacity:1;fill-rule:nonzero;stroke:none"
     width="2"
     height="2"
     x="79.3557"
     y="39.9863"
     transform="rotate(-40.4839 79.8557 40.9863)" /> 
  <path
     style="fill:none;stroke:#270026;stroke-width:1px;stroke-linecap:butt;stroke-linejoin:miter;stroke-opacity:1"
     d="m 79.8557,38.9863 2,2 -2,2 m -2.370121,-4 2,2 -2,2"
     transform="rotate(-40.4839 79.8557 40.9863)"/>
  <line x1="72.2567" y1="47.4728" x2="105.3476" y2="68.0116" stroke="#9d0eb1" stroke-width="1.0" />
  <rect
     style="fill:#ffffff;stroke:none"
     width="5.5"
     height="2"
     x="86.0522"
     y="56.7422" 
     transform="rotate(31.8269 88.8022 57.7422)"    /> 
  <path
     style="fill:none;stroke:#9d0eb1;stroke-width:1px;stroke-linecap:butt;stroke-linejoin:miter;stroke-opacity:1"
    d="m 89.5522,55.7422 2,2 -2,2 m -1.5,-4 -2,2 2,2" transform="rotate(31.8269 88.8022 57.7422)"/>
  <line x1="105.3476" y1="68.0116" x2="105.5251" y2="88.7775" stroke="#000000" stroke-width="1.0" />
  <rect
     style="fill:#ffffff;fill-opacity:1;fill-rule:nonzero;stroke:none"
     width="2"
     height="2"
     x="104.9364"
     y="77.3946"
     transform="rotate(89.5103 105.4364 78.3946)" /> 
  <path
     style="fill:none;stroke:#000000;stroke-width:1px;stroke-linecap:butt;stroke-linejoin:miter;stroke-opacity:1"
     d="m 105.4364,76.3946 2,2 -2,2 m -2.370121,-4 2,2 -2,2"
     transform="rotate(89.5103 105.4364 78.3946)"/>
  <line x1="105.3919" y1="109.4465" x2="104.8779" y2="129.9283" stroke="#000000" stroke-width="1.0" />
  <rect
     style="fill:#ffffff;fill-opacity:1;fill-rule:nonzero;stroke:none"
     width="2"
     height="2"
     x="104.6349"
     y="118.6874"
     transform="rotate(91.4377 105.1349 119.6874)" /> 
  <path
     style="fill:none;stroke:#000000;stroke-width:1px;stroke-linecap:butt;stroke-linejoin:miter;stroke-opacity:1"
     d="m 105.1349,117.6874 2,2 -2,2 m -2.370121,-4 2,2 -2,2"
     transform="rotate(91.4377 105.1349 119.6874)"/>
  <line x1="104.8779" y1="129.9283" x2="104.1402" y2="150.1406" stroke="#c33200" stroke-width="1.0" />
  <rect
     style="fill:#ffffff;fill-opacity:1;fill-rule:nonzero;stroke:none"
     width="2"
     height="2"
     x="104.0090"
     y="139.0344"
     transform="rotate(92.0901 104.5090 140.0344)" /> 
  <path
     style="fill:none;stroke:#c33200;stroke-width:1px;stroke-linecap:butt;stroke-linejoin:miter;stroke-opacity:1"
     d="m 104.5090,138.0344 2,2 -2,2 m -2.370121,-4 2,2 -2,2"
     transform="rotate(92.0901 104.5090 140.0344)"/>
<circle cx="71.7270" cy="149.1428" r="5.0" stroke="#595959" stroke-width="1.0" fill="#ffffff"/>
<text x="71.7270" y="151.8428" text-anchor="middle" font-family="Helvetica" font-size="7.5" fill="#000000" >G</text>
<circle cx="72.4674" cy="129.0503" r="5.0" stroke="#595959" stroke-width="1.0" fill="#ffffff"/>
<text x="72.4674" y="131.7503" text-anchor="middle" font-family="Helvetica" font-size="7.5" fill="#000000" >G</text>
<circle cx="72.9949" cy="108.9224" r="5.0" stroke="#595959" stroke-width="1.0" fill="#ffffff"/>
<text x="72.9949" y="111.6224" text-anchor="middle" font-family="Helvetica" font-size="7.5" fill="#000000" >C</text>
<circle cx="73.2043" cy="88.7581" r="5.0" stroke="#595959" stroke-width="1.0" fill="#ffffff"/>
<text x="73.2043" y="91.4581" text-anchor="middle" font-family="Helvetica" font-size="7.5" fill="#000000" >G</text>
<circle cx="73.0391" cy="68.5962" r="5.0" stroke="#595959" stroke-width="1.0" fill="#ffffff"/>
<text x="73.0391" y="71.2962" text-anchor="middle" font-family="Helvetica" font-size="7.5" fill="#000000" >C</text>
<circle cx="72.2567" cy="47.4728" r="5.0" stroke="#595959" stroke-width="1.0" fill="#ffffff"/>
<text x="72.2567" y="50.1728" text-anchor="middle" font-family="Helvetica" font-size="7.5" fill="#000000" >A</text>
<circle cx="87.4547" cy="34.4999" r="5.0" stroke="#595959" stroke-width="1.0" fill="#ffffff"/>
<text x="87.4547" y="37.1999" text-anchor="middle" font-family="Helvetica" font-size="7.5" fill="#000000" >U</text>
<circle cx="104.3455" cy="45.3933" r="5.0" stroke="#595959" stroke-width="1.0" fill="#ffffff"/>
<text x="104.3455" y="48.0933" text-anchor="middle" font-family="Helvetica" font-size="7.5" fill="#000000" >C</text>
<circle cx="121.2277" cy="55.8598" r="5.0" stroke="#595959" stroke-width="1.0" fill="#ffffff"/>
<text x="121.2277" y="58.5598" text-anchor="middle" font-family="Helvetica" font-size="7.5" fill="#000000" >G</text>
<circle cx="105.3476" cy="68.0116" r="5.0" stroke="#595959" stroke-width="1.0" fill="#ffffff"/>
<text x="105.3476" y="70.7116" text-anchor="middle" font-family="Helvetica" font-size="7.5" fill="#000000" >G</text>
<circle cx="105.5251" cy="88.7775" r="5.0" stroke="#595959" stroke-width="1.0" fill="#ffffff"/>
<text x="105.5251" y="91.4775" text-anchor="middle" font-family="Helvetica" font-size="7.5" fill="#000000" >C</text>
<circle cx="105.3919" cy="109.4465" r="5.0" stroke="#595959" stroke-width="1.0" fill="#ffffff"/>
<text x="105.3919" y="112.1465" text-anchor="middle" font-family="Helvetica" font-size="7.5" fill="#000000" >G</text>
<circle cx="104.8779" cy="129.9283" r="5.0" stroke="#595959" stroke-width="1.0" fill="#ffffff"/>
<text x="104.8779" y="132.6283" text-anchor="middle" font-family="Helvetica" font-size="7.5" fill="#000000" >C</text>
<circle cx="104.1402" cy="150.1406" r="5.0" stroke="#595959" stroke-width="1.0" fill="#ffffff"/>
<text x="104.1402" y="152.8406" text-anchor="middle" font-family="Helvetica" font-size="7.5" fill="#000000" >C</text>
</svg>