<?xml version="1.0" encoding="UTF-8"?>
<!DOCTYPE svg PUBLIC "-//W3C//DTD SVG 1.1//EN" 
"http://www.w3.org/Graphics/SVG/1.1/DTD/svg11.dtd">

<svg version="1.1"
   width="182px"
   height="182px"
xmlns="http://www.w3.org/2000/svg">
    <rect width="100%" height="100%" fill="white"/>

  <line x1="74.2443" y1="110.7770" x2="74.1106" y2="90.7961" stroke="#595959"
     style="stroke-width:2;stroke-miterlimit:4;stroke-dasharray:1,1;stroke-dashoffset:0" />
  <line x1="81.0205" y1="32.2505" x2="100.9795" y2="32.2505" stroke="#595959"
     style="stroke-width:2;stroke-miterlimit:4;stroke-dasharray:1,1;stroke-dashoffset:0" />
  <line x1="100.9795" y1="32.2505" x2="108.2791" y2="50.8394" stroke="#595959"
     style="stroke-width:2;stroke-miterlimit:4;stroke-dasharray:1,1;stroke-dashoffset:0" />
  <line x1="108.2791" y1="50.8394" x2="108.0812" y2="70.8181" stroke="#595959"
     style="stroke-width:2;stroke-miterlimit:4;stroke-dasharray:1,1;stroke-dashoffset:0" />
  <line x1="107.8894" y1="90.7961" x2="107.7557" y2="110.7770" stroke="#595959"
     style="stroke-width:2;stroke-miterlimit:4;stroke-dasharray:1,1;stroke-dashoffset:0" />
  <line x1="73.7209" y1="47.6394" x2="108.2791" y2="47.6394" stroke="#df7200" stroke-width="1.0" />
  <circle cx="91.0000" cy="47.6394" r="2.25" stroke="#df7200" stroke-width="1.0" fill="#df7200"/>
  <line x1="73.7209" y1="50.8394" x2="108.2791" y2="50.8394" stroke="#e07500" stroke-width="1.0" />
  <circle cx="91.0000" cy="50.8394" r="2.25" stroke="#e07500" stroke-width="1.0" fill="#e07500"/>
  <line x1="73.7209" y1="54.0394" x2="108.2791" y2="54.0394" stroke="#d14c00" stroke-width="1.0" />
  <circle cx="94.5000" cy="54.0394" r="2.25" stroke="#d14c00" stroke-width="1.0" fill="#d14c00"
    transform="rotate(0.0000 91.0000 54.0394)" />
  <path d="M 89.2500 56.2894 L 89.2500 51.7894 L 85.2500 54.0394 z" style="stroke:#d14c00;stroke-width:1.0" fill="#d14c00" 
    transform="rotate(0.0000 91.0000 54.0394)"/>
  <line x1="74.1497" y1="150.7556" x2="74.2818" y2="130.7633" stroke="#bc2900" stroke-width="1.0" />
  <rect
     style="fill:#ffffff;fill-opacity:1;fill-rule:nonzero;stroke:none"
     width="2"
     height="2"
     x="73.7158"
     y="139.7595"
     transform="rotate(-89.6216 74.2158 140.7595)" /> 
  <path
     style="fill:none;stroke:#bc2900;stroke-width:1px;stroke-linecap:butt;stroke-linejoin:miter;stroke-opacity:1"
     d="m 74.2158,138.7595 2,2 -2,2 m -2.370121,-4 2,2 -2,2"
     transform="rotate(-89.6216 74.2158 140.7595)"/>
  <line x1="74.1497" y1="152.0056" x2="107.8503" y2="152.0056" stroke="#9e0fa8" stroke-width="1.0" />
  <line x1="74.1497" y1="149.5056" x2="107.8503" y2="149.5056" stroke="#9e0fa8" stroke-width="1.0" />
  <line x1="74.2818" y1="130.7633" x2="74.2443" y2="110.7770" stroke="#000000" stroke-width="1.0" />
  <rect
     style="fill:#ffffff;fill-opacity:1;fill-rule:nonzero;stroke:none"
     width="2"
     height="2"
     x="73.7630"
     y="119.7701"
     transform="rotate(269.8925 74.2630 120.7701)" /> 
  <path
     style="fill:none;stroke:#000000;stroke-width:1px;stroke-linecap:butt;stroke-linejoin:miter;stroke-opacity:1"
     d="m 74.2630,118.7701 2,2 -2,2 m -2.370121,-4 2,2 -2,2"
     transform="rotate(269.8925 74.2630 120.7701)"/>
  <line x1="74.2818" y1="132.0133" x2="107.7182" y2="132.0133" stroke="#33003e" stroke-width="1.0" />
  <line x1="74.2818" y1="129.5133" x2="107.7182" y2="129.5133" stroke="#33003e" stroke-width="1.0" />
  <line x1="74.2818" y1="130.7633" x2="107.8503" y2="150.7556" stroke="#eeaa00" stroke-width="1.0" />
  <rect
     style="fill:#ffffff;stroke:none"
     width="5.5"
     height="2"
     x="88.3160"
     y="139.7595" 
     transform="rotate(30.7767 91.0660 140.7595)"    /> 
  <path
     style="fill:none;stroke:#eeaa00;stroke-width:1px;stroke-linecap:butt;stroke-linejoin:miter;stroke-opacity:1"
    d="m 91.8160,138.7595 2,2 -2,2 m -1.5,-4 -2,2 2,2" transform="rotate(30.7767 91.0660 140.7595)"/>
  <line x1="74.2443" y1="112.0270" x2="107.7557" y2="112.0270" stroke="#270026" stroke-width="1.0" />
  <line x1="74.2443" y1="109.5270" x2="107.7557" y2="109.5270" stroke="#270026" stroke-width="1.0" />
  <line x1="74.1106" y1="90.7961" x2="73.9188" y2="70.8181" stroke="#200019" stroke-width="1.0" />
  <rect
     style="fill:#ffffff;fill-opacity:1;fill-rule:nonzero;stroke:none"
     width="2"
     height="2"
     x="73.5147"
     y="79.8071"
     transform="rotate(269.4500 74.0147 80.8071)" /> 
  <path
     style="fill:none;stroke:#200019;stroke-width:1px;stroke-linecap:butt;stroke-linejoin:miter;stroke-opacity:1"
     d="m 74.0147,78.8071 2,2 -2,2 m -2.370121,-4 2,2 -2,2"
     transform="rotate(269.4500 74.0147 80.8071)"/>
  <line x1="74.1106" y1="90.7961" x2="107.8894" y2="90.7961" stroke="#37004b" stroke-width="1.0" />
  <line x1="74.1106" y1="90.7961" x2="107.7557" y2="110.7770" stroke="#200019" stroke-width="1.0" />
  <rect
     style="fill:#ffffff;stroke:none"
     width="5.5"
     height="2"
     x="88.1832"
     y="99.7865" 
     transform="rotate(30.7049 90.9332 100.7865)"    /> 
  <path
     style="fill:none;stroke:#200019;stroke-width:1px;stroke-linecap:butt;stroke-linejoin:miter;stroke-opacity:1"
    d="m 91.6832,98.7865 2,2 -2,2 m -1.5,-4 -2,2 2,2" transform="rotate(30.7049 90.9332 100.7865)"/>
  <line x1="73.9188" y1="70.8181" x2="73.7209" y2="50.8394" stroke="#4e008f" stroke-width="1.0" />
  <rect
     style="fill:#ffffff;fill-opacity:1;fill-rule:nonzero;stroke:none"
     width="2"
     height="2"
     x="73.3199"
     y="59.8287"
     transform="rotate(269.4326 73.8199 60.8287)" /> 
  <path
     style="fill:none;stroke:#4e008f;stroke-width:1px;stroke-linecap:butt;stroke-linejoin:miter;stroke-opacity:1"
     d="m 73.8199,58.8287 2,2 -2,2 m -2.370121,-4 2,2 -2,2"
     transform="rotate(269.4326 73.8199 60.8287)"/>
  <line x1="73.9188" y1="72.0681" x2="108.0812" y2="72.0681" stroke="#400062" stroke-width="1.0" />
  <line x1="73.9188" y1="69.5681" x2="108.0812" y2="69.5681" stroke="#400062" stroke-width="1.0" />
  <line x1="73.7209" y1="50.8394" x2="81.0205" y2="32.2505" stroke="#400062" stroke-width="1.0" />
  <rect
     style="fill:#ffffff;fill-opacity:1;fill-rule:nonzero;stroke:none"
     width="2"
     height="2"
     x="76.8707"
     y="40.5449"
     transform="rotate(-68.5606 77.3707 41.5449)" /> 
  <path
     style="fill:none;stroke:#400062;stroke-width:1px;stroke-linecap:butt;stroke-linejoin:miter;stroke-opacity:1"
     d="m 77.3707,39.5449 2,2 -2,2 m -2.370121,-4 2,2 -2,2"
     transform="rotate(-68.5606 77.3707 41.5449)"/>
  <line x1="108.0812" y1="70.8181" x2="107.8894" y2="90.7961" stroke="#000000" stroke-width="1.0" />
  <rect
     style="fill:#ffffff;fill-opacity:1;fill-rule:nonzero;stroke:none"
     width="2"
     height="2"
     x="107.4853"
     y="79.8071"
     transform="rotate(90.5500 107.9853 80.8071)" /> 
  <path
     style="fill:none;stroke:#000000;stroke-width:1px;stroke-linecap:butt;stroke-linejoin:miter;stroke-opacity:1"
     d="m 107.9853,78.8071 2,2 -2,2 m -2.370121,-4 2,2 -2,2"
     transform="rotate(90.5500 107.9853 80.8071)"/>
  <line x1="107.7557" y1="110.7770" x2="107.7182" y2="130.7633" stroke="#000000" stroke-width="1.0" />
  <rect
     style="fill:#ffffff;fill-opacity:1;fill-rule:nonzero;stroke:none"
     width="2"
     height="2"
     x="107.2370"
     y="119.7701"
     transform="rotate(90.1075 107.7370 120.7701)" /> 
  <path
     style="fill:none;stroke:#000000;stroke-width:1px;stroke-linecap:butt;stroke-linejoin:miter;stroke-opacity:1"
     d="m 107.7370,118.7701 2,2 -2,2 m -2.370121,-4 2,2 -2,2"
     transform="rotate(90.1075 107.7370 120.7701)"/>
  <line x1="109.3182" y1="130.7527" x2="109.4502" y2="150.7451" stroke="#cd4500" stroke-width="1.0" />
  <rect
     style="fill:#ffffff;fill-opacity:1;fill-rule:nonzero;stroke:none"
     width="2"
     height="2"
     x="108.8842"
     y="139.7489"
     transform="rotate(89.6216 109.3842 140.7489)" /> 
  <path
     style="fill:none;stroke:#cd4500;stroke-width:1px;stroke-linecap:butt;stroke-linejoin:miter;stroke-opacity:1"
     d="m 109.3842,138.7489 2,2 -2,2 m -2.370121,-4 2,2 -2,2"
     transform="rotate(89.6216 109.3842 140.7489)"/>
  <line x1="106.1183" y1="130.7739" x2="106.2503" y2="150.7662" stroke="#eb9d00" stroke-width="1.0" />
  <rect
     style="fill:#ffffff;fill-opacity:1;fill-rule:nonzero;stroke:none"
     width="2"
     height="2"
     x="105.1843"
     y="139.7700" 
     transform="rotate(89.6216 106.1843 140.7700)" /> 
  <path
     style="fill:none;stroke:#eb9d00;stroke-width:1px;stroke-linecap:butt;stroke-linejoin:miter;stroke-opacity:1"
     d="m 109.1843,138.7700 -2,2 2,2 m -6,-4 2,2 -2,2"
     transform="rotate(89.6216 106.1843 140.7700)"/>
<circle cx="74.1497" cy="150.7556" r="5.0" stroke="#595959" stroke-width="1.0" fill="#ffffff"/>
<text x="74.1497" y="153.4556" text-anchor="middle" font-family="Helvetica" font-size="7.5" fill="#000000" >G</text>
<circle cx="74.2818" cy="130.7633" r="5.0" stroke="#595959" stroke-width="1.0" fill="#ffffff"/>
<text x="74.2818" y="133.4633" text-anchor="middle" font-family="Helvetica" font-size="7.5" fill="#000000" >G</text>
<circle cx="74.2443" cy="110.7770" r="5.0" stroke="#595959" stroke-width="1.0" fill="#ffffff"/>
<text x="74.2443" y="113.4770" text-anchor="middle" font-family="Helvetica" font-size="7.5" fill="#000000" >C</text>
<circle cx="74.1106" cy="90.7961" r="5.0" stroke="#595959" stroke-width="1.0" fill="#ffffff"/>
<text x="74.1106" y="93.4961" text-anchor="middle" font-family="Helvetica" font-size="7.5" fill="#000000" >A</text>
<circle cx="73.9188" cy="70.8181" r="5.0" stroke="#595959" stroke-width="1.0" fill="#ffffff"/>
<text x="73.9188" y="73.5181" text-anchor="middle" font-family="Helvetica" font-size="7.5" fill="#000000" >C</text>
<circle cx="73.7209" cy="50.8394" r="5.0" stroke="#595959" stroke-width="1.0" fill="#ffffff"/>
<text x="73.7209" y="53.5394" text-anchor="middle" font-family="Helvetica" font-size="7.5" fill="#000000" >U</text>
<circle cx="81.0205" cy="32.2505" r="5.0" stroke="#595959" stroke-width="1.0" fill="#ffffff"/>
<text x="81.0205" y="34.9505" text-anchor="middle" font-family="Helvetica" font-size="7.5" fill="#000000" >U</text>
<circle cx="100.9795" cy="32.2505" r="5.0" stroke="#595959" stroke-width="1.0" fill="#ffffff"/>
<text x="100.9795" y="34.9505" text-anchor="middle" font-family="Helvetica" font-size="7.5" fill="#000000" >C</text>
<circle cx="108.2791" cy="50.8394" r="5.0" stroke="#595959" stroke-width="1.0" fill="#ffffff"/>
<text x="108.2791" y="53.5394" text-anchor="middle" font-family="Helvetica" font-size="7.5" fill="#000000" >G</text>
<circle cx="108.0812" cy="70.8181" r="5.0" stroke="#595959" stroke-width="1.0" fill="#ffffff"/>
<text x="108.0812" y="73.5181" text-anchor="middle" font-family="Helvetica" font-size="7.5" fill="#000000" >G</text>
<circle cx="107.8894" cy="90.7961" r="5.0" stroke="#595959" stroke-width="1.0" fill="#ffffff"/>
<text x="107.8894" y="93.4961" text-anchor="middle" font-family="Helvetica" font-size="7.5" fill="#000000" >U</text>
<circle cx="107.7557" cy="110.7770" r="5.0" stroke="#595959" stroke-width="1.0" fill="#ffffff"/>
<text x="107.7557" y="113.4770" text-anchor="middle" font-family="Helvetica" font-size="7.5" fill="#000000" >G</text>
<circle cx="107.7182" cy="130.7633" r="5.0" stroke="#595959" stroke-width="1.0" fill="#ffffff"/>
<text x="107.7182" y="133.4633" text-anchor="middle" font-family="Helvetica" font-size="7.5" fill="#000000" >C</text>
<circle cx="107.8503" cy="150.7556" r="5.0" stroke="#595959" stroke-width="1.0" fill="#ffffff"/>
<text x="107.8503" y="153.4556" text-anchor="middle" font-family="Helvetica" font-size="7.5" fill="#000000" >C</text>
</svg>