<?xml version="1.0" encoding="UTF-8"?>
<!DOCTYPE svg PUBLIC "-//W3C//DTD SVG 1.1//EN" 
"http://www.w3.org/Graphics/SVG/1.1/DTD/svg11.dtd">

<svg version="1.1"
   width="182px"
   height="182px"
xmlns="http://www.w3.org/2000/svg">
    <rect width="100%" height="100%" fill="white"/>

  <line x1="73.9107" y1="110.3931" x2="74.1070" y2="90.4274" stroke="#595959"
     style="stroke-width:2;stroke-miterlimit:4;stroke-dasharray:1,1;stroke-dashoffset:0" />
  <line x1="73.9153" y1="70.4742" x2="72.6424" y2="50.5712" stroke="#595959"
     style="stroke-width:2;stroke-miterlimit:4;stroke-dasharray:1,1;stroke-dashoffset:0" />
  <line x1="82.7730" y1="33.3715" x2="102.7279" y2="34.2675" stroke="#595959"
     style="stroke-width:2;stroke-miterlimit:4;stroke-dasharray:1,1;stroke-dashoffset:0" />
  <line x1="113.1784" y1="51.2946" x2="106.8840" y2="70.2934" stroke="#595959"
     style="stroke-width:2;stroke-miterlimit:4;stroke-dasharray:1,1;stroke-dashoffset:0" />
  <line x1="106.9828" y1="90.4230" x2="106.8886" y2="110.5349" stroke="#595959"
     style="stroke-width:2;stroke-miterlimit:4;stroke-dasharray:1,1;stroke-dashoffset:0" />
  <line x1="73.3703" y1="150.3588" x2="73.6764" y2="130.3709" stroke="#d75b00" stroke-width="1.0" />
  <rect
     style="fill:#ffffff;fill-opacity:1;fill-rule:nonzero;stroke:none"
     width="2"
     height="2"
     x="73.0234"
     y="139.3649"
     transform="rotate(-89.1227 73.5234 140.3649)" /> 
  <path
     style="fill:none;stroke:#d75b00;stroke-width:1px;stroke-linecap:butt;stroke-linejoin:miter;stroke-opacity:1"
     d="m 73.5234,138.3649 2,2 -2,2 m -2.370121,-4 2,2 -2,2"
     transform="rotate(-89.1227 73.5234 140.3649)"/>
  <line x1="73.3603" y1="151.6088" x2="106.3278" y2="151.8743" stroke="#2d0032" stroke-width="1.0" />
  <line x1="73.3804" y1="149.1089" x2="106.3479" y2="149.3744" stroke="#2d0032" stroke-width="1.0" />
  <line x1="73.6764" y1="130.3709" x2="73.9107" y2="110.3931" stroke="#000000" stroke-width="1.0" />
  <rect
     style="fill:#ffffff;fill-opacity:1;fill-rule:nonzero;stroke:none"
     width="2"
     height="2"
     x="73.2936"
     y="119.3820"
     transform="rotate(-89.3281 73.7936 120.3820)" /> 
  <path
     style="fill:none;stroke:#000000;stroke-width:1px;stroke-linecap:butt;stroke-linejoin:miter;stroke-opacity:1"
     d="m 73.7936,118.3820 2,2 -2,2 m -2.370121,-4 2,2 -2,2"
     transform="rotate(-89.3281 73.7936 120.3820)"/>
  <line x1="73.6679" y1="131.6208" x2="106.5967" y2="131.8451" stroke="#2d0032" stroke-width="1.0" />
  <line x1="73.6849" y1="129.1209" x2="106.6138" y2="129.3452" stroke="#2d0032" stroke-width="1.0" />
  <line x1="73.6764" y1="130.3709" x2="106.3378" y2="150.6243" stroke="#e68800" stroke-width="1.0" />
  <rect
     style="fill:#ffffff;stroke:none"
     width="5.5"
     height="2"
     x="87.2571"
     y="139.4976" 
     transform="rotate(31.8032 90.0071 140.4976)"    /> 
  <path
     style="fill:none;stroke:#e68800;stroke-width:1px;stroke-linecap:butt;stroke-linejoin:miter;stroke-opacity:1"
    d="m 90.7571,138.4976 2,2 -2,2 m -1.5,-4 -2,2 2,2" transform="rotate(31.8032 90.0071 140.4976)"/>
  <line x1="73.9053" y1="111.6431" x2="106.8832" y2="111.7849" stroke="#33003e" stroke-width="1.0" />
  <line x1="73.9161" y1="109.1431" x2="106.8939" y2="109.2849" stroke="#33003e" stroke-width="1.0" />
  <line x1="74.1070" y1="90.4274" x2="73.9153" y2="70.4742" stroke="#000000" stroke-width="1.0" />
  <rect
     style="fill:#ffffff;fill-opacity:1;fill-rule:nonzero;stroke:none"
     width="2"
     height="2"
     x="73.5111"
     y="79.4508"
     transform="rotate(269.4497 74.0111 80.4508)" /> 
  <path
     style="fill:none;stroke:#000000;stroke-width:1px;stroke-linecap:butt;stroke-linejoin:miter;stroke-opacity:1"
     d="m 74.0111,78.4508 2,2 -2,2 m -2.370121,-4 2,2 -2,2"
     transform="rotate(269.4497 74.0111 80.4508)"/>
  <line x1="74.1071" y1="91.6774" x2="106.9830" y2="91.6730" stroke="#2d0032" stroke-width="1.0" />
  <line x1="74.1068" y1="89.1774" x2="106.9826" y2="89.1730" stroke="#2d0032" stroke-width="1.0" />
  <line x1="74.1070" y1="90.4274" x2="106.8886" y2="110.5349" stroke="#17000d" stroke-width="1.0" />
  <rect
     style="fill:#ffffff;stroke:none"
     width="5.5"
     height="2"
     x="87.7478"
     y="99.4811" 
     transform="rotate(31.5241 90.4978 100.4811)"    /> 
  <path
     style="fill:none;stroke:#17000d;stroke-width:1px;stroke-linecap:butt;stroke-linejoin:miter;stroke-opacity:1"
    d="m 91.2478,98.4811 2,2 -2,2 m -1.5,-4 -2,2 2,2" transform="rotate(31.5241 90.4978 100.4811)"/>
  <line x1="73.9222" y1="71.7242" x2="106.8908" y2="71.5434" stroke="#200019" stroke-width="1.0" />
  <line x1="73.9085" y1="69.2242" x2="106.8771" y2="69.0435" stroke="#200019" stroke-width="1.0" />
  <line x1="72.6424" y1="50.5712" x2="82.7730" y2="33.3715" stroke="#17000d" stroke-width="1.0" />
  <rect
     style="fill:#ffffff;fill-opacity:1;fill-rule:nonzero;stroke:none"
     width="2"
     height="2"
     x="77.2077"
     y="40.9713"
     transform="rotate(-59.5019 77.7077 41.9713)" /> 
  <path
     style="fill:none;stroke:#17000d;stroke-width:1px;stroke-linecap:butt;stroke-linejoin:miter;stroke-opacity:1"
     d="m 77.7077,39.9713 2,2 -2,2 m -2.370121,-4 2,2 -2,2"
     transform="rotate(-59.5019 77.7077 41.9713)"/>
  <line x1="72.6424" y1="50.5712" x2="106.8840" y2="70.2934" stroke="#b41f06" stroke-width="1.0" />
  <rect
     style="fill:#ffffff;stroke:none"
     width="5.5"
     height="2"
     x="87.0132"
     y="59.4323" 
     transform="rotate(29.9409 89.7632 60.4323)"    /> 
  <path
     style="fill:none;stroke:#b41f06;stroke-width:1px;stroke-linecap:butt;stroke-linejoin:miter;stroke-opacity:1"
    d="m 90.5132,58.4323 2,2 -2,2 m -1.5,-4 -2,2 2,2" transform="rotate(29.9409 89.7632 60.4323)"/>
  <line x1="102.7279" y1="34.2675" x2="113.1784" y2="51.2946" stroke="#c02e00" stroke-width="1.0" />
  <rect
     style="fill:#ffffff;fill-opacity:1;fill-rule:nonzero;stroke:none"
     width="2"
     height="2"
     x="107.4532"
     y="41.7811"
     transform="rotate(238.4602 107.9532 42.7811)" /> 
  <path
     style="fill:none;stroke:#c02e00;stroke-width:1px;stroke-linecap:butt;stroke-linejoin:miter;stroke-opacity:1"
     d="m 107.9532,40.7811 2,2 -2,2 m -2.370121,-4 2,2 -2,2"
     transform="rotate(238.4602 107.9532 42.7811)"/>
  <line x1="106.8840" y1="70.2934" x2="106.9828" y2="90.4230" stroke="#000000" stroke-width="1.0" />
  <rect
     style="fill:#ffffff;fill-opacity:1;fill-rule:nonzero;stroke:none"
     width="2"
     height="2"
     x="106.4334"
     y="79.3582"
     transform="rotate(89.7187 106.9334 80.3582)" /> 
  <path
     style="fill:none;stroke:#000000;stroke-width:1px;stroke-linecap:butt;stroke-linejoin:miter;stroke-opacity:1"
     d="m 106.9334,78.3582 2,2 -2,2 m -2.370121,-4 2,2 -2,2"
     transform="rotate(89.7187 106.9334 80.3582)"/>
  <line x1="106.8886" y1="110.5349" x2="106.6053" y2="130.5952" stroke="#000000" stroke-width="1.0" />
  <rect
     style="fill:#ffffff;fill-opacity:1;fill-rule:nonzero;stroke:none"
     width="2"
     height="2"
     x="106.2469"
     y="119.5650"
     transform="rotate(90.8091 106.7469 120.5650)" /> 
  <path
     style="fill:none;stroke:#000000;stroke-width:1px;stroke-linecap:butt;stroke-linejoin:miter;stroke-opacity:1"
     d="m 106.7469,118.5650 2,2 -2,2 m -2.370121,-4 2,2 -2,2"
     transform="rotate(90.8091 106.7469 120.5650)"/>
  <line x1="106.6053" y1="130.5952" x2="106.3378" y2="150.6243" stroke="#b92500" stroke-width="1.0" />
  <rect
     style="fill:#ffffff;fill-opacity:1;fill-rule:nonzero;stroke:none"
     width="2"
     height="2"
     x="105.9715"
     y="139.6097"
     transform="rotate(90.7650 106.4715 140.6097)" /> 
  <path
     style="fill:none;stroke:#b92500;stroke-width:1px;stroke-linecap:butt;stroke-linejoin:miter;stroke-opacity:1"
     d="m 106.4715,138.6097 2,2 -2,2 m -2.370121,-4 2,2 -2,2"
     transform="rotate(90.7650 106.4715 140.6097)"/>
<circle cx="73.3703" cy="150.3588" r="5.0" stroke="#595959" stroke-width="1.0" fill="#ffffff"/>
<text x="73.3703" y="153.0588" text-anchor="middle" font-family="Helvetica" font-size="7.5" fill="#000000" >G</text>
<circle cx="73.6764" cy="130.3709" r="5.0" stroke="#595959" stroke-width="1.0" fill="#ffffff"/>
<text x="73.6764" y="133.0709" text-anchor="middle" font-family="Helvetica" font-size="7.5" fill="#000000" >G</text>
<circle cx="73.9107" cy="110.3931" r="5.0" stroke="#595959" stroke-width="1.0" fill="#ffffff"/>
<text x="73.9107" y="113.0931" text-anchor="middle" font-family="Helvetica" font-size="7.5" fill="#000000" >C</text>
<circle cx="74.1070" cy="90.4274" r="5.0" stroke="#595959" stroke-width="1.0" fill="#ffffff"/>
<text x="74.1070" y="93.1274" text-anchor="middle" font-family="Helvetica" font-size="7.5" fill="#000000" >G</text>
<circle cx="73.9153" cy="70.4742" r="5.0" stroke="#595959" stroke-width="1.0" fill="#ffffff"/>
<text x="73.9153" y="73.1742" text-anchor="middle" font-family="Helvetica" font-size="7.5" fill="#000000" >C</text>
<circle cx="72.6424" cy="50.5712" r="5.0" stroke="#595959" stroke-width="1.0" fill="#ffffff"/>
<text x="72.6424" y="53.2712" text-anchor="middle" font-family="Helvetica" font-size="7.5" fill="#000000" >A</text>
<circle cx="82.7730" cy="33.3715" r="5.0" stroke="#595959" stroke-width="1.0" fill="#ffffff"/>
<text x="82.7730" y="36.0715" text-anchor="middle" font-family="Helvetica" font-size="7.5" fill="#000000" >U</text>
<circle cx="102.7279" cy="34.2675" r="5.0" stroke="#595959" stroke-width="1.0" fill="#ffffff"/>
<text x="102.7279" y="36.9675" text-anchor="middle" font-family="Helvetica" font-size="7.5" fill="#000000" >C</text>
<circle cx="113.1784" cy="51.2946" r="5.0" stroke="#595959" stroke-width="1.0" fill="#ffffff"/>
<text x="113.1784" y="53.9946" text-anchor="middle" font-family="Helvetica" font-size="7.5" fill="#000000" >G</text>
<circle cx="106.8840" cy="70.2934" r="5.0" stroke="#595959" stroke-width="1.0" fill="#ffffff"/>
<text x="106.8840" y="72.9934" text-anchor="middle" font-family="Helvetica" font-size="7.5" fill="#000000" >G</text>
<circle cx="106.9828" cy="90.4230" r="5.0" stroke="#595959" stroke-width="1.0" fill="#ffffff"/>
<text x="106.9828" y="93.1230" text-anchor="middle" font-family="Helvetica" font-size="7.5" fill="#000000" >C</text>
<circle cx="106.8886" cy="110.5349" r="5.0" stroke="#595959" stroke-width="1.0" fill="#ffffff"/>
<text x="106.8886" y="113.2349" text-anchor="middle" font-family="Helvetica" font-size="7.5" fill="#000000" >G</text>
<circle cx="106.6053" cy="130.5952" r="5.0" stroke="#595959" stroke-width="1.0" fill="#ffffff"/>
<text x="106.6053" y="133.2952" text-anchor="middle" font-family="Helvetica" font-size="7.5" fill="#000000" >C</text>
<circle cx="106.3378" cy="150.6243" r="5.0" stroke="#595959" stroke-width="1.0" fill="#ffffff"/>
<text x="106.3378" y="153.3243" text-anchor="middle" font-family="Helvetica" font-size="7.5" fill="#000000" >C</text>
</svg>