<?xml version="1.0" encoding="UTF-8"?>
<!DOCTYPE svg PUBLIC "-//W3C//DTD SVG 1.1//EN" 
"http://www.w3.org/Graphics/SVG/1.1/DTD/svg11.dtd">

<svg version="1.1"
   width="210px"
   height="210px"
xmlns="http://www.w3.org/2000/svg">
    <rect width="100%" height="100%" fill="white"/>

  <line x1="98.5880" y1="46.5029" x2="117.1183" y2="39.3496" stroke="#595959"
     style="stroke-width:2;stroke-miterlimit:4;stroke-dasharray:1,1;stroke-dashoffset:0" />
  <line x1="117.1183" y1="39.3496" x2="117.2858" y2="59.5341" stroke="#595959"
     style="stroke-width:2;stroke-miterlimit:4;stroke-dasharray:1,1;stroke-dashoffset:0" />
  <line x1="117.2858" y1="59.5341" x2="134.4733" y2="69.5732" stroke="#595959"
     style="stroke-width:2;stroke-miterlimit:4;stroke-dasharray:1,1;stroke-dashoffset:0" />
  <line x1="134.4733" y1="69.5732" x2="118.0013" y2="80.8509" stroke="#595959"
     style="stroke-width:2;stroke-miterlimit:4;stroke-dasharray:1,1;stroke-dashoffset:0" />
  <line x1="116.4536" y1="163.5551" x2="114.1317" y2="183.6689" stroke="#595959"
     style="stroke-width:2;stroke-miterlimit:4;stroke-dasharray:1,1;stroke-dashoffset:0" />
  <line x1="84.0159" y1="62.3316" x2="117.1783" y2="82.2230" stroke="#eda600" stroke-width="1.0" />
  <circle cx="100.5971" cy="72.2773" r="2.25" stroke="#eda600" stroke-width="1.0" fill="#eda600"/>
  <line x1="83.9703" y1="161.9683" x2="84.9108" y2="141.9047" stroke="#de6e00" stroke-width="1.0" />
  <rect
     style="fill:#ffffff;fill-opacity:1;fill-rule:nonzero;stroke:none"
     width="2"
     height="2"
     x="83.9406"
     y="150.9365"
     transform="rotate(-87.3160 84.4406 151.9365)" /> 
  <path
     style="fill:none;stroke:#de6e00;stroke-width:1px;stroke-linecap:butt;stroke-linejoin:miter;stroke-opacity:1"
     d="m 84.4406,149.9365 2,2 -2,2 m -2.370121,-4 2,2 -2,2"
     transform="rotate(-87.3160 84.4406 151.9365)"/>
  <line x1="83.9093" y1="163.2168" x2="116.3926" y2="164.8036" stroke="#17000d" stroke-width="1.0" />
  <line x1="84.0313" y1="160.7197" x2="116.5146" y2="162.3066" stroke="#17000d" stroke-width="1.0" />
  <line x1="84.9047" y1="160.6695" x2="115.0661" y2="182.3701" stroke="#d24f00" stroke-width="1.0" />
  <rect
     style="fill:#ffffff;fill-opacity:1;fill-rule:nonzero;stroke:none"
     width="2"
     height="2"
     x="99.4854"
     y="170.5198"
     transform="rotate(215.7344 99.9854 171.5198)" /> 
  <path
     style="fill:none;stroke:#d24f00;stroke-width:1px;stroke-linecap:butt;stroke-linejoin:miter;stroke-opacity:1"
     d="m 99.9854,169.5198 2,2 -2,2 m -2.370121,-4 2,2 -2,2"
     transform="rotate(215.7344 99.9854 171.5198)"/>
  <line x1="83.0359" y1="163.2670" x2="113.1972" y2="184.9677" stroke="#f2b800" stroke-width="1.0" />
  <path d="M 96.1166 176.3674 L 96.1166 171.8674 L 100.1166 174.1174 z" style="stroke:#f2b800;stroke-width:1.0" fill="#ffffff"
    transform="rotate(35.7344 98.1166 174.1174)"/>
  <line x1="84.9108" y1="141.9047" x2="85.4826" y2="121.8226" stroke="#17000d" stroke-width="1.0" />
  <rect
     style="fill:#ffffff;fill-opacity:1;fill-rule:nonzero;stroke:none"
     width="2"
     height="2"
     x="84.6967"
     y="130.8637"
     transform="rotate(-88.3691 85.1967 131.8637)" /> 
  <path
     style="fill:none;stroke:#17000d;stroke-width:1px;stroke-linecap:butt;stroke-linejoin:miter;stroke-opacity:1"
     d="m 85.1967,129.8637 2,2 -2,2 m -2.370121,-4 2,2 -2,2"
     transform="rotate(-88.3691 85.1967 131.8637)"/>
  <line x1="84.9108" y1="141.9047" x2="117.4119" y2="143.1145" stroke="#270026" stroke-width="1.0" />
  <line x1="84.9108" y1="141.9047" x2="116.4536" y2="163.5551" stroke="#bb2700" stroke-width="1.0" />
  <rect
     style="fill:#ffffff;stroke:none"
     width="5.5"
     height="2"
     x="97.9322"
     y="151.7299" 
     transform="rotate(34.4650 100.6822 152.7299)"    /> 
  <path
     style="fill:none;stroke:#bb2700;stroke-width:1px;stroke-linecap:butt;stroke-linejoin:miter;stroke-opacity:1"
    d="m 101.4322,150.7299 2,2 -2,2 m -1.5,-4 -2,2 2,2" transform="rotate(34.4650 100.6822 152.7299)"/>
  <line x1="85.4826" y1="121.8226" x2="85.6730" y2="101.6483" stroke="#bc2900" stroke-width="1.0" />
  <rect
     style="fill:#ffffff;fill-opacity:1;fill-rule:nonzero;stroke:none"
     width="2"
     height="2"
     x="85.0778"
     y="110.7355"
     transform="rotate(-89.4592 85.5778 111.7355)" /> 
  <path
     style="fill:none;stroke:#bc2900;stroke-width:1px;stroke-linecap:butt;stroke-linejoin:miter;stroke-opacity:1"
     d="m 85.5778,109.7355 2,2 -2,2 m -2.370121,-4 2,2 -2,2"
     transform="rotate(-89.4592 85.5778 111.7355)"/>
  <line x1="85.4826" y1="121.8226" x2="117.9945" y2="122.4227" stroke="#200019" stroke-width="1.0" />
  <line x1="85.6730" y1="101.6483" x2="85.4758" y2="81.4700" stroke="#bd2b00" stroke-width="1.0" />
  <rect
     style="fill:#ffffff;fill-opacity:1;fill-rule:nonzero;stroke:none"
     width="2"
     height="2"
     x="85.0744"
     y="90.5591"
     transform="rotate(269.4399 85.5744 91.5591)" /> 
  <path
     style="fill:none;stroke:#bd2b00;stroke-width:1px;stroke-linecap:butt;stroke-linejoin:miter;stroke-opacity:1"
     d="m 85.5744,89.5591 2,2 -2,2 m -2.370121,-4 2,2 -2,2"
     transform="rotate(269.4399 85.5744 91.5591)"/>
  <line x1="85.6728" y1="102.8983" x2="118.1898" y2="102.9047" stroke="#17000d" stroke-width="1.0" />
  <line x1="85.6733" y1="100.3983" x2="118.1903" y2="100.4047" stroke="#17000d" stroke-width="1.0" />
  <line x1="85.6730" y1="101.6483" x2="117.9945" y2="122.4227" stroke="#c13000" stroke-width="1.0" />
  <rect
     style="fill:#ffffff;stroke:none"
     width="5.5"
     height="2"
     x="99.0838"
     y="111.0355" 
     transform="rotate(32.7307 101.8338 112.0355)"    /> 
  <path
     style="fill:none;stroke:#c13000;stroke-width:1px;stroke-linecap:butt;stroke-linejoin:miter;stroke-opacity:1"
    d="m 102.5838,110.0355 2,2 -2,2 m -1.5,-4 -2,2 2,2" transform="rotate(32.7307 101.8338 112.0355)"/>
  <line x1="85.4758" y1="81.4700" x2="84.8389" y2="60.9595" stroke="#980bca" stroke-width="1.0" />
  <rect
     style="fill:#ffffff;fill-opacity:1;fill-rule:nonzero;stroke:none"
     width="2"
     height="2"
     x="84.6574"
     y="70.2148"
     transform="rotate(268.2216 85.1574 71.2148)" /> 
  <path
     style="fill:none;stroke:#980bca;stroke-width:1px;stroke-linecap:butt;stroke-linejoin:miter;stroke-opacity:1"
     d="m 85.1574,69.2148 2,2 -2,2 m -2.370121,-4 2,2 -2,2"
     transform="rotate(268.2216 85.1574 71.2148)"/>
  <line x1="85.4758" y1="81.4700" x2="118.0013" y2="80.8509" stroke="#200019" stroke-width="1.0" />
  <line x1="85.4758" y1="81.4700" x2="118.1901" y2="101.6547" stroke="#e38000" stroke-width="1.0" />
  <rect
     style="fill:#ffffff;stroke:none"
     width="5.5"
     height="2"
     x="99.0829"
     y="90.5623" 
     transform="rotate(31.6745 101.8329 91.5623)"    /> 
  <path
     style="fill:none;stroke:#e38000;stroke-width:1px;stroke-linecap:butt;stroke-linejoin:miter;stroke-opacity:1"
    d="m 102.5829,89.5623 2,2 -2,2 m -1.5,-4 -2,2 2,2" transform="rotate(31.6745 101.8329 91.5623)"/>
  <line x1="84.8389" y1="60.9595" x2="98.5880" y2="46.5029" stroke="#4b0084" stroke-width="1.0" />
  <rect
     style="fill:#ffffff;fill-opacity:1;fill-rule:nonzero;stroke:none"
     width="2"
     height="2"
     x="91.2135"
     y="52.7312"
     transform="rotate(-46.4370 91.7135 53.7312)" /> 
  <path
     style="fill:none;stroke:#4b0084;stroke-width:1px;stroke-linecap:butt;stroke-linejoin:miter;stroke-opacity:1"
     d="m 91.7135,51.7312 2,2 -2,2 m -2.370121,-4 2,2 -2,2"
     transform="rotate(-46.4370 91.7135 53.7312)"/>
  <line x1="84.8938" y1="62.2083" x2="117.3406" y2="60.7829" stroke="#480079" stroke-width="1.0" />
  <line x1="84.7841" y1="59.7107" x2="117.2309" y2="58.2853" stroke="#480079" stroke-width="1.0" />
  <line x1="85.6620" y1="59.5874" x2="118.8243" y2="79.4788" stroke="#eda600" stroke-width="1.0" />
  <rect
     style="fill:#ffffff;stroke:none"
     width="5.5"
     height="2"
     x="99.4931"
     y="68.5331" 
     transform="rotate(30.9561 102.2431 69.5331)"    /> 
  <path
     style="fill:none;stroke:#eda600;stroke-width:1px;stroke-linecap:butt;stroke-linejoin:miter;stroke-opacity:1"
    d="m 102.9931,67.5331 2,2 -2,2 m -1.5,-4 -2,2 2,2" transform="rotate(30.9561 102.2431 69.5331)"/>
  <line x1="98.5880" y1="46.5029" x2="117.2858" y2="59.5341" stroke="#eeaa00" stroke-width="1.0" />
  <rect
     style="fill:#ffffff;stroke:none"
     width="5.5"
     height="2"
     x="105.1869"
     y="52.0185" 
     transform="rotate(34.8742 107.9369 53.0185)"    /> 
  <path
     style="fill:none;stroke:#eeaa00;stroke-width:1px;stroke-linecap:butt;stroke-linejoin:miter;stroke-opacity:1"
    d="m 108.6869,51.0185 2,2 -2,2 m -1.5,-4 -2,2 2,2" transform="rotate(34.8742 107.9369 53.0185)"/>
  <line x1="117.2858" y1="59.5341" x2="118.0013" y2="80.8509" stroke="#940ad9" stroke-width="1.0" />
  <rect
     style="fill:#ffffff;fill-opacity:1;fill-rule:nonzero;stroke:none"
     width="2"
     height="2"
     x="117.1436"
     y="69.1925"
     transform="rotate(88.0775 117.6436 70.1925)" /> 
  <path
     style="fill:none;stroke:#940ad9;stroke-width:1px;stroke-linecap:butt;stroke-linejoin:miter;stroke-opacity:1"
     d="m 117.6436,68.1925 2,2 -2,2 m -2.370121,-4 2,2 -2,2"
     transform="rotate(88.0775 117.6436 70.1925)"/>
  <line x1="118.0013" y1="80.8509" x2="118.1901" y2="101.6547" stroke="#b52100" stroke-width="1.0" />
  <rect
     style="fill:#ffffff;fill-opacity:1;fill-rule:nonzero;stroke:none"
     width="2"
     height="2"
     x="117.5957"
     y="90.2528"
     transform="rotate(89.4802 118.0957 91.2528)" /> 
  <path
     style="fill:none;stroke:#b52100;stroke-width:1px;stroke-linecap:butt;stroke-linejoin:miter;stroke-opacity:1"
     d="m 118.0957,89.2528 2,2 -2,2 m -2.370121,-4 2,2 -2,2"
     transform="rotate(89.4802 118.0957 91.2528)"/>
  <line x1="118.1901" y1="101.6547" x2="117.9945" y2="122.4227" stroke="#d85e00" stroke-width="1.0" />
  <rect
     style="fill:#ffffff;fill-opacity:1;fill-rule:nonzero;stroke:none"
     width="2"
     height="2"
     x="117.5923"
     y="111.0387"
     transform="rotate(90.5396 118.0923 112.0387)" /> 
  <path
     style="fill:none;stroke:#d85e00;stroke-width:1px;stroke-linecap:butt;stroke-linejoin:miter;stroke-opacity:1"
     d="m 118.0923,110.0387 2,2 -2,2 m -2.370121,-4 2,2 -2,2"
     transform="rotate(90.5396 118.0923 112.0387)"/>
  <line x1="117.9945" y1="122.4227" x2="117.4119" y2="143.1145" stroke="#17000d" stroke-width="1.0" />
  <rect
     style="fill:#ffffff;fill-opacity:1;fill-rule:nonzero;stroke:none"
     width="2"
     height="2"
     x="117.2032"
     y="131.7686"
     transform="rotate(91.6127 117.7032 132.7686)" /> 
  <path
     style="fill:none;stroke:#17000d;stroke-width:1px;stroke-linecap:butt;stroke-linejoin:miter;stroke-opacity:1"
     d="m 117.7032,130.7686 2,2 -2,2 m -2.370121,-4 2,2 -2,2"
     transform="rotate(91.6127 117.7032 132.7686)"/>
  <line x1="117.4119" y1="143.1145" x2="116.4536" y2="163.5551" stroke="#c33200" stroke-width="1.0" />
  <rect
     style="fill:#ffffff;fill-opacity:1;fill-rule:nonzero;stroke:none"
     width="2"
     height="2"
     x="116.4328"
     y="152.3348"
     transform="rotate(92.6841 116.9328 153.3348)" /> 
  <path
     style="fill:none;stroke:#c33200;stroke-width:1px;stroke-linecap:butt;stroke-linejoin:miter;stroke-opacity:1"
     d="m 116.9328,151.3348 2,2 -2,2 m -2.370121,-4 2,2 -2,2"
     transform="rotate(92.6841 116.9328 153.3348)"/>
<circle cx="83.9703" cy="161.9683" r="5.0" stroke="#595959" stroke-width="1.0" fill="#ffffff"/>
<text x="83.9703" y="164.6683" text-anchor="middle" font-family="Helvetica" font-size="7.5" fill="#000000" >G</text>
<circle cx="84.9108" cy="141.9047" r="5.0" stroke="#595959" stroke-width="1.0" fill="#ffffff"/>
<text x="84.9108" y="144.6047" text-anchor="middle" font-family="Helvetica" font-size="7.5" fill="#000000" >A</text>
<circle cx="85.4826" cy="121.8226" r="5.0" stroke="#595959" stroke-width="1.0" fill="#ffffff"/>
<text x="85.4826" y="124.5226" text-anchor="middle" font-family="Helvetica" font-size="7.5" fill="#000000" >U</text>
<circle cx="85.6730" cy="101.6483" r="5.0" stroke="#595959" stroke-width="1.0" fill="#ffffff"/>
<text x="85.6730" y="104.3483" text-anchor="middle" font-family="Helvetica" font-size="7.5" fill="#000000" >C</text>
<circle cx="85.4758" cy="81.4700" r="5.0" stroke="#595959" stroke-width="1.0" fill="#ffffff"/>
<text x="85.4758" y="84.1700" text-anchor="middle" font-family="Helvetica" font-size="7.5" fill="#000000" >U</text>
<circle cx="84.8389" cy="60.9595" r="5.0" stroke="#595959" stroke-width="1.0" fill="#ffffff"/>
<text x="84.8389" y="63.6595" text-anchor="middle" font-family="Helvetica" font-size="7.5" fill="#000000" >C</text>
<circle cx="98.5880" cy="46.5029" r="5.0" stroke="#595959" stroke-width="1.0" fill="#ffffff"/>
<text x="98.5880" y="49.2029" text-anchor="middle" font-family="Helvetica" font-size="7.5" fill="#000000" >U</text>
<circle cx="117.1183" cy="39.3496" r="5.0" stroke="#595959" stroke-width="1.0" fill="#ffffff"/>
<text x="117.1183" y="42.0496" text-anchor="middle" font-family="Helvetica" font-size="7.5" fill="#000000" >U</text>
<circle cx="117.2858" cy="59.5341" r="5.0" stroke="#595959" stroke-width="1.0" fill="#ffffff"/>
<text x="117.2858" y="62.2341" text-anchor="middle" font-family="Helvetica" font-size="7.5" fill="#000000" >G</text>
<circle cx="134.4733" cy="69.5732" r="5.0" stroke="#595959" stroke-width="1.0" fill="#ffffff"/>
<text x="134.4733" y="72.2732" text-anchor="middle" font-family="Helvetica" font-size="7.5" fill="#000000" >U</text>
<circle cx="118.0013" cy="80.8509" r="5.0" stroke="#595959" stroke-width="1.0" fill="#ffffff"/>
<text x="118.0013" y="83.5509" text-anchor="middle" font-family="Helvetica" font-size="7.5" fill="#000000" >A</text>
<circle cx="118.1901" cy="101.6547" r="5.0" stroke="#595959" stroke-width="1.0" fill="#ffffff"/>
<text x="118.1901" y="104.3547" text-anchor="middle" font-family="Helvetica" font-size="7.5" fill="#000000" >G</text>
<circle cx="117.9945" cy="122.4227" r="5.0" stroke="#595959" stroke-width="1.0" fill="#ffffff"/>
<text x="117.9945" y="125.1227" text-anchor="middle" font-family="Helvetica" font-size="7.5" fill="#000000" >A</text>
<circle cx="117.4119" cy="143.1145" r="5.0" stroke="#595959" stroke-width="1.0" fill="#ffffff"/>
<text x="117.4119" y="145.8145" text-anchor="middle" font-family="Helvetica" font-size="7.5" fill="#000000" >U</text>
<circle cx="116.4536" cy="163.5551" r="5.0" stroke="#595959" stroke-width="1.0" fill="#ffffff"/>
<text x="116.4536" y="166.2551" text-anchor="middle" font-family="Helvetica" font-size="7.5" fill="#000000" >C</text>
<circle cx="114.1317" cy="183.6689" r="5.0" stroke="#595959" stroke-width="1.0" fill="#ffffff"/>
<text x="114.1317" y="186.3689" text-anchor="middle" font-family="Helvetica" font-size="7.5" fill="#000000" >A</text>
</svg>