<?xml version="1.0" encoding="UTF-8"?>
<!DOCTYPE svg PUBLIC "-//W3C//DTD SVG 1.1//EN" 
"http://www.w3.org/Graphics/SVG/1.1/DTD/svg11.dtd">

<svg version="1.1"
   width="182px"
   height="182px"
xmlns="http://www.w3.org/2000/svg">
    <rect width="100%" height="100%" fill="white"/>

  <line x1="73.7801" y1="110.3967" x2="73.8728" y2="90.4356" stroke="#595959"
     style="stroke-width:2;stroke-miterlimit:4;stroke-dasharray:1,1;stroke-dashoffset:0" />
  <line x1="73.8177" y1="70.4865" x2="73.8354" y2="50.5484" stroke="#595959"
     style="stroke-width:2;stroke-miterlimit:4;stroke-dasharray:1,1;stroke-dashoffset:0" />
  <line x1="83.4100" y1="33.0332" x2="103.3491" y2="34.1964" stroke="#595959"
     style="stroke-width:2;stroke-miterlimit:4;stroke-dasharray:1,1;stroke-dashoffset:0" />
  <line x1="103.3491" y1="34.1964" x2="113.4005" y2="51.4620" stroke="#595959"
     style="stroke-width:2;stroke-miterlimit:4;stroke-dasharray:1,1;stroke-dashoffset:0" />
  <line x1="113.4005" y1="51.4620" x2="106.5431" y2="70.2730" stroke="#595959"
     style="stroke-width:2;stroke-miterlimit:4;stroke-dasharray:1,1;stroke-dashoffset:0" />
  <line x1="106.6440" y1="90.4435" x2="106.5806" y2="110.5905" stroke="#595959"
     style="stroke-width:2;stroke-miterlimit:4;stroke-dasharray:1,1;stroke-dashoffset:0" />
  <line x1="73.1098" y1="150.3524" x2="73.4701" y2="130.3685" stroke="#d24f00" stroke-width="1.0" />
  <rect
     style="fill:#ffffff;fill-opacity:1;fill-rule:nonzero;stroke:none"
     width="2"
     height="2"
     x="72.7900"
     y="139.3604"
     transform="rotate(-88.9672 73.2900 140.3604)" /> 
  <path
     style="fill:none;stroke:#d24f00;stroke-width:1px;stroke-linecap:butt;stroke-linejoin:miter;stroke-opacity:1"
     d="m 73.2900,138.3604 2,2 -2,2 m -2.370121,-4 2,2 -2,2"
     transform="rotate(-88.9672 73.2900 140.3604)"/>
  <line x1="73.0956" y1="151.6023" x2="105.8914" y2="151.9772" stroke="#2d0032" stroke-width="1.0" />
  <line x1="73.1241" y1="149.1025" x2="105.9200" y2="149.4773" stroke="#2d0032" stroke-width="1.0" />
  <line x1="73.4701" y1="130.3685" x2="73.7801" y2="110.3967" stroke="#000000" stroke-width="1.0" />
  <rect
     style="fill:#ffffff;fill-opacity:1;fill-rule:nonzero;stroke:none"
     width="2"
     height="2"
     x="73.1251"
     y="119.3826"
     transform="rotate(-89.1108 73.6251 120.3826)" /> 
  <path
     style="fill:none;stroke:#000000;stroke-width:1px;stroke-linecap:butt;stroke-linejoin:miter;stroke-opacity:1"
     d="m 73.6251,118.3826 2,2 -2,2 m -2.370121,-4 2,2 -2,2"
     transform="rotate(-89.1108 73.6251 120.3826)"/>
  <line x1="73.4580" y1="131.6184" x2="106.2689" y2="131.9360" stroke="#270026" stroke-width="1.0" />
  <line x1="73.4822" y1="129.1185" x2="106.2931" y2="129.4361" stroke="#270026" stroke-width="1.0" />
  <line x1="73.4701" y1="130.3685" x2="105.9057" y2="150.7273" stroke="#eb9d00" stroke-width="1.0" />
  <rect
     style="fill:#ffffff;stroke:none"
     width="5.5"
     height="2"
     x="86.9379"
     y="139.5479" 
     transform="rotate(32.1152 89.6879 140.5479)"    /> 
  <path
     style="fill:none;stroke:#eb9d00;stroke-width:1px;stroke-linecap:butt;stroke-linejoin:miter;stroke-opacity:1"
    d="m 90.4379,138.5479 2,2 -2,2 m -1.5,-4 -2,2 2,2" transform="rotate(32.1152 89.6879 140.5479)"/>
  <line x1="73.7727" y1="111.6467" x2="106.5733" y2="111.8405" stroke="#270026" stroke-width="1.0" />
  <line x1="73.7875" y1="109.1467" x2="106.5880" y2="109.3405" stroke="#270026" stroke-width="1.0" />
  <line x1="73.8728" y1="90.4356" x2="73.8177" y2="70.4865" stroke="#000000" stroke-width="1.0" />
  <rect
     style="fill:#ffffff;fill-opacity:1;fill-rule:nonzero;stroke:none"
     width="2"
     height="2"
     x="73.3452"
     y="79.4610"
     transform="rotate(269.8415 73.8452 80.4610)" /> 
  <path
     style="fill:none;stroke:#000000;stroke-width:1px;stroke-linecap:butt;stroke-linejoin:miter;stroke-opacity:1"
     d="m 73.8452,78.4610 2,2 -2,2 m -2.370121,-4 2,2 -2,2"
     transform="rotate(269.8415 73.8452 80.4610)"/>
  <line x1="73.8725" y1="91.6856" x2="106.6437" y2="91.6935" stroke="#270026" stroke-width="1.0" />
  <line x1="73.8731" y1="89.1856" x2="106.6443" y2="89.1935" stroke="#270026" stroke-width="1.0" />
  <line x1="73.8728" y1="90.4356" x2="106.5806" y2="110.5905" stroke="#2d0032" stroke-width="1.0" />
  <rect
     style="fill:#ffffff;stroke:none"
     width="5.5"
     height="2"
     x="87.4767"
     y="99.5130" 
     transform="rotate(31.6419 90.2267 100.5130)"    /> 
  <path
     style="fill:none;stroke:#2d0032;stroke-width:1px;stroke-linecap:butt;stroke-linejoin:miter;stroke-opacity:1"
    d="m 90.9767,98.5130 2,2 -2,2 m -1.5,-4 -2,2 2,2" transform="rotate(31.6419 90.2267 100.5130)"/>
  <line x1="73.8258" y1="71.7365" x2="106.5512" y2="71.5230" stroke="#200019" stroke-width="1.0" />
  <line x1="73.8095" y1="69.2366" x2="106.5349" y2="69.0230" stroke="#200019" stroke-width="1.0" />
  <line x1="73.8354" y1="50.5484" x2="83.4100" y2="33.0332" stroke="#000000" stroke-width="1.0" />
  <rect
     style="fill:#ffffff;fill-opacity:1;fill-rule:nonzero;stroke:none"
     width="2"
     height="2"
     x="78.1227"
     y="40.7908"
     transform="rotate(-61.3369 78.6227 41.7908)" /> 
  <path
     style="fill:none;stroke:#000000;stroke-width:1px;stroke-linecap:butt;stroke-linejoin:miter;stroke-opacity:1"
     d="m 78.6227,39.7908 2,2 -2,2 m -2.370121,-4 2,2 -2,2"
     transform="rotate(-61.3369 78.6227 41.7908)"/>
  <line x1="73.8354" y1="50.5484" x2="106.5431" y2="70.2730" stroke="#8605fc" stroke-width="1.0" />
  <rect
     style="fill:#ffffff;stroke:none"
     width="5.5"
     height="2"
     x="87.4392"
     y="59.4107" 
     transform="rotate(31.0923 90.1892 60.4107)"    /> 
  <path
     style="fill:none;stroke:#8605fc;stroke-width:1px;stroke-linecap:butt;stroke-linejoin:miter;stroke-opacity:1"
    d="m 90.9392,58.4107 2,2 -2,2 m -1.5,-4 -2,2 2,2" transform="rotate(31.0923 90.1892 60.4107)"/>
  <line x1="106.5431" y1="70.2730" x2="106.6440" y2="90.4435" stroke="#000000" stroke-width="1.0" />
  <rect
     style="fill:#ffffff;fill-opacity:1;fill-rule:nonzero;stroke:none"
     width="2"
     height="2"
     x="106.0936"
     y="79.3582"
     transform="rotate(89.7132 106.5936 80.3582)" /> 
  <path
     style="fill:none;stroke:#000000;stroke-width:1px;stroke-linecap:butt;stroke-linejoin:miter;stroke-opacity:1"
     d="m 106.5936,78.3582 2,2 -2,2 m -2.370121,-4 2,2 -2,2"
     transform="rotate(89.7132 106.5936 80.3582)"/>
  <line x1="106.5806" y1="110.5905" x2="106.2810" y2="130.6861" stroke="#000000" stroke-width="1.0" />
  <rect
     style="fill:#ffffff;fill-opacity:1;fill-rule:nonzero;stroke:none"
     width="2"
     height="2"
     x="105.9308"
     y="119.6383"
     transform="rotate(90.8542 106.4308 120.6383)" /> 
  <path
     style="fill:none;stroke:#000000;stroke-width:1px;stroke-linecap:butt;stroke-linejoin:miter;stroke-opacity:1"
     d="m 106.4308,118.6383 2,2 -2,2 m -2.370121,-4 2,2 -2,2"
     transform="rotate(90.8542 106.4308 120.6383)"/>
  <line x1="106.2810" y1="130.6861" x2="105.9057" y2="150.7273" stroke="#960bd2" stroke-width="1.0" />
  <rect
     style="fill:#ffffff;fill-opacity:1;fill-rule:nonzero;stroke:none"
     width="2"
     height="2"
     x="105.5933"
     y="139.7067"
     transform="rotate(91.0729 106.0933 140.7067)" /> 
  <path
     style="fill:none;stroke:#960bd2;stroke-width:1px;stroke-linecap:butt;stroke-linejoin:miter;stroke-opacity:1"
     d="m 106.0933,138.7067 2,2 -2,2 m -2.370121,-4 2,2 -2,2"
     transform="rotate(91.0729 106.0933 140.7067)"/>
<circle cx="73.1098" cy="150.3524" r="5.0" stroke="#595959" stroke-width="1.0" fill="#ffffff"/>
<text x="73.1098" y="153.0524" text-anchor="middle" font-family="Helvetica" font-size="7.5" fill="#000000" >G</text>
<circle cx="73.4701" cy="130.3685" r="5.0" stroke="#595959" stroke-width="1.0" fill="#ffffff"/>
<text x="73.4701" y="133.0685" text-anchor="middle" font-family="Helvetica" font-size="7.5" fill="#000000" >G</text>
<circle cx="73.7801" cy="110.3967" r="5.0" stroke="#595959" stroke-width="1.0" fill="#ffffff"/>
<text x="73.7801" y="113.0967" text-anchor="middle" font-family="Helvetica" font-size="7.5" fill="#000000" >C</text>
<circle cx="73.8728" cy="90.4356" r="5.0" stroke="#595959" stroke-width="1.0" fill="#ffffff"/>
<text x="73.8728" y="93.1356" text-anchor="middle" font-family="Helvetica" font-size="7.5" fill="#000000" >G</text>
<circle cx="73.8177" cy="70.4865" r="5.0" stroke="#595959" stroke-width="1.0" fill="#ffffff"/>
<text x="73.8177" y="73.1865" text-anchor="middle" font-family="Helvetica" font-size="7.5" fill="#000000" >C</text>
<circle cx="73.8354" cy="50.5484" r="5.0" stroke="#595959" stroke-width="1.0" fill="#ffffff"/>
<text x="73.8354" y="53.2484" text-anchor="middle" font-family="Helvetica" font-size="7.5" fill="#000000" >A</text>
<circle cx="83.4100" cy="33.0332" r="5.0" stroke="#595959" stroke-width="1.0" fill="#ffffff"/>
<text x="83.4100" y="35.7332" text-anchor="middle" font-family="Helvetica" font-size="7.5" fill="#000000" >U</text>
<circle cx="103.3491" cy="34.1964" r="5.0" stroke="#595959" stroke-width="1.0" fill="#ffffff"/>
<text x="103.3491" y="36.8964" text-anchor="middle" font-family="Helvetica" font-size="7.5" fill="#000000" >C</text>
<circle cx="113.4005" cy="51.4620" r="5.0" stroke="#595959" stroke-width="1.0" fill="#ffffff"/>
<text x="113.4005" y="54.1620" text-anchor="middle" font-family="Helvetica" font-size="7.5" fill="#000000" >G</text>
<circle cx="106.5431" cy="70.2730" r="5.0" stroke="#595959" stroke-width="1.0" fill="#ffffff"/>
<text x="106.5431" y="72.9730" text-anchor="middle" font-family="Helvetica" font-size="7.5" fill="#000000" >G</text>
<circle cx="106.6440" cy="90.4435" r="5.0" stroke="#595959" stroke-width="1.0" fill="#ffffff"/>
<text x="106.6440" y="93.1435" text-anchor="middle" font-family="Helvetica" font-size="7.5" fill="#000000" >C</text>
<circle cx="106.5806" cy="110.5905" r="5.0" stroke="#595959" stroke-width="1.0" fill="#ffffff"/>
<text x="106.5806" y="113.2905" text-anchor="middle" font-family="Helvetica" font-size="7.5" fill="#000000" >G</text>
<circle cx="106.2810" cy="130.6861" r="5.0" stroke="#595959" stroke-width="1.0" fill="#ffffff"/>
<text x="106.2810" y="133.3861" text-anchor="middle" font-family="Helvetica" font-size="7.5" fill="#000000" >C</text>
<circle cx="105.9057" cy="150.7273" r="5.0" stroke="#595959" stroke-width="1.0" fill="#ffffff"/>
<text x="105.9057" y="153.4273" text-anchor="middle" font-family="Helvetica" font-size="7.5" fill="#000000" >C</text>
</svg>