<?xml version="1.0" encoding="UTF-8"?>
<!DOCTYPE svg PUBLIC "-//W3C//DTD SVG 1.1//EN" 
"http://www.w3.org/Graphics/SVG/1.1/DTD/svg11.dtd">

<svg version="1.1"
   width="182px"
   height="182px"
xmlns="http://www.w3.org/2000/svg">
    <rect width="100%" height="100%" fill="white"/>

  <line x1="72.6891" y1="108.5987" x2="72.8802" y2="88.4064" stroke="#595959"
     style="stroke-width:2;stroke-miterlimit:4;stroke-dasharray:1,1;stroke-dashoffset:0" />
  <line x1="72.6888" y1="68.2249" x2="72.1042" y2="47.8358" stroke="#595959"
     style="stroke-width:2;stroke-miterlimit:4;stroke-dasharray:1,1;stroke-dashoffset:0" />
  <line x1="72.1042" y1="47.8358" x2="87.9346" y2="35.6533" stroke="#595959"
     style="stroke-width:2;stroke-miterlimit:4;stroke-dasharray:1,1;stroke-dashoffset:0" />
  <line x1="104.7817" y1="46.5543" x2="122.0698" y2="56.3271" stroke="#595959"
     style="stroke-width:2;stroke-miterlimit:4;stroke-dasharray:1,1;stroke-dashoffset:0" />
  <line x1="122.0698" y1="56.3271" x2="105.3982" y2="67.6156" stroke="#595959"
     style="stroke-width:2;stroke-miterlimit:4;stroke-dasharray:1,1;stroke-dashoffset:0" />
  <line x1="105.5781" y1="88.4056" x2="105.3979" y2="109.1416" stroke="#595959"
     style="stroke-width:2;stroke-miterlimit:4;stroke-dasharray:1,1;stroke-dashoffset:0" />
  <line x1="71.3889" y1="148.8593" x2="72.1566" y2="128.7527" stroke="#cd4500" stroke-width="1.0" />
  <rect
     style="fill:#ffffff;fill-opacity:1;fill-rule:nonzero;stroke:none"
     width="2"
     height="2"
     x="71.2727"
     y="137.8060"
     transform="rotate(-87.8135 71.7727 138.8060)" /> 
  <path
     style="fill:none;stroke:#cd4500;stroke-width:1px;stroke-linecap:butt;stroke-linejoin:miter;stroke-opacity:1"
     d="m 71.7727,136.8060 2,2 -2,2 m -2.370121,-4 2,2 -2,2"
     transform="rotate(-87.8135 71.7727 138.8060)"/>
  <line x1="71.3477" y1="150.1086" x2="104.0354" y2="151.1861" stroke="#2d0032" stroke-width="1.0" />
  <line x1="71.4301" y1="147.6100" x2="104.1178" y2="148.6875" stroke="#2d0032" stroke-width="1.0" />
  <line x1="72.1566" y1="128.7527" x2="72.6891" y2="108.5987" stroke="#000000" stroke-width="1.0" />
  <rect
     style="fill:#ffffff;fill-opacity:1;fill-rule:nonzero;stroke:none"
     width="2"
     height="2"
     x="71.9228"
     y="117.6757"
     transform="rotate(-88.4865 72.4228 118.6757)" /> 
  <path
     style="fill:none;stroke:#000000;stroke-width:1px;stroke-linecap:butt;stroke-linejoin:miter;stroke-opacity:1"
     d="m 72.4228,116.6757 2,2 -2,2 m -2.370121,-4 2,2 -2,2"
     transform="rotate(-88.4865 72.4228 118.6757)"/>
  <line x1="72.1209" y1="130.0022" x2="104.8196" y2="130.9374" stroke="#200019" stroke-width="1.0" />
  <line x1="72.1923" y1="127.5032" x2="104.8911" y2="128.4384" stroke="#200019" stroke-width="1.0" />
  <line x1="72.1566" y1="128.7527" x2="104.0766" y2="149.9368" stroke="#eda600" stroke-width="1.0" />
  <rect
     style="fill:#ffffff;stroke:none"
     width="5.5"
     height="2"
     x="85.3666"
     y="138.3448" 
     transform="rotate(33.5707 88.1166 139.3448)"    /> 
  <path
     style="fill:none;stroke:#eda600;stroke-width:1px;stroke-linecap:butt;stroke-linejoin:miter;stroke-opacity:1"
    d="m 88.8666,137.3448 2,2 -2,2 m -1.5,-4 -2,2 2,2" transform="rotate(33.5707 88.1166 139.3448)"/>
  <line x1="72.6683" y1="109.8485" x2="105.3772" y2="110.3914" stroke="#270026" stroke-width="1.0" />
  <line x1="72.7098" y1="107.3489" x2="105.4187" y2="107.8918" stroke="#270026" stroke-width="1.0" />
  <line x1="72.8802" y1="88.4064" x2="72.6888" y2="68.2249" stroke="#000000" stroke-width="1.0" />
  <rect
     style="fill:#ffffff;fill-opacity:1;fill-rule:nonzero;stroke:none"
     width="2"
     height="2"
     x="72.2845"
     y="77.3157"
     transform="rotate(269.4566 72.7845 78.3157)" /> 
  <path
     style="fill:none;stroke:#000000;stroke-width:1px;stroke-linecap:butt;stroke-linejoin:miter;stroke-opacity:1"
     d="m 72.7845,76.3157 2,2 -2,2 m -2.370121,-4 2,2 -2,2"
     transform="rotate(269.4566 72.7845 78.3157)"/>
  <line x1="72.8803" y1="89.6564" x2="105.5781" y2="89.6556" stroke="#200019" stroke-width="1.0" />
  <line x1="72.8802" y1="87.1564" x2="105.5780" y2="87.1556" stroke="#200019" stroke-width="1.0" />
  <line x1="72.8802" y1="88.4064" x2="105.3979" y2="109.1416" stroke="#000000" stroke-width="1.0" />
  <rect
     style="fill:#ffffff;stroke:none"
     width="5.5"
     height="2"
     x="86.3891"
     y="97.7740" 
     transform="rotate(32.5240 89.1391 98.7740)"    /> 
  <path
     style="fill:none;stroke:#000000;stroke-width:1px;stroke-linecap:butt;stroke-linejoin:miter;stroke-opacity:1"
    d="m 89.8891,96.7740 2,2 -2,2 m -1.5,-4 -2,2 2,2" transform="rotate(32.5240 89.1391 98.7740)"/>
  <line x1="72.7121" y1="69.4747" x2="105.4214" y2="68.8654" stroke="#000000" stroke-width="1.0" />
  <line x1="72.6655" y1="66.9752" x2="105.3749" y2="66.3658" stroke="#000000" stroke-width="1.0" />
  <line x1="72.1042" y1="47.8358" x2="104.7817" y2="46.5543" stroke="#d75b00" stroke-width="1.0" />
  <path d="M 82.6930 49.4451 L 82.6930 44.9451 L 87.1930 44.9451 L 87.1930 49.4451 z" style="stroke:#d75b00;stroke-width:1.0" fill="#ffffff" 
    transform="rotate(177.7542 88.4430 47.1951)"/>
  <path d="M 90.1930 49.4451 L 90.1930 44.9451 L 94.1930 47.1951 z" style="stroke:#d75b00;stroke-width:1.0" fill="#ffffff"
    transform="rotate(177.7542 88.4430 47.1951)"/>
  <line x1="72.1042" y1="47.8358" x2="105.3982" y2="67.6156" stroke="#db6700" stroke-width="1.0" />
  <rect
     style="fill:#ffffff;stroke:none"
     width="5.5"
     height="2"
     x="86.0012"
     y="56.7257" 
     transform="rotate(30.7144 88.7512 57.7257)"    /> 
  <path
     style="fill:none;stroke:#db6700;stroke-width:1px;stroke-linecap:butt;stroke-linejoin:miter;stroke-opacity:1"
    d="m 89.5012,55.7257 2,2 -2,2 m -1.5,-4 -2,2 2,2" transform="rotate(30.7144 88.7512 57.7257)"/>
  <line x1="87.9346" y1="35.6533" x2="104.7817" y2="46.5543" stroke="#6501d5" stroke-width="1.0" />
  <rect
     style="fill:#ffffff;fill-opacity:1;fill-rule:nonzero;stroke:none"
     width="2"
     height="2"
     x="95.8582"
     y="40.1038"
     transform="rotate(32.9052 96.3582 41.1038)" /> 
  <path
     style="fill:none;stroke:#6501d5;stroke-width:1px;stroke-linecap:butt;stroke-linejoin:miter;stroke-opacity:1"
     d="m 96.3582,39.1038 2,2 -2,2 m -2.370121,-4 2,2 -2,2"
     transform="rotate(32.9052 96.3582 41.1038)"/>
  <line x1="104.7817" y1="46.5543" x2="105.3982" y2="67.6156" stroke="#9b0dba" stroke-width="1.0" />
  <rect
     style="fill:#ffffff;fill-opacity:1;fill-rule:nonzero;stroke:none"
     width="2"
     height="2"
     x="104.5899"
     y="56.0850"
     transform="rotate(88.3235 105.0899 57.0850)" /> 
  <path
     style="fill:none;stroke:#9b0dba;stroke-width:1px;stroke-linecap:butt;stroke-linejoin:miter;stroke-opacity:1"
     d="m 105.0899,55.0850 2,2 -2,2 m -2.370121,-4 2,2 -2,2"
     transform="rotate(88.3235 105.0899 57.0850)"/>
  <line x1="105.3982" y1="67.6156" x2="105.5781" y2="88.4056" stroke="#000000" stroke-width="1.0" />
  <rect
     style="fill:#ffffff;fill-opacity:1;fill-rule:nonzero;stroke:none"
     width="2"
     height="2"
     x="104.9881"
     y="77.0106"
     transform="rotate(89.5042 105.4881 78.0106)" /> 
  <path
     style="fill:none;stroke:#000000;stroke-width:1px;stroke-linecap:butt;stroke-linejoin:miter;stroke-opacity:1"
     d="m 105.4881,76.0106 2,2 -2,2 m -2.370121,-4 2,2 -2,2"
     transform="rotate(89.5042 105.4881 78.0106)"/>
  <line x1="105.3979" y1="109.1416" x2="104.8553" y2="129.6879" stroke="#000000" stroke-width="1.0" />
  <rect
     style="fill:#ffffff;fill-opacity:1;fill-rule:nonzero;stroke:none"
     width="2"
     height="2"
     x="104.6266"
     y="118.4147"
     transform="rotate(91.5127 105.1266 119.4147)" /> 
  <path
     style="fill:none;stroke:#000000;stroke-width:1px;stroke-linecap:butt;stroke-linejoin:miter;stroke-opacity:1"
     d="m 105.1266,117.4147 2,2 -2,2 m -2.370121,-4 2,2 -2,2"
     transform="rotate(91.5127 105.1266 119.4147)"/>
  <line x1="104.8553" y1="129.6879" x2="104.0766" y2="149.9368" stroke="#b11c1f" stroke-width="1.0" />
  <rect
     style="fill:#ffffff;fill-opacity:1;fill-rule:nonzero;stroke:none"
     width="2"
     height="2"
     x="103.9660"
     y="138.8123"
     transform="rotate(92.2024 104.4660 139.8123)" /> 
  <path
     style="fill:none;stroke:#b11c1f;stroke-width:1px;stroke-linecap:butt;stroke-linejoin:miter;stroke-opacity:1"
     d="m 104.4660,137.8123 2,2 -2,2 m -2.370121,-4 2,2 -2,2"
     transform="rotate(92.2024 104.4660 139.8123)"/>
<circle cx="71.3889" cy="148.8593" r="5.0" stroke="#595959" stroke-width="1.0" fill="#ffffff"/>
<text x="71.3889" y="151.5593" text-anchor="middle" font-family="Helvetica" font-size="7.5" fill="#000000" >G</text>
<circle cx="72.1566" cy="128.7527" r="5.0" stroke="#595959" stroke-width="1.0" fill="#ffffff"/>
<text x="72.1566" y="131.4527" text-anchor="middle" font-family="Helvetica" font-size="7.5" fill="#000000" >G</text>
<circle cx="72.6891" cy="108.5987" r="5.0" stroke="#595959" stroke-width="1.0" fill="#ffffff"/>
<text x="72.6891" y="111.2987" text-anchor="middle" font-family="Helvetica" font-size="7.5" fill="#000000" >C</text>
<circle cx="72.8802" cy="88.4064" r="5.0" stroke="#595959" stroke-width="1.0" fill="#ffffff"/>
<text x="72.8802" y="91.1064" text-anchor="middle" font-family="Helvetica" font-size="7.5" fill="#000000" >G</text>
<circle cx="72.6888" cy="68.2249" r="5.0" stroke="#595959" stroke-width="1.0" fill="#ffffff"/>
<text x="72.6888" y="70.9249" text-anchor="middle" font-family="Helvetica" font-size="7.5" fill="#000000" >C</text>
<circle cx="72.1042" cy="47.8358" r="5.0" stroke="#595959" stroke-width="1.0" fill="#ffffff"/>
<text x="72.1042" y="50.5358" text-anchor="middle" font-family="Helvetica" font-size="7.5" fill="#000000" >A</text>
<circle cx="87.9346" cy="35.6533" r="5.0" stroke="#595959" stroke-width="1.0" fill="#ffffff"/>
<text x="87.9346" y="38.3533" text-anchor="middle" font-family="Helvetica" font-size="7.5" fill="#000000" >U</text>
<circle cx="104.7817" cy="46.5543" r="5.0" stroke="#595959" stroke-width="1.0" fill="#ffffff"/>
<text x="104.7817" y="49.2543" text-anchor="middle" font-family="Helvetica" font-size="7.5" fill="#000000" >C</text>
<circle cx="122.0698" cy="56.3271" r="5.0" stroke="#595959" stroke-width="1.0" fill="#ffffff"/>
<text x="122.0698" y="59.0271" text-anchor="middle" font-family="Helvetica" font-size="7.5" fill="#000000" >G</text>
<circle cx="105.3982" cy="67.6156" r="5.0" stroke="#595959" stroke-width="1.0" fill="#ffffff"/>
<text x="105.3982" y="70.3156" text-anchor="middle" font-family="Helvetica" font-size="7.5" fill="#000000" >G</text>
<circle cx="105.5781" cy="88.4056" r="5.0" stroke="#595959" stroke-width="1.0" fill="#ffffff"/>
<text x="105.5781" y="91.1056" text-anchor="middle" font-family="Helvetica" font-size="7.5" fill="#000000" >C</text>
<circle cx="105.3979" cy="109.1416" r="5.0" stroke="#595959" stroke-width="1.0" fill="#ffffff"/>
<text x="105.3979" y="111.8416" text-anchor="middle" font-family="Helvetica" font-size="7.5" fill="#000000" >G</text>
<circle cx="104.8553" cy="129.6879" r="5.0" stroke="#595959" stroke-width="1.0" fill="#ffffff"/>
<text x="104.8553" y="132.3879" text-anchor="middle" font-family="Helvetica" font-size="7.5" fill="#000000" >C</text>
<circle cx="104.0766" cy="149.9368" r="5.0" stroke="#595959" stroke-width="1.0" fill="#ffffff"/>
<text x="104.0766" y="152.6368" text-anchor="middle" font-family="Helvetica" font-size="7.5" fill="#000000" >C</text>
</svg>