<?xml version="1.0" encoding="UTF-8"?>
<!DOCTYPE svg PUBLIC "-//W3C//DTD SVG 1.1//EN" 
"http://www.w3.org/Graphics/SVG/1.1/DTD/svg11.dtd">

<svg version="1.1"
   width="308px"
   height="308px"
xmlns="http://www.w3.org/2000/svg">
    <rect width="100%" height="100%" fill="white"/>

  <line x1="137.0621" y1="218.3971" x2="137.2017" y2="198.4426" stroke="#595959"
     style="stroke-width:2;stroke-miterlimit:4;stroke-dasharray:1,1;stroke-dashoffset:0" />
  <line x1="137.1095" y1="98.8940" x2="135.0176" y2="79.1239" stroke="#595959"
     style="stroke-width:2;stroke-miterlimit:4;stroke-dasharray:1,1;stroke-dashoffset:0" />
  <line x1="135.0176" y1="79.1239" x2="137.9780" y2="59.3884" stroke="#595959"
     style="stroke-width:2;stroke-miterlimit:4;stroke-dasharray:1,1;stroke-dashoffset:0" />
  <line x1="137.9780" y1="59.3884" x2="155.6908" y2="50.1684" stroke="#595959"
     style="stroke-width:2;stroke-miterlimit:4;stroke-dasharray:1,1;stroke-dashoffset:0" />
  <line x1="155.6908" y1="50.1684" x2="172.9782" y2="60.1918" stroke="#595959"
     style="stroke-width:2;stroke-miterlimit:4;stroke-dasharray:1,1;stroke-dashoffset:0" />
  <line x1="172.9782" y1="60.1918" x2="177.1918" y2="79.7306" stroke="#595959"
     style="stroke-width:2;stroke-miterlimit:4;stroke-dasharray:1,1;stroke-dashoffset:0" />
  <line x1="177.1918" y1="79.7306" x2="169.6070" y2="98.2612" stroke="#595959"
     style="stroke-width:2;stroke-miterlimit:4;stroke-dasharray:1,1;stroke-dashoffset:0" />
  <line x1="169.6070" y1="98.2612" x2="169.9965" y2="118.4444" stroke="#595959"
     style="stroke-width:2;stroke-miterlimit:4;stroke-dasharray:1,1;stroke-dashoffset:0" />
  <line x1="169.8418" y1="198.5344" x2="169.6544" y2="218.5207" stroke="#595959"
     style="stroke-width:2;stroke-miterlimit:4;stroke-dasharray:1,1;stroke-dashoffset:0" />
  <line x1="137.3854" y1="158.5823" x2="170.1879" y2="158.5593" stroke="#ae1a38" stroke-width="1.0" />
  <path d="M 148.0367 160.8208 L 148.0367 156.3208 L 152.5367 156.3208 L 152.5367 160.8208 z" style="stroke:#ae1a38;stroke-width:1.0" fill="#ae1a38" 
    transform="rotate(-0.0403 153.7867 158.5708)"/>
  <path d="M 155.5367 160.8208 L 155.5367 156.3208 L 159.5367 158.5708 z" style="stroke:#ae1a38;stroke-width:1.0" fill="#ae1a38"
    transform="rotate(-0.0403 153.7867 158.5708)"/>
  <line x1="137.1095" y1="98.8940" x2="169.6070" y2="98.2612" stroke="#7102f1" stroke-width="1.0" />
  <path d="M 147.6082 100.8276 L 147.6082 96.3276 L 152.1082 96.3276 L 152.1082 100.8276 z" style="stroke:#7102f1;stroke-width:1.0" fill="#7102f1" 
    transform="rotate(178.8844 153.3582 98.5776)"/>
  <path d="M 155.1082 100.8276 L 155.1082 96.3276 L 159.1082 98.5776 z" style="stroke:#7102f1;stroke-width:1.0" fill="#7102f1"
    transform="rotate(178.8844 153.3582 98.5776)"/>
  <line x1="136.8448" y1="258.3499" x2="136.9394" y2="238.3658" stroke="#d24f00" stroke-width="1.0" />
  <rect
     style="fill:#ffffff;fill-opacity:1;fill-rule:nonzero;stroke:none"
     width="2"
     height="2"
     x="136.3921"
     y="247.3579"
     transform="rotate(-89.7288 136.8921 248.3579)" /> 
  <path
     style="fill:none;stroke:#d24f00;stroke-width:1px;stroke-linecap:butt;stroke-linejoin:miter;stroke-opacity:1"
     d="m 136.8921,246.3579 2,2 -2,2 m -2.370121,-4 2,2 -2,2"
     transform="rotate(-89.7288 136.8921 248.3579)"/>
  <line x1="136.8389" y1="259.5999" x2="169.3942" y2="259.7547" stroke="#3c0057" stroke-width="1.0" />
  <line x1="136.8508" y1="257.0999" x2="169.4061" y2="257.2548" stroke="#3c0057" stroke-width="1.0" />
  <line x1="136.9394" y1="238.3658" x2="137.0621" y2="218.3971" stroke="#000000" stroke-width="1.0" />
  <rect
     style="fill:#ffffff;fill-opacity:1;fill-rule:nonzero;stroke:none"
     width="2"
     height="2"
     x="136.5007"
     y="227.3814"
     transform="rotate(-89.6481 137.0007 228.3814)" /> 
  <path
     style="fill:none;stroke:#000000;stroke-width:1px;stroke-linecap:butt;stroke-linejoin:miter;stroke-opacity:1"
     d="m 137.0007,226.3814 2,2 -2,2 m -2.370121,-4 2,2 -2,2"
     transform="rotate(-89.6481 137.0007 228.3814)"/>
  <line x1="136.9339" y1="239.6158" x2="169.5019" y2="239.7603" stroke="#33003e" stroke-width="1.0" />
  <line x1="136.9450" y1="237.1158" x2="169.5130" y2="237.2604" stroke="#33003e" stroke-width="1.0" />
  <line x1="136.9394" y1="238.3658" x2="169.4001" y2="258.5048" stroke="#e07500" stroke-width="1.0" />
  <rect
     style="fill:#ffffff;stroke:none"
     width="5.5"
     height="2"
     x="150.4198"
     y="247.4353" 
     transform="rotate(31.8159 153.1698 248.4353)"    /> 
  <path
     style="fill:none;stroke:#e07500;stroke-width:1px;stroke-linecap:butt;stroke-linejoin:miter;stroke-opacity:1"
    d="m 153.9198,246.4353 2,2 -2,2 m -1.5,-4 -2,2 2,2" transform="rotate(31.8159 153.1698 248.4353)"/>
  <line x1="137.0573" y1="219.6471" x2="169.6496" y2="219.7707" stroke="#270026" stroke-width="1.0" />
  <line x1="137.0668" y1="217.1471" x2="169.6591" y2="217.2707" stroke="#270026" stroke-width="1.0" />
  <line x1="137.2017" y1="198.4426" x2="137.3327" y2="178.4926" stroke="#960bd2" stroke-width="1.0" />
  <rect
     style="fill:#ffffff;fill-opacity:1;fill-rule:nonzero;stroke:none"
     width="2"
     height="2"
     x="136.7672"
     y="187.4676"
     transform="rotate(-89.6239 137.2672 188.4676)" /> 
  <path
     style="fill:none;stroke:#960bd2;stroke-width:1px;stroke-linecap:butt;stroke-linejoin:miter;stroke-opacity:1"
     d="m 137.2672,186.4676 2,2 -2,2 m -2.370121,-4 2,2 -2,2"
     transform="rotate(-89.6239 137.2672 188.4676)"/>
  <line x1="137.2017" y1="198.4426" x2="169.8418" y2="198.5344" stroke="#4b0084" stroke-width="1.0" />
  <line x1="137.2017" y1="198.4426" x2="169.6544" y2="218.5207" stroke="#17000d" stroke-width="1.0" />
  <rect
     style="fill:#ffffff;stroke:none"
     width="5.5"
     height="2"
     x="150.6781"
     y="207.4816" 
     transform="rotate(31.7446 153.4281 208.4816)"    /> 
  <path
     style="fill:none;stroke:#17000d;stroke-width:1px;stroke-linecap:butt;stroke-linejoin:miter;stroke-opacity:1"
    d="m 154.1781,206.4816 2,2 -2,2 m -1.5,-4 -2,2 2,2" transform="rotate(31.7446 153.4281 208.4816)"/>
  <line x1="137.3327" y1="178.4926" x2="137.3854" y2="158.5823" stroke="#e07500" stroke-width="1.0" />
  <rect
     style="fill:#ffffff;fill-opacity:1;fill-rule:nonzero;stroke:none"
     width="2"
     height="2"
     x="136.8590"
     y="167.5375"
     transform="rotate(-89.8483 137.3590 168.5375)" /> 
  <path
     style="fill:none;stroke:#e07500;stroke-width:1px;stroke-linecap:butt;stroke-linejoin:miter;stroke-opacity:1"
     d="m 137.3590,166.5375 2,2 -2,2 m -2.370121,-4 2,2 -2,2"
     transform="rotate(-89.8483 137.3590 168.5375)"/>
  <line x1="137.3302" y1="179.7426" x2="170.0521" y2="179.8082" stroke="#3c0057" stroke-width="1.0" />
  <line x1="137.3352" y1="177.2426" x2="170.0571" y2="177.3082" stroke="#3c0057" stroke-width="1.0" />
  <line x1="137.3854" y1="158.5823" x2="137.4320" y2="138.6600" stroke="#8a06f6" stroke-width="1.0" />
  <rect
     style="fill:#ffffff;fill-opacity:1;fill-rule:nonzero;stroke:none"
     width="2"
     height="2"
     x="136.9087"
     y="147.6212"
     transform="rotate(-89.8660 137.4087 148.6212)" /> 
  <path
     style="fill:none;stroke:#8a06f6;stroke-width:1px;stroke-linecap:butt;stroke-linejoin:miter;stroke-opacity:1"
     d="m 137.4087,146.6212 2,2 -2,2 m -2.370121,-4 2,2 -2,2"
     transform="rotate(-89.8660 137.4087 148.6212)"/>
  <line x1="137.3854" y1="158.5823" x2="170.0546" y2="178.5582" stroke="#cf4a00" stroke-width="1.0" />
  <rect
     style="fill:#ffffff;stroke:none"
     width="5.5"
     height="2"
     x="150.9700"
     y="167.5703" 
     transform="rotate(31.4441 153.7200 168.5703)"    /> 
  <path
     style="fill:none;stroke:#cf4a00;stroke-width:1px;stroke-linecap:butt;stroke-linejoin:miter;stroke-opacity:1"
    d="m 154.4700,166.5703 2,2 -2,2 m -1.5,-4 -2,2 2,2" transform="rotate(31.4441 153.7200 168.5703)"/>
  <line x1="137.4320" y1="138.6600" x2="137.4090" y2="118.7760" stroke="#960bd2" stroke-width="1.0" />
  <rect
     style="fill:#ffffff;fill-opacity:1;fill-rule:nonzero;stroke:none"
     width="2"
     height="2"
     x="136.9205"
     y="127.7180"
     transform="rotate(269.9338 137.4205 128.7180)" /> 
  <path
     style="fill:none;stroke:#960bd2;stroke-width:1px;stroke-linecap:butt;stroke-linejoin:miter;stroke-opacity:1"
     d="m 137.4205,126.7180 2,2 -2,2 m -2.370121,-4 2,2 -2,2"
     transform="rotate(269.9338 137.4205 128.7180)"/>
  <line x1="137.4320" y1="138.6600" x2="170.1773" y2="138.5433" stroke="#5b01b5" stroke-width="1.0" />
  <line x1="137.4090" y1="118.7760" x2="137.1095" y2="98.8940" stroke="#270026" stroke-width="1.0" />
  <rect
     style="fill:#ffffff;fill-opacity:1;fill-rule:nonzero;stroke:none"
     width="2"
     height="2"
     x="136.7592"
     y="107.8350"
     transform="rotate(269.1369 137.2592 108.8350)" /> 
  <path
     style="fill:none;stroke:#270026;stroke-width:1px;stroke-linecap:butt;stroke-linejoin:miter;stroke-opacity:1"
     d="m 137.2592,106.8350 2,2 -2,2 m -2.370121,-4 2,2 -2,2"
     transform="rotate(269.1369 137.2592 108.8350)"/>
  <line x1="137.4217" y1="120.0259" x2="170.0092" y2="119.6943" stroke="#2d0032" stroke-width="1.0" />
  <line x1="137.3963" y1="117.5260" x2="169.9838" y2="117.1944" stroke="#2d0032" stroke-width="1.0" />
  <line x1="137.4090" y1="118.7760" x2="170.1773" y2="138.5433" stroke="#d75b00" stroke-width="1.0" />
  <rect
     style="fill:#ffffff;stroke:none"
     width="5.5"
     height="2"
     x="151.0432"
     y="127.6597" 
     transform="rotate(31.1003 153.7932 128.6597)"    /> 
  <path
     style="fill:none;stroke:#d75b00;stroke-width:1px;stroke-linecap:butt;stroke-linejoin:miter;stroke-opacity:1"
    d="m 154.5432,126.6597 2,2 -2,2 m -1.5,-4 -2,2 2,2" transform="rotate(31.1003 153.7932 128.6597)"/>
  <line x1="135.0176" y1="79.1239" x2="169.6070" y2="98.2612" stroke="#520099" stroke-width="1.0" />
  <rect
     style="fill:#ffffff;stroke:none"
     width="5.5"
     height="2"
     x="149.5623"
     y="87.6925" 
     transform="rotate(28.9544 152.3123 88.6925)"    /> 
  <path
     style="fill:none;stroke:#520099;stroke-width:1px;stroke-linecap:butt;stroke-linejoin:miter;stroke-opacity:1"
    d="m 153.0623,86.6925 2,2 -2,2 m -1.5,-4 -2,2 2,2" transform="rotate(28.9544 152.3123 88.6925)"/>
  <line x1="169.9965" y1="118.4444" x2="170.1773" y2="138.5433" stroke="#d14c00" stroke-width="1.0" />
  <rect
     style="fill:#ffffff;fill-opacity:1;fill-rule:nonzero;stroke:none"
     width="2"
     height="2"
     x="169.5869"
     y="127.4939"
     transform="rotate(89.4845 170.0869 128.4939)" /> 
  <path
     style="fill:none;stroke:#d14c00;stroke-width:1px;stroke-linecap:butt;stroke-linejoin:miter;stroke-opacity:1"
     d="m 170.0869,126.4939 2,2 -2,2 m -2.370121,-4 2,2 -2,2"
     transform="rotate(89.4845 170.0869 128.4939)"/>
  <line x1="170.1773" y1="138.5433" x2="170.1879" y2="158.5593" stroke="#ce4700" stroke-width="1.0" />
  <rect
     style="fill:#ffffff;fill-opacity:1;fill-rule:nonzero;stroke:none"
     width="2"
     height="2"
     x="169.6826"
     y="147.5513"
     transform="rotate(89.9697 170.1826 148.5513)" /> 
  <path
     style="fill:none;stroke:#ce4700;stroke-width:1px;stroke-linecap:butt;stroke-linejoin:miter;stroke-opacity:1"
     d="m 170.1826,146.5513 2,2 -2,2 m -2.370121,-4 2,2 -2,2"
     transform="rotate(89.9697 170.1826 148.5513)"/>
  <line x1="170.1879" y1="158.5593" x2="170.0546" y2="178.5582" stroke="#eeaa00" stroke-width="1.0" />
  <rect
     style="fill:#ffffff;fill-opacity:1;fill-rule:nonzero;stroke:none"
     width="2"
     height="2"
     x="169.6213"
     y="167.5588"
     transform="rotate(90.3821 170.1213 168.5588)" /> 
  <path
     style="fill:none;stroke:#eeaa00;stroke-width:1px;stroke-linecap:butt;stroke-linejoin:miter;stroke-opacity:1"
     d="m 170.1213,166.5588 2,2 -2,2 m -2.370121,-4 2,2 -2,2"
     transform="rotate(90.3821 170.1213 168.5588)"/>
  <line x1="170.0546" y1="178.5582" x2="169.8418" y2="198.5344" stroke="#940ad9" stroke-width="1.0" />
  <rect
     style="fill:#ffffff;fill-opacity:1;fill-rule:nonzero;stroke:none"
     width="2"
     height="2"
     x="169.4482"
     y="187.5463"
     transform="rotate(90.6103 169.9482 188.5463)" /> 
  <path
     style="fill:none;stroke:#940ad9;stroke-width:1px;stroke-linecap:butt;stroke-linejoin:miter;stroke-opacity:1"
     d="m 169.9482,186.5463 2,2 -2,2 m -2.370121,-4 2,2 -2,2"
     transform="rotate(90.6103 169.9482 188.5463)"/>
  <line x1="169.6544" y1="218.5207" x2="169.5075" y2="238.5104" stroke="#000000" stroke-width="1.0" />
  <rect
     style="fill:#ffffff;fill-opacity:1;fill-rule:nonzero;stroke:none"
     width="2"
     height="2"
     x="169.0809"
     y="227.5155"
     transform="rotate(90.4211 169.5809 228.5155)" /> 
  <path
     style="fill:none;stroke:#000000;stroke-width:1px;stroke-linecap:butt;stroke-linejoin:miter;stroke-opacity:1"
     d="m 169.5809,226.5155 2,2 -2,2 m -2.370121,-4 2,2 -2,2"
     transform="rotate(90.4211 169.5809 228.5155)"/>
  <line x1="169.5075" y1="238.5104" x2="169.4001" y2="258.5048" stroke="#b11c1f" stroke-width="1.0" />
  <rect
     style="fill:#ffffff;fill-opacity:1;fill-rule:nonzero;stroke:none"
     width="2"
     height="2"
     x="168.9538"
     y="247.5076"
     transform="rotate(90.3075 169.4538 248.5076)" /> 
  <path
     style="fill:none;stroke:#b11c1f;stroke-width:1px;stroke-linecap:butt;stroke-linejoin:miter;stroke-opacity:1"
     d="m 169.4538,246.5076 2,2 -2,2 m -2.370121,-4 2,2 -2,2"
     transform="rotate(90.3075 169.4538 248.5076)"/>
<circle cx="136.8448" cy="258.3499" r="5.0" stroke="#595959" stroke-width="1.0" fill="#ffffff"/>
<text x="136.8448" y="261.0499" text-anchor="middle" font-family="Helvetica" font-size="7.5" fill="#000000" >G</text>
<circle cx="136.9394" cy="238.3658" r="5.0" stroke="#595959" stroke-width="1.0" fill="#ffffff"/>
<text x="136.9394" y="241.0658" text-anchor="middle" font-family="Helvetica" font-size="7.5" fill="#000000" >G</text>
<circle cx="137.0621" cy="218.3971" r="5.0" stroke="#595959" stroke-width="1.0" fill="#ffffff"/>
<text x="137.0621" y="221.0971" text-anchor="middle" font-family="Helvetica" font-size="7.5" fill="#000000" >C</text>
<circle cx="137.2017" cy="198.4426" r="5.0" stroke="#595959" stroke-width="1.0" fill="#ffffff"/>
<text x="137.2017" y="201.1426" text-anchor="middle" font-family="Helvetica" font-size="7.5" fill="#000000" >A</text>
<circle cx="137.3327" cy="178.4926" r="5.0" stroke="#595959" stroke-width="1.0" fill="#ffffff"/>
<text x="137.3327" y="181.1926" text-anchor="middle" font-family="Helvetica" font-size="7.5" fill="#000000" >G</text>
<circle cx="137.3854" cy="158.5823" r="5.0" stroke="#595959" stroke-width="1.0" fill="#ffffff"/>
<text x="137.3854" y="161.2823" text-anchor="middle" font-family="Helvetica" font-size="7.5" fill="#000000" >A</text>
<circle cx="137.4320" cy="138.6600" r="5.0" stroke="#595959" stroke-width="1.0" fill="#ffffff"/>
<text x="137.4320" y="141.3600" text-anchor="middle" font-family="Helvetica" font-size="7.5" fill="#000000" >U</text>
<circle cx="137.4090" cy="118.7760" r="5.0" stroke="#595959" stroke-width="1.0" fill="#ffffff"/>
<text x="137.4090" y="121.4760" text-anchor="middle" font-family="Helvetica" font-size="7.5" fill="#000000" >C</text>
<circle cx="137.1095" cy="98.8940" r="5.0" stroke="#595959" stroke-width="1.0" fill="#ffffff"/>
<text x="137.1095" y="101.5940" text-anchor="middle" font-family="Helvetica" font-size="7.5" fill="#000000" >U</text>
<circle cx="135.0176" cy="79.1239" r="5.0" stroke="#595959" stroke-width="1.0" fill="#ffffff"/>
<text x="135.0176" y="81.8239" text-anchor="middle" font-family="Helvetica" font-size="7.5" fill="#000000" >G</text>
<circle cx="137.9780" cy="59.3884" r="5.0" stroke="#595959" stroke-width="1.0" fill="#ffffff"/>
<text x="137.9780" y="62.0884" text-anchor="middle" font-family="Helvetica" font-size="7.5" fill="#000000" >U</text>
<circle cx="155.6908" cy="50.1684" r="5.0" stroke="#595959" stroke-width="1.0" fill="#ffffff"/>
<text x="155.6908" y="52.8684" text-anchor="middle" font-family="Helvetica" font-size="7.5" fill="#000000" >A</text>
<circle cx="172.9782" cy="60.1918" r="5.0" stroke="#595959" stroke-width="1.0" fill="#ffffff"/>
<text x="172.9782" y="62.8918" text-anchor="middle" font-family="Helvetica" font-size="7.5" fill="#000000" >A</text>
<circle cx="177.1918" cy="79.7306" r="5.0" stroke="#595959" stroke-width="1.0" fill="#ffffff"/>
<text x="177.1918" y="82.4306" text-anchor="middle" font-family="Helvetica" font-size="7.5" fill="#000000" >U</text>
<circle cx="169.6070" cy="98.2612" r="5.0" stroke="#595959" stroke-width="1.0" fill="#ffffff"/>
<text x="169.6070" y="100.9612" text-anchor="middle" font-family="Helvetica" font-size="7.5" fill="#000000" >A</text>
<circle cx="169.9965" cy="118.4444" r="5.0" stroke="#595959" stroke-width="1.0" fill="#ffffff"/>
<text x="169.9965" y="121.1444" text-anchor="middle" font-family="Helvetica" font-size="7.5" fill="#000000" >G</text>
<circle cx="170.1773" cy="138.5433" r="5.0" stroke="#595959" stroke-width="1.0" fill="#ffffff"/>
<text x="170.1773" y="141.2433" text-anchor="middle" font-family="Helvetica" font-size="7.5" fill="#000000" >A</text>
<circle cx="170.1879" cy="158.5593" r="5.0" stroke="#595959" stroke-width="1.0" fill="#ffffff"/>
<text x="170.1879" y="161.2593" text-anchor="middle" font-family="Helvetica" font-size="7.5" fill="#000000" >A</text>
<circle cx="170.0546" cy="178.5582" r="5.0" stroke="#595959" stroke-width="1.0" fill="#ffffff"/>
<text x="170.0546" y="181.2582" text-anchor="middle" font-family="Helvetica" font-size="7.5" fill="#000000" >C</text>
<circle cx="169.8418" cy="198.5344" r="5.0" stroke="#595959" stroke-width="1.0" fill="#ffffff"/>
<text x="169.8418" y="201.2344" text-anchor="middle" font-family="Helvetica" font-size="7.5" fill="#000000" >U</text>
<circle cx="169.6544" cy="218.5207" r="5.0" stroke="#595959" stroke-width="1.0" fill="#ffffff"/>
<text x="169.6544" y="221.2207" text-anchor="middle" font-family="Helvetica" font-size="7.5" fill="#000000" >G</text>
<circle cx="169.5075" cy="238.5104" r="5.0" stroke="#595959" stroke-width="1.0" fill="#ffffff"/>
<text x="169.5075" y="241.2104" text-anchor="middle" font-family="Helvetica" font-size="7.5" fill="#000000" >C</text>
<circle cx="169.4001" cy="258.5048" r="5.0" stroke="#595959" stroke-width="1.0" fill="#ffffff"/>
<text x="169.4001" y="261.2048" text-anchor="middle" font-family="Helvetica" font-size="7.5" fill="#000000" >C</text>
</svg>