<?xml version="1.0" encoding="UTF-8"?>
<!DOCTYPE svg PUBLIC "-//W3C//DTD SVG 1.1//EN" 
"http://www.w3.org/Graphics/SVG/1.1/DTD/svg11.dtd">

<svg version="1.1"
   width="308px"
   height="308px"
xmlns="http://www.w3.org/2000/svg">
    <rect width="100%" height="100%" fill="white"/>

  <line x1="136.2775" y1="217.6857" x2="136.8364" y2="197.7085" stroke="#595959"
     style="stroke-width:2;stroke-miterlimit:4;stroke-dasharray:1,1;stroke-dashoffset:0" />
  <line x1="134.9642" y1="76.1961" x2="139.7367" y2="56.6296" stroke="#595959"
     style="stroke-width:2;stroke-miterlimit:4;stroke-dasharray:1,1;stroke-dashoffset:0" />
  <line x1="139.7367" y1="56.6296" x2="159.6362" y2="54.8671" stroke="#595959"
     style="stroke-width:2;stroke-miterlimit:4;stroke-dasharray:1,1;stroke-dashoffset:0" />
  <line x1="159.6362" y1="54.8671" x2="167.6747" y2="73.8520" stroke="#595959"
     style="stroke-width:2;stroke-miterlimit:4;stroke-dasharray:1,1;stroke-dashoffset:0" />
  <line x1="167.6747" y1="73.8520" x2="185.1042" y2="83.3742" stroke="#595959"
     style="stroke-width:2;stroke-miterlimit:4;stroke-dasharray:1,1;stroke-dashoffset:0" />
  <line x1="185.1042" y1="83.3742" x2="168.9988" y2="95.3036" stroke="#595959"
     style="stroke-width:2;stroke-miterlimit:4;stroke-dasharray:1,1;stroke-dashoffset:0" />
  <line x1="169.5825" y1="198.3827" x2="168.9757" y2="218.3853" stroke="#595959"
     style="stroke-width:2;stroke-miterlimit:4;stroke-dasharray:1,1;stroke-dashoffset:0" />
  <line x1="137.6406" y1="157.7449" x2="170.4308" y2="157.9197" stroke="#d35200" stroke-width="1.0" />
  <circle cx="154.0357" cy="157.8323" r="2.25" stroke="#d35200" stroke-width="1.0" fill="#d35200"/>
  <line x1="137.5450" y1="136.1252" x2="170.3266" y2="135.6877" stroke="#ea9900" stroke-width="1.0" />
  <circle cx="153.9358" cy="135.9064" r="2.25" stroke="#ea9900" stroke-width="1.0" fill="#ea9900"/>
  <line x1="134.9642" y1="76.1961" x2="167.6747" y2="73.8520" stroke="#000000" stroke-width="1.0" />
  <path d="M 145.5694 77.2741 L 145.5694 72.7741 L 150.0694 72.7741 L 150.0694 77.2741 z" style="stroke:#000000;stroke-width:1.0" fill="#000000" 
    transform="rotate(175.9011 151.3194 75.0241)"/>
  <path d="M 153.0694 77.2741 L 153.0694 72.7741 L 157.0694 75.0241 z" style="stroke:#000000;stroke-width:1.0" fill="#000000"
    transform="rotate(175.9011 151.3194 75.0241)"/>
  <line x1="135.3484" y1="257.6512" x2="135.7708" y2="237.6644" stroke="#cf4a00" stroke-width="1.0" />
  <rect
     style="fill:#ffffff;fill-opacity:1;fill-rule:nonzero;stroke:none"
     width="2"
     height="2"
     x="135.0596"
     y="246.6578"
     transform="rotate(-88.7894 135.5596 247.6578)" /> 
  <path
     style="fill:none;stroke:#cf4a00;stroke-width:1px;stroke-linecap:butt;stroke-linejoin:miter;stroke-opacity:1"
     d="m 135.5596,245.6578 2,2 -2,2 m -2.370121,-4 2,2 -2,2"
     transform="rotate(-88.7894 135.5596 247.6578)"/>
  <line x1="135.3209" y1="258.9009" x2="167.9352" y2="259.6202" stroke="#33003e" stroke-width="1.0" />
  <line x1="135.3760" y1="256.4015" x2="167.9904" y2="257.1208" stroke="#33003e" stroke-width="1.0" />
  <line x1="135.7708" y1="237.6644" x2="136.2775" y2="217.6857" stroke="#000000" stroke-width="1.0" />
  <rect
     style="fill:#ffffff;fill-opacity:1;fill-rule:nonzero;stroke:none"
     width="2"
     height="2"
     x="135.5242"
     y="226.6751"
     transform="rotate(-88.5472 136.0242 227.6751)" /> 
  <path
     style="fill:none;stroke:#000000;stroke-width:1px;stroke-linecap:butt;stroke-linejoin:miter;stroke-opacity:1"
     d="m 136.0242,225.6751 2,2 -2,2 m -2.370121,-4 2,2 -2,2"
     transform="rotate(-88.5472 136.0242 227.6751)"/>
  <line x1="135.7436" y1="238.9141" x2="168.3980" y2="239.6267" stroke="#270026" stroke-width="1.0" />
  <line x1="135.7981" y1="236.4147" x2="168.4526" y2="237.1273" stroke="#270026" stroke-width="1.0" />
  <line x1="135.7708" y1="237.6644" x2="167.9628" y2="258.3705" stroke="#e89000" stroke-width="1.0" />
  <rect
     style="fill:#ffffff;stroke:none"
     width="5.5"
     height="2"
     x="149.1168"
     y="247.0175" 
     transform="rotate(32.7494 151.8668 248.0175)"    /> 
  <path
     style="fill:none;stroke:#e89000;stroke-width:1px;stroke-linecap:butt;stroke-linejoin:miter;stroke-opacity:1"
    d="m 152.6168,246.0175 2,2 -2,2 m -1.5,-4 -2,2 2,2" transform="rotate(32.7494 151.8668 248.0175)"/>
  <line x1="136.2508" y1="218.9354" x2="168.9490" y2="219.6350" stroke="#200019" stroke-width="1.0" />
  <line x1="136.3042" y1="216.4360" x2="169.0025" y2="217.1356" stroke="#200019" stroke-width="1.0" />
  <line x1="136.8364" y1="197.7085" x2="137.3671" y2="177.7303" stroke="#9b0dba" stroke-width="1.0" />
  <rect
     style="fill:#ffffff;fill-opacity:1;fill-rule:nonzero;stroke:none"
     width="2"
     height="2"
     x="136.6018"
     y="186.7194"
     transform="rotate(-88.4784 137.1018 187.7194)" /> 
  <path
     style="fill:none;stroke:#9b0dba;stroke-width:1px;stroke-linecap:butt;stroke-linejoin:miter;stroke-opacity:1"
     d="m 137.1018,185.7194 2,2 -2,2 m -2.370121,-4 2,2 -2,2"
     transform="rotate(-88.4784 137.1018 187.7194)"/>
  <line x1="136.8364" y1="197.7085" x2="169.5825" y2="198.3827" stroke="#400062" stroke-width="1.0" />
  <line x1="136.8364" y1="197.7085" x2="168.9757" y2="218.3853" stroke="#000000" stroke-width="1.0" />
  <rect
     style="fill:#ffffff;stroke:none"
     width="5.5"
     height="2"
     x="150.1561"
     y="207.0469" 
     transform="rotate(32.7551 152.9061 208.0469)"    /> 
  <path
     style="fill:none;stroke:#000000;stroke-width:1px;stroke-linecap:butt;stroke-linejoin:miter;stroke-opacity:1"
    d="m 153.6561,206.0469 2,2 -2,2 m -1.5,-4 -2,2 2,2" transform="rotate(32.7551 152.9061 208.0469)"/>
  <line x1="137.3671" y1="177.7303" x2="137.6406" y2="157.7449" stroke="#8f08ea" stroke-width="1.0" />
  <rect
     style="fill:#ffffff;fill-opacity:1;fill-rule:nonzero;stroke:none"
     width="2"
     height="2"
     x="137.0038"
     y="166.7376"
     transform="rotate(-89.2159 137.5038 167.7376)" /> 
  <path
     style="fill:none;stroke:#8f08ea;stroke-width:1px;stroke-linecap:butt;stroke-linejoin:miter;stroke-opacity:1"
     d="m 137.5038,165.7376 2,2 -2,2 m -2.370121,-4 2,2 -2,2"
     transform="rotate(-89.2159 137.5038 167.7376)"/>
  <line x1="137.3462" y1="178.9801" x2="170.0931" y2="179.5280" stroke="#44006e" stroke-width="1.0" />
  <line x1="137.3880" y1="176.4805" x2="170.1349" y2="177.0283" stroke="#44006e" stroke-width="1.0" />
  <line x1="137.6406" y1="157.7449" x2="137.5664" y2="137.7251" stroke="#8b07f3" stroke-width="1.0" />
  <rect
     style="fill:#ffffff;fill-opacity:1;fill-rule:nonzero;stroke:none"
     width="2"
     height="2"
     x="137.1035"
     y="146.7350"
     transform="rotate(269.7876 137.6035 147.7350)" /> 
  <path
     style="fill:none;stroke:#8b07f3;stroke-width:1px;stroke-linecap:butt;stroke-linejoin:miter;stroke-opacity:1"
     d="m 137.6035,145.7350 2,2 -2,2 m -2.370121,-4 2,2 -2,2"
     transform="rotate(269.7876 137.6035 147.7350)"/>
  <line x1="137.5664" y1="137.7251" x2="137.1044" y2="117.4701" stroke="#9d0eb1" stroke-width="1.0" />
  <rect
     style="fill:#ffffff;fill-opacity:1;fill-rule:nonzero;stroke:none"
     width="2"
     height="2"
     x="136.8354"
     y="126.5976"
     transform="rotate(268.6934 137.3354 127.5976)" /> 
  <path
     style="fill:none;stroke:#9d0eb1;stroke-width:1px;stroke-linecap:butt;stroke-linejoin:miter;stroke-opacity:1"
     d="m 137.3354,125.5976 2,2 -2,2 m -2.370121,-4 2,2 -2,2"
     transform="rotate(268.6934 137.3354 127.5976)"/>
  <line x1="137.5878" y1="139.3249" x2="170.3693" y2="138.8874" stroke="#7102f1" stroke-width="1.0" />
  <line x1="137.1044" y1="117.4701" x2="136.2544" y2="96.9879" stroke="#8806f9" stroke-width="1.0" />
  <rect
     style="fill:#ffffff;fill-opacity:1;fill-rule:nonzero;stroke:none"
     width="2"
     height="2"
     x="136.1794"
     y="106.2290"
     transform="rotate(267.6236 136.6794 107.2290)" /> 
  <path
     style="fill:none;stroke:#8806f9;stroke-width:1px;stroke-linecap:butt;stroke-linejoin:miter;stroke-opacity:1"
     d="m 136.6794,105.2290 2,2 -2,2 m -2.370121,-4 2,2 -2,2"
     transform="rotate(267.6236 136.6794 107.2290)"/>
  <line x1="137.1449" y1="118.7194" x2="169.9204" y2="117.6575" stroke="#33003e" stroke-width="1.0" />
  <line x1="137.0640" y1="116.2208" x2="169.8395" y2="115.1589" stroke="#33003e" stroke-width="1.0" />
  <line x1="137.1044" y1="117.4701" x2="170.3480" y2="137.2875" stroke="#eeaa00" stroke-width="1.0" />
  <rect
     style="fill:#ffffff;stroke:none"
     width="5.5"
     height="2"
     x="150.9762"
     y="126.3788" 
     transform="rotate(30.8004 153.7262 127.3788)"    /> 
  <path
     style="fill:none;stroke:#eeaa00;stroke-width:1px;stroke-linecap:butt;stroke-linejoin:miter;stroke-opacity:1"
    d="m 154.4762,125.3788 2,2 -2,2 m -1.5,-4 -2,2 2,2" transform="rotate(30.8004 153.7262 127.3788)"/>
  <line x1="136.2544" y1="96.9879" x2="134.9642" y2="76.1961" stroke="#400062" stroke-width="1.0" />
  <rect
     style="fill:#ffffff;fill-opacity:1;fill-rule:nonzero;stroke:none"
     width="2"
     height="2"
     x="135.1093"
     y="85.5920"
     transform="rotate(266.4491 135.6093 86.5920)" /> 
  <path
     style="fill:none;stroke:#400062;stroke-width:1px;stroke-linecap:butt;stroke-linejoin:miter;stroke-opacity:1"
     d="m 135.6093,84.5920 2,2 -2,2 m -2.370121,-4 2,2 -2,2"
     transform="rotate(266.4491 135.6093 86.5920)"/>
  <line x1="136.2544" y1="96.9879" x2="168.9988" y2="95.3036" stroke="#33003e" stroke-width="1.0" />
  <line x1="167.6747" y1="73.8520" x2="168.9988" y2="95.3036" stroke="#5d01be" stroke-width="1.0" />
  <rect
     style="fill:#ffffff;fill-opacity:1;fill-rule:nonzero;stroke:none"
     width="2"
     height="2"
     x="167.8367"
     y="83.5778"
     transform="rotate(86.4678 168.3367 84.5778)" /> 
  <path
     style="fill:none;stroke:#5d01be;stroke-width:1px;stroke-linecap:butt;stroke-linejoin:miter;stroke-opacity:1"
     d="m 168.3367,82.5778 2,2 -2,2 m -2.370121,-4 2,2 -2,2"
     transform="rotate(86.4678 168.3367 84.5778)"/>
  <line x1="168.9988" y1="95.3036" x2="169.8800" y2="116.4082" stroke="#9e0fa8" stroke-width="1.0" />
  <rect
     style="fill:#ffffff;fill-opacity:1;fill-rule:nonzero;stroke:none"
     width="2"
     height="2"
     x="168.9394"
     y="104.8559"
     transform="rotate(87.6092 169.4394 105.8559)" /> 
  <path
     style="fill:none;stroke:#9e0fa8;stroke-width:1px;stroke-linecap:butt;stroke-linejoin:miter;stroke-opacity:1"
     d="m 169.4394,103.8559 2,2 -2,2 m -2.370121,-4 2,2 -2,2"
     transform="rotate(87.6092 169.4394 105.8559)"/>
  <line x1="169.8800" y1="116.4082" x2="170.3480" y2="137.2875" stroke="#af1b2c" stroke-width="1.0" />
  <rect
     style="fill:#ffffff;fill-opacity:1;fill-rule:nonzero;stroke:none"
     width="2"
     height="2"
     x="169.6140"
     y="125.8479"
     transform="rotate(88.7160 170.1140 126.8479)" /> 
  <path
     style="fill:none;stroke:#af1b2c;stroke-width:1px;stroke-linecap:butt;stroke-linejoin:miter;stroke-opacity:1"
     d="m 170.1140,124.8479 2,2 -2,2 m -2.370121,-4 2,2 -2,2"
     transform="rotate(88.7160 170.1140 126.8479)"/>
  <line x1="170.3480" y1="137.2875" x2="170.4308" y2="157.9197" stroke="#8204ff" stroke-width="1.0" />
  <rect
     style="fill:#ffffff;fill-opacity:1;fill-rule:nonzero;stroke:none"
     width="2"
     height="2"
     x="169.8894"
     y="146.6036"
     transform="rotate(89.7699 170.3894 147.6036)" /> 
  <path
     style="fill:none;stroke:#8204ff;stroke-width:1px;stroke-linecap:butt;stroke-linejoin:miter;stroke-opacity:1"
     d="m 170.3894,145.6036 2,2 -2,2 m -2.370121,-4 2,2 -2,2"
     transform="rotate(89.7699 170.3894 147.6036)"/>
  <line x1="170.4308" y1="157.9197" x2="170.1140" y2="178.2782" stroke="#b82400" stroke-width="1.0" />
  <rect
     style="fill:#ffffff;fill-opacity:1;fill-rule:nonzero;stroke:none"
     width="2"
     height="2"
     x="169.7724"
     y="167.0989"
     transform="rotate(90.8917 170.2724 168.0989)" /> 
  <path
     style="fill:none;stroke:#b82400;stroke-width:1px;stroke-linecap:butt;stroke-linejoin:miter;stroke-opacity:1"
     d="m 170.2724,166.0989 2,2 -2,2 m -2.370121,-4 2,2 -2,2"
     transform="rotate(90.8917 170.2724 168.0989)"/>
  <line x1="170.1140" y1="178.2782" x2="169.5825" y2="198.3827" stroke="#960bd2" stroke-width="1.0" />
  <rect
     style="fill:#ffffff;fill-opacity:1;fill-rule:nonzero;stroke:none"
     width="2"
     height="2"
     x="169.3482"
     y="187.3304"
     transform="rotate(91.5143 169.8482 188.3304)" /> 
  <path
     style="fill:none;stroke:#960bd2;stroke-width:1px;stroke-linecap:butt;stroke-linejoin:miter;stroke-opacity:1"
     d="m 169.8482,186.3304 2,2 -2,2 m -2.370121,-4 2,2 -2,2"
     transform="rotate(91.5143 169.8482 188.3304)"/>
  <line x1="168.9757" y1="218.3853" x2="168.4253" y2="238.3770" stroke="#000000" stroke-width="1.0" />
  <rect
     style="fill:#ffffff;fill-opacity:1;fill-rule:nonzero;stroke:none"
     width="2"
     height="2"
     x="168.2005"
     y="227.3812"
     transform="rotate(91.5770 168.7005 228.3812)" /> 
  <path
     style="fill:none;stroke:#000000;stroke-width:1px;stroke-linecap:butt;stroke-linejoin:miter;stroke-opacity:1"
     d="m 168.7005,226.3812 2,2 -2,2 m -2.370121,-4 2,2 -2,2"
     transform="rotate(91.5770 168.7005 228.3812)"/>
  <line x1="168.4253" y1="238.3770" x2="167.9628" y2="258.3705" stroke="#ab1751" stroke-width="1.0" />
  <rect
     style="fill:#ffffff;fill-opacity:1;fill-rule:nonzero;stroke:none"
     width="2"
     height="2"
     x="167.6941"
     y="247.3738"
     transform="rotate(91.3252 168.1941 248.3738)" /> 
  <path
     style="fill:none;stroke:#ab1751;stroke-width:1px;stroke-linecap:butt;stroke-linejoin:miter;stroke-opacity:1"
     d="m 168.1941,246.3738 2,2 -2,2 m -2.370121,-4 2,2 -2,2"
     transform="rotate(91.3252 168.1941 248.3738)"/>
<circle cx="135.3484" cy="257.6512" r="5.0" stroke="#595959" stroke-width="1.0" fill="#ffffff"/>
<text x="135.3484" y="260.3512" text-anchor="middle" font-family="Helvetica" font-size="7.5" fill="#000000" >G</text>
<circle cx="135.7708" cy="237.6644" r="5.0" stroke="#595959" stroke-width="1.0" fill="#ffffff"/>
<text x="135.7708" y="240.3644" text-anchor="middle" font-family="Helvetica" font-size="7.5" fill="#000000" >G</text>
<circle cx="136.2775" cy="217.6857" r="5.0" stroke="#595959" stroke-width="1.0" fill="#ffffff"/>
<text x="136.2775" y="220.3857" text-anchor="middle" font-family="Helvetica" font-size="7.5" fill="#000000" >C</text>
<circle cx="136.8364" cy="197.7085" r="5.0" stroke="#595959" stroke-width="1.0" fill="#ffffff"/>
<text x="136.8364" y="200.4085" text-anchor="middle" font-family="Helvetica" font-size="7.5" fill="#000000" >A</text>
<circle cx="137.3671" cy="177.7303" r="5.0" stroke="#595959" stroke-width="1.0" fill="#ffffff"/>
<text x="137.3671" y="180.4303" text-anchor="middle" font-family="Helvetica" font-size="7.5" fill="#000000" >G</text>
<circle cx="137.6406" cy="157.7449" r="5.0" stroke="#595959" stroke-width="1.0" fill="#ffffff"/>
<text x="137.6406" y="160.4449" text-anchor="middle" font-family="Helvetica" font-size="7.5" fill="#000000" >A</text>
<circle cx="137.5664" cy="137.7251" r="5.0" stroke="#595959" stroke-width="1.0" fill="#ffffff"/>
<text x="137.5664" y="140.4251" text-anchor="middle" font-family="Helvetica" font-size="7.5" fill="#000000" >U</text>
<circle cx="137.1044" cy="117.4701" r="5.0" stroke="#595959" stroke-width="1.0" fill="#ffffff"/>
<text x="137.1044" y="120.1701" text-anchor="middle" font-family="Helvetica" font-size="7.5" fill="#000000" >C</text>
<circle cx="136.2544" cy="96.9879" r="5.0" stroke="#595959" stroke-width="1.0" fill="#ffffff"/>
<text x="136.2544" y="99.6879" text-anchor="middle" font-family="Helvetica" font-size="7.5" fill="#000000" >U</text>
<circle cx="134.9642" cy="76.1961" r="5.0" stroke="#595959" stroke-width="1.0" fill="#ffffff"/>
<text x="134.9642" y="78.8961" text-anchor="middle" font-family="Helvetica" font-size="7.5" fill="#000000" >G</text>
<circle cx="139.7367" cy="56.6296" r="5.0" stroke="#595959" stroke-width="1.0" fill="#ffffff"/>
<text x="139.7367" y="59.3296" text-anchor="middle" font-family="Helvetica" font-size="7.5" fill="#000000" >U</text>
<circle cx="159.6362" cy="54.8671" r="5.0" stroke="#595959" stroke-width="1.0" fill="#ffffff"/>
<text x="159.6362" y="57.5671" text-anchor="middle" font-family="Helvetica" font-size="7.5" fill="#000000" >A</text>
<circle cx="167.6747" cy="73.8520" r="5.0" stroke="#595959" stroke-width="1.0" fill="#ffffff"/>
<text x="167.6747" y="76.5520" text-anchor="middle" font-family="Helvetica" font-size="7.5" fill="#000000" >A</text>
<circle cx="185.1042" cy="83.3742" r="5.0" stroke="#595959" stroke-width="1.0" fill="#ffffff"/>
<text x="185.1042" y="86.0742" text-anchor="middle" font-family="Helvetica" font-size="7.5" fill="#000000" >U</text>
<circle cx="168.9988" cy="95.3036" r="5.0" stroke="#595959" stroke-width="1.0" fill="#ffffff"/>
<text x="168.9988" y="98.0036" text-anchor="middle" font-family="Helvetica" font-size="7.5" fill="#000000" >A</text>
<circle cx="169.8800" cy="116.4082" r="5.0" stroke="#595959" stroke-width="1.0" fill="#ffffff"/>
<text x="169.8800" y="119.1082" text-anchor="middle" font-family="Helvetica" font-size="7.5" fill="#000000" >G</text>
<circle cx="170.3480" cy="137.2875" r="5.0" stroke="#595959" stroke-width="1.0" fill="#ffffff"/>
<text x="170.3480" y="139.9875" text-anchor="middle" font-family="Helvetica" font-size="7.5" fill="#000000" >A</text>
<circle cx="170.4308" cy="157.9197" r="5.0" stroke="#595959" stroke-width="1.0" fill="#ffffff"/>
<text x="170.4308" y="160.6197" text-anchor="middle" font-family="Helvetica" font-size="7.5" fill="#000000" >A</text>
<circle cx="170.1140" cy="178.2782" r="5.0" stroke="#595959" stroke-width="1.0" fill="#ffffff"/>
<text x="170.1140" y="180.9782" text-anchor="middle" font-family="Helvetica" font-size="7.5" fill="#000000" >C</text>
<circle cx="169.5825" cy="198.3827" r="5.0" stroke="#595959" stroke-width="1.0" fill="#ffffff"/>
<text x="169.5825" y="201.0827" text-anchor="middle" font-family="Helvetica" font-size="7.5" fill="#000000" >U</text>
<circle cx="168.9757" cy="218.3853" r="5.0" stroke="#595959" stroke-width="1.0" fill="#ffffff"/>
<text x="168.9757" y="221.0853" text-anchor="middle" font-family="Helvetica" font-size="7.5" fill="#000000" >G</text>
<circle cx="168.4253" cy="238.3770" r="5.0" stroke="#595959" stroke-width="1.0" fill="#ffffff"/>
<text x="168.4253" y="241.0770" text-anchor="middle" font-family="Helvetica" font-size="7.5" fill="#000000" >C</text>
<circle cx="167.9628" cy="258.3705" r="5.0" stroke="#595959" stroke-width="1.0" fill="#ffffff"/>
<text x="167.9628" y="261.0705" text-anchor="middle" font-family="Helvetica" font-size="7.5" fill="#000000" >C</text>
</svg>