<?xml version="1.0" encoding="UTF-8"?>
<!DOCTYPE svg PUBLIC "-//W3C//DTD SVG 1.1//EN" 
"http://www.w3.org/Graphics/SVG/1.1/DTD/svg11.dtd">

<svg version="1.1"
   width="308px"
   height="308px"
xmlns="http://www.w3.org/2000/svg">
    <rect width="100%" height="100%" fill="white"/>

  <line x1="137.1996" y1="217.9039" x2="137.6648" y2="197.8661" stroke="#595959"
     style="stroke-width:2;stroke-miterlimit:4;stroke-dasharray:1,1;stroke-dashoffset:0" />
  <line x1="136.3585" y1="74.6899" x2="133.0190" y2="54.7750" stroke="#595959"
     style="stroke-width:2;stroke-miterlimit:4;stroke-dasharray:1,1;stroke-dashoffset:0" />
  <line x1="133.0190" y1="54.7750" x2="151.9326" y2="61.1121" stroke="#595959"
     style="stroke-width:2;stroke-miterlimit:4;stroke-dasharray:1,1;stroke-dashoffset:0" />
  <line x1="151.9326" y1="61.1121" x2="168.5095" y2="72.8515" stroke="#595959"
     style="stroke-width:2;stroke-miterlimit:4;stroke-dasharray:1,1;stroke-dashoffset:0" />
  <line x1="168.5095" y1="72.8515" x2="185.5149" y2="83.1074" stroke="#595959"
     style="stroke-width:2;stroke-miterlimit:4;stroke-dasharray:1,1;stroke-dashoffset:0" />
  <line x1="185.5149" y1="83.1074" x2="169.5606" y2="95.1392" stroke="#595959"
     style="stroke-width:2;stroke-miterlimit:4;stroke-dasharray:1,1;stroke-dashoffset:0" />
  <line x1="170.1856" y1="198.3847" x2="169.6865" y2="218.5191" stroke="#595959"
     style="stroke-width:2;stroke-miterlimit:4;stroke-dasharray:1,1;stroke-dashoffset:0" />
  <line x1="138.2316" y1="157.6254" x2="170.7245" y2="157.6441" stroke="#df7200" stroke-width="1.0" />
  <circle cx="154.4780" cy="157.6347" r="2.25" stroke="#df7200" stroke-width="1.0" fill="#df7200"/>
  <line x1="138.2182" y1="138.9155" x2="170.6020" y2="138.5753" stroke="#f1b400" stroke-width="1.0" />
  <circle cx="154.4101" cy="138.7454" r="2.25" stroke="#f1b400" stroke-width="1.0" fill="#f1b400"/>
  <line x1="137.2712" y1="94.6362" x2="169.5062" y2="93.5401" stroke="#de6e00" stroke-width="1.0" />
  <circle cx="153.3887" cy="94.0881" r="2.25" stroke="#de6e00" stroke-width="1.0" fill="#de6e00"/>
  <line x1="166.9112" y1="72.9269" x2="167.9623" y2="95.2145" stroke="#eeaa00" stroke-width="1.0" />
  <circle cx="170.9368" cy="84.0707" r="2.25" stroke="#eeaa00" stroke-width="1.0" fill="#eeaa00"
    transform="rotate(267.2999 167.4368 84.0707)" />
  <path d="M 165.6868 86.3207 L 165.6868 81.8207 L 161.6868 84.0707 z" style="stroke:#eeaa00;stroke-width:1.0" fill="#eeaa00" 
    transform="rotate(267.2999 167.4368 84.0707)"/>
  <line x1="136.1710" y1="257.9250" x2="136.6944" y2="237.9214" stroke="#cd4500" stroke-width="1.0" />
  <rect
     style="fill:#ffffff;fill-opacity:1;fill-rule:nonzero;stroke:none"
     width="2"
     height="2"
     x="135.9327"
     y="246.9232"
     transform="rotate(-88.5013 136.4327 247.9232)" /> 
  <path
     style="fill:none;stroke:#cd4500;stroke-width:1px;stroke-linecap:butt;stroke-linejoin:miter;stroke-opacity:1"
     d="m 136.4327,245.9232 2,2 -2,2 m -2.370121,-4 2,2 -2,2"
     transform="rotate(-88.5013 136.4327 247.9232)"/>
  <line x1="136.1457" y1="259.1748" x2="168.6609" y2="259.8341" stroke="#33003e" stroke-width="1.0" />
  <line x1="136.1964" y1="256.6753" x2="168.7116" y2="257.3346" stroke="#33003e" stroke-width="1.0" />
  <line x1="136.6944" y1="237.9214" x2="137.1996" y2="217.9039" stroke="#000000" stroke-width="1.0" />
  <rect
     style="fill:#ffffff;fill-opacity:1;fill-rule:nonzero;stroke:none"
     width="2"
     height="2"
     x="136.4470"
     y="226.9126"
     transform="rotate(-88.5542 136.9470 227.9126)" /> 
  <path
     style="fill:none;stroke:#000000;stroke-width:1px;stroke-linecap:butt;stroke-linejoin:miter;stroke-opacity:1"
     d="m 136.9470,225.9126 2,2 -2,2 m -2.370121,-4 2,2 -2,2"
     transform="rotate(-88.5542 136.9470 227.9126)"/>
  <line x1="136.6694" y1="239.1711" x2="169.1639" y2="239.8212" stroke="#270026" stroke-width="1.0" />
  <line x1="136.7194" y1="236.6716" x2="169.2139" y2="237.3217" stroke="#270026" stroke-width="1.0" />
  <line x1="136.6944" y1="237.9214" x2="168.6863" y2="258.5844" stroke="#eb9d00" stroke-width="1.0" />
  <rect
     style="fill:#ffffff;stroke:none"
     width="5.5"
     height="2"
     x="149.9403"
     y="247.2529" 
     transform="rotate(32.8577 152.6903 248.2529)"    /> 
  <path
     style="fill:none;stroke:#eb9d00;stroke-width:1px;stroke-linecap:butt;stroke-linejoin:miter;stroke-opacity:1"
    d="m 153.4403,246.2529 2,2 -2,2 m -1.5,-4 -2,2 2,2" transform="rotate(32.8577 152.6903 248.2529)"/>
  <line x1="137.1760" y1="219.1537" x2="169.6629" y2="219.7689" stroke="#200019" stroke-width="1.0" />
  <line x1="137.2233" y1="216.6541" x2="169.7102" y2="217.2693" stroke="#200019" stroke-width="1.0" />
  <line x1="137.6648" y1="197.8661" x2="138.0281" y2="177.7894" stroke="#9e0fa8" stroke-width="1.0" />
  <rect
     style="fill:#ffffff;fill-opacity:1;fill-rule:nonzero;stroke:none"
     width="2"
     height="2"
     x="137.3464"
     y="186.8277"
     transform="rotate(-88.9633 137.8464 187.8277)" /> 
  <path
     style="fill:none;stroke:#9e0fa8;stroke-width:1px;stroke-linecap:butt;stroke-linejoin:miter;stroke-opacity:1"
     d="m 137.8464,185.8277 2,2 -2,2 m -2.370121,-4 2,2 -2,2"
     transform="rotate(-88.9633 137.8464 187.8277)"/>
  <line x1="137.6648" y1="197.8661" x2="170.1856" y2="198.3847" stroke="#3c0057" stroke-width="1.0" />
  <line x1="137.6648" y1="197.8661" x2="169.6865" y2="218.5191" stroke="#17000d" stroke-width="1.0" />
  <rect
     style="fill:#ffffff;stroke:none"
     width="5.5"
     height="2"
     x="150.9257"
     y="207.1926" 
     transform="rotate(32.8207 153.6757 208.1926)"    /> 
  <path
     style="fill:none;stroke:#17000d;stroke-width:1px;stroke-linecap:butt;stroke-linejoin:miter;stroke-opacity:1"
    d="m 154.4257,206.1926 2,2 -2,2 m -1.5,-4 -2,2 2,2" transform="rotate(32.8207 153.6757 208.1926)"/>
  <line x1="138.0281" y1="177.7894" x2="138.2316" y2="157.6254" stroke="#8204ff" stroke-width="1.0" />
  <rect
     style="fill:#ffffff;fill-opacity:1;fill-rule:nonzero;stroke:none"
     width="2"
     height="2"
     x="137.6298"
     y="166.7074"
     transform="rotate(-89.4218 138.1298 167.7074)" /> 
  <path
     style="fill:none;stroke:#8204ff;stroke-width:1px;stroke-linecap:butt;stroke-linejoin:miter;stroke-opacity:1"
     d="m 138.1298,165.7074 2,2 -2,2 m -2.370121,-4 2,2 -2,2"
     transform="rotate(-89.4218 138.1298 167.7074)"/>
  <line x1="138.0158" y1="179.0393" x2="170.5311" y2="179.3576" stroke="#400062" stroke-width="1.0" />
  <line x1="138.0403" y1="176.5394" x2="170.5555" y2="176.8578" stroke="#400062" stroke-width="1.0" />
  <line x1="138.2316" y1="157.6254" x2="138.2014" y2="137.3156" stroke="#980bca" stroke-width="1.0" />
  <rect
     style="fill:#ffffff;fill-opacity:1;fill-rule:nonzero;stroke:none"
     width="2"
     height="2"
     x="137.7165"
     y="146.4705"
     transform="rotate(269.9149 138.2165 147.4705)" /> 
  <path
     style="fill:none;stroke:#980bca;stroke-width:1px;stroke-linecap:butt;stroke-linejoin:miter;stroke-opacity:1"
     d="m 138.2165,145.4705 2,2 -2,2 m -2.370121,-4 2,2 -2,2"
     transform="rotate(269.9149 138.2165 147.4705)"/>
  <line x1="138.2014" y1="137.3156" x2="137.8218" y2="116.8291" stroke="#960bd2" stroke-width="1.0" />
  <rect
     style="fill:#ffffff;fill-opacity:1;fill-rule:nonzero;stroke:none"
     width="2"
     height="2"
     x="137.5116"
     y="126.0723"
     transform="rotate(268.9386 138.0116 127.0723)" /> 
  <path
     style="fill:none;stroke:#960bd2;stroke-width:1px;stroke-linecap:butt;stroke-linejoin:miter;stroke-opacity:1"
     d="m 138.0116,125.0723 2,2 -2,2 m -2.370121,-4 2,2 -2,2"
     transform="rotate(268.9386 138.0116 127.0723)"/>
  <line x1="138.1846" y1="135.7157" x2="170.5684" y2="135.3755" stroke="#6f02ec" stroke-width="1.0" />
  <line x1="137.8218" y1="116.8291" x2="137.3256" y2="96.2353" stroke="#7102f1" stroke-width="1.0" />
  <rect
     style="fill:#ffffff;fill-opacity:1;fill-rule:nonzero;stroke:none"
     width="2"
     height="2"
     x="137.0737"
     y="105.5322"
     transform="rotate(268.6197 137.5737 106.5322)" /> 
  <path
     style="fill:none;stroke:#7102f1;stroke-width:1px;stroke-linecap:butt;stroke-linejoin:miter;stroke-opacity:1"
     d="m 137.5737,104.5322 2,2 -2,2 m -2.370121,-4 2,2 -2,2"
     transform="rotate(268.6197 137.5737 106.5322)"/>
  <line x1="137.8490" y1="118.0788" x2="170.1936" y2="117.3767" stroke="#33003e" stroke-width="1.0" />
  <line x1="137.7947" y1="115.5794" x2="170.1393" y2="114.8773" stroke="#33003e" stroke-width="1.0" />
  <line x1="137.8218" y1="116.8291" x2="170.5852" y2="136.9754" stroke="#eeaa00" stroke-width="1.0" />
  <rect
     style="fill:#ffffff;stroke:none"
     width="5.5"
     height="2"
     x="151.4535"
     y="125.9022" 
     transform="rotate(31.5875 154.2035 126.9022)"    /> 
  <path
     style="fill:none;stroke:#eeaa00;stroke-width:1px;stroke-linecap:butt;stroke-linejoin:miter;stroke-opacity:1"
    d="m 154.9535,124.9022 2,2 -2,2 m -1.5,-4 -2,2 2,2" transform="rotate(31.5875 154.2035 126.9022)"/>
  <line x1="137.3256" y1="96.2353" x2="136.3585" y2="74.6899" stroke="#db6700" stroke-width="1.0" />
  <rect
     style="fill:#ffffff;fill-opacity:1;fill-rule:nonzero;stroke:none"
     width="2"
     height="2"
     x="136.3421"
     y="84.4626"
     transform="rotate(267.4299 136.8421 85.4626)" /> 
  <path
     style="fill:none;stroke:#db6700;stroke-width:1px;stroke-linecap:butt;stroke-linejoin:miter;stroke-opacity:1"
     d="m 136.8421,83.4626 2,2 -2,2 m -2.370121,-4 2,2 -2,2"
     transform="rotate(267.4299 136.8421 85.4626)"/>
  <line x1="137.3800" y1="97.8344" x2="169.6149" y2="96.7382" stroke="#8405fd" stroke-width="1.0" />
  <line x1="137.3256" y1="96.2353" x2="170.1664" y2="116.1270" stroke="#efaf00" stroke-width="1.0" />
  <rect
     style="fill:#ffffff;stroke:none"
     width="5.5"
     height="2"
     x="150.9960"
     y="105.1812" 
     transform="rotate(31.2034 153.7460 106.1812)"    /> 
  <path
     style="fill:none;stroke:#efaf00;stroke-width:1px;stroke-linecap:butt;stroke-linejoin:miter;stroke-opacity:1"
    d="m 154.4960,104.1812 2,2 -2,2 m -1.5,-4 -2,2 2,2" transform="rotate(31.2034 153.7460 106.1812)"/>
  <line x1="136.3585" y1="74.6899" x2="151.9326" y2="61.1121" stroke="#000000" stroke-width="1.0" />
  <rect
     style="fill:#ffffff;fill-opacity:1;fill-rule:nonzero;stroke:none"
     width="2"
     height="2"
     x="143.6456"
     y="66.9010"
     transform="rotate(-41.0826 144.1456 67.9010)" /> 
  <path
     style="fill:none;stroke:#000000;stroke-width:1px;stroke-linecap:butt;stroke-linejoin:miter;stroke-opacity:1"
     d="m 144.1456,65.9010 2,2 -2,2 m -2.370121,-4 2,2 -2,2"
     transform="rotate(-41.0826 144.1456 67.9010)"/>
  <line x1="136.3585" y1="74.6899" x2="168.5095" y2="72.8515" stroke="#37004b" stroke-width="1.0" />
  <circle cx="155.9340" cy="73.7707" r="2.25" stroke="#37004b" stroke-width="1.0" fill="#ffffff"
    transform="rotate(-3.2726 152.4340 73.7707)" />
  <path d="M 150.6840 76.0207 L 150.6840 71.5207 L 146.6840 73.7707 z" style="stroke:#37004b;stroke-width:1.0" fill="#ffffff" 
    transform="rotate(-3.2726 152.4340 73.7707)"/>
  <line x1="136.3585" y1="74.6899" x2="169.5606" y2="95.1392" stroke="#e27c00" stroke-width="1.0" />
  <rect
     style="fill:#ffffff;stroke:none"
     width="5.5"
     height="2"
     x="150.2095"
     y="83.9145" 
     transform="rotate(31.6290 152.9595 84.9145)"    /> 
  <path
     style="fill:none;stroke:#e27c00;stroke-width:1px;stroke-linecap:butt;stroke-linejoin:miter;stroke-opacity:1"
    d="m 153.7095,82.9145 2,2 -2,2 m -1.5,-4 -2,2 2,2" transform="rotate(31.6290 152.9595 84.9145)"/>
  <line x1="170.1077" y1="72.7762" x2="171.1588" y2="95.0638" stroke="#e38000" stroke-width="1.0" />
  <rect
     style="fill:#ffffff;stroke:none"
     width="5.5"
     height="2"
     x="167.8832"
     y="82.9200" 
     transform="rotate(87.2999 170.6332 83.9200)"    /> 
  <path
     style="fill:none;stroke:#e38000;stroke-width:1px;stroke-linecap:butt;stroke-linejoin:miter;stroke-opacity:1"
    d="m 171.3832,81.9200 2,2 -2,2 m -1.5,-4 -2,2 2,2" transform="rotate(87.2999 170.6332 83.9200)"/>
  <line x1="169.5606" y1="95.1392" x2="170.1664" y2="116.1270" stroke="#da6400" stroke-width="1.0" />
  <rect
     style="fill:#ffffff;fill-opacity:1;fill-rule:nonzero;stroke:none"
     width="2"
     height="2"
     x="169.3635"
     y="104.6331"
     transform="rotate(88.3464 169.8635 105.6331)" /> 
  <path
     style="fill:none;stroke:#da6400;stroke-width:1px;stroke-linecap:butt;stroke-linejoin:miter;stroke-opacity:1"
     d="m 169.8635,103.6331 2,2 -2,2 m -2.370121,-4 2,2 -2,2"
     transform="rotate(88.3464 169.8635 105.6331)"/>
  <line x1="170.1664" y1="116.1270" x2="170.5852" y2="136.9754" stroke="#bc2900" stroke-width="1.0" />
  <rect
     style="fill:#ffffff;fill-opacity:1;fill-rule:nonzero;stroke:none"
     width="2"
     height="2"
     x="169.8758"
     y="125.5512"
     transform="rotate(88.8492 170.3758 126.5512)" /> 
  <path
     style="fill:none;stroke:#bc2900;stroke-width:1px;stroke-linecap:butt;stroke-linejoin:miter;stroke-opacity:1"
     d="m 170.3758,124.5512 2,2 -2,2 m -2.370121,-4 2,2 -2,2"
     transform="rotate(88.8492 170.3758 126.5512)"/>
  <line x1="170.5852" y1="136.9754" x2="170.7245" y2="157.6441" stroke="#980bca" stroke-width="1.0" />
  <rect
     style="fill:#ffffff;fill-opacity:1;fill-rule:nonzero;stroke:none"
     width="2"
     height="2"
     x="170.1549"
     y="146.3097"
     transform="rotate(89.6139 170.6549 147.3097)" /> 
  <path
     style="fill:none;stroke:#980bca;stroke-width:1px;stroke-linecap:butt;stroke-linejoin:miter;stroke-opacity:1"
     d="m 170.6549,145.3097 2,2 -2,2 m -2.370121,-4 2,2 -2,2"
     transform="rotate(89.6139 170.6549 147.3097)"/>
  <line x1="170.7245" y1="157.6441" x2="170.5433" y2="178.1077" stroke="#c53700" stroke-width="1.0" />
  <rect
     style="fill:#ffffff;fill-opacity:1;fill-rule:nonzero;stroke:none"
     width="2"
     height="2"
     x="170.1339"
     y="166.8759"
     transform="rotate(90.5073 170.6339 167.8759)" /> 
  <path
     style="fill:none;stroke:#c53700;stroke-width:1px;stroke-linecap:butt;stroke-linejoin:miter;stroke-opacity:1"
     d="m 170.6339,165.8759 2,2 -2,2 m -2.370121,-4 2,2 -2,2"
     transform="rotate(90.5073 170.6339 167.8759)"/>
  <line x1="170.5433" y1="178.1077" x2="170.1856" y2="198.3847" stroke="#9e0fa8" stroke-width="1.0" />
  <rect
     style="fill:#ffffff;fill-opacity:1;fill-rule:nonzero;stroke:none"
     width="2"
     height="2"
     x="169.8644"
     y="187.2462"
     transform="rotate(91.0107 170.3644 188.2462)" /> 
  <path
     style="fill:none;stroke:#9e0fa8;stroke-width:1px;stroke-linecap:butt;stroke-linejoin:miter;stroke-opacity:1"
     d="m 170.3644,186.2462 2,2 -2,2 m -2.370121,-4 2,2 -2,2"
     transform="rotate(91.0107 170.3644 188.2462)"/>
  <line x1="169.6865" y1="218.5191" x2="169.1889" y2="238.5715" stroke="#000000" stroke-width="1.0" />
  <rect
     style="fill:#ffffff;fill-opacity:1;fill-rule:nonzero;stroke:none"
     width="2"
     height="2"
     x="168.9377"
     y="227.5453"
     transform="rotate(91.4216 169.4377 228.5453)" /> 
  <path
     style="fill:none;stroke:#000000;stroke-width:1px;stroke-linecap:butt;stroke-linejoin:miter;stroke-opacity:1"
     d="m 169.4377,226.5453 2,2 -2,2 m -2.370121,-4 2,2 -2,2"
     transform="rotate(91.4216 169.4377 228.5453)"/>
  <line x1="169.1889" y1="238.5715" x2="168.6863" y2="258.5844" stroke="#a21194" stroke-width="1.0" />
  <rect
     style="fill:#ffffff;fill-opacity:1;fill-rule:nonzero;stroke:none"
     width="2"
     height="2"
     x="168.4376"
     y="247.5779"
     transform="rotate(91.4387 168.9376 248.5779)" /> 
  <path
     style="fill:none;stroke:#a21194;stroke-width:1px;stroke-linecap:butt;stroke-linejoin:miter;stroke-opacity:1"
     d="m 168.9376,246.5779 2,2 -2,2 m -2.370121,-4 2,2 -2,2"
     transform="rotate(91.4387 168.9376 248.5779)"/>
<circle cx="136.1710" cy="257.9250" r="5.0" stroke="#595959" stroke-width="1.0" fill="#ffffff"/>
<text x="136.1710" y="260.6250" text-anchor="middle" font-family="Helvetica" font-size="7.5" fill="#000000" >G</text>
<circle cx="136.6944" cy="237.9214" r="5.0" stroke="#595959" stroke-width="1.0" fill="#ffffff"/>
<text x="136.6944" y="240.6214" text-anchor="middle" font-family="Helvetica" font-size="7.5" fill="#000000" >G</text>
<circle cx="137.1996" cy="217.9039" r="5.0" stroke="#595959" stroke-width="1.0" fill="#ffffff"/>
<text x="137.1996" y="220.6039" text-anchor="middle" font-family="Helvetica" font-size="7.5" fill="#000000" >C</text>
<circle cx="137.6648" cy="197.8661" r="5.0" stroke="#595959" stroke-width="1.0" fill="#ffffff"/>
<text x="137.6648" y="200.5661" text-anchor="middle" font-family="Helvetica" font-size="7.5" fill="#000000" >A</text>
<circle cx="138.0281" cy="177.7894" r="5.0" stroke="#595959" stroke-width="1.0" fill="#ffffff"/>
<text x="138.0281" y="180.4894" text-anchor="middle" font-family="Helvetica" font-size="7.5" fill="#000000" >G</text>
<circle cx="138.2316" cy="157.6254" r="5.0" stroke="#595959" stroke-width="1.0" fill="#ffffff"/>
<text x="138.2316" y="160.3254" text-anchor="middle" font-family="Helvetica" font-size="7.5" fill="#000000" >A</text>
<circle cx="138.2014" cy="137.3156" r="5.0" stroke="#595959" stroke-width="1.0" fill="#ffffff"/>
<text x="138.2014" y="140.0156" text-anchor="middle" font-family="Helvetica" font-size="7.5" fill="#000000" >U</text>
<circle cx="137.8218" cy="116.8291" r="5.0" stroke="#595959" stroke-width="1.0" fill="#ffffff"/>
<text x="137.8218" y="119.5291" text-anchor="middle" font-family="Helvetica" font-size="7.5" fill="#000000" >C</text>
<circle cx="137.3256" cy="96.2353" r="5.0" stroke="#595959" stroke-width="1.0" fill="#ffffff"/>
<text x="137.3256" y="98.9353" text-anchor="middle" font-family="Helvetica" font-size="7.5" fill="#000000" >U</text>
<circle cx="136.3585" cy="74.6899" r="5.0" stroke="#595959" stroke-width="1.0" fill="#ffffff"/>
<text x="136.3585" y="77.3899" text-anchor="middle" font-family="Helvetica" font-size="7.5" fill="#000000" >G</text>
<circle cx="133.0190" cy="54.7750" r="5.0" stroke="#595959" stroke-width="1.0" fill="#ffffff"/>
<text x="133.0190" y="57.4750" text-anchor="middle" font-family="Helvetica" font-size="7.5" fill="#000000" >U</text>
<circle cx="151.9326" cy="61.1121" r="5.0" stroke="#595959" stroke-width="1.0" fill="#ffffff"/>
<text x="151.9326" y="63.8121" text-anchor="middle" font-family="Helvetica" font-size="7.5" fill="#000000" >A</text>
<circle cx="168.5095" cy="72.8515" r="5.0" stroke="#595959" stroke-width="1.0" fill="#ffffff"/>
<text x="168.5095" y="75.5515" text-anchor="middle" font-family="Helvetica" font-size="7.5" fill="#000000" >A</text>
<circle cx="185.5149" cy="83.1074" r="5.0" stroke="#595959" stroke-width="1.0" fill="#ffffff"/>
<text x="185.5149" y="85.8074" text-anchor="middle" font-family="Helvetica" font-size="7.5" fill="#000000" >U</text>
<circle cx="169.5606" cy="95.1392" r="5.0" stroke="#595959" stroke-width="1.0" fill="#ffffff"/>
<text x="169.5606" y="97.8392" text-anchor="middle" font-family="Helvetica" font-size="7.5" fill="#000000" >A</text>
<circle cx="170.1664" cy="116.1270" r="5.0" stroke="#595959" stroke-width="1.0" fill="#ffffff"/>
<text x="170.1664" y="118.8270" text-anchor="middle" font-family="Helvetica" font-size="7.5" fill="#000000" >G</text>
<circle cx="170.5852" cy="136.9754" r="5.0" stroke="#595959" stroke-width="1.0" fill="#ffffff"/>
<text x="170.5852" y="139.6754" text-anchor="middle" font-family="Helvetica" font-size="7.5" fill="#000000" >A</text>
<circle cx="170.7245" cy="157.6441" r="5.0" stroke="#595959" stroke-width="1.0" fill="#ffffff"/>
<text x="170.7245" y="160.3441" text-anchor="middle" font-family="Helvetica" font-size="7.5" fill="#000000" >A</text>
<circle cx="170.5433" cy="178.1077" r="5.0" stroke="#595959" stroke-width="1.0" fill="#ffffff"/>
<text x="170.5433" y="180.8077" text-anchor="middle" font-family="Helvetica" font-size="7.5" fill="#000000" >C</text>
<circle cx="170.1856" cy="198.3847" r="5.0" stroke="#595959" stroke-width="1.0" fill="#ffffff"/>
<text x="170.1856" y="201.0847" text-anchor="middle" font-family="Helvetica" font-size="7.5" fill="#000000" >U</text>
<circle cx="169.6865" cy="218.5191" r="5.0" stroke="#595959" stroke-width="1.0" fill="#ffffff"/>
<text x="169.6865" y="221.2191" text-anchor="middle" font-family="Helvetica" font-size="7.5" fill="#000000" >G</text>
<circle cx="169.1889" cy="238.5715" r="5.0" stroke="#595959" stroke-width="1.0" fill="#ffffff"/>
<text x="169.1889" y="241.2715" text-anchor="middle" font-family="Helvetica" font-size="7.5" fill="#000000" >C</text>
<circle cx="168.6863" cy="258.5844" r="5.0" stroke="#595959" stroke-width="1.0" fill="#ffffff"/>
<text x="168.6863" y="261.2844" text-anchor="middle" font-family="Helvetica" font-size="7.5" fill="#000000" >C</text>
</svg>