<?xml version="1.0" encoding="UTF-8"?>
<!DOCTYPE svg PUBLIC "-//W3C//DTD SVG 1.1//EN" 
"http://www.w3.org/Graphics/SVG/1.1/DTD/svg11.dtd">

<svg version="1.1"
   width="308px"
   height="308px"
xmlns="http://www.w3.org/2000/svg">
    <rect width="100%" height="100%" fill="white"/>

  <line x1="136.3067" y1="217.6182" x2="136.7941" y2="197.6390" stroke="#595959"
     style="stroke-width:2;stroke-miterlimit:4;stroke-dasharray:1,1;stroke-dashoffset:0" />
  <line x1="139.8702" y1="56.8222" x2="159.7755" y2="55.1743" stroke="#595959"
     style="stroke-width:2;stroke-miterlimit:4;stroke-dasharray:1,1;stroke-dashoffset:0" />
  <line x1="159.7755" y1="55.1743" x2="167.7971" y2="74.0653" stroke="#595959"
     style="stroke-width:2;stroke-miterlimit:4;stroke-dasharray:1,1;stroke-dashoffset:0" />
  <line x1="167.7971" y1="74.0653" x2="185.2555" y2="83.5455" stroke="#595959"
     style="stroke-width:2;stroke-miterlimit:4;stroke-dasharray:1,1;stroke-dashoffset:0" />
  <line x1="185.2555" y1="83.5455" x2="169.0708" y2="95.3628" stroke="#595959"
     style="stroke-width:2;stroke-miterlimit:4;stroke-dasharray:1,1;stroke-dashoffset:0" />
  <line x1="169.5794" y1="198.3084" x2="168.9823" y2="218.3156" stroke="#595959"
     style="stroke-width:2;stroke-miterlimit:4;stroke-dasharray:1,1;stroke-dashoffset:0" />
  <line x1="138.8555" y1="177.6777" x2="139.1250" y2="157.6896" stroke="#c33200" stroke-width="1.0" />
  <path d="M 133.2402 169.9336 L 133.2402 165.4336 L 137.7402 165.4336 L 137.7402 169.9336 z" style="stroke:#c33200;stroke-width:1.0" fill="#c33200" 
    transform="rotate(90.7725 138.9902 167.6836)"/>
  <path d="M 140.7402 169.9336 L 140.7402 165.4336 L 144.7402 167.6836 z" style="stroke:#c33200;stroke-width:1.0" fill="#c33200"
    transform="rotate(90.7725 138.9902 167.6836)"/>
  <line x1="137.5251" y1="157.6680" x2="170.4101" y2="157.8469" stroke="#e89000" stroke-width="1.0" />
  <circle cx="153.9676" cy="157.7574" r="2.25" stroke="#e89000" stroke-width="1.0" fill="#e89000"/>
  <line x1="137.5251" y1="157.6680" x2="170.1053" y2="178.2040" stroke="#d35200" stroke-width="1.0" />
  <path d="M 148.0652 170.1860 L 148.0652 165.6860 L 152.5652 165.6860 L 152.5652 170.1860 z" style="stroke:#d35200;stroke-width:1.0" fill="#d35200" 
    transform="rotate(32.2240 153.8152 167.9360)"/>
  <path d="M 155.5652 170.1860 L 155.5652 165.6860 L 159.5652 167.9360 z" style="stroke:#d35200;stroke-width:1.0" fill="#d35200"
    transform="rotate(32.2240 153.8152 167.9360)"/>
  <line x1="138.2991" y1="136.2709" x2="171.2467" y2="156.4830" stroke="#d45500" stroke-width="1.0" />
  <circle cx="154.7729" cy="146.3770" r="2.25" stroke="#d45500" stroke-width="1.0" fill="#d45500"/>
  <line x1="137.4625" y1="137.6347" x2="170.1053" y2="178.2040" stroke="#eca100" stroke-width="1.0" />
  <circle cx="153.7839" cy="157.9193" r="2.25" stroke="#eca100" stroke-width="1.0" fill="#eca100"/>
  <line x1="134.9856" y1="76.3341" x2="167.7971" y2="74.0653" stroke="#000000" stroke-width="1.0" />
  <path d="M 145.6413 77.4497 L 145.6413 72.9497 L 150.1413 72.9497 L 150.1413 77.4497 z" style="stroke:#000000;stroke-width:1.0" fill="#000000" 
    transform="rotate(176.0445 151.3913 75.1997)"/>
  <path d="M 153.1413 77.4497 L 153.1413 72.9497 L 157.1413 75.1997 z" style="stroke:#000000;stroke-width:1.0" fill="#000000"
    transform="rotate(176.0445 151.3913 75.1997)"/>
  <line x1="168.7509" y1="137.2424" x2="168.8101" y2="157.8515" stroke="#c73900" stroke-width="1.0" />
  <path d="M 163.0305 149.7969 L 163.0305 145.2969 L 167.5305 145.2969 L 167.5305 149.7969 z" style="stroke:#c73900;stroke-width:1.0" fill="#c73900" 
    transform="rotate(269.8355 168.7805 147.5469)"/>
  <path d="M 170.5305 149.7969 L 170.5305 145.2969 L 174.5305 147.5469 z" style="stroke:#c73900;stroke-width:1.0" fill="#c73900"
    transform="rotate(269.8355 168.7805 147.5469)"/>
  <line x1="135.2594" y1="257.5832" x2="135.7717" y2="237.5977" stroke="#cc4200" stroke-width="1.0" />
  <rect
     style="fill:#ffffff;fill-opacity:1;fill-rule:nonzero;stroke:none"
     width="2"
     height="2"
     x="135.0156"
     y="246.5904"
     transform="rotate(-88.5318 135.5156 247.5904)" /> 
  <path
     style="fill:none;stroke:#cc4200;stroke-width:1px;stroke-linecap:butt;stroke-linejoin:miter;stroke-opacity:1"
     d="m 135.5156,245.5904 2,2 -2,2 m -2.370121,-4 2,2 -2,2"
     transform="rotate(-88.5318 135.5156 247.5904)"/>
  <line x1="135.2320" y1="258.8329" x2="167.8493" y2="259.5496" stroke="#44006e" stroke-width="1.0" />
  <line x1="135.2869" y1="256.3335" x2="167.9042" y2="257.0502" stroke="#44006e" stroke-width="1.0" />
  <line x1="135.7717" y1="237.5977" x2="136.3067" y2="217.6182" stroke="#000000" stroke-width="1.0" />
  <rect
     style="fill:#ffffff;fill-opacity:1;fill-rule:nonzero;stroke:none"
     width="2"
     height="2"
     x="135.5392"
     y="226.6079"
     transform="rotate(-88.4660 136.0392 227.6079)" /> 
  <path
     style="fill:none;stroke:#000000;stroke-width:1px;stroke-linecap:butt;stroke-linejoin:miter;stroke-opacity:1"
     d="m 136.0392,225.6079 2,2 -2,2 m -2.370121,-4 2,2 -2,2"
     transform="rotate(-88.4660 136.0392 227.6079)"/>
  <line x1="135.7445" y1="238.8474" x2="168.3838" y2="239.5573" stroke="#2d0032" stroke-width="1.0" />
  <line x1="135.7989" y1="236.3480" x2="168.4382" y2="237.0579" stroke="#2d0032" stroke-width="1.0" />
  <line x1="135.7717" y1="237.5977" x2="167.8767" y2="258.2999" stroke="#eda600" stroke-width="1.0" />
  <rect
     style="fill:#ffffff;stroke:none"
     width="5.5"
     height="2"
     x="149.0742"
     y="246.9488" 
     transform="rotate(32.8150 151.8242 247.9488)"    /> 
  <path
     style="fill:none;stroke:#eda600;stroke-width:1px;stroke-linecap:butt;stroke-linejoin:miter;stroke-opacity:1"
    d="m 152.5742,245.9488 2,2 -2,2 m -1.5,-4 -2,2 2,2" transform="rotate(32.8150 151.8242 247.9488)"/>
  <line x1="136.2800" y1="218.8679" x2="168.9557" y2="219.5654" stroke="#270026" stroke-width="1.0" />
  <line x1="136.3334" y1="216.3684" x2="169.0090" y2="217.0659" stroke="#270026" stroke-width="1.0" />
  <line x1="136.7941" y1="197.6390" x2="137.2556" y2="177.6561" stroke="#8605fc" stroke-width="1.0" />
  <rect
     style="fill:#ffffff;fill-opacity:1;fill-rule:nonzero;stroke:none"
     width="2"
     height="2"
     x="136.5249"
     y="186.6476"
     transform="rotate(-88.6771 137.0249 187.6476)" /> 
  <path
     style="fill:none;stroke:#8605fc;stroke-width:1px;stroke-linecap:butt;stroke-linejoin:miter;stroke-opacity:1"
     d="m 137.0249,185.6476 2,2 -2,2 m -2.370121,-4 2,2 -2,2"
     transform="rotate(-88.6771 137.0249 187.6476)"/>
  <line x1="136.7941" y1="197.6390" x2="169.5794" y2="198.3084" stroke="#44006e" stroke-width="1.0" />
  <line x1="136.7941" y1="197.6390" x2="168.9823" y2="218.3156" stroke="#270026" stroke-width="1.0" />
  <rect
     style="fill:#ffffff;stroke:none"
     width="5.5"
     height="2"
     x="150.1382"
     y="206.9773" 
     transform="rotate(32.7153 152.8882 207.9773)"    /> 
  <path
     style="fill:none;stroke:#270026;stroke-width:1px;stroke-linecap:butt;stroke-linejoin:miter;stroke-opacity:1"
    d="m 153.6382,205.9773 2,2 -2,2 m -1.5,-4 -2,2 2,2" transform="rotate(32.7153 152.8882 207.9773)"/>
  <line x1="135.6558" y1="177.6345" x2="135.9253" y2="157.6464" stroke="#c02e00" stroke-width="1.0" />
  <rect
     style="fill:#ffffff;fill-opacity:1;fill-rule:nonzero;stroke:none"
     width="2"
     height="2"
     x="135.2905"
     y="166.6405"
     transform="rotate(-89.2275 135.7905 167.6405)" /> 
  <path
     style="fill:none;stroke:#c02e00;stroke-width:1px;stroke-linecap:butt;stroke-linejoin:miter;stroke-opacity:1"
     d="m 135.7905,165.6405 2,2 -2,2 m -2.370121,-4 2,2 -2,2"
     transform="rotate(-89.2275 135.7905 167.6405)"/>
  <line x1="137.2348" y1="178.9059" x2="170.0845" y2="179.4538" stroke="#4e008f" stroke-width="1.0" />
  <line x1="137.2765" y1="176.4063" x2="170.1262" y2="176.9541" stroke="#4e008f" stroke-width="1.0" />
  <line x1="137.5251" y1="157.6680" x2="137.4625" y2="137.6347" stroke="#ab1751" stroke-width="1.0" />
  <rect
     style="fill:#ffffff;fill-opacity:1;fill-rule:nonzero;stroke:none"
     width="2"
     height="2"
     x="136.9938"
     y="146.6514"
     transform="rotate(269.8208 137.4938 147.6514)" /> 
  <path
     style="fill:none;stroke:#ab1751;stroke-width:1px;stroke-linecap:butt;stroke-linejoin:miter;stroke-opacity:1"
     d="m 137.4938,145.6514 2,2 -2,2 m -2.370121,-4 2,2 -2,2"
     transform="rotate(269.8208 137.4938 147.6514)"/>
  <line x1="137.4625" y1="137.6347" x2="137.0331" y2="117.4097" stroke="#7e04ff" stroke-width="1.0" />
  <rect
     style="fill:#ffffff;fill-opacity:1;fill-rule:nonzero;stroke:none"
     width="2"
     height="2"
     x="136.7478"
     y="126.5222"
     transform="rotate(268.7838 137.2478 127.5222)" /> 
  <path
     style="fill:none;stroke:#7e04ff;stroke-width:1px;stroke-linecap:butt;stroke-linejoin:miter;stroke-opacity:1"
     d="m 137.2478,125.5222 2,2 -2,2 m -2.370121,-4 2,2 -2,2"
     transform="rotate(268.7838 137.2478 127.5222)"/>
  <line x1="137.4625" y1="137.6347" x2="170.3509" y2="137.2378" stroke="#bb2700" stroke-width="1.0" />
  <line x1="136.6258" y1="138.9985" x2="169.5734" y2="159.2107" stroke="#eb9d00" stroke-width="1.0" />
  <line x1="137.0331" y1="117.4097" x2="136.2183" y2="96.9826" stroke="#8d07ef" stroke-width="1.0" />
  <rect
     style="fill:#ffffff;fill-opacity:1;fill-rule:nonzero;stroke:none"
     width="2"
     height="2"
     x="136.1257"
     y="106.1962"
     transform="rotate(267.7156 136.6257 107.1962)" /> 
  <path
     style="fill:none;stroke:#8d07ef;stroke-width:1px;stroke-linecap:butt;stroke-linejoin:miter;stroke-opacity:1"
     d="m 136.6257,105.1962 2,2 -2,2 m -2.370121,-4 2,2 -2,2"
     transform="rotate(267.7156 136.6257 107.1962)"/>
  <line x1="137.0720" y1="118.6591" x2="169.9418" y2="117.6359" stroke="#37004b" stroke-width="1.0" />
  <line x1="136.9942" y1="116.1603" x2="169.8640" y2="115.1371" stroke="#37004b" stroke-width="1.0" />
  <line x1="137.0331" y1="117.4097" x2="170.4101" y2="157.8469" stroke="#eb9d00" stroke-width="1.0" />
  <rect
     style="fill:#ffffff;stroke:none"
     width="5.5"
     height="2"
     x="150.9716"
     y="136.6283" 
     transform="rotate(50.4636 153.7216 137.6283)"    /> 
  <path
     style="fill:none;stroke:#eb9d00;stroke-width:1px;stroke-linecap:butt;stroke-linejoin:miter;stroke-opacity:1"
    d="m 154.4716,135.6283 2,2 -2,2 m -1.5,-4 -2,2 2,2" transform="rotate(50.4636 153.7216 137.6283)"/>
  <line x1="136.2183" y1="96.9826" x2="134.9856" y2="76.3341" stroke="#2d0032" stroke-width="1.0" />
  <rect
     style="fill:#ffffff;fill-opacity:1;fill-rule:nonzero;stroke:none"
     width="2"
     height="2"
     x="135.1019"
     y="85.6584"
     transform="rotate(266.5835 135.6019 86.6584)" /> 
  <path
     style="fill:none;stroke:#2d0032;stroke-width:1px;stroke-linecap:butt;stroke-linejoin:miter;stroke-opacity:1"
     d="m 135.6019,84.6584 2,2 -2,2 m -2.370121,-4 2,2 -2,2"
     transform="rotate(266.5835 135.6019 86.6584)"/>
  <line x1="136.2183" y1="96.9826" x2="169.0708" y2="95.3628" stroke="#400062" stroke-width="1.0" />
  <line x1="136.2183" y1="96.9826" x2="169.9029" y2="116.3865" stroke="#e68800" stroke-width="1.0" />
  <rect
     style="fill:#ffffff;stroke:none"
     width="5.5"
     height="2"
     x="150.3106"
     y="105.6846" 
     transform="rotate(29.9439 153.0606 106.6846)"    /> 
  <path
     style="fill:none;stroke:#e68800;stroke-width:1px;stroke-linecap:butt;stroke-linejoin:miter;stroke-opacity:1"
    d="m 153.8106,104.6846 2,2 -2,2 m -1.5,-4 -2,2 2,2" transform="rotate(29.9439 153.0606 106.6846)"/>
  <line x1="134.9856" y1="76.3341" x2="139.8702" y2="56.8222" stroke="#e99400" stroke-width="1.0" />
  <rect
     style="fill:#ffffff;fill-opacity:1;fill-rule:nonzero;stroke:none"
     width="2"
     height="2"
     x="136.9279"
     y="65.5781"
     transform="rotate(-75.9453 137.4279 66.5781)" /> 
  <path
     style="fill:none;stroke:#e99400;stroke-width:1px;stroke-linecap:butt;stroke-linejoin:miter;stroke-opacity:1"
     d="m 137.4279,64.5781 2,2 -2,2 m -2.370121,-4 2,2 -2,2"
     transform="rotate(-75.9453 137.4279 66.5781)"/>
  <line x1="167.7971" y1="74.0653" x2="169.0708" y2="95.3628" stroke="#44006e" stroke-width="1.0" />
  <rect
     style="fill:#ffffff;fill-opacity:1;fill-rule:nonzero;stroke:none"
     width="2"
     height="2"
     x="167.9339"
     y="83.7140"
     transform="rotate(86.5775 168.4339 84.7140)" /> 
  <path
     style="fill:none;stroke:#44006e;stroke-width:1px;stroke-linecap:butt;stroke-linejoin:miter;stroke-opacity:1"
     d="m 168.4339,82.7140 2,2 -2,2 m -2.370121,-4 2,2 -2,2"
     transform="rotate(86.5775 168.4339 84.7140)"/>
  <line x1="169.0708" y1="95.3628" x2="169.9029" y2="116.3865" stroke="#c33200" stroke-width="1.0" />
  <rect
     style="fill:#ffffff;fill-opacity:1;fill-rule:nonzero;stroke:none"
     width="2"
     height="2"
     x="168.9869"
     y="104.8747"
     transform="rotate(87.7334 169.4869 105.8747)" /> 
  <path
     style="fill:none;stroke:#c33200;stroke-width:1px;stroke-linecap:butt;stroke-linejoin:miter;stroke-opacity:1"
     d="m 169.4869,103.8747 2,2 -2,2 m -2.370121,-4 2,2 -2,2"
     transform="rotate(87.7334 169.4869 105.8747)"/>
  <line x1="169.9029" y1="116.3865" x2="170.3509" y2="137.2378" stroke="#8004ff" stroke-width="1.0" />
  <rect
     style="fill:#ffffff;fill-opacity:1;fill-rule:nonzero;stroke:none"
     width="2"
     height="2"
     x="169.6269"
     y="125.8122"
     transform="rotate(88.7691 170.1269 126.8122)" /> 
  <path
     style="fill:none;stroke:#8004ff;stroke-width:1px;stroke-linecap:butt;stroke-linejoin:miter;stroke-opacity:1"
     d="m 170.1269,124.8122 2,2 -2,2 m -2.370121,-4 2,2 -2,2"
     transform="rotate(88.7691 170.1269 126.8122)"/>
  <line x1="171.9509" y1="137.2332" x2="172.0101" y2="157.8423" stroke="#c43500" stroke-width="1.0" />
  <rect
     style="fill:#ffffff;fill-opacity:1;fill-rule:nonzero;stroke:none"
     width="2"
     height="2"
     x="171.4805"
     y="146.5378"
     transform="rotate(89.8355 171.9805 147.5378)" /> 
  <path
     style="fill:none;stroke:#c43500;stroke-width:1px;stroke-linecap:butt;stroke-linejoin:miter;stroke-opacity:1"
     d="m 171.9805,145.5378 2,2 -2,2 m -2.370121,-4 2,2 -2,2"
     transform="rotate(89.8355 171.9805 147.5378)"/>
  <line x1="170.4101" y1="157.8469" x2="170.1053" y2="178.2040" stroke="#8204ff" stroke-width="1.0" />
  <rect
     style="fill:#ffffff;fill-opacity:1;fill-rule:nonzero;stroke:none"
     width="2"
     height="2"
     x="169.7577"
     y="167.0254"
     transform="rotate(90.8577 170.2577 168.0254)" /> 
  <path
     style="fill:none;stroke:#8204ff;stroke-width:1px;stroke-linecap:butt;stroke-linejoin:miter;stroke-opacity:1"
     d="m 170.2577,166.0254 2,2 -2,2 m -2.370121,-4 2,2 -2,2"
     transform="rotate(90.8577 170.2577 168.0254)"/>
  <line x1="170.1053" y1="178.2040" x2="169.5794" y2="198.3084" stroke="#b92500" stroke-width="1.0" />
  <rect
     style="fill:#ffffff;fill-opacity:1;fill-rule:nonzero;stroke:none"
     width="2"
     height="2"
     x="169.3424"
     y="187.2562"
     transform="rotate(91.4985 169.8424 188.2562)" /> 
  <path
     style="fill:none;stroke:#b92500;stroke-width:1px;stroke-linecap:butt;stroke-linejoin:miter;stroke-opacity:1"
     d="m 169.8424,186.2562 2,2 -2,2 m -2.370121,-4 2,2 -2,2"
     transform="rotate(91.4985 169.8424 188.2562)"/>
  <line x1="168.9823" y1="218.3156" x2="168.4110" y2="238.3076" stroke="#000000" stroke-width="1.0" />
  <rect
     style="fill:#ffffff;fill-opacity:1;fill-rule:nonzero;stroke:none"
     width="2"
     height="2"
     x="168.1967"
     y="227.3116"
     transform="rotate(91.6370 168.6967 228.3116)" /> 
  <path
     style="fill:none;stroke:#000000;stroke-width:1px;stroke-linecap:butt;stroke-linejoin:miter;stroke-opacity:1"
     d="m 168.6967,226.3116 2,2 -2,2 m -2.370121,-4 2,2 -2,2"
     transform="rotate(91.6370 168.6967 228.3116)"/>
  <line x1="168.4110" y1="238.3076" x2="167.8767" y2="258.2999" stroke="#9e0fa8" stroke-width="1.0" />
  <rect
     style="fill:#ffffff;fill-opacity:1;fill-rule:nonzero;stroke:none"
     width="2"
     height="2"
     x="167.6439"
     y="247.3037"
     transform="rotate(91.5308 168.1439 248.3037)" /> 
  <path
     style="fill:none;stroke:#9e0fa8;stroke-width:1px;stroke-linecap:butt;stroke-linejoin:miter;stroke-opacity:1"
     d="m 168.1439,246.3037 2,2 -2,2 m -2.370121,-4 2,2 -2,2"
     transform="rotate(91.5308 168.1439 248.3037)"/>
<circle cx="135.2594" cy="257.5832" r="5.0" stroke="#595959" stroke-width="1.0" fill="#ffffff"/>
<text x="135.2594" y="260.2832" text-anchor="middle" font-family="Helvetica" font-size="7.5" fill="#000000" >G</text>
<circle cx="135.7717" cy="237.5977" r="5.0" stroke="#595959" stroke-width="1.0" fill="#ffffff"/>
<text x="135.7717" y="240.2977" text-anchor="middle" font-family="Helvetica" font-size="7.5" fill="#000000" >G</text>
<circle cx="136.3067" cy="217.6182" r="5.0" stroke="#595959" stroke-width="1.0" fill="#ffffff"/>
<text x="136.3067" y="220.3182" text-anchor="middle" font-family="Helvetica" font-size="7.5" fill="#000000" >C</text>
<circle cx="136.7941" cy="197.6390" r="5.0" stroke="#595959" stroke-width="1.0" fill="#ffffff"/>
<text x="136.7941" y="200.3390" text-anchor="middle" font-family="Helvetica" font-size="7.5" fill="#000000" >A</text>
<circle cx="137.2556" cy="177.6561" r="5.0" stroke="#595959" stroke-width="1.0" fill="#ffffff"/>
<text x="137.2556" y="180.3561" text-anchor="middle" font-family="Helvetica" font-size="7.5" fill="#000000" >G</text>
<circle cx="137.5251" cy="157.6680" r="5.0" stroke="#595959" stroke-width="1.0" fill="#ffffff"/>
<text x="137.5251" y="160.3680" text-anchor="middle" font-family="Helvetica" font-size="7.5" fill="#000000" >A</text>
<circle cx="137.4625" cy="137.6347" r="5.0" stroke="#595959" stroke-width="1.0" fill="#ffffff"/>
<text x="137.4625" y="140.3347" text-anchor="middle" font-family="Helvetica" font-size="7.5" fill="#000000" >U</text>
<circle cx="137.0331" cy="117.4097" r="5.0" stroke="#595959" stroke-width="1.0" fill="#ffffff"/>
<text x="137.0331" y="120.1097" text-anchor="middle" font-family="Helvetica" font-size="7.5" fill="#000000" >C</text>
<circle cx="136.2183" cy="96.9826" r="5.0" stroke="#595959" stroke-width="1.0" fill="#ffffff"/>
<text x="136.2183" y="99.6826" text-anchor="middle" font-family="Helvetica" font-size="7.5" fill="#000000" >U</text>
<circle cx="134.9856" cy="76.3341" r="5.0" stroke="#595959" stroke-width="1.0" fill="#ffffff"/>
<text x="134.9856" y="79.0341" text-anchor="middle" font-family="Helvetica" font-size="7.5" fill="#000000" >G</text>
<circle cx="139.8702" cy="56.8222" r="5.0" stroke="#595959" stroke-width="1.0" fill="#ffffff"/>
<text x="139.8702" y="59.5222" text-anchor="middle" font-family="Helvetica" font-size="7.5" fill="#000000" >U</text>
<circle cx="159.7755" cy="55.1743" r="5.0" stroke="#595959" stroke-width="1.0" fill="#ffffff"/>
<text x="159.7755" y="57.8743" text-anchor="middle" font-family="Helvetica" font-size="7.5" fill="#000000" >A</text>
<circle cx="167.7971" cy="74.0653" r="5.0" stroke="#595959" stroke-width="1.0" fill="#ffffff"/>
<text x="167.7971" y="76.7653" text-anchor="middle" font-family="Helvetica" font-size="7.5" fill="#000000" >A</text>
<circle cx="185.2555" cy="83.5455" r="5.0" stroke="#595959" stroke-width="1.0" fill="#ffffff"/>
<text x="185.2555" y="86.2455" text-anchor="middle" font-family="Helvetica" font-size="7.5" fill="#000000" >U</text>
<circle cx="169.0708" cy="95.3628" r="5.0" stroke="#595959" stroke-width="1.0" fill="#ffffff"/>
<text x="169.0708" y="98.0628" text-anchor="middle" font-family="Helvetica" font-size="7.5" fill="#000000" >A</text>
<circle cx="169.9029" cy="116.3865" r="5.0" stroke="#595959" stroke-width="1.0" fill="#ffffff"/>
<text x="169.9029" y="119.0865" text-anchor="middle" font-family="Helvetica" font-size="7.5" fill="#000000" >G</text>
<circle cx="170.3509" cy="137.2378" r="5.0" stroke="#595959" stroke-width="1.0" fill="#ffffff"/>
<text x="170.3509" y="139.9378" text-anchor="middle" font-family="Helvetica" font-size="7.5" fill="#000000" >A</text>
<circle cx="170.4101" cy="157.8469" r="5.0" stroke="#595959" stroke-width="1.0" fill="#ffffff"/>
<text x="170.4101" y="160.5469" text-anchor="middle" font-family="Helvetica" font-size="7.5" fill="#000000" >A</text>
<circle cx="170.1053" cy="178.2040" r="5.0" stroke="#595959" stroke-width="1.0" fill="#ffffff"/>
<text x="170.1053" y="180.9040" text-anchor="middle" font-family="Helvetica" font-size="7.5" fill="#000000" >C</text>
<circle cx="169.5794" cy="198.3084" r="5.0" stroke="#595959" stroke-width="1.0" fill="#ffffff"/>
<text x="169.5794" y="201.0084" text-anchor="middle" font-family="Helvetica" font-size="7.5" fill="#000000" >U</text>
<circle cx="168.9823" cy="218.3156" r="5.0" stroke="#595959" stroke-width="1.0" fill="#ffffff"/>
<text x="168.9823" y="221.0156" text-anchor="middle" font-family="Helvetica" font-size="7.5" fill="#000000" >G</text>
<circle cx="168.4110" cy="238.3076" r="5.0" stroke="#595959" stroke-width="1.0" fill="#ffffff"/>
<text x="168.4110" y="241.0076" text-anchor="middle" font-family="Helvetica" font-size="7.5" fill="#000000" >C</text>
<circle cx="167.8767" cy="258.2999" r="5.0" stroke="#595959" stroke-width="1.0" fill="#ffffff"/>
<text x="167.8767" y="260.9999" text-anchor="middle" font-family="Helvetica" font-size="7.5" fill="#000000" >C</text>
</svg>