<?xml version="1.0" encoding="UTF-8"?>
<!DOCTYPE svg PUBLIC "-//W3C//DTD SVG 1.1//EN" 
"http://www.w3.org/Graphics/SVG/1.1/DTD/svg11.dtd">

<svg version="1.1"
   width="182px"
   height="182px"
xmlns="http://www.w3.org/2000/svg">
    <rect width="100%" height="100%" fill="white"/>

  <line x1="73.6974" y1="110.3864" x2="73.8717" y2="90.4333" stroke="#595959"
     style="stroke-width:2;stroke-miterlimit:4;stroke-dasharray:1,1;stroke-dashoffset:0" />
  <line x1="73.7594" y1="70.4954" x2="73.9177" y2="50.5672" stroke="#595959"
     style="stroke-width:2;stroke-miterlimit:4;stroke-dasharray:1,1;stroke-dashoffset:0" />
  <line x1="73.9177" y1="50.5672" x2="83.4199" y2="33.0166" stroke="#595959"
     style="stroke-width:2;stroke-miterlimit:4;stroke-dasharray:1,1;stroke-dashoffset:0" />
  <line x1="83.4199" y1="33.0166" x2="103.3590" y2="34.1711" stroke="#595959"
     style="stroke-width:2;stroke-miterlimit:4;stroke-dasharray:1,1;stroke-dashoffset:0" />
  <line x1="103.3590" y1="34.1711" x2="113.4435" y2="51.4187" stroke="#595959"
     style="stroke-width:2;stroke-miterlimit:4;stroke-dasharray:1,1;stroke-dashoffset:0" />
  <line x1="113.4435" y1="51.4187" x2="106.5817" y2="70.2465" stroke="#595959"
     style="stroke-width:2;stroke-miterlimit:4;stroke-dasharray:1,1;stroke-dashoffset:0" />
  <line x1="106.7261" y1="90.4520" x2="106.6437" y2="110.6261" stroke="#595959"
     style="stroke-width:2;stroke-miterlimit:4;stroke-dasharray:1,1;stroke-dashoffset:0" />
  <line x1="72.9761" y1="150.3428" x2="73.3847" y2="130.3573" stroke="#d55800" stroke-width="1.0" />
  <rect
     style="fill:#ffffff;fill-opacity:1;fill-rule:nonzero;stroke:none"
     width="2"
     height="2"
     x="72.6804"
     y="139.3500"
     transform="rotate(-88.8287 73.1804 140.3500)" /> 
  <path
     style="fill:none;stroke:#d55800;stroke-width:1px;stroke-linecap:butt;stroke-linejoin:miter;stroke-opacity:1"
     d="m 73.1804,138.3500 2,2 -2,2 m -2.370121,-4 2,2 -2,2"
     transform="rotate(-88.8287 73.1804 140.3500)"/>
  <line x1="72.9602" y1="151.5927" x2="105.8848" y2="152.0102" stroke="#400062" stroke-width="1.0" />
  <line x1="72.9919" y1="149.0929" x2="105.9165" y2="149.5104" stroke="#400062" stroke-width="1.0" />
  <line x1="73.3847" y1="130.3573" x2="73.6974" y2="110.3864" stroke="#000000" stroke-width="1.0" />
  <rect
     style="fill:#ffffff;fill-opacity:1;fill-rule:nonzero;stroke:none"
     width="2"
     height="2"
     x="73.0410"
     y="119.3719"
     transform="rotate(-89.1030 73.5410 120.3719)" /> 
  <path
     style="fill:none;stroke:#000000;stroke-width:1px;stroke-linecap:butt;stroke-linejoin:miter;stroke-opacity:1"
     d="m 73.5410,118.3719 2,2 -2,2 m -2.370121,-4 2,2 -2,2"
     transform="rotate(-89.1030 73.5410 120.3719)"/>
  <line x1="73.3707" y1="131.6072" x2="106.3045" y2="131.9762" stroke="#270026" stroke-width="1.0" />
  <line x1="73.3987" y1="129.1074" x2="106.3325" y2="129.4764" stroke="#270026" stroke-width="1.0" />
  <line x1="73.3847" y1="130.3573" x2="105.9006" y2="150.7603" stroke="#e58400" stroke-width="1.0" />
  <rect
     style="fill:#ffffff;stroke:none"
     width="5.5"
     height="2"
     x="86.8927"
     y="139.5588" 
     transform="rotate(32.1073 89.6427 140.5588)"    /> 
  <path
     style="fill:none;stroke:#e58400;stroke-width:1px;stroke-linecap:butt;stroke-linejoin:miter;stroke-opacity:1"
    d="m 90.3927,138.5588 2,2 -2,2 m -1.5,-4 -2,2 2,2" transform="rotate(32.1073 89.6427 140.5588)"/>
  <line x1="73.6883" y1="111.6364" x2="106.6346" y2="111.8761" stroke="#2d0032" stroke-width="1.0" />
  <line x1="73.7065" y1="109.1365" x2="106.6528" y2="109.3761" stroke="#2d0032" stroke-width="1.0" />
  <line x1="73.8717" y1="90.4333" x2="73.7594" y2="70.4954" stroke="#000000" stroke-width="1.0" />
  <rect
     style="fill:#ffffff;fill-opacity:1;fill-rule:nonzero;stroke:none"
     width="2"
     height="2"
     x="73.3156"
     y="79.4644"
     transform="rotate(269.6771 73.8156 80.4644)" /> 
  <path
     style="fill:none;stroke:#000000;stroke-width:1px;stroke-linecap:butt;stroke-linejoin:miter;stroke-opacity:1"
     d="m 73.8156,78.4644 2,2 -2,2 m -2.370121,-4 2,2 -2,2"
     transform="rotate(269.6771 73.8156 80.4644)"/>
  <line x1="73.8710" y1="91.6833" x2="106.7254" y2="91.7020" stroke="#33003e" stroke-width="1.0" />
  <line x1="73.8724" y1="89.1833" x2="106.7268" y2="89.2020" stroke="#33003e" stroke-width="1.0" />
  <line x1="73.8717" y1="90.4333" x2="106.6437" y2="110.6261" stroke="#000000" stroke-width="1.0" />
  <rect
     style="fill:#ffffff;stroke:none"
     width="5.5"
     height="2"
     x="87.5077"
     y="99.5297" 
     transform="rotate(31.6397 90.2577 100.5297)"    /> 
  <path
     style="fill:none;stroke:#000000;stroke-width:1px;stroke-linecap:butt;stroke-linejoin:miter;stroke-opacity:1"
    d="m 91.0077,98.5297 2,2 -2,2 m -1.5,-4 -2,2 2,2" transform="rotate(31.6397 90.2577 100.5297)"/>
  <line x1="73.7688" y1="71.7454" x2="106.5912" y2="71.4965" stroke="#270026" stroke-width="1.0" />
  <line x1="73.7499" y1="69.2454" x2="106.5723" y2="68.9965" stroke="#270026" stroke-width="1.0" />
  <line x1="73.9177" y1="50.5672" x2="106.5817" y2="70.2465" stroke="#7803fb" stroke-width="1.0" />
  <rect
     style="fill:#ffffff;stroke:none"
     width="5.5"
     height="2"
     x="87.4997"
     y="59.4069" 
     transform="rotate(31.0679 90.2497 60.4069)"    /> 
  <path
     style="fill:none;stroke:#7803fb;stroke-width:1px;stroke-linecap:butt;stroke-linejoin:miter;stroke-opacity:1"
    d="m 90.9997,58.4069 2,2 -2,2 m -1.5,-4 -2,2 2,2" transform="rotate(31.0679 90.2497 60.4069)"/>
  <line x1="106.5817" y1="70.2465" x2="106.7261" y2="90.4520" stroke="#000000" stroke-width="1.0" />
  <rect
     style="fill:#ffffff;fill-opacity:1;fill-rule:nonzero;stroke:none"
     width="2"
     height="2"
     x="106.1539"
     y="79.3492"
     transform="rotate(89.5907 106.6539 80.3492)" /> 
  <path
     style="fill:none;stroke:#000000;stroke-width:1px;stroke-linecap:butt;stroke-linejoin:miter;stroke-opacity:1"
     d="m 106.6539,78.3492 2,2 -2,2 m -2.370121,-4 2,2 -2,2"
     transform="rotate(89.5907 106.6539 80.3492)"/>
  <line x1="106.6437" y1="110.6261" x2="106.3185" y2="130.7263" stroke="#000000" stroke-width="1.0" />
  <rect
     style="fill:#ffffff;fill-opacity:1;fill-rule:nonzero;stroke:none"
     width="2"
     height="2"
     x="105.9811"
     y="119.6762"
     transform="rotate(90.9271 106.4811 120.6762)" /> 
  <path
     style="fill:none;stroke:#000000;stroke-width:1px;stroke-linecap:butt;stroke-linejoin:miter;stroke-opacity:1"
     d="m 106.4811,118.6762 2,2 -2,2 m -2.370121,-4 2,2 -2,2"
     transform="rotate(90.9271 106.4811 120.6762)"/>
  <line x1="106.3185" y1="130.7263" x2="105.9006" y2="150.7603" stroke="#bc2900" stroke-width="1.0" />
  <rect
     style="fill:#ffffff;fill-opacity:1;fill-rule:nonzero;stroke:none"
     width="2"
     height="2"
     x="105.6096"
     y="139.7433"
     transform="rotate(91.1948 106.1096 140.7433)" /> 
  <path
     style="fill:none;stroke:#bc2900;stroke-width:1px;stroke-linecap:butt;stroke-linejoin:miter;stroke-opacity:1"
     d="m 106.1096,138.7433 2,2 -2,2 m -2.370121,-4 2,2 -2,2"
     transform="rotate(91.1948 106.1096 140.7433)"/>
<circle cx="72.9761" cy="150.3428" r="5.0" stroke="#595959" stroke-width="1.0" fill="#ffffff"/>
<text x="72.9761" y="153.0428" text-anchor="middle" font-family="Helvetica" font-size="7.5" fill="#000000" >G</text>
<circle cx="73.3847" cy="130.3573" r="5.0" stroke="#595959" stroke-width="1.0" fill="#ffffff"/>
<text x="73.3847" y="133.0573" text-anchor="middle" font-family="Helvetica" font-size="7.5" fill="#000000" >G</text>
<circle cx="73.6974" cy="110.3864" r="5.0" stroke="#595959" stroke-width="1.0" fill="#ffffff"/>
<text x="73.6974" y="113.0864" text-anchor="middle" font-family="Helvetica" font-size="7.5" fill="#000000" >C</text>
<circle cx="73.8717" cy="90.4333" r="5.0" stroke="#595959" stroke-width="1.0" fill="#ffffff"/>
<text x="73.8717" y="93.1333" text-anchor="middle" font-family="Helvetica" font-size="7.5" fill="#000000" >G</text>
<circle cx="73.7594" cy="70.4954" r="5.0" stroke="#595959" stroke-width="1.0" fill="#ffffff"/>
<text x="73.7594" y="73.1954" text-anchor="middle" font-family="Helvetica" font-size="7.5" fill="#000000" >C</text>
<circle cx="73.9177" cy="50.5672" r="5.0" stroke="#595959" stroke-width="1.0" fill="#ffffff"/>
<text x="73.9177" y="53.2672" text-anchor="middle" font-family="Helvetica" font-size="7.5" fill="#000000" >A</text>
<circle cx="83.4199" cy="33.0166" r="5.0" stroke="#595959" stroke-width="1.0" fill="#ffffff"/>
<text x="83.4199" y="35.7166" text-anchor="middle" font-family="Helvetica" font-size="7.5" fill="#000000" >U</text>
<circle cx="103.3590" cy="34.1711" r="5.0" stroke="#595959" stroke-width="1.0" fill="#ffffff"/>
<text x="103.3590" y="36.8711" text-anchor="middle" font-family="Helvetica" font-size="7.5" fill="#000000" >C</text>
<circle cx="113.4435" cy="51.4187" r="5.0" stroke="#595959" stroke-width="1.0" fill="#ffffff"/>
<text x="113.4435" y="54.1187" text-anchor="middle" font-family="Helvetica" font-size="7.5" fill="#000000" >G</text>
<circle cx="106.5817" cy="70.2465" r="5.0" stroke="#595959" stroke-width="1.0" fill="#ffffff"/>
<text x="106.5817" y="72.9465" text-anchor="middle" font-family="Helvetica" font-size="7.5" fill="#000000" >G</text>
<circle cx="106.7261" cy="90.4520" r="5.0" stroke="#595959" stroke-width="1.0" fill="#ffffff"/>
<text x="106.7261" y="93.1520" text-anchor="middle" font-family="Helvetica" font-size="7.5" fill="#000000" >C</text>
<circle cx="106.6437" cy="110.6261" r="5.0" stroke="#595959" stroke-width="1.0" fill="#ffffff"/>
<text x="106.6437" y="113.3261" text-anchor="middle" font-family="Helvetica" font-size="7.5" fill="#000000" >G</text>
<circle cx="106.3185" cy="130.7263" r="5.0" stroke="#595959" stroke-width="1.0" fill="#ffffff"/>
<text x="106.3185" y="133.4263" text-anchor="middle" font-family="Helvetica" font-size="7.5" fill="#000000" >C</text>
<circle cx="105.9006" cy="150.7603" r="5.0" stroke="#595959" stroke-width="1.0" fill="#ffffff"/>
<text x="105.9006" y="153.4603" text-anchor="middle" font-family="Helvetica" font-size="7.5" fill="#000000" >C</text>
</svg>