<?xml version="1.0" encoding="UTF-8"?>
<!DOCTYPE svg PUBLIC "-//W3C//DTD SVG 1.1//EN" 
"http://www.w3.org/Graphics/SVG/1.1/DTD/svg11.dtd">

<svg version="1.1"
   width="308px"
   height="308px"
xmlns="http://www.w3.org/2000/svg">
    <rect width="100%" height="100%" fill="white"/>

  <line x1="137.5295" y1="218.4815" x2="137.4167" y2="198.4944" stroke="#595959"
     style="stroke-width:2;stroke-miterlimit:4;stroke-dasharray:1,1;stroke-dashoffset:0" />
  <line x1="136.8571" y1="98.5163" x2="131.1108" y2="79.2690" stroke="#595959"
     style="stroke-width:2;stroke-miterlimit:4;stroke-dasharray:1,1;stroke-dashoffset:0" />
  <line x1="131.1108" y1="79.2690" x2="136.4035" y2="59.9818" stroke="#595959"
     style="stroke-width:2;stroke-miterlimit:4;stroke-dasharray:1,1;stroke-dashoffset:0" />
  <line x1="136.4035" y1="59.9818" x2="153.9790" y2="50.4562" stroke="#595959"
     style="stroke-width:2;stroke-miterlimit:4;stroke-dasharray:1,1;stroke-dashoffset:0" />
  <line x1="153.9790" y1="50.4562" x2="171.5593" y2="59.9735" stroke="#595959"
     style="stroke-width:2;stroke-miterlimit:4;stroke-dasharray:1,1;stroke-dashoffset:0" />
  <line x1="176.8614" y1="79.2580" x2="171.1442" y2="98.5135" stroke="#595959"
     style="stroke-width:2;stroke-miterlimit:4;stroke-dasharray:1,1;stroke-dashoffset:0" />
  <line x1="170.5580" y1="198.4982" x2="170.4719" y2="218.4889" stroke="#595959"
     style="stroke-width:2;stroke-miterlimit:4;stroke-dasharray:1,1;stroke-dashoffset:0" />
  <line x1="137.1298" y1="158.5203" x2="170.8630" y2="158.5208" stroke="#ea9900" stroke-width="1.0" />
  <circle cx="153.9964" cy="158.5206" r="2.25" stroke="#ea9900" stroke-width="1.0" fill="#ea9900"/>
  <line x1="136.8573" y1="100.1163" x2="171.1444" y2="100.1135" stroke="#dd6b00" stroke-width="1.0" />
  <path d="M 148.2508 102.3649 L 148.2508 97.8649 L 152.7508 97.8649 L 152.7508 102.3649 z" style="stroke:#dd6b00;stroke-width:1.0" fill="#dd6b00" 
    transform="rotate(179.9952 154.0008 100.1149)"/>
  <path d="M 155.7508 102.3649 L 155.7508 97.8649 L 159.7508 100.1149 z" style="stroke:#dd6b00;stroke-width:1.0" fill="#dd6b00"
    transform="rotate(179.9952 154.0008 100.1149)"/>
  <line x1="171.5593" y1="59.9735" x2="176.8614" y2="79.2580" stroke="#efaf00" stroke-width="1.0" />
  <path d="M 168.4603 71.8657 L 168.4603 67.3657 L 172.9603 67.3657 L 172.9603 71.8657 z" style="stroke:#efaf00;stroke-width:1.0" fill="#efaf00" 
    transform="rotate(254.6269 174.2103 69.6157)"/>
  <path d="M 175.9603 71.8657 L 175.9603 67.3657 L 179.9603 69.6157 z" style="stroke:#efaf00;stroke-width:1.0" fill="#efaf00"
    transform="rotate(254.6269 174.2103 69.6157)"/>
  <line x1="137.6374" y1="258.4650" x2="137.6082" y2="238.4708" stroke="#d45500" stroke-width="1.0" />
  <rect
     style="fill:#ffffff;fill-opacity:1;fill-rule:nonzero;stroke:none"
     width="2"
     height="2"
     x="137.1228"
     y="247.4679"
     transform="rotate(269.9163 137.6228 248.4679)" /> 
  <path
     style="fill:none;stroke:#d45500;stroke-width:1px;stroke-linecap:butt;stroke-linejoin:miter;stroke-opacity:1"
     d="m 137.6228,246.4679 2,2 -2,2 m -2.370121,-4 2,2 -2,2"
     transform="rotate(269.9163 137.6228 248.4679)"/>
  <line x1="137.6368" y1="259.7150" x2="170.4011" y2="259.7298" stroke="#2d0032" stroke-width="1.0" />
  <line x1="137.6380" y1="257.2150" x2="170.4022" y2="257.2298" stroke="#2d0032" stroke-width="1.0" />
  <line x1="137.6082" y1="238.4708" x2="137.5295" y2="218.4815" stroke="#000000" stroke-width="1.0" />
  <rect
     style="fill:#ffffff;fill-opacity:1;fill-rule:nonzero;stroke:none"
     width="2"
     height="2"
     x="137.0689"
     y="227.4761"
     transform="rotate(269.7743 137.5689 228.4761)" /> 
  <path
     style="fill:none;stroke:#000000;stroke-width:1px;stroke-linecap:butt;stroke-linejoin:miter;stroke-opacity:1"
     d="m 137.5689,226.4761 2,2 -2,2 m -2.370121,-4 2,2 -2,2"
     transform="rotate(269.7743 137.5689 228.4761)"/>
  <line x1="137.6078" y1="239.7208" x2="170.4857" y2="239.7330" stroke="#2d0032" stroke-width="1.0" />
  <line x1="137.6087" y1="237.2208" x2="170.4866" y2="237.2330" stroke="#2d0032" stroke-width="1.0" />
  <line x1="137.6082" y1="238.4708" x2="170.4017" y2="258.4798" stroke="#e17900" stroke-width="1.0" />
  <rect
     style="fill:#ffffff;stroke:none"
     width="5.5"
     height="2"
     x="151.2549"
     y="247.4753" 
     transform="rotate(31.3896 154.0049 248.4753)"    /> 
  <path
     style="fill:none;stroke:#e17900;stroke-width:1px;stroke-linecap:butt;stroke-linejoin:miter;stroke-opacity:1"
    d="m 154.7549,246.4753 2,2 -2,2 m -1.5,-4 -2,2 2,2" transform="rotate(31.3896 154.0049 248.4753)"/>
  <line x1="137.5292" y1="219.7315" x2="170.4716" y2="219.7389" stroke="#200019" stroke-width="1.0" />
  <line x1="137.5298" y1="217.2315" x2="170.4722" y2="217.2389" stroke="#200019" stroke-width="1.0" />
  <line x1="137.4167" y1="198.4944" x2="137.2952" y2="178.5071" stroke="#a5137f" stroke-width="1.0" />
  <rect
     style="fill:#ffffff;fill-opacity:1;fill-rule:nonzero;stroke:none"
     width="2"
     height="2"
     x="136.8559"
     y="187.5008"
     transform="rotate(269.6515 137.3559 188.5008)" /> 
  <path
     style="fill:none;stroke:#a5137f;stroke-width:1px;stroke-linecap:butt;stroke-linejoin:miter;stroke-opacity:1"
     d="m 137.3559,186.5008 2,2 -2,2 m -2.370121,-4 2,2 -2,2"
     transform="rotate(269.6515 137.3559 188.5008)"/>
  <line x1="137.4167" y1="198.4944" x2="170.5580" y2="198.4982" stroke="#33003e" stroke-width="1.0" />
  <line x1="137.4167" y1="198.4944" x2="170.4719" y2="218.4889" stroke="#000000" stroke-width="1.0" />
  <rect
     style="fill:#ffffff;stroke:none"
     width="5.5"
     height="2"
     x="151.1943"
     y="207.4916" 
     transform="rotate(31.1689 153.9443 208.4916)"    /> 
  <path
     style="fill:none;stroke:#000000;stroke-width:1px;stroke-linecap:butt;stroke-linejoin:miter;stroke-opacity:1"
    d="m 154.6943,206.4916 2,2 -2,2 m -1.5,-4 -2,2 2,2" transform="rotate(31.1689 153.9443 208.4916)"/>
  <line x1="137.2952" y1="178.5071" x2="137.1298" y2="158.5203" stroke="#b41f06" stroke-width="1.0" />
  <rect
     style="fill:#ffffff;fill-opacity:1;fill-rule:nonzero;stroke:none"
     width="2"
     height="2"
     x="136.7125"
     y="167.5137"
     transform="rotate(269.5258 137.2125 168.5137)" /> 
  <path
     style="fill:none;stroke:#b41f06;stroke-width:1px;stroke-linecap:butt;stroke-linejoin:miter;stroke-opacity:1"
     d="m 137.2125,166.5137 2,2 -2,2 m -2.370121,-4 2,2 -2,2"
     transform="rotate(269.5258 137.2125 168.5137)"/>
  <line x1="137.2950" y1="179.7571" x2="170.7356" y2="179.7604" stroke="#4b0084" stroke-width="1.0" />
  <line x1="137.2953" y1="177.2571" x2="170.7358" y2="177.2604" stroke="#4b0084" stroke-width="1.0" />
  <line x1="137.1298" y1="158.5203" x2="137.1242" y2="138.5580" stroke="#c33200" stroke-width="1.0" />
  <rect
     style="fill:#ffffff;fill-opacity:1;fill-rule:nonzero;stroke:none"
     width="2"
     height="2"
     x="136.6270"
     y="147.5392"
     transform="rotate(269.9842 137.1270 148.5392)" /> 
  <path
     style="fill:none;stroke:#c33200;stroke-width:1px;stroke-linecap:butt;stroke-linejoin:miter;stroke-opacity:1"
     d="m 137.1270,146.5392 2,2 -2,2 m -2.370121,-4 2,2 -2,2"
     transform="rotate(269.9842 137.1270 148.5392)"/>
  <line x1="137.1242" y1="138.5580" x2="137.0359" y2="118.5312" stroke="#940ad9" stroke-width="1.0" />
  <rect
     style="fill:#ffffff;fill-opacity:1;fill-rule:nonzero;stroke:none"
     width="2"
     height="2"
     x="136.5801"
     y="127.5446"
     transform="rotate(269.7472 137.0801 128.5446)" /> 
  <path
     style="fill:none;stroke:#940ad9;stroke-width:1px;stroke-linecap:butt;stroke-linejoin:miter;stroke-opacity:1"
     d="m 137.0801,126.5446 2,2 -2,2 m -2.370121,-4 2,2 -2,2"
     transform="rotate(269.7472 137.0801 128.5446)"/>
  <line x1="137.1242" y1="138.5580" x2="170.8266" y2="138.4988" stroke="#5b01b5" stroke-width="1.0" />
  <line x1="137.0359" y1="118.5312" x2="136.8571" y2="98.5163" stroke="#6301ce" stroke-width="1.0" />
  <rect
     style="fill:#ffffff;fill-opacity:1;fill-rule:nonzero;stroke:none"
     width="2"
     height="2"
     x="136.4465"
     y="107.5238"
     transform="rotate(269.4884 136.9465 108.5238)" /> 
  <path
     style="fill:none;stroke:#6301ce;stroke-width:1px;stroke-linecap:butt;stroke-linejoin:miter;stroke-opacity:1"
     d="m 136.9465,106.5238 2,2 -2,2 m -2.370121,-4 2,2 -2,2"
     transform="rotate(269.4884 136.9465 108.5238)"/>
  <line x1="137.0362" y1="119.7812" x2="170.9651" y2="119.7736" stroke="#33003e" stroke-width="1.0" />
  <line x1="137.0356" y1="117.2812" x2="170.9646" y2="117.2736" stroke="#33003e" stroke-width="1.0" />
  <line x1="137.0359" y1="118.5312" x2="170.8266" y2="138.4988" stroke="#e99400" stroke-width="1.0" />
  <rect
     style="fill:#ffffff;stroke:none"
     width="5.5"
     height="2"
     x="151.1812"
     y="127.5150" 
     transform="rotate(30.5796 153.9312 128.5150)"    /> 
  <path
     style="fill:none;stroke:#e99400;stroke-width:1px;stroke-linecap:butt;stroke-linejoin:miter;stroke-opacity:1"
    d="m 154.6812,126.5150 2,2 -2,2 m -1.5,-4 -2,2 2,2" transform="rotate(30.5796 153.9312 128.5150)"/>
  <line x1="136.8570" y1="96.9163" x2="171.1441" y2="96.9135" stroke="#990cc2" stroke-width="1.0" />
  <line x1="136.8571" y1="98.5163" x2="170.9649" y2="118.5236" stroke="#f1b400" stroke-width="1.0" />
  <rect
     style="fill:#ffffff;stroke:none"
     width="5.5"
     height="2"
     x="151.1610"
     y="107.5199" 
     transform="rotate(30.3954 153.9110 108.5199)"    /> 
  <path
     style="fill:none;stroke:#f1b400;stroke-width:1px;stroke-linecap:butt;stroke-linejoin:miter;stroke-opacity:1"
    d="m 154.6610,106.5199 2,2 -2,2 m -1.5,-4 -2,2 2,2" transform="rotate(30.3954 153.9110 108.5199)"/>
  <line x1="131.1108" y1="79.2690" x2="171.1442" y2="98.5135" stroke="#37004b" stroke-width="1.0" />
  <rect
     style="fill:#ffffff;stroke:none"
     width="5.5"
     height="2"
     x="148.3775"
     y="87.8912" 
     transform="rotate(25.6741 151.1275 88.8912)"    /> 
  <path
     style="fill:none;stroke:#37004b;stroke-width:1px;stroke-linecap:butt;stroke-linejoin:miter;stroke-opacity:1"
    d="m 151.8775,86.8912 2,2 -2,2 m -1.5,-4 -2,2 2,2" transform="rotate(25.6741 151.1275 88.8912)"/>
  <line x1="171.1442" y1="98.5135" x2="170.9649" y2="118.5236" stroke="#e89000" stroke-width="1.0" />
  <rect
     style="fill:#ffffff;fill-opacity:1;fill-rule:nonzero;stroke:none"
     width="2"
     height="2"
     x="170.5545"
     y="107.5185"
     transform="rotate(90.5136 171.0545 108.5185)" /> 
  <path
     style="fill:none;stroke:#e89000;stroke-width:1px;stroke-linecap:butt;stroke-linejoin:miter;stroke-opacity:1"
     d="m 171.0545,106.5185 2,2 -2,2 m -2.370121,-4 2,2 -2,2"
     transform="rotate(90.5136 171.0545 108.5185)"/>
  <line x1="170.9649" y1="118.5236" x2="170.8266" y2="138.4988" stroke="#c02e00" stroke-width="1.0" />
  <rect
     style="fill:#ffffff;fill-opacity:1;fill-rule:nonzero;stroke:none"
     width="2"
     height="2"
     x="170.3957"
     y="127.5112"
     transform="rotate(90.3966 170.8957 128.5112)" /> 
  <path
     style="fill:none;stroke:#c02e00;stroke-width:1px;stroke-linecap:butt;stroke-linejoin:miter;stroke-opacity:1"
     d="m 170.8957,126.5112 2,2 -2,2 m -2.370121,-4 2,2 -2,2"
     transform="rotate(90.3966 170.8957 128.5112)"/>
  <line x1="170.8266" y1="138.4988" x2="170.8630" y2="158.5208" stroke="#ca4000" stroke-width="1.0" />
  <rect
     style="fill:#ffffff;fill-opacity:1;fill-rule:nonzero;stroke:none"
     width="2"
     height="2"
     x="170.3448"
     y="147.5098"
     transform="rotate(89.8958 170.8448 148.5098)" /> 
  <path
     style="fill:none;stroke:#ca4000;stroke-width:1px;stroke-linecap:butt;stroke-linejoin:miter;stroke-opacity:1"
     d="m 170.8448,146.5098 2,2 -2,2 m -2.370121,-4 2,2 -2,2"
     transform="rotate(89.8958 170.8448 148.5098)"/>
  <line x1="170.8630" y1="158.5208" x2="170.7357" y2="178.5104" stroke="#de6e00" stroke-width="1.0" />
  <rect
     style="fill:#ffffff;fill-opacity:1;fill-rule:nonzero;stroke:none"
     width="2"
     height="2"
     x="170.2994"
     y="167.5156"
     transform="rotate(90.3649 170.7994 168.5156)" /> 
  <path
     style="fill:none;stroke:#de6e00;stroke-width:1px;stroke-linecap:butt;stroke-linejoin:miter;stroke-opacity:1"
     d="m 170.7994,166.5156 2,2 -2,2 m -2.370121,-4 2,2 -2,2"
     transform="rotate(90.3649 170.7994 168.5156)"/>
  <line x1="170.7357" y1="178.5104" x2="170.5580" y2="198.4982" stroke="#a5137f" stroke-width="1.0" />
  <rect
     style="fill:#ffffff;fill-opacity:1;fill-rule:nonzero;stroke:none"
     width="2"
     height="2"
     x="170.1469"
     y="187.5043"
     transform="rotate(90.5094 170.6469 188.5043)" /> 
  <path
     style="fill:none;stroke:#a5137f;stroke-width:1px;stroke-linecap:butt;stroke-linejoin:miter;stroke-opacity:1"
     d="m 170.6469,186.5043 2,2 -2,2 m -2.370121,-4 2,2 -2,2"
     transform="rotate(90.5094 170.6469 188.5043)"/>
  <line x1="170.4719" y1="218.4889" x2="170.4861" y2="238.4830" stroke="#000000" stroke-width="1.0" />
  <rect
     style="fill:#ffffff;fill-opacity:1;fill-rule:nonzero;stroke:none"
     width="2"
     height="2"
     x="169.9790"
     y="227.4859"
     transform="rotate(89.9592 170.4790 228.4859)" /> 
  <path
     style="fill:none;stroke:#000000;stroke-width:1px;stroke-linecap:butt;stroke-linejoin:miter;stroke-opacity:1"
     d="m 170.4790,226.4859 2,2 -2,2 m -2.370121,-4 2,2 -2,2"
     transform="rotate(89.9592 170.4790 228.4859)"/>
  <line x1="170.4861" y1="238.4830" x2="170.4017" y2="258.4798" stroke="#b82400" stroke-width="1.0" />
  <rect
     style="fill:#ffffff;fill-opacity:1;fill-rule:nonzero;stroke:none"
     width="2"
     height="2"
     x="169.9439"
     y="247.4814"
     transform="rotate(90.2420 170.4439 248.4814)" /> 
  <path
     style="fill:none;stroke:#b82400;stroke-width:1px;stroke-linecap:butt;stroke-linejoin:miter;stroke-opacity:1"
     d="m 170.4439,246.4814 2,2 -2,2 m -2.370121,-4 2,2 -2,2"
     transform="rotate(90.2420 170.4439 248.4814)"/>
<circle cx="137.6374" cy="258.4650" r="5.0" stroke="#595959" stroke-width="1.0" fill="#ffffff"/>
<text x="137.6374" y="261.1650" text-anchor="middle" font-family="Helvetica" font-size="7.5" fill="#000000" >G</text>
<circle cx="137.6082" cy="238.4708" r="5.0" stroke="#595959" stroke-width="1.0" fill="#ffffff"/>
<text x="137.6082" y="241.1708" text-anchor="middle" font-family="Helvetica" font-size="7.5" fill="#000000" >G</text>
<circle cx="137.5295" cy="218.4815" r="5.0" stroke="#595959" stroke-width="1.0" fill="#ffffff"/>
<text x="137.5295" y="221.1815" text-anchor="middle" font-family="Helvetica" font-size="7.5" fill="#000000" >C</text>
<circle cx="137.4167" cy="198.4944" r="5.0" stroke="#595959" stroke-width="1.0" fill="#ffffff"/>
<text x="137.4167" y="201.1944" text-anchor="middle" font-family="Helvetica" font-size="7.5" fill="#000000" >A</text>
<circle cx="137.2952" cy="178.5071" r="5.0" stroke="#595959" stroke-width="1.0" fill="#ffffff"/>
<text x="137.2952" y="181.2071" text-anchor="middle" font-family="Helvetica" font-size="7.5" fill="#000000" >G</text>
<circle cx="137.1298" cy="158.5203" r="5.0" stroke="#595959" stroke-width="1.0" fill="#ffffff"/>
<text x="137.1298" y="161.2203" text-anchor="middle" font-family="Helvetica" font-size="7.5" fill="#000000" >A</text>
<circle cx="137.1242" cy="138.5580" r="5.0" stroke="#595959" stroke-width="1.0" fill="#ffffff"/>
<text x="137.1242" y="141.2580" text-anchor="middle" font-family="Helvetica" font-size="7.5" fill="#000000" >U</text>
<circle cx="137.0359" cy="118.5312" r="5.0" stroke="#595959" stroke-width="1.0" fill="#ffffff"/>
<text x="137.0359" y="121.2312" text-anchor="middle" font-family="Helvetica" font-size="7.5" fill="#000000" >C</text>
<circle cx="136.8571" cy="98.5163" r="5.0" stroke="#595959" stroke-width="1.0" fill="#ffffff"/>
<text x="136.8571" y="101.2163" text-anchor="middle" font-family="Helvetica" font-size="7.5" fill="#000000" >U</text>
<circle cx="131.1108" cy="79.2690" r="5.0" stroke="#595959" stroke-width="1.0" fill="#ffffff"/>
<text x="131.1108" y="81.9690" text-anchor="middle" font-family="Helvetica" font-size="7.5" fill="#000000" >G</text>
<circle cx="136.4035" cy="59.9818" r="5.0" stroke="#595959" stroke-width="1.0" fill="#ffffff"/>
<text x="136.4035" y="62.6818" text-anchor="middle" font-family="Helvetica" font-size="7.5" fill="#000000" >U</text>
<circle cx="153.9790" cy="50.4562" r="5.0" stroke="#595959" stroke-width="1.0" fill="#ffffff"/>
<text x="153.9790" y="53.1562" text-anchor="middle" font-family="Helvetica" font-size="7.5" fill="#000000" >A</text>
<circle cx="171.5593" cy="59.9735" r="5.0" stroke="#595959" stroke-width="1.0" fill="#ffffff"/>
<text x="171.5593" y="62.6735" text-anchor="middle" font-family="Helvetica" font-size="7.5" fill="#000000" >A</text>
<circle cx="176.8614" cy="79.2580" r="5.0" stroke="#595959" stroke-width="1.0" fill="#ffffff"/>
<text x="176.8614" y="81.9580" text-anchor="middle" font-family="Helvetica" font-size="7.5" fill="#000000" >U</text>
<circle cx="171.1442" cy="98.5135" r="5.0" stroke="#595959" stroke-width="1.0" fill="#ffffff"/>
<text x="171.1442" y="101.2135" text-anchor="middle" font-family="Helvetica" font-size="7.5" fill="#000000" >A</text>
<circle cx="170.9649" cy="118.5236" r="5.0" stroke="#595959" stroke-width="1.0" fill="#ffffff"/>
<text x="170.9649" y="121.2236" text-anchor="middle" font-family="Helvetica" font-size="7.5" fill="#000000" >G</text>
<circle cx="170.8266" cy="138.4988" r="5.0" stroke="#595959" stroke-width="1.0" fill="#ffffff"/>
<text x="170.8266" y="141.1988" text-anchor="middle" font-family="Helvetica" font-size="7.5" fill="#000000" >A</text>
<circle cx="170.8630" cy="158.5208" r="5.0" stroke="#595959" stroke-width="1.0" fill="#ffffff"/>
<text x="170.8630" y="161.2208" text-anchor="middle" font-family="Helvetica" font-size="7.5" fill="#000000" >A</text>
<circle cx="170.7357" cy="178.5104" r="5.0" stroke="#595959" stroke-width="1.0" fill="#ffffff"/>
<text x="170.7357" y="181.2104" text-anchor="middle" font-family="Helvetica" font-size="7.5" fill="#000000" >C</text>
<circle cx="170.5580" cy="198.4982" r="5.0" stroke="#595959" stroke-width="1.0" fill="#ffffff"/>
<text x="170.5580" y="201.1982" text-anchor="middle" font-family="Helvetica" font-size="7.5" fill="#000000" >U</text>
<circle cx="170.4719" cy="218.4889" r="5.0" stroke="#595959" stroke-width="1.0" fill="#ffffff"/>
<text x="170.4719" y="221.1889" text-anchor="middle" font-family="Helvetica" font-size="7.5" fill="#000000" >G</text>
<circle cx="170.4861" cy="238.4830" r="5.0" stroke="#595959" stroke-width="1.0" fill="#ffffff"/>
<text x="170.4861" y="241.1830" text-anchor="middle" font-family="Helvetica" font-size="7.5" fill="#000000" >C</text>
<circle cx="170.4017" cy="258.4798" r="5.0" stroke="#595959" stroke-width="1.0" fill="#ffffff"/>
<text x="170.4017" y="261.1798" text-anchor="middle" font-family="Helvetica" font-size="7.5" fill="#000000" >C</text>
</svg>