<?xml version="1.0" encoding="UTF-8"?>
<!DOCTYPE svg PUBLIC "-//W3C//DTD SVG 1.1//EN" 
"http://www.w3.org/Graphics/SVG/1.1/DTD/svg11.dtd">

<svg version="1.1"
   width="182px"
   height="182px"
xmlns="http://www.w3.org/2000/svg">
    <rect width="100%" height="100%" fill="white"/>

  <line x1="73.5955" y1="110.3893" x2="73.7858" y2="90.4441" stroke="#595959"
     style="stroke-width:2;stroke-miterlimit:4;stroke-dasharray:1,1;stroke-dashoffset:0" />
  <line x1="73.6805" y1="70.5084" x2="74.4806" y2="50.5995" stroke="#595959"
     style="stroke-width:2;stroke-miterlimit:4;stroke-dasharray:1,1;stroke-dashoffset:0" />
  <line x1="83.6630" y1="32.8805" x2="103.5945" y2="34.1432" stroke="#595959"
     style="stroke-width:2;stroke-miterlimit:4;stroke-dasharray:1,1;stroke-dashoffset:0" />
  <line x1="103.5945" y1="34.1432" x2="113.5450" y2="51.4689" stroke="#595959"
     style="stroke-width:2;stroke-miterlimit:4;stroke-dasharray:1,1;stroke-dashoffset:0" />
  <line x1="113.5450" y1="51.4689" x2="106.4451" y2="70.2176" stroke="#595959"
     style="stroke-width:2;stroke-miterlimit:4;stroke-dasharray:1,1;stroke-dashoffset:0" />
  <line x1="106.6289" y1="90.4470" x2="106.5301" y2="110.6485" stroke="#595959"
     style="stroke-width:2;stroke-miterlimit:4;stroke-dasharray:1,1;stroke-dashoffset:0" />
  <line x1="72.8318" y1="150.3375" x2="73.2785" y2="130.3548" stroke="#e89000" stroke-width="1.0" />
  <rect
     style="fill:#ffffff;fill-opacity:1;fill-rule:nonzero;stroke:none"
     width="2"
     height="2"
     x="72.5551"
     y="139.3461"
     transform="rotate(-88.7194 73.0551 140.3461)" /> 
  <path
     style="fill:none;stroke:#e89000;stroke-width:1px;stroke-linecap:butt;stroke-linejoin:miter;stroke-opacity:1"
     d="m 73.0551,138.3461 2,2 -2,2 m -2.370121,-4 2,2 -2,2"
     transform="rotate(-88.7194 73.0551 140.3461)"/>
  <line x1="72.8143" y1="151.5873" x2="105.7382" y2="152.0481" stroke="#000000" stroke-width="1.0" />
  <line x1="72.8493" y1="149.0876" x2="105.7732" y2="149.5484" stroke="#000000" stroke-width="1.0" />
  <line x1="73.2785" y1="130.3548" x2="73.5955" y2="110.3893" stroke="#000000" stroke-width="1.0" />
  <rect
     style="fill:#ffffff;fill-opacity:1;fill-rule:nonzero;stroke:none"
     width="2"
     height="2"
     x="72.9370"
     y="119.3720"
     transform="rotate(-89.0903 73.4370 120.3720)" /> 
  <path
     style="fill:none;stroke:#000000;stroke-width:1px;stroke-linecap:butt;stroke-linejoin:miter;stroke-opacity:1"
     d="m 73.4370,118.3720 2,2 -2,2 m -2.370121,-4 2,2 -2,2"
     transform="rotate(-89.0903 73.4370 120.3720)"/>
  <line x1="73.2630" y1="131.6047" x2="106.1696" y2="132.0125" stroke="#000000" stroke-width="1.0" />
  <line x1="73.2940" y1="129.1049" x2="106.2006" y2="129.5127" stroke="#000000" stroke-width="1.0" />
  <line x1="73.2785" y1="130.3548" x2="105.7557" y2="150.7982" stroke="#bc2900" stroke-width="1.0" />
  <rect
     style="fill:#ffffff;stroke:none"
     width="5.5"
     height="2"
     x="86.7671"
     y="139.5765" 
     transform="rotate(32.1892 89.5171 140.5765)"    /> 
  <path
     style="fill:none;stroke:#bc2900;stroke-width:1px;stroke-linecap:butt;stroke-linejoin:miter;stroke-opacity:1"
    d="m 90.2671,138.5765 2,2 -2,2 m -1.5,-4 -2,2 2,2" transform="rotate(32.1892 89.5171 140.5765)"/>
  <line x1="73.5857" y1="111.6392" x2="106.5203" y2="111.8985" stroke="#000000" stroke-width="1.0" />
  <line x1="73.6053" y1="109.1393" x2="106.5400" y2="109.3986" stroke="#000000" stroke-width="1.0" />
  <line x1="73.7858" y1="90.4441" x2="73.6805" y2="70.5084" stroke="#000000" stroke-width="1.0" />
  <rect
     style="fill:#ffffff;fill-opacity:1;fill-rule:nonzero;stroke:none"
     width="2"
     height="2"
     x="73.2332"
     y="79.4762"
     transform="rotate(269.6974 73.7332 80.4762)" /> 
  <path
     style="fill:none;stroke:#000000;stroke-width:1px;stroke-linecap:butt;stroke-linejoin:miter;stroke-opacity:1"
     d="m 73.7332,78.4762 2,2 -2,2 m -2.370121,-4 2,2 -2,2"
     transform="rotate(269.6974 73.7332 80.4762)"/>
  <line x1="73.7857" y1="91.6941" x2="106.6287" y2="91.6970" stroke="#000000" stroke-width="1.0" />
  <line x1="73.7859" y1="89.1941" x2="106.6290" y2="89.1970" stroke="#000000" stroke-width="1.0" />
  <line x1="73.7858" y1="90.4441" x2="106.5301" y2="110.6485" stroke="#17000d" stroke-width="1.0" />
  <rect
     style="fill:#ffffff;stroke:none"
     width="5.5"
     height="2"
     x="87.4080"
     y="99.5463" 
     transform="rotate(31.6761 90.1580 100.5463)"    /> 
  <path
     style="fill:none;stroke:#17000d;stroke-width:1px;stroke-linecap:butt;stroke-linejoin:miter;stroke-opacity:1"
    d="m 90.9080,98.5463 2,2 -2,2 m -1.5,-4 -2,2 2,2" transform="rotate(31.6761 90.1580 100.5463)"/>
  <line x1="73.6916" y1="71.7583" x2="106.4562" y2="71.4675" stroke="#000000" stroke-width="1.0" />
  <line x1="73.6694" y1="69.2584" x2="106.4340" y2="68.9676" stroke="#000000" stroke-width="1.0" />
  <line x1="74.4806" y1="50.5995" x2="83.6630" y2="32.8805" stroke="#000000" stroke-width="1.0" />
  <rect
     style="fill:#ffffff;fill-opacity:1;fill-rule:nonzero;stroke:none"
     width="2"
     height="2"
     x="78.5718"
     y="40.7400"
     transform="rotate(-62.6058 79.0718 41.7400)" /> 
  <path
     style="fill:none;stroke:#000000;stroke-width:1px;stroke-linecap:butt;stroke-linejoin:miter;stroke-opacity:1"
     d="m 79.0718,39.7400 2,2 -2,2 m -2.370121,-4 2,2 -2,2"
     transform="rotate(-62.6058 79.0718 41.7400)"/>
  <line x1="74.4806" y1="50.5995" x2="106.4451" y2="70.2176" stroke="#37004b" stroke-width="1.0" />
  <rect
     style="fill:#ffffff;stroke:none"
     width="5.5"
     height="2"
     x="87.7129"
     y="59.4085" 
     transform="rotate(31.5393 90.4629 60.4085)"    /> 
  <path
     style="fill:none;stroke:#37004b;stroke-width:1px;stroke-linecap:butt;stroke-linejoin:miter;stroke-opacity:1"
    d="m 91.2129,58.4085 2,2 -2,2 m -1.5,-4 -2,2 2,2" transform="rotate(31.5393 90.4629 60.4085)"/>
  <line x1="106.4451" y1="70.2176" x2="106.6289" y2="90.4470" stroke="#000000" stroke-width="1.0" />
  <rect
     style="fill:#ffffff;fill-opacity:1;fill-rule:nonzero;stroke:none"
     width="2"
     height="2"
     x="106.0370"
     y="79.3323"
     transform="rotate(89.4796 106.5370 80.3323)" /> 
  <path
     style="fill:none;stroke:#000000;stroke-width:1px;stroke-linecap:butt;stroke-linejoin:miter;stroke-opacity:1"
     d="m 106.5370,78.3323 2,2 -2,2 m -2.370121,-4 2,2 -2,2"
     transform="rotate(89.4796 106.5370 80.3323)"/>
  <line x1="106.5301" y1="110.6485" x2="106.1851" y2="130.7626" stroke="#000000" stroke-width="1.0" />
  <rect
     style="fill:#ffffff;fill-opacity:1;fill-rule:nonzero;stroke:none"
     width="2"
     height="2"
     x="105.8576"
     y="119.7056"
     transform="rotate(90.9828 106.3576 120.7056)" /> 
  <path
     style="fill:none;stroke:#000000;stroke-width:1px;stroke-linecap:butt;stroke-linejoin:miter;stroke-opacity:1"
     d="m 106.3576,118.7056 2,2 -2,2 m -2.370121,-4 2,2 -2,2"
     transform="rotate(90.9828 106.3576 120.7056)"/>
  <line x1="106.1851" y1="130.7626" x2="105.7557" y2="150.7982" stroke="#c33200" stroke-width="1.0" />
  <rect
     style="fill:#ffffff;fill-opacity:1;fill-rule:nonzero;stroke:none"
     width="2"
     height="2"
     x="105.4704"
     y="139.7804"
     transform="rotate(91.2277 105.9704 140.7804)" /> 
  <path
     style="fill:none;stroke:#c33200;stroke-width:1px;stroke-linecap:butt;stroke-linejoin:miter;stroke-opacity:1"
     d="m 105.9704,138.7804 2,2 -2,2 m -2.370121,-4 2,2 -2,2"
     transform="rotate(91.2277 105.9704 140.7804)"/>
<circle cx="72.8318" cy="150.3375" r="5.0" stroke="#595959" stroke-width="1.0" fill="#ffffff"/>
<text x="72.8318" y="153.0375" text-anchor="middle" font-family="Helvetica" font-size="7.5" fill="#000000" >G</text>
<circle cx="73.2785" cy="130.3548" r="5.0" stroke="#595959" stroke-width="1.0" fill="#ffffff"/>
<text x="73.2785" y="133.0548" text-anchor="middle" font-family="Helvetica" font-size="7.5" fill="#000000" >G</text>
<circle cx="73.5955" cy="110.3893" r="5.0" stroke="#595959" stroke-width="1.0" fill="#ffffff"/>
<text x="73.5955" y="113.0893" text-anchor="middle" font-family="Helvetica" font-size="7.5" fill="#000000" >C</text>
<circle cx="73.7858" cy="90.4441" r="5.0" stroke="#595959" stroke-width="1.0" fill="#ffffff"/>
<text x="73.7858" y="93.1441" text-anchor="middle" font-family="Helvetica" font-size="7.5" fill="#000000" >G</text>
<circle cx="73.6805" cy="70.5084" r="5.0" stroke="#595959" stroke-width="1.0" fill="#ffffff"/>
<text x="73.6805" y="73.2084" text-anchor="middle" font-family="Helvetica" font-size="7.5" fill="#000000" >C</text>
<circle cx="74.4806" cy="50.5995" r="5.0" stroke="#595959" stroke-width="1.0" fill="#ffffff"/>
<text x="74.4806" y="53.2995" text-anchor="middle" font-family="Helvetica" font-size="7.5" fill="#000000" >A</text>
<circle cx="83.6630" cy="32.8805" r="5.0" stroke="#595959" stroke-width="1.0" fill="#ffffff"/>
<text x="83.6630" y="35.5805" text-anchor="middle" font-family="Helvetica" font-size="7.5" fill="#000000" >U</text>
<circle cx="103.5945" cy="34.1432" r="5.0" stroke="#595959" stroke-width="1.0" fill="#ffffff"/>
<text x="103.5945" y="36.8432" text-anchor="middle" font-family="Helvetica" font-size="7.5" fill="#000000" >C</text>
<circle cx="113.5450" cy="51.4689" r="5.0" stroke="#595959" stroke-width="1.0" fill="#ffffff"/>
<text x="113.5450" y="54.1689" text-anchor="middle" font-family="Helvetica" font-size="7.5" fill="#000000" >G</text>
<circle cx="106.4451" cy="70.2176" r="5.0" stroke="#595959" stroke-width="1.0" fill="#ffffff"/>
<text x="106.4451" y="72.9176" text-anchor="middle" font-family="Helvetica" font-size="7.5" fill="#000000" >G</text>
<circle cx="106.6289" cy="90.4470" r="5.0" stroke="#595959" stroke-width="1.0" fill="#ffffff"/>
<text x="106.6289" y="93.1470" text-anchor="middle" font-family="Helvetica" font-size="7.5" fill="#000000" >C</text>
<circle cx="106.5301" cy="110.6485" r="5.0" stroke="#595959" stroke-width="1.0" fill="#ffffff"/>
<text x="106.5301" y="113.3485" text-anchor="middle" font-family="Helvetica" font-size="7.5" fill="#000000" >G</text>
<circle cx="106.1851" cy="130.7626" r="5.0" stroke="#595959" stroke-width="1.0" fill="#ffffff"/>
<text x="106.1851" y="133.4626" text-anchor="middle" font-family="Helvetica" font-size="7.5" fill="#000000" >C</text>
<circle cx="105.7557" cy="150.7982" r="5.0" stroke="#595959" stroke-width="1.0" fill="#ffffff"/>
<text x="105.7557" y="153.4982" text-anchor="middle" font-family="Helvetica" font-size="7.5" fill="#000000" >C</text>
</svg>