<?xml version="1.0" encoding="UTF-8"?>
<!DOCTYPE svg PUBLIC "-//W3C//DTD SVG 1.1//EN" 
"http://www.w3.org/Graphics/SVG/1.1/DTD/svg11.dtd">

<svg version="1.1"
   width="182px"
   height="182px"
xmlns="http://www.w3.org/2000/svg">
    <rect width="100%" height="100%" fill="white"/>

  <line x1="73.8325" y1="110.2913" x2="73.9027" y2="90.2726" stroke="#595959"
     style="stroke-width:2;stroke-miterlimit:4;stroke-dasharray:1,1;stroke-dashoffset:0" />
  <line x1="73.7046" y1="70.2541" x2="68.9759" y2="50.7665" stroke="#595959"
     style="stroke-width:2;stroke-miterlimit:4;stroke-dasharray:1,1;stroke-dashoffset:0" />
  <line x1="108.0973" y1="90.2726" x2="108.1675" y2="110.2913" stroke="#595959"
     style="stroke-width:2;stroke-miterlimit:4;stroke-dasharray:1,1;stroke-dashoffset:0" />
  <line x1="73.7046" y1="71.8541" x2="108.2954" y2="71.8541" stroke="#e89000" stroke-width="1.0" />
  <circle cx="91.0000" cy="71.8541" r="2.25" stroke="#e89000" stroke-width="1.0" fill="#e89000"/>
  <line x1="74.0634" y1="150.3065" x2="73.9351" y2="130.3014" stroke="#df7200" stroke-width="1.0" />
  <rect
     style="fill:#ffffff;fill-opacity:1;fill-rule:nonzero;stroke:none"
     width="2"
     height="2"
     x="73.4992"
     y="139.3040"
     transform="rotate(269.6324 73.9992 140.3040)" /> 
  <path
     style="fill:none;stroke:#df7200;stroke-width:1px;stroke-linecap:butt;stroke-linejoin:miter;stroke-opacity:1"
     d="m 73.9992,138.3040 2,2 -2,2 m -2.370121,-4 2,2 -2,2"
     transform="rotate(269.6324 73.9992 140.3040)"/>
  <line x1="74.0634" y1="151.5565" x2="107.9366" y2="151.5565" stroke="#37004b" stroke-width="1.0" />
  <line x1="74.0634" y1="149.0565" x2="107.9366" y2="149.0565" stroke="#37004b" stroke-width="1.0" />
  <line x1="73.9351" y1="130.3014" x2="73.8325" y2="110.2913" stroke="#000000" stroke-width="1.0" />
  <rect
     style="fill:#ffffff;fill-opacity:1;fill-rule:nonzero;stroke:none"
     width="2"
     height="2"
     x="73.3838"
     y="119.2964"
     transform="rotate(269.7063 73.8838 120.2964)" /> 
  <path
     style="fill:none;stroke:#000000;stroke-width:1px;stroke-linecap:butt;stroke-linejoin:miter;stroke-opacity:1"
     d="m 73.8838,118.2964 2,2 -2,2 m -2.370121,-4 2,2 -2,2"
     transform="rotate(269.7063 73.8838 120.2964)"/>
  <line x1="73.9351" y1="131.5514" x2="108.0649" y2="131.5514" stroke="#400062" stroke-width="1.0" />
  <line x1="73.9351" y1="129.0514" x2="108.0649" y2="129.0514" stroke="#400062" stroke-width="1.0" />
  <line x1="73.9351" y1="130.3014" x2="107.9366" y2="150.3065" stroke="#d14c00" stroke-width="1.0" />
  <rect
     style="fill:#ffffff;stroke:none"
     width="5.5"
     height="2"
     x="88.1858"
     y="139.3040" 
     transform="rotate(30.4707 90.9358 140.3040)"    /> 
  <path
     style="fill:none;stroke:#d14c00;stroke-width:1px;stroke-linecap:butt;stroke-linejoin:miter;stroke-opacity:1"
    d="m 91.6858,138.3040 2,2 -2,2 m -1.5,-4 -2,2 2,2" transform="rotate(30.4707 90.9358 140.3040)"/>
  <line x1="73.8325" y1="111.5413" x2="108.1675" y2="111.5413" stroke="#37004b" stroke-width="1.0" />
  <line x1="73.8325" y1="109.0413" x2="108.1675" y2="109.0413" stroke="#37004b" stroke-width="1.0" />
  <line x1="73.9027" y1="90.2726" x2="73.7046" y2="70.2541" stroke="#000000" stroke-width="1.0" />
  <rect
     style="fill:#ffffff;fill-opacity:1;fill-rule:nonzero;stroke:none"
     width="2"
     height="2"
     x="73.3036"
     y="79.2633"
     transform="rotate(269.4329 73.8036 80.2633)" /> 
  <path
     style="fill:none;stroke:#000000;stroke-width:1px;stroke-linecap:butt;stroke-linejoin:miter;stroke-opacity:1"
     d="m 73.8036,78.2633 2,2 -2,2 m -2.370121,-4 2,2 -2,2"
     transform="rotate(269.4329 73.8036 80.2633)"/>
  <line x1="73.9027" y1="91.5226" x2="108.0973" y2="91.5226" stroke="#2d0032" stroke-width="1.0" />
  <line x1="73.9027" y1="89.0226" x2="108.0973" y2="89.0226" stroke="#2d0032" stroke-width="1.0" />
  <line x1="73.9027" y1="90.2726" x2="108.1675" y2="110.2913" stroke="#6001c6" stroke-width="1.0" />
  <rect
     style="fill:#ffffff;stroke:none"
     width="5.5"
     height="2"
     x="88.2851"
     y="99.2820" 
     transform="rotate(30.2950 91.0351 100.2820)"    /> 
  <path
     style="fill:none;stroke:#6001c6;stroke-width:1px;stroke-linecap:butt;stroke-linejoin:miter;stroke-opacity:1"
    d="m 91.7851,98.2820 2,2 -2,2 m -1.5,-4 -2,2 2,2" transform="rotate(30.2950 91.0351 100.2820)"/>
  <line x1="73.7046" y1="69.9041" x2="108.2954" y2="69.9041" stroke="#6f02ec" stroke-width="1.0" />
  <line x1="73.7046" y1="67.4041" x2="108.2954" y2="67.4041" stroke="#6f02ec" stroke-width="1.0" />
  <line x1="68.9759" y1="50.7665" x2="81.0051" y2="34.8075" stroke="#000000" stroke-width="1.0" />
  <rect
     style="fill:#ffffff;fill-opacity:1;fill-rule:nonzero;stroke:none"
     width="2"
     height="2"
     x="74.4905"
     y="41.7870"
     transform="rotate(-52.9924 74.9905 42.7870)" /> 
  <path
     style="fill:none;stroke:#000000;stroke-width:1px;stroke-linecap:butt;stroke-linejoin:miter;stroke-opacity:1"
     d="m 74.9905,40.7870 2,2 -2,2 m -2.370121,-4 2,2 -2,2"
     transform="rotate(-52.9924 74.9905 42.7870)"/>
  <line x1="81.0051" y1="34.8075" x2="100.9949" y2="34.8075" stroke="#37004b" stroke-width="1.0" />
  <rect
     style="fill:#ffffff;fill-opacity:1;fill-rule:nonzero;stroke:none"
     width="2"
     height="2"
     x="90.5000"
     y="33.8075"
     transform="rotate(0.0000 91.0000 34.8075)" /> 
  <path
     style="fill:none;stroke:#37004b;stroke-width:1px;stroke-linecap:butt;stroke-linejoin:miter;stroke-opacity:1"
     d="m 91.0000,32.8075 2,2 -2,2 m -2.370121,-4 2,2 -2,2"
     transform="rotate(0.0000 91.0000 34.8075)"/>
  <line x1="100.9949" y1="34.8075" x2="113.0241" y2="50.7665" stroke="#d45500" stroke-width="1.0" />
  <rect
     style="fill:#ffffff;fill-opacity:1;fill-rule:nonzero;stroke:none"
     width="2"
     height="2"
     x="106.5095"
     y="41.7870"
     transform="rotate(52.9924 107.0095 42.7870)" /> 
  <path
     style="fill:none;stroke:#d45500;stroke-width:1px;stroke-linecap:butt;stroke-linejoin:miter;stroke-opacity:1"
     d="m 107.0095,40.7870 2,2 -2,2 m -2.370121,-4 2,2 -2,2"
     transform="rotate(52.9924 107.0095 42.7870)"/>
  <line x1="113.0241" y1="50.7665" x2="108.2954" y2="70.2541" stroke="#200019" stroke-width="1.0" />
  <rect
     style="fill:#ffffff;fill-opacity:1;fill-rule:nonzero;stroke:none"
     width="2"
     height="2"
     x="110.1598"
     y="59.5103"
     transform="rotate(103.6394 110.6598 60.5103)" /> 
  <path
     style="fill:none;stroke:#200019;stroke-width:1px;stroke-linecap:butt;stroke-linejoin:miter;stroke-opacity:1"
     d="m 110.6598,58.5103 2,2 -2,2 m -2.370121,-4 2,2 -2,2"
     transform="rotate(103.6394 110.6598 60.5103)"/>
  <line x1="108.2954" y1="70.2541" x2="108.0973" y2="90.2726" stroke="#000000" stroke-width="1.0" />
  <rect
     style="fill:#ffffff;fill-opacity:1;fill-rule:nonzero;stroke:none"
     width="2"
     height="2"
     x="107.6964"
     y="79.2633"
     transform="rotate(90.5671 108.1964 80.2633)" /> 
  <path
     style="fill:none;stroke:#000000;stroke-width:1px;stroke-linecap:butt;stroke-linejoin:miter;stroke-opacity:1"
     d="m 108.1964,78.2633 2,2 -2,2 m -2.370121,-4 2,2 -2,2"
     transform="rotate(90.5671 108.1964 80.2633)"/>
  <line x1="108.1675" y1="110.2913" x2="108.0649" y2="130.3014" stroke="#000000" stroke-width="1.0" />
  <rect
     style="fill:#ffffff;fill-opacity:1;fill-rule:nonzero;stroke:none"
     width="2"
     height="2"
     x="107.6162"
     y="119.2964"
     transform="rotate(90.2937 108.1162 120.2964)" /> 
  <path
     style="fill:none;stroke:#000000;stroke-width:1px;stroke-linecap:butt;stroke-linejoin:miter;stroke-opacity:1"
     d="m 108.1162,118.2964 2,2 -2,2 m -2.370121,-4 2,2 -2,2"
     transform="rotate(90.2937 108.1162 120.2964)"/>
  <line x1="108.0649" y1="130.3014" x2="107.9366" y2="150.3065" stroke="#8806f9" stroke-width="1.0" />
  <rect
     style="fill:#ffffff;fill-opacity:1;fill-rule:nonzero;stroke:none"
     width="2"
     height="2"
     x="107.5008"
     y="139.3040"
     transform="rotate(90.3676 108.0008 140.3040)" /> 
  <path
     style="fill:none;stroke:#8806f9;stroke-width:1px;stroke-linecap:butt;stroke-linejoin:miter;stroke-opacity:1"
     d="m 108.0008,138.3040 2,2 -2,2 m -2.370121,-4 2,2 -2,2"
     transform="rotate(90.3676 108.0008 140.3040)"/>
<circle cx="74.0634" cy="150.3065" r="5.0" stroke="#595959" stroke-width="1.0" fill="#ffffff"/>
<text x="74.0634" y="153.0065" text-anchor="middle" font-family="Helvetica" font-size="7.5" fill="#000000" >G</text>
<circle cx="73.9351" cy="130.3014" r="5.0" stroke="#595959" stroke-width="1.0" fill="#ffffff"/>
<text x="73.9351" y="133.0014" text-anchor="middle" font-family="Helvetica" font-size="7.5" fill="#000000" >G</text>
<circle cx="73.8325" cy="110.2913" r="5.0" stroke="#595959" stroke-width="1.0" fill="#ffffff"/>
<text x="73.8325" y="112.9913" text-anchor="middle" font-family="Helvetica" font-size="7.5" fill="#000000" >C</text>
<circle cx="73.9027" cy="90.2726" r="5.0" stroke="#595959" stroke-width="1.0" fill="#ffffff"/>
<text x="73.9027" y="92.9726" text-anchor="middle" font-family="Helvetica" font-size="7.5" fill="#000000" >G</text>
<circle cx="73.7046" cy="70.2541" r="5.0" stroke="#595959" stroke-width="1.0" fill="#ffffff"/>
<text x="73.7046" y="72.9541" text-anchor="middle" font-family="Helvetica" font-size="7.5" fill="#000000" >C</text>
<circle cx="68.9759" cy="50.7665" r="5.0" stroke="#595959" stroke-width="1.0" fill="#ffffff"/>
<text x="68.9759" y="53.4665" text-anchor="middle" font-family="Helvetica" font-size="7.5" fill="#000000" >A</text>
<circle cx="81.0051" cy="34.8075" r="5.0" stroke="#595959" stroke-width="1.0" fill="#ffffff"/>
<text x="81.0051" y="37.5075" text-anchor="middle" font-family="Helvetica" font-size="7.5" fill="#000000" >U</text>
<circle cx="100.9949" cy="34.8075" r="5.0" stroke="#595959" stroke-width="1.0" fill="#ffffff"/>
<text x="100.9949" y="37.5075" text-anchor="middle" font-family="Helvetica" font-size="7.5" fill="#000000" >C</text>
<circle cx="113.0241" cy="50.7665" r="5.0" stroke="#595959" stroke-width="1.0" fill="#ffffff"/>
<text x="113.0241" y="53.4665" text-anchor="middle" font-family="Helvetica" font-size="7.5" fill="#000000" >G</text>
<circle cx="108.2954" cy="70.2541" r="5.0" stroke="#595959" stroke-width="1.0" fill="#ffffff"/>
<text x="108.2954" y="72.9541" text-anchor="middle" font-family="Helvetica" font-size="7.5" fill="#000000" >G</text>
<circle cx="108.0973" cy="90.2726" r="5.0" stroke="#595959" stroke-width="1.0" fill="#ffffff"/>
<text x="108.0973" y="92.9726" text-anchor="middle" font-family="Helvetica" font-size="7.5" fill="#000000" >C</text>
<circle cx="108.1675" cy="110.2913" r="5.0" stroke="#595959" stroke-width="1.0" fill="#ffffff"/>
<text x="108.1675" y="112.9913" text-anchor="middle" font-family="Helvetica" font-size="7.5" fill="#000000" >G</text>
<circle cx="108.0649" cy="130.3014" r="5.0" stroke="#595959" stroke-width="1.0" fill="#ffffff"/>
<text x="108.0649" y="133.0014" text-anchor="middle" font-family="Helvetica" font-size="7.5" fill="#000000" >C</text>
<circle cx="107.9366" cy="150.3065" r="5.0" stroke="#595959" stroke-width="1.0" fill="#ffffff"/>
<text x="107.9366" y="153.0065" text-anchor="middle" font-family="Helvetica" font-size="7.5" fill="#000000" >C</text>
</svg>