<?xml version="1.0" encoding="UTF-8"?>
<!DOCTYPE svg PUBLIC "-//W3C//DTD SVG 1.1//EN" 
"http://www.w3.org/Graphics/SVG/1.1/DTD/svg11.dtd">

<svg version="1.1"
   width="182px"
   height="182px"
xmlns="http://www.w3.org/2000/svg">
    <rect width="100%" height="100%" fill="white"/>

  <line x1="74.5667" y1="109.4635" x2="75.0240" y2="89.1926" stroke="#595959"
     style="stroke-width:2;stroke-miterlimit:4;stroke-dasharray:1,1;stroke-dashoffset:0" />
  <line x1="75.7283" y1="47.1766" x2="87.2519" y2="30.9026" stroke="#595959"
     style="stroke-width:2;stroke-miterlimit:4;stroke-dasharray:1,1;stroke-dashoffset:0" />
  <line x1="87.2519" y1="30.9026" x2="100.9924" y2="45.5863" stroke="#595959"
     style="stroke-width:2;stroke-miterlimit:4;stroke-dasharray:1,1;stroke-dashoffset:0" />
  <line x1="100.9924" y1="45.5863" x2="118.2695" y2="55.3932" stroke="#595959"
     style="stroke-width:2;stroke-miterlimit:4;stroke-dasharray:1,1;stroke-dashoffset:0" />
  <line x1="118.2695" y1="55.3932" x2="103.2182" y2="68.5447" stroke="#595959"
     style="stroke-width:2;stroke-miterlimit:4;stroke-dasharray:1,1;stroke-dashoffset:0" />
  <line x1="103.8518" y1="89.2013" x2="104.0920" y2="109.7584" stroke="#595959"
     style="stroke-width:2;stroke-miterlimit:4;stroke-dasharray:1,1;stroke-dashoffset:0" />
  <line x1="73.5010" y1="149.8162" x2="74.0163" y2="129.6739" stroke="#d14c00" stroke-width="1.0" />
  <rect
     style="fill:#ffffff;fill-opacity:1;fill-rule:nonzero;stroke:none"
     width="2"
     height="2"
     x="73.2587"
     y="138.7450"
     transform="rotate(-88.5345 73.7587 139.7450)" /> 
  <path
     style="fill:none;stroke:#d14c00;stroke-width:1px;stroke-linecap:butt;stroke-linejoin:miter;stroke-opacity:1"
     d="m 73.7587,137.7450 2,2 -2,2 m -2.370121,-4 2,2 -2,2"
     transform="rotate(-88.5345 73.7587 139.7450)"/>
  <line x1="73.4812" y1="151.0660" x2="103.9378" y2="151.5500" stroke="#4b0084" stroke-width="1.0" />
  <line x1="73.5209" y1="148.5663" x2="103.9775" y2="149.0503" stroke="#4b0084" stroke-width="1.0" />
  <line x1="74.0163" y1="129.6739" x2="74.5667" y2="109.4635" stroke="#000000" stroke-width="1.0" />
  <rect
     style="fill:#ffffff;fill-opacity:1;fill-rule:nonzero;stroke:none"
     width="2"
     height="2"
     x="73.7915"
     y="118.5687"
     transform="rotate(-88.4400 74.2915 119.5687)" /> 
  <path
     style="fill:none;stroke:#000000;stroke-width:1px;stroke-linecap:butt;stroke-linejoin:miter;stroke-opacity:1"
     d="m 74.2915,117.5687 2,2 -2,2 m -2.370121,-4 2,2 -2,2"
     transform="rotate(-88.4400 74.2915 119.5687)"/>
  <line x1="73.9970" y1="130.9238" x2="104.0703" y2="131.3885" stroke="#33003e" stroke-width="1.0" />
  <line x1="74.0356" y1="128.4241" x2="104.1089" y2="128.8888" stroke="#33003e" stroke-width="1.0" />
  <line x1="74.0163" y1="129.6739" x2="103.9576" y2="150.3001" stroke="#e89000" stroke-width="1.0" />
  <rect
     style="fill:#ffffff;stroke:none"
     width="5.5"
     height="2"
     x="86.2370"
     y="138.9870" 
     transform="rotate(34.5625 88.9870 139.9870)"    /> 
  <path
     style="fill:none;stroke:#e89000;stroke-width:1px;stroke-linecap:butt;stroke-linejoin:miter;stroke-opacity:1"
    d="m 89.7370,137.9870 2,2 -2,2 m -1.5,-4 -2,2 2,2" transform="rotate(34.5625 88.9870 139.9870)"/>
  <line x1="74.5543" y1="110.7134" x2="104.0795" y2="111.0084" stroke="#2d0032" stroke-width="1.0" />
  <line x1="74.5792" y1="108.2136" x2="104.1045" y2="108.5085" stroke="#2d0032" stroke-width="1.0" />
  <line x1="75.0240" y1="89.1926" x2="75.4405" y2="68.8520" stroke="#000000" stroke-width="1.0" />
  <rect
     style="fill:#ffffff;fill-opacity:1;fill-rule:nonzero;stroke:none"
     width="2"
     height="2"
     x="74.7323"
     y="78.0223"
     transform="rotate(-88.8270 75.2323 79.0223)" /> 
  <path
     style="fill:none;stroke:#000000;stroke-width:1px;stroke-linecap:butt;stroke-linejoin:miter;stroke-opacity:1"
     d="m 75.2323,77.0223 2,2 -2,2 m -2.370121,-4 2,2 -2,2"
     transform="rotate(-88.8270 75.2323 79.0223)"/>
  <line x1="75.0240" y1="89.1926" x2="103.8518" y2="89.2013" stroke="#400062" stroke-width="1.0" />
  <line x1="75.0240" y1="89.1926" x2="104.0920" y2="109.7584" stroke="#17000d" stroke-width="1.0" />
  <rect
     style="fill:#ffffff;stroke:none"
     width="5.5"
     height="2"
     x="86.8080"
     y="98.4755" 
     transform="rotate(35.2797 89.5580 99.4755)"    /> 
  <path
     style="fill:none;stroke:#17000d;stroke-width:1px;stroke-linecap:butt;stroke-linejoin:miter;stroke-opacity:1"
    d="m 90.3080,97.4755 2,2 -2,2 m -1.5,-4 -2,2 2,2" transform="rotate(35.2797 89.5580 99.4755)"/>
  <line x1="75.4405" y1="68.8520" x2="75.7283" y2="47.1766" stroke="#33003e" stroke-width="1.0" />
  <rect
     style="fill:#ffffff;fill-opacity:1;fill-rule:nonzero;stroke:none"
     width="2"
     height="2"
     x="75.0844"
     y="57.0143"
     transform="rotate(-89.2394 75.5844 58.0143)" /> 
  <path
     style="fill:none;stroke:#33003e;stroke-width:1px;stroke-linecap:butt;stroke-linejoin:miter;stroke-opacity:1"
     d="m 75.5844,56.0143 2,2 -2,2 m -2.370121,-4 2,2 -2,2"
     transform="rotate(-89.2394 75.5844 58.0143)"/>
  <line x1="75.4543" y1="70.1019" x2="103.2320" y2="69.7946" stroke="#2d0032" stroke-width="1.0" />
  <line x1="75.4267" y1="67.6021" x2="103.2044" y2="67.2948" stroke="#2d0032" stroke-width="1.0" />
  <line x1="75.7283" y1="47.1766" x2="100.9924" y2="45.5863" stroke="#bf2d00" stroke-width="1.0" />
  <rect
     style="fill:#ffffff;fill-opacity:1;fill-rule:nonzero;stroke:none"
     width="2"
     height="2"
     x="87.8604"
     y="45.3815"
     transform="rotate(-3.6018 88.3604 46.3815)" /> 
  <path
     style="fill:none;stroke:#bf2d00;stroke-width:1px;stroke-linecap:butt;stroke-linejoin:miter;stroke-opacity:1"
     d="m 88.3604,44.3815 2,2 -2,2 m -2.370121,-4 2,2 -2,2"
     transform="rotate(-3.6018 88.3604 46.3815)"/>
  <line x1="103.2182" y1="68.5447" x2="103.8518" y2="89.2013" stroke="#000000" stroke-width="1.0" />
  <rect
     style="fill:#ffffff;fill-opacity:1;fill-rule:nonzero;stroke:none"
     width="2"
     height="2"
     x="103.0350"
     y="77.8730"
     transform="rotate(88.2432 103.5350 78.8730)" /> 
  <path
     style="fill:none;stroke:#000000;stroke-width:1px;stroke-linecap:butt;stroke-linejoin:miter;stroke-opacity:1"
     d="m 103.5350,76.8730 2,2 -2,2 m -2.370121,-4 2,2 -2,2"
     transform="rotate(88.2432 103.5350 78.8730)"/>
  <line x1="104.0920" y1="109.7584" x2="104.0896" y2="130.1386" stroke="#000000" stroke-width="1.0" />
  <rect
     style="fill:#ffffff;fill-opacity:1;fill-rule:nonzero;stroke:none"
     width="2"
     height="2"
     x="103.5908"
     y="118.9485"
     transform="rotate(90.0066 104.0908 119.9485)" /> 
  <path
     style="fill:none;stroke:#000000;stroke-width:1px;stroke-linecap:butt;stroke-linejoin:miter;stroke-opacity:1"
     d="m 104.0908,117.9485 2,2 -2,2 m -2.370121,-4 2,2 -2,2"
     transform="rotate(90.0066 104.0908 119.9485)"/>
  <line x1="104.0896" y1="130.1386" x2="103.9576" y2="150.3001" stroke="#b82400" stroke-width="1.0" />
  <rect
     style="fill:#ffffff;fill-opacity:1;fill-rule:nonzero;stroke:none"
     width="2"
     height="2"
     x="103.5236"
     y="139.2194"
     transform="rotate(90.3751 104.0236 140.2194)" /> 
  <path
     style="fill:none;stroke:#b82400;stroke-width:1px;stroke-linecap:butt;stroke-linejoin:miter;stroke-opacity:1"
     d="m 104.0236,138.2194 2,2 -2,2 m -2.370121,-4 2,2 -2,2"
     transform="rotate(90.3751 104.0236 140.2194)"/>
<circle cx="73.5010" cy="149.8162" r="5.0" stroke="#595959" stroke-width="1.0" fill="#ffffff"/>
<text x="73.5010" y="152.5162" text-anchor="middle" font-family="Helvetica" font-size="7.5" fill="#000000" >G</text>
<circle cx="74.0163" cy="129.6739" r="5.0" stroke="#595959" stroke-width="1.0" fill="#ffffff"/>
<text x="74.0163" y="132.3739" text-anchor="middle" font-family="Helvetica" font-size="7.5" fill="#000000" >G</text>
<circle cx="74.5667" cy="109.4635" r="5.0" stroke="#595959" stroke-width="1.0" fill="#ffffff"/>
<text x="74.5667" y="112.1635" text-anchor="middle" font-family="Helvetica" font-size="7.5" fill="#000000" >C</text>
<circle cx="75.0240" cy="89.1926" r="5.0" stroke="#595959" stroke-width="1.0" fill="#ffffff"/>
<text x="75.0240" y="91.8926" text-anchor="middle" font-family="Helvetica" font-size="7.5" fill="#000000" >A</text>
<circle cx="75.4405" cy="68.8520" r="5.0" stroke="#595959" stroke-width="1.0" fill="#ffffff"/>
<text x="75.4405" y="71.5520" text-anchor="middle" font-family="Helvetica" font-size="7.5" fill="#000000" >C</text>
<circle cx="75.7283" cy="47.1766" r="5.0" stroke="#595959" stroke-width="1.0" fill="#ffffff"/>
<text x="75.7283" y="49.8766" text-anchor="middle" font-family="Helvetica" font-size="7.5" fill="#000000" >U</text>
<circle cx="87.2519" cy="30.9026" r="5.0" stroke="#595959" stroke-width="1.0" fill="#ffffff"/>
<text x="87.2519" y="33.6026" text-anchor="middle" font-family="Helvetica" font-size="7.5" fill="#000000" >U</text>
<circle cx="100.9924" cy="45.5863" r="5.0" stroke="#595959" stroke-width="1.0" fill="#ffffff"/>
<text x="100.9924" y="48.2863" text-anchor="middle" font-family="Helvetica" font-size="7.5" fill="#000000" >C</text>
<circle cx="118.2695" cy="55.3932" r="5.0" stroke="#595959" stroke-width="1.0" fill="#ffffff"/>
<text x="118.2695" y="58.0932" text-anchor="middle" font-family="Helvetica" font-size="7.5" fill="#000000" >G</text>
<circle cx="103.2182" cy="68.5447" r="5.0" stroke="#595959" stroke-width="1.0" fill="#ffffff"/>
<text x="103.2182" y="71.2447" text-anchor="middle" font-family="Helvetica" font-size="7.5" fill="#000000" >G</text>
<circle cx="103.8518" cy="89.2013" r="5.0" stroke="#595959" stroke-width="1.0" fill="#ffffff"/>
<text x="103.8518" y="91.9013" text-anchor="middle" font-family="Helvetica" font-size="7.5" fill="#000000" >U</text>
<circle cx="104.0920" cy="109.7584" r="5.0" stroke="#595959" stroke-width="1.0" fill="#ffffff"/>
<text x="104.0920" y="112.4584" text-anchor="middle" font-family="Helvetica" font-size="7.5" fill="#000000" >G</text>
<circle cx="104.0896" cy="130.1386" r="5.0" stroke="#595959" stroke-width="1.0" fill="#ffffff"/>
<text x="104.0896" y="132.8386" text-anchor="middle" font-family="Helvetica" font-size="7.5" fill="#000000" >C</text>
<circle cx="103.9576" cy="150.3001" r="5.0" stroke="#595959" stroke-width="1.0" fill="#ffffff"/>
<text x="103.9576" y="153.0001" text-anchor="middle" font-family="Helvetica" font-size="7.5" fill="#000000" >C</text>
</svg>