<?xml version="1.0" encoding="UTF-8"?>
<!DOCTYPE svg PUBLIC "-//W3C//DTD SVG 1.1//EN" 
"http://www.w3.org/Graphics/SVG/1.1/DTD/svg11.dtd">

<svg version="1.1"
   width="182px"
   height="182px"
xmlns="http://www.w3.org/2000/svg">
    <rect width="100%" height="100%" fill="white"/>

  <line x1="75.6397" y1="109.2129" x2="75.4447" y2="88.7477" stroke="#595959"
     style="stroke-width:2;stroke-miterlimit:4;stroke-dasharray:1,1;stroke-dashoffset:0" />
  <line x1="61.4117" y1="54.0611" x2="79.5353" y2="45.8769" stroke="#595959"
     style="stroke-width:2;stroke-miterlimit:4;stroke-dasharray:1,1;stroke-dashoffset:0" />
  <line x1="79.5353" y1="45.8769" x2="96.7362" y2="35.6647" stroke="#595959"
     style="stroke-width:2;stroke-miterlimit:4;stroke-dasharray:1,1;stroke-dashoffset:0" />
  <line x1="96.7362" y1="35.6647" x2="111.6804" y2="48.8861" stroke="#595959"
     style="stroke-width:2;stroke-miterlimit:4;stroke-dasharray:1,1;stroke-dashoffset:0" />
  <line x1="108.7395" y1="88.7547" x2="108.8122" y2="108.8207" stroke="#595959"
     style="stroke-width:2;stroke-miterlimit:4;stroke-dasharray:1,1;stroke-dashoffset:0" />
  <line x1="76.6331" y1="149.6852" x2="76.0505" y2="129.5379" stroke="#cc4200" stroke-width="1.0" />
  <rect
     style="fill:#ffffff;fill-opacity:1;fill-rule:nonzero;stroke:none"
     width="2"
     height="2"
     x="75.8418"
     y="138.6116"
     transform="rotate(268.3438 76.3418 139.6116)" /> 
  <path
     style="fill:none;stroke:#cc4200;stroke-width:1px;stroke-linecap:butt;stroke-linejoin:miter;stroke-opacity:1"
     d="m 76.3418,137.6116 2,2 -2,2 m -2.370121,-4 2,2 -2,2"
     transform="rotate(268.3438 76.3418 139.6116)"/>
  <line x1="76.6612" y1="150.9349" x2="109.7522" y2="150.1900" stroke="#3c0057" stroke-width="1.0" />
  <line x1="76.6049" y1="148.4355" x2="109.6959" y2="147.6906" stroke="#3c0057" stroke-width="1.0" />
  <line x1="76.0505" y1="129.5379" x2="75.6397" y2="109.2129" stroke="#000000" stroke-width="1.0" />
  <rect
     style="fill:#ffffff;fill-opacity:1;fill-rule:nonzero;stroke:none"
     width="2"
     height="2"
     x="75.3451"
     y="118.3754"
     transform="rotate(268.8419 75.8451 119.3754)" /> 
  <path
     style="fill:none;stroke:#000000;stroke-width:1px;stroke-linecap:butt;stroke-linejoin:miter;stroke-opacity:1"
     d="m 75.8451,117.3754 2,2 -2,2 m -2.370121,-4 2,2 -2,2"
     transform="rotate(268.8419 75.8451 119.3754)"/>
  <line x1="76.0750" y1="130.7877" x2="109.1652" y2="130.1397" stroke="#200019" stroke-width="1.0" />
  <line x1="76.0261" y1="128.2881" x2="109.1163" y2="127.6402" stroke="#200019" stroke-width="1.0" />
  <line x1="76.0505" y1="129.5379" x2="109.7241" y2="148.9403" stroke="#e27c00" stroke-width="1.0" />
  <rect
     style="fill:#ffffff;stroke:none"
     width="5.5"
     height="2"
     x="90.1373"
     y="138.2391" 
     transform="rotate(29.9502 92.8873 139.2391)"    /> 
  <path
     style="fill:none;stroke:#e27c00;stroke-width:1px;stroke-linecap:butt;stroke-linejoin:miter;stroke-opacity:1"
    d="m 93.6373,137.2391 2,2 -2,2 m -1.5,-4 -2,2 2,2" transform="rotate(29.9502 92.8873 139.2391)"/>
  <line x1="75.6545" y1="110.4628" x2="108.8270" y2="110.0706" stroke="#2d0032" stroke-width="1.0" />
  <line x1="75.6249" y1="107.9630" x2="108.7974" y2="107.5708" stroke="#2d0032" stroke-width="1.0" />
  <line x1="75.4447" y1="88.7477" x2="75.5125" y2="68.2390" stroke="#33003e" stroke-width="1.0" />
  <rect
     style="fill:#ffffff;fill-opacity:1;fill-rule:nonzero;stroke:none"
     width="2"
     height="2"
     x="74.9786"
     y="77.4934"
     transform="rotate(-89.8107 75.4786 78.4934)" /> 
  <path
     style="fill:none;stroke:#33003e;stroke-width:1px;stroke-linecap:butt;stroke-linejoin:miter;stroke-opacity:1"
     d="m 75.4786,76.4934 2,2 -2,2 m -2.370121,-4 2,2 -2,2"
     transform="rotate(-89.8107 75.4786 78.4934)"/>
  <line x1="75.4447" y1="88.7477" x2="108.7395" y2="88.7547" stroke="#990cc2" stroke-width="1.0" />
  <line x1="75.4447" y1="88.7477" x2="108.8122" y2="108.8207" stroke="#7102f1" stroke-width="1.0" />
  <rect
     style="fill:#ffffff;stroke:none"
     width="5.5"
     height="2"
     x="89.3785"
     y="97.7842" 
     transform="rotate(31.0300 92.1285 98.7842)"    /> 
  <path
     style="fill:none;stroke:#7102f1;stroke-width:1px;stroke-linecap:butt;stroke-linejoin:miter;stroke-opacity:1"
    d="m 92.8785,96.7842 2,2 -2,2 m -1.5,-4 -2,2 2,2" transform="rotate(31.0300 92.1285 98.7842)"/>
  <line x1="75.5125" y1="68.2390" x2="61.4117" y2="54.0611" stroke="#df7200" stroke-width="1.0" />
  <rect
     style="fill:#ffffff;fill-opacity:1;fill-rule:nonzero;stroke:none"
     width="2"
     height="2"
     x="67.9621"
     y="60.1500"
     transform="rotate(225.1563 68.4621 61.1500)" /> 
  <path
     style="fill:none;stroke:#df7200;stroke-width:1px;stroke-linecap:butt;stroke-linejoin:miter;stroke-opacity:1"
     d="m 68.4621,59.1500 2,2 -2,2 m -2.370121,-4 2,2 -2,2"
     transform="rotate(225.1563 68.4621 61.1500)"/>
  <line x1="75.5125" y1="68.2390" x2="79.5353" y2="45.8769" stroke="#cd4500" stroke-width="1.0" />
  <rect
     style="fill:#ffffff;fill-opacity:1;fill-rule:nonzero;stroke:none"
     width="2"
     height="2"
     x="77.0239"
     y="56.0579"
     transform="rotate(-79.8018 77.5239 57.0579)" /> 
  <path
     style="fill:none;stroke:#cd4500;stroke-width:1px;stroke-linecap:butt;stroke-linejoin:miter;stroke-opacity:1"
     d="m 77.5239,55.0579 2,2 -2,2 m -2.370121,-4 2,2 -2,2"
     transform="rotate(-79.8018 77.5239 57.0579)"/>
  <line x1="75.4959" y1="69.4889" x2="108.9228" y2="69.9327" stroke="#940ad9" stroke-width="1.0" />
  <line x1="75.5291" y1="66.9891" x2="108.9560" y2="67.4330" stroke="#940ad9" stroke-width="1.0" />
  <line x1="111.6804" y1="48.8861" x2="108.9394" y2="68.6829" stroke="#e58400" stroke-width="1.0" />
  <rect
     style="fill:#ffffff;fill-opacity:1;fill-rule:nonzero;stroke:none"
     width="2"
     height="2"
     x="109.8099"
     y="57.7845"
     transform="rotate(97.8830 110.3099 58.7845)" /> 
  <path
     style="fill:none;stroke:#e58400;stroke-width:1px;stroke-linecap:butt;stroke-linejoin:miter;stroke-opacity:1"
     d="m 110.3099,56.7845 2,2 -2,2 m -2.370121,-4 2,2 -2,2"
     transform="rotate(97.8830 110.3099 58.7845)"/>
  <line x1="108.9394" y1="68.6829" x2="108.7395" y2="88.7547" stroke="#6001c6" stroke-width="1.0" />
  <rect
     style="fill:#ffffff;fill-opacity:1;fill-rule:nonzero;stroke:none"
     width="2"
     height="2"
     x="108.3394"
     y="77.7188"
     transform="rotate(90.5704 108.8394 78.7188)" /> 
  <path
     style="fill:none;stroke:#6001c6;stroke-width:1px;stroke-linecap:butt;stroke-linejoin:miter;stroke-opacity:1"
     d="m 108.8394,76.7188 2,2 -2,2 m -2.370121,-4 2,2 -2,2"
     transform="rotate(90.5704 108.8394 78.7188)"/>
  <line x1="108.8122" y1="108.8207" x2="109.1408" y2="128.8899" stroke="#000000" stroke-width="1.0" />
  <rect
     style="fill:#ffffff;fill-opacity:1;fill-rule:nonzero;stroke:none"
     width="2"
     height="2"
     x="108.4765"
     y="117.8553"
     transform="rotate(89.0620 108.9765 118.8553)" /> 
  <path
     style="fill:none;stroke:#000000;stroke-width:1px;stroke-linecap:butt;stroke-linejoin:miter;stroke-opacity:1"
     d="m 108.9765,116.8553 2,2 -2,2 m -2.370121,-4 2,2 -2,2"
     transform="rotate(89.0620 108.9765 118.8553)"/>
  <line x1="109.1408" y1="128.8899" x2="109.7241" y2="148.9403" stroke="#b21e13" stroke-width="1.0" />
  <rect
     style="fill:#ffffff;fill-opacity:1;fill-rule:nonzero;stroke:none"
     width="2"
     height="2"
     x="108.9324"
     y="137.9151"
     transform="rotate(88.3336 109.4324 138.9151)" /> 
  <path
     style="fill:none;stroke:#b21e13;stroke-width:1px;stroke-linecap:butt;stroke-linejoin:miter;stroke-opacity:1"
     d="m 109.4324,136.9151 2,2 -2,2 m -2.370121,-4 2,2 -2,2"
     transform="rotate(88.3336 109.4324 138.9151)"/>
<circle cx="76.6331" cy="149.6852" r="5.0" stroke="#595959" stroke-width="1.0" fill="#ffffff"/>
<text x="76.6331" y="152.3852" text-anchor="middle" font-family="Helvetica" font-size="7.5" fill="#000000" >G</text>
<circle cx="76.0505" cy="129.5379" r="5.0" stroke="#595959" stroke-width="1.0" fill="#ffffff"/>
<text x="76.0505" y="132.2379" text-anchor="middle" font-family="Helvetica" font-size="7.5" fill="#000000" >G</text>
<circle cx="75.6397" cy="109.2129" r="5.0" stroke="#595959" stroke-width="1.0" fill="#ffffff"/>
<text x="75.6397" y="111.9129" text-anchor="middle" font-family="Helvetica" font-size="7.5" fill="#000000" >C</text>
<circle cx="75.4447" cy="88.7477" r="5.0" stroke="#595959" stroke-width="1.0" fill="#ffffff"/>
<text x="75.4447" y="91.4477" text-anchor="middle" font-family="Helvetica" font-size="7.5" fill="#000000" >A</text>
<circle cx="75.5125" cy="68.2390" r="5.0" stroke="#595959" stroke-width="1.0" fill="#ffffff"/>
<text x="75.5125" y="70.9390" text-anchor="middle" font-family="Helvetica" font-size="7.5" fill="#000000" >C</text>
<circle cx="61.4117" cy="54.0611" r="5.0" stroke="#595959" stroke-width="1.0" fill="#ffffff"/>
<text x="61.4117" y="56.7611" text-anchor="middle" font-family="Helvetica" font-size="7.5" fill="#000000" >U</text>
<circle cx="79.5353" cy="45.8769" r="5.0" stroke="#595959" stroke-width="1.0" fill="#ffffff"/>
<text x="79.5353" y="48.5769" text-anchor="middle" font-family="Helvetica" font-size="7.5" fill="#000000" >U</text>
<circle cx="96.7362" cy="35.6647" r="5.0" stroke="#595959" stroke-width="1.0" fill="#ffffff"/>
<text x="96.7362" y="38.3647" text-anchor="middle" font-family="Helvetica" font-size="7.5" fill="#000000" >C</text>
<circle cx="111.6804" cy="48.8861" r="5.0" stroke="#595959" stroke-width="1.0" fill="#ffffff"/>
<text x="111.6804" y="51.5861" text-anchor="middle" font-family="Helvetica" font-size="7.5" fill="#000000" >G</text>
<circle cx="108.9394" cy="68.6829" r="5.0" stroke="#595959" stroke-width="1.0" fill="#ffffff"/>
<text x="108.9394" y="71.3829" text-anchor="middle" font-family="Helvetica" font-size="7.5" fill="#000000" >G</text>
<circle cx="108.7395" cy="88.7547" r="5.0" stroke="#595959" stroke-width="1.0" fill="#ffffff"/>
<text x="108.7395" y="91.4547" text-anchor="middle" font-family="Helvetica" font-size="7.5" fill="#000000" >U</text>
<circle cx="108.8122" cy="108.8207" r="5.0" stroke="#595959" stroke-width="1.0" fill="#ffffff"/>
<text x="108.8122" y="111.5207" text-anchor="middle" font-family="Helvetica" font-size="7.5" fill="#000000" >G</text>
<circle cx="109.1408" cy="128.8899" r="5.0" stroke="#595959" stroke-width="1.0" fill="#ffffff"/>
<text x="109.1408" y="131.5899" text-anchor="middle" font-family="Helvetica" font-size="7.5" fill="#000000" >C</text>
<circle cx="109.7241" cy="148.9403" r="5.0" stroke="#595959" stroke-width="1.0" fill="#ffffff"/>
<text x="109.7241" y="151.6403" text-anchor="middle" font-family="Helvetica" font-size="7.5" fill="#000000" >C</text>
</svg>