<?xml version="1.0" encoding="UTF-8"?>
<!DOCTYPE svg PUBLIC "-//W3C//DTD SVG 1.1//EN" 
"http://www.w3.org/Graphics/SVG/1.1/DTD/svg11.dtd">

<svg version="1.1"
   width="182px"
   height="182px"
xmlns="http://www.w3.org/2000/svg">
    <rect width="100%" height="100%" fill="white"/>

  <line x1="72.7884" y1="108.7590" x2="72.9469" y2="88.6340" stroke="#595959"
     style="stroke-width:2;stroke-miterlimit:4;stroke-dasharray:1,1;stroke-dashoffset:0" />
  <line x1="72.0612" y1="47.6151" x2="87.6854" y2="35.1653" stroke="#595959"
     style="stroke-width:2;stroke-miterlimit:4;stroke-dasharray:1,1;stroke-dashoffset:0" />
  <line x1="104.6223" y1="45.9301" x2="121.6198" y2="56.2191" stroke="#595959"
     style="stroke-width:2;stroke-miterlimit:4;stroke-dasharray:1,1;stroke-dashoffset:0" />
  <line x1="121.6198" y1="56.2191" x2="105.4383" y2="67.9790" stroke="#595959"
     style="stroke-width:2;stroke-miterlimit:4;stroke-dasharray:1,1;stroke-dashoffset:0" />
  <line x1="105.5792" y1="88.6329" x2="105.4099" y2="109.2284" stroke="#595959"
     style="stroke-width:2;stroke-miterlimit:4;stroke-dasharray:1,1;stroke-dashoffset:0" />
  <line x1="72.0612" y1="47.6151" x2="104.6223" y2="45.9301" stroke="#6f02ec" stroke-width="1.0" />
  <path d="M 82.5917 49.0226 L 82.5917 44.5226 L 87.0917 44.5226 L 87.0917 49.0226 z" style="stroke:#6f02ec;stroke-width:1.0" fill="#6f02ec" 
    transform="rotate(177.0377 88.3417 46.7726)"/>
  <path d="M 90.0917 49.0226 L 90.0917 44.5226 L 94.0917 46.7726 z" style="stroke:#6f02ec;stroke-width:1.0" fill="#6f02ec"
    transform="rotate(177.0377 88.3417 46.7726)"/>
  <line x1="71.6326" y1="148.9469" x2="72.3106" y2="128.8690" stroke="#d24f00" stroke-width="1.0" />
  <rect
     style="fill:#ffffff;fill-opacity:1;fill-rule:nonzero;stroke:none"
     width="2"
     height="2"
     x="71.4716"
     y="137.9080"
     transform="rotate(-88.0661 71.9716 138.9080)" /> 
  <path
     style="fill:none;stroke:#d24f00;stroke-width:1px;stroke-linecap:butt;stroke-linejoin:miter;stroke-opacity:1"
     d="m 71.9716,136.9080 2,2 -2,2 m -2.370121,-4 2,2 -2,2"
     transform="rotate(-88.0661 71.9716 138.9080)"/>
  <line x1="71.5979" y1="150.1965" x2="104.1979" y2="151.1033" stroke="#33003e" stroke-width="1.0" />
  <line x1="71.6674" y1="147.6974" x2="104.2674" y2="148.6043" stroke="#33003e" stroke-width="1.0" />
  <line x1="72.3106" y1="128.8690" x2="72.7884" y2="108.7590" stroke="#000000" stroke-width="1.0" />
  <rect
     style="fill:#ffffff;fill-opacity:1;fill-rule:nonzero;stroke:none"
     width="2"
     height="2"
     x="72.0495"
     y="117.8140"
     transform="rotate(-88.6388 72.5495 118.8140)" /> 
  <path
     style="fill:none;stroke:#000000;stroke-width:1px;stroke-linecap:butt;stroke-linejoin:miter;stroke-opacity:1"
     d="m 72.5495,116.8140 2,2 -2,2 m -2.370121,-4 2,2 -2,2"
     transform="rotate(-88.6388 72.5495 118.8140)"/>
  <line x1="72.2804" y1="130.1186" x2="104.8825" y2="130.9071" stroke="#37004b" stroke-width="1.0" />
  <line x1="72.3408" y1="127.6194" x2="104.9429" y2="128.4078" stroke="#37004b" stroke-width="1.0" />
  <line x1="72.3106" y1="128.8690" x2="104.2326" y2="149.8538" stroke="#e78c00" stroke-width="1.0" />
  <rect
     style="fill:#ffffff;stroke:none"
     width="5.5"
     height="2"
     x="85.5216"
     y="138.3614" 
     transform="rotate(33.3200 88.2716 139.3614)"    /> 
  <path
     style="fill:none;stroke:#e78c00;stroke-width:1px;stroke-linecap:butt;stroke-linejoin:miter;stroke-opacity:1"
    d="m 89.0216,137.3614 2,2 -2,2 m -1.5,-4 -2,2 2,2" transform="rotate(33.3200 88.2716 139.3614)"/>
  <line x1="72.7705" y1="110.0088" x2="105.3919" y2="110.4783" stroke="#270026" stroke-width="1.0" />
  <line x1="72.8064" y1="107.5091" x2="105.4279" y2="107.9785" stroke="#270026" stroke-width="1.0" />
  <line x1="72.9469" y1="88.6340" x2="72.7601" y2="68.5100" stroke="#000000" stroke-width="1.0" />
  <rect
     style="fill:#ffffff;fill-opacity:1;fill-rule:nonzero;stroke:none"
     width="2"
     height="2"
     x="72.3535"
     y="77.5720"
     transform="rotate(269.4681 72.8535 78.5720)" /> 
  <path
     style="fill:none;stroke:#000000;stroke-width:1px;stroke-linecap:butt;stroke-linejoin:miter;stroke-opacity:1"
     d="m 72.8535,76.5720 2,2 -2,2 m -2.370121,-4 2,2 -2,2"
     transform="rotate(269.4681 72.8535 78.5720)"/>
  <line x1="72.9469" y1="88.6340" x2="105.5792" y2="88.6329" stroke="#44006e" stroke-width="1.0" />
  <line x1="72.9469" y1="88.6340" x2="105.4099" y2="109.2284" stroke="#17000d" stroke-width="1.0" />
  <rect
     style="fill:#ffffff;stroke:none"
     width="5.5"
     height="2"
     x="86.4284"
     y="97.9312" 
     transform="rotate(32.3908 89.1784 98.9312)"    /> 
  <path
     style="fill:none;stroke:#17000d;stroke-width:1px;stroke-linecap:butt;stroke-linejoin:miter;stroke-opacity:1"
    d="m 89.9284,96.9312 2,2 -2,2 m -1.5,-4 -2,2 2,2" transform="rotate(32.3908 89.1784 98.9312)"/>
  <line x1="72.7601" y1="68.5100" x2="72.0612" y2="47.6151" stroke="#270026" stroke-width="1.0" />
  <rect
     style="fill:#ffffff;fill-opacity:1;fill-rule:nonzero;stroke:none"
     width="2"
     height="2"
     x="71.9106"
     y="57.0625"
     transform="rotate(268.0844 72.4106 58.0625)" /> 
  <path
     style="fill:none;stroke:#270026;stroke-width:1px;stroke-linecap:butt;stroke-linejoin:miter;stroke-opacity:1"
     d="m 72.4106,56.0625 2,2 -2,2 m -2.370121,-4 2,2 -2,2"
     transform="rotate(268.0844 72.4106 58.0625)"/>
  <line x1="72.7804" y1="69.7598" x2="105.4586" y2="69.2288" stroke="#400062" stroke-width="1.0" />
  <line x1="72.7397" y1="67.2602" x2="105.4180" y2="66.7292" stroke="#400062" stroke-width="1.0" />
  <line x1="87.6854" y1="35.1653" x2="104.6223" y2="45.9301" stroke="#c83b00" stroke-width="1.0" />
  <rect
     style="fill:#ffffff;fill-opacity:1;fill-rule:nonzero;stroke:none"
     width="2"
     height="2"
     x="95.6538"
     y="39.5477"
     transform="rotate(212.4394 96.1538 40.5477)" /> 
  <path
     style="fill:none;stroke:#c83b00;stroke-width:1px;stroke-linecap:butt;stroke-linejoin:miter;stroke-opacity:1"
     d="m 96.1538,38.5477 2,2 -2,2 m -2.370121,-4 2,2 -2,2"
     transform="rotate(212.4394 96.1538 40.5477)"/>
  <line x1="104.6223" y1="45.9301" x2="105.4383" y2="67.9790" stroke="#f3bd00" stroke-width="1.0" />
  <rect
     style="fill:#ffffff;stroke:none"
     width="5.5"
     height="2"
     x="102.2803"
     y="55.9546" 
     transform="rotate(87.8804 105.0303 56.9546)"    /> 
  <path
     style="fill:none;stroke:#f3bd00;stroke-width:1px;stroke-linecap:butt;stroke-linejoin:miter;stroke-opacity:1"
    d="m 105.7803,54.9546 2,2 -2,2 m -1.5,-4 -2,2 2,2" transform="rotate(87.8804 105.0303 56.9546)"/>
  <line x1="105.4383" y1="67.9790" x2="105.5792" y2="88.6329" stroke="#000000" stroke-width="1.0" />
  <rect
     style="fill:#ffffff;fill-opacity:1;fill-rule:nonzero;stroke:none"
     width="2"
     height="2"
     x="105.0087"
     y="77.3059"
     transform="rotate(89.6093 105.5087 78.3059)" /> 
  <path
     style="fill:none;stroke:#000000;stroke-width:1px;stroke-linecap:butt;stroke-linejoin:miter;stroke-opacity:1"
     d="m 105.5087,76.3059 2,2 -2,2 m -2.370121,-4 2,2 -2,2"
     transform="rotate(89.6093 105.5087 78.3059)"/>
  <line x1="105.4099" y1="109.2284" x2="104.9127" y2="129.6574" stroke="#000000" stroke-width="1.0" />
  <rect
     style="fill:#ffffff;fill-opacity:1;fill-rule:nonzero;stroke:none"
     width="2"
     height="2"
     x="104.6613"
     y="118.4429"
     transform="rotate(91.3942 105.1613 119.4429)" /> 
  <path
     style="fill:none;stroke:#000000;stroke-width:1px;stroke-linecap:butt;stroke-linejoin:miter;stroke-opacity:1"
     d="m 105.1613,117.4429 2,2 -2,2 m -2.370121,-4 2,2 -2,2"
     transform="rotate(91.3942 105.1613 119.4429)"/>
  <line x1="104.9127" y1="129.6574" x2="104.2326" y2="149.8538" stroke="#b41f06" stroke-width="1.0" />
  <rect
     style="fill:#ffffff;fill-opacity:1;fill-rule:nonzero;stroke:none"
     width="2"
     height="2"
     x="104.0727"
     y="138.7556"
     transform="rotate(91.9285 104.5727 139.7556)" /> 
  <path
     style="fill:none;stroke:#b41f06;stroke-width:1px;stroke-linecap:butt;stroke-linejoin:miter;stroke-opacity:1"
     d="m 104.5727,137.7556 2,2 -2,2 m -2.370121,-4 2,2 -2,2"
     transform="rotate(91.9285 104.5727 139.7556)"/>
<circle cx="71.6326" cy="148.9469" r="5.0" stroke="#595959" stroke-width="1.0" fill="#ffffff"/>
<text x="71.6326" y="151.6469" text-anchor="middle" font-family="Helvetica" font-size="7.5" fill="#000000" >G</text>
<circle cx="72.3106" cy="128.8690" r="5.0" stroke="#595959" stroke-width="1.0" fill="#ffffff"/>
<text x="72.3106" y="131.5690" text-anchor="middle" font-family="Helvetica" font-size="7.5" fill="#000000" >G</text>
<circle cx="72.7884" cy="108.7590" r="5.0" stroke="#595959" stroke-width="1.0" fill="#ffffff"/>
<text x="72.7884" y="111.4590" text-anchor="middle" font-family="Helvetica" font-size="7.5" fill="#000000" >C</text>
<circle cx="72.9469" cy="88.6340" r="5.0" stroke="#595959" stroke-width="1.0" fill="#ffffff"/>
<text x="72.9469" y="91.3340" text-anchor="middle" font-family="Helvetica" font-size="7.5" fill="#000000" >A</text>
<circle cx="72.7601" cy="68.5100" r="5.0" stroke="#595959" stroke-width="1.0" fill="#ffffff"/>
<text x="72.7601" y="71.2100" text-anchor="middle" font-family="Helvetica" font-size="7.5" fill="#000000" >C</text>
<circle cx="72.0612" cy="47.6151" r="5.0" stroke="#595959" stroke-width="1.0" fill="#ffffff"/>
<text x="72.0612" y="50.3151" text-anchor="middle" font-family="Helvetica" font-size="7.5" fill="#000000" >U</text>
<circle cx="87.6854" cy="35.1653" r="5.0" stroke="#595959" stroke-width="1.0" fill="#ffffff"/>
<text x="87.6854" y="37.8653" text-anchor="middle" font-family="Helvetica" font-size="7.5" fill="#000000" >U</text>
<circle cx="104.6223" cy="45.9301" r="5.0" stroke="#595959" stroke-width="1.0" fill="#ffffff"/>
<text x="104.6223" y="48.6301" text-anchor="middle" font-family="Helvetica" font-size="7.5" fill="#000000" >C</text>
<circle cx="121.6198" cy="56.2191" r="5.0" stroke="#595959" stroke-width="1.0" fill="#ffffff"/>
<text x="121.6198" y="58.9191" text-anchor="middle" font-family="Helvetica" font-size="7.5" fill="#000000" >G</text>
<circle cx="105.4383" cy="67.9790" r="5.0" stroke="#595959" stroke-width="1.0" fill="#ffffff"/>
<text x="105.4383" y="70.6790" text-anchor="middle" font-family="Helvetica" font-size="7.5" fill="#000000" >G</text>
<circle cx="105.5792" cy="88.6329" r="5.0" stroke="#595959" stroke-width="1.0" fill="#ffffff"/>
<text x="105.5792" y="91.3329" text-anchor="middle" font-family="Helvetica" font-size="7.5" fill="#000000" >U</text>
<circle cx="105.4099" cy="109.2284" r="5.0" stroke="#595959" stroke-width="1.0" fill="#ffffff"/>
<text x="105.4099" y="111.9284" text-anchor="middle" font-family="Helvetica" font-size="7.5" fill="#000000" >G</text>
<circle cx="104.9127" cy="129.6574" r="5.0" stroke="#595959" stroke-width="1.0" fill="#ffffff"/>
<text x="104.9127" y="132.3574" text-anchor="middle" font-family="Helvetica" font-size="7.5" fill="#000000" >C</text>
<circle cx="104.2326" cy="149.8538" r="5.0" stroke="#595959" stroke-width="1.0" fill="#ffffff"/>
<text x="104.2326" y="152.5538" text-anchor="middle" font-family="Helvetica" font-size="7.5" fill="#000000" >C</text>
</svg>