<?xml version="1.0" encoding="UTF-8"?>
<!DOCTYPE svg PUBLIC "-//W3C//DTD SVG 1.1//EN" 
"http://www.w3.org/Graphics/SVG/1.1/DTD/svg11.dtd">

<svg version="1.1"
   width="182px"
   height="182px"
xmlns="http://www.w3.org/2000/svg">
    <rect width="100%" height="100%" fill="white"/>

  <line x1="73.8085" y1="110.3681" x2="73.9586" y2="90.4209" stroke="#595959"
     style="stroke-width:2;stroke-miterlimit:4;stroke-dasharray:1,1;stroke-dashoffset:0" />
  <line x1="83.2160" y1="33.2019" x2="103.1593" y2="34.2925" stroke="#595959"
     style="stroke-width:2;stroke-miterlimit:4;stroke-dasharray:1,1;stroke-dashoffset:0" />
  <line x1="103.1593" y1="34.2925" x2="113.4311" y2="51.4273" stroke="#595959"
     style="stroke-width:2;stroke-miterlimit:4;stroke-dasharray:1,1;stroke-dashoffset:0" />
  <line x1="113.4311" y1="51.4273" x2="106.6600" y2="70.2680" stroke="#595959"
     style="stroke-width:2;stroke-miterlimit:4;stroke-dasharray:1,1;stroke-dashoffset:0" />
  <line x1="106.7719" y1="90.4300" x2="106.6504" y2="110.5667" stroke="#595959"
     style="stroke-width:2;stroke-miterlimit:4;stroke-dasharray:1,1;stroke-dashoffset:0" />
  <line x1="73.2004" y1="150.3411" x2="73.5405" y2="130.3431" stroke="#d24f00" stroke-width="1.0" />
  <rect
     style="fill:#ffffff;fill-opacity:1;fill-rule:nonzero;stroke:none"
     width="2"
     height="2"
     x="72.8705"
     y="139.3421"
     transform="rotate(-89.0257 73.3705 140.3421)" /> 
  <path
     style="fill:none;stroke:#d24f00;stroke-width:1px;stroke-linecap:butt;stroke-linejoin:miter;stroke-opacity:1"
     d="m 73.3705,138.3421 2,2 -2,2 m -2.370121,-4 2,2 -2,2"
     transform="rotate(-89.0257 73.3705 140.3421)"/>
  <line x1="73.1883" y1="151.5910" x2="106.0851" y2="151.9090" stroke="#37004b" stroke-width="1.0" />
  <line x1="73.2125" y1="149.0911" x2="106.1092" y2="149.4091" stroke="#37004b" stroke-width="1.0" />
  <line x1="73.5405" y1="130.3431" x2="73.8085" y2="110.3681" stroke="#000000" stroke-width="1.0" />
  <rect
     style="fill:#ffffff;fill-opacity:1;fill-rule:nonzero;stroke:none"
     width="2"
     height="2"
     x="73.1745"
     y="119.3556"
     transform="rotate(-89.2313 73.6745 120.3556)" /> 
  <path
     style="fill:none;stroke:#000000;stroke-width:1px;stroke-linecap:butt;stroke-linejoin:miter;stroke-opacity:1"
     d="m 73.6745,118.3556 2,2 -2,2 m -2.370121,-4 2,2 -2,2"
     transform="rotate(-89.2313 73.6745 120.3556)"/>
  <line x1="73.5288" y1="131.5931" x2="106.3398" y2="131.8995" stroke="#270026" stroke-width="1.0" />
  <line x1="73.5522" y1="129.0932" x2="106.3631" y2="129.3996" stroke="#270026" stroke-width="1.0" />
  <line x1="73.5405" y1="130.3431" x2="106.0971" y2="150.6591" stroke="#ea9900" stroke-width="1.0" />
  <rect
     style="fill:#ffffff;stroke:none"
     width="5.5"
     height="2"
     x="87.0688"
     y="139.5011" 
     transform="rotate(31.9649 89.8188 140.5011)"    /> 
  <path
     style="fill:none;stroke:#ea9900;stroke-width:1px;stroke-linecap:butt;stroke-linejoin:miter;stroke-opacity:1"
    d="m 90.5688,138.5011 2,2 -2,2 m -1.5,-4 -2,2 2,2" transform="rotate(31.9649 89.8188 140.5011)"/>
  <line x1="73.8010" y1="111.6181" x2="106.6428" y2="111.8167" stroke="#200019" stroke-width="1.0" />
  <line x1="73.8161" y1="109.1181" x2="106.6579" y2="109.3167" stroke="#200019" stroke-width="1.0" />
  <line x1="73.9586" y1="90.4209" x2="73.7989" y2="70.4787" stroke="#000000" stroke-width="1.0" />
  <rect
     style="fill:#ffffff;fill-opacity:1;fill-rule:nonzero;stroke:none"
     width="2"
     height="2"
     x="73.3787"
     y="79.4498"
     transform="rotate(269.5414 73.8787 80.4498)" /> 
  <path
     style="fill:none;stroke:#000000;stroke-width:1px;stroke-linecap:butt;stroke-linejoin:miter;stroke-opacity:1"
     d="m 73.8787,78.4498 2,2 -2,2 m -2.370121,-4 2,2 -2,2"
     transform="rotate(269.5414 73.8787 80.4498)"/>
  <line x1="73.9586" y1="90.4209" x2="106.7719" y2="90.4300" stroke="#44006e" stroke-width="1.0" />
  <line x1="73.9586" y1="90.4209" x2="106.6504" y2="110.5667" stroke="#200019" stroke-width="1.0" />
  <rect
     style="fill:#ffffff;stroke:none"
     width="5.5"
     height="2"
     x="87.5545"
     y="99.4938" 
     transform="rotate(31.6428 90.3045 100.4938)"    /> 
  <path
     style="fill:none;stroke:#200019;stroke-width:1px;stroke-linecap:butt;stroke-linejoin:miter;stroke-opacity:1"
    d="m 91.0545,98.4938 2,2 -2,2 m -1.5,-4 -2,2 2,2" transform="rotate(31.6428 90.3045 100.4938)"/>
  <line x1="73.7989" y1="70.4787" x2="73.3558" y2="50.5532" stroke="#a5137f" stroke-width="1.0" />
  <rect
     style="fill:#ffffff;fill-opacity:1;fill-rule:nonzero;stroke:none"
     width="2"
     height="2"
     x="73.0774"
     y="59.5160"
     transform="rotate(268.7261 73.5774 60.5160)" /> 
  <path
     style="fill:none;stroke:#a5137f;stroke-width:1px;stroke-linecap:butt;stroke-linejoin:miter;stroke-opacity:1"
     d="m 73.5774,58.5160 2,2 -2,2 m -2.370121,-4 2,2 -2,2"
     transform="rotate(268.7261 73.5774 60.5160)"/>
  <line x1="73.8069" y1="71.7286" x2="106.6680" y2="71.5180" stroke="#4b0084" stroke-width="1.0" />
  <line x1="73.7909" y1="69.2287" x2="106.6519" y2="69.0180" stroke="#4b0084" stroke-width="1.0" />
  <line x1="73.3558" y1="50.5532" x2="83.2160" y2="33.2019" stroke="#000000" stroke-width="1.0" />
  <rect
     style="fill:#ffffff;fill-opacity:1;fill-rule:nonzero;stroke:none"
     width="2"
     height="2"
     x="77.7859"
     y="40.8776"
     transform="rotate(-60.3919 78.2859 41.8776)" /> 
  <path
     style="fill:none;stroke:#000000;stroke-width:1px;stroke-linecap:butt;stroke-linejoin:miter;stroke-opacity:1"
     d="m 78.2859,39.8776 2,2 -2,2 m -2.370121,-4 2,2 -2,2"
     transform="rotate(-60.3919 78.2859 41.8776)"/>
  <line x1="73.3558" y1="50.5532" x2="106.6600" y2="70.2680" stroke="#990cc2" stroke-width="1.0" />
  <rect
     style="fill:#ffffff;stroke:none"
     width="5.5"
     height="2"
     x="87.2579"
     y="59.4106" 
     transform="rotate(30.6239 90.0079 60.4106)"    /> 
  <path
     style="fill:none;stroke:#990cc2;stroke-width:1px;stroke-linecap:butt;stroke-linejoin:miter;stroke-opacity:1"
    d="m 90.7579,58.4106 2,2 -2,2 m -1.5,-4 -2,2 2,2" transform="rotate(30.6239 90.0079 60.4106)"/>
  <line x1="106.6600" y1="70.2680" x2="106.7719" y2="90.4300" stroke="#000000" stroke-width="1.0" />
  <rect
     style="fill:#ffffff;fill-opacity:1;fill-rule:nonzero;stroke:none"
     width="2"
     height="2"
     x="106.2159"
     y="79.3490"
     transform="rotate(89.6818 106.7159 80.3490)" /> 
  <path
     style="fill:none;stroke:#000000;stroke-width:1px;stroke-linecap:butt;stroke-linejoin:miter;stroke-opacity:1"
     d="m 106.7159,78.3490 2,2 -2,2 m -2.370121,-4 2,2 -2,2"
     transform="rotate(89.6818 106.7159 80.3490)"/>
  <line x1="106.6504" y1="110.5667" x2="106.3514" y2="130.6495" stroke="#000000" stroke-width="1.0" />
  <rect
     style="fill:#ffffff;fill-opacity:1;fill-rule:nonzero;stroke:none"
     width="2"
     height="2"
     x="106.0009"
     y="119.6081"
     transform="rotate(90.8528 106.5009 120.6081)" /> 
  <path
     style="fill:none;stroke:#000000;stroke-width:1px;stroke-linecap:butt;stroke-linejoin:miter;stroke-opacity:1"
     d="m 106.5009,118.6081 2,2 -2,2 m -2.370121,-4 2,2 -2,2"
     transform="rotate(90.8528 106.5009 120.6081)"/>
  <line x1="106.3514" y1="130.6495" x2="106.0971" y2="150.6591" stroke="#9b0dba" stroke-width="1.0" />
  <rect
     style="fill:#ffffff;fill-opacity:1;fill-rule:nonzero;stroke:none"
     width="2"
     height="2"
     x="105.7243"
     y="139.6543"
     transform="rotate(90.7281 106.2243 140.6543)" /> 
  <path
     style="fill:none;stroke:#9b0dba;stroke-width:1px;stroke-linecap:butt;stroke-linejoin:miter;stroke-opacity:1"
     d="m 106.2243,138.6543 2,2 -2,2 m -2.370121,-4 2,2 -2,2"
     transform="rotate(90.7281 106.2243 140.6543)"/>
<circle cx="73.2004" cy="150.3411" r="5.0" stroke="#595959" stroke-width="1.0" fill="#ffffff"/>
<text x="73.2004" y="153.0411" text-anchor="middle" font-family="Helvetica" font-size="7.5" fill="#000000" >G</text>
<circle cx="73.5405" cy="130.3431" r="5.0" stroke="#595959" stroke-width="1.0" fill="#ffffff"/>
<text x="73.5405" y="133.0431" text-anchor="middle" font-family="Helvetica" font-size="7.5" fill="#000000" >G</text>
<circle cx="73.8085" cy="110.3681" r="5.0" stroke="#595959" stroke-width="1.0" fill="#ffffff"/>
<text x="73.8085" y="113.0681" text-anchor="middle" font-family="Helvetica" font-size="7.5" fill="#000000" >C</text>
<circle cx="73.9586" cy="90.4209" r="5.0" stroke="#595959" stroke-width="1.0" fill="#ffffff"/>
<text x="73.9586" y="93.1209" text-anchor="middle" font-family="Helvetica" font-size="7.5" fill="#000000" >A</text>
<circle cx="73.7989" cy="70.4787" r="5.0" stroke="#595959" stroke-width="1.0" fill="#ffffff"/>
<text x="73.7989" y="73.1787" text-anchor="middle" font-family="Helvetica" font-size="7.5" fill="#000000" >C</text>
<circle cx="73.3558" cy="50.5532" r="5.0" stroke="#595959" stroke-width="1.0" fill="#ffffff"/>
<text x="73.3558" y="53.2532" text-anchor="middle" font-family="Helvetica" font-size="7.5" fill="#000000" >U</text>
<circle cx="83.2160" cy="33.2019" r="5.0" stroke="#595959" stroke-width="1.0" fill="#ffffff"/>
<text x="83.2160" y="35.9019" text-anchor="middle" font-family="Helvetica" font-size="7.5" fill="#000000" >U</text>
<circle cx="103.1593" cy="34.2925" r="5.0" stroke="#595959" stroke-width="1.0" fill="#ffffff"/>
<text x="103.1593" y="36.9925" text-anchor="middle" font-family="Helvetica" font-size="7.5" fill="#000000" >C</text>
<circle cx="113.4311" cy="51.4273" r="5.0" stroke="#595959" stroke-width="1.0" fill="#ffffff"/>
<text x="113.4311" y="54.1273" text-anchor="middle" font-family="Helvetica" font-size="7.5" fill="#000000" >G</text>
<circle cx="106.6600" cy="70.2680" r="5.0" stroke="#595959" stroke-width="1.0" fill="#ffffff"/>
<text x="106.6600" y="72.9680" text-anchor="middle" font-family="Helvetica" font-size="7.5" fill="#000000" >G</text>
<circle cx="106.7719" cy="90.4300" r="5.0" stroke="#595959" stroke-width="1.0" fill="#ffffff"/>
<text x="106.7719" y="93.1300" text-anchor="middle" font-family="Helvetica" font-size="7.5" fill="#000000" >U</text>
<circle cx="106.6504" cy="110.5667" r="5.0" stroke="#595959" stroke-width="1.0" fill="#ffffff"/>
<text x="106.6504" y="113.2667" text-anchor="middle" font-family="Helvetica" font-size="7.5" fill="#000000" >G</text>
<circle cx="106.3514" cy="130.6495" r="5.0" stroke="#595959" stroke-width="1.0" fill="#ffffff"/>
<text x="106.3514" y="133.3495" text-anchor="middle" font-family="Helvetica" font-size="7.5" fill="#000000" >C</text>
<circle cx="106.0971" cy="150.6591" r="5.0" stroke="#595959" stroke-width="1.0" fill="#ffffff"/>
<text x="106.0971" y="153.3591" text-anchor="middle" font-family="Helvetica" font-size="7.5" fill="#000000" >C</text>
</svg>