<?xml version="1.0" encoding="UTF-8"?>
<!DOCTYPE svg PUBLIC "-//W3C//DTD SVG 1.1//EN" 
"http://www.w3.org/Graphics/SVG/1.1/DTD/svg11.dtd">

<svg version="1.1"
   width="182px"
   height="182px"
xmlns="http://www.w3.org/2000/svg">
    <rect width="100%" height="100%" fill="white"/>

  <line x1="73.6099" y1="110.4089" x2="73.7203" y2="90.4592" stroke="#595959"
     style="stroke-width:2;stroke-miterlimit:4;stroke-dasharray:1,1;stroke-dashoffset:0" />
  <line x1="73.6629" y1="70.5195" x2="74.6149" y2="50.6107" stroke="#595959"
     style="stroke-width:2;stroke-miterlimit:4;stroke-dasharray:1,1;stroke-dashoffset:0" />
  <line x1="83.7018" y1="32.8377" x2="103.6309" y2="34.1358" stroke="#595959"
     style="stroke-width:2;stroke-miterlimit:4;stroke-dasharray:1,1;stroke-dashoffset:0" />
  <line x1="103.6309" y1="34.1358" x2="113.4991" y2="51.5066" stroke="#595959"
     style="stroke-width:2;stroke-miterlimit:4;stroke-dasharray:1,1;stroke-dashoffset:0" />
  <line x1="113.4991" y1="51.5066" x2="106.4337" y2="70.2419" stroke="#595959"
     style="stroke-width:2;stroke-miterlimit:4;stroke-dasharray:1,1;stroke-dashoffset:0" />
  <line x1="106.5093" y1="90.4373" x2="106.4867" y2="110.6223" stroke="#595959"
     style="stroke-width:2;stroke-miterlimit:4;stroke-dasharray:1,1;stroke-dashoffset:0" />
  <line x1="72.8855" y1="150.3590" x2="73.2915" y2="130.3692" stroke="#cf4a00" stroke-width="1.0" />
  <rect
     style="fill:#ffffff;fill-opacity:1;fill-rule:nonzero;stroke:none"
     width="2"
     height="2"
     x="72.5885"
     y="139.3641"
     transform="rotate(-88.8363 73.0885 140.3641)" /> 
  <path
     style="fill:none;stroke:#cf4a00;stroke-width:1px;stroke-linecap:butt;stroke-linejoin:miter;stroke-opacity:1"
     d="m 73.0885,138.3641 2,2 -2,2 m -2.370121,-4 2,2 -2,2"
     transform="rotate(-88.8363 73.0885 140.3641)"/>
  <line x1="72.8703" y1="151.6089" x2="105.7751" y2="152.0089" stroke="#2d0032" stroke-width="1.0" />
  <line x1="72.9006" y1="149.1091" x2="105.8055" y2="149.5090" stroke="#2d0032" stroke-width="1.0" />
  <line x1="73.2915" y1="130.3692" x2="73.6099" y2="110.4089" stroke="#000000" stroke-width="1.0" />
  <rect
     style="fill:#ffffff;fill-opacity:1;fill-rule:nonzero;stroke:none"
     width="2"
     height="2"
     x="72.9507"
     y="119.3891"
     transform="rotate(-89.0860 73.4507 120.3891)" /> 
  <path
     style="fill:none;stroke:#000000;stroke-width:1px;stroke-linecap:butt;stroke-linejoin:miter;stroke-opacity:1"
     d="m 73.4507,118.3891 2,2 -2,2 m -2.370121,-4 2,2 -2,2"
     transform="rotate(-89.0860 73.4507 120.3891)"/>
  <line x1="73.2777" y1="131.6191" x2="106.1494" y2="131.9827" stroke="#33003e" stroke-width="1.0" />
  <line x1="73.3053" y1="129.1193" x2="106.1771" y2="129.4829" stroke="#33003e" stroke-width="1.0" />
  <line x1="73.2915" y1="130.3692" x2="105.7903" y2="150.7589" stroke="#e89000" stroke-width="1.0" />
  <rect
     style="fill:#ffffff;stroke:none"
     width="5.5"
     height="2"
     x="86.7909"
     y="139.5641" 
     transform="rotate(32.1042 89.5409 140.5641)"    /> 
  <path
     style="fill:none;stroke:#e89000;stroke-width:1px;stroke-linecap:butt;stroke-linejoin:miter;stroke-opacity:1"
    d="m 90.2909,138.5641 2,2 -2,2 m -1.5,-4 -2,2 2,2" transform="rotate(32.1042 89.5409 140.5641)"/>
  <line x1="73.6018" y1="111.6589" x2="106.4786" y2="111.8723" stroke="#2d0032" stroke-width="1.0" />
  <line x1="73.6180" y1="109.1590" x2="106.4948" y2="109.3723" stroke="#2d0032" stroke-width="1.0" />
  <line x1="73.7203" y1="90.4592" x2="73.6629" y2="70.5195" stroke="#000000" stroke-width="1.0" />
  <rect
     style="fill:#ffffff;fill-opacity:1;fill-rule:nonzero;stroke:none"
     width="2"
     height="2"
     x="73.1916"
     y="79.4894"
     transform="rotate(269.8350 73.6916 80.4894)" /> 
  <path
     style="fill:none;stroke:#000000;stroke-width:1px;stroke-linecap:butt;stroke-linejoin:miter;stroke-opacity:1"
     d="m 73.6916,78.4894 2,2 -2,2 m -2.370121,-4 2,2 -2,2"
     transform="rotate(269.8350 73.6916 80.4894)"/>
  <line x1="73.7212" y1="91.7092" x2="106.5101" y2="91.6873" stroke="#2d0032" stroke-width="1.0" />
  <line x1="73.7195" y1="89.2093" x2="106.5085" y2="89.1873" stroke="#2d0032" stroke-width="1.0" />
  <line x1="73.7203" y1="90.4592" x2="106.4867" y2="110.6223" stroke="#200019" stroke-width="1.0" />
  <rect
     style="fill:#ffffff;stroke:none"
     width="5.5"
     height="2"
     x="87.3535"
     y="99.5408" 
     transform="rotate(31.6064 90.1035 100.5408)"    /> 
  <path
     style="fill:none;stroke:#200019;stroke-width:1px;stroke-linecap:butt;stroke-linejoin:miter;stroke-opacity:1"
    d="m 90.8535,98.5408 2,2 -2,2 m -1.5,-4 -2,2 2,2" transform="rotate(31.6064 90.1035 100.5408)"/>
  <line x1="73.6735" y1="71.7695" x2="106.4443" y2="71.4918" stroke="#2d0032" stroke-width="1.0" />
  <line x1="73.6523" y1="69.2696" x2="106.4231" y2="68.9919" stroke="#2d0032" stroke-width="1.0" />
  <line x1="74.6149" y1="50.6107" x2="83.7018" y2="32.8377" stroke="#000000" stroke-width="1.0" />
  <rect
     style="fill:#ffffff;fill-opacity:1;fill-rule:nonzero;stroke:none"
     width="2"
     height="2"
     x="78.6583"
     y="40.7242"
     transform="rotate(-62.9204 79.1583 41.7242)" /> 
  <path
     style="fill:none;stroke:#000000;stroke-width:1px;stroke-linecap:butt;stroke-linejoin:miter;stroke-opacity:1"
     d="m 79.1583,39.7242 2,2 -2,2 m -2.370121,-4 2,2 -2,2"
     transform="rotate(-62.9204 79.1583 41.7242)"/>
  <line x1="74.6149" y1="50.6107" x2="106.4337" y2="70.2419" stroke="#3c0057" stroke-width="1.0" />
  <rect
     style="fill:#ffffff;stroke:none"
     width="5.5"
     height="2"
     x="87.7743"
     y="59.4263" 
     transform="rotate(31.6733 90.5243 60.4263)"    /> 
  <path
     style="fill:none;stroke:#3c0057;stroke-width:1px;stroke-linecap:butt;stroke-linejoin:miter;stroke-opacity:1"
    d="m 91.2743,58.4263 2,2 -2,2 m -1.5,-4 -2,2 2,2" transform="rotate(31.6733 90.5243 60.4263)"/>
  <line x1="106.4337" y1="70.2419" x2="106.5093" y2="90.4373" stroke="#000000" stroke-width="1.0" />
  <rect
     style="fill:#ffffff;fill-opacity:1;fill-rule:nonzero;stroke:none"
     width="2"
     height="2"
     x="105.9715"
     y="79.3396"
     transform="rotate(89.7855 106.4715 80.3396)" /> 
  <path
     style="fill:none;stroke:#000000;stroke-width:1px;stroke-linecap:butt;stroke-linejoin:miter;stroke-opacity:1"
     d="m 106.4715,78.3396 2,2 -2,2 m -2.370121,-4 2,2 -2,2"
     transform="rotate(89.7855 106.4715 80.3396)"/>
  <line x1="106.4867" y1="110.6223" x2="106.1633" y2="130.7328" stroke="#000000" stroke-width="1.0" />
  <rect
     style="fill:#ffffff;fill-opacity:1;fill-rule:nonzero;stroke:none"
     width="2"
     height="2"
     x="105.8250"
     y="119.6776"
     transform="rotate(90.9213 106.3250 120.6776)" /> 
  <path
     style="fill:none;stroke:#000000;stroke-width:1px;stroke-linecap:butt;stroke-linejoin:miter;stroke-opacity:1"
     d="m 106.3250,118.6776 2,2 -2,2 m -2.370121,-4 2,2 -2,2"
     transform="rotate(90.9213 106.3250 120.6776)"/>
  <line x1="106.1633" y1="130.7328" x2="105.7903" y2="150.7589" stroke="#9d0eb1" stroke-width="1.0" />
  <rect
     style="fill:#ffffff;fill-opacity:1;fill-rule:nonzero;stroke:none"
     width="2"
     height="2"
     x="105.4768"
     y="139.7459"
     transform="rotate(91.0669 105.9768 140.7459)" /> 
  <path
     style="fill:none;stroke:#9d0eb1;stroke-width:1px;stroke-linecap:butt;stroke-linejoin:miter;stroke-opacity:1"
     d="m 105.9768,138.7459 2,2 -2,2 m -2.370121,-4 2,2 -2,2"
     transform="rotate(91.0669 105.9768 140.7459)"/>
<circle cx="72.8855" cy="150.3590" r="5.0" stroke="#595959" stroke-width="1.0" fill="#ffffff"/>
<text x="72.8855" y="153.0590" text-anchor="middle" font-family="Helvetica" font-size="7.5" fill="#000000" >G</text>
<circle cx="73.2915" cy="130.3692" r="5.0" stroke="#595959" stroke-width="1.0" fill="#ffffff"/>
<text x="73.2915" y="133.0692" text-anchor="middle" font-family="Helvetica" font-size="7.5" fill="#000000" >G</text>
<circle cx="73.6099" cy="110.4089" r="5.0" stroke="#595959" stroke-width="1.0" fill="#ffffff"/>
<text x="73.6099" y="113.1089" text-anchor="middle" font-family="Helvetica" font-size="7.5" fill="#000000" >C</text>
<circle cx="73.7203" cy="90.4592" r="5.0" stroke="#595959" stroke-width="1.0" fill="#ffffff"/>
<text x="73.7203" y="93.1592" text-anchor="middle" font-family="Helvetica" font-size="7.5" fill="#000000" >G</text>
<circle cx="73.6629" cy="70.5195" r="5.0" stroke="#595959" stroke-width="1.0" fill="#ffffff"/>
<text x="73.6629" y="73.2195" text-anchor="middle" font-family="Helvetica" font-size="7.5" fill="#000000" >C</text>
<circle cx="74.6149" cy="50.6107" r="5.0" stroke="#595959" stroke-width="1.0" fill="#ffffff"/>
<text x="74.6149" y="53.3107" text-anchor="middle" font-family="Helvetica" font-size="7.5" fill="#000000" >A</text>
<circle cx="83.7018" cy="32.8377" r="5.0" stroke="#595959" stroke-width="1.0" fill="#ffffff"/>
<text x="83.7018" y="35.5377" text-anchor="middle" font-family="Helvetica" font-size="7.5" fill="#000000" >U</text>
<circle cx="103.6309" cy="34.1358" r="5.0" stroke="#595959" stroke-width="1.0" fill="#ffffff"/>
<text x="103.6309" y="36.8358" text-anchor="middle" font-family="Helvetica" font-size="7.5" fill="#000000" >C</text>
<circle cx="113.4991" cy="51.5066" r="5.0" stroke="#595959" stroke-width="1.0" fill="#ffffff"/>
<text x="113.4991" y="54.2066" text-anchor="middle" font-family="Helvetica" font-size="7.5" fill="#000000" >G</text>
<circle cx="106.4337" cy="70.2419" r="5.0" stroke="#595959" stroke-width="1.0" fill="#ffffff"/>
<text x="106.4337" y="72.9419" text-anchor="middle" font-family="Helvetica" font-size="7.5" fill="#000000" >G</text>
<circle cx="106.5093" cy="90.4373" r="5.0" stroke="#595959" stroke-width="1.0" fill="#ffffff"/>
<text x="106.5093" y="93.1373" text-anchor="middle" font-family="Helvetica" font-size="7.5" fill="#000000" >C</text>
<circle cx="106.4867" cy="110.6223" r="5.0" stroke="#595959" stroke-width="1.0" fill="#ffffff"/>
<text x="106.4867" y="113.3223" text-anchor="middle" font-family="Helvetica" font-size="7.5" fill="#000000" >G</text>
<circle cx="106.1633" cy="130.7328" r="5.0" stroke="#595959" stroke-width="1.0" fill="#ffffff"/>
<text x="106.1633" y="133.4328" text-anchor="middle" font-family="Helvetica" font-size="7.5" fill="#000000" >C</text>
<circle cx="105.7903" cy="150.7589" r="5.0" stroke="#595959" stroke-width="1.0" fill="#ffffff"/>
<text x="105.7903" y="153.4589" text-anchor="middle" font-family="Helvetica" font-size="7.5" fill="#000000" >C</text>
</svg>