<?xml version="1.0" encoding="UTF-8"?>
<!DOCTYPE svg PUBLIC "-//W3C//DTD SVG 1.1//EN" 
"http://www.w3.org/Graphics/SVG/1.1/DTD/svg11.dtd">

<svg version="1.1"
   width="308px"
   height="308px"
xmlns="http://www.w3.org/2000/svg">
    <rect width="100%" height="100%" fill="white"/>

  <line x1="136.9739" y1="218.3863" x2="136.9493" y2="198.4191" stroke="#595959"
     style="stroke-width:2;stroke-miterlimit:4;stroke-dasharray:1,1;stroke-dashoffset:0" />
  <line x1="136.9325" y1="98.8551" x2="134.8481" y2="79.0817" stroke="#595959"
     style="stroke-width:2;stroke-miterlimit:4;stroke-dasharray:1,1;stroke-dashoffset:0" />
  <line x1="137.9841" y1="59.3722" x2="155.7369" y2="50.2274" stroke="#595959"
     style="stroke-width:2;stroke-miterlimit:4;stroke-dasharray:1,1;stroke-dashoffset:0" />
  <line x1="155.7369" y1="50.2274" x2="173.0752" y2="60.1649" stroke="#595959"
     style="stroke-width:2;stroke-miterlimit:4;stroke-dasharray:1,1;stroke-dashoffset:0" />
  <line x1="177.4836" y1="79.6628" x2="169.8537" y2="98.1996" stroke="#595959"
     style="stroke-width:2;stroke-miterlimit:4;stroke-dasharray:1,1;stroke-dashoffset:0" />
  <line x1="169.9960" y1="198.6034" x2="169.8123" y2="218.5905" stroke="#595959"
     style="stroke-width:2;stroke-miterlimit:4;stroke-dasharray:1,1;stroke-dashoffset:0" />
  <line x1="136.9403" y1="200.0190" x2="169.9871" y2="200.2034" stroke="#eda600" stroke-width="1.0" />
  <circle cx="153.4637" cy="200.1112" r="2.25" stroke="#eda600" stroke-width="1.0" fill="#eda600"/>
  <line x1="137.2134" y1="158.5457" x2="170.3261" y2="158.6086" stroke="#e07500" stroke-width="1.0" />
  <circle cx="153.7698" cy="158.5772" r="2.25" stroke="#e07500" stroke-width="1.0" fill="#e07500"/>
  <line x1="137.3132" y1="137.0279" x2="170.2703" y2="136.9513" stroke="#e99400" stroke-width="1.0" />
  <circle cx="153.7917" cy="136.9896" r="2.25" stroke="#e99400" stroke-width="1.0" fill="#e99400"/>
  <line x1="136.9644" y1="100.4548" x2="169.8856" y2="99.7993" stroke="#eb9d00" stroke-width="1.0" />
  <circle cx="153.4250" cy="100.1270" r="2.25" stroke="#eb9d00" stroke-width="1.0" fill="#eb9d00"/>
  <line x1="136.7386" y1="258.3553" x2="136.8295" y2="238.3650" stroke="#cc4200" stroke-width="1.0" />
  <rect
     style="fill:#ffffff;fill-opacity:1;fill-rule:nonzero;stroke:none"
     width="2"
     height="2"
     x="136.2841"
     y="247.3601"
     transform="rotate(-89.7393 136.7841 248.3601)" /> 
  <path
     style="fill:none;stroke:#cc4200;stroke-width:1px;stroke-linecap:butt;stroke-linejoin:miter;stroke-opacity:1"
     d="m 136.7841,246.3601 2,2 -2,2 m -2.370121,-4 2,2 -2,2"
     transform="rotate(-89.7393 136.7841 248.3601)"/>
  <line x1="136.7303" y1="259.6052" x2="169.3866" y2="259.8209" stroke="#37004b" stroke-width="1.0" />
  <line x1="136.7469" y1="257.1053" x2="169.4031" y2="257.3209" stroke="#37004b" stroke-width="1.0" />
  <line x1="136.8295" y1="238.3650" x2="136.9739" y2="218.3863" stroke="#000000" stroke-width="1.0" />
  <rect
     style="fill:#ffffff;fill-opacity:1;fill-rule:nonzero;stroke:none"
     width="2"
     height="2"
     x="136.4017"
     y="227.3756"
     transform="rotate(-89.5860 136.9017 228.3756)" /> 
  <path
     style="fill:none;stroke:#000000;stroke-width:1px;stroke-linecap:butt;stroke-linejoin:miter;stroke-opacity:1"
     d="m 136.9017,226.3756 2,2 -2,2 m -2.370121,-4 2,2 -2,2"
     transform="rotate(-89.5860 136.9017 228.3756)"/>
  <line x1="136.8214" y1="239.6150" x2="169.5422" y2="239.8281" stroke="#270026" stroke-width="1.0" />
  <line x1="136.8377" y1="237.1150" x2="169.5585" y2="237.3281" stroke="#270026" stroke-width="1.0" />
  <line x1="136.8295" y1="238.3650" x2="169.3949" y2="258.5709" stroke="#eb9d00" stroke-width="1.0" />
  <rect
     style="fill:#ffffff;stroke:none"
     width="5.5"
     height="2"
     x="150.3622"
     y="247.4679" 
     transform="rotate(31.8185 153.1122 248.4679)"    /> 
  <path
     style="fill:none;stroke:#eb9d00;stroke-width:1px;stroke-linecap:butt;stroke-linejoin:miter;stroke-opacity:1"
    d="m 153.8622,246.4679 2,2 -2,2 m -1.5,-4 -2,2 2,2" transform="rotate(31.8185 153.1122 248.4679)"/>
  <line x1="136.9661" y1="219.6363" x2="169.8045" y2="219.8405" stroke="#270026" stroke-width="1.0" />
  <line x1="136.9817" y1="217.1363" x2="169.8201" y2="217.3405" stroke="#270026" stroke-width="1.0" />
  <line x1="136.9493" y1="198.4191" x2="137.1459" y2="178.4677" stroke="#980bca" stroke-width="1.0" />
  <rect
     style="fill:#ffffff;fill-opacity:1;fill-rule:nonzero;stroke:none"
     width="2"
     height="2"
     x="136.5476"
     y="187.4434"
     transform="rotate(-89.4352 137.0476 188.4434)" /> 
  <path
     style="fill:none;stroke:#980bca;stroke-width:1px;stroke-linecap:butt;stroke-linejoin:miter;stroke-opacity:1"
     d="m 137.0476,186.4434 2,2 -2,2 m -2.370121,-4 2,2 -2,2"
     transform="rotate(-89.4352 137.0476 188.4434)"/>
  <line x1="136.9582" y1="196.8191" x2="170.0050" y2="197.0035" stroke="#6301ce" stroke-width="1.0" />
  <line x1="136.9493" y1="198.4191" x2="169.8123" y2="218.5905" stroke="#400062" stroke-width="1.0" />
  <rect
     style="fill:#ffffff;stroke:none"
     width="5.5"
     height="2"
     x="150.6308"
     y="207.5048" 
     transform="rotate(31.5417 153.3808 208.5048)"    /> 
  <path
     style="fill:none;stroke:#400062;stroke-width:1px;stroke-linecap:butt;stroke-linejoin:miter;stroke-opacity:1"
    d="m 154.1308,206.5048 2,2 -2,2 m -1.5,-4 -2,2 2,2" transform="rotate(31.5417 153.3808 208.5048)"/>
  <line x1="137.1459" y1="178.4677" x2="137.2134" y2="158.5457" stroke="#8f08ea" stroke-width="1.0" />
  <rect
     style="fill:#ffffff;fill-opacity:1;fill-rule:nonzero;stroke:none"
     width="2"
     height="2"
     x="136.6797"
     y="167.5067"
     transform="rotate(-89.8058 137.1797 168.5067)" /> 
  <path
     style="fill:none;stroke:#8f08ea;stroke-width:1px;stroke-linecap:butt;stroke-linejoin:miter;stroke-opacity:1"
     d="m 137.1797,166.5067 2,2 -2,2 m -2.370121,-4 2,2 -2,2"
     transform="rotate(-89.8058 137.1797 168.5067)"/>
  <line x1="137.1403" y1="179.7177" x2="170.1176" y2="179.8653" stroke="#6801dc" stroke-width="1.0" />
  <line x1="137.1515" y1="177.2177" x2="170.1288" y2="177.3654" stroke="#6801dc" stroke-width="1.0" />
  <line x1="137.2134" y1="158.5457" x2="137.3169" y2="138.6278" stroke="#9b0dba" stroke-width="1.0" />
  <rect
     style="fill:#ffffff;fill-opacity:1;fill-rule:nonzero;stroke:none"
     width="2"
     height="2"
     x="136.7651"
     y="147.5868"
     transform="rotate(-89.7025 137.2651 148.5868)" /> 
  <path
     style="fill:none;stroke:#9b0dba;stroke-width:1px;stroke-linecap:butt;stroke-linejoin:miter;stroke-opacity:1"
     d="m 137.2651,146.5868 2,2 -2,2 m -2.370121,-4 2,2 -2,2"
     transform="rotate(-89.7025 137.2651 148.5868)"/>
  <line x1="137.3169" y1="138.6278" x2="137.2939" y2="118.7476" stroke="#9b0dba" stroke-width="1.0" />
  <rect
     style="fill:#ffffff;fill-opacity:1;fill-rule:nonzero;stroke:none"
     width="2"
     height="2"
     x="136.8054"
     y="127.6877"
     transform="rotate(269.9337 137.3054 128.6877)" /> 
  <path
     style="fill:none;stroke:#9b0dba;stroke-width:1px;stroke-linecap:butt;stroke-linejoin:miter;stroke-opacity:1"
     d="m 137.3054,126.6877 2,2 -2,2 m -2.370121,-4 2,2 -2,2"
     transform="rotate(269.9337 137.3054 128.6877)"/>
  <line x1="137.3206" y1="140.2278" x2="170.2777" y2="140.1513" stroke="#7803fb" stroke-width="1.0" />
  <line x1="137.2939" y1="118.7476" x2="136.9325" y2="98.8551" stroke="#6001c6" stroke-width="1.0" />
  <rect
     style="fill:#ffffff;fill-opacity:1;fill-rule:nonzero;stroke:none"
     width="2"
     height="2"
     x="136.6132"
     y="107.8013"
     transform="rotate(268.9593 137.1132 108.8013)" /> 
  <path
     style="fill:none;stroke:#6001c6;stroke-width:1px;stroke-linecap:butt;stroke-linejoin:miter;stroke-opacity:1"
     d="m 137.1132,106.8013 2,2 -2,2 m -2.370121,-4 2,2 -2,2"
     transform="rotate(268.9593 137.1132 108.8013)"/>
  <line x1="137.3070" y1="119.9975" x2="170.1608" y2="119.6535" stroke="#33003e" stroke-width="1.0" />
  <line x1="137.2808" y1="117.4977" x2="170.1346" y2="117.1536" stroke="#33003e" stroke-width="1.0" />
  <line x1="137.2939" y1="118.7476" x2="170.2740" y2="138.5513" stroke="#eeaa00" stroke-width="1.0" />
  <rect
     style="fill:#ffffff;stroke:none"
     width="5.5"
     height="2"
     x="151.0339"
     y="127.6495" 
     transform="rotate(30.9838 153.7839 128.6495)"    /> 
  <path
     style="fill:none;stroke:#eeaa00;stroke-width:1px;stroke-linecap:butt;stroke-linejoin:miter;stroke-opacity:1"
    d="m 154.5339,126.6495 2,2 -2,2 m -1.5,-4 -2,2 2,2" transform="rotate(30.9838 153.7839 128.6495)"/>
  <line x1="136.9007" y1="97.2554" x2="169.8219" y2="96.5999" stroke="#7803fb" stroke-width="1.0" />
  <line x1="134.8481" y1="79.0817" x2="137.9841" y2="59.3722" stroke="#8a06f6" stroke-width="1.0" />
  <rect
     style="fill:#ffffff;fill-opacity:1;fill-rule:nonzero;stroke:none"
     width="2"
     height="2"
     x="135.9161"
     y="68.2269"
     transform="rotate(-80.9593 136.4161 69.2269)" /> 
  <path
     style="fill:none;stroke:#8a06f6;stroke-width:1px;stroke-linecap:butt;stroke-linejoin:miter;stroke-opacity:1"
     d="m 136.4161,67.2269 2,2 -2,2 m -2.370121,-4 2,2 -2,2"
     transform="rotate(-80.9593 136.4161 69.2269)"/>
  <line x1="134.8481" y1="79.0817" x2="169.8537" y2="98.1996" stroke="#520099" stroke-width="1.0" />
  <rect
     style="fill:#ffffff;stroke:none"
     width="5.5"
     height="2"
     x="149.6009"
     y="87.6407" 
     transform="rotate(28.6406 152.3509 88.6407)"    /> 
  <path
     style="fill:none;stroke:#520099;stroke-width:1px;stroke-linecap:butt;stroke-linejoin:miter;stroke-opacity:1"
    d="m 153.1009,86.6407 2,2 -2,2 m -1.5,-4 -2,2 2,2" transform="rotate(28.6406 152.3509 88.6407)"/>
  <line x1="173.0752" y1="60.1649" x2="177.4836" y2="79.6628" stroke="#000000" stroke-width="1.0" />
  <rect
     style="fill:#ffffff;fill-opacity:1;fill-rule:nonzero;stroke:none"
     width="2"
     height="2"
     x="174.7794"
     y="68.9139"
     transform="rotate(77.2598 175.2794 69.9139)" /> 
  <path
     style="fill:none;stroke:#000000;stroke-width:1px;stroke-linecap:butt;stroke-linejoin:miter;stroke-opacity:1"
     d="m 175.2794,67.9139 2,2 -2,2 m -2.370121,-4 2,2 -2,2"
     transform="rotate(77.2598 175.2794 69.9139)"/>
  <line x1="169.8537" y1="98.1996" x2="170.1477" y2="118.4036" stroke="#940ad9" stroke-width="1.0" />
  <rect
     style="fill:#ffffff;fill-opacity:1;fill-rule:nonzero;stroke:none"
     width="2"
     height="2"
     x="169.5007"
     y="107.3016"
     transform="rotate(89.1663 170.0007 108.3016)" /> 
  <path
     style="fill:none;stroke:#940ad9;stroke-width:1px;stroke-linecap:butt;stroke-linejoin:miter;stroke-opacity:1"
     d="m 170.0007,106.3016 2,2 -2,2 m -2.370121,-4 2,2 -2,2"
     transform="rotate(89.1663 170.0007 108.3016)"/>
  <line x1="170.1477" y1="118.4036" x2="170.2740" y2="138.5513" stroke="#ae1a38" stroke-width="1.0" />
  <rect
     style="fill:#ffffff;fill-opacity:1;fill-rule:nonzero;stroke:none"
     width="2"
     height="2"
     x="169.7108"
     y="127.4774"
     transform="rotate(89.6409 170.2108 128.4774)" /> 
  <path
     style="fill:none;stroke:#ae1a38;stroke-width:1px;stroke-linecap:butt;stroke-linejoin:miter;stroke-opacity:1"
     d="m 170.2108,126.4774 2,2 -2,2 m -2.370121,-4 2,2 -2,2"
     transform="rotate(89.6409 170.2108 128.4774)"/>
  <line x1="170.2740" y1="138.5513" x2="170.3261" y2="158.6086" stroke="#940ad9" stroke-width="1.0" />
  <rect
     style="fill:#ffffff;fill-opacity:1;fill-rule:nonzero;stroke:none"
     width="2"
     height="2"
     x="169.8000"
     y="147.5800"
     transform="rotate(89.8511 170.3000 148.5800)" /> 
  <path
     style="fill:none;stroke:#940ad9;stroke-width:1px;stroke-linecap:butt;stroke-linejoin:miter;stroke-opacity:1"
     d="m 170.3000,146.5800 2,2 -2,2 m -2.370121,-4 2,2 -2,2"
     transform="rotate(89.8511 170.3000 148.5800)"/>
  <line x1="170.3261" y1="158.6086" x2="170.1232" y2="178.6153" stroke="#b21e13" stroke-width="1.0" />
  <rect
     style="fill:#ffffff;fill-opacity:1;fill-rule:nonzero;stroke:none"
     width="2"
     height="2"
     x="169.7247"
     y="167.6120"
     transform="rotate(90.5811 170.2247 168.6120)" /> 
  <path
     style="fill:none;stroke:#b21e13;stroke-width:1px;stroke-linecap:butt;stroke-linejoin:miter;stroke-opacity:1"
     d="m 170.2247,166.6120 2,2 -2,2 m -2.370121,-4 2,2 -2,2"
     transform="rotate(90.5811 170.2247 168.6120)"/>
  <line x1="170.1232" y1="178.6153" x2="169.9960" y2="198.6034" stroke="#a5137f" stroke-width="1.0" />
  <rect
     style="fill:#ffffff;fill-opacity:1;fill-rule:nonzero;stroke:none"
     width="2"
     height="2"
     x="169.5596"
     y="187.6094"
     transform="rotate(90.3645 170.0596 188.6094)" /> 
  <path
     style="fill:none;stroke:#a5137f;stroke-width:1px;stroke-linecap:butt;stroke-linejoin:miter;stroke-opacity:1"
     d="m 170.0596,186.6094 2,2 -2,2 m -2.370121,-4 2,2 -2,2"
     transform="rotate(90.3645 170.0596 188.6094)"/>
  <line x1="169.8123" y1="218.5905" x2="169.5503" y2="238.5781" stroke="#000000" stroke-width="1.0" />
  <rect
     style="fill:#ffffff;fill-opacity:1;fill-rule:nonzero;stroke:none"
     width="2"
     height="2"
     x="169.1813"
     y="227.5843"
     transform="rotate(90.7510 169.6813 228.5843)" /> 
  <path
     style="fill:none;stroke:#000000;stroke-width:1px;stroke-linecap:butt;stroke-linejoin:miter;stroke-opacity:1"
     d="m 169.6813,226.5843 2,2 -2,2 m -2.370121,-4 2,2 -2,2"
     transform="rotate(90.7510 169.6813 228.5843)"/>
  <line x1="169.5503" y1="238.5781" x2="169.3949" y2="258.5709" stroke="#8d07ef" stroke-width="1.0" />
  <rect
     style="fill:#ffffff;fill-opacity:1;fill-rule:nonzero;stroke:none"
     width="2"
     height="2"
     x="168.9726"
     y="247.5745"
     transform="rotate(90.4455 169.4726 248.5745)" /> 
  <path
     style="fill:none;stroke:#8d07ef;stroke-width:1px;stroke-linecap:butt;stroke-linejoin:miter;stroke-opacity:1"
     d="m 169.4726,246.5745 2,2 -2,2 m -2.370121,-4 2,2 -2,2"
     transform="rotate(90.4455 169.4726 248.5745)"/>
<circle cx="136.7386" cy="258.3553" r="5.0" stroke="#595959" stroke-width="1.0" fill="#ffffff"/>
<text x="136.7386" y="261.0553" text-anchor="middle" font-family="Helvetica" font-size="7.5" fill="#000000" >G</text>
<circle cx="136.8295" cy="238.3650" r="5.0" stroke="#595959" stroke-width="1.0" fill="#ffffff"/>
<text x="136.8295" y="241.0650" text-anchor="middle" font-family="Helvetica" font-size="7.5" fill="#000000" >G</text>
<circle cx="136.9739" cy="218.3863" r="5.0" stroke="#595959" stroke-width="1.0" fill="#ffffff"/>
<text x="136.9739" y="221.0863" text-anchor="middle" font-family="Helvetica" font-size="7.5" fill="#000000" >C</text>
<circle cx="136.9493" cy="198.4191" r="5.0" stroke="#595959" stroke-width="1.0" fill="#ffffff"/>
<text x="136.9493" y="201.1191" text-anchor="middle" font-family="Helvetica" font-size="7.5" fill="#000000" >A</text>
<circle cx="137.1459" cy="178.4677" r="5.0" stroke="#595959" stroke-width="1.0" fill="#ffffff"/>
<text x="137.1459" y="181.1677" text-anchor="middle" font-family="Helvetica" font-size="7.5" fill="#000000" >G</text>
<circle cx="137.2134" cy="158.5457" r="5.0" stroke="#595959" stroke-width="1.0" fill="#ffffff"/>
<text x="137.2134" y="161.2457" text-anchor="middle" font-family="Helvetica" font-size="7.5" fill="#000000" >A</text>
<circle cx="137.3169" cy="138.6278" r="5.0" stroke="#595959" stroke-width="1.0" fill="#ffffff"/>
<text x="137.3169" y="141.3278" text-anchor="middle" font-family="Helvetica" font-size="7.5" fill="#000000" >U</text>
<circle cx="137.2939" cy="118.7476" r="5.0" stroke="#595959" stroke-width="1.0" fill="#ffffff"/>
<text x="137.2939" y="121.4476" text-anchor="middle" font-family="Helvetica" font-size="7.5" fill="#000000" >C</text>
<circle cx="136.9325" cy="98.8551" r="5.0" stroke="#595959" stroke-width="1.0" fill="#ffffff"/>
<text x="136.9325" y="101.5551" text-anchor="middle" font-family="Helvetica" font-size="7.5" fill="#000000" >U</text>
<circle cx="134.8481" cy="79.0817" r="5.0" stroke="#595959" stroke-width="1.0" fill="#ffffff"/>
<text x="134.8481" y="81.7817" text-anchor="middle" font-family="Helvetica" font-size="7.5" fill="#000000" >G</text>
<circle cx="137.9841" cy="59.3722" r="5.0" stroke="#595959" stroke-width="1.0" fill="#ffffff"/>
<text x="137.9841" y="62.0722" text-anchor="middle" font-family="Helvetica" font-size="7.5" fill="#000000" >U</text>
<circle cx="155.7369" cy="50.2274" r="5.0" stroke="#595959" stroke-width="1.0" fill="#ffffff"/>
<text x="155.7369" y="52.9274" text-anchor="middle" font-family="Helvetica" font-size="7.5" fill="#000000" >A</text>
<circle cx="173.0752" cy="60.1649" r="5.0" stroke="#595959" stroke-width="1.0" fill="#ffffff"/>
<text x="173.0752" y="62.8649" text-anchor="middle" font-family="Helvetica" font-size="7.5" fill="#000000" >A</text>
<circle cx="177.4836" cy="79.6628" r="5.0" stroke="#595959" stroke-width="1.0" fill="#ffffff"/>
<text x="177.4836" y="82.3628" text-anchor="middle" font-family="Helvetica" font-size="7.5" fill="#000000" >U</text>
<circle cx="169.8537" cy="98.1996" r="5.0" stroke="#595959" stroke-width="1.0" fill="#ffffff"/>
<text x="169.8537" y="100.8996" text-anchor="middle" font-family="Helvetica" font-size="7.5" fill="#000000" >A</text>
<circle cx="170.1477" cy="118.4036" r="5.0" stroke="#595959" stroke-width="1.0" fill="#ffffff"/>
<text x="170.1477" y="121.1036" text-anchor="middle" font-family="Helvetica" font-size="7.5" fill="#000000" >G</text>
<circle cx="170.2740" cy="138.5513" r="5.0" stroke="#595959" stroke-width="1.0" fill="#ffffff"/>
<text x="170.2740" y="141.2513" text-anchor="middle" font-family="Helvetica" font-size="7.5" fill="#000000" >A</text>
<circle cx="170.3261" cy="158.6086" r="5.0" stroke="#595959" stroke-width="1.0" fill="#ffffff"/>
<text x="170.3261" y="161.3086" text-anchor="middle" font-family="Helvetica" font-size="7.5" fill="#000000" >A</text>
<circle cx="170.1232" cy="178.6153" r="5.0" stroke="#595959" stroke-width="1.0" fill="#ffffff"/>
<text x="170.1232" y="181.3153" text-anchor="middle" font-family="Helvetica" font-size="7.5" fill="#000000" >C</text>
<circle cx="169.9960" cy="198.6034" r="5.0" stroke="#595959" stroke-width="1.0" fill="#ffffff"/>
<text x="169.9960" y="201.3034" text-anchor="middle" font-family="Helvetica" font-size="7.5" fill="#000000" >U</text>
<circle cx="169.8123" cy="218.5905" r="5.0" stroke="#595959" stroke-width="1.0" fill="#ffffff"/>
<text x="169.8123" y="221.2905" text-anchor="middle" font-family="Helvetica" font-size="7.5" fill="#000000" >G</text>
<circle cx="169.5503" cy="238.5781" r="5.0" stroke="#595959" stroke-width="1.0" fill="#ffffff"/>
<text x="169.5503" y="241.2781" text-anchor="middle" font-family="Helvetica" font-size="7.5" fill="#000000" >C</text>
<circle cx="169.3949" cy="258.5709" r="5.0" stroke="#595959" stroke-width="1.0" fill="#ffffff"/>
<text x="169.3949" y="261.2709" text-anchor="middle" font-family="Helvetica" font-size="7.5" fill="#000000" >C</text>
</svg>