<?xml version="1.0" encoding="UTF-8"?>
<!DOCTYPE svg PUBLIC "-//W3C//DTD SVG 1.1//EN" 
"http://www.w3.org/Graphics/SVG/1.1/DTD/svg11.dtd">

<svg version="1.1"
   width="308px"
   height="308px"
xmlns="http://www.w3.org/2000/svg">
    <rect width="100%" height="100%" fill="white"/>

  <line x1="137.1483" y1="217.8231" x2="137.5927" y2="197.8077" stroke="#595959"
     style="stroke-width:2;stroke-miterlimit:4;stroke-dasharray:1,1;stroke-dashoffset:0" />
  <line x1="136.5455" y1="74.8857" x2="133.4770" y2="54.8857" stroke="#595959"
     style="stroke-width:2;stroke-miterlimit:4;stroke-dasharray:1,1;stroke-dashoffset:0" />
  <line x1="133.4770" y1="54.8857" x2="152.3105" y2="61.4394" stroke="#595959"
     style="stroke-width:2;stroke-miterlimit:4;stroke-dasharray:1,1;stroke-dashoffset:0" />
  <line x1="152.3105" y1="61.4394" x2="168.7253" y2="73.4010" stroke="#595959"
     style="stroke-width:2;stroke-miterlimit:4;stroke-dasharray:1,1;stroke-dashoffset:0" />
  <line x1="168.7253" y1="73.4010" x2="185.7823" y2="83.5736" stroke="#595959"
     style="stroke-width:2;stroke-miterlimit:4;stroke-dasharray:1,1;stroke-dashoffset:0" />
  <line x1="185.7823" y1="83.5736" x2="169.5147" y2="95.1850" stroke="#595959"
     style="stroke-width:2;stroke-miterlimit:4;stroke-dasharray:1,1;stroke-dashoffset:0" />
  <line x1="170.1256" y1="198.2267" x2="169.6749" y2="218.3373" stroke="#595959"
     style="stroke-width:2;stroke-miterlimit:4;stroke-dasharray:1,1;stroke-dashoffset:0" />
  <line x1="138.0451" y1="156.0032" x2="170.5853" y2="155.9690" stroke="#e07500" stroke-width="1.0" />
  <circle cx="154.3152" cy="155.9861" r="2.25" stroke="#e07500" stroke-width="1.0" fill="#e07500"/>
  <line x1="138.0485" y1="159.2032" x2="170.5887" y2="159.1690" stroke="#eeaa00" stroke-width="1.0" />
  <path d="M 148.5686 161.4361 L 148.5686 156.9361 L 153.0686 156.9361 L 153.0686 161.4361 z" style="stroke:#eeaa00;stroke-width:1.0" fill="#eeaa00" 
    transform="rotate(-0.0603 154.3186 159.1861)"/>
  <path d="M 156.0686 161.4361 L 156.0686 156.9361 L 160.0686 159.1861 z" style="stroke:#eeaa00;stroke-width:1.0" fill="#eeaa00"
    transform="rotate(-0.0603 154.3186 159.1861)"/>
  <line x1="137.9928" y1="138.8794" x2="170.4552" y2="138.5412" stroke="#eca100" stroke-width="1.0" />
  <circle cx="154.2240" cy="138.7103" r="2.25" stroke="#eca100" stroke-width="1.0" fill="#eca100"/>
  <line x1="136.5455" y1="74.8857" x2="168.7253" y2="73.4010" stroke="#000000" stroke-width="1.0" />
  <path d="M 146.8854 76.3934 L 146.8854 71.8934 L 151.3854 71.8934 L 151.3854 76.3934 z" style="stroke:#000000;stroke-width:1.0" fill="#000000" 
    transform="rotate(177.3584 152.6354 74.1434)"/>
  <path d="M 154.3854 76.3934 L 154.3854 71.8934 L 158.3854 74.1434 z" style="stroke:#000000;stroke-width:1.0" fill="#000000"
    transform="rotate(177.3584 152.6354 74.1434)"/>
  <line x1="136.1468" y1="257.8154" x2="136.6408" y2="237.8210" stroke="#ca4000" stroke-width="1.0" />
  <rect
     style="fill:#ffffff;fill-opacity:1;fill-rule:nonzero;stroke:none"
     width="2"
     height="2"
     x="135.8938"
     y="246.8182"
     transform="rotate(-88.5849 136.3938 247.8182)" /> 
  <path
     style="fill:none;stroke:#ca4000;stroke-width:1px;stroke-linecap:butt;stroke-linejoin:miter;stroke-opacity:1"
     d="m 136.3938,245.8182 2,2 -2,2 m -2.370121,-4 2,2 -2,2"
     transform="rotate(-88.5849 136.3938 247.8182)"/>
  <line x1="136.1246" y1="259.0652" x2="168.6539" y2="259.6437" stroke="#33003e" stroke-width="1.0" />
  <line x1="136.1691" y1="256.5656" x2="168.6984" y2="257.1441" stroke="#33003e" stroke-width="1.0" />
  <line x1="136.6408" y1="237.8210" x2="137.1483" y2="217.8231" stroke="#000000" stroke-width="1.0" />
  <rect
     style="fill:#ffffff;fill-opacity:1;fill-rule:nonzero;stroke:none"
     width="2"
     height="2"
     x="136.3945"
     y="226.8220"
     transform="rotate(-88.5462 136.8945 227.8220)" /> 
  <path
     style="fill:none;stroke:#000000;stroke-width:1px;stroke-linecap:butt;stroke-linejoin:miter;stroke-opacity:1"
     d="m 136.8945,225.8220 2,2 -2,2 m -2.370121,-4 2,2 -2,2"
     transform="rotate(-88.5462 136.8945 227.8220)"/>
  <line x1="136.6192" y1="239.0708" x2="169.1613" y2="239.6319" stroke="#2d0032" stroke-width="1.0" />
  <line x1="136.6623" y1="236.5711" x2="169.2044" y2="237.1323" stroke="#2d0032" stroke-width="1.0" />
  <line x1="136.6408" y1="237.8210" x2="168.6761" y2="258.3939" stroke="#e68800" stroke-width="1.0" />
  <rect
     style="fill:#ffffff;stroke:none"
     width="5.5"
     height="2"
     x="149.9084"
     y="247.1074" 
     transform="rotate(32.7084 152.6584 248.1074)"    /> 
  <path
     style="fill:none;stroke:#e68800;stroke-width:1px;stroke-linecap:butt;stroke-linejoin:miter;stroke-opacity:1"
    d="m 153.4084,246.1074 2,2 -2,2 m -1.5,-4 -2,2 2,2" transform="rotate(32.7084 152.6584 248.1074)"/>
  <line x1="137.1285" y1="219.0729" x2="169.6551" y2="219.5871" stroke="#17000d" stroke-width="1.0" />
  <line x1="137.1680" y1="216.5733" x2="169.6946" y2="217.0874" stroke="#17000d" stroke-width="1.0" />
  <line x1="137.5927" y1="197.8077" x2="137.9245" y2="177.7576" stroke="#9b0dba" stroke-width="1.0" />
  <rect
     style="fill:#ffffff;fill-opacity:1;fill-rule:nonzero;stroke:none"
     width="2"
     height="2"
     x="137.2586"
     y="186.7826"
     transform="rotate(-89.0519 137.7586 187.7826)" /> 
  <path
     style="fill:none;stroke:#9b0dba;stroke-width:1px;stroke-linecap:butt;stroke-linejoin:miter;stroke-opacity:1"
     d="m 137.7586,185.7826 2,2 -2,2 m -2.370121,-4 2,2 -2,2"
     transform="rotate(-89.0519 137.7586 187.7826)"/>
  <line x1="137.5927" y1="197.8077" x2="170.1256" y2="198.2267" stroke="#44006e" stroke-width="1.0" />
  <line x1="137.5927" y1="197.8077" x2="169.6749" y2="218.3373" stroke="#200019" stroke-width="1.0" />
  <rect
     style="fill:#ffffff;stroke:none"
     width="5.5"
     height="2"
     x="150.8838"
     y="207.0725" 
     transform="rotate(32.6155 153.6338 208.0725)"    /> 
  <path
     style="fill:none;stroke:#200019;stroke-width:1px;stroke-linecap:butt;stroke-linejoin:miter;stroke-opacity:1"
    d="m 154.3838,206.0725 2,2 -2,2 m -1.5,-4 -2,2 2,2" transform="rotate(32.6155 153.6338 208.0725)"/>
  <line x1="137.9245" y1="177.7576" x2="138.0468" y2="157.6032" stroke="#a61473" stroke-width="1.0" />
  <rect
     style="fill:#ffffff;fill-opacity:1;fill-rule:nonzero;stroke:none"
     width="2"
     height="2"
     x="137.4857"
     y="166.6804"
     transform="rotate(-89.6523 137.9857 167.6804)" /> 
  <path
     style="fill:none;stroke:#a61473;stroke-width:1px;stroke-linecap:butt;stroke-linejoin:miter;stroke-opacity:1"
     d="m 137.9857,165.6804 2,2 -2,2 m -2.370121,-4 2,2 -2,2"
     transform="rotate(-89.6523 137.9857 167.6804)"/>
  <line x1="137.9158" y1="179.0076" x2="170.4339" y2="179.2346" stroke="#4e008f" stroke-width="1.0" />
  <line x1="137.9332" y1="176.5077" x2="170.4514" y2="176.7346" stroke="#4e008f" stroke-width="1.0" />
  <line x1="138.0468" y1="157.6032" x2="137.9762" y2="137.2795" stroke="#8b07f3" stroke-width="1.0" />
  <rect
     style="fill:#ffffff;fill-opacity:1;fill-rule:nonzero;stroke:none"
     width="2"
     height="2"
     x="137.5115"
     y="146.4414"
     transform="rotate(269.8008 138.0115 147.4414)" /> 
  <path
     style="fill:none;stroke:#8b07f3;stroke-width:1px;stroke-linecap:butt;stroke-linejoin:miter;stroke-opacity:1"
     d="m 138.0115,145.4414 2,2 -2,2 m -2.370121,-4 2,2 -2,2"
     transform="rotate(269.8008 138.0115 147.4414)"/>
  <line x1="137.9762" y1="137.2795" x2="137.6866" y2="116.7307" stroke="#8204ff" stroke-width="1.0" />
  <rect
     style="fill:#ffffff;fill-opacity:1;fill-rule:nonzero;stroke:none"
     width="2"
     height="2"
     x="137.3314"
     y="126.0051"
     transform="rotate(269.1927 137.8314 127.0051)" /> 
  <path
     style="fill:none;stroke:#8204ff;stroke-width:1px;stroke-linecap:butt;stroke-linejoin:miter;stroke-opacity:1"
     d="m 137.8314,125.0051 2,2 -2,2 m -2.370121,-4 2,2 -2,2"
     transform="rotate(269.1927 137.8314 127.0051)"/>
  <line x1="137.9595" y1="135.6796" x2="170.4219" y2="135.3414" stroke="#6f02ec" stroke-width="1.0" />
  <line x1="137.6866" y1="116.7307" x2="137.3084" y2="96.0280" stroke="#a5137f" stroke-width="1.0" />
  <rect
     style="fill:#ffffff;fill-opacity:1;fill-rule:nonzero;stroke:none"
     width="2"
     height="2"
     x="136.9975"
     y="105.3794"
     transform="rotate(268.9534 137.4975 106.3794)" /> 
  <path
     style="fill:none;stroke:#a5137f;stroke-width:1px;stroke-linecap:butt;stroke-linejoin:miter;stroke-opacity:1"
     d="m 137.4975,104.3794 2,2 -2,2 m -2.370121,-4 2,2 -2,2"
     transform="rotate(268.9534 137.4975 106.3794)"/>
  <line x1="137.7099" y1="117.9805" x2="170.0692" y2="117.3782" stroke="#2d0032" stroke-width="1.0" />
  <line x1="137.6634" y1="115.4810" x2="170.0227" y2="114.8787" stroke="#2d0032" stroke-width="1.0" />
  <line x1="137.6866" y1="116.7307" x2="170.4385" y2="136.9413" stroke="#e99400" stroke-width="1.0" />
  <rect
     style="fill:#ffffff;stroke:none"
     width="5.5"
     height="2"
     x="151.3126"
     y="125.8360" 
     transform="rotate(31.6779 154.0626 126.8360)"    /> 
  <path
     style="fill:none;stroke:#e99400;stroke-width:1px;stroke-linecap:butt;stroke-linejoin:miter;stroke-opacity:1"
    d="m 154.8126,124.8360 2,2 -2,2 m -1.5,-4 -2,2 2,2" transform="rotate(31.6779 154.0626 126.8360)"/>
  <line x1="137.3084" y1="96.0280" x2="136.5455" y2="74.8857" stroke="#a21194" stroke-width="1.0" />
  <rect
     style="fill:#ffffff;fill-opacity:1;fill-rule:nonzero;stroke:none"
     width="2"
     height="2"
     x="136.4270"
     y="84.4568"
     transform="rotate(267.9334 136.9270 85.4568)" /> 
  <path
     style="fill:none;stroke:#a21194;stroke-width:1px;stroke-linecap:butt;stroke-linejoin:miter;stroke-opacity:1"
     d="m 136.9270,83.4568 2,2 -2,2 m -2.370121,-4 2,2 -2,2"
     transform="rotate(267.9334 136.9270 85.4568)"/>
  <line x1="137.3084" y1="96.0280" x2="169.5147" y2="95.1850" stroke="#4b0084" stroke-width="1.0" />
  <line x1="137.3084" y1="96.0280" x2="170.0459" y2="116.1284" stroke="#ea9900" stroke-width="1.0" />
  <rect
     style="fill:#ffffff;stroke:none"
     width="5.5"
     height="2"
     x="150.9272"
     y="105.0782" 
     transform="rotate(31.5494 153.6772 106.0782)"    /> 
  <path
     style="fill:none;stroke:#ea9900;stroke-width:1px;stroke-linecap:butt;stroke-linejoin:miter;stroke-opacity:1"
    d="m 154.4272,104.0782 2,2 -2,2 m -1.5,-4 -2,2 2,2" transform="rotate(31.5494 153.6772 106.0782)"/>
  <line x1="136.5455" y1="74.8857" x2="152.3105" y2="61.4394" stroke="#000000" stroke-width="1.0" />
  <rect
     style="fill:#ffffff;fill-opacity:1;fill-rule:nonzero;stroke:none"
     width="2"
     height="2"
     x="143.9280"
     y="67.1625"
     transform="rotate(-40.4616 144.4280 68.1625)" /> 
  <path
     style="fill:none;stroke:#000000;stroke-width:1px;stroke-linecap:butt;stroke-linejoin:miter;stroke-opacity:1"
     d="m 144.4280,66.1625 2,2 -2,2 m -2.370121,-4 2,2 -2,2"
     transform="rotate(-40.4616 144.4280 68.1625)"/>
  <line x1="168.7253" y1="73.4010" x2="169.5147" y2="95.1850" stroke="#b41f06" stroke-width="1.0" />
  <rect
     style="fill:#ffffff;fill-opacity:1;fill-rule:nonzero;stroke:none"
     width="2"
     height="2"
     x="168.6200"
     y="83.2930"
     transform="rotate(87.9245 169.1200 84.2930)" /> 
  <path
     style="fill:none;stroke:#b41f06;stroke-width:1px;stroke-linecap:butt;stroke-linejoin:miter;stroke-opacity:1"
     d="m 169.1200,82.2930 2,2 -2,2 m -2.370121,-4 2,2 -2,2"
     transform="rotate(87.9245 169.1200 84.2930)"/>
  <line x1="169.5147" y1="95.1850" x2="170.0459" y2="116.1284" stroke="#9e0fa8" stroke-width="1.0" />
  <rect
     style="fill:#ffffff;fill-opacity:1;fill-rule:nonzero;stroke:none"
     width="2"
     height="2"
     x="169.2803"
     y="104.6567"
     transform="rotate(88.5471 169.7803 105.6567)" /> 
  <path
     style="fill:none;stroke:#9e0fa8;stroke-width:1px;stroke-linecap:butt;stroke-linejoin:miter;stroke-opacity:1"
     d="m 169.7803,103.6567 2,2 -2,2 m -2.370121,-4 2,2 -2,2"
     transform="rotate(88.5471 169.7803 105.6567)"/>
  <line x1="170.0459" y1="116.1284" x2="170.4385" y2="136.9413" stroke="#c33200" stroke-width="1.0" />
  <rect
     style="fill:#ffffff;fill-opacity:1;fill-rule:nonzero;stroke:none"
     width="2"
     height="2"
     x="169.7422"
     y="125.5349"
     transform="rotate(88.9194 170.2422 126.5349)" /> 
  <path
     style="fill:none;stroke:#c33200;stroke-width:1px;stroke-linecap:butt;stroke-linejoin:miter;stroke-opacity:1"
     d="m 170.2422,124.5349 2,2 -2,2 m -2.370121,-4 2,2 -2,2"
     transform="rotate(88.9194 170.2422 126.5349)"/>
  <line x1="170.4385" y1="136.9413" x2="170.5870" y2="157.5690" stroke="#8605fc" stroke-width="1.0" />
  <rect
     style="fill:#ffffff;fill-opacity:1;fill-rule:nonzero;stroke:none"
     width="2"
     height="2"
     x="170.0128"
     y="146.2552"
     transform="rotate(89.5876 170.5128 147.2552)" /> 
  <path
     style="fill:none;stroke:#8605fc;stroke-width:1px;stroke-linecap:butt;stroke-linejoin:miter;stroke-opacity:1"
     d="m 170.5128,145.2552 2,2 -2,2 m -2.370121,-4 2,2 -2,2"
     transform="rotate(89.5876 170.5128 147.2552)"/>
  <line x1="170.5870" y1="157.5690" x2="170.4427" y2="177.9846" stroke="#c43500" stroke-width="1.0" />
  <rect
     style="fill:#ffffff;fill-opacity:1;fill-rule:nonzero;stroke:none"
     width="2"
     height="2"
     x="170.0148"
     y="166.7768"
     transform="rotate(90.4051 170.5148 167.7768)" /> 
  <path
     style="fill:none;stroke:#c43500;stroke-width:1px;stroke-linecap:butt;stroke-linejoin:miter;stroke-opacity:1"
     d="m 170.5148,165.7768 2,2 -2,2 m -2.370121,-4 2,2 -2,2"
     transform="rotate(90.4051 170.5148 167.7768)"/>
  <line x1="170.4427" y1="177.9846" x2="170.1256" y2="198.2267" stroke="#9e0fa8" stroke-width="1.0" />
  <rect
     style="fill:#ffffff;fill-opacity:1;fill-rule:nonzero;stroke:none"
     width="2"
     height="2"
     x="169.7841"
     y="187.1057"
     transform="rotate(90.8974 170.2841 188.1057)" /> 
  <path
     style="fill:none;stroke:#9e0fa8;stroke-width:1px;stroke-linecap:butt;stroke-linejoin:miter;stroke-opacity:1"
     d="m 170.2841,186.1057 2,2 -2,2 m -2.370121,-4 2,2 -2,2"
     transform="rotate(90.8974 170.2841 188.1057)"/>
  <line x1="169.6749" y1="218.3373" x2="169.1828" y2="238.3821" stroke="#000000" stroke-width="1.0" />
  <rect
     style="fill:#ffffff;fill-opacity:1;fill-rule:nonzero;stroke:none"
     width="2"
     height="2"
     x="168.9289"
     y="227.3597"
     transform="rotate(91.4062 169.4289 228.3597)" /> 
  <path
     style="fill:none;stroke:#000000;stroke-width:1px;stroke-linecap:butt;stroke-linejoin:miter;stroke-opacity:1"
     d="m 169.4289,226.3597 2,2 -2,2 m -2.370121,-4 2,2 -2,2"
     transform="rotate(91.4062 169.4289 228.3597)"/>
  <line x1="169.1828" y1="238.3821" x2="168.6761" y2="258.3939" stroke="#9d0eb1" stroke-width="1.0" />
  <rect
     style="fill:#ffffff;fill-opacity:1;fill-rule:nonzero;stroke:none"
     width="2"
     height="2"
     x="168.4295"
     y="247.3880"
     transform="rotate(91.4504 168.9295 248.3880)" /> 
  <path
     style="fill:none;stroke:#9d0eb1;stroke-width:1px;stroke-linecap:butt;stroke-linejoin:miter;stroke-opacity:1"
     d="m 168.9295,246.3880 2,2 -2,2 m -2.370121,-4 2,2 -2,2"
     transform="rotate(91.4504 168.9295 248.3880)"/>
<circle cx="136.1468" cy="257.8154" r="5.0" stroke="#595959" stroke-width="1.0" fill="#ffffff"/>
<text x="136.1468" y="260.5154" text-anchor="middle" font-family="Helvetica" font-size="7.5" fill="#000000" >G</text>
<circle cx="136.6408" cy="237.8210" r="5.0" stroke="#595959" stroke-width="1.0" fill="#ffffff"/>
<text x="136.6408" y="240.5210" text-anchor="middle" font-family="Helvetica" font-size="7.5" fill="#000000" >G</text>
<circle cx="137.1483" cy="217.8231" r="5.0" stroke="#595959" stroke-width="1.0" fill="#ffffff"/>
<text x="137.1483" y="220.5231" text-anchor="middle" font-family="Helvetica" font-size="7.5" fill="#000000" >C</text>
<circle cx="137.5927" cy="197.8077" r="5.0" stroke="#595959" stroke-width="1.0" fill="#ffffff"/>
<text x="137.5927" y="200.5077" text-anchor="middle" font-family="Helvetica" font-size="7.5" fill="#000000" >A</text>
<circle cx="137.9245" cy="177.7576" r="5.0" stroke="#595959" stroke-width="1.0" fill="#ffffff"/>
<text x="137.9245" y="180.4576" text-anchor="middle" font-family="Helvetica" font-size="7.5" fill="#000000" >G</text>
<circle cx="138.0468" cy="157.6032" r="5.0" stroke="#595959" stroke-width="1.0" fill="#ffffff"/>
<text x="138.0468" y="160.3032" text-anchor="middle" font-family="Helvetica" font-size="7.5" fill="#000000" >A</text>
<circle cx="137.9762" cy="137.2795" r="5.0" stroke="#595959" stroke-width="1.0" fill="#ffffff"/>
<text x="137.9762" y="139.9795" text-anchor="middle" font-family="Helvetica" font-size="7.5" fill="#000000" >U</text>
<circle cx="137.6866" cy="116.7307" r="5.0" stroke="#595959" stroke-width="1.0" fill="#ffffff"/>
<text x="137.6866" y="119.4307" text-anchor="middle" font-family="Helvetica" font-size="7.5" fill="#000000" >C</text>
<circle cx="137.3084" cy="96.0280" r="5.0" stroke="#595959" stroke-width="1.0" fill="#ffffff"/>
<text x="137.3084" y="98.7280" text-anchor="middle" font-family="Helvetica" font-size="7.5" fill="#000000" >U</text>
<circle cx="136.5455" cy="74.8857" r="5.0" stroke="#595959" stroke-width="1.0" fill="#ffffff"/>
<text x="136.5455" y="77.5857" text-anchor="middle" font-family="Helvetica" font-size="7.5" fill="#000000" >G</text>
<circle cx="133.4770" cy="54.8857" r="5.0" stroke="#595959" stroke-width="1.0" fill="#ffffff"/>
<text x="133.4770" y="57.5857" text-anchor="middle" font-family="Helvetica" font-size="7.5" fill="#000000" >U</text>
<circle cx="152.3105" cy="61.4394" r="5.0" stroke="#595959" stroke-width="1.0" fill="#ffffff"/>
<text x="152.3105" y="64.1394" text-anchor="middle" font-family="Helvetica" font-size="7.5" fill="#000000" >A</text>
<circle cx="168.7253" cy="73.4010" r="5.0" stroke="#595959" stroke-width="1.0" fill="#ffffff"/>
<text x="168.7253" y="76.1010" text-anchor="middle" font-family="Helvetica" font-size="7.5" fill="#000000" >A</text>
<circle cx="185.7823" cy="83.5736" r="5.0" stroke="#595959" stroke-width="1.0" fill="#ffffff"/>
<text x="185.7823" y="86.2736" text-anchor="middle" font-family="Helvetica" font-size="7.5" fill="#000000" >U</text>
<circle cx="169.5147" cy="95.1850" r="5.0" stroke="#595959" stroke-width="1.0" fill="#ffffff"/>
<text x="169.5147" y="97.8850" text-anchor="middle" font-family="Helvetica" font-size="7.5" fill="#000000" >A</text>
<circle cx="170.0459" cy="116.1284" r="5.0" stroke="#595959" stroke-width="1.0" fill="#ffffff"/>
<text x="170.0459" y="118.8284" text-anchor="middle" font-family="Helvetica" font-size="7.5" fill="#000000" >G</text>
<circle cx="170.4385" cy="136.9413" r="5.0" stroke="#595959" stroke-width="1.0" fill="#ffffff"/>
<text x="170.4385" y="139.6413" text-anchor="middle" font-family="Helvetica" font-size="7.5" fill="#000000" >A</text>
<circle cx="170.5870" cy="157.5690" r="5.0" stroke="#595959" stroke-width="1.0" fill="#ffffff"/>
<text x="170.5870" y="160.2690" text-anchor="middle" font-family="Helvetica" font-size="7.5" fill="#000000" >A</text>
<circle cx="170.4427" cy="177.9846" r="5.0" stroke="#595959" stroke-width="1.0" fill="#ffffff"/>
<text x="170.4427" y="180.6846" text-anchor="middle" font-family="Helvetica" font-size="7.5" fill="#000000" >C</text>
<circle cx="170.1256" cy="198.2267" r="5.0" stroke="#595959" stroke-width="1.0" fill="#ffffff"/>
<text x="170.1256" y="200.9267" text-anchor="middle" font-family="Helvetica" font-size="7.5" fill="#000000" >U</text>
<circle cx="169.6749" cy="218.3373" r="5.0" stroke="#595959" stroke-width="1.0" fill="#ffffff"/>
<text x="169.6749" y="221.0373" text-anchor="middle" font-family="Helvetica" font-size="7.5" fill="#000000" >G</text>
<circle cx="169.1828" cy="238.3821" r="5.0" stroke="#595959" stroke-width="1.0" fill="#ffffff"/>
<text x="169.1828" y="241.0821" text-anchor="middle" font-family="Helvetica" font-size="7.5" fill="#000000" >C</text>
<circle cx="168.6761" cy="258.3939" r="5.0" stroke="#595959" stroke-width="1.0" fill="#ffffff"/>
<text x="168.6761" y="261.0939" text-anchor="middle" font-family="Helvetica" font-size="7.5" fill="#000000" >C</text>
</svg>