<?xml version="1.0" encoding="UTF-8"?>
<!DOCTYPE svg PUBLIC "-//W3C//DTD SVG 1.1//EN" 
"http://www.w3.org/Graphics/SVG/1.1/DTD/svg11.dtd">

<svg version="1.1"
   width="182px"
   height="182px"
xmlns="http://www.w3.org/2000/svg">
    <rect width="100%" height="100%" fill="white"/>

  <line x1="73.9194" y1="110.3941" x2="74.0790" y2="90.4360" stroke="#595959"
     style="stroke-width:2;stroke-miterlimit:4;stroke-dasharray:1,1;stroke-dashoffset:0" />
  <line x1="73.9322" y1="70.4952" x2="72.7933" y2="50.5859" stroke="#595959"
     style="stroke-width:2;stroke-miterlimit:4;stroke-dasharray:1,1;stroke-dashoffset:0" />
  <line x1="82.7909" y1="33.3081" x2="102.7473" y2="34.1721" stroke="#595959"
     style="stroke-width:2;stroke-miterlimit:4;stroke-dasharray:1,1;stroke-dashoffset:0" />
  <line x1="113.1227" y1="51.2462" x2="106.8578" y2="70.2681" stroke="#595959"
     style="stroke-width:2;stroke-miterlimit:4;stroke-dasharray:1,1;stroke-dashoffset:0" />
  <line x1="106.9630" y1="90.4274" x2="106.8707" y2="110.5775" stroke="#595959"
     style="stroke-width:2;stroke-miterlimit:4;stroke-dasharray:1,1;stroke-dashoffset:0" />
  <line x1="73.3657" y1="150.3788" x2="73.6810" y2="130.3819" stroke="#cd4500" stroke-width="1.0" />
  <rect
     style="fill:#ffffff;fill-opacity:1;fill-rule:nonzero;stroke:none"
     width="2"
     height="2"
     x="73.0233"
     y="139.3804"
     transform="rotate(-89.0967 73.5233 140.3804)" /> 
  <path
     style="fill:none;stroke:#cd4500;stroke-width:1px;stroke-linecap:butt;stroke-linejoin:miter;stroke-opacity:1"
     d="m 73.5233,138.3804 2,2 -2,2 m -2.370121,-4 2,2 -2,2"
     transform="rotate(-89.0967 73.5233 140.3804)"/>
  <line x1="73.3545" y1="151.6288" x2="106.2641" y2="151.9243" stroke="#3c0057" stroke-width="1.0" />
  <line x1="73.3769" y1="149.1289" x2="106.2866" y2="149.4244" stroke="#3c0057" stroke-width="1.0" />
  <line x1="73.6810" y1="130.3819" x2="73.9194" y2="110.3941" stroke="#000000" stroke-width="1.0" />
  <rect
     style="fill:#ffffff;fill-opacity:1;fill-rule:nonzero;stroke:none"
     width="2"
     height="2"
     x="73.3002"
     y="119.3880"
     transform="rotate(-89.3166 73.8002 120.3880)" /> 
  <path
     style="fill:none;stroke:#000000;stroke-width:1px;stroke-linecap:butt;stroke-linejoin:miter;stroke-opacity:1"
     d="m 73.8002,118.3880 2,2 -2,2 m -2.370121,-4 2,2 -2,2"
     transform="rotate(-89.3166 73.8002 120.3880)"/>
  <line x1="73.6707" y1="131.6319" x2="106.5912" y2="131.9040" stroke="#270026" stroke-width="1.0" />
  <line x1="73.6913" y1="129.1319" x2="106.6119" y2="129.4041" stroke="#270026" stroke-width="1.0" />
  <line x1="73.6810" y1="130.3819" x2="106.2753" y2="150.6744" stroke="#eda600" stroke-width="1.0" />
  <rect
     style="fill:#ffffff;stroke:none"
     width="5.5"
     height="2"
     x="87.2282"
     y="139.5281" 
     transform="rotate(31.9055 89.9782 140.5281)"    /> 
  <path
     style="fill:none;stroke:#eda600;stroke-width:1px;stroke-linecap:butt;stroke-linejoin:miter;stroke-opacity:1"
    d="m 90.7282,138.5281 2,2 -2,2 m -1.5,-4 -2,2 2,2" transform="rotate(31.9055 89.9782 140.5281)"/>
  <line x1="73.9124" y1="111.6441" x2="106.8637" y2="111.8275" stroke="#270026" stroke-width="1.0" />
  <line x1="73.9264" y1="109.1441" x2="106.8776" y2="109.3276" stroke="#270026" stroke-width="1.0" />
  <line x1="74.0790" y1="90.4360" x2="73.9322" y2="70.4952" stroke="#000000" stroke-width="1.0" />
  <rect
     style="fill:#ffffff;fill-opacity:1;fill-rule:nonzero;stroke:none"
     width="2"
     height="2"
     x="73.5056"
     y="79.4656"
     transform="rotate(269.5785 74.0056 80.4656)" /> 
  <path
     style="fill:none;stroke:#000000;stroke-width:1px;stroke-linecap:butt;stroke-linejoin:miter;stroke-opacity:1"
     d="m 74.0056,78.4656 2,2 -2,2 m -2.370121,-4 2,2 -2,2"
     transform="rotate(269.5785 74.0056 80.4656)"/>
  <line x1="74.0793" y1="91.6860" x2="106.9634" y2="91.6774" stroke="#33003e" stroke-width="1.0" />
  <line x1="74.0786" y1="89.1860" x2="106.9627" y2="89.1774" stroke="#33003e" stroke-width="1.0" />
  <line x1="74.0790" y1="90.4360" x2="106.8707" y2="110.5775" stroke="#270026" stroke-width="1.0" />
  <rect
     style="fill:#ffffff;stroke:none"
     width="5.5"
     height="2"
     x="87.7248"
     y="99.5068" 
     transform="rotate(31.5593 90.4748 100.5068)"    /> 
  <path
     style="fill:none;stroke:#270026;stroke-width:1px;stroke-linecap:butt;stroke-linejoin:miter;stroke-opacity:1"
    d="m 91.2248,98.5068 2,2 -2,2 m -1.5,-4 -2,2 2,2" transform="rotate(31.5593 90.4748 100.5068)"/>
  <line x1="73.9409" y1="71.7452" x2="106.8665" y2="71.5181" stroke="#200019" stroke-width="1.0" />
  <line x1="73.9236" y1="69.2452" x2="106.8492" y2="69.0181" stroke="#200019" stroke-width="1.0" />
  <line x1="72.7933" y1="50.5859" x2="82.7909" y2="33.3081" stroke="#17000d" stroke-width="1.0" />
  <rect
     style="fill:#ffffff;fill-opacity:1;fill-rule:nonzero;stroke:none"
     width="2"
     height="2"
     x="77.2921"
     y="40.9470"
     transform="rotate(-59.9447 77.7921 41.9470)" /> 
  <path
     style="fill:none;stroke:#17000d;stroke-width:1px;stroke-linecap:butt;stroke-linejoin:miter;stroke-opacity:1"
     d="m 77.7921,39.9470 2,2 -2,2 m -2.370121,-4 2,2 -2,2"
     transform="rotate(-59.9447 77.7921 41.9470)"/>
  <line x1="72.7933" y1="50.5859" x2="106.8578" y2="70.2681" stroke="#b11c1f" stroke-width="1.0" />
  <rect
     style="fill:#ffffff;stroke:none"
     width="5.5"
     height="2"
     x="87.0756"
     y="59.4270" 
     transform="rotate(30.0190 89.8256 60.4270)"    /> 
  <path
     style="fill:none;stroke:#b11c1f;stroke-width:1px;stroke-linecap:butt;stroke-linejoin:miter;stroke-opacity:1"
    d="m 90.5756,58.4270 2,2 -2,2 m -1.5,-4 -2,2 2,2" transform="rotate(30.0190 89.8256 60.4270)"/>
  <line x1="102.7473" y1="34.1721" x2="113.1227" y2="51.2462" stroke="#c53700" stroke-width="1.0" />
  <rect
     style="fill:#ffffff;fill-opacity:1;fill-rule:nonzero;stroke:none"
     width="2"
     height="2"
     x="106.9350"
     y="41.7092" 
     transform="rotate(58.7144 107.9350 42.7092)" /> 
  <path
     style="fill:none;stroke:#c53700;stroke-width:1px;stroke-linecap:butt;stroke-linejoin:miter;stroke-opacity:1"
     d="m 110.9350,40.7092 -2,2 2,2 m -6,-4 2,2 -2,2"
     transform="rotate(58.7144 107.9350 42.7092)"/>
  <line x1="106.8578" y1="70.2681" x2="106.9630" y2="90.4274" stroke="#000000" stroke-width="1.0" />
  <rect
     style="fill:#ffffff;fill-opacity:1;fill-rule:nonzero;stroke:none"
     width="2"
     height="2"
     x="106.4104"
     y="79.3478"
     transform="rotate(89.7011 106.9104 80.3478)" /> 
  <path
     style="fill:none;stroke:#000000;stroke-width:1px;stroke-linecap:butt;stroke-linejoin:miter;stroke-opacity:1"
     d="m 106.9104,78.3478 2,2 -2,2 m -2.370121,-4 2,2 -2,2"
     transform="rotate(89.7011 106.9104 80.3478)"/>
  <line x1="106.8707" y1="110.5775" x2="106.6016" y2="130.6541" stroke="#000000" stroke-width="1.0" />
  <rect
     style="fill:#ffffff;fill-opacity:1;fill-rule:nonzero;stroke:none"
     width="2"
     height="2"
     x="106.2361"
     y="119.6158"
     transform="rotate(90.7680 106.7361 120.6158)" /> 
  <path
     style="fill:none;stroke:#000000;stroke-width:1px;stroke-linecap:butt;stroke-linejoin:miter;stroke-opacity:1"
     d="m 106.7361,118.6158 2,2 -2,2 m -2.370121,-4 2,2 -2,2"
     transform="rotate(90.7680 106.7361 120.6158)"/>
  <line x1="106.6016" y1="130.6541" x2="106.2753" y2="150.6744" stroke="#980bca" stroke-width="1.0" />
  <rect
     style="fill:#ffffff;fill-opacity:1;fill-rule:nonzero;stroke:none"
     width="2"
     height="2"
     x="105.9384"
     y="139.6642"
     transform="rotate(90.9335 106.4384 140.6642)" /> 
  <path
     style="fill:none;stroke:#980bca;stroke-width:1px;stroke-linecap:butt;stroke-linejoin:miter;stroke-opacity:1"
     d="m 106.4384,138.6642 2,2 -2,2 m -2.370121,-4 2,2 -2,2"
     transform="rotate(90.9335 106.4384 140.6642)"/>
<circle cx="73.3657" cy="150.3788" r="5.0" stroke="#595959" stroke-width="1.0" fill="#ffffff"/>
<text x="73.3657" y="153.0788" text-anchor="middle" font-family="Helvetica" font-size="7.5" fill="#000000" >G</text>
<circle cx="73.6810" cy="130.3819" r="5.0" stroke="#595959" stroke-width="1.0" fill="#ffffff"/>
<text x="73.6810" y="133.0819" text-anchor="middle" font-family="Helvetica" font-size="7.5" fill="#000000" >G</text>
<circle cx="73.9194" cy="110.3941" r="5.0" stroke="#595959" stroke-width="1.0" fill="#ffffff"/>
<text x="73.9194" y="113.0941" text-anchor="middle" font-family="Helvetica" font-size="7.5" fill="#000000" >C</text>
<circle cx="74.0790" cy="90.4360" r="5.0" stroke="#595959" stroke-width="1.0" fill="#ffffff"/>
<text x="74.0790" y="93.1360" text-anchor="middle" font-family="Helvetica" font-size="7.5" fill="#000000" >G</text>
<circle cx="73.9322" cy="70.4952" r="5.0" stroke="#595959" stroke-width="1.0" fill="#ffffff"/>
<text x="73.9322" y="73.1952" text-anchor="middle" font-family="Helvetica" font-size="7.5" fill="#000000" >C</text>
<circle cx="72.7933" cy="50.5859" r="5.0" stroke="#595959" stroke-width="1.0" fill="#ffffff"/>
<text x="72.7933" y="53.2859" text-anchor="middle" font-family="Helvetica" font-size="7.5" fill="#000000" >A</text>
<circle cx="82.7909" cy="33.3081" r="5.0" stroke="#595959" stroke-width="1.0" fill="#ffffff"/>
<text x="82.7909" y="36.0081" text-anchor="middle" font-family="Helvetica" font-size="7.5" fill="#000000" >U</text>
<circle cx="102.7473" cy="34.1721" r="5.0" stroke="#595959" stroke-width="1.0" fill="#ffffff"/>
<text x="102.7473" y="36.8721" text-anchor="middle" font-family="Helvetica" font-size="7.5" fill="#000000" >C</text>
<circle cx="113.1227" cy="51.2462" r="5.0" stroke="#595959" stroke-width="1.0" fill="#ffffff"/>
<text x="113.1227" y="53.9462" text-anchor="middle" font-family="Helvetica" font-size="7.5" fill="#000000" >G</text>
<circle cx="106.8578" cy="70.2681" r="5.0" stroke="#595959" stroke-width="1.0" fill="#ffffff"/>
<text x="106.8578" y="72.9681" text-anchor="middle" font-family="Helvetica" font-size="7.5" fill="#000000" >G</text>
<circle cx="106.9630" cy="90.4274" r="5.0" stroke="#595959" stroke-width="1.0" fill="#ffffff"/>
<text x="106.9630" y="93.1274" text-anchor="middle" font-family="Helvetica" font-size="7.5" fill="#000000" >C</text>
<circle cx="106.8707" cy="110.5775" r="5.0" stroke="#595959" stroke-width="1.0" fill="#ffffff"/>
<text x="106.8707" y="113.2775" text-anchor="middle" font-family="Helvetica" font-size="7.5" fill="#000000" >G</text>
<circle cx="106.6016" cy="130.6541" r="5.0" stroke="#595959" stroke-width="1.0" fill="#ffffff"/>
<text x="106.6016" y="133.3541" text-anchor="middle" font-family="Helvetica" font-size="7.5" fill="#000000" >C</text>
<circle cx="106.2753" cy="150.6744" r="5.0" stroke="#595959" stroke-width="1.0" fill="#ffffff"/>
<text x="106.2753" y="153.3744" text-anchor="middle" font-family="Helvetica" font-size="7.5" fill="#000000" >C</text>
</svg>