<?xml version="1.0" encoding="UTF-8"?>
<!DOCTYPE svg PUBLIC "-//W3C//DTD SVG 1.1//EN" 
"http://www.w3.org/Graphics/SVG/1.1/DTD/svg11.dtd">

<svg version="1.1"
   width="182px"
   height="182px"
xmlns="http://www.w3.org/2000/svg">
    <rect width="100%" height="100%" fill="white"/>

  <line x1="72.9535" y1="108.6229" x2="72.9944" y2="88.5101" stroke="#595959"
     style="stroke-width:2;stroke-miterlimit:4;stroke-dasharray:1,1;stroke-dashoffset:0" />
  <line x1="72.7949" y1="68.3936" x2="70.7141" y2="48.5121" stroke="#595959"
     style="stroke-width:2;stroke-miterlimit:4;stroke-dasharray:1,1;stroke-dashoffset:0" />
  <line x1="70.7141" y1="48.5121" x2="86.3176" y2="36.0807" stroke="#595959"
     style="stroke-width:2;stroke-miterlimit:4;stroke-dasharray:1,1;stroke-dashoffset:0" />
  <line x1="86.3176" y1="36.0807" x2="102.7316" y2="47.4897" stroke="#595959"
     style="stroke-width:2;stroke-miterlimit:4;stroke-dasharray:1,1;stroke-dashoffset:0" />
  <line x1="102.7316" y1="47.4897" x2="121.2507" y2="54.7296" stroke="#595959"
     style="stroke-width:2;stroke-miterlimit:4;stroke-dasharray:1,1;stroke-dashoffset:0" />
  <line x1="121.2507" y1="54.7296" x2="106.2322" y2="68.0464" stroke="#595959"
     style="stroke-width:2;stroke-miterlimit:4;stroke-dasharray:1,1;stroke-dashoffset:0" />
  <line x1="106.2478" y1="88.4940" x2="106.0736" y2="108.9312" stroke="#595959"
     style="stroke-width:2;stroke-miterlimit:4;stroke-dasharray:1,1;stroke-dashoffset:0" />
  <line x1="72.1121" y1="148.7747" x2="72.6327" y2="128.7228" stroke="#ea9900" stroke-width="1.0" />
  <rect
     style="fill:#ffffff;fill-opacity:1;fill-rule:nonzero;stroke:none"
     width="2"
     height="2"
     x="71.8724"
     y="137.7488"
     transform="rotate(-88.5129 72.3724 138.7488)" /> 
  <path
     style="fill:none;stroke:#ea9900;stroke-width:1px;stroke-linecap:butt;stroke-linejoin:miter;stroke-opacity:1"
     d="m 72.3724,136.7488 2,2 -2,2 m -2.370121,-4 2,2 -2,2"
     transform="rotate(-88.5129 72.3724 138.7488)"/>
  <line x1="72.0873" y1="150.0245" x2="105.2191" y2="150.6830" stroke="#000000" stroke-width="1.0" />
  <line x1="72.1370" y1="147.5250" x2="105.2688" y2="148.1835" stroke="#000000" stroke-width="1.0" />
  <line x1="72.6327" y1="128.7228" x2="72.9535" y2="108.6229" stroke="#000000" stroke-width="1.0" />
  <rect
     style="fill:#ffffff;fill-opacity:1;fill-rule:nonzero;stroke:none"
     width="2"
     height="2"
     x="72.2931"
     y="117.6729"
     transform="rotate(-89.0856 72.7931 118.6729)" /> 
  <path
     style="fill:none;stroke:#000000;stroke-width:1px;stroke-linecap:butt;stroke-linejoin:miter;stroke-opacity:1"
     d="m 72.7931,116.6729 2,2 -2,2 m -2.370121,-4 2,2 -2,2"
     transform="rotate(-89.0856 72.7931 118.6729)"/>
  <line x1="72.6124" y1="129.9727" x2="105.6806" y2="130.5089" stroke="#000000" stroke-width="1.0" />
  <line x1="72.6529" y1="127.4730" x2="105.7212" y2="128.0092" stroke="#000000" stroke-width="1.0" />
  <line x1="72.6327" y1="128.7228" x2="105.2440" y2="149.4332" stroke="#bc2900" stroke-width="1.0" />
  <rect
     style="fill:#ffffff;stroke:none"
     width="5.5"
     height="2"
     x="86.1883"
     y="138.0780" 
     transform="rotate(32.4183 88.9383 139.0780)"    /> 
  <path
     style="fill:none;stroke:#bc2900;stroke-width:1px;stroke-linecap:butt;stroke-linejoin:miter;stroke-opacity:1"
    d="m 89.6883,137.0780 2,2 -2,2 m -1.5,-4 -2,2 2,2" transform="rotate(32.4183 88.9383 139.0780)"/>
  <line x1="72.9418" y1="109.8729" x2="106.0620" y2="110.1811" stroke="#000000" stroke-width="1.0" />
  <line x1="72.9651" y1="107.3730" x2="106.0853" y2="107.6812" stroke="#000000" stroke-width="1.0" />
  <line x1="72.9944" y1="88.5101" x2="72.7949" y2="68.3936" stroke="#000000" stroke-width="1.0" />
  <rect
     style="fill:#ffffff;fill-opacity:1;fill-rule:nonzero;stroke:none"
     width="2"
     height="2"
     x="72.3946"
     y="77.4518"
     transform="rotate(269.4319 72.8946 78.4518)" /> 
  <path
     style="fill:none;stroke:#000000;stroke-width:1px;stroke-linecap:butt;stroke-linejoin:miter;stroke-opacity:1"
     d="m 72.8946,76.4518 2,2 -2,2 m -2.370121,-4 2,2 -2,2"
     transform="rotate(269.4319 72.8946 78.4518)"/>
  <line x1="72.9950" y1="89.7601" x2="106.2484" y2="89.7440" stroke="#000000" stroke-width="1.0" />
  <line x1="72.9937" y1="87.2601" x2="106.2472" y2="87.2440" stroke="#000000" stroke-width="1.0" />
  <line x1="72.9944" y1="88.5101" x2="106.0736" y2="108.9312" stroke="#17000d" stroke-width="1.0" />
  <rect
     style="fill:#ffffff;stroke:none"
     width="5.5"
     height="2"
     x="86.7840"
     y="97.7206" 
     transform="rotate(31.6886 89.5340 98.7206)"    /> 
  <path
     style="fill:none;stroke:#17000d;stroke-width:1px;stroke-linecap:butt;stroke-linejoin:miter;stroke-opacity:1"
    d="m 90.2840,96.7206 2,2 -2,2 m -1.5,-4 -2,2 2,2" transform="rotate(31.6886 89.5340 98.7206)"/>
  <line x1="72.8079" y1="69.6435" x2="106.2452" y2="69.2963" stroke="#000000" stroke-width="1.0" />
  <line x1="72.7819" y1="67.1436" x2="106.2193" y2="66.7964" stroke="#000000" stroke-width="1.0" />
  <line x1="102.7316" y1="47.4897" x2="106.2322" y2="68.0464" stroke="#000000" stroke-width="1.0" />
  <rect
     style="fill:#ffffff;stroke:none"
     width="5.5"
     height="2"
     x="101.7319"
     y="56.7680" 
     transform="rotate(80.3357 104.4819 57.7680)"    /> 
  <path
     style="fill:none;stroke:#000000;stroke-width:1px;stroke-linecap:butt;stroke-linejoin:miter;stroke-opacity:1"
    d="m 105.2319,55.7680 2,2 -2,2 m -1.5,-4 -2,2 2,2" transform="rotate(80.3357 104.4819 57.7680)"/>
  <line x1="106.2322" y1="68.0464" x2="106.2478" y2="88.4940" stroke="#000000" stroke-width="1.0" />
  <rect
     style="fill:#ffffff;fill-opacity:1;fill-rule:nonzero;stroke:none"
     width="2"
     height="2"
     x="105.7400"
     y="77.2702"
     transform="rotate(89.9563 106.2400 78.2702)" /> 
  <path
     style="fill:none;stroke:#000000;stroke-width:1px;stroke-linecap:butt;stroke-linejoin:miter;stroke-opacity:1"
     d="m 106.2400,76.2702 2,2 -2,2 m -2.370121,-4 2,2 -2,2"
     transform="rotate(89.9563 106.2400 78.2702)"/>
  <line x1="106.0736" y1="108.9312" x2="105.7009" y2="129.2591" stroke="#000000" stroke-width="1.0" />
  <rect
     style="fill:#ffffff;fill-opacity:1;fill-rule:nonzero;stroke:none"
     width="2"
     height="2"
     x="105.3873"
     y="118.0951"
     transform="rotate(91.0505 105.8873 119.0951)" /> 
  <path
     style="fill:none;stroke:#000000;stroke-width:1px;stroke-linecap:butt;stroke-linejoin:miter;stroke-opacity:1"
     d="m 105.8873,117.0951 2,2 -2,2 m -2.370121,-4 2,2 -2,2"
     transform="rotate(91.0505 105.8873 119.0951)"/>
  <line x1="105.7009" y1="129.2591" x2="105.2440" y2="149.4332" stroke="#cf4a00" stroke-width="1.0" />
  <rect
     style="fill:#ffffff;fill-opacity:1;fill-rule:nonzero;stroke:none"
     width="2"
     height="2"
     x="104.9724"
     y="138.3462"
     transform="rotate(91.2975 105.4724 139.3462)" /> 
  <path
     style="fill:none;stroke:#cf4a00;stroke-width:1px;stroke-linecap:butt;stroke-linejoin:miter;stroke-opacity:1"
     d="m 105.4724,137.3462 2,2 -2,2 m -2.370121,-4 2,2 -2,2"
     transform="rotate(91.2975 105.4724 139.3462)"/>
<circle cx="72.1121" cy="148.7747" r="5.0" stroke="#595959" stroke-width="1.0" fill="#ffffff"/>
<text x="72.1121" y="151.4747" text-anchor="middle" font-family="Helvetica" font-size="7.5" fill="#000000" >G</text>
<circle cx="72.6327" cy="128.7228" r="5.0" stroke="#595959" stroke-width="1.0" fill="#ffffff"/>
<text x="72.6327" y="131.4228" text-anchor="middle" font-family="Helvetica" font-size="7.5" fill="#000000" >G</text>
<circle cx="72.9535" cy="108.6229" r="5.0" stroke="#595959" stroke-width="1.0" fill="#ffffff"/>
<text x="72.9535" y="111.3229" text-anchor="middle" font-family="Helvetica" font-size="7.5" fill="#000000" >C</text>
<circle cx="72.9944" cy="88.5101" r="5.0" stroke="#595959" stroke-width="1.0" fill="#ffffff"/>
<text x="72.9944" y="91.2101" text-anchor="middle" font-family="Helvetica" font-size="7.5" fill="#000000" >G</text>
<circle cx="72.7949" cy="68.3936" r="5.0" stroke="#595959" stroke-width="1.0" fill="#ffffff"/>
<text x="72.7949" y="71.0936" text-anchor="middle" font-family="Helvetica" font-size="7.5" fill="#000000" >C</text>
<circle cx="70.7141" cy="48.5121" r="5.0" stroke="#595959" stroke-width="1.0" fill="#ffffff"/>
<text x="70.7141" y="51.2121" text-anchor="middle" font-family="Helvetica" font-size="7.5" fill="#000000" >A</text>
<circle cx="86.3176" cy="36.0807" r="5.0" stroke="#595959" stroke-width="1.0" fill="#ffffff"/>
<text x="86.3176" y="38.7807" text-anchor="middle" font-family="Helvetica" font-size="7.5" fill="#000000" >U</text>
<circle cx="102.7316" cy="47.4897" r="5.0" stroke="#595959" stroke-width="1.0" fill="#ffffff"/>
<text x="102.7316" y="50.1897" text-anchor="middle" font-family="Helvetica" font-size="7.5" fill="#000000" >C</text>
<circle cx="121.2507" cy="54.7296" r="5.0" stroke="#595959" stroke-width="1.0" fill="#ffffff"/>
<text x="121.2507" y="57.4296" text-anchor="middle" font-family="Helvetica" font-size="7.5" fill="#000000" >G</text>
<circle cx="106.2322" cy="68.0464" r="5.0" stroke="#595959" stroke-width="1.0" fill="#ffffff"/>
<text x="106.2322" y="70.7464" text-anchor="middle" font-family="Helvetica" font-size="7.5" fill="#000000" >G</text>
<circle cx="106.2478" cy="88.4940" r="5.0" stroke="#595959" stroke-width="1.0" fill="#ffffff"/>
<text x="106.2478" y="91.1940" text-anchor="middle" font-family="Helvetica" font-size="7.5" fill="#000000" >C</text>
<circle cx="106.0736" cy="108.9312" r="5.0" stroke="#595959" stroke-width="1.0" fill="#ffffff"/>
<text x="106.0736" y="111.6312" text-anchor="middle" font-family="Helvetica" font-size="7.5" fill="#000000" >G</text>
<circle cx="105.7009" cy="129.2591" r="5.0" stroke="#595959" stroke-width="1.0" fill="#ffffff"/>
<text x="105.7009" y="131.9591" text-anchor="middle" font-family="Helvetica" font-size="7.5" fill="#000000" >C</text>
<circle cx="105.2440" cy="149.4332" r="5.0" stroke="#595959" stroke-width="1.0" fill="#ffffff"/>
<text x="105.2440" y="152.1332" text-anchor="middle" font-family="Helvetica" font-size="7.5" fill="#000000" >C</text>
</svg>