<?xml version="1.0" encoding="UTF-8"?>
<!DOCTYPE svg PUBLIC "-//W3C//DTD SVG 1.1//EN" 
"http://www.w3.org/Graphics/SVG/1.1/DTD/svg11.dtd">

<svg version="1.1"
   width="182px"
   height="182px"
xmlns="http://www.w3.org/2000/svg">
    <rect width="100%" height="100%" fill="white"/>

  <line x1="73.8331" y1="110.3926" x2="74.0095" y2="90.4306" stroke="#595959"
     style="stroke-width:2;stroke-miterlimit:4;stroke-dasharray:1,1;stroke-dashoffset:0" />
  <line x1="73.8522" y1="70.4857" x2="73.2322" y2="50.5551" stroke="#595959"
     style="stroke-width:2;stroke-miterlimit:4;stroke-dasharray:1,1;stroke-dashoffset:0" />
  <line x1="83.0973" y1="33.2070" x2="103.0437" y2="34.2649" stroke="#595959"
     style="stroke-width:2;stroke-miterlimit:4;stroke-dasharray:1,1;stroke-dashoffset:0" />
  <line x1="103.0437" y1="34.2649" x2="113.3305" y2="51.3909" stroke="#595959"
     style="stroke-width:2;stroke-miterlimit:4;stroke-dasharray:1,1;stroke-dashoffset:0" />
  <line x1="113.3305" y1="51.3909" x2="106.6975" y2="70.2799" stroke="#595959"
     style="stroke-width:2;stroke-miterlimit:4;stroke-dasharray:1,1;stroke-dashoffset:0" />
  <line x1="106.7986" y1="90.4336" x2="106.7166" y2="110.5576" stroke="#595959"
     style="stroke-width:2;stroke-miterlimit:4;stroke-dasharray:1,1;stroke-dashoffset:0" />
  <line x1="73.2297" y1="150.3482" x2="73.5790" y2="130.3626" stroke="#ea9900" stroke-width="1.0" />
  <rect
     style="fill:#ffffff;fill-opacity:1;fill-rule:nonzero;stroke:none"
     width="2"
     height="2"
     x="72.9043"
     y="139.3554"
     transform="rotate(-88.9986 73.4043 140.3554)" /> 
  <path
     style="fill:none;stroke:#ea9900;stroke-width:1px;stroke-linecap:butt;stroke-linejoin:miter;stroke-opacity:1"
     d="m 73.4043,138.3554 2,2 -2,2 m -2.370121,-4 2,2 -2,2"
     transform="rotate(-88.9986 73.4043 140.3554)"/>
  <line x1="73.2178" y1="151.5981" x2="106.1057" y2="151.9096" stroke="#000000" stroke-width="1.0" />
  <line x1="73.2415" y1="149.0982" x2="106.1294" y2="149.4097" stroke="#000000" stroke-width="1.0" />
  <line x1="73.5790" y1="130.3626" x2="73.8331" y2="110.3926" stroke="#000000" stroke-width="1.0" />
  <rect
     style="fill:#ffffff;fill-opacity:1;fill-rule:nonzero;stroke:none"
     width="2"
     height="2"
     x="73.2061"
     y="119.3776"
     transform="rotate(-89.2710 73.7061 120.3776)" /> 
  <path
     style="fill:none;stroke:#000000;stroke-width:1px;stroke-linecap:butt;stroke-linejoin:miter;stroke-opacity:1"
     d="m 73.7061,118.3776 2,2 -2,2 m -2.370121,-4 2,2 -2,2"
     transform="rotate(-89.2710 73.7061 120.3776)"/>
  <line x1="73.5688" y1="131.6125" x2="106.4524" y2="131.8815" stroke="#000000" stroke-width="1.0" />
  <line x1="73.5892" y1="129.1126" x2="106.4728" y2="129.3816" stroke="#000000" stroke-width="1.0" />
  <line x1="73.5790" y1="130.3626" x2="106.1175" y2="150.6596" stroke="#b92500" stroke-width="1.0" />
  <rect
     style="fill:#ffffff;stroke:none"
     width="5.5"
     height="2"
     x="87.0983"
     y="139.5111" 
     transform="rotate(31.9553 89.8483 140.5111)"    /> 
  <path
     style="fill:none;stroke:#b92500;stroke-width:1px;stroke-linecap:butt;stroke-linejoin:miter;stroke-opacity:1"
    d="m 90.5983,138.5111 2,2 -2,2 m -1.5,-4 -2,2 2,2" transform="rotate(31.9553 89.8483 140.5111)"/>
  <line x1="73.8268" y1="111.6426" x2="106.7103" y2="111.8076" stroke="#000000" stroke-width="1.0" />
  <line x1="73.8394" y1="109.1426" x2="106.7229" y2="109.3077" stroke="#000000" stroke-width="1.0" />
  <line x1="74.0095" y1="90.4306" x2="73.8522" y2="70.4857" stroke="#000000" stroke-width="1.0" />
  <rect
     style="fill:#ffffff;fill-opacity:1;fill-rule:nonzero;stroke:none"
     width="2"
     height="2"
     x="73.4309"
     y="79.4582"
     transform="rotate(269.5480 73.9309 80.4582)" /> 
  <path
     style="fill:none;stroke:#000000;stroke-width:1px;stroke-linecap:butt;stroke-linejoin:miter;stroke-opacity:1"
     d="m 73.9309,78.4582 2,2 -2,2 m -2.370121,-4 2,2 -2,2"
     transform="rotate(269.5480 73.9309 80.4582)"/>
  <line x1="74.0094" y1="91.6806" x2="106.7985" y2="91.6836" stroke="#000000" stroke-width="1.0" />
  <line x1="74.0097" y1="89.1806" x2="106.7987" y2="89.1836" stroke="#000000" stroke-width="1.0" />
  <line x1="74.0095" y1="90.4306" x2="106.7166" y2="110.5576" stroke="#000000" stroke-width="1.0" />
  <rect
     style="fill:#ffffff;stroke:none"
     width="5.5"
     height="2"
     x="87.6131"
     y="99.4941" 
     transform="rotate(31.6070 90.3631 100.4941)"    /> 
  <path
     style="fill:none;stroke:#000000;stroke-width:1px;stroke-linecap:butt;stroke-linejoin:miter;stroke-opacity:1"
    d="m 91.1131,98.4941 2,2 -2,2 m -1.5,-4 -2,2 2,2" transform="rotate(31.6070 90.3631 100.4941)"/>
  <line x1="73.8600" y1="71.7357" x2="106.7054" y2="71.5299" stroke="#000000" stroke-width="1.0" />
  <line x1="73.8444" y1="69.2357" x2="106.6897" y2="69.0299" stroke="#000000" stroke-width="1.0" />
  <line x1="73.2322" y1="50.5551" x2="83.0973" y2="33.2070" stroke="#000000" stroke-width="1.0" />
  <rect
     style="fill:#ffffff;fill-opacity:1;fill-rule:nonzero;stroke:none"
     width="2"
     height="2"
     x="77.6647"
     y="40.8811"
     transform="rotate(-60.3751 78.1647 41.8811)" /> 
  <path
     style="fill:none;stroke:#000000;stroke-width:1px;stroke-linecap:butt;stroke-linejoin:miter;stroke-opacity:1"
     d="m 78.1647,39.8811 2,2 -2,2 m -2.370121,-4 2,2 -2,2"
     transform="rotate(-60.3751 78.1647 41.8811)"/>
  <line x1="73.2322" y1="50.5551" x2="106.6975" y2="70.2799" stroke="#9b0dba" stroke-width="1.0" />
  <rect
     style="fill:#ffffff;stroke:none"
     width="5.5"
     height="2"
     x="87.2148"
     y="59.4175" 
     transform="rotate(30.5155 89.9648 60.4175)"    /> 
  <path
     style="fill:none;stroke:#9b0dba;stroke-width:1px;stroke-linecap:butt;stroke-linejoin:miter;stroke-opacity:1"
    d="m 90.7148,58.4175 2,2 -2,2 m -1.5,-4 -2,2 2,2" transform="rotate(30.5155 89.9648 60.4175)"/>
  <line x1="106.6975" y1="70.2799" x2="106.7986" y2="90.4336" stroke="#000000" stroke-width="1.0" />
  <rect
     style="fill:#ffffff;fill-opacity:1;fill-rule:nonzero;stroke:none"
     width="2"
     height="2"
     x="106.2481"
     y="79.3567"
     transform="rotate(89.7127 106.7481 80.3567)" /> 
  <path
     style="fill:none;stroke:#000000;stroke-width:1px;stroke-linecap:butt;stroke-linejoin:miter;stroke-opacity:1"
     d="m 106.7481,78.3567 2,2 -2,2 m -2.370121,-4 2,2 -2,2"
     transform="rotate(89.7127 106.7481 80.3567)"/>
  <line x1="106.7166" y1="110.5576" x2="106.4626" y2="130.6316" stroke="#000000" stroke-width="1.0" />
  <rect
     style="fill:#ffffff;fill-opacity:1;fill-rule:nonzero;stroke:none"
     width="2"
     height="2"
     x="106.0896"
     y="119.5946"
     transform="rotate(90.7250 106.5896 120.5946)" /> 
  <path
     style="fill:none;stroke:#000000;stroke-width:1px;stroke-linecap:butt;stroke-linejoin:miter;stroke-opacity:1"
     d="m 106.5896,118.5946 2,2 -2,2 m -2.370121,-4 2,2 -2,2"
     transform="rotate(90.7250 106.5896 120.5946)"/>
  <line x1="106.4626" y1="130.6316" x2="106.1175" y2="150.6596" stroke="#c43500" stroke-width="1.0" />
  <rect
     style="fill:#ffffff;fill-opacity:1;fill-rule:nonzero;stroke:none"
     width="2"
     height="2"
     x="105.7901"
     y="139.6456"
     transform="rotate(90.9870 106.2901 140.6456)" /> 
  <path
     style="fill:none;stroke:#c43500;stroke-width:1px;stroke-linecap:butt;stroke-linejoin:miter;stroke-opacity:1"
     d="m 106.2901,138.6456 2,2 -2,2 m -2.370121,-4 2,2 -2,2"
     transform="rotate(90.9870 106.2901 140.6456)"/>
<circle cx="73.2297" cy="150.3482" r="5.0" stroke="#595959" stroke-width="1.0" fill="#ffffff"/>
<text x="73.2297" y="153.0482" text-anchor="middle" font-family="Helvetica" font-size="7.5" fill="#000000" >G</text>
<circle cx="73.5790" cy="130.3626" r="5.0" stroke="#595959" stroke-width="1.0" fill="#ffffff"/>
<text x="73.5790" y="133.0626" text-anchor="middle" font-family="Helvetica" font-size="7.5" fill="#000000" >G</text>
<circle cx="73.8331" cy="110.3926" r="5.0" stroke="#595959" stroke-width="1.0" fill="#ffffff"/>
<text x="73.8331" y="113.0926" text-anchor="middle" font-family="Helvetica" font-size="7.5" fill="#000000" >C</text>
<circle cx="74.0095" cy="90.4306" r="5.0" stroke="#595959" stroke-width="1.0" fill="#ffffff"/>
<text x="74.0095" y="93.1306" text-anchor="middle" font-family="Helvetica" font-size="7.5" fill="#000000" >G</text>
<circle cx="73.8522" cy="70.4857" r="5.0" stroke="#595959" stroke-width="1.0" fill="#ffffff"/>
<text x="73.8522" y="73.1857" text-anchor="middle" font-family="Helvetica" font-size="7.5" fill="#000000" >C</text>
<circle cx="73.2322" cy="50.5551" r="5.0" stroke="#595959" stroke-width="1.0" fill="#ffffff"/>
<text x="73.2322" y="53.2551" text-anchor="middle" font-family="Helvetica" font-size="7.5" fill="#000000" >A</text>
<circle cx="83.0973" cy="33.2070" r="5.0" stroke="#595959" stroke-width="1.0" fill="#ffffff"/>
<text x="83.0973" y="35.9070" text-anchor="middle" font-family="Helvetica" font-size="7.5" fill="#000000" >U</text>
<circle cx="103.0437" cy="34.2649" r="5.0" stroke="#595959" stroke-width="1.0" fill="#ffffff"/>
<text x="103.0437" y="36.9649" text-anchor="middle" font-family="Helvetica" font-size="7.5" fill="#000000" >C</text>
<circle cx="113.3305" cy="51.3909" r="5.0" stroke="#595959" stroke-width="1.0" fill="#ffffff"/>
<text x="113.3305" y="54.0909" text-anchor="middle" font-family="Helvetica" font-size="7.5" fill="#000000" >G</text>
<circle cx="106.6975" cy="70.2799" r="5.0" stroke="#595959" stroke-width="1.0" fill="#ffffff"/>
<text x="106.6975" y="72.9799" text-anchor="middle" font-family="Helvetica" font-size="7.5" fill="#000000" >G</text>
<circle cx="106.7986" cy="90.4336" r="5.0" stroke="#595959" stroke-width="1.0" fill="#ffffff"/>
<text x="106.7986" y="93.1336" text-anchor="middle" font-family="Helvetica" font-size="7.5" fill="#000000" >C</text>
<circle cx="106.7166" cy="110.5576" r="5.0" stroke="#595959" stroke-width="1.0" fill="#ffffff"/>
<text x="106.7166" y="113.2576" text-anchor="middle" font-family="Helvetica" font-size="7.5" fill="#000000" >G</text>
<circle cx="106.4626" cy="130.6316" r="5.0" stroke="#595959" stroke-width="1.0" fill="#ffffff"/>
<text x="106.4626" y="133.3316" text-anchor="middle" font-family="Helvetica" font-size="7.5" fill="#000000" >C</text>
<circle cx="106.1175" cy="150.6596" r="5.0" stroke="#595959" stroke-width="1.0" fill="#ffffff"/>
<text x="106.1175" y="153.3596" text-anchor="middle" font-family="Helvetica" font-size="7.5" fill="#000000" >C</text>
</svg>