<?xml version="1.0" encoding="UTF-8"?>
<!DOCTYPE svg PUBLIC "-//W3C//DTD SVG 1.1//EN" 
"http://www.w3.org/Graphics/SVG/1.1/DTD/svg11.dtd">

<svg version="1.1"
   width="182px"
   height="182px"
xmlns="http://www.w3.org/2000/svg">
    <rect width="100%" height="100%" fill="white"/>

  <line x1="73.4310" y1="110.3254" x2="73.5950" y2="90.3922" stroke="#595959"
     style="stroke-width:2;stroke-miterlimit:4;stroke-dasharray:1,1;stroke-dashoffset:0" />
  <line x1="73.5174" y1="70.4682" x2="74.6235" y2="50.5855" stroke="#595959"
     style="stroke-width:2;stroke-miterlimit:4;stroke-dasharray:1,1;stroke-dashoffset:0" />
  <line x1="84.5229" y1="33.2775" x2="104.4616" y2="34.1110" stroke="#595959"
     style="stroke-width:2;stroke-miterlimit:4;stroke-dasharray:1,1;stroke-dashoffset:0" />
  <line x1="104.4616" y1="34.1110" x2="113.9991" y2="51.6577" stroke="#595959"
     style="stroke-width:2;stroke-miterlimit:4;stroke-dasharray:1,1;stroke-dashoffset:0" />
  <line x1="113.9991" y1="51.6577" x2="106.1812" y2="70.0846" stroke="#595959"
     style="stroke-width:2;stroke-miterlimit:4;stroke-dasharray:1,1;stroke-dashoffset:0" />
  <line x1="106.3734" y1="90.3727" x2="106.2676" y2="110.6183" stroke="#595959"
     style="stroke-width:2;stroke-miterlimit:4;stroke-dasharray:1,1;stroke-dashoffset:0" />
  <line x1="72.5936" y1="150.2713" x2="73.0635" y2="130.2860" stroke="#eca100" stroke-width="1.0" />
  <rect
     style="fill:#ffffff;fill-opacity:1;fill-rule:nonzero;stroke:none"
     width="2"
     height="2"
     x="72.3285"
     y="139.2786"
     transform="rotate(-88.6532 72.8285 140.2786)" /> 
  <path
     style="fill:none;stroke:#eca100;stroke-width:1px;stroke-linecap:butt;stroke-linejoin:miter;stroke-opacity:1"
     d="m 72.8285,138.2786 2,2 -2,2 m -2.370121,-4 2,2 -2,2"
     transform="rotate(-88.6532 72.8285 140.2786)"/>
  <line x1="72.5737" y1="151.5211" x2="105.4280" y2="152.0426" stroke="#000000" stroke-width="1.0" />
  <line x1="72.6134" y1="149.0214" x2="105.4677" y2="149.5429" stroke="#000000" stroke-width="1.0" />
  <line x1="73.0635" y1="130.2860" x2="73.4310" y2="110.3254" stroke="#000000" stroke-width="1.0" />
  <rect
     style="fill:#ffffff;fill-opacity:1;fill-rule:nonzero;stroke:none"
     width="2"
     height="2"
     x="72.7472"
     y="119.3057"
     transform="rotate(-88.9452 73.2472 120.3057)" /> 
  <path
     style="fill:none;stroke:#000000;stroke-width:1px;stroke-linecap:butt;stroke-linejoin:miter;stroke-opacity:1"
     d="m 73.2472,118.3057 2,2 -2,2 m -2.370121,-4 2,2 -2,2"
     transform="rotate(-88.9452 73.2472 120.3057)"/>
  <line x1="73.0456" y1="131.5359" x2="105.9044" y2="132.0066" stroke="#000000" stroke-width="1.0" />
  <line x1="73.0814" y1="129.0362" x2="105.9402" y2="129.5068" stroke="#000000" stroke-width="1.0" />
  <line x1="73.0635" y1="130.2860" x2="105.4479" y2="150.7928" stroke="#b82400" stroke-width="1.0" />
  <rect
     style="fill:#ffffff;stroke:none"
     width="5.5"
     height="2"
     x="86.5057"
     y="139.5394" 
     transform="rotate(32.3432 89.2557 140.5394)"    /> 
  <path
     style="fill:none;stroke:#b82400;stroke-width:1px;stroke-linecap:butt;stroke-linejoin:miter;stroke-opacity:1"
    d="m 90.0057,138.5394 2,2 -2,2 m -1.5,-4 -2,2 2,2" transform="rotate(32.3432 89.2557 140.5394)"/>
  <line x1="73.4198" y1="111.5754" x2="106.2565" y2="111.8683" stroke="#000000" stroke-width="1.0" />
  <line x1="73.4421" y1="109.0755" x2="106.2788" y2="109.3684" stroke="#000000" stroke-width="1.0" />
  <line x1="73.5950" y1="90.3922" x2="73.5174" y2="70.4682" stroke="#000000" stroke-width="1.0" />
  <rect
     style="fill:#ffffff;fill-opacity:1;fill-rule:nonzero;stroke:none"
     width="2"
     height="2"
     x="73.0562"
     y="79.4302"
     transform="rotate(269.7767 73.5562 80.4302)" /> 
  <path
     style="fill:none;stroke:#000000;stroke-width:1px;stroke-linecap:butt;stroke-linejoin:miter;stroke-opacity:1"
     d="m 73.5562,78.4302 2,2 -2,2 m -2.370121,-4 2,2 -2,2"
     transform="rotate(269.7767 73.5562 80.4302)"/>
  <line x1="73.5958" y1="91.6422" x2="106.3742" y2="91.6227" stroke="#17000d" stroke-width="1.0" />
  <line x1="73.5943" y1="89.1422" x2="106.3727" y2="89.1227" stroke="#17000d" stroke-width="1.0" />
  <line x1="73.5950" y1="90.3922" x2="106.2676" y2="110.6183" stroke="#200019" stroke-width="1.0" />
  <rect
     style="fill:#ffffff;stroke:none"
     width="5.5"
     height="2"
     x="87.1813"
     y="99.5053" 
     transform="rotate(31.7597 89.9313 100.5053)"    /> 
  <path
     style="fill:none;stroke:#200019;stroke-width:1px;stroke-linecap:butt;stroke-linejoin:miter;stroke-opacity:1"
    d="m 90.6813,98.5053 2,2 -2,2 m -1.5,-4 -2,2 2,2" transform="rotate(31.7597 89.9313 100.5053)"/>
  <line x1="73.5321" y1="71.7181" x2="106.1959" y2="71.3345" stroke="#000000" stroke-width="1.0" />
  <line x1="73.5027" y1="69.2183" x2="106.1665" y2="68.8347" stroke="#000000" stroke-width="1.0" />
  <line x1="74.6235" y1="50.5855" x2="84.5229" y2="33.2775" stroke="#dd6b00" stroke-width="1.0" />
  <circle cx="83.0732" cy="41.9315" r="2.25" stroke="#dd6b00" stroke-width="1.0" fill="#ffffff"
    transform="rotate(-60.2323 79.5732 41.9315)" />
  <path d="M 77.8232 44.1815 L 77.8232 39.6815 L 73.8232 41.9315 z" style="stroke:#dd6b00;stroke-width:1.0" fill="#ffffff" 
    transform="rotate(-60.2323 79.5732 41.9315)"/>
  <line x1="74.6235" y1="50.5855" x2="106.1812" y2="70.0846" stroke="#000000" stroke-width="1.0" />
  <rect
     style="fill:#ffffff;stroke:none"
     width="5.5"
     height="2"
     x="87.6524"
     y="59.3350" 
     transform="rotate(31.7114 90.4024 60.3350)"    /> 
  <path
     style="fill:none;stroke:#000000;stroke-width:1px;stroke-linecap:butt;stroke-linejoin:miter;stroke-opacity:1"
    d="m 91.1524,58.3350 2,2 -2,2 m -1.5,-4 -2,2 2,2" transform="rotate(31.7114 90.4024 60.3350)"/>
  <line x1="84.5229" y1="33.2775" x2="106.1812" y2="70.0846" stroke="#d75b00" stroke-width="1.0" />
  <circle cx="98.8521" cy="51.6811" r="2.25" stroke="#d75b00" stroke-width="1.0" fill="#ffffff"
    transform="rotate(239.5263 95.3521 51.6811)" />
  <path d="M 93.6021 53.9311 L 93.6021 49.4311 L 89.6021 51.6811 z" style="stroke:#d75b00;stroke-width:1.0" fill="#ffffff" 
    transform="rotate(239.5263 95.3521 51.6811)"/>
  <line x1="106.1812" y1="70.0846" x2="106.3734" y2="90.3727" stroke="#000000" stroke-width="1.0" />
  <rect
     style="fill:#ffffff;fill-opacity:1;fill-rule:nonzero;stroke:none"
     width="2"
     height="2"
     x="105.7773"
     y="79.2286"
     transform="rotate(89.4572 106.2773 80.2286)" /> 
  <path
     style="fill:none;stroke:#000000;stroke-width:1px;stroke-linecap:butt;stroke-linejoin:miter;stroke-opacity:1"
     d="m 106.2773,78.2286 2,2 -2,2 m -2.370121,-4 2,2 -2,2"
     transform="rotate(89.4572 106.2773 80.2286)"/>
  <line x1="106.2676" y1="110.6183" x2="105.9223" y2="130.7567" stroke="#000000" stroke-width="1.0" />
  <rect
     style="fill:#ffffff;fill-opacity:1;fill-rule:nonzero;stroke:none"
     width="2"
     height="2"
     x="105.5950"
     y="119.6875"
     transform="rotate(90.9823 106.0950 120.6875)" /> 
  <path
     style="fill:none;stroke:#000000;stroke-width:1px;stroke-linecap:butt;stroke-linejoin:miter;stroke-opacity:1"
     d="m 106.0950,118.6875 2,2 -2,2 m -2.370121,-4 2,2 -2,2"
     transform="rotate(90.9823 106.0950 120.6875)"/>
  <line x1="105.9223" y1="130.7567" x2="105.4479" y2="150.7928" stroke="#bb2700" stroke-width="1.0" />
  <rect
     style="fill:#ffffff;fill-opacity:1;fill-rule:nonzero;stroke:none"
     width="2"
     height="2"
     x="105.1851"
     y="139.7747"
     transform="rotate(91.3566 105.6851 140.7747)" /> 
  <path
     style="fill:none;stroke:#bb2700;stroke-width:1px;stroke-linecap:butt;stroke-linejoin:miter;stroke-opacity:1"
     d="m 105.6851,138.7747 2,2 -2,2 m -2.370121,-4 2,2 -2,2"
     transform="rotate(91.3566 105.6851 140.7747)"/>
<circle cx="72.5936" cy="150.2713" r="5.0" stroke="#595959" stroke-width="1.0" fill="#ffffff"/>
<text x="72.5936" y="152.9713" text-anchor="middle" font-family="Helvetica" font-size="7.5" fill="#000000" >G</text>
<circle cx="73.0635" cy="130.2860" r="5.0" stroke="#595959" stroke-width="1.0" fill="#ffffff"/>
<text x="73.0635" y="132.9860" text-anchor="middle" font-family="Helvetica" font-size="7.5" fill="#000000" >G</text>
<circle cx="73.4310" cy="110.3254" r="5.0" stroke="#595959" stroke-width="1.0" fill="#ffffff"/>
<text x="73.4310" y="113.0254" text-anchor="middle" font-family="Helvetica" font-size="7.5" fill="#000000" >C</text>
<circle cx="73.5950" cy="90.3922" r="5.0" stroke="#595959" stroke-width="1.0" fill="#ffffff"/>
<text x="73.5950" y="93.0922" text-anchor="middle" font-family="Helvetica" font-size="7.5" fill="#000000" >G</text>
<circle cx="73.5174" cy="70.4682" r="5.0" stroke="#595959" stroke-width="1.0" fill="#ffffff"/>
<text x="73.5174" y="73.1682" text-anchor="middle" font-family="Helvetica" font-size="7.5" fill="#000000" >C</text>
<circle cx="74.6235" cy="50.5855" r="5.0" stroke="#595959" stroke-width="1.0" fill="#ffffff"/>
<text x="74.6235" y="53.2855" text-anchor="middle" font-family="Helvetica" font-size="7.5" fill="#000000" >A</text>
<circle cx="84.5229" cy="33.2775" r="5.0" stroke="#595959" stroke-width="1.0" fill="#ffffff"/>
<text x="84.5229" y="35.9775" text-anchor="middle" font-family="Helvetica" font-size="7.5" fill="#000000" >U</text>
<circle cx="104.4616" cy="34.1110" r="5.0" stroke="#595959" stroke-width="1.0" fill="#ffffff"/>
<text x="104.4616" y="36.8110" text-anchor="middle" font-family="Helvetica" font-size="7.5" fill="#000000" >C</text>
<circle cx="113.9991" cy="51.6577" r="5.0" stroke="#595959" stroke-width="1.0" fill="#ffffff"/>
<text x="113.9991" y="54.3577" text-anchor="middle" font-family="Helvetica" font-size="7.5" fill="#000000" >G</text>
<circle cx="106.1812" cy="70.0846" r="5.0" stroke="#595959" stroke-width="1.0" fill="#ffffff"/>
<text x="106.1812" y="72.7846" text-anchor="middle" font-family="Helvetica" font-size="7.5" fill="#000000" >G</text>
<circle cx="106.3734" cy="90.3727" r="5.0" stroke="#595959" stroke-width="1.0" fill="#ffffff"/>
<text x="106.3734" y="93.0727" text-anchor="middle" font-family="Helvetica" font-size="7.5" fill="#000000" >C</text>
<circle cx="106.2676" cy="110.6183" r="5.0" stroke="#595959" stroke-width="1.0" fill="#ffffff"/>
<text x="106.2676" y="113.3183" text-anchor="middle" font-family="Helvetica" font-size="7.5" fill="#000000" >G</text>
<circle cx="105.9223" cy="130.7567" r="5.0" stroke="#595959" stroke-width="1.0" fill="#ffffff"/>
<text x="105.9223" y="133.4567" text-anchor="middle" font-family="Helvetica" font-size="7.5" fill="#000000" >C</text>
<circle cx="105.4479" cy="150.7928" r="5.0" stroke="#595959" stroke-width="1.0" fill="#ffffff"/>
<text x="105.4479" y="153.4928" text-anchor="middle" font-family="Helvetica" font-size="7.5" fill="#000000" >C</text>
</svg>