<?xml version="1.0" encoding="UTF-8"?>
<!DOCTYPE svg PUBLIC "-//W3C//DTD SVG 1.1//EN" 
"http://www.w3.org/Graphics/SVG/1.1/DTD/svg11.dtd">

<svg version="1.1"
   width="308px"
   height="308px"
xmlns="http://www.w3.org/2000/svg">
    <rect width="100%" height="100%" fill="white"/>

  <line x1="137.1907" y1="217.9187" x2="137.6952" y2="197.8647" stroke="#595959"
     style="stroke-width:2;stroke-miterlimit:4;stroke-dasharray:1,1;stroke-dashoffset:0" />
  <line x1="136.4052" y1="74.7870" x2="133.1234" y2="54.8860" stroke="#595959"
     style="stroke-width:2;stroke-miterlimit:4;stroke-dasharray:1,1;stroke-dashoffset:0" />
  <line x1="133.1234" y1="54.8860" x2="152.0445" y2="61.2030" stroke="#595959"
     style="stroke-width:2;stroke-miterlimit:4;stroke-dasharray:1,1;stroke-dashoffset:0" />
  <line x1="152.0445" y1="61.2030" x2="168.5640" y2="73.0357" stroke="#595959"
     style="stroke-width:2;stroke-miterlimit:4;stroke-dasharray:1,1;stroke-dashoffset:0" />
  <line x1="168.5640" y1="73.0357" x2="185.6163" y2="83.2058" stroke="#595959"
     style="stroke-width:2;stroke-miterlimit:4;stroke-dasharray:1,1;stroke-dashoffset:0" />
  <line x1="185.6163" y1="83.2058" x2="169.5442" y2="95.0857" stroke="#595959"
     style="stroke-width:2;stroke-miterlimit:4;stroke-dasharray:1,1;stroke-dashoffset:0" />
  <line x1="170.1643" y1="198.3655" x2="169.6853" y2="218.5119" stroke="#595959"
     style="stroke-width:2;stroke-miterlimit:4;stroke-dasharray:1,1;stroke-dashoffset:0" />
  <line x1="138.2272" y1="155.9797" x2="170.6798" y2="155.9783" stroke="#b21e13" stroke-width="1.0" />
  <circle cx="154.4535" cy="155.9790" r="2.25" stroke="#b21e13" stroke-width="1.0" fill="#b21e13"/>
  <line x1="138.2274" y1="159.1797" x2="170.6799" y2="159.1783" stroke="#d75b00" stroke-width="1.0" />
  <path d="M 148.7036 161.4290 L 148.7036 156.9290 L 153.2036 156.9290 L 153.2036 161.4290 z" style="stroke:#d75b00;stroke-width:1.0" fill="#d75b00" 
    transform="rotate(-0.0025 154.4536 159.1790)"/>
  <path d="M 156.2036 161.4290 L 156.2036 156.9290 L 160.2036 159.1790 z" style="stroke:#d75b00;stroke-width:1.0" fill="#d75b00"
    transform="rotate(-0.0025 154.4536 159.1790)"/>
  <line x1="136.3182" y1="73.1893" x2="168.4770" y2="71.4380" stroke="#eb9d00" stroke-width="1.0" />
  <circle cx="155.8976" cy="72.3137" r="2.25" stroke="#eb9d00" stroke-width="1.0" fill="#eb9d00"
    transform="rotate(-3.1172 152.3976 72.3137)" />
  <path d="M 150.6476 74.5637 L 150.6476 70.0637 L 146.6476 72.3137 z" style="stroke:#eb9d00;stroke-width:1.0" fill="#eb9d00" 
    transform="rotate(-3.1172 152.3976 72.3137)"/>
  <line x1="136.1014" y1="257.9401" x2="136.6429" y2="237.9378" stroke="#ea9900" stroke-width="1.0" />
  <rect
     style="fill:#ffffff;fill-opacity:1;fill-rule:nonzero;stroke:none"
     width="2"
     height="2"
     x="135.8722"
     y="246.9390"
     transform="rotate(-88.4492 136.3722 247.9390)" /> 
  <path
     style="fill:none;stroke:#ea9900;stroke-width:1px;stroke-linecap:butt;stroke-linejoin:miter;stroke-opacity:1"
     d="m 136.3722,245.9390 2,2 -2,2 m -2.370121,-4 2,2 -2,2"
     transform="rotate(-88.4492 136.3722 247.9390)"/>
  <line x1="136.0762" y1="259.1899" x2="168.5795" y2="259.8464" stroke="#17000d" stroke-width="1.0" />
  <line x1="136.1266" y1="256.6904" x2="168.6300" y2="257.3470" stroke="#17000d" stroke-width="1.0" />
  <line x1="136.6429" y1="237.9378" x2="137.1907" y2="217.9187" stroke="#000000" stroke-width="1.0" />
  <rect
     style="fill:#ffffff;fill-opacity:1;fill-rule:nonzero;stroke:none"
     width="2"
     height="2"
     x="136.4168"
     y="226.9283"
     transform="rotate(-88.4326 136.9168 227.9283)" /> 
  <path
     style="fill:none;stroke:#000000;stroke-width:1px;stroke-linecap:butt;stroke-linejoin:miter;stroke-opacity:1"
     d="m 136.9168,225.9283 2,2 -2,2 m -2.370121,-4 2,2 -2,2"
     transform="rotate(-88.4326 136.9168 227.9283)"/>
  <line x1="136.6184" y1="239.1875" x2="169.1041" y2="239.8261" stroke="#000000" stroke-width="1.0" />
  <line x1="136.6675" y1="236.6880" x2="169.1532" y2="237.3266" stroke="#000000" stroke-width="1.0" />
  <line x1="136.6429" y1="237.9378" x2="168.6048" y2="258.5967" stroke="#bc2900" stroke-width="1.0" />
  <rect
     style="fill:#ffffff;stroke:none"
     width="5.5"
     height="2"
     x="149.8738"
     y="247.2672" 
     transform="rotate(32.8771 152.6238 248.2672)"    /> 
  <path
     style="fill:none;stroke:#bc2900;stroke-width:1px;stroke-linecap:butt;stroke-linejoin:miter;stroke-opacity:1"
    d="m 153.3738,246.2672 2,2 -2,2 m -1.5,-4 -2,2 2,2" transform="rotate(32.8771 152.6238 248.2672)"/>
  <line x1="137.1679" y1="219.1685" x2="169.6625" y2="219.7617" stroke="#000000" stroke-width="1.0" />
  <line x1="137.2135" y1="216.6689" x2="169.7081" y2="217.2621" stroke="#000000" stroke-width="1.0" />
  <line x1="137.6952" y1="197.8647" x2="138.0688" y2="177.7672" stroke="#c93d00" stroke-width="1.0" />
  <rect
     style="fill:#ffffff;fill-opacity:1;fill-rule:nonzero;stroke:none"
     width="2"
     height="2"
     x="137.3820"
     y="186.8159"
     transform="rotate(-88.9349 137.8820 187.8159)" /> 
  <path
     style="fill:none;stroke:#c93d00;stroke-width:1px;stroke-linecap:butt;stroke-linejoin:miter;stroke-opacity:1"
     d="m 137.8820,185.8159 2,2 -2,2 m -2.370121,-4 2,2 -2,2"
     transform="rotate(-88.9349 137.8820 187.8159)"/>
  <line x1="137.6952" y1="197.8647" x2="170.1643" y2="198.3655" stroke="#17000d" stroke-width="1.0" />
  <line x1="137.6952" y1="197.8647" x2="169.6853" y2="218.5119" stroke="#000000" stroke-width="1.0" />
  <rect
     style="fill:#ffffff;stroke:none"
     width="5.5"
     height="2"
     x="150.9402"
     y="207.1883" 
     transform="rotate(32.8392 153.6902 208.1883)"    /> 
  <path
     style="fill:none;stroke:#000000;stroke-width:1px;stroke-linecap:butt;stroke-linejoin:miter;stroke-opacity:1"
    d="m 154.4402,206.1883 2,2 -2,2 m -1.5,-4 -2,2 2,2" transform="rotate(32.8392 153.6902 208.1883)"/>
  <line x1="138.0688" y1="177.7672" x2="138.2273" y2="157.5797" stroke="#d96100" stroke-width="1.0" />
  <rect
     style="fill:#ffffff;fill-opacity:1;fill-rule:nonzero;stroke:none"
     width="2"
     height="2"
     x="137.6480"
     y="166.6734"
     transform="rotate(-89.5502 138.1480 167.6734)" /> 
  <path
     style="fill:none;stroke:#d96100;stroke-width:1px;stroke-linecap:butt;stroke-linejoin:miter;stroke-opacity:1"
     d="m 138.1480,165.6734 2,2 -2,2 m -2.370121,-4 2,2 -2,2"
     transform="rotate(-89.5502 138.1480 167.6734)"/>
  <line x1="138.0572" y1="179.0171" x2="170.5373" y2="179.3177" stroke="#200019" stroke-width="1.0" />
  <line x1="138.0804" y1="176.5172" x2="170.5604" y2="176.8178" stroke="#200019" stroke-width="1.0" />
  <line x1="138.0688" y1="177.7672" x2="170.1643" y2="198.3655" stroke="#ce4700" stroke-width="1.0" />
  <rect
     style="fill:#ffffff;stroke:none"
     width="5.5"
     height="2"
     x="151.3666"
     y="187.0663" 
     transform="rotate(32.6916 154.1166 188.0663)"    /> 
  <path
     style="fill:none;stroke:#ce4700;stroke-width:1px;stroke-linecap:butt;stroke-linejoin:miter;stroke-opacity:1"
    d="m 154.8666,186.0663 2,2 -2,2 m -1.5,-4 -2,2 2,2" transform="rotate(32.6916 154.1166 188.0663)"/>
  <line x1="138.2273" y1="157.5797" x2="138.1393" y2="137.2571" stroke="#8605fc" stroke-width="1.0" />
  <rect
     style="fill:#ffffff;fill-opacity:1;fill-rule:nonzero;stroke:none"
     width="2"
     height="2"
     x="137.6833"
     y="146.4184"
     transform="rotate(269.7520 138.1833 147.4184)" /> 
  <path
     style="fill:none;stroke:#8605fc;stroke-width:1px;stroke-linecap:butt;stroke-linejoin:miter;stroke-opacity:1"
     d="m 138.1833,145.4184 2,2 -2,2 m -2.370121,-4 2,2 -2,2"
     transform="rotate(269.7520 138.1833 147.4184)"/>
  <line x1="138.2273" y1="157.5797" x2="170.5489" y2="178.0678" stroke="#ea9900" stroke-width="1.0" />
  <rect
     style="fill:#ffffff;stroke:none"
     width="5.5"
     height="2"
     x="151.6381"
     y="166.8237" 
     transform="rotate(32.3699 154.3881 167.8237)"    /> 
  <path
     style="fill:none;stroke:#ea9900;stroke-width:1px;stroke-linecap:butt;stroke-linejoin:miter;stroke-opacity:1"
    d="m 155.1381,165.8237 2,2 -2,2 m -1.5,-4 -2,2 2,2" transform="rotate(32.3699 154.3881 167.8237)"/>
  <line x1="138.1393" y1="137.2571" x2="137.8221" y2="116.7613" stroke="#ae1a38" stroke-width="1.0" />
  <rect
     style="fill:#ffffff;fill-opacity:1;fill-rule:nonzero;stroke:none"
     width="2"
     height="2"
     x="137.4807"
     y="126.0092"
     transform="rotate(269.1134 137.9807 127.0092)" /> 
  <path
     style="fill:none;stroke:#ae1a38;stroke-width:1px;stroke-linecap:butt;stroke-linejoin:miter;stroke-opacity:1"
     d="m 137.9807,125.0092 2,2 -2,2 m -2.370121,-4 2,2 -2,2"
     transform="rotate(269.1134 137.9807 127.0092)"/>
  <line x1="138.1393" y1="137.2571" x2="170.5557" y2="136.8834" stroke="#480079" stroke-width="1.0" />
  <line x1="137.8221" y1="116.7613" x2="137.3318" y2="96.1567" stroke="#bd2b00" stroke-width="1.0" />
  <rect
     style="fill:#ffffff;fill-opacity:1;fill-rule:nonzero;stroke:none"
     width="2"
     height="2"
     x="137.0770"
     y="105.4590"
     transform="rotate(268.6368 137.5770 106.4590)" /> 
  <path
     style="fill:none;stroke:#bd2b00;stroke-width:1px;stroke-linecap:butt;stroke-linejoin:miter;stroke-opacity:1"
     d="m 137.5770,104.4590 2,2 -2,2 m -2.370121,-4 2,2 -2,2"
     transform="rotate(268.6368 137.5770 106.4590)"/>
  <line x1="137.8503" y1="118.0110" x2="170.1436" y2="117.2833" stroke="#17000d" stroke-width="1.0" />
  <line x1="137.7940" y1="115.5116" x2="170.0873" y2="114.7839" stroke="#17000d" stroke-width="1.0" />
  <line x1="137.8221" y1="116.7613" x2="170.5557" y2="136.8834" stroke="#ac1845" stroke-width="1.0" />
  <rect
     style="fill:#ffffff;stroke:none"
     width="5.5"
     height="2"
     x="151.4389"
     y="125.8224" 
     transform="rotate(31.5800 154.1889 126.8224)"    /> 
  <path
     style="fill:none;stroke:#ac1845;stroke-width:1px;stroke-linecap:butt;stroke-linejoin:miter;stroke-opacity:1"
    d="m 154.9389,124.8224 2,2 -2,2 m -1.5,-4 -2,2 2,2" transform="rotate(31.5800 154.1889 126.8224)"/>
  <line x1="137.3318" y1="96.1567" x2="136.4052" y2="74.7870" stroke="#d45500" stroke-width="1.0" />
  <rect
     style="fill:#ffffff;fill-opacity:1;fill-rule:nonzero;stroke:none"
     width="2"
     height="2"
     x="136.3685"
     y="84.4718"
     transform="rotate(267.5171 136.8685 85.4718)" /> 
  <path
     style="fill:none;stroke:#d45500;stroke-width:1px;stroke-linecap:butt;stroke-linejoin:miter;stroke-opacity:1"
     d="m 136.8685,83.4718 2,2 -2,2 m -2.370121,-4 2,2 -2,2"
     transform="rotate(267.5171 136.8685 85.4718)"/>
  <line x1="137.3318" y1="96.1567" x2="169.5442" y2="95.0857" stroke="#17000d" stroke-width="1.0" />
  <line x1="137.3318" y1="96.1567" x2="170.1155" y2="116.0336" stroke="#bd2b00" stroke-width="1.0" />
  <rect
     style="fill:#ffffff;stroke:none"
     width="5.5"
     height="2"
     x="150.9736"
     y="105.0952" 
     transform="rotate(31.2287 153.7236 106.0952)"    /> 
  <path
     style="fill:none;stroke:#bd2b00;stroke-width:1px;stroke-linecap:butt;stroke-linejoin:miter;stroke-opacity:1"
    d="m 154.4736,104.0952 2,2 -2,2 m -1.5,-4 -2,2 2,2" transform="rotate(31.2287 153.7236 106.0952)"/>
  <line x1="136.4052" y1="74.7870" x2="152.0445" y2="61.2030" stroke="#37004b" stroke-width="1.0" />
  <rect
     style="fill:#ffffff;fill-opacity:1;fill-rule:nonzero;stroke:none"
     width="2"
     height="2"
     x="143.7248"
     y="66.9950"
     transform="rotate(-40.9770 144.2248 67.9950)" /> 
  <path
     style="fill:none;stroke:#37004b;stroke-width:1px;stroke-linecap:butt;stroke-linejoin:miter;stroke-opacity:1"
     d="m 144.2248,65.9950 2,2 -2,2 m -2.370121,-4 2,2 -2,2"
     transform="rotate(-40.9770 144.2248 67.9950)"/>
  <line x1="136.4922" y1="76.3846" x2="168.6510" y2="74.6333" stroke="#6301ce" stroke-width="1.0" />
  <circle cx="156.0716" cy="75.5090" r="2.25" stroke="#6301ce" stroke-width="1.0" fill="#ffffff"
    transform="rotate(-3.1172 152.5716 75.5090)" />
  <path d="M 150.8216 77.7590 L 150.8216 73.2590 L 146.8216 75.5090 z" style="stroke:#6301ce;stroke-width:1.0" fill="#ffffff" 
    transform="rotate(-3.1172 152.5716 75.5090)"/>
  <line x1="136.4052" y1="74.7870" x2="169.5442" y2="95.0857" stroke="#e68800" stroke-width="1.0" />
  <rect
     style="fill:#ffffff;stroke:none"
     width="5.5"
     height="2"
     x="150.2247"
     y="83.9363" 
     transform="rotate(31.4888 152.9747 84.9363)"    /> 
  <path
     style="fill:none;stroke:#e68800;stroke-width:1px;stroke-linecap:butt;stroke-linejoin:miter;stroke-opacity:1"
    d="m 153.7247,82.9363 2,2 -2,2 m -1.5,-4 -2,2 2,2" transform="rotate(31.4888 152.9747 84.9363)"/>
  <line x1="168.5640" y1="73.0357" x2="169.5442" y2="95.0857" stroke="#d85e00" stroke-width="1.0" />
  <rect
     style="fill:#ffffff;stroke:none"
     width="5.5"
     height="2"
     x="166.3041"
     y="83.0607" 
     transform="rotate(87.4548 169.0541 84.0607)"    /> 
  <path
     style="fill:none;stroke:#d85e00;stroke-width:1px;stroke-linecap:butt;stroke-linejoin:miter;stroke-opacity:1"
    d="m 169.8041,82.0607 2,2 -2,2 m -1.5,-4 -2,2 2,2" transform="rotate(87.4548 169.0541 84.0607)"/>
  <line x1="169.5442" y1="95.0857" x2="170.1155" y2="116.0336" stroke="#e17900" stroke-width="1.0" />
  <rect
     style="fill:#ffffff;fill-opacity:1;fill-rule:nonzero;stroke:none"
     width="2"
     height="2"
     x="169.3298"
     y="104.5596"
     transform="rotate(88.4378 169.8298 105.5596)" /> 
  <path
     style="fill:none;stroke:#e17900;stroke-width:1px;stroke-linecap:butt;stroke-linejoin:miter;stroke-opacity:1"
     d="m 169.8298,103.5596 2,2 -2,2 m -2.370121,-4 2,2 -2,2"
     transform="rotate(88.4378 169.8298 105.5596)"/>
  <line x1="170.1155" y1="116.0336" x2="170.5557" y2="136.8834" stroke="#e99400" stroke-width="1.0" />
  <rect
     style="fill:#ffffff;fill-opacity:1;fill-rule:nonzero;stroke:none"
     width="2"
     height="2"
     x="169.8356"
     y="125.4585"
     transform="rotate(88.7903 170.3356 126.4585)" /> 
  <path
     style="fill:none;stroke:#e99400;stroke-width:1px;stroke-linecap:butt;stroke-linejoin:miter;stroke-opacity:1"
     d="m 170.3356,124.4585 2,2 -2,2 m -2.370121,-4 2,2 -2,2"
     transform="rotate(88.7903 170.3356 126.4585)"/>
  <line x1="170.5557" y1="136.8834" x2="170.6799" y2="157.5783" stroke="#b41f06" stroke-width="1.0" />
  <rect
     style="fill:#ffffff;fill-opacity:1;fill-rule:nonzero;stroke:none"
     width="2"
     height="2"
     x="170.1178"
     y="146.2308"
     transform="rotate(89.6564 170.6178 147.2308)" /> 
  <path
     style="fill:none;stroke:#b41f06;stroke-width:1px;stroke-linecap:butt;stroke-linejoin:miter;stroke-opacity:1"
     d="m 170.6178,145.2308 2,2 -2,2 m -2.370121,-4 2,2 -2,2"
     transform="rotate(89.6564 170.6178 147.2308)"/>
  <line x1="170.6799" y1="157.5783" x2="170.5489" y2="178.0678" stroke="#ae1a38" stroke-width="1.0" />
  <rect
     style="fill:#ffffff;fill-opacity:1;fill-rule:nonzero;stroke:none"
     width="2"
     height="2"
     x="170.1144"
     y="166.8230"
     transform="rotate(90.3663 170.6144 167.8230)" /> 
  <path
     style="fill:none;stroke:#ae1a38;stroke-width:1px;stroke-linecap:butt;stroke-linejoin:miter;stroke-opacity:1"
     d="m 170.6144,165.8230 2,2 -2,2 m -2.370121,-4 2,2 -2,2"
     transform="rotate(90.3663 170.6144 167.8230)"/>
  <line x1="170.5489" y1="178.0678" x2="170.1643" y2="198.3655" stroke="#bd2b00" stroke-width="1.0" />
  <rect
     style="fill:#ffffff;fill-opacity:1;fill-rule:nonzero;stroke:none"
     width="2"
     height="2"
     x="169.8566"
     y="187.2166"
     transform="rotate(91.0853 170.3566 188.2166)" /> 
  <path
     style="fill:none;stroke:#bd2b00;stroke-width:1px;stroke-linecap:butt;stroke-linejoin:miter;stroke-opacity:1"
     d="m 170.3566,186.2166 2,2 -2,2 m -2.370121,-4 2,2 -2,2"
     transform="rotate(91.0853 170.3566 188.2166)"/>
  <line x1="169.6853" y1="218.5119" x2="169.1286" y2="238.5764" stroke="#000000" stroke-width="1.0" />
  <rect
     style="fill:#ffffff;fill-opacity:1;fill-rule:nonzero;stroke:none"
     width="2"
     height="2"
     x="168.9070"
     y="227.5442"
     transform="rotate(91.5892 169.4070 228.5442)" /> 
  <path
     style="fill:none;stroke:#000000;stroke-width:1px;stroke-linecap:butt;stroke-linejoin:miter;stroke-opacity:1"
     d="m 169.4070,226.5442 2,2 -2,2 m -2.370121,-4 2,2 -2,2"
     transform="rotate(91.5892 169.4070 228.5442)"/>
  <line x1="169.1286" y1="238.5764" x2="168.6048" y2="258.5967" stroke="#c43500" stroke-width="1.0" />
  <rect
     style="fill:#ffffff;fill-opacity:1;fill-rule:nonzero;stroke:none"
     width="2"
     height="2"
     x="168.3667"
     y="247.5865"
     transform="rotate(91.4989 168.8667 248.5865)" /> 
  <path
     style="fill:none;stroke:#c43500;stroke-width:1px;stroke-linecap:butt;stroke-linejoin:miter;stroke-opacity:1"
     d="m 168.8667,246.5865 2,2 -2,2 m -2.370121,-4 2,2 -2,2"
     transform="rotate(91.4989 168.8667 248.5865)"/>
<circle cx="136.1014" cy="257.9401" r="5.0" stroke="#595959" stroke-width="1.0" fill="#ffffff"/>
<text x="136.1014" y="260.6401" text-anchor="middle" font-family="Helvetica" font-size="7.5" fill="#000000" >G</text>
<circle cx="136.6429" cy="237.9378" r="5.0" stroke="#595959" stroke-width="1.0" fill="#ffffff"/>
<text x="136.6429" y="240.6378" text-anchor="middle" font-family="Helvetica" font-size="7.5" fill="#000000" >G</text>
<circle cx="137.1907" cy="217.9187" r="5.0" stroke="#595959" stroke-width="1.0" fill="#ffffff"/>
<text x="137.1907" y="220.6187" text-anchor="middle" font-family="Helvetica" font-size="7.5" fill="#000000" >C</text>
<circle cx="137.6952" cy="197.8647" r="5.0" stroke="#595959" stroke-width="1.0" fill="#ffffff"/>
<text x="137.6952" y="200.5647" text-anchor="middle" font-family="Helvetica" font-size="7.5" fill="#000000" >A</text>
<circle cx="138.0688" cy="177.7672" r="5.0" stroke="#595959" stroke-width="1.0" fill="#ffffff"/>
<text x="138.0688" y="180.4672" text-anchor="middle" font-family="Helvetica" font-size="7.5" fill="#000000" >G</text>
<circle cx="138.2273" cy="157.5797" r="5.0" stroke="#595959" stroke-width="1.0" fill="#ffffff"/>
<text x="138.2273" y="160.2797" text-anchor="middle" font-family="Helvetica" font-size="7.5" fill="#000000" >A</text>
<circle cx="138.1393" cy="137.2571" r="5.0" stroke="#595959" stroke-width="1.0" fill="#ffffff"/>
<text x="138.1393" y="139.9571" text-anchor="middle" font-family="Helvetica" font-size="7.5" fill="#000000" >U</text>
<circle cx="137.8221" cy="116.7613" r="5.0" stroke="#595959" stroke-width="1.0" fill="#ffffff"/>
<text x="137.8221" y="119.4613" text-anchor="middle" font-family="Helvetica" font-size="7.5" fill="#000000" >C</text>
<circle cx="137.3318" cy="96.1567" r="5.0" stroke="#595959" stroke-width="1.0" fill="#ffffff"/>
<text x="137.3318" y="98.8567" text-anchor="middle" font-family="Helvetica" font-size="7.5" fill="#000000" >U</text>
<circle cx="136.4052" cy="74.7870" r="5.0" stroke="#595959" stroke-width="1.0" fill="#ffffff"/>
<text x="136.4052" y="77.4870" text-anchor="middle" font-family="Helvetica" font-size="7.5" fill="#000000" >G</text>
<circle cx="133.1234" cy="54.8860" r="5.0" stroke="#595959" stroke-width="1.0" fill="#ffffff"/>
<text x="133.1234" y="57.5860" text-anchor="middle" font-family="Helvetica" font-size="7.5" fill="#000000" >U</text>
<circle cx="152.0445" cy="61.2030" r="5.0" stroke="#595959" stroke-width="1.0" fill="#ffffff"/>
<text x="152.0445" y="63.9030" text-anchor="middle" font-family="Helvetica" font-size="7.5" fill="#000000" >A</text>
<circle cx="168.5640" cy="73.0357" r="5.0" stroke="#595959" stroke-width="1.0" fill="#ffffff"/>
<text x="168.5640" y="75.7357" text-anchor="middle" font-family="Helvetica" font-size="7.5" fill="#000000" >A</text>
<circle cx="185.6163" cy="83.2058" r="5.0" stroke="#595959" stroke-width="1.0" fill="#ffffff"/>
<text x="185.6163" y="85.9058" text-anchor="middle" font-family="Helvetica" font-size="7.5" fill="#000000" >U</text>
<circle cx="169.5442" cy="95.0857" r="5.0" stroke="#595959" stroke-width="1.0" fill="#ffffff"/>
<text x="169.5442" y="97.7857" text-anchor="middle" font-family="Helvetica" font-size="7.5" fill="#000000" >A</text>
<circle cx="170.1155" cy="116.0336" r="5.0" stroke="#595959" stroke-width="1.0" fill="#ffffff"/>
<text x="170.1155" y="118.7336" text-anchor="middle" font-family="Helvetica" font-size="7.5" fill="#000000" >G</text>
<circle cx="170.5557" cy="136.8834" r="5.0" stroke="#595959" stroke-width="1.0" fill="#ffffff"/>
<text x="170.5557" y="139.5834" text-anchor="middle" font-family="Helvetica" font-size="7.5" fill="#000000" >A</text>
<circle cx="170.6799" cy="157.5783" r="5.0" stroke="#595959" stroke-width="1.0" fill="#ffffff"/>
<text x="170.6799" y="160.2783" text-anchor="middle" font-family="Helvetica" font-size="7.5" fill="#000000" >A</text>
<circle cx="170.5489" cy="178.0678" r="5.0" stroke="#595959" stroke-width="1.0" fill="#ffffff"/>
<text x="170.5489" y="180.7678" text-anchor="middle" font-family="Helvetica" font-size="7.5" fill="#000000" >C</text>
<circle cx="170.1643" cy="198.3655" r="5.0" stroke="#595959" stroke-width="1.0" fill="#ffffff"/>
<text x="170.1643" y="201.0655" text-anchor="middle" font-family="Helvetica" font-size="7.5" fill="#000000" >U</text>
<circle cx="169.6853" cy="218.5119" r="5.0" stroke="#595959" stroke-width="1.0" fill="#ffffff"/>
<text x="169.6853" y="221.2119" text-anchor="middle" font-family="Helvetica" font-size="7.5" fill="#000000" >G</text>
<circle cx="169.1286" cy="238.5764" r="5.0" stroke="#595959" stroke-width="1.0" fill="#ffffff"/>
<text x="169.1286" y="241.2764" text-anchor="middle" font-family="Helvetica" font-size="7.5" fill="#000000" >C</text>
<circle cx="168.6048" cy="258.5967" r="5.0" stroke="#595959" stroke-width="1.0" fill="#ffffff"/>
<text x="168.6048" y="261.2967" text-anchor="middle" font-family="Helvetica" font-size="7.5" fill="#000000" >C</text>
</svg>