<?xml version="1.0" encoding="UTF-8"?>
<!DOCTYPE svg PUBLIC "-//W3C//DTD SVG 1.1//EN" 
"http://www.w3.org/Graphics/SVG/1.1/DTD/svg11.dtd">

<svg version="1.1"
   width="182px"
   height="182px"
xmlns="http://www.w3.org/2000/svg">
    <rect width="100%" height="100%" fill="white"/>

  <line x1="73.8272" y1="110.3898" x2="74.0073" y2="90.4291" stroke="#595959"
     style="stroke-width:2;stroke-miterlimit:4;stroke-dasharray:1,1;stroke-dashoffset:0" />
  <line x1="73.8477" y1="70.4814" x2="73.1680" y2="50.5559" stroke="#595959"
     style="stroke-width:2;stroke-miterlimit:4;stroke-dasharray:1,1;stroke-dashoffset:0" />
  <line x1="83.0414" y1="33.2101" x2="102.9899" y2="34.2159" stroke="#595959"
     style="stroke-width:2;stroke-miterlimit:4;stroke-dasharray:1,1;stroke-dashoffset:0" />
  <line x1="113.2724" y1="51.3457" x2="106.7694" y2="70.2866" stroke="#595959"
     style="stroke-width:2;stroke-miterlimit:4;stroke-dasharray:1,1;stroke-dashoffset:0" />
  <line x1="106.8790" y1="90.4465" x2="106.7899" y2="110.5821" stroke="#595959"
     style="stroke-width:2;stroke-miterlimit:4;stroke-dasharray:1,1;stroke-dashoffset:0" />
  <line x1="73.2267" y1="150.3506" x2="73.5754" y2="130.3651" stroke="#d24f00" stroke-width="1.0" />
  <rect
     style="fill:#ffffff;fill-opacity:1;fill-rule:nonzero;stroke:none"
     width="2"
     height="2"
     x="72.9010"
     y="139.3578"
     transform="rotate(-89.0004 73.4010 140.3578)" /> 
  <path
     style="fill:none;stroke:#d24f00;stroke-width:1px;stroke-linecap:butt;stroke-linejoin:miter;stroke-opacity:1"
     d="m 73.4010,138.3578 2,2 -2,2 m -2.370121,-4 2,2 -2,2"
     transform="rotate(-89.0004 73.4010 140.3578)"/>
  <line x1="73.2140" y1="151.6005" x2="106.1121" y2="151.9334" stroke="#37004b" stroke-width="1.0" />
  <line x1="73.2393" y1="149.1006" x2="106.1374" y2="149.4336" stroke="#37004b" stroke-width="1.0" />
  <line x1="73.5754" y1="130.3651" x2="73.8272" y2="110.3898" stroke="#000000" stroke-width="1.0" />
  <rect
     style="fill:#ffffff;fill-opacity:1;fill-rule:nonzero;stroke:none"
     width="2"
     height="2"
     x="73.2013"
     y="119.3775"
     transform="rotate(-89.2777 73.7013 120.3775)" /> 
  <path
     style="fill:none;stroke:#000000;stroke-width:1px;stroke-linecap:butt;stroke-linejoin:miter;stroke-opacity:1"
     d="m 73.7013,118.3775 2,2 -2,2 m -2.370121,-4 2,2 -2,2"
     transform="rotate(-89.2777 73.7013 120.3775)"/>
  <line x1="73.5643" y1="131.6151" x2="106.4698" y2="131.9077" stroke="#2d0032" stroke-width="1.0" />
  <line x1="73.5865" y1="129.1152" x2="106.4920" y2="129.4078" stroke="#2d0032" stroke-width="1.0" />
  <line x1="73.5754" y1="130.3651" x2="106.1248" y2="150.6835" stroke="#eb9d00" stroke-width="1.0" />
  <rect
     style="fill:#ffffff;stroke:none"
     width="5.5"
     height="2"
     x="87.1001"
     y="139.5243" 
     transform="rotate(31.9737 89.8501 140.5243)"    /> 
  <path
     style="fill:none;stroke:#eb9d00;stroke-width:1px;stroke-linecap:butt;stroke-linejoin:miter;stroke-opacity:1"
    d="m 90.6001,138.5243 2,2 -2,2 m -1.5,-4 -2,2 2,2" transform="rotate(31.9737 89.8501 140.5243)"/>
  <line x1="73.8199" y1="111.6398" x2="106.7827" y2="111.8320" stroke="#270026" stroke-width="1.0" />
  <line x1="73.8345" y1="109.1398" x2="106.7972" y2="109.3321" stroke="#270026" stroke-width="1.0" />
  <line x1="74.0073" y1="90.4291" x2="73.8477" y2="70.4814" stroke="#000000" stroke-width="1.0" />
  <rect
     style="fill:#ffffff;fill-opacity:1;fill-rule:nonzero;stroke:none"
     width="2"
     height="2"
     x="73.4275"
     y="79.4552"
     transform="rotate(269.5417 73.9275 80.4552)" /> 
  <path
     style="fill:none;stroke:#000000;stroke-width:1px;stroke-linecap:butt;stroke-linejoin:miter;stroke-opacity:1"
     d="m 73.9275,78.4552 2,2 -2,2 m -2.370121,-4 2,2 -2,2"
     transform="rotate(269.5417 73.9275 80.4552)"/>
  <line x1="74.0066" y1="91.6791" x2="106.8783" y2="91.6965" stroke="#400062" stroke-width="1.0" />
  <line x1="74.0080" y1="89.1791" x2="106.8796" y2="89.1965" stroke="#400062" stroke-width="1.0" />
  <line x1="74.0073" y1="90.4291" x2="106.7899" y2="110.5821" stroke="#17000d" stroke-width="1.0" />
  <rect
     style="fill:#ffffff;stroke:none"
     width="5.5"
     height="2"
     x="87.6486"
     y="99.5056" 
     transform="rotate(31.5809 90.3986 100.5056)"    /> 
  <path
     style="fill:none;stroke:#17000d;stroke-width:1px;stroke-linecap:butt;stroke-linejoin:miter;stroke-opacity:1"
    d="m 91.1486,98.5056 2,2 -2,2 m -1.5,-4 -2,2 2,2" transform="rotate(31.5809 90.3986 100.5056)"/>
  <line x1="73.8551" y1="71.7314" x2="106.7768" y2="71.5366" stroke="#2d0032" stroke-width="1.0" />
  <line x1="73.8403" y1="69.2314" x2="106.7620" y2="69.0366" stroke="#2d0032" stroke-width="1.0" />
  <line x1="73.1680" y1="50.5559" x2="83.0414" y2="33.2101" stroke="#200019" stroke-width="1.0" />
  <rect
     style="fill:#ffffff;fill-opacity:1;fill-rule:nonzero;stroke:none"
     width="2"
     height="2"
     x="77.6047"
     y="40.8830"
     transform="rotate(-60.3509 78.1047 41.8830)" /> 
  <path
     style="fill:none;stroke:#200019;stroke-width:1px;stroke-linecap:butt;stroke-linejoin:miter;stroke-opacity:1"
     d="m 78.1047,39.8830 2,2 -2,2 m -2.370121,-4 2,2 -2,2"
     transform="rotate(-60.3509 78.1047 41.8830)"/>
  <line x1="73.1680" y1="50.5559" x2="106.7694" y2="70.2866" stroke="#a0109e" stroke-width="1.0" />
  <rect
     style="fill:#ffffff;stroke:none"
     width="5.5"
     height="2"
     x="87.2187"
     y="59.4212" 
     transform="rotate(30.4214 89.9687 60.4212)"    /> 
  <path
     style="fill:none;stroke:#a0109e;stroke-width:1px;stroke-linecap:butt;stroke-linejoin:miter;stroke-opacity:1"
    d="m 90.7187,58.4212 2,2 -2,2 m -1.5,-4 -2,2 2,2" transform="rotate(30.4214 89.9687 60.4212)"/>
  <line x1="102.9899" y1="34.2159" x2="113.2724" y2="51.3457" stroke="#bd2b00" stroke-width="1.0" />
  <rect
     style="fill:#ffffff;fill-opacity:1;fill-rule:nonzero;stroke:none"
     width="2"
     height="2"
     x="107.1312"
     y="41.7808" 
     transform="rotate(59.0249 108.1312 42.7808)" /> 
  <path
     style="fill:none;stroke:#bd2b00;stroke-width:1px;stroke-linecap:butt;stroke-linejoin:miter;stroke-opacity:1"
     d="m 111.1312,40.7808 -2,2 2,2 m -6,-4 2,2 -2,2"
     transform="rotate(59.0249 108.1312 42.7808)"/>
  <line x1="106.7694" y1="70.2866" x2="106.8790" y2="90.4465" stroke="#000000" stroke-width="1.0" />
  <rect
     style="fill:#ffffff;fill-opacity:1;fill-rule:nonzero;stroke:none"
     width="2"
     height="2"
     x="106.3242"
     y="79.3665"
     transform="rotate(89.6887 106.8242 80.3665)" /> 
  <path
     style="fill:none;stroke:#000000;stroke-width:1px;stroke-linecap:butt;stroke-linejoin:miter;stroke-opacity:1"
     d="m 106.8242,78.3665 2,2 -2,2 m -2.370121,-4 2,2 -2,2"
     transform="rotate(89.6887 106.8242 80.3665)"/>
  <line x1="106.7899" y1="110.5821" x2="106.4809" y2="130.6578" stroke="#000000" stroke-width="1.0" />
  <rect
     style="fill:#ffffff;fill-opacity:1;fill-rule:nonzero;stroke:none"
     width="2"
     height="2"
     x="106.1354"
     y="119.6199"
     transform="rotate(90.8820 106.6354 120.6199)" /> 
  <path
     style="fill:none;stroke:#000000;stroke-width:1px;stroke-linecap:butt;stroke-linejoin:miter;stroke-opacity:1"
     d="m 106.6354,118.6199 2,2 -2,2 m -2.370121,-4 2,2 -2,2"
     transform="rotate(90.8820 106.6354 120.6199)"/>
  <line x1="106.4809" y1="130.6578" x2="106.1248" y2="150.6835" stroke="#a0109e" stroke-width="1.0" />
  <rect
     style="fill:#ffffff;fill-opacity:1;fill-rule:nonzero;stroke:none"
     width="2"
     height="2"
     x="105.8028"
     y="139.6706"
     transform="rotate(91.0187 106.3028 140.6706)" /> 
  <path
     style="fill:none;stroke:#a0109e;stroke-width:1px;stroke-linecap:butt;stroke-linejoin:miter;stroke-opacity:1"
     d="m 106.3028,138.6706 2,2 -2,2 m -2.370121,-4 2,2 -2,2"
     transform="rotate(91.0187 106.3028 140.6706)"/>
<circle cx="73.2267" cy="150.3506" r="5.0" stroke="#595959" stroke-width="1.0" fill="#ffffff"/>
<text x="73.2267" y="153.0506" text-anchor="middle" font-family="Helvetica" font-size="7.5" fill="#000000" >G</text>
<circle cx="73.5754" cy="130.3651" r="5.0" stroke="#595959" stroke-width="1.0" fill="#ffffff"/>
<text x="73.5754" y="133.0651" text-anchor="middle" font-family="Helvetica" font-size="7.5" fill="#000000" >G</text>
<circle cx="73.8272" cy="110.3898" r="5.0" stroke="#595959" stroke-width="1.0" fill="#ffffff"/>
<text x="73.8272" y="113.0898" text-anchor="middle" font-family="Helvetica" font-size="7.5" fill="#000000" >C</text>
<circle cx="74.0073" cy="90.4291" r="5.0" stroke="#595959" stroke-width="1.0" fill="#ffffff"/>
<text x="74.0073" y="93.1291" text-anchor="middle" font-family="Helvetica" font-size="7.5" fill="#000000" >G</text>
<circle cx="73.8477" cy="70.4814" r="5.0" stroke="#595959" stroke-width="1.0" fill="#ffffff"/>
<text x="73.8477" y="73.1814" text-anchor="middle" font-family="Helvetica" font-size="7.5" fill="#000000" >C</text>
<circle cx="73.1680" cy="50.5559" r="5.0" stroke="#595959" stroke-width="1.0" fill="#ffffff"/>
<text x="73.1680" y="53.2559" text-anchor="middle" font-family="Helvetica" font-size="7.5" fill="#000000" >A</text>
<circle cx="83.0414" cy="33.2101" r="5.0" stroke="#595959" stroke-width="1.0" fill="#ffffff"/>
<text x="83.0414" y="35.9101" text-anchor="middle" font-family="Helvetica" font-size="7.5" fill="#000000" >U</text>
<circle cx="102.9899" cy="34.2159" r="5.0" stroke="#595959" stroke-width="1.0" fill="#ffffff"/>
<text x="102.9899" y="36.9159" text-anchor="middle" font-family="Helvetica" font-size="7.5" fill="#000000" >C</text>
<circle cx="113.2724" cy="51.3457" r="5.0" stroke="#595959" stroke-width="1.0" fill="#ffffff"/>
<text x="113.2724" y="54.0457" text-anchor="middle" font-family="Helvetica" font-size="7.5" fill="#000000" >G</text>
<circle cx="106.7694" cy="70.2866" r="5.0" stroke="#595959" stroke-width="1.0" fill="#ffffff"/>
<text x="106.7694" y="72.9866" text-anchor="middle" font-family="Helvetica" font-size="7.5" fill="#000000" >G</text>
<circle cx="106.8790" cy="90.4465" r="5.0" stroke="#595959" stroke-width="1.0" fill="#ffffff"/>
<text x="106.8790" y="93.1465" text-anchor="middle" font-family="Helvetica" font-size="7.5" fill="#000000" >C</text>
<circle cx="106.7899" cy="110.5821" r="5.0" stroke="#595959" stroke-width="1.0" fill="#ffffff"/>
<text x="106.7899" y="113.2821" text-anchor="middle" font-family="Helvetica" font-size="7.5" fill="#000000" >G</text>
<circle cx="106.4809" cy="130.6578" r="5.0" stroke="#595959" stroke-width="1.0" fill="#ffffff"/>
<text x="106.4809" y="133.3578" text-anchor="middle" font-family="Helvetica" font-size="7.5" fill="#000000" >C</text>
<circle cx="106.1248" cy="150.6835" r="5.0" stroke="#595959" stroke-width="1.0" fill="#ffffff"/>
<text x="106.1248" y="153.3835" text-anchor="middle" font-family="Helvetica" font-size="7.5" fill="#000000" >C</text>
</svg>