<?xml version="1.0" encoding="UTF-8"?>
<!DOCTYPE svg PUBLIC "-//W3C//DTD SVG 1.1//EN" 
"http://www.w3.org/Graphics/SVG/1.1/DTD/svg11.dtd">

<svg version="1.1"
   width="182px"
   height="182px"
xmlns="http://www.w3.org/2000/svg">
    <rect width="100%" height="100%" fill="white"/>

  <line x1="73.8189" y1="110.3759" x2="73.9781" y2="90.4191" stroke="#595959"
     style="stroke-width:2;stroke-miterlimit:4;stroke-dasharray:1,1;stroke-dashoffset:0" />
  <line x1="73.8418" y1="70.4738" x2="73.2075" y2="50.5493" stroke="#595959"
     style="stroke-width:2;stroke-miterlimit:4;stroke-dasharray:1,1;stroke-dashoffset:0" />
  <line x1="83.1180" y1="33.2252" x2="103.0628" y2="34.2970" stroke="#595959"
     style="stroke-width:2;stroke-miterlimit:4;stroke-dasharray:1,1;stroke-dashoffset:0" />
  <line x1="103.0628" y1="34.2970" x2="113.3961" y2="51.3952" stroke="#595959"
     style="stroke-width:2;stroke-miterlimit:4;stroke-dasharray:1,1;stroke-dashoffset:0" />
  <line x1="113.3961" y1="51.3952" x2="106.7327" y2="70.2766" stroke="#595959"
     style="stroke-width:2;stroke-miterlimit:4;stroke-dasharray:1,1;stroke-dashoffset:0" />
  <line x1="106.8412" y1="90.4358" x2="106.7556" y2="110.5696" stroke="#595959"
     style="stroke-width:2;stroke-miterlimit:4;stroke-dasharray:1,1;stroke-dashoffset:0" />
  <line x1="73.1575" y1="150.3374" x2="73.5128" y2="130.3437" stroke="#eda600" stroke-width="1.0" />
  <rect
     style="fill:#ffffff;fill-opacity:1;fill-rule:nonzero;stroke:none"
     width="2"
     height="2"
     x="72.8352"
     y="139.3406"
     transform="rotate(-88.9819 73.3352 140.3406)" /> 
  <path
     style="fill:none;stroke:#eda600;stroke-width:1px;stroke-linecap:butt;stroke-linejoin:miter;stroke-opacity:1"
     d="m 73.3352,138.3406 2,2 -2,2 m -2.370121,-4 2,2 -2,2"
     transform="rotate(-88.9819 73.3352 140.3406)"/>
  <line x1="73.1453" y1="151.5874" x2="106.0897" y2="151.9095" stroke="#000000" stroke-width="1.0" />
  <line x1="73.1697" y1="149.0875" x2="106.1141" y2="149.4097" stroke="#000000" stroke-width="1.0" />
  <line x1="73.5128" y1="130.3437" x2="73.8189" y2="110.3759" stroke="#000000" stroke-width="1.0" />
  <rect
     style="fill:#ffffff;fill-opacity:1;fill-rule:nonzero;stroke:none"
     width="2"
     height="2"
     x="73.1659"
     y="119.3598"
     transform="rotate(-89.1218 73.6659 120.3598)" /> 
  <path
     style="fill:none;stroke:#000000;stroke-width:1px;stroke-linecap:butt;stroke-linejoin:miter;stroke-opacity:1"
     d="m 73.6659,118.3598 2,2 -2,2 m -2.370121,-4 2,2 -2,2"
     transform="rotate(-89.1218 73.6659 120.3598)"/>
  <line x1="73.5015" y1="131.5937" x2="106.4635" y2="131.8917" stroke="#000000" stroke-width="1.0" />
  <line x1="73.5241" y1="129.0938" x2="106.4861" y2="129.3918" stroke="#000000" stroke-width="1.0" />
  <line x1="73.5128" y1="130.3437" x2="106.1019" y2="150.6596" stroke="#b52100" stroke-width="1.0" />
  <rect
     style="fill:#ffffff;stroke:none"
     width="5.5"
     height="2"
     x="87.0574"
     y="139.5017" 
     transform="rotate(31.9392 89.8074 140.5017)"    /> 
  <path
     style="fill:none;stroke:#b52100;stroke-width:1px;stroke-linecap:butt;stroke-linejoin:miter;stroke-opacity:1"
    d="m 90.5574,138.5017 2,2 -2,2 m -1.5,-4 -2,2 2,2" transform="rotate(31.9392 89.8074 140.5017)"/>
  <line x1="73.8116" y1="111.6259" x2="106.7483" y2="111.8196" stroke="#000000" stroke-width="1.0" />
  <line x1="73.8263" y1="109.1259" x2="106.7630" y2="109.3197" stroke="#000000" stroke-width="1.0" />
  <line x1="73.9781" y1="90.4191" x2="73.8418" y2="70.4738" stroke="#000000" stroke-width="1.0" />
  <rect
     style="fill:#ffffff;fill-opacity:1;fill-rule:nonzero;stroke:none"
     width="2"
     height="2"
     x="73.4100"
     y="79.4465"
     transform="rotate(269.6085 73.9100 80.4465)" /> 
  <path
     style="fill:none;stroke:#000000;stroke-width:1px;stroke-linecap:butt;stroke-linejoin:miter;stroke-opacity:1"
     d="m 73.9100,78.4465 2,2 -2,2 m -2.370121,-4 2,2 -2,2"
     transform="rotate(269.6085 73.9100 80.4465)"/>
  <line x1="73.9775" y1="91.6691" x2="106.8406" y2="91.6858" stroke="#000000" stroke-width="1.0" />
  <line x1="73.9788" y1="89.1691" x2="106.8419" y2="89.1858" stroke="#000000" stroke-width="1.0" />
  <line x1="73.9781" y1="90.4191" x2="106.7556" y2="110.5696" stroke="#000000" stroke-width="1.0" />
  <rect
     style="fill:#ffffff;stroke:none"
     width="5.5"
     height="2"
     x="87.6169"
     y="99.4944" 
     transform="rotate(31.5818 90.3669 100.4944)"    /> 
  <path
     style="fill:none;stroke:#000000;stroke-width:1px;stroke-linecap:butt;stroke-linejoin:miter;stroke-opacity:1"
    d="m 91.1169,98.4944 2,2 -2,2 m -1.5,-4 -2,2 2,2" transform="rotate(31.5818 90.3669 100.4944)"/>
  <line x1="73.8493" y1="71.7238" x2="106.7402" y2="71.5265" stroke="#17000d" stroke-width="1.0" />
  <line x1="73.8343" y1="69.2239" x2="106.7252" y2="69.0266" stroke="#17000d" stroke-width="1.0" />
  <line x1="73.2075" y1="50.5493" x2="83.1180" y2="33.2252" stroke="#000000" stroke-width="1.0" />
  <rect
     style="fill:#ffffff;fill-opacity:1;fill-rule:nonzero;stroke:none"
     width="2"
     height="2"
     x="77.6628"
     y="40.8872"
     transform="rotate(-60.2276 78.1628 41.8872)" /> 
  <path
     style="fill:none;stroke:#000000;stroke-width:1px;stroke-linecap:butt;stroke-linejoin:miter;stroke-opacity:1"
     d="m 78.1628,39.8872 2,2 -2,2 m -2.370121,-4 2,2 -2,2"
     transform="rotate(-60.2276 78.1628 41.8872)"/>
  <line x1="73.2075" y1="50.5493" x2="106.7327" y2="70.2766" stroke="#980bca" stroke-width="1.0" />
  <rect
     style="fill:#ffffff;stroke:none"
     width="5.5"
     height="2"
     x="87.2201"
     y="59.4129" 
     transform="rotate(30.4739 89.9701 60.4129)"    /> 
  <path
     style="fill:none;stroke:#980bca;stroke-width:1px;stroke-linecap:butt;stroke-linejoin:miter;stroke-opacity:1"
    d="m 90.7201,58.4129 2,2 -2,2 m -1.5,-4 -2,2 2,2" transform="rotate(30.4739 89.9701 60.4129)"/>
  <line x1="106.7327" y1="70.2766" x2="106.8412" y2="90.4358" stroke="#000000" stroke-width="1.0" />
  <rect
     style="fill:#ffffff;fill-opacity:1;fill-rule:nonzero;stroke:none"
     width="2"
     height="2"
     x="106.2870"
     y="79.3562"
     transform="rotate(89.6916 106.7870 80.3562)" /> 
  <path
     style="fill:none;stroke:#000000;stroke-width:1px;stroke-linecap:butt;stroke-linejoin:miter;stroke-opacity:1"
     d="m 106.7870,78.3562 2,2 -2,2 m -2.370121,-4 2,2 -2,2"
     transform="rotate(89.6916 106.7870 80.3562)"/>
  <line x1="106.7556" y1="110.5696" x2="106.4748" y2="130.6417" stroke="#000000" stroke-width="1.0" />
  <rect
     style="fill:#ffffff;fill-opacity:1;fill-rule:nonzero;stroke:none"
     width="2"
     height="2"
     x="106.1152"
     y="119.6057"
     transform="rotate(90.8016 106.6152 120.6057)" /> 
  <path
     style="fill:none;stroke:#000000;stroke-width:1px;stroke-linecap:butt;stroke-linejoin:miter;stroke-opacity:1"
     d="m 106.6152,118.6057 2,2 -2,2 m -2.370121,-4 2,2 -2,2"
     transform="rotate(90.8016 106.6152 120.6057)"/>
  <line x1="106.4748" y1="130.6417" x2="106.1019" y2="150.6596" stroke="#c83b00" stroke-width="1.0" />
  <rect
     style="fill:#ffffff;fill-opacity:1;fill-rule:nonzero;stroke:none"
     width="2"
     height="2"
     x="105.7884"
     y="139.6507"
     transform="rotate(91.0672 106.2884 140.6507)" /> 
  <path
     style="fill:none;stroke:#c83b00;stroke-width:1px;stroke-linecap:butt;stroke-linejoin:miter;stroke-opacity:1"
     d="m 106.2884,138.6507 2,2 -2,2 m -2.370121,-4 2,2 -2,2"
     transform="rotate(91.0672 106.2884 140.6507)"/>
<circle cx="73.1575" cy="150.3374" r="5.0" stroke="#595959" stroke-width="1.0" fill="#ffffff"/>
<text x="73.1575" y="153.0374" text-anchor="middle" font-family="Helvetica" font-size="7.5" fill="#000000" >G</text>
<circle cx="73.5128" cy="130.3437" r="5.0" stroke="#595959" stroke-width="1.0" fill="#ffffff"/>
<text x="73.5128" y="133.0437" text-anchor="middle" font-family="Helvetica" font-size="7.5" fill="#000000" >G</text>
<circle cx="73.8189" cy="110.3759" r="5.0" stroke="#595959" stroke-width="1.0" fill="#ffffff"/>
<text x="73.8189" y="113.0759" text-anchor="middle" font-family="Helvetica" font-size="7.5" fill="#000000" >C</text>
<circle cx="73.9781" cy="90.4191" r="5.0" stroke="#595959" stroke-width="1.0" fill="#ffffff"/>
<text x="73.9781" y="93.1191" text-anchor="middle" font-family="Helvetica" font-size="7.5" fill="#000000" >G</text>
<circle cx="73.8418" cy="70.4738" r="5.0" stroke="#595959" stroke-width="1.0" fill="#ffffff"/>
<text x="73.8418" y="73.1738" text-anchor="middle" font-family="Helvetica" font-size="7.5" fill="#000000" >C</text>
<circle cx="73.2075" cy="50.5493" r="5.0" stroke="#595959" stroke-width="1.0" fill="#ffffff"/>
<text x="73.2075" y="53.2493" text-anchor="middle" font-family="Helvetica" font-size="7.5" fill="#000000" >A</text>
<circle cx="83.1180" cy="33.2252" r="5.0" stroke="#595959" stroke-width="1.0" fill="#ffffff"/>
<text x="83.1180" y="35.9252" text-anchor="middle" font-family="Helvetica" font-size="7.5" fill="#000000" >U</text>
<circle cx="103.0628" cy="34.2970" r="5.0" stroke="#595959" stroke-width="1.0" fill="#ffffff"/>
<text x="103.0628" y="36.9970" text-anchor="middle" font-family="Helvetica" font-size="7.5" fill="#000000" >C</text>
<circle cx="113.3961" cy="51.3952" r="5.0" stroke="#595959" stroke-width="1.0" fill="#ffffff"/>
<text x="113.3961" y="54.0952" text-anchor="middle" font-family="Helvetica" font-size="7.5" fill="#000000" >G</text>
<circle cx="106.7327" cy="70.2766" r="5.0" stroke="#595959" stroke-width="1.0" fill="#ffffff"/>
<text x="106.7327" y="72.9766" text-anchor="middle" font-family="Helvetica" font-size="7.5" fill="#000000" >G</text>
<circle cx="106.8412" cy="90.4358" r="5.0" stroke="#595959" stroke-width="1.0" fill="#ffffff"/>
<text x="106.8412" y="93.1358" text-anchor="middle" font-family="Helvetica" font-size="7.5" fill="#000000" >C</text>
<circle cx="106.7556" cy="110.5696" r="5.0" stroke="#595959" stroke-width="1.0" fill="#ffffff"/>
<text x="106.7556" y="113.2696" text-anchor="middle" font-family="Helvetica" font-size="7.5" fill="#000000" >G</text>
<circle cx="106.4748" cy="130.6417" r="5.0" stroke="#595959" stroke-width="1.0" fill="#ffffff"/>
<text x="106.4748" y="133.3417" text-anchor="middle" font-family="Helvetica" font-size="7.5" fill="#000000" >C</text>
<circle cx="106.1019" cy="150.6596" r="5.0" stroke="#595959" stroke-width="1.0" fill="#ffffff"/>
<text x="106.1019" y="153.3596" text-anchor="middle" font-family="Helvetica" font-size="7.5" fill="#000000" >C</text>
</svg>