<?xml version="1.0" encoding="UTF-8"?>
<!DOCTYPE svg PUBLIC "-//W3C//DTD SVG 1.1//EN" 
"http://www.w3.org/Graphics/SVG/1.1/DTD/svg11.dtd">

<svg version="1.1"
   width="182px"
   height="182px"
xmlns="http://www.w3.org/2000/svg">
    <rect width="100%" height="100%" fill="white"/>

  <line x1="73.9985" y1="109.0957" x2="74.1547" y2="88.9634" stroke="#595959"
     style="stroke-width:2;stroke-miterlimit:4;stroke-dasharray:1,1;stroke-dashoffset:0" />
  <line x1="73.9609" y1="68.8234" x2="69.5599" y2="49.3232" stroke="#595959"
     style="stroke-width:2;stroke-miterlimit:4;stroke-dasharray:1,1;stroke-dashoffset:0" />
  <line x1="83.3101" y1="34.8658" x2="100.2600" y2="45.5634" stroke="#595959"
     style="stroke-width:2;stroke-miterlimit:4;stroke-dasharray:1,1;stroke-dashoffset:0" />
  <line x1="100.2600" y1="45.5634" x2="118.9146" y2="52.5158" stroke="#595959"
     style="stroke-width:2;stroke-miterlimit:4;stroke-dasharray:1,1;stroke-dashoffset:0" />
  <line x1="118.9146" y1="52.5158" x2="106.8723" y2="68.4639" stroke="#595959"
     style="stroke-width:2;stroke-miterlimit:4;stroke-dasharray:1,1;stroke-dashoffset:0" />
  <line x1="106.9277" y1="88.9651" x2="106.8347" y2="109.4012" stroke="#595959"
     style="stroke-width:2;stroke-miterlimit:4;stroke-dasharray:1,1;stroke-dashoffset:0" />
  <line x1="73.1251" y1="149.2654" x2="73.6243" y2="129.2041" stroke="#cd4500" stroke-width="1.0" />
  <rect
     style="fill:#ffffff;fill-opacity:1;fill-rule:nonzero;stroke:none"
     width="2"
     height="2"
     x="72.8747"
     y="138.2347"
     transform="rotate(-88.5747 73.3747 139.2347)" /> 
  <path
     style="fill:none;stroke:#cd4500;stroke-width:1px;stroke-linecap:butt;stroke-linejoin:miter;stroke-opacity:1"
     d="m 73.3747,137.2347 2,2 -2,2 m -2.370121,-4 2,2 -2,2"
     transform="rotate(-88.5747 73.3747 139.2347)"/>
  <line x1="73.1030" y1="150.5152" x2="105.9753" y2="151.0978" stroke="#5d01be" stroke-width="1.0" />
  <line x1="73.1473" y1="148.0156" x2="106.0196" y2="148.5982" stroke="#5d01be" stroke-width="1.0" />
  <line x1="73.6243" y1="129.2041" x2="73.9985" y2="109.0957" stroke="#000000" stroke-width="1.0" />
  <rect
     style="fill:#ffffff;fill-opacity:1;fill-rule:nonzero;stroke:none"
     width="2"
     height="2"
     x="73.3114"
     y="118.1499"
     transform="rotate(-88.9337 73.8114 119.1499)" /> 
  <path
     style="fill:none;stroke:#000000;stroke-width:1px;stroke-linecap:butt;stroke-linejoin:miter;stroke-opacity:1"
     d="m 73.8114,117.1499 2,2 -2,2 m -2.370121,-4 2,2 -2,2"
     transform="rotate(-88.9337 73.8114 119.1499)"/>
  <line x1="73.6053" y1="130.4539" x2="106.4406" y2="130.9515" stroke="#200019" stroke-width="1.0" />
  <line x1="73.6432" y1="127.9542" x2="106.4785" y2="128.4518" stroke="#200019" stroke-width="1.0" />
  <line x1="73.6243" y1="129.2041" x2="105.9975" y2="149.8480" stroke="#eca100" stroke-width="1.0" />
  <rect
     style="fill:#ffffff;stroke:none"
     width="5.5"
     height="2"
     x="87.0609"
     y="138.5260" 
     transform="rotate(32.5251 89.8109 139.5260)"    /> 
  <path
     style="fill:none;stroke:#eca100;stroke-width:1px;stroke-linecap:butt;stroke-linejoin:miter;stroke-opacity:1"
    d="m 90.5609,137.5260 2,2 -2,2 m -1.5,-4 -2,2 2,2" transform="rotate(32.5251 89.8109 139.5260)"/>
  <line x1="73.9869" y1="110.3457" x2="106.8231" y2="110.6511" stroke="#270026" stroke-width="1.0" />
  <line x1="74.0102" y1="107.8458" x2="106.8464" y2="108.1512" stroke="#270026" stroke-width="1.0" />
  <line x1="74.1547" y1="88.9634" x2="73.9609" y2="68.8234" stroke="#000000" stroke-width="1.0" />
  <rect
     style="fill:#ffffff;fill-opacity:1;fill-rule:nonzero;stroke:none"
     width="2"
     height="2"
     x="73.5578"
     y="77.8934"
     transform="rotate(269.4487 74.0578 78.8934)" /> 
  <path
     style="fill:none;stroke:#000000;stroke-width:1px;stroke-linecap:butt;stroke-linejoin:miter;stroke-opacity:1"
     d="m 74.0578,76.8934 2,2 -2,2 m -2.370121,-4 2,2 -2,2"
     transform="rotate(269.4487 74.0578 78.8934)"/>
  <line x1="74.1547" y1="90.2134" x2="106.9276" y2="90.2151" stroke="#200019" stroke-width="1.0" />
  <line x1="74.1548" y1="87.7134" x2="106.9278" y2="87.7151" stroke="#200019" stroke-width="1.0" />
  <line x1="74.1547" y1="88.9634" x2="106.8347" y2="109.4012" stroke="#2d0032" stroke-width="1.0" />
  <rect
     style="fill:#ffffff;stroke:none"
     width="5.5"
     height="2"
     x="87.7447"
     y="98.1823" 
     transform="rotate(32.0215 90.4947 99.1823)"    /> 
  <path
     style="fill:none;stroke:#2d0032;stroke-width:1px;stroke-linecap:butt;stroke-linejoin:miter;stroke-opacity:1"
    d="m 91.2447,97.1823 2,2 -2,2 m -1.5,-4 -2,2 2,2" transform="rotate(32.0215 90.4947 99.1823)"/>
  <line x1="73.9609" y1="68.8234" x2="100.2600" y2="45.5634" stroke="#8204ff" stroke-width="1.0" />
  <rect
     style="fill:#ffffff;fill-opacity:1;fill-rule:nonzero;stroke:none"
     width="2"
     height="2"
     x="86.6105"
     y="56.1934"
     transform="rotate(-41.4909 87.1105 57.1934)" /> 
  <path
     style="fill:none;stroke:#8204ff;stroke-width:1px;stroke-linecap:butt;stroke-linejoin:miter;stroke-opacity:1"
     d="m 87.1105,55.1934 2,2 -2,2 m -2.370121,-4 2,2 -2,2"
     transform="rotate(-41.4909 87.1105 57.1934)"/>
  <line x1="73.9746" y1="70.0733" x2="106.8860" y2="69.7138" stroke="#270026" stroke-width="1.0" />
  <line x1="73.9473" y1="67.5735" x2="106.8587" y2="67.2139" stroke="#270026" stroke-width="1.0" />
  <line x1="69.5599" y1="49.3232" x2="83.3101" y2="34.8658" stroke="#200019" stroke-width="1.0" />
  <rect
     style="fill:#ffffff;fill-opacity:1;fill-rule:nonzero;stroke:none"
     width="2"
     height="2"
     x="75.9350"
     y="41.0945"
     transform="rotate(-46.4364 76.4350 42.0945)" /> 
  <path
     style="fill:none;stroke:#200019;stroke-width:1px;stroke-linecap:butt;stroke-linejoin:miter;stroke-opacity:1"
     d="m 76.4350,40.0945 2,2 -2,2 m -2.370121,-4 2,2 -2,2"
     transform="rotate(-46.4364 76.4350 42.0945)"/>
  <line x1="100.2600" y1="45.5634" x2="106.8723" y2="68.4639" stroke="#dd6b00" stroke-width="1.0" />
  <rect
     style="fill:#ffffff;stroke:none"
     width="5.5"
     height="2"
     x="100.8162"
     y="56.0136" 
     transform="rotate(73.8943 103.5662 57.0136)"    /> 
  <path
     style="fill:none;stroke:#dd6b00;stroke-width:1px;stroke-linecap:butt;stroke-linejoin:miter;stroke-opacity:1"
    d="m 104.3162,55.0136 2,2 -2,2 m -1.5,-4 -2,2 2,2" transform="rotate(73.8943 103.5662 57.0136)"/>
  <line x1="106.8723" y1="68.4639" x2="106.9277" y2="88.9651" stroke="#000000" stroke-width="1.0" />
  <rect
     style="fill:#ffffff;fill-opacity:1;fill-rule:nonzero;stroke:none"
     width="2"
     height="2"
     x="106.4000"
     y="77.7145"
     transform="rotate(89.8452 106.9000 78.7145)" /> 
  <path
     style="fill:none;stroke:#000000;stroke-width:1px;stroke-linecap:butt;stroke-linejoin:miter;stroke-opacity:1"
     d="m 106.9000,76.7145 2,2 -2,2 m -2.370121,-4 2,2 -2,2"
     transform="rotate(89.8452 106.9000 78.7145)"/>
  <line x1="106.8347" y1="109.4012" x2="106.4595" y2="129.7017" stroke="#000000" stroke-width="1.0" />
  <rect
     style="fill:#ffffff;fill-opacity:1;fill-rule:nonzero;stroke:none"
     width="2"
     height="2"
     x="106.1471"
     y="118.5514"
     transform="rotate(91.0588 106.6471 119.5514)" /> 
  <path
     style="fill:none;stroke:#000000;stroke-width:1px;stroke-linecap:butt;stroke-linejoin:miter;stroke-opacity:1"
     d="m 106.6471,117.5514 2,2 -2,2 m -2.370121,-4 2,2 -2,2"
     transform="rotate(91.0588 106.6471 119.5514)"/>
  <line x1="106.4595" y1="129.7017" x2="105.9975" y2="149.8480" stroke="#a5137f" stroke-width="1.0" />
  <rect
     style="fill:#ffffff;fill-opacity:1;fill-rule:nonzero;stroke:none"
     width="2"
     height="2"
     x="105.7285"
     y="138.7748"
     transform="rotate(91.3138 106.2285 139.7748)" /> 
  <path
     style="fill:none;stroke:#a5137f;stroke-width:1px;stroke-linecap:butt;stroke-linejoin:miter;stroke-opacity:1"
     d="m 106.2285,137.7748 2,2 -2,2 m -2.370121,-4 2,2 -2,2"
     transform="rotate(91.3138 106.2285 139.7748)"/>
<circle cx="73.1251" cy="149.2654" r="5.0" stroke="#595959" stroke-width="1.0" fill="#ffffff"/>
<text x="73.1251" y="151.9654" text-anchor="middle" font-family="Helvetica" font-size="7.5" fill="#000000" >G</text>
<circle cx="73.6243" cy="129.2041" r="5.0" stroke="#595959" stroke-width="1.0" fill="#ffffff"/>
<text x="73.6243" y="131.9041" text-anchor="middle" font-family="Helvetica" font-size="7.5" fill="#000000" >G</text>
<circle cx="73.9985" cy="109.0957" r="5.0" stroke="#595959" stroke-width="1.0" fill="#ffffff"/>
<text x="73.9985" y="111.7957" text-anchor="middle" font-family="Helvetica" font-size="7.5" fill="#000000" >C</text>
<circle cx="74.1547" cy="88.9634" r="5.0" stroke="#595959" stroke-width="1.0" fill="#ffffff"/>
<text x="74.1547" y="91.6634" text-anchor="middle" font-family="Helvetica" font-size="7.5" fill="#000000" >G</text>
<circle cx="73.9609" cy="68.8234" r="5.0" stroke="#595959" stroke-width="1.0" fill="#ffffff"/>
<text x="73.9609" y="71.5234" text-anchor="middle" font-family="Helvetica" font-size="7.5" fill="#000000" >C</text>
<circle cx="69.5599" cy="49.3232" r="5.0" stroke="#595959" stroke-width="1.0" fill="#ffffff"/>
<text x="69.5599" y="52.0232" text-anchor="middle" font-family="Helvetica" font-size="7.5" fill="#000000" >A</text>
<circle cx="83.3101" cy="34.8658" r="5.0" stroke="#595959" stroke-width="1.0" fill="#ffffff"/>
<text x="83.3101" y="37.5658" text-anchor="middle" font-family="Helvetica" font-size="7.5" fill="#000000" >U</text>
<circle cx="100.2600" cy="45.5634" r="5.0" stroke="#595959" stroke-width="1.0" fill="#ffffff"/>
<text x="100.2600" y="48.2634" text-anchor="middle" font-family="Helvetica" font-size="7.5" fill="#000000" >C</text>
<circle cx="118.9146" cy="52.5158" r="5.0" stroke="#595959" stroke-width="1.0" fill="#ffffff"/>
<text x="118.9146" y="55.2158" text-anchor="middle" font-family="Helvetica" font-size="7.5" fill="#000000" >G</text>
<circle cx="106.8723" cy="68.4639" r="5.0" stroke="#595959" stroke-width="1.0" fill="#ffffff"/>
<text x="106.8723" y="71.1639" text-anchor="middle" font-family="Helvetica" font-size="7.5" fill="#000000" >G</text>
<circle cx="106.9277" cy="88.9651" r="5.0" stroke="#595959" stroke-width="1.0" fill="#ffffff"/>
<text x="106.9277" y="91.6651" text-anchor="middle" font-family="Helvetica" font-size="7.5" fill="#000000" >C</text>
<circle cx="106.8347" cy="109.4012" r="5.0" stroke="#595959" stroke-width="1.0" fill="#ffffff"/>
<text x="106.8347" y="112.1012" text-anchor="middle" font-family="Helvetica" font-size="7.5" fill="#000000" >G</text>
<circle cx="106.4595" cy="129.7017" r="5.0" stroke="#595959" stroke-width="1.0" fill="#ffffff"/>
<text x="106.4595" y="132.4017" text-anchor="middle" font-family="Helvetica" font-size="7.5" fill="#000000" >C</text>
<circle cx="105.9975" cy="149.8480" r="5.0" stroke="#595959" stroke-width="1.0" fill="#ffffff"/>
<text x="105.9975" y="152.5480" text-anchor="middle" font-family="Helvetica" font-size="7.5" fill="#000000" >C</text>
</svg>