<?xml version="1.0" encoding="UTF-8"?>
<!DOCTYPE svg PUBLIC "-//W3C//DTD SVG 1.1//EN" 
"http://www.w3.org/Graphics/SVG/1.1/DTD/svg11.dtd">

<svg version="1.1"
   width="182px"
   height="182px"
xmlns="http://www.w3.org/2000/svg">
    <rect width="100%" height="100%" fill="white"/>

  <line x1="72.8881" y1="108.5695" x2="72.9478" y2="88.4861" stroke="#595959"
     style="stroke-width:2;stroke-miterlimit:4;stroke-dasharray:1,1;stroke-dashoffset:0" />
  <line x1="72.7843" y1="68.4049" x2="70.7157" y2="48.5221" stroke="#595959"
     style="stroke-width:2;stroke-miterlimit:4;stroke-dasharray:1,1;stroke-dashoffset:0" />
  <line x1="86.4345" y1="36.2461" x2="102.9413" y2="47.4977" stroke="#595959"
     style="stroke-width:2;stroke-miterlimit:4;stroke-dasharray:1,1;stroke-dashoffset:0" />
  <line x1="102.9413" y1="47.4977" x2="121.3924" y2="54.8977" stroke="#595959"
     style="stroke-width:2;stroke-miterlimit:4;stroke-dasharray:1,1;stroke-dashoffset:0" />
  <line x1="121.3924" y1="54.8977" x2="106.2018" y2="68.0441" stroke="#595959"
     style="stroke-width:2;stroke-miterlimit:4;stroke-dasharray:1,1;stroke-dashoffset:0" />
  <line x1="106.2282" y1="88.4841" x2="106.0980" y2="108.9083" stroke="#595959"
     style="stroke-width:2;stroke-miterlimit:4;stroke-dasharray:1,1;stroke-dashoffset:0" />
  <line x1="86.4345" y1="36.2461" x2="106.2018" y2="68.0441" stroke="#df7200" stroke-width="1.0" />
  <path d="M 94.3182 54.3951 L 94.3182 49.8951 L 98.3182 52.1451 z" style="stroke:#df7200;stroke-width:1.0" fill="#df7200"
    transform="rotate(58.1327 96.3182 52.1451)"/>
  <line x1="72.0509" y1="148.6934" x2="72.5091" y2="128.6208" stroke="#c83b00" stroke-width="1.0" />
  <rect
     style="fill:#ffffff;fill-opacity:1;fill-rule:nonzero;stroke:none"
     width="2"
     height="2"
     x="71.7800"
     y="137.6571"
     transform="rotate(-88.6925 72.2800 138.6571)" /> 
  <path
     style="fill:none;stroke:#c83b00;stroke-width:1px;stroke-linecap:butt;stroke-linejoin:miter;stroke-opacity:1"
     d="m 72.2800,136.6571 2,2 -2,2 m -2.370121,-4 2,2 -2,2"
     transform="rotate(-88.6925 72.2800 138.6571)"/>
  <line x1="72.0251" y1="149.9432" x2="105.0931" y2="150.6282" stroke="#3c0057" stroke-width="1.0" />
  <line x1="72.0768" y1="147.4437" x2="105.1448" y2="148.1287" stroke="#3c0057" stroke-width="1.0" />
  <line x1="72.5091" y1="128.6208" x2="72.8881" y2="108.5695" stroke="#000000" stroke-width="1.0" />
  <rect
     style="fill:#ffffff;fill-opacity:1;fill-rule:nonzero;stroke:none"
     width="2"
     height="2"
     x="72.1986"
     y="117.5952"
     transform="rotate(-88.9171 72.6986 118.5952)" /> 
  <path
     style="fill:none;stroke:#000000;stroke-width:1px;stroke-linecap:butt;stroke-linejoin:miter;stroke-opacity:1"
     d="m 72.6986,116.5952 2,2 -2,2 m -2.370121,-4 2,2 -2,2"
     transform="rotate(-88.9171 72.6986 118.5952)"/>
  <line x1="72.4855" y1="129.8706" x2="105.6652" y2="130.4966" stroke="#17000d" stroke-width="1.0" />
  <line x1="72.5327" y1="127.3711" x2="105.7124" y2="127.9970" stroke="#17000d" stroke-width="1.0" />
  <line x1="72.5091" y1="128.6208" x2="105.1190" y2="149.3785" stroke="#f2b800" stroke-width="1.0" />
  <rect
     style="fill:#ffffff;stroke:none"
     width="5.5"
     height="2"
     x="86.0640"
     y="137.9996" 
     transform="rotate(32.4786 88.8140 138.9996)"    /> 
  <path
     style="fill:none;stroke:#f2b800;stroke-width:1px;stroke-linecap:butt;stroke-linejoin:miter;stroke-opacity:1"
    d="m 89.5640,136.9996 2,2 -2,2 m -1.5,-4 -2,2 2,2" transform="rotate(32.4786 88.8140 138.9996)"/>
  <line x1="72.8754" y1="109.8194" x2="106.0853" y2="110.1582" stroke="#200019" stroke-width="1.0" />
  <line x1="72.9009" y1="107.3196" x2="106.1108" y2="107.6583" stroke="#200019" stroke-width="1.0" />
  <line x1="72.9478" y1="88.4861" x2="72.7843" y2="68.4049" stroke="#000000" stroke-width="1.0" />
  <rect
     style="fill:#ffffff;fill-opacity:1;fill-rule:nonzero;stroke:none"
     width="2"
     height="2"
     x="72.3661"
     y="77.4455"
     transform="rotate(269.5334 72.8661 78.4455)" /> 
  <path
     style="fill:none;stroke:#000000;stroke-width:1px;stroke-linecap:butt;stroke-linejoin:miter;stroke-opacity:1"
     d="m 72.8661,76.4455 2,2 -2,2 m -2.370121,-4 2,2 -2,2"
     transform="rotate(269.5334 72.8661 78.4455)"/>
  <line x1="72.9479" y1="89.7361" x2="106.2283" y2="89.7341" stroke="#3c0057" stroke-width="1.0" />
  <line x1="72.9478" y1="87.2361" x2="106.2282" y2="87.2341" stroke="#3c0057" stroke-width="1.0" />
  <line x1="72.9478" y1="88.4861" x2="106.0980" y2="108.9083" stroke="#270026" stroke-width="1.0" />
  <rect
     style="fill:#ffffff;stroke:none"
     width="5.5"
     height="2"
     x="86.7729"
     y="97.6972" 
     transform="rotate(31.6352 89.5229 98.6972)"    /> 
  <path
     style="fill:none;stroke:#270026;stroke-width:1px;stroke-linecap:butt;stroke-linejoin:miter;stroke-opacity:1"
    d="m 90.2729,96.6972 2,2 -2,2 m -1.5,-4 -2,2 2,2" transform="rotate(31.6352 89.5229 98.6972)"/>
  <line x1="72.7978" y1="69.6549" x2="106.2153" y2="69.2940" stroke="#33003e" stroke-width="1.0" />
  <line x1="72.7708" y1="67.1550" x2="106.1883" y2="66.7942" stroke="#33003e" stroke-width="1.0" />
  <line x1="70.7157" y1="48.5221" x2="86.4345" y2="36.2461" stroke="#c83b00" stroke-width="1.0" />
  <rect
     style="fill:#ffffff;fill-opacity:1;fill-rule:nonzero;stroke:none"
     width="2"
     height="2"
     x="77.5751"
     y="41.3841" 
     transform="rotate(-37.9892 78.5751 42.3841)" /> 
  <path
     style="fill:none;stroke:#c83b00;stroke-width:1px;stroke-linecap:butt;stroke-linejoin:miter;stroke-opacity:1"
     d="m 81.5751,40.3841 -2,2 2,2 m -6,-4 2,2 -2,2"
     transform="rotate(-37.9892 78.5751 42.3841)"/>
  <line x1="102.9413" y1="47.4977" x2="106.2018" y2="68.0441" stroke="#000000" stroke-width="1.0" />
  <rect
     style="fill:#ffffff;stroke:none"
     width="5.5"
     height="2"
     x="101.8216"
     y="56.7709" 
     transform="rotate(80.9828 104.5716 57.7709)"    /> 
  <path
     style="fill:none;stroke:#000000;stroke-width:1px;stroke-linecap:butt;stroke-linejoin:miter;stroke-opacity:1"
    d="m 105.3216,55.7709 2,2 -2,2 m -1.5,-4 -2,2 2,2" transform="rotate(80.9828 104.5716 57.7709)"/>
  <line x1="106.2018" y1="68.0441" x2="106.2282" y2="88.4841" stroke="#000000" stroke-width="1.0" />
  <rect
     style="fill:#ffffff;fill-opacity:1;fill-rule:nonzero;stroke:none"
     width="2"
     height="2"
     x="105.7150"
     y="77.2641"
     transform="rotate(89.9260 106.2150 78.2641)" /> 
  <path
     style="fill:none;stroke:#000000;stroke-width:1px;stroke-linecap:butt;stroke-linejoin:miter;stroke-opacity:1"
     d="m 106.2150,76.2641 2,2 -2,2 m -2.370121,-4 2,2 -2,2"
     transform="rotate(89.9260 106.2150 78.2641)"/>
  <line x1="106.0980" y1="108.9083" x2="105.6888" y2="129.2468" stroke="#000000" stroke-width="1.0" />
  <rect
     style="fill:#ffffff;fill-opacity:1;fill-rule:nonzero;stroke:none"
     width="2"
     height="2"
     x="105.3934"
     y="118.0775"
     transform="rotate(91.1527 105.8934 119.0775)" /> 
  <path
     style="fill:none;stroke:#000000;stroke-width:1px;stroke-linecap:butt;stroke-linejoin:miter;stroke-opacity:1"
     d="m 105.8934,117.0775 2,2 -2,2 m -2.370121,-4 2,2 -2,2"
     transform="rotate(91.1527 105.8934 119.0775)"/>
  <line x1="105.6888" y1="129.2468" x2="105.1190" y2="149.3785" stroke="#8605fc" stroke-width="1.0" />
  <rect
     style="fill:#ffffff;fill-opacity:1;fill-rule:nonzero;stroke:none"
     width="2"
     height="2"
     x="104.9039"
     y="138.3126"
     transform="rotate(91.6214 105.4039 139.3126)" /> 
  <path
     style="fill:none;stroke:#8605fc;stroke-width:1px;stroke-linecap:butt;stroke-linejoin:miter;stroke-opacity:1"
     d="m 105.4039,137.3126 2,2 -2,2 m -2.370121,-4 2,2 -2,2"
     transform="rotate(91.6214 105.4039 139.3126)"/>
<circle cx="72.0509" cy="148.6934" r="5.0" stroke="#595959" stroke-width="1.0" fill="#ffffff"/>
<text x="72.0509" y="151.3934" text-anchor="middle" font-family="Helvetica" font-size="7.5" fill="#000000" >G</text>
<circle cx="72.5091" cy="128.6208" r="5.0" stroke="#595959" stroke-width="1.0" fill="#ffffff"/>
<text x="72.5091" y="131.3208" text-anchor="middle" font-family="Helvetica" font-size="7.5" fill="#000000" >G</text>
<circle cx="72.8881" cy="108.5695" r="5.0" stroke="#595959" stroke-width="1.0" fill="#ffffff"/>
<text x="72.8881" y="111.2695" text-anchor="middle" font-family="Helvetica" font-size="7.5" fill="#000000" >C</text>
<circle cx="72.9478" cy="88.4861" r="5.0" stroke="#595959" stroke-width="1.0" fill="#ffffff"/>
<text x="72.9478" y="91.1861" text-anchor="middle" font-family="Helvetica" font-size="7.5" fill="#000000" >G</text>
<circle cx="72.7843" cy="68.4049" r="5.0" stroke="#595959" stroke-width="1.0" fill="#ffffff"/>
<text x="72.7843" y="71.1049" text-anchor="middle" font-family="Helvetica" font-size="7.5" fill="#000000" >C</text>
<circle cx="70.7157" cy="48.5221" r="5.0" stroke="#595959" stroke-width="1.0" fill="#ffffff"/>
<text x="70.7157" y="51.2221" text-anchor="middle" font-family="Helvetica" font-size="7.5" fill="#000000" >A</text>
<circle cx="86.4345" cy="36.2461" r="5.0" stroke="#595959" stroke-width="1.0" fill="#ffffff"/>
<text x="86.4345" y="38.9461" text-anchor="middle" font-family="Helvetica" font-size="7.5" fill="#000000" >U</text>
<circle cx="102.9413" cy="47.4977" r="5.0" stroke="#595959" stroke-width="1.0" fill="#ffffff"/>
<text x="102.9413" y="50.1977" text-anchor="middle" font-family="Helvetica" font-size="7.5" fill="#000000" >C</text>
<circle cx="121.3924" cy="54.8977" r="5.0" stroke="#595959" stroke-width="1.0" fill="#ffffff"/>
<text x="121.3924" y="57.5977" text-anchor="middle" font-family="Helvetica" font-size="7.5" fill="#000000" >G</text>
<circle cx="106.2018" cy="68.0441" r="5.0" stroke="#595959" stroke-width="1.0" fill="#ffffff"/>
<text x="106.2018" y="70.7441" text-anchor="middle" font-family="Helvetica" font-size="7.5" fill="#000000" >G</text>
<circle cx="106.2282" cy="88.4841" r="5.0" stroke="#595959" stroke-width="1.0" fill="#ffffff"/>
<text x="106.2282" y="91.1841" text-anchor="middle" font-family="Helvetica" font-size="7.5" fill="#000000" >C</text>
<circle cx="106.0980" cy="108.9083" r="5.0" stroke="#595959" stroke-width="1.0" fill="#ffffff"/>
<text x="106.0980" y="111.6083" text-anchor="middle" font-family="Helvetica" font-size="7.5" fill="#000000" >G</text>
<circle cx="105.6888" cy="129.2468" r="5.0" stroke="#595959" stroke-width="1.0" fill="#ffffff"/>
<text x="105.6888" y="131.9468" text-anchor="middle" font-family="Helvetica" font-size="7.5" fill="#000000" >C</text>
<circle cx="105.1190" cy="149.3785" r="5.0" stroke="#595959" stroke-width="1.0" fill="#ffffff"/>
<text x="105.1190" y="152.0785" text-anchor="middle" font-family="Helvetica" font-size="7.5" fill="#000000" >C</text>
</svg>