<?xml version="1.0" encoding="UTF-8"?>
<!DOCTYPE svg PUBLIC "-//W3C//DTD SVG 1.1//EN" 
"http://www.w3.org/Graphics/SVG/1.1/DTD/svg11.dtd">

<svg version="1.1"
   width="182px"
   height="182px"
xmlns="http://www.w3.org/2000/svg">
    <rect width="100%" height="100%" fill="white"/>

  <line x1="70.3421" y1="110.6959" x2="68.3072" y2="90.2663" stroke="#595959"
     style="stroke-width:2;stroke-miterlimit:4;stroke-dasharray:1,1;stroke-dashoffset:0" />
  <line x1="66.5900" y1="70.6050" x2="69.1684" y2="52.3162" stroke="#595959"
     style="stroke-width:2;stroke-miterlimit:4;stroke-dasharray:1,1;stroke-dashoffset:0" />
  <line x1="69.1684" y1="52.3162" x2="81.2794" y2="38.5208" stroke="#595959"
     style="stroke-width:2;stroke-miterlimit:4;stroke-dasharray:1,1;stroke-dashoffset:0" />
  <line x1="98.7066" y1="39.4579" x2="111.1011" y2="50.4691" stroke="#595959"
     style="stroke-width:2;stroke-miterlimit:4;stroke-dasharray:1,1;stroke-dashoffset:0" />
  <line x1="111.1011" y1="50.4691" x2="115.4103" y2="67.2606" stroke="#595959"
     style="stroke-width:2;stroke-miterlimit:4;stroke-dasharray:1,1;stroke-dashoffset:0" />
  <line x1="110.1001" y1="87.7787" x2="111.6582" y2="108.3221" stroke="#595959"
     style="stroke-width:2;stroke-miterlimit:4;stroke-dasharray:1,1;stroke-dashoffset:0" />
  <line x1="66.5900" y1="70.6050" x2="98.7066" y2="39.4579" stroke="#e99400" stroke-width="1.0" />
  <circle cx="86.3983" cy="55.0314" r="2.25" stroke="#e99400" stroke-width="1.0" fill="#e99400"
    transform="rotate(135.8780 82.6483 55.0314)" />
  <path d="M 76.6483 57.2814 L 76.6483 52.7814 L 81.1483 52.7814 L 81.1483 57.2814 z" style="stroke:#e99400; stroke-width:1.0" fill="#e99400" 
    transform="rotate(135.8780 82.6483 55.0314)"/>
  <line x1="69.1684" y1="52.3162" x2="110.1001" y2="87.7787" stroke="#f2b800" stroke-width="1.0" />
  <circle cx="93.1342" cy="70.0475" r="2.25" stroke="#f2b800" stroke-width="1.0" fill="#f2b800"
    transform="rotate(220.9051 89.6342 70.0475)" />
  <path d="M 87.8842 72.2975 L 87.8842 67.7975 L 83.8842 70.0475 z" style="stroke:#f2b800;stroke-width:1.0" fill="#f2b800" 
    transform="rotate(220.9051 89.6342 70.0475)"/>
  <line x1="73.6733" y1="150.6078" x2="72.1847" y2="130.6609" stroke="#e78c00" stroke-width="1.0" />
  <rect
     style="fill:#ffffff;fill-opacity:1;fill-rule:nonzero;stroke:none"
     width="2"
     height="2"
     x="72.4290"
     y="139.6344"
     transform="rotate(265.7321 72.9290 140.6344)" /> 
  <path
     style="fill:none;stroke:#e78c00;stroke-width:1px;stroke-linecap:butt;stroke-linejoin:miter;stroke-opacity:1"
     d="m 72.9290,138.6344 2,2 -2,2 m -2.370121,-4 2,2 -2,2"
     transform="rotate(265.7321 72.9290 140.6344)"/>
  <line x1="73.7385" y1="151.8561" x2="113.1630" y2="149.7979" stroke="#17000d" stroke-width="1.0" />
  <line x1="73.6081" y1="149.3595" x2="113.0327" y2="147.3013" stroke="#17000d" stroke-width="1.0" />
  <line x1="72.1847" y1="130.6609" x2="70.3421" y2="110.6959" stroke="#000000" stroke-width="1.0" />
  <rect
     style="fill:#ffffff;fill-opacity:1;fill-rule:nonzero;stroke:none"
     width="2"
     height="2"
     x="70.7634"
     y="119.6784"
     transform="rotate(264.7269 71.2634 120.6784)" /> 
  <path
     style="fill:none;stroke:#000000;stroke-width:1px;stroke-linecap:butt;stroke-linejoin:miter;stroke-opacity:1"
     d="m 71.2634,118.6784 2,2 -2,2 m -2.370121,-4 2,2 -2,2"
     transform="rotate(264.7269 71.2634 120.6784)"/>
  <line x1="72.2522" y1="131.9090" x2="112.4482" y2="129.7374" stroke="#17000d" stroke-width="1.0" />
  <line x1="72.1173" y1="129.4127" x2="112.3133" y2="127.2410" stroke="#17000d" stroke-width="1.0" />
  <line x1="72.1847" y1="130.6609" x2="113.0979" y2="148.5496" stroke="#c33200" stroke-width="1.0" />
  <rect
     style="fill:#ffffff;stroke:none"
     width="5.5"
     height="2"
     x="89.8913"
     y="138.6052" 
     transform="rotate(23.6167 92.6413 139.6052)"    /> 
  <path
     style="fill:none;stroke:#c33200;stroke-width:1px;stroke-linecap:butt;stroke-linejoin:miter;stroke-opacity:1"
    d="m 93.3913,137.6052 2,2 -2,2 m -1.5,-4 -2,2 2,2" transform="rotate(23.6167 92.6413 139.6052)"/>
  <line x1="70.4138" y1="111.9438" x2="111.7299" y2="109.5701" stroke="#000000" stroke-width="1.0" />
  <line x1="70.2704" y1="109.4479" x2="111.5865" y2="107.0742" stroke="#000000" stroke-width="1.0" />
  <line x1="68.3072" y1="90.2663" x2="66.5900" y2="70.6050" stroke="#000000" stroke-width="1.0" />
  <rect
     style="fill:#ffffff;fill-opacity:1;fill-rule:nonzero;stroke:none"
     width="2"
     height="2"
     x="66.9486"
     y="79.4356"
     transform="rotate(265.0087 67.4486 80.4356)" /> 
  <path
     style="fill:none;stroke:#000000;stroke-width:1px;stroke-linecap:butt;stroke-linejoin:miter;stroke-opacity:1"
     d="m 67.4486,78.4356 2,2 -2,2 m -2.370121,-4 2,2 -2,2"
     transform="rotate(265.0087 67.4486 80.4356)"/>
  <line x1="68.3072" y1="90.2663" x2="110.1001" y2="87.7787" stroke="#17000d" stroke-width="1.0" />
  <line x1="68.3072" y1="90.2663" x2="111.6582" y2="108.3221" stroke="#17000d" stroke-width="1.0" />
  <rect
     style="fill:#ffffff;stroke:none"
     width="5.5"
     height="2"
     x="87.2327"
     y="98.2942" 
     transform="rotate(22.6119 89.9827 99.2942)"    /> 
  <path
     style="fill:none;stroke:#17000d;stroke-width:1px;stroke-linecap:butt;stroke-linejoin:miter;stroke-opacity:1"
    d="m 90.7327,97.2942 2,2 -2,2 m -1.5,-4 -2,2 2,2" transform="rotate(22.6119 89.9827 99.2942)"/>
  <line x1="66.6755" y1="71.8520" x2="115.4957" y2="68.5077" stroke="#17000d" stroke-width="1.0" />
  <line x1="66.5046" y1="69.3579" x2="115.3248" y2="66.0135" stroke="#17000d" stroke-width="1.0" />
  <line x1="81.2794" y1="38.5208" x2="98.7066" y2="39.4579" stroke="#eca100" stroke-width="1.0" />
  <rect
     style="fill:#ffffff;stroke:none"
     width="5.5"
     height="2"
     x="87.2430"
     y="37.9894" 
     transform="rotate(3.0779 89.9930 38.9894)"    /> 
  <path
     style="fill:none;stroke:#eca100;stroke-width:1px;stroke-linecap:butt;stroke-linejoin:miter;stroke-opacity:1"
    d="m 90.7430,36.9894 2,2 -2,2 m -1.5,-4 -2,2 2,2" transform="rotate(3.0779 89.9930 38.9894)"/>
  <line x1="98.7066" y1="39.4579" x2="115.4103" y2="67.2606" stroke="#000000" stroke-width="1.0" />
  <rect
     style="fill:#ffffff;fill-opacity:1;fill-rule:nonzero;stroke:none"
     width="2"
     height="2"
     x="106.5584"
     y="52.3593"
     transform="rotate(59.0030 107.0584 53.3593)" /> 
  <path
     style="fill:none;stroke:#000000;stroke-width:1px;stroke-linecap:butt;stroke-linejoin:miter;stroke-opacity:1"
     d="m 107.0584,51.3593 2,2 -2,2 m -2.370121,-4 2,2 -2,2"
     transform="rotate(59.0030 107.0584 53.3593)"/>
  <line x1="115.4103" y1="67.2606" x2="110.1001" y2="87.7787" stroke="#000000" stroke-width="1.0" />
  <rect
     style="fill:#ffffff;fill-opacity:1;fill-rule:nonzero;stroke:none"
     width="2"
     height="2"
     x="112.2552"
     y="76.5197"
     transform="rotate(104.5100 112.7552 77.5197)" /> 
  <path
     style="fill:none;stroke:#000000;stroke-width:1px;stroke-linecap:butt;stroke-linejoin:miter;stroke-opacity:1"
     d="m 112.7552,75.5197 2,2 -2,2 m -2.370121,-4 2,2 -2,2"
     transform="rotate(104.5100 112.7552 77.5197)"/>
  <line x1="111.6582" y1="108.3221" x2="112.3808" y2="128.4892" stroke="#000000" stroke-width="1.0" />
  <rect
     style="fill:#ffffff;fill-opacity:1;fill-rule:nonzero;stroke:none"
     width="2"
     height="2"
     x="111.5195"
     y="117.4056"
     transform="rotate(87.9481 112.0195 118.4056)" /> 
  <path
     style="fill:none;stroke:#000000;stroke-width:1px;stroke-linecap:butt;stroke-linejoin:miter;stroke-opacity:1"
     d="m 112.0195,116.4056 2,2 -2,2 m -2.370121,-4 2,2 -2,2"
     transform="rotate(87.9481 112.0195 118.4056)"/>
  <line x1="112.3808" y1="128.4892" x2="113.0979" y2="148.5496" stroke="#c73900" stroke-width="1.0" />
  <rect
     style="fill:#ffffff;fill-opacity:1;fill-rule:nonzero;stroke:none"
     width="2"
     height="2"
     x="112.2393"
     y="137.5194"
     transform="rotate(87.9527 112.7393 138.5194)" /> 
  <path
     style="fill:none;stroke:#c73900;stroke-width:1px;stroke-linecap:butt;stroke-linejoin:miter;stroke-opacity:1"
     d="m 112.7393,136.5194 2,2 -2,2 m -2.370121,-4 2,2 -2,2"
     transform="rotate(87.9527 112.7393 138.5194)"/>
<circle cx="73.6733" cy="150.6078" r="5.0" stroke="#595959" stroke-width="1.0" fill="#ffffff"/>
<text x="73.6733" y="153.3078" text-anchor="middle" font-family="Helvetica" font-size="7.5" fill="#000000" >G</text>
<circle cx="72.1847" cy="130.6609" r="5.0" stroke="#595959" stroke-width="1.0" fill="#ffffff"/>
<text x="72.1847" y="133.3609" text-anchor="middle" font-family="Helvetica" font-size="7.5" fill="#000000" >G</text>
<circle cx="70.3421" cy="110.6959" r="5.0" stroke="#595959" stroke-width="1.0" fill="#ffffff"/>
<text x="70.3421" y="113.3959" text-anchor="middle" font-family="Helvetica" font-size="7.5" fill="#000000" >C</text>
<circle cx="68.3072" cy="90.2663" r="5.0" stroke="#595959" stroke-width="1.0" fill="#ffffff"/>
<text x="68.3072" y="92.9663" text-anchor="middle" font-family="Helvetica" font-size="7.5" fill="#000000" >A</text>
<circle cx="66.5900" cy="70.6050" r="5.0" stroke="#595959" stroke-width="1.0" fill="#ffffff"/>
<text x="66.5900" y="73.3050" text-anchor="middle" font-family="Helvetica" font-size="7.5" fill="#000000" >C</text>
<circle cx="69.1684" cy="52.3162" r="5.0" stroke="#595959" stroke-width="1.0" fill="#ffffff"/>
<text x="69.1684" y="55.0162" text-anchor="middle" font-family="Helvetica" font-size="7.5" fill="#000000" >U</text>
<circle cx="81.2794" cy="38.5208" r="5.0" stroke="#595959" stroke-width="1.0" fill="#ffffff"/>
<text x="81.2794" y="41.2208" text-anchor="middle" font-family="Helvetica" font-size="7.5" fill="#000000" >U</text>
<circle cx="98.7066" cy="39.4579" r="5.0" stroke="#595959" stroke-width="1.0" fill="#ffffff"/>
<text x="98.7066" y="42.1579" text-anchor="middle" font-family="Helvetica" font-size="7.5" fill="#000000" >C</text>
<circle cx="111.1011" cy="50.4691" r="5.0" stroke="#595959" stroke-width="1.0" fill="#ffffff"/>
<text x="111.1011" y="53.1691" text-anchor="middle" font-family="Helvetica" font-size="7.5" fill="#000000" >G</text>
<circle cx="115.4103" cy="67.2606" r="5.0" stroke="#595959" stroke-width="1.0" fill="#ffffff"/>
<text x="115.4103" y="69.9606" text-anchor="middle" font-family="Helvetica" font-size="7.5" fill="#000000" >G</text>
<circle cx="110.1001" cy="87.7787" r="5.0" stroke="#595959" stroke-width="1.0" fill="#ffffff"/>
<text x="110.1001" y="90.4787" text-anchor="middle" font-family="Helvetica" font-size="7.5" fill="#000000" >U</text>
<circle cx="111.6582" cy="108.3221" r="5.0" stroke="#595959" stroke-width="1.0" fill="#ffffff"/>
<text x="111.6582" y="111.0221" text-anchor="middle" font-family="Helvetica" font-size="7.5" fill="#000000" >G</text>
<circle cx="112.3808" cy="128.4892" r="5.0" stroke="#595959" stroke-width="1.0" fill="#ffffff"/>
<text x="112.3808" y="131.1892" text-anchor="middle" font-family="Helvetica" font-size="7.5" fill="#000000" >C</text>
<circle cx="113.0979" cy="148.5496" r="5.0" stroke="#595959" stroke-width="1.0" fill="#ffffff"/>
<text x="113.0979" y="151.2496" text-anchor="middle" font-family="Helvetica" font-size="7.5" fill="#000000" >C</text>
</svg>