<?xml version="1.0" encoding="UTF-8"?>
<!DOCTYPE svg PUBLIC "-//W3C//DTD SVG 1.1//EN" 
"http://www.w3.org/Graphics/SVG/1.1/DTD/svg11.dtd">

<svg version="1.1"
   width="182px"
   height="182px"
xmlns="http://www.w3.org/2000/svg">
    <rect width="100%" height="100%" fill="white"/>

  <line x1="72.7043" y1="108.5575" x2="72.8598" y2="88.4111" stroke="#595959"
     style="stroke-width:2;stroke-miterlimit:4;stroke-dasharray:1,1;stroke-dashoffset:0" />
  <line x1="72.6980" y1="68.2558" x2="72.1376" y2="47.8974" stroke="#595959"
     style="stroke-width:2;stroke-miterlimit:4;stroke-dasharray:1,1;stroke-dashoffset:0" />
  <line x1="72.1376" y1="47.8974" x2="87.9620" y2="35.7203" stroke="#595959"
     style="stroke-width:2;stroke-miterlimit:4;stroke-dasharray:1,1;stroke-dashoffset:0" />
  <line x1="104.7589" y1="46.6506" x2="122.0368" y2="56.4536" stroke="#595959"
     style="stroke-width:2;stroke-miterlimit:4;stroke-dasharray:1,1;stroke-dashoffset:0" />
  <line x1="122.0368" y1="56.4536" x2="105.3558" y2="67.6879" stroke="#595959"
     style="stroke-width:2;stroke-miterlimit:4;stroke-dasharray:1,1;stroke-dashoffset:0" />
  <line x1="105.5333" y1="88.3970" x2="105.3495" y2="109.0849" stroke="#595959"
     style="stroke-width:2;stroke-miterlimit:4;stroke-dasharray:1,1;stroke-dashoffset:0" />
  <line x1="71.4605" y1="148.7916" x2="72.1862" y2="128.6901" stroke="#ca4000" stroke-width="1.0" />
  <rect
     style="fill:#ffffff;fill-opacity:1;fill-rule:nonzero;stroke:none"
     width="2"
     height="2"
     x="71.3234"
     y="137.7408"
     transform="rotate(-87.9325 71.8234 138.7408)" /> 
  <path
     style="fill:none;stroke:#ca4000;stroke-width:1px;stroke-linecap:butt;stroke-linejoin:miter;stroke-opacity:1"
     d="m 71.8234,136.7408 2,2 -2,2 m -2.370121,-4 2,2 -2,2"
     transform="rotate(-87.9325 71.8234 138.7408)"/>
  <line x1="71.4214" y1="150.0410" x2="104.0653" y2="151.0628" stroke="#33003e" stroke-width="1.0" />
  <line x1="71.4996" y1="147.5423" x2="104.1435" y2="148.5640" stroke="#33003e" stroke-width="1.0" />
  <line x1="72.1862" y1="128.6901" x2="72.7043" y2="108.5575" stroke="#000000" stroke-width="1.0" />
  <rect
     style="fill:#ffffff;fill-opacity:1;fill-rule:nonzero;stroke:none"
     width="2"
     height="2"
     x="71.9453"
     y="117.6238"
     transform="rotate(-88.5258 72.4453 118.6238)" /> 
  <path
     style="fill:none;stroke:#000000;stroke-width:1px;stroke-linecap:butt;stroke-linejoin:miter;stroke-opacity:1"
     d="m 72.4453,116.6238 2,2 -2,2 m -2.370121,-4 2,2 -2,2"
     transform="rotate(-88.5258 72.4453 118.6238)"/>
  <line x1="72.1518" y1="129.9396" x2="104.8184" y2="130.8384" stroke="#2d0032" stroke-width="1.0" />
  <line x1="72.2206" y1="127.4405" x2="104.8871" y2="128.3394" stroke="#2d0032" stroke-width="1.0" />
  <line x1="72.1862" y1="128.6901" x2="104.1044" y2="149.8134" stroke="#eda600" stroke-width="1.0" />
  <rect
     style="fill:#ffffff;stroke:none"
     width="5.5"
     height="2"
     x="85.3953"
     y="138.2517" 
     transform="rotate(33.4965 88.1453 139.2517)"    /> 
  <path
     style="fill:none;stroke:#eda600;stroke-width:1px;stroke-linecap:butt;stroke-linejoin:miter;stroke-opacity:1"
    d="m 88.8953,137.2517 2,2 -2,2 m -1.5,-4 -2,2 2,2" transform="rotate(33.4965 88.1453 139.2517)"/>
  <line x1="72.6842" y1="109.8074" x2="105.3293" y2="110.3347" stroke="#2d0032" stroke-width="1.0" />
  <line x1="72.7245" y1="107.3077" x2="105.3697" y2="107.8351" stroke="#2d0032" stroke-width="1.0" />
  <line x1="72.8598" y1="88.4111" x2="72.6980" y2="68.2558" stroke="#000000" stroke-width="1.0" />
  <rect
     style="fill:#ffffff;fill-opacity:1;fill-rule:nonzero;stroke:none"
     width="2"
     height="2"
     x="72.2789"
     y="77.3334"
     transform="rotate(269.5398 72.7789 78.3334)" /> 
  <path
     style="fill:none;stroke:#000000;stroke-width:1px;stroke-linecap:butt;stroke-linejoin:miter;stroke-opacity:1"
     d="m 72.7789,76.3334 2,2 -2,2 m -2.370121,-4 2,2 -2,2"
     transform="rotate(269.5398 72.7789 78.3334)"/>
  <line x1="72.8604" y1="89.6611" x2="105.5339" y2="89.6470" stroke="#270026" stroke-width="1.0" />
  <line x1="72.8593" y1="87.1611" x2="105.5328" y2="87.1470" stroke="#270026" stroke-width="1.0" />
  <line x1="72.8598" y1="88.4111" x2="105.3495" y2="109.0849" stroke="#000000" stroke-width="1.0" />
  <rect
     style="fill:#ffffff;stroke:none"
     width="5.5"
     height="2"
     x="86.3547"
     y="97.7480" 
     transform="rotate(32.4694 89.1047 98.7480)"    /> 
  <path
     style="fill:none;stroke:#000000;stroke-width:1px;stroke-linecap:butt;stroke-linejoin:miter;stroke-opacity:1"
    d="m 89.8547,96.7480 2,2 -2,2 m -1.5,-4 -2,2 2,2" transform="rotate(32.4694 89.1047 98.7480)"/>
  <line x1="72.7197" y1="69.5056" x2="105.3776" y2="68.9377" stroke="#17000d" stroke-width="1.0" />
  <line x1="72.6762" y1="67.0059" x2="105.3341" y2="66.4381" stroke="#17000d" stroke-width="1.0" />
  <line x1="72.1376" y1="47.8974" x2="104.7589" y2="46.6506" stroke="#d55800" stroke-width="1.0" />
  <path d="M 82.6983 49.5240 L 82.6983 45.0240 L 87.1983 45.0240 L 87.1983 49.5240 z" style="stroke:#d55800;stroke-width:1.0" fill="#ffffff" 
    transform="rotate(177.8113 88.4483 47.2740)"/>
  <path d="M 90.1983 49.5240 L 90.1983 45.0240 L 94.1983 47.2740 z" style="stroke:#d55800;stroke-width:1.0" fill="#ffffff"
    transform="rotate(177.8113 88.4483 47.2740)"/>
  <line x1="72.1376" y1="47.8974" x2="105.3558" y2="67.6879" stroke="#d75b00" stroke-width="1.0" />
  <rect
     style="fill:#ffffff;stroke:none"
     width="5.5"
     height="2"
     x="85.9967"
     y="56.7926" 
     transform="rotate(30.7854 88.7467 57.7926)"    /> 
  <path
     style="fill:none;stroke:#d75b00;stroke-width:1px;stroke-linecap:butt;stroke-linejoin:miter;stroke-opacity:1"
    d="m 89.4967,55.7926 2,2 -2,2 m -1.5,-4 -2,2 2,2" transform="rotate(30.7854 88.7467 57.7926)"/>
  <line x1="87.9620" y1="35.7203" x2="104.7589" y2="46.6506" stroke="#5d01be" stroke-width="1.0" />
  <rect
     style="fill:#ffffff;fill-opacity:1;fill-rule:nonzero;stroke:none"
     width="2"
     height="2"
     x="95.8605"
     y="40.1854"
     transform="rotate(33.0536 96.3605 41.1854)" /> 
  <path
     style="fill:none;stroke:#5d01be;stroke-width:1px;stroke-linecap:butt;stroke-linejoin:miter;stroke-opacity:1"
     d="m 96.3605,39.1854 2,2 -2,2 m -2.370121,-4 2,2 -2,2"
     transform="rotate(33.0536 96.3605 41.1854)"/>
  <line x1="104.7589" y1="46.6506" x2="105.3558" y2="67.6879" stroke="#a31289" stroke-width="1.0" />
  <rect
     style="fill:#ffffff;fill-opacity:1;fill-rule:nonzero;stroke:none"
     width="2"
     height="2"
     x="104.5574"
     y="56.1693"
     transform="rotate(88.3747 105.0574 57.1693)" /> 
  <path
     style="fill:none;stroke:#a31289;stroke-width:1px;stroke-linecap:butt;stroke-linejoin:miter;stroke-opacity:1"
     d="m 105.0574,55.1693 2,2 -2,2 m -2.370121,-4 2,2 -2,2"
     transform="rotate(88.3747 105.0574 57.1693)"/>
  <line x1="105.3558" y1="67.6879" x2="105.5333" y2="88.3970" stroke="#000000" stroke-width="1.0" />
  <rect
     style="fill:#ffffff;fill-opacity:1;fill-rule:nonzero;stroke:none"
     width="2"
     height="2"
     x="104.9446"
     y="77.0424"
     transform="rotate(89.5090 105.4446 78.0424)" /> 
  <path
     style="fill:none;stroke:#000000;stroke-width:1px;stroke-linecap:butt;stroke-linejoin:miter;stroke-opacity:1"
     d="m 105.4446,76.0424 2,2 -2,2 m -2.370121,-4 2,2 -2,2"
     transform="rotate(89.5090 105.4446 78.0424)"/>
  <line x1="105.3495" y1="109.0849" x2="104.8527" y2="129.5889" stroke="#000000" stroke-width="1.0" />
  <rect
     style="fill:#ffffff;fill-opacity:1;fill-rule:nonzero;stroke:none"
     width="2"
     height="2"
     x="104.6011"
     y="118.3369"
     transform="rotate(91.3878 105.1011 119.3369)" /> 
  <path
     style="fill:none;stroke:#000000;stroke-width:1px;stroke-linecap:butt;stroke-linejoin:miter;stroke-opacity:1"
     d="m 105.1011,117.3369 2,2 -2,2 m -2.370121,-4 2,2 -2,2"
     transform="rotate(91.3878 105.1011 119.3369)"/>
  <line x1="104.8527" y1="129.5889" x2="104.1044" y2="149.8134" stroke="#ae1a38" stroke-width="1.0" />
  <rect
     style="fill:#ffffff;fill-opacity:1;fill-rule:nonzero;stroke:none"
     width="2"
     height="2"
     x="103.9786"
     y="138.7012"
     transform="rotate(92.1192 104.4786 139.7012)" /> 
  <path
     style="fill:none;stroke:#ae1a38;stroke-width:1px;stroke-linecap:butt;stroke-linejoin:miter;stroke-opacity:1"
     d="m 104.4786,137.7012 2,2 -2,2 m -2.370121,-4 2,2 -2,2"
     transform="rotate(92.1192 104.4786 139.7012)"/>
<circle cx="71.4605" cy="148.7916" r="5.0" stroke="#595959" stroke-width="1.0" fill="#ffffff"/>
<text x="71.4605" y="151.4916" text-anchor="middle" font-family="Helvetica" font-size="7.5" fill="#000000" >G</text>
<circle cx="72.1862" cy="128.6901" r="5.0" stroke="#595959" stroke-width="1.0" fill="#ffffff"/>
<text x="72.1862" y="131.3901" text-anchor="middle" font-family="Helvetica" font-size="7.5" fill="#000000" >G</text>
<circle cx="72.7043" cy="108.5575" r="5.0" stroke="#595959" stroke-width="1.0" fill="#ffffff"/>
<text x="72.7043" y="111.2575" text-anchor="middle" font-family="Helvetica" font-size="7.5" fill="#000000" >C</text>
<circle cx="72.8598" cy="88.4111" r="5.0" stroke="#595959" stroke-width="1.0" fill="#ffffff"/>
<text x="72.8598" y="91.1111" text-anchor="middle" font-family="Helvetica" font-size="7.5" fill="#000000" >G</text>
<circle cx="72.6980" cy="68.2558" r="5.0" stroke="#595959" stroke-width="1.0" fill="#ffffff"/>
<text x="72.6980" y="70.9558" text-anchor="middle" font-family="Helvetica" font-size="7.5" fill="#000000" >C</text>
<circle cx="72.1376" cy="47.8974" r="5.0" stroke="#595959" stroke-width="1.0" fill="#ffffff"/>
<text x="72.1376" y="50.5974" text-anchor="middle" font-family="Helvetica" font-size="7.5" fill="#000000" >A</text>
<circle cx="87.9620" cy="35.7203" r="5.0" stroke="#595959" stroke-width="1.0" fill="#ffffff"/>
<text x="87.9620" y="38.4203" text-anchor="middle" font-family="Helvetica" font-size="7.5" fill="#000000" >U</text>
<circle cx="104.7589" cy="46.6506" r="5.0" stroke="#595959" stroke-width="1.0" fill="#ffffff"/>
<text x="104.7589" y="49.3506" text-anchor="middle" font-family="Helvetica" font-size="7.5" fill="#000000" >C</text>
<circle cx="122.0368" cy="56.4536" r="5.0" stroke="#595959" stroke-width="1.0" fill="#ffffff"/>
<text x="122.0368" y="59.1536" text-anchor="middle" font-family="Helvetica" font-size="7.5" fill="#000000" >G</text>
<circle cx="105.3558" cy="67.6879" r="5.0" stroke="#595959" stroke-width="1.0" fill="#ffffff"/>
<text x="105.3558" y="70.3879" text-anchor="middle" font-family="Helvetica" font-size="7.5" fill="#000000" >G</text>
<circle cx="105.5333" cy="88.3970" r="5.0" stroke="#595959" stroke-width="1.0" fill="#ffffff"/>
<text x="105.5333" y="91.0970" text-anchor="middle" font-family="Helvetica" font-size="7.5" fill="#000000" >C</text>
<circle cx="105.3495" cy="109.0849" r="5.0" stroke="#595959" stroke-width="1.0" fill="#ffffff"/>
<text x="105.3495" y="111.7849" text-anchor="middle" font-family="Helvetica" font-size="7.5" fill="#000000" >G</text>
<circle cx="104.8527" cy="129.5889" r="5.0" stroke="#595959" stroke-width="1.0" fill="#ffffff"/>
<text x="104.8527" y="132.2889" text-anchor="middle" font-family="Helvetica" font-size="7.5" fill="#000000" >C</text>
<circle cx="104.1044" cy="149.8134" r="5.0" stroke="#595959" stroke-width="1.0" fill="#ffffff"/>
<text x="104.1044" y="152.5134" text-anchor="middle" font-family="Helvetica" font-size="7.5" fill="#000000" >C</text>
</svg>