<?xml version="1.0" encoding="UTF-8"?>
<!DOCTYPE svg PUBLIC "-//W3C//DTD SVG 1.1//EN" 
"http://www.w3.org/Graphics/SVG/1.1/DTD/svg11.dtd">

<svg version="1.1"
   width="182px"
   height="182px"
xmlns="http://www.w3.org/2000/svg">
    <rect width="100%" height="100%" fill="white"/>

  <line x1="73.9197" y1="110.4004" x2="74.0854" y2="90.4368" stroke="#595959"
     style="stroke-width:2;stroke-miterlimit:4;stroke-dasharray:1,1;stroke-dashoffset:0" />
  <line x1="73.9316" y1="70.4842" x2="72.4972" y2="50.5889" stroke="#595959"
     style="stroke-width:2;stroke-miterlimit:4;stroke-dasharray:1,1;stroke-dashoffset:0" />
  <line x1="82.6758" y1="33.4157" x2="102.6331" y2="34.2696" stroke="#595959"
     style="stroke-width:2;stroke-miterlimit:4;stroke-dasharray:1,1;stroke-dashoffset:0" />
  <line x1="113.1383" y1="51.2627" x2="106.9174" y2="70.2801" stroke="#595959"
     style="stroke-width:2;stroke-miterlimit:4;stroke-dasharray:1,1;stroke-dashoffset:0" />
  <line x1="107.0164" y1="90.3990" x2="106.9293" y2="110.5168" stroke="#595959"
     style="stroke-width:2;stroke-miterlimit:4;stroke-dasharray:1,1;stroke-dashoffset:0" />
  <line x1="73.4328" y1="150.3795" x2="73.7209" y2="130.3844" stroke="#d14c00" stroke-width="1.0" />
  <rect
     style="fill:#ffffff;fill-opacity:1;fill-rule:nonzero;stroke:none"
     width="2"
     height="2"
     x="73.0769"
     y="139.3819"
     transform="rotate(-89.1744 73.5769 140.3819)" /> 
  <path
     style="fill:none;stroke:#d14c00;stroke-width:1px;stroke-linecap:butt;stroke-linejoin:miter;stroke-opacity:1"
     d="m 73.5769,138.3819 2,2 -2,2 m -2.370121,-4 2,2 -2,2"
     transform="rotate(-89.1744 73.5769 140.3819)"/>
  <line x1="73.4244" y1="151.6294" x2="106.3902" y2="151.8514" stroke="#33003e" stroke-width="1.0" />
  <line x1="73.4412" y1="149.1295" x2="106.4071" y2="149.3515" stroke="#33003e" stroke-width="1.0" />
  <line x1="73.7209" y1="130.3844" x2="73.9197" y2="110.4004" stroke="#000000" stroke-width="1.0" />
  <rect
     style="fill:#ffffff;fill-opacity:1;fill-rule:nonzero;stroke:none"
     width="2"
     height="2"
     x="73.3203"
     y="119.3924"
     transform="rotate(-89.4301 73.8203 120.3924)" /> 
  <path
     style="fill:none;stroke:#000000;stroke-width:1px;stroke-linecap:butt;stroke-linejoin:miter;stroke-opacity:1"
     d="m 73.8203,118.3924 2,2 -2,2 m -2.370121,-4 2,2 -2,2"
     transform="rotate(-89.4301 73.8203 120.3924)"/>
  <line x1="73.7135" y1="131.6344" x2="106.6961" y2="131.8305" stroke="#33003e" stroke-width="1.0" />
  <line x1="73.7284" y1="129.1345" x2="106.7109" y2="129.3306" stroke="#33003e" stroke-width="1.0" />
  <line x1="73.7209" y1="130.3844" x2="106.3986" y2="150.6014" stroke="#e58400" stroke-width="1.0" />
  <rect
     style="fill:#ffffff;stroke:none"
     width="5.5"
     height="2"
     x="87.3098"
     y="139.4929" 
     transform="rotate(31.7442 90.0598 140.4929)"    /> 
  <path
     style="fill:none;stroke:#e58400;stroke-width:1px;stroke-linecap:butt;stroke-linejoin:miter;stroke-opacity:1"
    d="m 90.8098,138.4929 2,2 -2,2 m -1.5,-4 -2,2 2,2" transform="rotate(31.7442 90.0598 140.4929)"/>
  <line x1="73.9153" y1="111.6504" x2="106.9249" y2="111.7668" stroke="#33003e" stroke-width="1.0" />
  <line x1="73.9241" y1="109.1504" x2="106.9337" y2="109.2668" stroke="#33003e" stroke-width="1.0" />
  <line x1="74.0854" y1="90.4368" x2="73.9316" y2="70.4842" stroke="#000000" stroke-width="1.0" />
  <rect
     style="fill:#ffffff;fill-opacity:1;fill-rule:nonzero;stroke:none"
     width="2"
     height="2"
     x="73.5085"
     y="79.4605"
     transform="rotate(269.5584 74.0085 80.4605)" /> 
  <path
     style="fill:none;stroke:#000000;stroke-width:1px;stroke-linecap:butt;stroke-linejoin:miter;stroke-opacity:1"
     d="m 74.0085,78.4605 2,2 -2,2 m -2.370121,-4 2,2 -2,2"
     transform="rotate(269.5584 74.0085 80.4605)"/>
  <line x1="74.0868" y1="91.6868" x2="107.0178" y2="91.6490" stroke="#400062" stroke-width="1.0" />
  <line x1="74.0840" y1="89.1868" x2="107.0150" y2="89.1490" stroke="#400062" stroke-width="1.0" />
  <line x1="74.0854" y1="90.4368" x2="106.9293" y2="110.5168" stroke="#17000d" stroke-width="1.0" />
  <rect
     style="fill:#ffffff;stroke:none"
     width="5.5"
     height="2"
     x="87.7573"
     y="99.4768" 
     transform="rotate(31.4407 90.5073 100.4768)"    /> 
  <path
     style="fill:none;stroke:#17000d;stroke-width:1px;stroke-linecap:butt;stroke-linejoin:miter;stroke-opacity:1"
    d="m 91.2573,98.4768 2,2 -2,2 m -1.5,-4 -2,2 2,2" transform="rotate(31.4407 90.5073 100.4768)"/>
  <line x1="73.9393" y1="71.7342" x2="106.9251" y2="71.5301" stroke="#270026" stroke-width="1.0" />
  <line x1="73.9239" y1="69.2342" x2="106.9096" y2="69.0301" stroke="#270026" stroke-width="1.0" />
  <line x1="72.4972" y1="50.5889" x2="82.6758" y2="33.4157" stroke="#2d0032" stroke-width="1.0" />
  <rect
     style="fill:#ffffff;fill-opacity:1;fill-rule:nonzero;stroke:none"
     width="2"
     height="2"
     x="77.0865"
     y="41.0023"
     transform="rotate(-59.3444 77.5865 42.0023)" /> 
  <path
     style="fill:none;stroke:#2d0032;stroke-width:1px;stroke-linecap:butt;stroke-linejoin:miter;stroke-opacity:1"
     d="m 77.5865,40.0023 2,2 -2,2 m -2.370121,-4 2,2 -2,2"
     transform="rotate(-59.3444 77.5865 42.0023)"/>
  <line x1="72.4972" y1="50.5889" x2="106.9174" y2="70.2801" stroke="#b62200" stroke-width="1.0" />
  <rect
     style="fill:#ffffff;stroke:none"
     width="5.5"
     height="2"
     x="86.9573"
     y="59.4345" 
     transform="rotate(29.7731 89.7073 60.4345)"    /> 
  <path
     style="fill:none;stroke:#b62200;stroke-width:1px;stroke-linecap:butt;stroke-linejoin:miter;stroke-opacity:1"
    d="m 90.4573,58.4345 2,2 -2,2 m -1.5,-4 -2,2 2,2" transform="rotate(29.7731 89.7073 60.4345)"/>
  <line x1="102.6331" y1="34.2696" x2="113.1383" y2="51.2627" stroke="#a21194" stroke-width="1.0" />
  <rect
     style="fill:#ffffff;fill-opacity:1;fill-rule:nonzero;stroke:none"
     width="2"
     height="2"
     x="107.3857"
     y="41.7661"
     transform="rotate(58.2754 107.8857 42.7661)" /> 
  <path
     style="fill:none;stroke:#a21194;stroke-width:1px;stroke-linecap:butt;stroke-linejoin:miter;stroke-opacity:1"
     d="m 107.8857,40.7661 2,2 -2,2 m -2.370121,-4 2,2 -2,2"
     transform="rotate(58.2754 107.8857 42.7661)"/>
  <line x1="106.9174" y1="70.2801" x2="107.0164" y2="90.3990" stroke="#000000" stroke-width="1.0" />
  <rect
     style="fill:#ffffff;fill-opacity:1;fill-rule:nonzero;stroke:none"
     width="2"
     height="2"
     x="106.4669"
     y="79.3395"
     transform="rotate(89.7180 106.9669 80.3395)" /> 
  <path
     style="fill:none;stroke:#000000;stroke-width:1px;stroke-linecap:butt;stroke-linejoin:miter;stroke-opacity:1"
     d="m 106.9669,78.3395 2,2 -2,2 m -2.370121,-4 2,2 -2,2"
     transform="rotate(89.7180 106.9669 80.3395)"/>
  <line x1="106.9293" y1="110.5168" x2="106.7035" y2="130.5805" stroke="#000000" stroke-width="1.0" />
  <rect
     style="fill:#ffffff;fill-opacity:1;fill-rule:nonzero;stroke:none"
     width="2"
     height="2"
     x="106.3164"
     y="119.5487"
     transform="rotate(90.6447 106.8164 120.5487)" /> 
  <path
     style="fill:none;stroke:#000000;stroke-width:1px;stroke-linecap:butt;stroke-linejoin:miter;stroke-opacity:1"
     d="m 106.8164,118.5487 2,2 -2,2 m -2.370121,-4 2,2 -2,2"
     transform="rotate(90.6447 106.8164 120.5487)"/>
  <line x1="106.7035" y1="130.5805" x2="106.3986" y2="150.6014" stroke="#b82400" stroke-width="1.0" />
  <rect
     style="fill:#ffffff;fill-opacity:1;fill-rule:nonzero;stroke:none"
     width="2"
     height="2"
     x="106.0511"
     y="139.5910"
     transform="rotate(90.8724 106.5511 140.5910)" /> 
  <path
     style="fill:none;stroke:#b82400;stroke-width:1px;stroke-linecap:butt;stroke-linejoin:miter;stroke-opacity:1"
     d="m 106.5511,138.5910 2,2 -2,2 m -2.370121,-4 2,2 -2,2"
     transform="rotate(90.8724 106.5511 140.5910)"/>
<circle cx="73.4328" cy="150.3795" r="5.0" stroke="#595959" stroke-width="1.0" fill="#ffffff"/>
<text x="73.4328" y="153.0795" text-anchor="middle" font-family="Helvetica" font-size="7.5" fill="#000000" >G</text>
<circle cx="73.7209" cy="130.3844" r="5.0" stroke="#595959" stroke-width="1.0" fill="#ffffff"/>
<text x="73.7209" y="133.0844" text-anchor="middle" font-family="Helvetica" font-size="7.5" fill="#000000" >G</text>
<circle cx="73.9197" cy="110.4004" r="5.0" stroke="#595959" stroke-width="1.0" fill="#ffffff"/>
<text x="73.9197" y="113.1004" text-anchor="middle" font-family="Helvetica" font-size="7.5" fill="#000000" >C</text>
<circle cx="74.0854" cy="90.4368" r="5.0" stroke="#595959" stroke-width="1.0" fill="#ffffff"/>
<text x="74.0854" y="93.1368" text-anchor="middle" font-family="Helvetica" font-size="7.5" fill="#000000" >G</text>
<circle cx="73.9316" cy="70.4842" r="5.0" stroke="#595959" stroke-width="1.0" fill="#ffffff"/>
<text x="73.9316" y="73.1842" text-anchor="middle" font-family="Helvetica" font-size="7.5" fill="#000000" >C</text>
<circle cx="72.4972" cy="50.5889" r="5.0" stroke="#595959" stroke-width="1.0" fill="#ffffff"/>
<text x="72.4972" y="53.2889" text-anchor="middle" font-family="Helvetica" font-size="7.5" fill="#000000" >A</text>
<circle cx="82.6758" cy="33.4157" r="5.0" stroke="#595959" stroke-width="1.0" fill="#ffffff"/>
<text x="82.6758" y="36.1157" text-anchor="middle" font-family="Helvetica" font-size="7.5" fill="#000000" >U</text>
<circle cx="102.6331" cy="34.2696" r="5.0" stroke="#595959" stroke-width="1.0" fill="#ffffff"/>
<text x="102.6331" y="36.9696" text-anchor="middle" font-family="Helvetica" font-size="7.5" fill="#000000" >C</text>
<circle cx="113.1383" cy="51.2627" r="5.0" stroke="#595959" stroke-width="1.0" fill="#ffffff"/>
<text x="113.1383" y="53.9627" text-anchor="middle" font-family="Helvetica" font-size="7.5" fill="#000000" >G</text>
<circle cx="106.9174" cy="70.2801" r="5.0" stroke="#595959" stroke-width="1.0" fill="#ffffff"/>
<text x="106.9174" y="72.9801" text-anchor="middle" font-family="Helvetica" font-size="7.5" fill="#000000" >G</text>
<circle cx="107.0164" cy="90.3990" r="5.0" stroke="#595959" stroke-width="1.0" fill="#ffffff"/>
<text x="107.0164" y="93.0990" text-anchor="middle" font-family="Helvetica" font-size="7.5" fill="#000000" >C</text>
<circle cx="106.9293" cy="110.5168" r="5.0" stroke="#595959" stroke-width="1.0" fill="#ffffff"/>
<text x="106.9293" y="113.2168" text-anchor="middle" font-family="Helvetica" font-size="7.5" fill="#000000" >G</text>
<circle cx="106.7035" cy="130.5805" r="5.0" stroke="#595959" stroke-width="1.0" fill="#ffffff"/>
<text x="106.7035" y="133.2805" text-anchor="middle" font-family="Helvetica" font-size="7.5" fill="#000000" >C</text>
<circle cx="106.3986" cy="150.6014" r="5.0" stroke="#595959" stroke-width="1.0" fill="#ffffff"/>
<text x="106.3986" y="153.3014" text-anchor="middle" font-family="Helvetica" font-size="7.5" fill="#000000" >C</text>
</svg>