<?xml version="1.0" encoding="UTF-8"?>
<!DOCTYPE svg PUBLIC "-//W3C//DTD SVG 1.1//EN" 
"http://www.w3.org/Graphics/SVG/1.1/DTD/svg11.dtd">

<svg version="1.1"
   width="182px"
   height="182px"
xmlns="http://www.w3.org/2000/svg">
    <rect width="100%" height="100%" fill="white"/>

  <line x1="73.7450" y1="110.3935" x2="73.8821" y2="90.4351" stroke="#595959"
     style="stroke-width:2;stroke-miterlimit:4;stroke-dasharray:1,1;stroke-dashoffset:0" />
  <line x1="73.7815" y1="70.4951" x2="73.8890" y2="50.5644" stroke="#595959"
     style="stroke-width:2;stroke-miterlimit:4;stroke-dasharray:1,1;stroke-dashoffset:0" />
  <line x1="83.4281" y1="33.0353" x2="103.3654" y2="34.2162" stroke="#595959"
     style="stroke-width:2;stroke-miterlimit:4;stroke-dasharray:1,1;stroke-dashoffset:0" />
  <line x1="113.4186" y1="51.4803" x2="106.5298" y2="70.2778" stroke="#595959"
     style="stroke-width:2;stroke-miterlimit:4;stroke-dasharray:1,1;stroke-dashoffset:0" />
  <line x1="106.6668" y1="90.4557" x2="106.5663" y2="110.5845" stroke="#595959"
     style="stroke-width:2;stroke-miterlimit:4;stroke-dasharray:1,1;stroke-dashoffset:0" />
  <line x1="73.0700" y1="150.3504" x2="73.4349" y2="130.3644" stroke="#cf4a00" stroke-width="1.0" />
  <rect
     style="fill:#ffffff;fill-opacity:1;fill-rule:nonzero;stroke:none"
     width="2"
     height="2"
     x="72.7524"
     y="139.3574"
     transform="rotate(-88.9540 73.2524 140.3574)" /> 
  <path
     style="fill:none;stroke:#cf4a00;stroke-width:1px;stroke-linecap:butt;stroke-linejoin:miter;stroke-opacity:1"
     d="m 73.2524,138.3574 2,2 -2,2 m -2.370121,-4 2,2 -2,2"
     transform="rotate(-88.9540 73.2524 140.3574)"/>
  <line x1="73.0572" y1="151.6003" x2="105.9100" y2="151.9360" stroke="#3c0057" stroke-width="1.0" />
  <line x1="73.0827" y1="149.1005" x2="105.9355" y2="149.4362" stroke="#3c0057" stroke-width="1.0" />
  <line x1="73.4349" y1="130.3644" x2="73.7450" y2="110.3935" stroke="#000000" stroke-width="1.0" />
  <rect
     style="fill:#ffffff;fill-opacity:1;fill-rule:nonzero;stroke:none"
     width="2"
     height="2"
     x="73.0899"
     y="119.3790"
     transform="rotate(-89.1102 73.5899 120.3790)" /> 
  <path
     style="fill:none;stroke:#000000;stroke-width:1px;stroke-linecap:butt;stroke-linejoin:miter;stroke-opacity:1"
     d="m 73.5899,118.3790 2,2 -2,2 m -2.370121,-4 2,2 -2,2"
     transform="rotate(-89.1102 73.5899 120.3790)"/>
  <line x1="73.4236" y1="131.6144" x2="106.2885" y2="131.9109" stroke="#270026" stroke-width="1.0" />
  <line x1="73.4461" y1="129.1145" x2="106.3111" y2="129.4110" stroke="#270026" stroke-width="1.0" />
  <line x1="73.4349" y1="130.3644" x2="105.9227" y2="150.6861" stroke="#e27c00" stroke-width="1.0" />
  <rect
     style="fill:#ffffff;stroke:none"
     width="5.5"
     height="2"
     x="86.9288"
     y="139.5253" 
     transform="rotate(32.0266 89.6788 140.5253)"    /> 
  <path
     style="fill:none;stroke:#e27c00;stroke-width:1px;stroke-linecap:butt;stroke-linejoin:miter;stroke-opacity:1"
    d="m 90.4288,138.5253 2,2 -2,2 m -1.5,-4 -2,2 2,2" transform="rotate(32.0266 89.6788 140.5253)"/>
  <line x1="73.7378" y1="111.6435" x2="106.5590" y2="111.8345" stroke="#33003e" stroke-width="1.0" />
  <line x1="73.7523" y1="109.1435" x2="106.5735" y2="109.3346" stroke="#33003e" stroke-width="1.0" />
  <line x1="73.8821" y1="90.4351" x2="73.7815" y2="70.4951" stroke="#000000" stroke-width="1.0" />
  <rect
     style="fill:#ffffff;fill-opacity:1;fill-rule:nonzero;stroke:none"
     width="2"
     height="2"
     x="73.3318"
     y="79.4651"
     transform="rotate(269.7110 73.8318 80.4651)" /> 
  <path
     style="fill:none;stroke:#000000;stroke-width:1px;stroke-linecap:butt;stroke-linejoin:miter;stroke-opacity:1"
     d="m 73.8318,78.4651 2,2 -2,2 m -2.370121,-4 2,2 -2,2"
     transform="rotate(269.7110 73.8318 80.4651)"/>
  <line x1="73.8813" y1="91.6851" x2="106.6660" y2="91.7057" stroke="#2d0032" stroke-width="1.0" />
  <line x1="73.8829" y1="89.1851" x2="106.6676" y2="89.2057" stroke="#2d0032" stroke-width="1.0" />
  <line x1="73.8821" y1="90.4351" x2="106.5663" y2="110.5845" stroke="#000000" stroke-width="1.0" />
  <rect
     style="fill:#ffffff;stroke:none"
     width="5.5"
     height="2"
     x="87.4742"
     y="99.5098" 
     transform="rotate(31.6534 90.2242 100.5098)"    /> 
  <path
     style="fill:none;stroke:#000000;stroke-width:1px;stroke-linecap:butt;stroke-linejoin:miter;stroke-opacity:1"
    d="m 90.9742,98.5098 2,2 -2,2 m -1.5,-4 -2,2 2,2" transform="rotate(31.6534 90.2242 100.5098)"/>
  <line x1="73.7898" y1="71.7451" x2="106.5381" y2="71.5278" stroke="#270026" stroke-width="1.0" />
  <line x1="73.7732" y1="69.2452" x2="106.5215" y2="69.0279" stroke="#270026" stroke-width="1.0" />
  <line x1="73.8890" y1="50.5644" x2="83.4281" y2="33.0353" stroke="#000000" stroke-width="1.0" />
  <rect
     style="fill:#ffffff;fill-opacity:1;fill-rule:nonzero;stroke:none"
     width="2"
     height="2"
     x="78.1586"
     y="40.7999"
     transform="rotate(-61.4456 78.6586 41.7999)" /> 
  <path
     style="fill:none;stroke:#000000;stroke-width:1px;stroke-linecap:butt;stroke-linejoin:miter;stroke-opacity:1"
     d="m 78.6586,39.7999 2,2 -2,2 m -2.370121,-4 2,2 -2,2"
     transform="rotate(-61.4456 78.6586 41.7999)"/>
  <line x1="73.8890" y1="50.5644" x2="106.5298" y2="70.2778" stroke="#8204ff" stroke-width="1.0" />
  <rect
     style="fill:#ffffff;stroke:none"
     width="5.5"
     height="2"
     x="87.4594"
     y="59.4211" 
     transform="rotate(31.1300 90.2094 60.4211)"    /> 
  <path
     style="fill:none;stroke:#8204ff;stroke-width:1px;stroke-linecap:butt;stroke-linejoin:miter;stroke-opacity:1"
    d="m 90.9594,58.4211 2,2 -2,2 m -1.5,-4 -2,2 2,2" transform="rotate(31.1300 90.2094 60.4211)"/>
  <line x1="103.3654" y1="34.2162" x2="113.4186" y2="51.4803" stroke="#9109e5" stroke-width="1.0" />
  <rect
     style="fill:#ffffff;fill-opacity:1;fill-rule:nonzero;stroke:none"
     width="2"
     height="2"
     x="107.8920"
     y="41.8483"
     transform="rotate(59.7868 108.3920 42.8483)" /> 
  <path
     style="fill:none;stroke:#9109e5;stroke-width:1px;stroke-linecap:butt;stroke-linejoin:miter;stroke-opacity:1"
     d="m 108.3920,40.8483 2,2 -2,2 m -2.370121,-4 2,2 -2,2"
     transform="rotate(59.7868 108.3920 42.8483)"/>
  <line x1="106.5298" y1="70.2778" x2="106.6668" y2="90.4557" stroke="#000000" stroke-width="1.0" />
  <rect
     style="fill:#ffffff;fill-opacity:1;fill-rule:nonzero;stroke:none"
     width="2"
     height="2"
     x="106.0983"
     y="79.3668"
     transform="rotate(89.6110 106.5983 80.3668)" /> 
  <path
     style="fill:none;stroke:#000000;stroke-width:1px;stroke-linecap:butt;stroke-linejoin:miter;stroke-opacity:1"
     d="m 106.5983,78.3668 2,2 -2,2 m -2.370121,-4 2,2 -2,2"
     transform="rotate(89.6110 106.5983 80.3668)"/>
  <line x1="106.5663" y1="110.5845" x2="106.2998" y2="130.6610" stroke="#000000" stroke-width="1.0" />
  <rect
     style="fill:#ffffff;fill-opacity:1;fill-rule:nonzero;stroke:none"
     width="2"
     height="2"
     x="105.9330"
     y="119.6228"
     transform="rotate(90.7604 106.4330 120.6228)" /> 
  <path
     style="fill:none;stroke:#000000;stroke-width:1px;stroke-linecap:butt;stroke-linejoin:miter;stroke-opacity:1"
     d="m 106.4330,118.6228 2,2 -2,2 m -2.370121,-4 2,2 -2,2"
     transform="rotate(90.7604 106.4330 120.6228)"/>
  <line x1="106.2998" y1="130.6610" x2="105.9227" y2="150.6861" stroke="#bd2b00" stroke-width="1.0" />
  <rect
     style="fill:#ffffff;fill-opacity:1;fill-rule:nonzero;stroke:none"
     width="2"
     height="2"
     x="105.6113"
     y="139.6735"
     transform="rotate(91.0787 106.1113 140.6735)" /> 
  <path
     style="fill:none;stroke:#bd2b00;stroke-width:1px;stroke-linecap:butt;stroke-linejoin:miter;stroke-opacity:1"
     d="m 106.1113,138.6735 2,2 -2,2 m -2.370121,-4 2,2 -2,2"
     transform="rotate(91.0787 106.1113 140.6735)"/>
<circle cx="73.0700" cy="150.3504" r="5.0" stroke="#595959" stroke-width="1.0" fill="#ffffff"/>
<text x="73.0700" y="153.0504" text-anchor="middle" font-family="Helvetica" font-size="7.5" fill="#000000" >G</text>
<circle cx="73.4349" cy="130.3644" r="5.0" stroke="#595959" stroke-width="1.0" fill="#ffffff"/>
<text x="73.4349" y="133.0644" text-anchor="middle" font-family="Helvetica" font-size="7.5" fill="#000000" >G</text>
<circle cx="73.7450" cy="110.3935" r="5.0" stroke="#595959" stroke-width="1.0" fill="#ffffff"/>
<text x="73.7450" y="113.0935" text-anchor="middle" font-family="Helvetica" font-size="7.5" fill="#000000" >C</text>
<circle cx="73.8821" cy="90.4351" r="5.0" stroke="#595959" stroke-width="1.0" fill="#ffffff"/>
<text x="73.8821" y="93.1351" text-anchor="middle" font-family="Helvetica" font-size="7.5" fill="#000000" >G</text>
<circle cx="73.7815" cy="70.4951" r="5.0" stroke="#595959" stroke-width="1.0" fill="#ffffff"/>
<text x="73.7815" y="73.1951" text-anchor="middle" font-family="Helvetica" font-size="7.5" fill="#000000" >C</text>
<circle cx="73.8890" cy="50.5644" r="5.0" stroke="#595959" stroke-width="1.0" fill="#ffffff"/>
<text x="73.8890" y="53.2644" text-anchor="middle" font-family="Helvetica" font-size="7.5" fill="#000000" >A</text>
<circle cx="83.4281" cy="33.0353" r="5.0" stroke="#595959" stroke-width="1.0" fill="#ffffff"/>
<text x="83.4281" y="35.7353" text-anchor="middle" font-family="Helvetica" font-size="7.5" fill="#000000" >U</text>
<circle cx="103.3654" cy="34.2162" r="5.0" stroke="#595959" stroke-width="1.0" fill="#ffffff"/>
<text x="103.3654" y="36.9162" text-anchor="middle" font-family="Helvetica" font-size="7.5" fill="#000000" >C</text>
<circle cx="113.4186" cy="51.4803" r="5.0" stroke="#595959" stroke-width="1.0" fill="#ffffff"/>
<text x="113.4186" y="54.1803" text-anchor="middle" font-family="Helvetica" font-size="7.5" fill="#000000" >G</text>
<circle cx="106.5298" cy="70.2778" r="5.0" stroke="#595959" stroke-width="1.0" fill="#ffffff"/>
<text x="106.5298" y="72.9778" text-anchor="middle" font-family="Helvetica" font-size="7.5" fill="#000000" >G</text>
<circle cx="106.6668" cy="90.4557" r="5.0" stroke="#595959" stroke-width="1.0" fill="#ffffff"/>
<text x="106.6668" y="93.1557" text-anchor="middle" font-family="Helvetica" font-size="7.5" fill="#000000" >C</text>
<circle cx="106.5663" cy="110.5845" r="5.0" stroke="#595959" stroke-width="1.0" fill="#ffffff"/>
<text x="106.5663" y="113.2845" text-anchor="middle" font-family="Helvetica" font-size="7.5" fill="#000000" >G</text>
<circle cx="106.2998" cy="130.6610" r="5.0" stroke="#595959" stroke-width="1.0" fill="#ffffff"/>
<text x="106.2998" y="133.3610" text-anchor="middle" font-family="Helvetica" font-size="7.5" fill="#000000" >C</text>
<circle cx="105.9227" cy="150.6861" r="5.0" stroke="#595959" stroke-width="1.0" fill="#ffffff"/>
<text x="105.9227" y="153.3861" text-anchor="middle" font-family="Helvetica" font-size="7.5" fill="#000000" >C</text>
</svg>