<?xml version="1.0" encoding="UTF-8"?>
<!DOCTYPE svg PUBLIC "-//W3C//DTD SVG 1.1//EN" 
"http://www.w3.org/Graphics/SVG/1.1/DTD/svg11.dtd">

<svg version="1.1"
   width="182px"
   height="182px"
xmlns="http://www.w3.org/2000/svg">
    <rect width="100%" height="100%" fill="white"/>

  <line x1="73.7786" y1="110.4003" x2="73.9763" y2="90.4524" stroke="#595959"
     style="stroke-width:2;stroke-miterlimit:4;stroke-dasharray:1,1;stroke-dashoffset:0" />
  <line x1="73.8204" y1="70.5027" x2="73.6424" y2="50.5635" stroke="#595959"
     style="stroke-width:2;stroke-miterlimit:4;stroke-dasharray:1,1;stroke-dashoffset:0" />
  <line x1="83.2215" y1="33.0497" x2="103.1654" y2="34.1352" stroke="#595959"
     style="stroke-width:2;stroke-miterlimit:4;stroke-dasharray:1,1;stroke-dashoffset:0" />
  <line x1="113.2208" y1="51.3993" x2="106.6181" y2="70.3007" stroke="#595959"
     style="stroke-width:2;stroke-miterlimit:4;stroke-dasharray:1,1;stroke-dashoffset:0" />
  <line x1="106.7599" y1="90.4577" x2="106.6598" y2="110.6003" stroke="#595959"
     style="stroke-width:2;stroke-miterlimit:4;stroke-dasharray:1,1;stroke-dashoffset:0" />
  <line x1="73.1837" y1="150.3700" x2="73.5044" y2="130.3856" stroke="#ce4700" stroke-width="1.0" />
  <rect
     style="fill:#ffffff;fill-opacity:1;fill-rule:nonzero;stroke:none"
     width="2"
     height="2"
     x="72.8441"
     y="139.3778"
     transform="rotate(-89.0806 73.3441 140.3778)" /> 
  <path
     style="fill:none;stroke:#ce4700;stroke-width:1px;stroke-linecap:butt;stroke-linejoin:miter;stroke-opacity:1"
     d="m 73.3441,138.3778 2,2 -2,2 m -2.370121,-4 2,2 -2,2"
     transform="rotate(-89.0806 73.3441 140.3778)"/>
  <line x1="73.1708" y1="151.6200" x2="106.0426" y2="151.9606" stroke="#3c0057" stroke-width="1.0" />
  <line x1="73.1967" y1="149.1201" x2="106.0685" y2="149.4607" stroke="#3c0057" stroke-width="1.0" />
  <line x1="73.5044" y1="130.3856" x2="73.7786" y2="110.4003" stroke="#000000" stroke-width="1.0" />
  <rect
     style="fill:#ffffff;fill-opacity:1;fill-rule:nonzero;stroke:none"
     width="2"
     height="2"
     x="73.1415"
     y="119.3929"
     transform="rotate(-89.2141 73.6415 120.3929)" /> 
  <path
     style="fill:none;stroke:#000000;stroke-width:1px;stroke-linecap:butt;stroke-linejoin:miter;stroke-opacity:1"
     d="m 73.6415,118.3929 2,2 -2,2 m -2.370121,-4 2,2 -2,2"
     transform="rotate(-89.2141 73.6415 120.3929)"/>
  <line x1="73.4935" y1="131.6355" x2="106.3821" y2="131.9220" stroke="#400062" stroke-width="1.0" />
  <line x1="73.5153" y1="129.1356" x2="106.4039" y2="129.4221" stroke="#400062" stroke-width="1.0" />
  <line x1="73.5044" y1="130.3856" x2="106.0556" y2="150.7106" stroke="#eb9d00" stroke-width="1.0" />
  <rect
     style="fill:#ffffff;stroke:none"
     width="5.5"
     height="2"
     x="87.0300"
     y="139.5481" 
     transform="rotate(31.9808 89.7800 140.5481)"    /> 
  <path
     style="fill:none;stroke:#eb9d00;stroke-width:1px;stroke-linecap:butt;stroke-linejoin:miter;stroke-opacity:1"
    d="m 90.5300,138.5481 2,2 -2,2 m -1.5,-4 -2,2 2,2" transform="rotate(31.9808 89.7800 140.5481)"/>
  <line x1="73.7710" y1="111.6503" x2="106.6522" y2="111.8503" stroke="#37004b" stroke-width="1.0" />
  <line x1="73.7862" y1="109.1503" x2="106.6674" y2="109.3504" stroke="#37004b" stroke-width="1.0" />
  <line x1="73.9763" y1="90.4524" x2="73.8204" y2="70.5027" stroke="#000000" stroke-width="1.0" />
  <rect
     style="fill:#ffffff;fill-opacity:1;fill-rule:nonzero;stroke:none"
     width="2"
     height="2"
     x="73.3983"
     y="79.4776"
     transform="rotate(269.5520 73.8983 80.4776)" /> 
  <path
     style="fill:none;stroke:#000000;stroke-width:1px;stroke-linecap:butt;stroke-linejoin:miter;stroke-opacity:1"
     d="m 73.8983,78.4776 2,2 -2,2 m -2.370121,-4 2,2 -2,2"
     transform="rotate(269.5520 73.8983 80.4776)"/>
  <line x1="73.9761" y1="91.7024" x2="106.7597" y2="91.7077" stroke="#33003e" stroke-width="1.0" />
  <line x1="73.9765" y1="89.2024" x2="106.7601" y2="89.2077" stroke="#33003e" stroke-width="1.0" />
  <line x1="73.9763" y1="90.4524" x2="106.6598" y2="110.6003" stroke="#17000d" stroke-width="1.0" />
  <rect
     style="fill:#ffffff;stroke:none"
     width="5.5"
     height="2"
     x="87.5681"
     y="99.5264" 
     transform="rotate(31.6520 90.3181 100.5264)"    /> 
  <path
     style="fill:none;stroke:#17000d;stroke-width:1px;stroke-linecap:butt;stroke-linejoin:miter;stroke-opacity:1"
    d="m 91.0681,98.5264 2,2 -2,2 m -1.5,-4 -2,2 2,2" transform="rotate(31.6520 90.3181 100.5264)"/>
  <line x1="73.8281" y1="71.7527" x2="106.6258" y2="71.5507" stroke="#270026" stroke-width="1.0" />
  <line x1="73.8127" y1="69.2527" x2="106.6104" y2="69.0507" stroke="#270026" stroke-width="1.0" />
  <line x1="73.6424" y1="50.5635" x2="83.2215" y2="33.0497" stroke="#000000" stroke-width="1.0" />
  <rect
     style="fill:#ffffff;fill-opacity:1;fill-rule:nonzero;stroke:none"
     width="2"
     height="2"
     x="77.9320"
     y="40.8066"
     transform="rotate(-61.3237 78.4320 41.8066)" /> 
  <path
     style="fill:none;stroke:#000000;stroke-width:1px;stroke-linecap:butt;stroke-linejoin:miter;stroke-opacity:1"
     d="m 78.4320,39.8066 2,2 -2,2 m -2.370121,-4 2,2 -2,2"
     transform="rotate(-61.3237 78.4320 41.8066)"/>
  <line x1="73.6424" y1="50.5635" x2="106.6181" y2="70.3007" stroke="#9309df" stroke-width="1.0" />
  <rect
     style="fill:#ffffff;stroke:none"
     width="5.5"
     height="2"
     x="87.3803"
     y="59.4321" 
     transform="rotate(30.9022 90.1303 60.4321)"    /> 
  <path
     style="fill:none;stroke:#9309df;stroke-width:1px;stroke-linecap:butt;stroke-linejoin:miter;stroke-opacity:1"
    d="m 90.8803,58.4321 2,2 -2,2 m -1.5,-4 -2,2 2,2" transform="rotate(30.9022 90.1303 60.4321)"/>
  <line x1="103.1654" y1="34.1352" x2="113.2208" y2="51.3993" stroke="#8806f9" stroke-width="1.0" />
  <rect
     style="fill:#ffffff;fill-opacity:1;fill-rule:nonzero;stroke:none"
     width="2"
     height="2"
     x="107.6931"
     y="41.7673"
     transform="rotate(59.7813 108.1931 42.7673)" /> 
  <path
     style="fill:none;stroke:#8806f9;stroke-width:1px;stroke-linecap:butt;stroke-linejoin:miter;stroke-opacity:1"
     d="m 108.1931,40.7673 2,2 -2,2 m -2.370121,-4 2,2 -2,2"
     transform="rotate(59.7813 108.1931 42.7673)"/>
  <line x1="106.6181" y1="70.3007" x2="106.7599" y2="90.4577" stroke="#000000" stroke-width="1.0" />
  <rect
     style="fill:#ffffff;fill-opacity:1;fill-rule:nonzero;stroke:none"
     width="2"
     height="2"
     x="106.1890"
     y="79.3792"
     transform="rotate(89.5969 106.6890 80.3792)" /> 
  <path
     style="fill:none;stroke:#000000;stroke-width:1px;stroke-linecap:butt;stroke-linejoin:miter;stroke-opacity:1"
     d="m 106.6890,78.3792 2,2 -2,2 m -2.370121,-4 2,2 -2,2"
     transform="rotate(89.5969 106.6890 80.3792)"/>
  <line x1="106.6598" y1="110.6003" x2="106.3930" y2="130.6720" stroke="#000000" stroke-width="1.0" />
  <rect
     style="fill:#ffffff;fill-opacity:1;fill-rule:nonzero;stroke:none"
     width="2"
     height="2"
     x="106.0264"
     y="119.6362"
     transform="rotate(90.7616 106.5264 120.6362)" /> 
  <path
     style="fill:none;stroke:#000000;stroke-width:1px;stroke-linecap:butt;stroke-linejoin:miter;stroke-opacity:1"
     d="m 106.5264,118.6362 2,2 -2,2 m -2.370121,-4 2,2 -2,2"
     transform="rotate(90.7616 106.5264 120.6362)"/>
  <line x1="106.3930" y1="130.6720" x2="106.0556" y2="150.7106" stroke="#bb2700" stroke-width="1.0" />
  <rect
     style="fill:#ffffff;fill-opacity:1;fill-rule:nonzero;stroke:none"
     width="2"
     height="2"
     x="105.7243"
     y="139.6913"
     transform="rotate(90.9648 106.2243 140.6913)" /> 
  <path
     style="fill:none;stroke:#bb2700;stroke-width:1px;stroke-linecap:butt;stroke-linejoin:miter;stroke-opacity:1"
     d="m 106.2243,138.6913 2,2 -2,2 m -2.370121,-4 2,2 -2,2"
     transform="rotate(90.9648 106.2243 140.6913)"/>
<circle cx="73.1837" cy="150.3700" r="5.0" stroke="#595959" stroke-width="1.0" fill="#ffffff"/>
<text x="73.1837" y="153.0700" text-anchor="middle" font-family="Helvetica" font-size="7.5" fill="#000000" >G</text>
<circle cx="73.5044" cy="130.3856" r="5.0" stroke="#595959" stroke-width="1.0" fill="#ffffff"/>
<text x="73.5044" y="133.0856" text-anchor="middle" font-family="Helvetica" font-size="7.5" fill="#000000" >G</text>
<circle cx="73.7786" cy="110.4003" r="5.0" stroke="#595959" stroke-width="1.0" fill="#ffffff"/>
<text x="73.7786" y="113.1003" text-anchor="middle" font-family="Helvetica" font-size="7.5" fill="#000000" >C</text>
<circle cx="73.9763" cy="90.4524" r="5.0" stroke="#595959" stroke-width="1.0" fill="#ffffff"/>
<text x="73.9763" y="93.1524" text-anchor="middle" font-family="Helvetica" font-size="7.5" fill="#000000" >G</text>
<circle cx="73.8204" cy="70.5027" r="5.0" stroke="#595959" stroke-width="1.0" fill="#ffffff"/>
<text x="73.8204" y="73.2027" text-anchor="middle" font-family="Helvetica" font-size="7.5" fill="#000000" >C</text>
<circle cx="73.6424" cy="50.5635" r="5.0" stroke="#595959" stroke-width="1.0" fill="#ffffff"/>
<text x="73.6424" y="53.2635" text-anchor="middle" font-family="Helvetica" font-size="7.5" fill="#000000" >A</text>
<circle cx="83.2215" cy="33.0497" r="5.0" stroke="#595959" stroke-width="1.0" fill="#ffffff"/>
<text x="83.2215" y="35.7497" text-anchor="middle" font-family="Helvetica" font-size="7.5" fill="#000000" >U</text>
<circle cx="103.1654" cy="34.1352" r="5.0" stroke="#595959" stroke-width="1.0" fill="#ffffff"/>
<text x="103.1654" y="36.8352" text-anchor="middle" font-family="Helvetica" font-size="7.5" fill="#000000" >C</text>
<circle cx="113.2208" cy="51.3993" r="5.0" stroke="#595959" stroke-width="1.0" fill="#ffffff"/>
<text x="113.2208" y="54.0993" text-anchor="middle" font-family="Helvetica" font-size="7.5" fill="#000000" >G</text>
<circle cx="106.6181" cy="70.3007" r="5.0" stroke="#595959" stroke-width="1.0" fill="#ffffff"/>
<text x="106.6181" y="73.0007" text-anchor="middle" font-family="Helvetica" font-size="7.5" fill="#000000" >G</text>
<circle cx="106.7599" cy="90.4577" r="5.0" stroke="#595959" stroke-width="1.0" fill="#ffffff"/>
<text x="106.7599" y="93.1577" text-anchor="middle" font-family="Helvetica" font-size="7.5" fill="#000000" >C</text>
<circle cx="106.6598" cy="110.6003" r="5.0" stroke="#595959" stroke-width="1.0" fill="#ffffff"/>
<text x="106.6598" y="113.3003" text-anchor="middle" font-family="Helvetica" font-size="7.5" fill="#000000" >G</text>
<circle cx="106.3930" cy="130.6720" r="5.0" stroke="#595959" stroke-width="1.0" fill="#ffffff"/>
<text x="106.3930" y="133.3720" text-anchor="middle" font-family="Helvetica" font-size="7.5" fill="#000000" >C</text>
<circle cx="106.0556" cy="150.7106" r="5.0" stroke="#595959" stroke-width="1.0" fill="#ffffff"/>
<text x="106.0556" y="153.4106" text-anchor="middle" font-family="Helvetica" font-size="7.5" fill="#000000" >C</text>
</svg>