<?xml version="1.0" encoding="UTF-8"?>
<!DOCTYPE svg PUBLIC "-//W3C//DTD SVG 1.1//EN" 
"http://www.w3.org/Graphics/SVG/1.1/DTD/svg11.dtd">

<svg version="1.1"
   width="308px"
   height="308px"
xmlns="http://www.w3.org/2000/svg">
    <rect width="100%" height="100%" fill="white"/>

  <line x1="135.8086" y1="217.6825" x2="136.7659" y2="197.7489" stroke="#595959"
     style="stroke-width:2;stroke-miterlimit:4;stroke-dasharray:1,1;stroke-dashoffset:0" />
  <line x1="133.7828" y1="75.5285" x2="148.2207" y2="61.8122" stroke="#595959"
     style="stroke-width:2;stroke-miterlimit:4;stroke-dasharray:1,1;stroke-dashoffset:0" />
  <line x1="148.2207" y1="61.8122" x2="164.6904" y2="50.8294" stroke="#595959"
     style="stroke-width:2;stroke-miterlimit:4;stroke-dasharray:1,1;stroke-dashoffset:0" />
  <line x1="164.6904" y1="50.8294" x2="165.9380" y2="71.6964" stroke="#595959"
     style="stroke-width:2;stroke-miterlimit:4;stroke-dasharray:1,1;stroke-dashoffset:0" />
  <line x1="165.9380" y1="71.6964" x2="183.1050" y2="81.6315" stroke="#595959"
     style="stroke-width:2;stroke-miterlimit:4;stroke-dasharray:1,1;stroke-dashoffset:0" />
  <line x1="183.1050" y1="81.6315" x2="168.2439" y2="94.9559" stroke="#595959"
     style="stroke-width:2;stroke-miterlimit:4;stroke-dasharray:1,1;stroke-dashoffset:0" />
  <line x1="169.2441" y1="198.9838" x2="168.2872" y2="219.0021" stroke="#595959"
     style="stroke-width:2;stroke-miterlimit:4;stroke-dasharray:1,1;stroke-dashoffset:0" />
  <line x1="137.7567" y1="157.9201" x2="170.2590" y2="158.0752" stroke="#d96100" stroke-width="1.0" />
  <circle cx="154.0079" cy="157.9976" r="2.25" stroke="#d96100" stroke-width="1.0" fill="#d96100"/>
  <line x1="137.6809" y1="139.5197" x2="170.1669" y2="138.9258" stroke="#f1b400" stroke-width="1.0" />
  <circle cx="153.9239" cy="139.2227" r="2.25" stroke="#f1b400" stroke-width="1.0" fill="#f1b400"/>
  <line x1="164.6904" y1="50.8294" x2="168.2439" y2="94.9559" stroke="#e89000" stroke-width="1.0" />
  <path d="M 160.7171 75.1426 L 160.7171 70.6426 L 165.2171 70.6426 L 165.2171 75.1426 z" style="stroke:#e89000;stroke-width:1.0" fill="#e89000" 
    transform="rotate(85.3958 166.4671 72.8926)"/>
  <path d="M 168.2171 75.1426 L 168.2171 70.6426 L 172.2171 72.8926 z" style="stroke:#e89000;stroke-width:1.0" fill="#e89000"
    transform="rotate(85.3958 166.4671 72.8926)"/>
  <line x1="133.8789" y1="257.5969" x2="134.7992" y2="237.6298" stroke="#d45500" stroke-width="1.0" />
  <rect
     style="fill:#ffffff;fill-opacity:1;fill-rule:nonzero;stroke:none"
     width="2"
     height="2"
     x="133.8391"
     y="246.6134"
     transform="rotate(-87.3611 134.3391 247.6134)" /> 
  <path
     style="fill:none;stroke:#d45500;stroke-width:1px;stroke-linecap:butt;stroke-linejoin:miter;stroke-opacity:1"
     d="m 134.3391,245.6134 2,2 -2,2 m -2.370121,-4 2,2 -2,2"
     transform="rotate(-87.3611 134.3391 247.6134)"/>
  <line x1="133.8270" y1="258.8458" x2="166.2726" y2="260.1957" stroke="#2d0032" stroke-width="1.0" />
  <line x1="133.9309" y1="256.3480" x2="166.3765" y2="257.6979" stroke="#2d0032" stroke-width="1.0" />
  <line x1="134.7992" y1="237.6298" x2="135.8086" y2="217.6825" stroke="#000000" stroke-width="1.0" />
  <rect
     style="fill:#ffffff;fill-opacity:1;fill-rule:nonzero;stroke:none"
     width="2"
     height="2"
     x="134.8039"
     y="226.6562"
     transform="rotate(-87.1031 135.3039 227.6562)" /> 
  <path
     style="fill:none;stroke:#000000;stroke-width:1px;stroke-linecap:butt;stroke-linejoin:miter;stroke-opacity:1"
     d="m 135.3039,225.6562 2,2 -2,2 m -2.370121,-4 2,2 -2,2"
     transform="rotate(-87.1031 135.3039 227.6562)"/>
  <line x1="134.7475" y1="238.8787" x2="167.2771" y2="240.2260" stroke="#270026" stroke-width="1.0" />
  <line x1="134.8509" y1="236.3809" x2="167.3806" y2="237.7282" stroke="#270026" stroke-width="1.0" />
  <line x1="134.7992" y1="237.6298" x2="166.3245" y2="258.9468" stroke="#ea9900" stroke-width="1.0" />
  <rect
     style="fill:#ffffff;stroke:none"
     width="5.5"
     height="2"
     x="147.8119"
     y="247.2883" 
     transform="rotate(34.0660 150.5619 248.2883)"    /> 
  <path
     style="fill:none;stroke:#ea9900;stroke-width:1px;stroke-linecap:butt;stroke-linejoin:miter;stroke-opacity:1"
    d="m 151.3119,246.2883 2,2 -2,2 m -1.5,-4 -2,2 2,2" transform="rotate(34.0660 150.5619 248.2883)"/>
  <line x1="135.7578" y1="218.9315" x2="168.2364" y2="220.2511" stroke="#200019" stroke-width="1.0" />
  <line x1="135.8593" y1="216.4335" x2="168.3379" y2="217.7532" stroke="#200019" stroke-width="1.0" />
  <line x1="136.7659" y1="197.7489" x2="137.4601" y2="177.8458" stroke="#990cc2" stroke-width="1.0" />
  <rect
     style="fill:#ffffff;fill-opacity:1;fill-rule:nonzero;stroke:none"
     width="2"
     height="2"
     x="136.6130"
     y="186.7974"
     transform="rotate(-88.0024 137.1130 187.7974)" /> 
  <path
     style="fill:none;stroke:#990cc2;stroke-width:1px;stroke-linecap:butt;stroke-linejoin:miter;stroke-opacity:1"
     d="m 137.1130,185.7974 2,2 -2,2 m -2.370121,-4 2,2 -2,2"
     transform="rotate(-88.0024 137.1130 187.7974)"/>
  <line x1="136.7659" y1="197.7489" x2="169.2441" y2="198.9838" stroke="#44006e" stroke-width="1.0" />
  <line x1="136.7659" y1="197.7489" x2="168.2872" y2="219.0021" stroke="#000000" stroke-width="1.0" />
  <rect
     style="fill:#ffffff;stroke:none"
     width="5.5"
     height="2"
     x="149.7766"
     y="207.3755" 
     transform="rotate(33.9898 152.5266 208.3755)"    /> 
  <path
     style="fill:none;stroke:#000000;stroke-width:1px;stroke-linecap:butt;stroke-linejoin:miter;stroke-opacity:1"
    d="m 153.2766,206.3755 2,2 -2,2 m -1.5,-4 -2,2 2,2" transform="rotate(33.9898 152.5266 208.3755)"/>
  <line x1="137.4601" y1="177.8458" x2="137.7567" y2="157.9201" stroke="#980bca" stroke-width="1.0" />
  <rect
     style="fill:#ffffff;fill-opacity:1;fill-rule:nonzero;stroke:none"
     width="2"
     height="2"
     x="137.1084"
     y="166.8830"
     transform="rotate(-89.1473 137.6084 167.8830)" /> 
  <path
     style="fill:none;stroke:#980bca;stroke-width:1px;stroke-linecap:butt;stroke-linejoin:miter;stroke-opacity:1"
     d="m 137.6084,165.8830 2,2 -2,2 m -2.370121,-4 2,2 -2,2"
     transform="rotate(-89.1473 137.6084 167.8830)"/>
  <line x1="137.4291" y1="179.0955" x2="169.9220" y2="179.9025" stroke="#3c0057" stroke-width="1.0" />
  <line x1="137.4912" y1="176.5962" x2="169.9841" y2="177.4033" stroke="#3c0057" stroke-width="1.0" />
  <line x1="137.7567" y1="157.9201" x2="137.6516" y2="137.9200" stroke="#9309df" stroke-width="1.0" />
  <rect
     style="fill:#ffffff;fill-opacity:1;fill-rule:nonzero;stroke:none"
     width="2"
     height="2"
     x="137.2042"
     y="146.9200"
     transform="rotate(269.6990 137.7042 147.9200)" /> 
  <path
     style="fill:none;stroke:#9309df;stroke-width:1px;stroke-linecap:butt;stroke-linejoin:miter;stroke-opacity:1"
     d="m 137.7042,145.9200 2,2 -2,2 m -2.370121,-4 2,2 -2,2"
     transform="rotate(269.6990 137.7042 147.9200)"/>
  <line x1="137.6516" y1="137.9200" x2="137.0351" y2="117.7224" stroke="#960bd2" stroke-width="1.0" />
  <rect
     style="fill:#ffffff;fill-opacity:1;fill-rule:nonzero;stroke:none"
     width="2"
     height="2"
     x="136.8434"
     y="126.8212"
     transform="rotate(268.2516 137.3434 127.8212)" /> 
  <path
     style="fill:none;stroke:#960bd2;stroke-width:1px;stroke-linecap:butt;stroke-linejoin:miter;stroke-opacity:1"
     d="m 137.3434,125.8212 2,2 -2,2 m -2.370121,-4 2,2 -2,2"
     transform="rotate(268.2516 137.3434 127.8212)"/>
  <line x1="137.6224" y1="136.3202" x2="170.1084" y2="135.7263" stroke="#7c03fe" stroke-width="1.0" />
  <line x1="137.0351" y1="117.7224" x2="135.8518" y2="97.2312" stroke="#3c0057" stroke-width="1.0" />
  <rect
     style="fill:#ffffff;fill-opacity:1;fill-rule:nonzero;stroke:none"
     width="2"
     height="2"
     x="135.9435"
     y="106.4768"
     transform="rotate(266.6950 136.4435 107.4768)" /> 
  <path
     style="fill:none;stroke:#3c0057;stroke-width:1px;stroke-linecap:butt;stroke-linejoin:miter;stroke-opacity:1"
     d="m 136.4435,105.4768 2,2 -2,2 m -2.370121,-4 2,2 -2,2"
     transform="rotate(266.6950 136.4435 107.4768)"/>
  <line x1="137.0905" y1="118.9712" x2="169.5322" y2="117.5333" stroke="#2d0032" stroke-width="1.0" />
  <line x1="136.9798" y1="116.4736" x2="169.4215" y2="115.0357" stroke="#2d0032" stroke-width="1.0" />
  <line x1="135.8518" y1="97.2312" x2="133.7828" y2="75.5285" stroke="#c83b00" stroke-width="1.0" />
  <rect
     style="fill:#ffffff;fill-opacity:1;fill-rule:nonzero;stroke:none"
     width="2"
     height="2"
     x="134.3173"
     y="85.3798"
     transform="rotate(264.5541 134.8173 86.3798)" /> 
  <path
     style="fill:none;stroke:#c83b00;stroke-width:1px;stroke-linecap:butt;stroke-linejoin:miter;stroke-opacity:1"
     d="m 134.8173,84.3798 2,2 -2,2 m -2.370121,-4 2,2 -2,2"
     transform="rotate(264.5541 134.8173 86.3798)"/>
  <line x1="135.8518" y1="97.2312" x2="168.2439" y2="94.9559" stroke="#3c0057" stroke-width="1.0" />
  <line x1="133.7828" y1="75.5285" x2="165.9380" y2="71.6964" stroke="#000000" stroke-width="1.0" />
  <circle cx="153.3604" cy="73.6125" r="2.25" stroke="#000000" stroke-width="1.0" fill="#ffffff"
    transform="rotate(-6.7961 149.8604 73.6125)" />
  <path d="M 148.1104 75.8625 L 148.1104 71.3625 L 144.1104 73.6125 z" style="stroke:#000000;stroke-width:1.0" fill="#ffffff" 
    transform="rotate(-6.7961 149.8604 73.6125)"/>
  <line x1="148.2207" y1="61.8122" x2="165.9380" y2="71.6964" stroke="#8b07f3" stroke-width="1.0" />
  <rect
     style="fill:#ffffff;fill-opacity:1;fill-rule:nonzero;stroke:none"
     width="2"
     height="2"
     x="156.5793"
     y="65.7543"
     transform="rotate(209.1564 157.0793 66.7543)" /> 
  <path
     style="fill:none;stroke:#8b07f3;stroke-width:1px;stroke-linecap:butt;stroke-linejoin:miter;stroke-opacity:1"
     d="m 157.0793,64.7543 2,2 -2,2 m -2.370121,-4 2,2 -2,2"
     transform="rotate(209.1564 157.0793 66.7543)"/>
  <line x1="165.9380" y1="71.6964" x2="168.2439" y2="94.9559" stroke="#db6700" stroke-width="1.0" />
  <rect
     style="fill:#ffffff;stroke:none"
     width="5.5"
     height="2"
     x="164.3410"
     y="82.3262" 
     transform="rotate(84.3382 167.0910 83.3262)"    /> 
  <path
     style="fill:none;stroke:#db6700;stroke-width:1px;stroke-linecap:butt;stroke-linejoin:miter;stroke-opacity:1"
    d="m 167.8410,81.3262 2,2 -2,2 m -1.5,-4 -2,2 2,2" transform="rotate(84.3382 167.0910 83.3262)"/>
  <line x1="168.2439" y1="94.9559" x2="169.4769" y2="116.2845" stroke="#bc2900" stroke-width="1.0" />
  <rect
     style="fill:#ffffff;fill-opacity:1;fill-rule:nonzero;stroke:none"
     width="2"
     height="2"
     x="168.3604"
     y="104.6202"
     transform="rotate(86.6917 168.8604 105.6202)" /> 
  <path
     style="fill:none;stroke:#bc2900;stroke-width:1px;stroke-linecap:butt;stroke-linejoin:miter;stroke-opacity:1"
     d="m 168.8604,103.6202 2,2 -2,2 m -2.370121,-4 2,2 -2,2"
     transform="rotate(86.6917 168.8604 105.6202)"/>
  <line x1="169.4769" y1="116.2845" x2="170.1377" y2="137.3260" stroke="#af1b2c" stroke-width="1.0" />
  <rect
     style="fill:#ffffff;fill-opacity:1;fill-rule:nonzero;stroke:none"
     width="2"
     height="2"
     x="169.3073"
     y="125.8053"
     transform="rotate(88.2012 169.8073 126.8053)" /> 
  <path
     style="fill:none;stroke:#af1b2c;stroke-width:1px;stroke-linecap:butt;stroke-linejoin:miter;stroke-opacity:1"
     d="m 169.8073,124.8053 2,2 -2,2 m -2.370121,-4 2,2 -2,2"
     transform="rotate(88.2012 169.8073 126.8053)"/>
  <line x1="170.1377" y1="137.3260" x2="170.2590" y2="158.0752" stroke="#8b07f3" stroke-width="1.0" />
  <rect
     style="fill:#ffffff;fill-opacity:1;fill-rule:nonzero;stroke:none"
     width="2"
     height="2"
     x="169.6984"
     y="146.7006"
     transform="rotate(89.6649 170.1984 147.7006)" /> 
  <path
     style="fill:none;stroke:#8b07f3;stroke-width:1px;stroke-linecap:butt;stroke-linejoin:miter;stroke-opacity:1"
     d="m 170.1984,145.7006 2,2 -2,2 m -2.370121,-4 2,2 -2,2"
     transform="rotate(89.6649 170.1984 147.7006)"/>
  <line x1="170.2590" y1="158.0752" x2="169.9530" y2="178.6529" stroke="#cc4200" stroke-width="1.0" />
  <rect
     style="fill:#ffffff;fill-opacity:1;fill-rule:nonzero;stroke:none"
     width="2"
     height="2"
     x="169.6060"
     y="167.3640"
     transform="rotate(90.8519 170.1060 168.3640)" /> 
  <path
     style="fill:none;stroke:#cc4200;stroke-width:1px;stroke-linecap:butt;stroke-linejoin:miter;stroke-opacity:1"
     d="m 170.1060,166.3640 2,2 -2,2 m -2.370121,-4 2,2 -2,2"
     transform="rotate(90.8519 170.1060 168.3640)"/>
  <line x1="169.9530" y1="178.6529" x2="169.2441" y2="198.9838" stroke="#9109e5" stroke-width="1.0" />
  <rect
     style="fill:#ffffff;fill-opacity:1;fill-rule:nonzero;stroke:none"
     width="2"
     height="2"
     x="169.0986"
     y="187.8183"
     transform="rotate(91.9970 169.5986 188.8183)" /> 
  <path
     style="fill:none;stroke:#9109e5;stroke-width:1px;stroke-linecap:butt;stroke-linejoin:miter;stroke-opacity:1"
     d="m 169.5986,186.8183 2,2 -2,2 m -2.370121,-4 2,2 -2,2"
     transform="rotate(91.9970 169.5986 188.8183)"/>
  <line x1="168.2872" y1="219.0021" x2="167.3289" y2="238.9771" stroke="#000000" stroke-width="1.0" />
  <rect
     style="fill:#ffffff;fill-opacity:1;fill-rule:nonzero;stroke:none"
     width="2"
     height="2"
     x="167.3080"
     y="227.9896"
     transform="rotate(92.7466 167.8080 228.9896)" /> 
  <path
     style="fill:none;stroke:#000000;stroke-width:1px;stroke-linecap:butt;stroke-linejoin:miter;stroke-opacity:1"
     d="m 167.8080,226.9896 2,2 -2,2 m -2.370121,-4 2,2 -2,2"
     transform="rotate(92.7466 167.8080 228.9896)"/>
  <line x1="167.3289" y1="238.9771" x2="166.3245" y2="258.9468" stroke="#a5137f" stroke-width="1.0" />
  <rect
     style="fill:#ffffff;fill-opacity:1;fill-rule:nonzero;stroke:none"
     width="2"
     height="2"
     x="166.3267"
     y="247.9620"
     transform="rotate(92.8792 166.8267 248.9620)" /> 
  <path
     style="fill:none;stroke:#a5137f;stroke-width:1px;stroke-linecap:butt;stroke-linejoin:miter;stroke-opacity:1"
     d="m 166.8267,246.9620 2,2 -2,2 m -2.370121,-4 2,2 -2,2"
     transform="rotate(92.8792 166.8267 248.9620)"/>
<circle cx="133.8789" cy="257.5969" r="5.0" stroke="#595959" stroke-width="1.0" fill="#ffffff"/>
<text x="133.8789" y="260.2969" text-anchor="middle" font-family="Helvetica" font-size="7.5" fill="#000000" >G</text>
<circle cx="134.7992" cy="237.6298" r="5.0" stroke="#595959" stroke-width="1.0" fill="#ffffff"/>
<text x="134.7992" y="240.3298" text-anchor="middle" font-family="Helvetica" font-size="7.5" fill="#000000" >G</text>
<circle cx="135.8086" cy="217.6825" r="5.0" stroke="#595959" stroke-width="1.0" fill="#ffffff"/>
<text x="135.8086" y="220.3825" text-anchor="middle" font-family="Helvetica" font-size="7.5" fill="#000000" >C</text>
<circle cx="136.7659" cy="197.7489" r="5.0" stroke="#595959" stroke-width="1.0" fill="#ffffff"/>
<text x="136.7659" y="200.4489" text-anchor="middle" font-family="Helvetica" font-size="7.5" fill="#000000" >A</text>
<circle cx="137.4601" cy="177.8458" r="5.0" stroke="#595959" stroke-width="1.0" fill="#ffffff"/>
<text x="137.4601" y="180.5458" text-anchor="middle" font-family="Helvetica" font-size="7.5" fill="#000000" >G</text>
<circle cx="137.7567" cy="157.9201" r="5.0" stroke="#595959" stroke-width="1.0" fill="#ffffff"/>
<text x="137.7567" y="160.6201" text-anchor="middle" font-family="Helvetica" font-size="7.5" fill="#000000" >A</text>
<circle cx="137.6516" cy="137.9200" r="5.0" stroke="#595959" stroke-width="1.0" fill="#ffffff"/>
<text x="137.6516" y="140.6200" text-anchor="middle" font-family="Helvetica" font-size="7.5" fill="#000000" >U</text>
<circle cx="137.0351" cy="117.7224" r="5.0" stroke="#595959" stroke-width="1.0" fill="#ffffff"/>
<text x="137.0351" y="120.4224" text-anchor="middle" font-family="Helvetica" font-size="7.5" fill="#000000" >C</text>
<circle cx="135.8518" cy="97.2312" r="5.0" stroke="#595959" stroke-width="1.0" fill="#ffffff"/>
<text x="135.8518" y="99.9312" text-anchor="middle" font-family="Helvetica" font-size="7.5" fill="#000000" >U</text>
<circle cx="133.7828" cy="75.5285" r="5.0" stroke="#595959" stroke-width="1.0" fill="#ffffff"/>
<text x="133.7828" y="78.2285" text-anchor="middle" font-family="Helvetica" font-size="7.5" fill="#000000" >G</text>
<circle cx="148.2207" cy="61.8122" r="5.0" stroke="#595959" stroke-width="1.0" fill="#ffffff"/>
<text x="148.2207" y="64.5122" text-anchor="middle" font-family="Helvetica" font-size="7.5" fill="#000000" >U</text>
<circle cx="164.6904" cy="50.8294" r="5.0" stroke="#595959" stroke-width="1.0" fill="#ffffff"/>
<text x="164.6904" y="53.5294" text-anchor="middle" font-family="Helvetica" font-size="7.5" fill="#000000" >A</text>
<circle cx="165.9380" cy="71.6964" r="5.0" stroke="#595959" stroke-width="1.0" fill="#ffffff"/>
<text x="165.9380" y="74.3964" text-anchor="middle" font-family="Helvetica" font-size="7.5" fill="#000000" >A</text>
<circle cx="183.1050" cy="81.6315" r="5.0" stroke="#595959" stroke-width="1.0" fill="#ffffff"/>
<text x="183.1050" y="84.3315" text-anchor="middle" font-family="Helvetica" font-size="7.5" fill="#000000" >U</text>
<circle cx="168.2439" cy="94.9559" r="5.0" stroke="#595959" stroke-width="1.0" fill="#ffffff"/>
<text x="168.2439" y="97.6559" text-anchor="middle" font-family="Helvetica" font-size="7.5" fill="#000000" >A</text>
<circle cx="169.4769" cy="116.2845" r="5.0" stroke="#595959" stroke-width="1.0" fill="#ffffff"/>
<text x="169.4769" y="118.9845" text-anchor="middle" font-family="Helvetica" font-size="7.5" fill="#000000" >G</text>
<circle cx="170.1377" cy="137.3260" r="5.0" stroke="#595959" stroke-width="1.0" fill="#ffffff"/>
<text x="170.1377" y="140.0260" text-anchor="middle" font-family="Helvetica" font-size="7.5" fill="#000000" >A</text>
<circle cx="170.2590" cy="158.0752" r="5.0" stroke="#595959" stroke-width="1.0" fill="#ffffff"/>
<text x="170.2590" y="160.7752" text-anchor="middle" font-family="Helvetica" font-size="7.5" fill="#000000" >A</text>
<circle cx="169.9530" cy="178.6529" r="5.0" stroke="#595959" stroke-width="1.0" fill="#ffffff"/>
<text x="169.9530" y="181.3529" text-anchor="middle" font-family="Helvetica" font-size="7.5" fill="#000000" >C</text>
<circle cx="169.2441" cy="198.9838" r="5.0" stroke="#595959" stroke-width="1.0" fill="#ffffff"/>
<text x="169.2441" y="201.6838" text-anchor="middle" font-family="Helvetica" font-size="7.5" fill="#000000" >U</text>
<circle cx="168.2872" cy="219.0021" r="5.0" stroke="#595959" stroke-width="1.0" fill="#ffffff"/>
<text x="168.2872" y="221.7021" text-anchor="middle" font-family="Helvetica" font-size="7.5" fill="#000000" >G</text>
<circle cx="167.3289" cy="238.9771" r="5.0" stroke="#595959" stroke-width="1.0" fill="#ffffff"/>
<text x="167.3289" y="241.6771" text-anchor="middle" font-family="Helvetica" font-size="7.5" fill="#000000" >C</text>
<circle cx="166.3245" cy="258.9468" r="5.0" stroke="#595959" stroke-width="1.0" fill="#ffffff"/>
<text x="166.3245" y="261.6468" text-anchor="middle" font-family="Helvetica" font-size="7.5" fill="#000000" >C</text>
</svg>