<?xml version="1.0" encoding="UTF-8"?>
<!DOCTYPE svg PUBLIC "-//W3C//DTD SVG 1.1//EN" 
"http://www.w3.org/Graphics/SVG/1.1/DTD/svg11.dtd">

<svg version="1.1"
   width="182px"
   height="182px"
xmlns="http://www.w3.org/2000/svg">
    <rect width="100%" height="100%" fill="white"/>

  <line x1="72.8675" y1="108.5688" x2="72.9092" y2="88.5117" stroke="#595959"
     style="stroke-width:2;stroke-miterlimit:4;stroke-dasharray:1,1;stroke-dashoffset:0" />
  <line x1="72.7451" y1="68.4296" x2="70.6613" y2="48.5552" stroke="#595959"
     style="stroke-width:2;stroke-miterlimit:4;stroke-dasharray:1,1;stroke-dashoffset:0" />
  <line x1="86.3965" y1="36.2962" x2="102.9474" y2="47.4876" stroke="#595959"
     style="stroke-width:2;stroke-miterlimit:4;stroke-dasharray:1,1;stroke-dashoffset:0" />
  <line x1="102.9474" y1="47.4876" x2="121.4131" y2="54.8557" stroke="#595959"
     style="stroke-width:2;stroke-miterlimit:4;stroke-dasharray:1,1;stroke-dashoffset:0" />
  <line x1="121.4131" y1="54.8557" x2="106.2525" y2="68.0309" stroke="#595959"
     style="stroke-width:2;stroke-miterlimit:4;stroke-dasharray:1,1;stroke-dashoffset:0" />
  <line x1="106.2924" y1="88.4633" x2="106.1301" y2="108.9019" stroke="#595959"
     style="stroke-width:2;stroke-miterlimit:4;stroke-dasharray:1,1;stroke-dashoffset:0" />
  <line x1="86.3965" y1="36.2962" x2="106.2525" y2="68.0309" stroke="#e99400" stroke-width="1.0" />
  <path d="M 94.3245 54.4135 L 94.3245 49.9135 L 98.3245 52.1635 z" style="stroke:#e99400;stroke-width:1.0" fill="#e99400"
    transform="rotate(57.9663 96.3245 52.1635)"/>
  <line x1="71.9472" y1="148.6743" x2="72.4983" y2="128.6239" stroke="#bd2b00" stroke-width="1.0" />
  <rect
     style="fill:#ffffff;fill-opacity:1;fill-rule:nonzero;stroke:none"
     width="2"
     height="2"
     x="71.7228"
     y="137.6491"
     transform="rotate(-88.4255 72.2228 138.6491)" /> 
  <path
     style="fill:none;stroke:#bd2b00;stroke-width:1px;stroke-linecap:butt;stroke-linejoin:miter;stroke-opacity:1"
     d="m 72.2228,136.6491 2,2 -2,2 m -2.370121,-4 2,2 -2,2"
     transform="rotate(-88.4255 72.2228 138.6491)"/>
  <line x1="71.9209" y1="149.9240" x2="105.1831" y2="150.6238" stroke="#6501d5" stroke-width="1.0" />
  <line x1="71.9735" y1="147.4246" x2="105.2357" y2="148.1244" stroke="#6501d5" stroke-width="1.0" />
  <line x1="72.4983" y1="128.6239" x2="72.8675" y2="108.5688" stroke="#000000" stroke-width="1.0" />
  <rect
     style="fill:#ffffff;fill-opacity:1;fill-rule:nonzero;stroke:none"
     width="2"
     height="2"
     x="72.1829"
     y="117.5964"
     transform="rotate(-88.9456 72.6829 118.5964)" /> 
  <path
     style="fill:none;stroke:#000000;stroke-width:1px;stroke-linecap:butt;stroke-linejoin:miter;stroke-opacity:1"
     d="m 72.6829,116.5964 2,2 -2,2 m -2.370121,-4 2,2 -2,2"
     transform="rotate(-88.9456 72.6829 118.5964)"/>
  <line x1="72.4757" y1="129.8737" x2="105.7074" y2="130.4768" stroke="#2d0032" stroke-width="1.0" />
  <line x1="72.5210" y1="127.3741" x2="105.7527" y2="127.9772" stroke="#2d0032" stroke-width="1.0" />
  <line x1="72.4983" y1="128.6239" x2="105.2094" y2="149.3741" stroke="#efaf00" stroke-width="1.0" />
  <rect
     style="fill:#ffffff;stroke:none"
     width="5.5"
     height="2"
     x="86.1039"
     y="137.9990" 
     transform="rotate(32.3889 88.8539 138.9990)"    /> 
  <path
     style="fill:none;stroke:#efaf00;stroke-width:1px;stroke-linecap:butt;stroke-linejoin:miter;stroke-opacity:1"
    d="m 89.6039,136.9990 2,2 -2,2 m -1.5,-4 -2,2 2,2" transform="rotate(32.3889 88.8539 138.9990)"/>
  <line x1="72.8549" y1="109.8187" x2="106.1176" y2="110.1518" stroke="#37004b" stroke-width="1.0" />
  <line x1="72.8800" y1="107.3189" x2="106.1426" y2="107.6519" stroke="#37004b" stroke-width="1.0" />
  <line x1="72.9092" y1="88.5117" x2="72.7451" y2="68.4296" stroke="#000000" stroke-width="1.0" />
  <rect
     style="fill:#ffffff;fill-opacity:1;fill-rule:nonzero;stroke:none"
     width="2"
     height="2"
     x="72.3271"
     y="77.4706"
     transform="rotate(269.5318 72.8271 78.4706)" /> 
  <path
     style="fill:none;stroke:#000000;stroke-width:1px;stroke-linecap:butt;stroke-linejoin:miter;stroke-opacity:1"
     d="m 72.8271,76.4706 2,2 -2,2 m -2.370121,-4 2,2 -2,2"
     transform="rotate(269.5318 72.8271 78.4706)"/>
  <line x1="72.9110" y1="89.7617" x2="106.2942" y2="89.7133" stroke="#400062" stroke-width="1.0" />
  <line x1="72.9074" y1="87.2617" x2="106.2905" y2="87.2133" stroke="#400062" stroke-width="1.0" />
  <line x1="72.9092" y1="88.5117" x2="106.1301" y2="108.9019" stroke="#200019" stroke-width="1.0" />
  <rect
     style="fill:#ffffff;stroke:none"
     width="5.5"
     height="2"
     x="86.7696"
     y="97.7068" 
     transform="rotate(31.5406 89.5196 98.7068)"    /> 
  <path
     style="fill:none;stroke:#200019;stroke-width:1px;stroke-linecap:butt;stroke-linejoin:miter;stroke-opacity:1"
    d="m 90.2696,96.7068 2,2 -2,2 m -1.5,-4 -2,2 2,2" transform="rotate(31.5406 89.5196 98.7068)"/>
  <line x1="72.7599" y1="69.6795" x2="106.2674" y2="69.2808" stroke="#33003e" stroke-width="1.0" />
  <line x1="72.7302" y1="67.1797" x2="106.2376" y2="66.7810" stroke="#33003e" stroke-width="1.0" />
  <line x1="70.6613" y1="48.5552" x2="86.3965" y2="36.2962" stroke="#d14c00" stroke-width="1.0" />
  <rect
     style="fill:#ffffff;fill-opacity:1;fill-rule:nonzero;stroke:none"
     width="2"
     height="2"
     x="77.5289"
     y="41.4257" 
     transform="rotate(-37.9215 78.5289 42.4257)" /> 
  <path
     style="fill:none;stroke:#d14c00;stroke-width:1px;stroke-linecap:butt;stroke-linejoin:miter;stroke-opacity:1"
     d="m 81.5289,40.4257 -2,2 2,2 m -6,-4 2,2 -2,2"
     transform="rotate(-37.9215 78.5289 42.4257)"/>
  <line x1="102.9474" y1="47.4876" x2="106.2525" y2="68.0309" stroke="#000000" stroke-width="1.0" />
  <rect
     style="fill:#ffffff;stroke:none"
     width="5.5"
     height="2"
     x="101.8499"
     y="56.7592" 
     transform="rotate(80.8603 104.5999 57.7592)"    /> 
  <path
     style="fill:none;stroke:#000000;stroke-width:1px;stroke-linecap:butt;stroke-linejoin:miter;stroke-opacity:1"
    d="m 105.3499,55.7592 2,2 -2,2 m -1.5,-4 -2,2 2,2" transform="rotate(80.8603 104.5999 57.7592)"/>
  <line x1="106.2525" y1="68.0309" x2="106.2924" y2="88.4633" stroke="#000000" stroke-width="1.0" />
  <rect
     style="fill:#ffffff;fill-opacity:1;fill-rule:nonzero;stroke:none"
     width="2"
     height="2"
     x="105.7724"
     y="77.2471"
     transform="rotate(89.8883 106.2724 78.2471)" /> 
  <path
     style="fill:none;stroke:#000000;stroke-width:1px;stroke-linecap:butt;stroke-linejoin:miter;stroke-opacity:1"
     d="m 106.2724,76.2471 2,2 -2,2 m -2.370121,-4 2,2 -2,2"
     transform="rotate(89.8883 106.2724 78.2471)"/>
  <line x1="106.1301" y1="108.9019" x2="105.7301" y2="129.2270" stroke="#000000" stroke-width="1.0" />
  <rect
     style="fill:#ffffff;fill-opacity:1;fill-rule:nonzero;stroke:none"
     width="2"
     height="2"
     x="105.4301"
     y="118.0644"
     transform="rotate(91.1275 105.9301 119.0644)" /> 
  <path
     style="fill:none;stroke:#000000;stroke-width:1px;stroke-linecap:butt;stroke-linejoin:miter;stroke-opacity:1"
     d="m 105.9301,117.0644 2,2 -2,2 m -2.370121,-4 2,2 -2,2"
     transform="rotate(91.1275 105.9301 119.0644)"/>
  <line x1="107.3295" y1="129.2683" x2="106.8088" y2="149.4154" stroke="#a5137f" stroke-width="1.0" />
  <rect
     style="fill:#ffffff;fill-opacity:1;fill-rule:nonzero;stroke:none"
     width="2"
     height="2"
     x="106.5692"
     y="138.3419"
     transform="rotate(91.4804 107.0692 139.3419)" /> 
  <path
     style="fill:none;stroke:#a5137f;stroke-width:1px;stroke-linecap:butt;stroke-linejoin:miter;stroke-opacity:1"
     d="m 107.0692,137.3419 2,2 -2,2 m -2.370121,-4 2,2 -2,2"
     transform="rotate(91.4804 107.0692 139.3419)"/>
  <line x1="104.1306" y1="129.1856" x2="103.6099" y2="149.3328" stroke="#f2b800" stroke-width="1.0" />
  <rect
     style="fill:#ffffff;fill-opacity:1;fill-rule:nonzero;stroke:none"
     width="2"
     height="2"
     x="102.8703"
     y="138.2592" 
     transform="rotate(91.4804 103.8703 139.2592)" /> 
  <path
     style="fill:none;stroke:#f2b800;stroke-width:1px;stroke-linecap:butt;stroke-linejoin:miter;stroke-opacity:1"
     d="m 106.8703,137.2592 -2,2 2,2 m -6,-4 2,2 -2,2"
     transform="rotate(91.4804 103.8703 139.2592)"/>
<circle cx="71.9472" cy="148.6743" r="5.0" stroke="#595959" stroke-width="1.0" fill="#ffffff"/>
<text x="71.9472" y="151.3743" text-anchor="middle" font-family="Helvetica" font-size="7.5" fill="#000000" >G</text>
<circle cx="72.4983" cy="128.6239" r="5.0" stroke="#595959" stroke-width="1.0" fill="#ffffff"/>
<text x="72.4983" y="131.3239" text-anchor="middle" font-family="Helvetica" font-size="7.5" fill="#000000" >G</text>
<circle cx="72.8675" cy="108.5688" r="5.0" stroke="#595959" stroke-width="1.0" fill="#ffffff"/>
<text x="72.8675" y="111.2688" text-anchor="middle" font-family="Helvetica" font-size="7.5" fill="#000000" >C</text>
<circle cx="72.9092" cy="88.5117" r="5.0" stroke="#595959" stroke-width="1.0" fill="#ffffff"/>
<text x="72.9092" y="91.2117" text-anchor="middle" font-family="Helvetica" font-size="7.5" fill="#000000" >G</text>
<circle cx="72.7451" cy="68.4296" r="5.0" stroke="#595959" stroke-width="1.0" fill="#ffffff"/>
<text x="72.7451" y="71.1296" text-anchor="middle" font-family="Helvetica" font-size="7.5" fill="#000000" >C</text>
<circle cx="70.6613" cy="48.5552" r="5.0" stroke="#595959" stroke-width="1.0" fill="#ffffff"/>
<text x="70.6613" y="51.2552" text-anchor="middle" font-family="Helvetica" font-size="7.5" fill="#000000" >A</text>
<circle cx="86.3965" cy="36.2962" r="5.0" stroke="#595959" stroke-width="1.0" fill="#ffffff"/>
<text x="86.3965" y="38.9962" text-anchor="middle" font-family="Helvetica" font-size="7.5" fill="#000000" >U</text>
<circle cx="102.9474" cy="47.4876" r="5.0" stroke="#595959" stroke-width="1.0" fill="#ffffff"/>
<text x="102.9474" y="50.1876" text-anchor="middle" font-family="Helvetica" font-size="7.5" fill="#000000" >C</text>
<circle cx="121.4131" cy="54.8557" r="5.0" stroke="#595959" stroke-width="1.0" fill="#ffffff"/>
<text x="121.4131" y="57.5557" text-anchor="middle" font-family="Helvetica" font-size="7.5" fill="#000000" >G</text>
<circle cx="106.2525" cy="68.0309" r="5.0" stroke="#595959" stroke-width="1.0" fill="#ffffff"/>
<text x="106.2525" y="70.7309" text-anchor="middle" font-family="Helvetica" font-size="7.5" fill="#000000" >G</text>
<circle cx="106.2924" cy="88.4633" r="5.0" stroke="#595959" stroke-width="1.0" fill="#ffffff"/>
<text x="106.2924" y="91.1633" text-anchor="middle" font-family="Helvetica" font-size="7.5" fill="#000000" >C</text>
<circle cx="106.1301" cy="108.9019" r="5.0" stroke="#595959" stroke-width="1.0" fill="#ffffff"/>
<text x="106.1301" y="111.6019" text-anchor="middle" font-family="Helvetica" font-size="7.5" fill="#000000" >G</text>
<circle cx="105.7301" cy="129.2270" r="5.0" stroke="#595959" stroke-width="1.0" fill="#ffffff"/>
<text x="105.7301" y="131.9270" text-anchor="middle" font-family="Helvetica" font-size="7.5" fill="#000000" >C</text>
<circle cx="105.2094" cy="149.3741" r="5.0" stroke="#595959" stroke-width="1.0" fill="#ffffff"/>
<text x="105.2094" y="152.0741" text-anchor="middle" font-family="Helvetica" font-size="7.5" fill="#000000" >C</text>
</svg>