<?xml version="1.0" encoding="UTF-8"?>
<!DOCTYPE svg PUBLIC "-//W3C//DTD SVG 1.1//EN" 
"http://www.w3.org/Graphics/SVG/1.1/DTD/svg11.dtd">

<svg version="1.1"
   width="308px"
   height="308px"
xmlns="http://www.w3.org/2000/svg">
    <rect width="100%" height="100%" fill="white"/>

  <line x1="136.3193" y1="217.7321" x2="136.8178" y2="197.7423" stroke="#595959"
     style="stroke-width:2;stroke-miterlimit:4;stroke-dasharray:1,1;stroke-dashoffset:0" />
  <line x1="134.9820" y1="76.1238" x2="139.8352" y2="56.5649" stroke="#595959"
     style="stroke-width:2;stroke-miterlimit:4;stroke-dasharray:1,1;stroke-dashoffset:0" />
  <line x1="139.8352" y1="56.5649" x2="159.7433" y2="54.9187" stroke="#595959"
     style="stroke-width:2;stroke-miterlimit:4;stroke-dasharray:1,1;stroke-dashoffset:0" />
  <line x1="159.7433" y1="54.9187" x2="167.7681" y2="73.8368" stroke="#595959"
     style="stroke-width:2;stroke-miterlimit:4;stroke-dasharray:1,1;stroke-dashoffset:0" />
  <line x1="167.7681" y1="73.8368" x2="185.2136" y2="83.3469" stroke="#595959"
     style="stroke-width:2;stroke-miterlimit:4;stroke-dasharray:1,1;stroke-dashoffset:0" />
  <line x1="185.2136" y1="83.3469" x2="169.0621" y2="95.2298" stroke="#595959"
     style="stroke-width:2;stroke-miterlimit:4;stroke-dasharray:1,1;stroke-dashoffset:0" />
  <line x1="169.6093" y1="198.4657" x2="168.9754" y2="218.4970" stroke="#595959"
     style="stroke-width:2;stroke-miterlimit:4;stroke-dasharray:1,1;stroke-dashoffset:0" />
  <line x1="136.8531" y1="196.1427" x2="169.6446" y2="196.8661" stroke="#eeaa00" stroke-width="1.0" />
  <circle cx="153.2488" cy="196.5044" r="2.25" stroke="#eeaa00" stroke-width="1.0" fill="#eeaa00"/>
  <line x1="137.5777" y1="157.7551" x2="170.4477" y2="157.8963" stroke="#d85e00" stroke-width="1.0" />
  <circle cx="154.0127" cy="157.8257" r="2.25" stroke="#d85e00" stroke-width="1.0" fill="#d85e00"/>
  <line x1="137.5235" y1="139.2645" x2="170.3847" y2="138.8334" stroke="#e89000" stroke-width="1.0" />
  <circle cx="153.9541" cy="139.0489" r="2.25" stroke="#e89000" stroke-width="1.0" fill="#e89000"/>
  <line x1="136.2326" y1="96.8483" x2="167.7681" y2="73.8368" stroke="#e78c00" stroke-width="1.0" />
  <circle cx="152.0004" cy="85.3426" r="2.25" stroke="#e78c00" stroke-width="1.0" fill="#e78c00"/>
  <line x1="134.9820" y1="76.1238" x2="167.7681" y2="73.8368" stroke="#2d0032" stroke-width="1.0" />
  <path d="M 145.6251 77.2303 L 145.6251 72.7303 L 150.1251 72.7303 L 150.1251 77.2303 z" style="stroke:#2d0032;stroke-width:1.0" fill="#2d0032" 
    transform="rotate(176.0099 151.3751 74.9803)"/>
  <path d="M 153.1251 77.2303 L 153.1251 72.7303 L 157.1251 74.9803 z" style="stroke:#2d0032;stroke-width:1.0" fill="#2d0032"
    transform="rotate(176.0099 151.3751 74.9803)"/>
  <line x1="135.2217" y1="257.7142" x2="135.7070" y2="237.7218" stroke="#d55800" stroke-width="1.0" />
  <rect
     style="fill:#ffffff;fill-opacity:1;fill-rule:nonzero;stroke:none"
     width="2"
     height="2"
     x="134.9644"
     y="246.7180"
     transform="rotate(-88.6092 135.4644 247.7180)" /> 
  <path
     style="fill:none;stroke:#d55800;stroke-width:1px;stroke-linecap:butt;stroke-linejoin:miter;stroke-opacity:1"
     d="m 135.4644,245.7180 2,2 -2,2 m -2.370121,-4 2,2 -2,2"
     transform="rotate(-88.6092 135.4644 247.7180)"/>
  <line x1="135.1923" y1="258.9639" x2="167.7862" y2="259.7287" stroke="#2d0032" stroke-width="1.0" />
  <line x1="135.2510" y1="256.4646" x2="167.8449" y2="257.2294" stroke="#2d0032" stroke-width="1.0" />
  <line x1="135.7070" y1="237.7218" x2="136.3193" y2="217.7321" stroke="#000000" stroke-width="1.0" />
  <rect
     style="fill:#ffffff;fill-opacity:1;fill-rule:nonzero;stroke:none"
     width="2"
     height="2"
     x="135.5132"
     y="226.7270"
     transform="rotate(-88.2458 136.0132 227.7270)" /> 
  <path
     style="fill:none;stroke:#000000;stroke-width:1px;stroke-linecap:butt;stroke-linejoin:miter;stroke-opacity:1"
     d="m 136.0132,225.7270 2,2 -2,2 m -2.370121,-4 2,2 -2,2"
     transform="rotate(-88.2458 136.0132 227.7270)"/>
  <line x1="135.6777" y1="238.9715" x2="168.3238" y2="239.7370" stroke="#200019" stroke-width="1.0" />
  <line x1="135.7363" y1="236.4722" x2="168.3824" y2="237.2377" stroke="#200019" stroke-width="1.0" />
  <line x1="135.7070" y1="237.7218" x2="167.8155" y2="258.4791" stroke="#ea9900" stroke-width="1.0" />
  <rect
     style="fill:#ffffff;stroke:none"
     width="5.5"
     height="2"
     x="149.0113"
     y="247.1004" 
     transform="rotate(32.8815 151.7613 248.1004)"    /> 
  <path
     style="fill:none;stroke:#ea9900;stroke-width:1px;stroke-linecap:butt;stroke-linejoin:miter;stroke-opacity:1"
    d="m 152.5113,246.1004 2,2 -2,2 m -1.5,-4 -2,2 2,2" transform="rotate(32.8815 151.7613 248.1004)"/>
  <line x1="136.2900" y1="218.9818" x2="168.9462" y2="219.7466" stroke="#000000" stroke-width="1.0" />
  <line x1="136.3485" y1="216.4825" x2="169.0047" y2="217.2473" stroke="#000000" stroke-width="1.0" />
  <line x1="136.8178" y1="197.7423" x2="137.3187" y2="177.7523" stroke="#ab1751" stroke-width="1.0" />
  <rect
     style="fill:#ffffff;fill-opacity:1;fill-rule:nonzero;stroke:none"
     width="2"
     height="2"
     x="136.5682"
     y="186.7473"
     transform="rotate(-88.5646 137.0682 187.7473)" /> 
  <path
     style="fill:none;stroke:#ab1751;stroke-width:1px;stroke-linecap:butt;stroke-linejoin:miter;stroke-opacity:1"
     d="m 137.0682,185.7473 2,2 -2,2 m -2.370121,-4 2,2 -2,2"
     transform="rotate(-88.5646 137.0682 187.7473)"/>
  <line x1="136.7825" y1="199.3419" x2="169.5740" y2="200.0653" stroke="#5d01be" stroke-width="1.0" />
  <line x1="136.8178" y1="197.7423" x2="168.9754" y2="218.4970" stroke="#200019" stroke-width="1.0" />
  <rect
     style="fill:#ffffff;stroke:none"
     width="5.5"
     height="2"
     x="150.1466"
     y="207.1196" 
     transform="rotate(32.8384 152.8966 208.1196)"    /> 
  <path
     style="fill:none;stroke:#200019;stroke-width:1px;stroke-linecap:butt;stroke-linejoin:miter;stroke-opacity:1"
    d="m 153.6466,206.1196 2,2 -2,2 m -1.5,-4 -2,2 2,2" transform="rotate(32.8384 152.8966 208.1196)"/>
  <line x1="137.3187" y1="177.7523" x2="137.5777" y2="157.7551" stroke="#8806f9" stroke-width="1.0" />
  <rect
     style="fill:#ffffff;fill-opacity:1;fill-rule:nonzero;stroke:none"
     width="2"
     height="2"
     x="136.9482"
     y="166.7537"
     transform="rotate(-89.2577 137.4482 167.7537)" /> 
  <path
     style="fill:none;stroke:#8806f9;stroke-width:1px;stroke-linecap:butt;stroke-linejoin:miter;stroke-opacity:1"
     d="m 137.4482,165.7537 2,2 -2,2 m -2.370121,-4 2,2 -2,2"
     transform="rotate(-89.2577 137.4482 167.7537)"/>
  <line x1="137.2973" y1="179.0021" x2="170.1329" y2="179.5621" stroke="#44006e" stroke-width="1.0" />
  <line x1="137.3400" y1="176.5025" x2="170.1755" y2="177.0625" stroke="#44006e" stroke-width="1.0" />
  <line x1="137.5777" y1="157.7551" x2="137.5025" y2="137.6646" stroke="#940ad9" stroke-width="1.0" />
  <rect
     style="fill:#ffffff;fill-opacity:1;fill-rule:nonzero;stroke:none"
     width="2"
     height="2"
     x="137.0401"
     y="146.7099"
     transform="rotate(269.7854 137.5401 147.7099)" /> 
  <path
     style="fill:none;stroke:#940ad9;stroke-width:1px;stroke-linecap:butt;stroke-linejoin:miter;stroke-opacity:1"
     d="m 137.5401,145.7099 2,2 -2,2 m -2.370121,-4 2,2 -2,2"
     transform="rotate(269.7854 137.5401 147.7099)"/>
  <line x1="137.5025" y1="137.6646" x2="137.0649" y2="117.3513" stroke="#af1b2c" stroke-width="1.0" />
  <rect
     style="fill:#ffffff;fill-opacity:1;fill-rule:nonzero;stroke:none"
     width="2"
     height="2"
     x="136.7837"
     y="126.5079"
     transform="rotate(268.7659 137.2837 127.5079)" /> 
  <path
     style="fill:none;stroke:#af1b2c;stroke-width:1px;stroke-linecap:butt;stroke-linejoin:miter;stroke-opacity:1"
     d="m 137.2837,125.5079 2,2 -2,2 m -2.370121,-4 2,2 -2,2"
     transform="rotate(268.7659 137.2837 127.5079)"/>
  <line x1="137.4815" y1="136.0647" x2="170.3427" y2="135.6337" stroke="#8806f9" stroke-width="1.0" />
  <line x1="137.0649" y1="117.3513" x2="136.2326" y2="96.8483" stroke="#960bd2" stroke-width="1.0" />
  <rect
     style="fill:#ffffff;fill-opacity:1;fill-rule:nonzero;stroke:none"
     width="2"
     height="2"
     x="136.1488"
     y="106.0998"
     transform="rotate(267.6755 136.6488 107.0998)" /> 
  <path
     style="fill:none;stroke:#960bd2;stroke-width:1px;stroke-linecap:butt;stroke-linejoin:miter;stroke-opacity:1"
     d="m 136.6488,105.0998 2,2 -2,2 m -2.370121,-4 2,2 -2,2"
     transform="rotate(267.6755 136.6488 107.0998)"/>
  <line x1="137.1039" y1="118.6007" x2="169.9535" y2="117.5752" stroke="#2d0032" stroke-width="1.0" />
  <line x1="137.0259" y1="116.1019" x2="169.8755" y2="115.0764" stroke="#2d0032" stroke-width="1.0" />
  <line x1="137.0649" y1="117.3513" x2="170.3637" y2="137.2335" stroke="#eda600" stroke-width="1.0" />
  <rect
     style="fill:#ffffff;stroke:none"
     width="5.5"
     height="2"
     x="150.9643"
     y="126.2924" 
     transform="rotate(30.8408 153.7143 127.2924)"    /> 
  <path
     style="fill:none;stroke:#eda600;stroke-width:1px;stroke-linecap:butt;stroke-linejoin:miter;stroke-opacity:1"
    d="m 154.4643,125.2924 2,2 -2,2 m -1.5,-4 -2,2 2,2" transform="rotate(30.8408 153.7143 127.2924)"/>
  <line x1="136.2326" y1="96.8483" x2="134.9820" y2="76.1238" stroke="#33003e" stroke-width="1.0" />
  <rect
     style="fill:#ffffff;fill-opacity:1;fill-rule:nonzero;stroke:none"
     width="2"
     height="2"
     x="135.1073"
     y="85.4860"
     transform="rotate(266.5467 135.6073 86.4860)" /> 
  <path
     style="fill:none;stroke:#33003e;stroke-width:1px;stroke-linecap:butt;stroke-linejoin:miter;stroke-opacity:1"
     d="m 135.6073,84.4860 2,2 -2,2 m -2.370121,-4 2,2 -2,2"
     transform="rotate(266.5467 135.6073 86.4860)"/>
  <line x1="136.2326" y1="96.8483" x2="169.0621" y2="95.2298" stroke="#4e008f" stroke-width="1.0" />
  <line x1="167.7681" y1="73.8368" x2="169.0621" y2="95.2298" stroke="#6001c6" stroke-width="1.0" />
  <rect
     style="fill:#ffffff;fill-opacity:1;fill-rule:nonzero;stroke:none"
     width="2"
     height="2"
     x="167.9151"
     y="83.5333"
     transform="rotate(86.5388 168.4151 84.5333)" /> 
  <path
     style="fill:none;stroke:#6001c6;stroke-width:1px;stroke-linecap:butt;stroke-linejoin:miter;stroke-opacity:1"
     d="m 168.4151,82.5333 2,2 -2,2 m -2.370121,-4 2,2 -2,2"
     transform="rotate(86.5388 168.4151 84.5333)"/>
  <line x1="169.0621" y1="95.2298" x2="169.9145" y2="116.3258" stroke="#7102f1" stroke-width="1.0" />
  <rect
     style="fill:#ffffff;fill-opacity:1;fill-rule:nonzero;stroke:none"
     width="2"
     height="2"
     x="168.9883"
     y="104.7778"
     transform="rotate(87.6860 169.4883 105.7778)" /> 
  <path
     style="fill:none;stroke:#7102f1;stroke-width:1px;stroke-linecap:butt;stroke-linejoin:miter;stroke-opacity:1"
     d="m 169.4883,103.7778 2,2 -2,2 m -2.370121,-4 2,2 -2,2"
     transform="rotate(87.6860 169.4883 105.7778)"/>
  <line x1="169.9145" y1="116.3258" x2="170.3637" y2="137.2335" stroke="#a9165c" stroke-width="1.0" />
  <rect
     style="fill:#ffffff;fill-opacity:1;fill-rule:nonzero;stroke:none"
     width="2"
     height="2"
     x="169.6391"
     y="125.7797"
     transform="rotate(88.7692 170.1391 126.7797)" /> 
  <path
     style="fill:none;stroke:#a9165c;stroke-width:1px;stroke-linecap:butt;stroke-linejoin:miter;stroke-opacity:1"
     d="m 170.1391,124.7797 2,2 -2,2 m -2.370121,-4 2,2 -2,2"
     transform="rotate(88.7692 170.1391 126.7797)"/>
  <line x1="170.3637" y1="137.2335" x2="170.4477" y2="157.8963" stroke="#9109e5" stroke-width="1.0" />
  <rect
     style="fill:#ffffff;fill-opacity:1;fill-rule:nonzero;stroke:none"
     width="2"
     height="2"
     x="169.9057"
     y="146.5649"
     transform="rotate(89.7673 170.4057 147.5649)" /> 
  <path
     style="fill:none;stroke:#9109e5;stroke-width:1px;stroke-linecap:butt;stroke-linejoin:miter;stroke-opacity:1"
     d="m 170.4057,145.5649 2,2 -2,2 m -2.370121,-4 2,2 -2,2"
     transform="rotate(89.7673 170.4057 147.5649)"/>
  <line x1="170.4477" y1="157.8963" x2="170.1542" y2="178.3123" stroke="#bd2b00" stroke-width="1.0" />
  <rect
     style="fill:#ffffff;fill-opacity:1;fill-rule:nonzero;stroke:none"
     width="2"
     height="2"
     x="169.8009"
     y="167.1043"
     transform="rotate(90.8235 170.3009 168.1043)" /> 
  <path
     style="fill:none;stroke:#bd2b00;stroke-width:1px;stroke-linecap:butt;stroke-linejoin:miter;stroke-opacity:1"
     d="m 170.3009,166.1043 2,2 -2,2 m -2.370121,-4 2,2 -2,2"
     transform="rotate(90.8235 170.3009 168.1043)"/>
  <line x1="170.1542" y1="178.3123" x2="169.6093" y2="198.4657" stroke="#9b0dba" stroke-width="1.0" />
  <rect
     style="fill:#ffffff;fill-opacity:1;fill-rule:nonzero;stroke:none"
     width="2"
     height="2"
     x="169.3817"
     y="187.3890"
     transform="rotate(91.5489 169.8817 188.3890)" /> 
  <path
     style="fill:none;stroke:#9b0dba;stroke-width:1px;stroke-linecap:butt;stroke-linejoin:miter;stroke-opacity:1"
     d="m 169.8817,186.3890 2,2 -2,2 m -2.370121,-4 2,2 -2,2"
     transform="rotate(91.5489 169.8817 188.3890)"/>
  <line x1="168.9754" y1="218.4970" x2="168.3531" y2="238.4873" stroke="#000000" stroke-width="1.0" />
  <rect
     style="fill:#ffffff;fill-opacity:1;fill-rule:nonzero;stroke:none"
     width="2"
     height="2"
     x="168.1642"
     y="227.4922"
     transform="rotate(91.7833 168.6642 228.4922)" /> 
  <path
     style="fill:none;stroke:#000000;stroke-width:1px;stroke-linecap:butt;stroke-linejoin:miter;stroke-opacity:1"
     d="m 168.6642,226.4922 2,2 -2,2 m -2.370121,-4 2,2 -2,2"
     transform="rotate(91.7833 168.6642 228.4922)"/>
  <line x1="168.3531" y1="238.4873" x2="167.8155" y2="258.4791" stroke="#9d0eb1" stroke-width="1.0" />
  <rect
     style="fill:#ffffff;fill-opacity:1;fill-rule:nonzero;stroke:none"
     width="2"
     height="2"
     x="167.5843"
     y="247.4832"
     transform="rotate(91.5401 168.0843 248.4832)" /> 
  <path
     style="fill:none;stroke:#9d0eb1;stroke-width:1px;stroke-linecap:butt;stroke-linejoin:miter;stroke-opacity:1"
     d="m 168.0843,246.4832 2,2 -2,2 m -2.370121,-4 2,2 -2,2"
     transform="rotate(91.5401 168.0843 248.4832)"/>
<circle cx="135.2217" cy="257.7142" r="5.0" stroke="#595959" stroke-width="1.0" fill="#ffffff"/>
<text x="135.2217" y="260.4142" text-anchor="middle" font-family="Helvetica" font-size="7.5" fill="#000000" >G</text>
<circle cx="135.7070" cy="237.7218" r="5.0" stroke="#595959" stroke-width="1.0" fill="#ffffff"/>
<text x="135.7070" y="240.4218" text-anchor="middle" font-family="Helvetica" font-size="7.5" fill="#000000" >G</text>
<circle cx="136.3193" cy="217.7321" r="5.0" stroke="#595959" stroke-width="1.0" fill="#ffffff"/>
<text x="136.3193" y="220.4321" text-anchor="middle" font-family="Helvetica" font-size="7.5" fill="#000000" >C</text>
<circle cx="136.8178" cy="197.7423" r="5.0" stroke="#595959" stroke-width="1.0" fill="#ffffff"/>
<text x="136.8178" y="200.4423" text-anchor="middle" font-family="Helvetica" font-size="7.5" fill="#000000" >A</text>
<circle cx="137.3187" cy="177.7523" r="5.0" stroke="#595959" stroke-width="1.0" fill="#ffffff"/>
<text x="137.3187" y="180.4523" text-anchor="middle" font-family="Helvetica" font-size="7.5" fill="#000000" >G</text>
<circle cx="137.5777" cy="157.7551" r="5.0" stroke="#595959" stroke-width="1.0" fill="#ffffff"/>
<text x="137.5777" y="160.4551" text-anchor="middle" font-family="Helvetica" font-size="7.5" fill="#000000" >A</text>
<circle cx="137.5025" cy="137.6646" r="5.0" stroke="#595959" stroke-width="1.0" fill="#ffffff"/>
<text x="137.5025" y="140.3646" text-anchor="middle" font-family="Helvetica" font-size="7.5" fill="#000000" >U</text>
<circle cx="137.0649" cy="117.3513" r="5.0" stroke="#595959" stroke-width="1.0" fill="#ffffff"/>
<text x="137.0649" y="120.0513" text-anchor="middle" font-family="Helvetica" font-size="7.5" fill="#000000" >C</text>
<circle cx="136.2326" cy="96.8483" r="5.0" stroke="#595959" stroke-width="1.0" fill="#ffffff"/>
<text x="136.2326" y="99.5483" text-anchor="middle" font-family="Helvetica" font-size="7.5" fill="#000000" >U</text>
<circle cx="134.9820" cy="76.1238" r="5.0" stroke="#595959" stroke-width="1.0" fill="#ffffff"/>
<text x="134.9820" y="78.8238" text-anchor="middle" font-family="Helvetica" font-size="7.5" fill="#000000" >G</text>
<circle cx="139.8352" cy="56.5649" r="5.0" stroke="#595959" stroke-width="1.0" fill="#ffffff"/>
<text x="139.8352" y="59.2649" text-anchor="middle" font-family="Helvetica" font-size="7.5" fill="#000000" >U</text>
<circle cx="159.7433" cy="54.9187" r="5.0" stroke="#595959" stroke-width="1.0" fill="#ffffff"/>
<text x="159.7433" y="57.6187" text-anchor="middle" font-family="Helvetica" font-size="7.5" fill="#000000" >A</text>
<circle cx="167.7681" cy="73.8368" r="5.0" stroke="#595959" stroke-width="1.0" fill="#ffffff"/>
<text x="167.7681" y="76.5368" text-anchor="middle" font-family="Helvetica" font-size="7.5" fill="#000000" >A</text>
<circle cx="185.2136" cy="83.3469" r="5.0" stroke="#595959" stroke-width="1.0" fill="#ffffff"/>
<text x="185.2136" y="86.0469" text-anchor="middle" font-family="Helvetica" font-size="7.5" fill="#000000" >U</text>
<circle cx="169.0621" cy="95.2298" r="5.0" stroke="#595959" stroke-width="1.0" fill="#ffffff"/>
<text x="169.0621" y="97.9298" text-anchor="middle" font-family="Helvetica" font-size="7.5" fill="#000000" >A</text>
<circle cx="169.9145" cy="116.3258" r="5.0" stroke="#595959" stroke-width="1.0" fill="#ffffff"/>
<text x="169.9145" y="119.0258" text-anchor="middle" font-family="Helvetica" font-size="7.5" fill="#000000" >G</text>
<circle cx="170.3637" cy="137.2335" r="5.0" stroke="#595959" stroke-width="1.0" fill="#ffffff"/>
<text x="170.3637" y="139.9335" text-anchor="middle" font-family="Helvetica" font-size="7.5" fill="#000000" >A</text>
<circle cx="170.4477" cy="157.8963" r="5.0" stroke="#595959" stroke-width="1.0" fill="#ffffff"/>
<text x="170.4477" y="160.5963" text-anchor="middle" font-family="Helvetica" font-size="7.5" fill="#000000" >A</text>
<circle cx="170.1542" cy="178.3123" r="5.0" stroke="#595959" stroke-width="1.0" fill="#ffffff"/>
<text x="170.1542" y="181.0123" text-anchor="middle" font-family="Helvetica" font-size="7.5" fill="#000000" >C</text>
<circle cx="169.6093" cy="198.4657" r="5.0" stroke="#595959" stroke-width="1.0" fill="#ffffff"/>
<text x="169.6093" y="201.1657" text-anchor="middle" font-family="Helvetica" font-size="7.5" fill="#000000" >U</text>
<circle cx="168.9754" cy="218.4970" r="5.0" stroke="#595959" stroke-width="1.0" fill="#ffffff"/>
<text x="168.9754" y="221.1970" text-anchor="middle" font-family="Helvetica" font-size="7.5" fill="#000000" >G</text>
<circle cx="168.3531" cy="238.4873" r="5.0" stroke="#595959" stroke-width="1.0" fill="#ffffff"/>
<text x="168.3531" y="241.1873" text-anchor="middle" font-family="Helvetica" font-size="7.5" fill="#000000" >C</text>
<circle cx="167.8155" cy="258.4791" r="5.0" stroke="#595959" stroke-width="1.0" fill="#ffffff"/>
<text x="167.8155" y="261.1791" text-anchor="middle" font-family="Helvetica" font-size="7.5" fill="#000000" >C</text>
</svg>