<?xml version="1.0" encoding="UTF-8"?>
<!DOCTYPE svg PUBLIC "-//W3C//DTD SVG 1.1//EN" 
"http://www.w3.org/Graphics/SVG/1.1/DTD/svg11.dtd">

<svg version="1.1"
   width="308px"
   height="308px"
xmlns="http://www.w3.org/2000/svg">
    <rect width="100%" height="100%" fill="white"/>

  <line x1="137.1972" y1="217.9596" x2="137.6471" y2="197.8827" stroke="#595959"
     style="stroke-width:2;stroke-miterlimit:4;stroke-dasharray:1,1;stroke-dashoffset:0" />
  <line x1="136.4635" y1="74.7464" x2="133.2067" y2="54.8416" stroke="#595959"
     style="stroke-width:2;stroke-miterlimit:4;stroke-dasharray:1,1;stroke-dashoffset:0" />
  <line x1="133.2067" y1="54.8416" x2="152.1162" y2="61.1849" stroke="#595959"
     style="stroke-width:2;stroke-miterlimit:4;stroke-dasharray:1,1;stroke-dashoffset:0" />
  <line x1="152.1162" y1="61.1849" x2="168.5816" y2="73.0377" stroke="#595959"
     style="stroke-width:2;stroke-miterlimit:4;stroke-dasharray:1,1;stroke-dashoffset:0" />
  <line x1="168.5816" y1="73.0377" x2="185.6222" y2="83.2301" stroke="#595959"
     style="stroke-width:2;stroke-miterlimit:4;stroke-dasharray:1,1;stroke-dashoffset:0" />
  <line x1="185.6222" y1="83.2301" x2="169.5338" y2="95.0856" stroke="#595959"
     style="stroke-width:2;stroke-miterlimit:4;stroke-dasharray:1,1;stroke-dashoffset:0" />
  <line x1="170.1239" y1="198.3833" x2="169.6935" y2="218.5353" stroke="#595959"
     style="stroke-width:2;stroke-miterlimit:4;stroke-dasharray:1,1;stroke-dashoffset:0" />
  <line x1="138.1812" y1="154.3605" x2="170.6588" y2="154.3676" stroke="#c93d00" stroke-width="1.0" />
  <circle cx="154.4200" cy="154.3641" r="2.25" stroke="#c93d00" stroke-width="1.0" fill="#c93d00"/>
  <line x1="138.1805" y1="157.5605" x2="170.6581" y2="157.5676" stroke="#ca4000" stroke-width="1.0" />
  <path d="M 148.6693 159.8141 L 148.6693 155.3141 L 153.1693 155.3141 L 153.1693 159.8141 z" style="stroke:#ca4000;stroke-width:1.0" fill="#ca4000" 
    transform="rotate(0.0127 154.4193 157.5641)"/>
  <path d="M 156.1693 159.8141 L 156.1693 155.3141 L 160.1693 157.5641 z" style="stroke:#ca4000;stroke-width:1.0" fill="#ca4000"
    transform="rotate(0.0127 154.4193 157.5641)"/>
  <line x1="138.1798" y1="160.7605" x2="170.6574" y2="160.7676" stroke="#f3bd00" stroke-width="1.0" />
  <path d="M 148.6686 163.0141 L 148.6686 158.5141 L 153.1686 158.5141 L 153.1686 163.0141 z" style="stroke:#f3bd00;stroke-width:1.0" fill="#f3bd00" 
    transform="rotate(180.0127 154.4186 160.7641)"/>
  <path d="M 156.1686 163.0141 L 156.1686 158.5141 L 160.1686 160.7641 z" style="stroke:#f3bd00;stroke-width:1.0" fill="#f3bd00"
    transform="rotate(180.0127 154.4186 160.7641)"/>
  <line x1="136.5485" y1="76.3441" x2="168.6666" y2="74.6355" stroke="#ea9900" stroke-width="1.0" />
  <circle cx="156.1075" cy="75.4898" r="2.25" stroke="#ea9900" stroke-width="1.0" fill="#ea9900"
    transform="rotate(-3.0452 152.6075 75.4898)" />
  <path d="M 150.8575 77.7398 L 150.8575 73.2398 L 146.8575 75.4898 z" style="stroke:#ea9900;stroke-width:1.0" fill="#ea9900" 
    transform="rotate(-3.0452 152.6075 75.4898)"/>
  <line x1="136.1096" y1="258.0051" x2="136.6697" y2="237.9968" stroke="#e78c00" stroke-width="1.0" />
  <rect
     style="fill:#ffffff;fill-opacity:1;fill-rule:nonzero;stroke:none"
     width="2"
     height="2"
     x="135.8896"
     y="247.0009"
     transform="rotate(-88.3965 136.3896 248.0009)" /> 
  <path
     style="fill:none;stroke:#e78c00;stroke-width:1px;stroke-linecap:butt;stroke-linejoin:miter;stroke-opacity:1"
     d="m 136.3896,246.0009 2,2 -2,2 m -2.370121,-4 2,2 -2,2"
     transform="rotate(-88.3965 136.3896 248.0009)"/>
  <line x1="136.0859" y1="259.2548" x2="168.5879" y2="259.8719" stroke="#000000" stroke-width="1.0" />
  <line x1="136.1333" y1="256.7553" x2="168.6353" y2="257.3724" stroke="#000000" stroke-width="1.0" />
  <line x1="136.6697" y1="237.9968" x2="137.1972" y2="217.9596" stroke="#000000" stroke-width="1.0" />
  <rect
     style="fill:#ffffff;fill-opacity:1;fill-rule:nonzero;stroke:none"
     width="2"
     height="2"
     x="136.4334"
     y="226.9782"
     transform="rotate(-88.4919 136.9334 227.9782)" /> 
  <path
     style="fill:none;stroke:#000000;stroke-width:1px;stroke-linecap:butt;stroke-linejoin:miter;stroke-opacity:1"
     d="m 136.9334,225.9782 2,2 -2,2 m -2.370121,-4 2,2 -2,2"
     transform="rotate(-88.4919 136.9334 227.9782)"/>
  <line x1="136.6465" y1="239.2466" x2="169.1360" y2="239.8501" stroke="#000000" stroke-width="1.0" />
  <line x1="136.6929" y1="236.7470" x2="169.1825" y2="237.3506" stroke="#000000" stroke-width="1.0" />
  <line x1="136.6697" y1="237.9968" x2="168.6116" y2="258.6222" stroke="#c43500" stroke-width="1.0" />
  <rect
     style="fill:#ffffff;stroke:none"
     width="5.5"
     height="2"
     x="149.8907"
     y="247.3095" 
     transform="rotate(32.8509 152.6407 248.3095)"    /> 
  <path
     style="fill:none;stroke:#c43500;stroke-width:1px;stroke-linecap:butt;stroke-linejoin:miter;stroke-opacity:1"
    d="m 153.3907,246.3095 2,2 -2,2 m -1.5,-4 -2,2 2,2" transform="rotate(32.8509 152.6407 248.3095)"/>
  <line x1="137.1751" y1="219.2094" x2="169.6714" y2="219.7851" stroke="#000000" stroke-width="1.0" />
  <line x1="137.2194" y1="216.7098" x2="169.7156" y2="217.2855" stroke="#000000" stroke-width="1.0" />
  <line x1="137.6471" y1="197.8827" x2="137.9939" y2="177.7625" stroke="#ce4700" stroke-width="1.0" />
  <rect
     style="fill:#ffffff;fill-opacity:1;fill-rule:nonzero;stroke:none"
     width="2"
     height="2"
     x="137.3205"
     y="186.8226"
     transform="rotate(-89.0125 137.8205 187.8226)" /> 
  <path
     style="fill:none;stroke:#ce4700;stroke-width:1px;stroke-linecap:butt;stroke-linejoin:miter;stroke-opacity:1"
     d="m 137.8205,185.8226 2,2 -2,2 m -2.370121,-4 2,2 -2,2"
     transform="rotate(-89.0125 137.8205 187.8226)"/>
  <line x1="137.6471" y1="197.8827" x2="170.1239" y2="198.3833" stroke="#17000d" stroke-width="1.0" />
  <line x1="137.6471" y1="197.8827" x2="169.6935" y2="218.5353" stroke="#000000" stroke-width="1.0" />
  <rect
     style="fill:#ffffff;stroke:none"
     width="5.5"
     height="2"
     x="150.9203"
     y="207.2090" 
     transform="rotate(32.8002 153.6703 208.2090)"    /> 
  <path
     style="fill:none;stroke:#000000;stroke-width:1px;stroke-linecap:butt;stroke-linejoin:miter;stroke-opacity:1"
    d="m 154.4203,206.2090 2,2 -2,2 m -1.5,-4 -2,2 2,2" transform="rotate(32.8002 153.6703 208.2090)"/>
  <line x1="137.9939" y1="177.7625" x2="138.1805" y2="157.5605" stroke="#da6400" stroke-width="1.0" />
  <rect
     style="fill:#ffffff;fill-opacity:1;fill-rule:nonzero;stroke:none"
     width="2"
     height="2"
     x="137.5872"
     y="166.6615"
     transform="rotate(-89.4709 138.0872 167.6615)" /> 
  <path
     style="fill:none;stroke:#da6400;stroke-width:1px;stroke-linecap:butt;stroke-linejoin:miter;stroke-opacity:1"
     d="m 138.0872,165.6615 2,2 -2,2 m -2.370121,-4 2,2 -2,2"
     transform="rotate(-89.4709 138.0872 167.6615)"/>
  <line x1="137.9819" y1="179.0124" x2="170.4846" y2="179.3255" stroke="#000000" stroke-width="1.0" />
  <line x1="138.0060" y1="176.5125" x2="170.5087" y2="176.8256" stroke="#000000" stroke-width="1.0" />
  <line x1="137.9939" y1="177.7625" x2="170.1239" y2="198.3833" stroke="#d24f00" stroke-width="1.0" />
  <rect
     style="fill:#ffffff;stroke:none"
     width="5.5"
     height="2"
     x="151.3089"
     y="187.0729" 
     transform="rotate(32.6921 154.0589 188.0729)"    /> 
  <path
     style="fill:none;stroke:#d24f00;stroke-width:1px;stroke-linecap:butt;stroke-linejoin:miter;stroke-opacity:1"
    d="m 154.8089,186.0729 2,2 -2,2 m -1.5,-4 -2,2 2,2" transform="rotate(32.6921 154.0589 188.0729)"/>
  <line x1="138.1805" y1="157.5605" x2="138.1178" y2="137.2197" stroke="#990cc2" stroke-width="1.0" />
  <rect
     style="fill:#ffffff;fill-opacity:1;fill-rule:nonzero;stroke:none"
     width="2"
     height="2"
     x="137.6491"
     y="146.3901"
     transform="rotate(269.8233 138.1491 147.3901)" /> 
  <path
     style="fill:none;stroke:#990cc2;stroke-width:1px;stroke-linecap:butt;stroke-linejoin:miter;stroke-opacity:1"
     d="m 138.1491,145.3901 2,2 -2,2 m -2.370121,-4 2,2 -2,2"
     transform="rotate(269.8233 138.1491 147.3901)"/>
  <line x1="138.1805" y1="157.5605" x2="170.4967" y2="178.0756" stroke="#e78c00" stroke-width="1.0" />
  <rect
     style="fill:#ffffff;stroke:none"
     width="5.5"
     height="2"
     x="151.5886"
     y="166.8180" 
     transform="rotate(32.4084 154.3386 167.8180)"    /> 
  <path
     style="fill:none;stroke:#e78c00;stroke-width:1px;stroke-linecap:butt;stroke-linejoin:miter;stroke-opacity:1"
    d="m 155.0886,165.8180 2,2 -2,2 m -1.5,-4 -2,2 2,2" transform="rotate(32.4084 154.3386 167.8180)"/>
  <line x1="138.1178" y1="137.2197" x2="137.8161" y2="116.7092" stroke="#af1b2c" stroke-width="1.0" />
  <rect
     style="fill:#ffffff;fill-opacity:1;fill-rule:nonzero;stroke:none"
     width="2"
     height="2"
     x="137.4669"
     y="125.9644"
     transform="rotate(269.1572 137.9669 126.9644)" /> 
  <path
     style="fill:none;stroke:#af1b2c;stroke-width:1px;stroke-linecap:butt;stroke-linejoin:miter;stroke-opacity:1"
     d="m 137.9669,124.9644 2,2 -2,2 m -2.370121,-4 2,2 -2,2"
     transform="rotate(269.1572 137.9669 126.9644)"/>
  <line x1="138.1178" y1="137.2197" x2="170.5402" y2="136.8643" stroke="#400062" stroke-width="1.0" />
  <line x1="137.8161" y1="116.7092" x2="137.3569" y2="96.1081" stroke="#b92500" stroke-width="1.0" />
  <rect
     style="fill:#ffffff;fill-opacity:1;fill-rule:nonzero;stroke:none"
     width="2"
     height="2"
     x="137.0865"
     y="105.4086"
     transform="rotate(268.7232 137.5865 106.4086)" /> 
  <path
     style="fill:none;stroke:#b92500;stroke-width:1px;stroke-linecap:butt;stroke-linejoin:miter;stroke-opacity:1"
     d="m 137.5865,104.4086 2,2 -2,2 m -2.370121,-4 2,2 -2,2"
     transform="rotate(268.7232 137.5865 106.4086)"/>
  <line x1="137.8427" y1="117.9589" x2="170.1306" y2="117.2708" stroke="#17000d" stroke-width="1.0" />
  <line x1="137.7894" y1="115.4595" x2="170.0773" y2="114.7714" stroke="#17000d" stroke-width="1.0" />
  <line x1="137.8161" y1="116.7092" x2="170.5402" y2="136.8643" stroke="#b52100" stroke-width="1.0" />
  <rect
     style="fill:#ffffff;stroke:none"
     width="5.5"
     height="2"
     x="151.4281"
     y="125.7868" 
     transform="rotate(31.6294 154.1781 126.7868)"    /> 
  <path
     style="fill:none;stroke:#b52100;stroke-width:1px;stroke-linecap:butt;stroke-linejoin:miter;stroke-opacity:1"
    d="m 154.9281,124.7868 2,2 -2,2 m -1.5,-4 -2,2 2,2" transform="rotate(31.6294 154.1781 126.7868)"/>
  <line x1="137.3569" y1="96.1081" x2="136.4635" y2="74.7464" stroke="#dd6b00" stroke-width="1.0" />
  <rect
     style="fill:#ffffff;fill-opacity:1;fill-rule:nonzero;stroke:none"
     width="2"
     height="2"
     x="136.4102"
     y="84.4272"
     transform="rotate(267.6051 136.9102 85.4272)" /> 
  <path
     style="fill:none;stroke:#dd6b00;stroke-width:1px;stroke-linecap:butt;stroke-linejoin:miter;stroke-opacity:1"
     d="m 136.9102,83.4272 2,2 -2,2 m -2.370121,-4 2,2 -2,2"
     transform="rotate(267.6051 136.9102 85.4272)"/>
  <line x1="137.3569" y1="96.1081" x2="169.5338" y2="95.0856" stroke="#000000" stroke-width="1.0" />
  <line x1="137.3569" y1="96.1081" x2="170.1039" y2="116.0211" stroke="#c13000" stroke-width="1.0" />
  <rect
     style="fill:#ffffff;stroke:none"
     width="5.5"
     height="2"
     x="150.9804"
     y="105.0646" 
     transform="rotate(31.3033 153.7304 106.0646)"    /> 
  <path
     style="fill:none;stroke:#c13000;stroke-width:1px;stroke-linecap:butt;stroke-linejoin:miter;stroke-opacity:1"
    d="m 154.4804,104.0646 2,2 -2,2 m -1.5,-4 -2,2 2,2" transform="rotate(31.3033 153.7304 106.0646)"/>
  <line x1="136.4635" y1="74.7464" x2="152.1162" y2="61.1849" stroke="#44006e" stroke-width="1.0" />
  <rect
     style="fill:#ffffff;fill-opacity:1;fill-rule:nonzero;stroke:none"
     width="2"
     height="2"
     x="143.7899"
     y="66.9656"
     transform="rotate(-40.9055 144.2899 67.9656)" /> 
  <path
     style="fill:none;stroke:#44006e;stroke-width:1px;stroke-linecap:butt;stroke-linejoin:miter;stroke-opacity:1"
     d="m 144.2899,65.9656 2,2 -2,2 m -2.370121,-4 2,2 -2,2"
     transform="rotate(-40.9055 144.2899 67.9656)"/>
  <line x1="136.3785" y1="73.1486" x2="168.4966" y2="71.4400" stroke="#6501d5" stroke-width="1.0" />
  <circle cx="155.9375" cy="72.2943" r="2.25" stroke="#6501d5" stroke-width="1.0" fill="#ffffff"
    transform="rotate(-3.0452 152.4375 72.2943)" />
  <path d="M 150.6875 74.5443 L 150.6875 70.0443 L 146.6875 72.2943 z" style="stroke:#6501d5;stroke-width:1.0" fill="#ffffff" 
    transform="rotate(-3.0452 152.4375 72.2943)"/>
  <line x1="136.4635" y1="74.7464" x2="169.5338" y2="95.0856" stroke="#e99400" stroke-width="1.0" />
  <rect
     style="fill:#ffffff;stroke:none"
     width="5.5"
     height="2"
     x="150.2487"
     y="83.9160" 
     transform="rotate(31.5927 152.9987 84.9160)"    /> 
  <path
     style="fill:none;stroke:#e99400;stroke-width:1px;stroke-linecap:butt;stroke-linejoin:miter;stroke-opacity:1"
    d="m 153.7487,82.9160 2,2 -2,2 m -1.5,-4 -2,2 2,2" transform="rotate(31.5927 152.9987 84.9160)"/>
  <line x1="168.5816" y1="73.0377" x2="169.5338" y2="95.0856" stroke="#da6400" stroke-width="1.0" />
  <rect
     style="fill:#ffffff;stroke:none"
     width="5.5"
     height="2"
     x="166.3077"
     y="83.0616" 
     transform="rotate(87.5270 169.0577 84.0616)"    /> 
  <path
     style="fill:none;stroke:#da6400;stroke-width:1px;stroke-linecap:butt;stroke-linejoin:miter;stroke-opacity:1"
    d="m 169.8077,82.0616 2,2 -2,2 m -1.5,-4 -2,2 2,2" transform="rotate(87.5270 169.0577 84.0616)"/>
  <line x1="169.5338" y1="95.0856" x2="170.1039" y2="116.0211" stroke="#e27c00" stroke-width="1.0" />
  <rect
     style="fill:#ffffff;fill-opacity:1;fill-rule:nonzero;stroke:none"
     width="2"
     height="2"
     x="169.3189"
     y="104.5533"
     transform="rotate(88.4401 169.8189 105.5533)" /> 
  <path
     style="fill:none;stroke:#e27c00;stroke-width:1px;stroke-linecap:butt;stroke-linejoin:miter;stroke-opacity:1"
     d="m 169.8189,103.5533 2,2 -2,2 m -2.370121,-4 2,2 -2,2"
     transform="rotate(88.4401 169.8189 105.5533)"/>
  <line x1="170.1039" y1="116.0211" x2="170.5402" y2="136.8643" stroke="#e68800" stroke-width="1.0" />
  <rect
     style="fill:#ffffff;fill-opacity:1;fill-rule:nonzero;stroke:none"
     width="2"
     height="2"
     x="169.8221"
     y="125.4427"
     transform="rotate(88.8010 170.3221 126.4427)" /> 
  <path
     style="fill:none;stroke:#e68800;stroke-width:1px;stroke-linecap:butt;stroke-linejoin:miter;stroke-opacity:1"
     d="m 170.3221,124.4427 2,2 -2,2 m -2.370121,-4 2,2 -2,2"
     transform="rotate(88.8010 170.3221 126.4427)"/>
  <line x1="170.5402" y1="136.8643" x2="170.6581" y2="157.5676" stroke="#c43500" stroke-width="1.0" />
  <rect
     style="fill:#ffffff;fill-opacity:1;fill-rule:nonzero;stroke:none"
     width="2"
     height="2"
     x="170.0991"
     y="146.2160"
     transform="rotate(89.6736 170.5991 147.2160)" /> 
  <path
     style="fill:none;stroke:#c43500;stroke-width:1px;stroke-linecap:butt;stroke-linejoin:miter;stroke-opacity:1"
     d="m 170.5991,145.2160 2,2 -2,2 m -2.370121,-4 2,2 -2,2"
     transform="rotate(89.6736 170.5991 147.2160)"/>
  <line x1="170.6581" y1="157.5676" x2="170.4967" y2="178.0756" stroke="#b52100" stroke-width="1.0" />
  <rect
     style="fill:#ffffff;fill-opacity:1;fill-rule:nonzero;stroke:none"
     width="2"
     height="2"
     x="170.0774"
     y="166.8216"
     transform="rotate(90.4510 170.5774 167.8216)" /> 
  <path
     style="fill:none;stroke:#b52100;stroke-width:1px;stroke-linecap:butt;stroke-linejoin:miter;stroke-opacity:1"
     d="m 170.5774,165.8216 2,2 -2,2 m -2.370121,-4 2,2 -2,2"
     transform="rotate(90.4510 170.5774 167.8216)"/>
  <line x1="170.4967" y1="178.0756" x2="170.1239" y2="198.3833" stroke="#b82400" stroke-width="1.0" />
  <rect
     style="fill:#ffffff;fill-opacity:1;fill-rule:nonzero;stroke:none"
     width="2"
     height="2"
     x="169.8103"
     y="187.2294"
     transform="rotate(91.0515 170.3103 188.2294)" /> 
  <path
     style="fill:none;stroke:#b82400;stroke-width:1px;stroke-linecap:butt;stroke-linejoin:miter;stroke-opacity:1"
     d="m 170.3103,186.2294 2,2 -2,2 m -2.370121,-4 2,2 -2,2"
     transform="rotate(91.0515 170.3103 188.2294)"/>
  <line x1="169.6935" y1="218.5353" x2="169.1592" y2="238.6003" stroke="#000000" stroke-width="1.0" />
  <rect
     style="fill:#ffffff;fill-opacity:1;fill-rule:nonzero;stroke:none"
     width="2"
     height="2"
     x="168.9264"
     y="227.5678"
     transform="rotate(91.5252 169.4264 228.5678)" /> 
  <path
     style="fill:none;stroke:#000000;stroke-width:1px;stroke-linecap:butt;stroke-linejoin:miter;stroke-opacity:1"
     d="m 169.4264,226.5678 2,2 -2,2 m -2.370121,-4 2,2 -2,2"
     transform="rotate(91.5252 169.4264 228.5678)"/>
  <line x1="169.1592" y1="238.6003" x2="168.6116" y2="258.6222" stroke="#c33200" stroke-width="1.0" />
  <rect
     style="fill:#ffffff;fill-opacity:1;fill-rule:nonzero;stroke:none"
     width="2"
     height="2"
     x="168.3854"
     y="247.6113"
     transform="rotate(91.5667 168.8854 248.6113)" /> 
  <path
     style="fill:none;stroke:#c33200;stroke-width:1px;stroke-linecap:butt;stroke-linejoin:miter;stroke-opacity:1"
     d="m 168.8854,246.6113 2,2 -2,2 m -2.370121,-4 2,2 -2,2"
     transform="rotate(91.5667 168.8854 248.6113)"/>
<circle cx="136.1096" cy="258.0051" r="5.0" stroke="#595959" stroke-width="1.0" fill="#ffffff"/>
<text x="136.1096" y="260.7051" text-anchor="middle" font-family="Helvetica" font-size="7.5" fill="#000000" >G</text>
<circle cx="136.6697" cy="237.9968" r="5.0" stroke="#595959" stroke-width="1.0" fill="#ffffff"/>
<text x="136.6697" y="240.6968" text-anchor="middle" font-family="Helvetica" font-size="7.5" fill="#000000" >G</text>
<circle cx="137.1972" cy="217.9596" r="5.0" stroke="#595959" stroke-width="1.0" fill="#ffffff"/>
<text x="137.1972" y="220.6596" text-anchor="middle" font-family="Helvetica" font-size="7.5" fill="#000000" >C</text>
<circle cx="137.6471" cy="197.8827" r="5.0" stroke="#595959" stroke-width="1.0" fill="#ffffff"/>
<text x="137.6471" y="200.5827" text-anchor="middle" font-family="Helvetica" font-size="7.5" fill="#000000" >A</text>
<circle cx="137.9939" cy="177.7625" r="5.0" stroke="#595959" stroke-width="1.0" fill="#ffffff"/>
<text x="137.9939" y="180.4625" text-anchor="middle" font-family="Helvetica" font-size="7.5" fill="#000000" >G</text>
<circle cx="138.1805" cy="157.5605" r="5.0" stroke="#595959" stroke-width="1.0" fill="#ffffff"/>
<text x="138.1805" y="160.2605" text-anchor="middle" font-family="Helvetica" font-size="7.5" fill="#000000" >A</text>
<circle cx="138.1178" cy="137.2197" r="5.0" stroke="#595959" stroke-width="1.0" fill="#ffffff"/>
<text x="138.1178" y="139.9197" text-anchor="middle" font-family="Helvetica" font-size="7.5" fill="#000000" >U</text>
<circle cx="137.8161" cy="116.7092" r="5.0" stroke="#595959" stroke-width="1.0" fill="#ffffff"/>
<text x="137.8161" y="119.4092" text-anchor="middle" font-family="Helvetica" font-size="7.5" fill="#000000" >C</text>
<circle cx="137.3569" cy="96.1081" r="5.0" stroke="#595959" stroke-width="1.0" fill="#ffffff"/>
<text x="137.3569" y="98.8081" text-anchor="middle" font-family="Helvetica" font-size="7.5" fill="#000000" >U</text>
<circle cx="136.4635" cy="74.7464" r="5.0" stroke="#595959" stroke-width="1.0" fill="#ffffff"/>
<text x="136.4635" y="77.4464" text-anchor="middle" font-family="Helvetica" font-size="7.5" fill="#000000" >G</text>
<circle cx="133.2067" cy="54.8416" r="5.0" stroke="#595959" stroke-width="1.0" fill="#ffffff"/>
<text x="133.2067" y="57.5416" text-anchor="middle" font-family="Helvetica" font-size="7.5" fill="#000000" >U</text>
<circle cx="152.1162" cy="61.1849" r="5.0" stroke="#595959" stroke-width="1.0" fill="#ffffff"/>
<text x="152.1162" y="63.8849" text-anchor="middle" font-family="Helvetica" font-size="7.5" fill="#000000" >A</text>
<circle cx="168.5816" cy="73.0377" r="5.0" stroke="#595959" stroke-width="1.0" fill="#ffffff"/>
<text x="168.5816" y="75.7377" text-anchor="middle" font-family="Helvetica" font-size="7.5" fill="#000000" >A</text>
<circle cx="185.6222" cy="83.2301" r="5.0" stroke="#595959" stroke-width="1.0" fill="#ffffff"/>
<text x="185.6222" y="85.9301" text-anchor="middle" font-family="Helvetica" font-size="7.5" fill="#000000" >U</text>
<circle cx="169.5338" cy="95.0856" r="5.0" stroke="#595959" stroke-width="1.0" fill="#ffffff"/>
<text x="169.5338" y="97.7856" text-anchor="middle" font-family="Helvetica" font-size="7.5" fill="#000000" >A</text>
<circle cx="170.1039" cy="116.0211" r="5.0" stroke="#595959" stroke-width="1.0" fill="#ffffff"/>
<text x="170.1039" y="118.7211" text-anchor="middle" font-family="Helvetica" font-size="7.5" fill="#000000" >G</text>
<circle cx="170.5402" cy="136.8643" r="5.0" stroke="#595959" stroke-width="1.0" fill="#ffffff"/>
<text x="170.5402" y="139.5643" text-anchor="middle" font-family="Helvetica" font-size="7.5" fill="#000000" >A</text>
<circle cx="170.6581" cy="157.5676" r="5.0" stroke="#595959" stroke-width="1.0" fill="#ffffff"/>
<text x="170.6581" y="160.2676" text-anchor="middle" font-family="Helvetica" font-size="7.5" fill="#000000" >A</text>
<circle cx="170.4967" cy="178.0756" r="5.0" stroke="#595959" stroke-width="1.0" fill="#ffffff"/>
<text x="170.4967" y="180.7756" text-anchor="middle" font-family="Helvetica" font-size="7.5" fill="#000000" >C</text>
<circle cx="170.1239" cy="198.3833" r="5.0" stroke="#595959" stroke-width="1.0" fill="#ffffff"/>
<text x="170.1239" y="201.0833" text-anchor="middle" font-family="Helvetica" font-size="7.5" fill="#000000" >U</text>
<circle cx="169.6935" cy="218.5353" r="5.0" stroke="#595959" stroke-width="1.0" fill="#ffffff"/>
<text x="169.6935" y="221.2353" text-anchor="middle" font-family="Helvetica" font-size="7.5" fill="#000000" >G</text>
<circle cx="169.1592" cy="238.6003" r="5.0" stroke="#595959" stroke-width="1.0" fill="#ffffff"/>
<text x="169.1592" y="241.3003" text-anchor="middle" font-family="Helvetica" font-size="7.5" fill="#000000" >C</text>
<circle cx="168.6116" cy="258.6222" r="5.0" stroke="#595959" stroke-width="1.0" fill="#ffffff"/>
<text x="168.6116" y="261.3222" text-anchor="middle" font-family="Helvetica" font-size="7.5" fill="#000000" >C</text>
</svg>