<?xml version="1.0" encoding="UTF-8"?>
<!DOCTYPE svg PUBLIC "-//W3C//DTD SVG 1.1//EN" 
"http://www.w3.org/Graphics/SVG/1.1/DTD/svg11.dtd">

<svg version="1.1"
   width="182px"
   height="182px"
xmlns="http://www.w3.org/2000/svg">
    <rect width="100%" height="100%" fill="white"/>

  <line x1="73.8892" y1="109.0137" x2="74.0124" y2="88.9015" stroke="#595959"
     style="stroke-width:2;stroke-miterlimit:4;stroke-dasharray:1,1;stroke-dashoffset:0" />
  <line x1="73.8766" y1="68.7910" x2="69.7119" y2="49.2349" stroke="#595959"
     style="stroke-width:2;stroke-miterlimit:4;stroke-dasharray:1,1;stroke-dashoffset:0" />
  <line x1="83.7293" y1="35.0423" x2="100.4764" y2="46.0403" stroke="#595959"
     style="stroke-width:2;stroke-miterlimit:4;stroke-dasharray:1,1;stroke-dashoffset:0" />
  <line x1="100.4764" y1="46.0403" x2="119.2002" y2="52.7811" stroke="#595959"
     style="stroke-width:2;stroke-miterlimit:4;stroke-dasharray:1,1;stroke-dashoffset:0" />
  <line x1="119.2002" y1="52.7811" x2="106.7349" y2="68.3699" stroke="#595959"
     style="stroke-width:2;stroke-miterlimit:4;stroke-dasharray:1,1;stroke-dashoffset:0" />
  <line x1="106.8292" y1="88.8675" x2="106.7223" y2="109.3050" stroke="#595959"
     style="stroke-width:2;stroke-miterlimit:4;stroke-dasharray:1,1;stroke-dashoffset:0" />
  <line x1="73.0560" y1="149.1745" x2="73.5482" y2="129.1206" stroke="#d14c00" stroke-width="1.0" />
  <rect
     style="fill:#ffffff;fill-opacity:1;fill-rule:nonzero;stroke:none"
     width="2"
     height="2"
     x="72.8021"
     y="138.1476"
     transform="rotate(-88.5942 73.3021 139.1476)" /> 
  <path
     style="fill:none;stroke:#d14c00;stroke-width:1px;stroke-linecap:butt;stroke-linejoin:miter;stroke-opacity:1"
     d="m 73.3021,137.1476 2,2 -2,2 m -2.370121,-4 2,2 -2,2"
     transform="rotate(-88.5942 73.3021 139.1476)"/>
  <line x1="73.0339" y1="150.4243" x2="105.8393" y2="151.0047" stroke="#3c0057" stroke-width="1.0" />
  <line x1="73.0782" y1="147.9247" x2="105.8835" y2="148.5051" stroke="#3c0057" stroke-width="1.0" />
  <line x1="73.5482" y1="129.1206" x2="73.8892" y2="109.0137" stroke="#000000" stroke-width="1.0" />
  <rect
     style="fill:#ffffff;fill-opacity:1;fill-rule:nonzero;stroke:none"
     width="2"
     height="2"
     x="73.2187"
     y="118.0672"
     transform="rotate(-89.0284 73.7187 119.0672)" /> 
  <path
     style="fill:none;stroke:#000000;stroke-width:1px;stroke-linecap:butt;stroke-linejoin:miter;stroke-opacity:1"
     d="m 73.7187,117.0672 2,2 -2,2 m -2.370121,-4 2,2 -2,2"
     transform="rotate(-89.0284 73.7187 119.0672)"/>
  <line x1="73.5298" y1="130.3705" x2="106.3335" y2="130.8526" stroke="#2d0032" stroke-width="1.0" />
  <line x1="73.5666" y1="127.8707" x2="106.3703" y2="128.3529" stroke="#2d0032" stroke-width="1.0" />
  <line x1="73.5482" y1="129.1206" x2="105.8614" y2="149.7549" stroke="#ea9900" stroke-width="1.0" />
  <rect
     style="fill:#ffffff;stroke:none"
     width="5.5"
     height="2"
     x="86.9548"
     y="138.4377" 
     transform="rotate(32.5611 89.7048 139.4377)"    /> 
  <path
     style="fill:none;stroke:#ea9900;stroke-width:1px;stroke-linecap:butt;stroke-linejoin:miter;stroke-opacity:1"
    d="m 90.4548,137.4377 2,2 -2,2 m -1.5,-4 -2,2 2,2" transform="rotate(32.5611 89.7048 139.4377)"/>
  <line x1="73.8781" y1="110.2637" x2="106.7112" y2="110.5550" stroke="#33003e" stroke-width="1.0" />
  <line x1="73.9003" y1="107.7638" x2="106.7334" y2="108.0551" stroke="#33003e" stroke-width="1.0" />
  <line x1="74.0124" y1="88.9015" x2="73.8766" y2="68.7910" stroke="#000000" stroke-width="1.0" />
  <rect
     style="fill:#ffffff;fill-opacity:1;fill-rule:nonzero;stroke:none"
     width="2"
     height="2"
     x="73.4445"
     y="77.8463"
     transform="rotate(269.6130 73.9445 78.8463)" /> 
  <path
     style="fill:none;stroke:#000000;stroke-width:1px;stroke-linecap:butt;stroke-linejoin:miter;stroke-opacity:1"
     d="m 73.9445,76.8463 2,2 -2,2 m -2.370121,-4 2,2 -2,2"
     transform="rotate(269.6130 73.9445 78.8463)"/>
  <line x1="74.0137" y1="90.1515" x2="106.8305" y2="90.1175" stroke="#270026" stroke-width="1.0" />
  <line x1="74.0111" y1="87.6515" x2="106.8279" y2="87.6175" stroke="#270026" stroke-width="1.0" />
  <line x1="74.0124" y1="88.9015" x2="106.7223" y2="109.3050" stroke="#33003e" stroke-width="1.0" />
  <rect
     style="fill:#ffffff;stroke:none"
     width="5.5"
     height="2"
     x="87.6173"
     y="98.1033" 
     transform="rotate(31.9547 90.3673 99.1033)"    /> 
  <path
     style="fill:none;stroke:#33003e;stroke-width:1px;stroke-linecap:butt;stroke-linejoin:miter;stroke-opacity:1"
    d="m 91.1173,97.1033 2,2 -2,2 m -1.5,-4 -2,2 2,2" transform="rotate(31.9547 90.3673 99.1033)"/>
  <line x1="73.8766" y1="68.7910" x2="100.4764" y2="46.0403" stroke="#8f08ea" stroke-width="1.0" />
  <rect
     style="fill:#ffffff;fill-opacity:1;fill-rule:nonzero;stroke:none"
     width="2"
     height="2"
     x="86.6765"
     y="56.4157"
     transform="rotate(-40.5402 87.1765 57.4157)" /> 
  <path
     style="fill:none;stroke:#8f08ea;stroke-width:1px;stroke-linecap:butt;stroke-linejoin:miter;stroke-opacity:1"
     d="m 87.1765,55.4157 2,2 -2,2 m -2.370121,-4 2,2 -2,2"
     transform="rotate(-40.5402 87.1765 57.4157)"/>
  <line x1="73.8926" y1="70.0409" x2="106.7509" y2="69.6198" stroke="#2d0032" stroke-width="1.0" />
  <line x1="73.8605" y1="67.5411" x2="106.7189" y2="67.1200" stroke="#2d0032" stroke-width="1.0" />
  <line x1="69.7119" y1="49.2349" x2="83.7293" y2="35.0423" stroke="#200019" stroke-width="1.0" />
  <rect
     style="fill:#ffffff;fill-opacity:1;fill-rule:nonzero;stroke:none"
     width="2"
     height="2"
     x="76.2206"
     y="41.1386"
     transform="rotate(-45.3560 76.7206 42.1386)" /> 
  <path
     style="fill:none;stroke:#200019;stroke-width:1px;stroke-linecap:butt;stroke-linejoin:miter;stroke-opacity:1"
     d="m 76.7206,40.1386 2,2 -2,2 m -2.370121,-4 2,2 -2,2"
     transform="rotate(-45.3560 76.7206 42.1386)"/>
  <line x1="100.4764" y1="46.0403" x2="106.7349" y2="68.3699" stroke="#d75b00" stroke-width="1.0" />
  <rect
     style="fill:#ffffff;stroke:none"
     width="5.5"
     height="2"
     x="100.8557"
     y="56.2051" 
     transform="rotate(74.3430 103.6057 57.2051)"    /> 
  <path
     style="fill:none;stroke:#d75b00;stroke-width:1px;stroke-linecap:butt;stroke-linejoin:miter;stroke-opacity:1"
    d="m 104.3557,55.2051 2,2 -2,2 m -1.5,-4 -2,2 2,2" transform="rotate(74.3430 103.6057 57.2051)"/>
  <line x1="106.7349" y1="68.3699" x2="106.8292" y2="88.8675" stroke="#000000" stroke-width="1.0" />
  <rect
     style="fill:#ffffff;fill-opacity:1;fill-rule:nonzero;stroke:none"
     width="2"
     height="2"
     x="106.2820"
     y="77.6187"
     transform="rotate(89.7366 106.7820 78.6187)" /> 
  <path
     style="fill:none;stroke:#000000;stroke-width:1px;stroke-linecap:butt;stroke-linejoin:miter;stroke-opacity:1"
     d="m 106.7820,76.6187 2,2 -2,2 m -2.370121,-4 2,2 -2,2"
     transform="rotate(89.7366 106.7820 78.6187)"/>
  <line x1="106.7223" y1="109.3050" x2="106.3519" y2="129.6028" stroke="#000000" stroke-width="1.0" />
  <rect
     style="fill:#ffffff;fill-opacity:1;fill-rule:nonzero;stroke:none"
     width="2"
     height="2"
     x="106.0371"
     y="118.4539"
     transform="rotate(91.0455 106.5371 119.4539)" /> 
  <path
     style="fill:none;stroke:#000000;stroke-width:1px;stroke-linecap:butt;stroke-linejoin:miter;stroke-opacity:1"
     d="m 106.5371,117.4539 2,2 -2,2 m -2.370121,-4 2,2 -2,2"
     transform="rotate(91.0455 106.5371 119.4539)"/>
  <line x1="106.3519" y1="129.6028" x2="105.8614" y2="149.7549" stroke="#940ad9" stroke-width="1.0" />
  <rect
     style="fill:#ffffff;fill-opacity:1;fill-rule:nonzero;stroke:none"
     width="2"
     height="2"
     x="105.6067"
     y="138.6788"
     transform="rotate(91.3942 106.1067 139.6788)" /> 
  <path
     style="fill:none;stroke:#940ad9;stroke-width:1px;stroke-linecap:butt;stroke-linejoin:miter;stroke-opacity:1"
     d="m 106.1067,137.6788 2,2 -2,2 m -2.370121,-4 2,2 -2,2"
     transform="rotate(91.3942 106.1067 139.6788)"/>
<circle cx="73.0560" cy="149.1745" r="5.0" stroke="#595959" stroke-width="1.0" fill="#ffffff"/>
<text x="73.0560" y="151.8745" text-anchor="middle" font-family="Helvetica" font-size="7.5" fill="#000000" >G</text>
<circle cx="73.5482" cy="129.1206" r="5.0" stroke="#595959" stroke-width="1.0" fill="#ffffff"/>
<text x="73.5482" y="131.8206" text-anchor="middle" font-family="Helvetica" font-size="7.5" fill="#000000" >G</text>
<circle cx="73.8892" cy="109.0137" r="5.0" stroke="#595959" stroke-width="1.0" fill="#ffffff"/>
<text x="73.8892" y="111.7137" text-anchor="middle" font-family="Helvetica" font-size="7.5" fill="#000000" >C</text>
<circle cx="74.0124" cy="88.9015" r="5.0" stroke="#595959" stroke-width="1.0" fill="#ffffff"/>
<text x="74.0124" y="91.6015" text-anchor="middle" font-family="Helvetica" font-size="7.5" fill="#000000" >G</text>
<circle cx="73.8766" cy="68.7910" r="5.0" stroke="#595959" stroke-width="1.0" fill="#ffffff"/>
<text x="73.8766" y="71.4910" text-anchor="middle" font-family="Helvetica" font-size="7.5" fill="#000000" >C</text>
<circle cx="69.7119" cy="49.2349" r="5.0" stroke="#595959" stroke-width="1.0" fill="#ffffff"/>
<text x="69.7119" y="51.9349" text-anchor="middle" font-family="Helvetica" font-size="7.5" fill="#000000" >A</text>
<circle cx="83.7293" cy="35.0423" r="5.0" stroke="#595959" stroke-width="1.0" fill="#ffffff"/>
<text x="83.7293" y="37.7423" text-anchor="middle" font-family="Helvetica" font-size="7.5" fill="#000000" >U</text>
<circle cx="100.4764" cy="46.0403" r="5.0" stroke="#595959" stroke-width="1.0" fill="#ffffff"/>
<text x="100.4764" y="48.7403" text-anchor="middle" font-family="Helvetica" font-size="7.5" fill="#000000" >C</text>
<circle cx="119.2002" cy="52.7811" r="5.0" stroke="#595959" stroke-width="1.0" fill="#ffffff"/>
<text x="119.2002" y="55.4811" text-anchor="middle" font-family="Helvetica" font-size="7.5" fill="#000000" >G</text>
<circle cx="106.7349" cy="68.3699" r="5.0" stroke="#595959" stroke-width="1.0" fill="#ffffff"/>
<text x="106.7349" y="71.0699" text-anchor="middle" font-family="Helvetica" font-size="7.5" fill="#000000" >G</text>
<circle cx="106.8292" cy="88.8675" r="5.0" stroke="#595959" stroke-width="1.0" fill="#ffffff"/>
<text x="106.8292" y="91.5675" text-anchor="middle" font-family="Helvetica" font-size="7.5" fill="#000000" >C</text>
<circle cx="106.7223" cy="109.3050" r="5.0" stroke="#595959" stroke-width="1.0" fill="#ffffff"/>
<text x="106.7223" y="112.0050" text-anchor="middle" font-family="Helvetica" font-size="7.5" fill="#000000" >G</text>
<circle cx="106.3519" cy="129.6028" r="5.0" stroke="#595959" stroke-width="1.0" fill="#ffffff"/>
<text x="106.3519" y="132.3028" text-anchor="middle" font-family="Helvetica" font-size="7.5" fill="#000000" >C</text>
<circle cx="105.8614" cy="149.7549" r="5.0" stroke="#595959" stroke-width="1.0" fill="#ffffff"/>
<text x="105.8614" y="152.4549" text-anchor="middle" font-family="Helvetica" font-size="7.5" fill="#000000" >C</text>
</svg>