<?xml version="1.0" encoding="UTF-8"?>
<!DOCTYPE svg PUBLIC "-//W3C//DTD SVG 1.1//EN" 
"http://www.w3.org/Graphics/SVG/1.1/DTD/svg11.dtd">

<svg version="1.1"
   width="210px"
   height="210px"
xmlns="http://www.w3.org/2000/svg">
    <rect width="100%" height="100%" fill="white"/>

  <line x1="86.3347" y1="60.6777" x2="84.3621" y2="40.7440" stroke="#595959"
     style="stroke-width:2;stroke-miterlimit:4;stroke-dasharray:1,1;stroke-dashoffset:0" />
  <line x1="84.3621" y1="40.7440" x2="102.7378" y2="48.5009" stroke="#595959"
     style="stroke-width:2;stroke-miterlimit:4;stroke-dasharray:1,1;stroke-dashoffset:0" />
  <line x1="102.7378" y1="48.5009" x2="119.3875" y2="59.6981" stroke="#595959"
     style="stroke-width:2;stroke-miterlimit:4;stroke-dasharray:1,1;stroke-dashoffset:0" />
  <line x1="119.3875" y1="59.6981" x2="136.6486" y2="69.5780" stroke="#595959"
     style="stroke-width:2;stroke-miterlimit:4;stroke-dasharray:1,1;stroke-dashoffset:0" />
  <line x1="136.6486" y1="69.5780" x2="119.8744" y2="80.6657" stroke="#595959"
     style="stroke-width:2;stroke-miterlimit:4;stroke-dasharray:1,1;stroke-dashoffset:0" />
  <line x1="86.3424" y1="143.6196" x2="119.8484" y2="144.1113" stroke="#e99400" stroke-width="1.0" />
  <circle cx="103.0954" cy="143.8654" r="2.25" stroke="#e99400" stroke-width="1.0" fill="#e99400"/>
  <line x1="86.6295" y1="123.3493" x2="119.9902" y2="123.5697" stroke="#eb9d00" stroke-width="1.0" />
  <circle cx="103.3099" cy="123.4595" r="2.25" stroke="#eb9d00" stroke-width="1.0" fill="#eb9d00"/>
  <line x1="86.2873" y1="59.0784" x2="119.3401" y2="58.0988" stroke="#e38000" stroke-width="1.0" />
  <circle cx="102.8137" cy="58.5886" r="2.25" stroke="#e38000" stroke-width="1.0" fill="#e38000"/>
  <line x1="86.3347" y1="60.6777" x2="119.8744" y2="80.6657" stroke="#eeaa00" stroke-width="1.0" />
  <circle cx="103.1045" cy="70.6717" r="2.25" stroke="#eeaa00" stroke-width="1.0" fill="#eeaa00"/>
  <line x1="86.0917" y1="162.1916" x2="86.3659" y2="142.0197" stroke="#a61473" stroke-width="1.0" />
  <rect
     style="fill:#ffffff;fill-opacity:1;fill-rule:nonzero;stroke:none"
     width="2"
     height="2"
     x="85.7288"
     y="151.1057"
     transform="rotate(-89.2211 86.2288 152.1057)" /> 
  <path
     style="fill:none;stroke:#a61473;stroke-width:1px;stroke-linecap:butt;stroke-linejoin:miter;stroke-opacity:1"
     d="m 86.2288,150.1057 2,2 -2,2 m -2.370121,-4 2,2 -2,2"
     transform="rotate(-89.2211 86.2288 152.1057)"/>
  <line x1="86.0664" y1="163.4414" x2="119.3815" y2="164.1156" stroke="#37004b" stroke-width="1.0" />
  <line x1="86.1169" y1="160.9419" x2="119.4321" y2="161.6161" stroke="#37004b" stroke-width="1.0" />
  <line x1="86.0917" y1="162.1916" x2="118.7510" y2="183.0577" stroke="#d45500" stroke-width="1.0" />
  <rect
     style="fill:#ffffff;fill-opacity:1;fill-rule:nonzero;stroke:none"
     width="2"
     height="2"
     x="101.9213"
     y="171.6247"
     transform="rotate(212.5745 102.4213 172.6247)" /> 
  <path
     style="fill:none;stroke:#d45500;stroke-width:1px;stroke-linecap:butt;stroke-linejoin:miter;stroke-opacity:1"
     d="m 102.4213,170.6247 2,2 -2,2 m -2.370121,-4 2,2 -2,2"
     transform="rotate(212.5745 102.4213 172.6247)"/>
  <line x1="86.3659" y1="142.0197" x2="86.6401" y2="121.7493" stroke="#000000" stroke-width="1.0" />
  <rect
     style="fill:#ffffff;fill-opacity:1;fill-rule:nonzero;stroke:none"
     width="2"
     height="2"
     x="86.0030"
     y="130.8845"
     transform="rotate(-89.2249 86.5030 131.8845)" /> 
  <path
     style="fill:none;stroke:#000000;stroke-width:1px;stroke-linecap:butt;stroke-linejoin:miter;stroke-opacity:1"
     d="m 86.5030,129.8845 2,2 -2,2 m -2.370121,-4 2,2 -2,2"
     transform="rotate(-89.2249 86.5030 131.8845)"/>
  <line x1="86.3894" y1="140.4199" x2="119.8953" y2="140.9116" stroke="#6a01e2" stroke-width="1.0" />
  <line x1="86.3659" y1="142.0197" x2="119.4068" y2="162.8658" stroke="#ea9900" stroke-width="1.0" />
  <rect
     style="fill:#ffffff;stroke:none"
     width="5.5"
     height="2"
     x="100.1364"
     y="151.4428" 
     transform="rotate(32.2485 102.8864 152.4428)"    /> 
  <path
     style="fill:none;stroke:#ea9900;stroke-width:1px;stroke-linecap:butt;stroke-linejoin:miter;stroke-opacity:1"
    d="m 103.6364,150.4428 2,2 -2,2 m -1.5,-4 -2,2 2,2" transform="rotate(32.2485 102.8864 152.4428)"/>
  <line x1="86.6401" y1="121.7493" x2="86.8184" y2="101.3721" stroke="#940ad9" stroke-width="1.0" />
  <rect
     style="fill:#ffffff;fill-opacity:1;fill-rule:nonzero;stroke:none"
     width="2"
     height="2"
     x="86.2292"
     y="110.5607"
     transform="rotate(-89.4988 86.7292 111.5607)" /> 
  <path
     style="fill:none;stroke:#940ad9;stroke-width:1px;stroke-linecap:butt;stroke-linejoin:miter;stroke-opacity:1"
     d="m 86.7292,109.5607 2,2 -2,2 m -2.370121,-4 2,2 -2,2"
     transform="rotate(-89.4988 86.7292 111.5607)"/>
  <line x1="86.6507" y1="120.1493" x2="120.0114" y2="120.3698" stroke="#6501d5" stroke-width="1.0" />
  <line x1="86.8184" y1="101.3721" x2="86.7665" y2="81.0443" stroke="#8004ff" stroke-width="1.0" />
  <rect
     style="fill:#ffffff;fill-opacity:1;fill-rule:nonzero;stroke:none"
     width="2"
     height="2"
     x="86.2924"
     y="90.2082"
     transform="rotate(269.8539 86.7924 91.2082)" /> 
  <path
     style="fill:none;stroke:#8004ff;stroke-width:1px;stroke-linecap:butt;stroke-linejoin:miter;stroke-opacity:1"
     d="m 86.7924,89.2082 2,2 -2,2 m -2.370121,-4 2,2 -2,2"
     transform="rotate(269.8539 86.7924 91.2082)"/>
  <line x1="86.8190" y1="102.6221" x2="119.9427" y2="102.6039" stroke="#33003e" stroke-width="1.0" />
  <line x1="86.8177" y1="100.1221" x2="119.9413" y2="100.1039" stroke="#33003e" stroke-width="1.0" />
  <line x1="86.7665" y1="81.0443" x2="86.3347" y2="60.6777" stroke="#7e04ff" stroke-width="1.0" />
  <rect
     style="fill:#ffffff;fill-opacity:1;fill-rule:nonzero;stroke:none"
     width="2"
     height="2"
     x="86.0506"
     y="69.8610"
     transform="rotate(268.7853 86.5506 70.8610)" /> 
  <path
     style="fill:none;stroke:#7e04ff;stroke-width:1px;stroke-linecap:butt;stroke-linejoin:miter;stroke-opacity:1"
     d="m 86.5506,68.8610 2,2 -2,2 m -2.370121,-4 2,2 -2,2"
     transform="rotate(268.7853 86.5506 70.8610)"/>
  <line x1="86.7665" y1="81.0443" x2="119.8744" y2="80.6657" stroke="#400062" stroke-width="1.0" />
  <line x1="86.3347" y1="60.6777" x2="102.7378" y2="48.5009" stroke="#270026" stroke-width="1.0" />
  <rect
     style="fill:#ffffff;fill-opacity:1;fill-rule:nonzero;stroke:none"
     width="2"
     height="2"
     x="94.0362"
     y="53.5893"
     transform="rotate(-36.5881 94.5362 54.5893)" /> 
  <path
     style="fill:none;stroke:#270026;stroke-width:1px;stroke-linecap:butt;stroke-linejoin:miter;stroke-opacity:1"
     d="m 94.5362,52.5893 2,2 -2,2 m -2.370121,-4 2,2 -2,2"
     transform="rotate(-36.5881 94.5362 54.5893)"/>
  <line x1="86.4191" y1="63.5264" x2="119.4719" y2="62.5469" stroke="#7302f5" stroke-width="1.0" />
  <line x1="86.3450" y1="61.0275" x2="119.3978" y2="60.0480" stroke="#7302f5" stroke-width="1.0" />
  <line x1="119.3875" y1="59.6981" x2="119.8744" y2="80.6657" stroke="#6d02e7" stroke-width="1.0" />
  <rect
     style="fill:#ffffff;fill-opacity:1;fill-rule:nonzero;stroke:none"
     width="2"
     height="2"
     x="119.1309"
     y="69.1819"
     transform="rotate(88.6697 119.6309 70.1819)" /> 
  <path
     style="fill:none;stroke:#6d02e7;stroke-width:1px;stroke-linecap:butt;stroke-linejoin:miter;stroke-opacity:1"
     d="m 119.6309,68.1819 2,2 -2,2 m -2.370121,-4 2,2 -2,2"
     transform="rotate(88.6697 119.6309 70.1819)"/>
  <line x1="119.8744" y1="80.6657" x2="119.9420" y2="101.3539" stroke="#7e04ff" stroke-width="1.0" />
  <rect
     style="fill:#ffffff;fill-opacity:1;fill-rule:nonzero;stroke:none"
     width="2"
     height="2"
     x="119.4082"
     y="90.0098"
     transform="rotate(89.8128 119.9082 91.0098)" /> 
  <path
     style="fill:none;stroke:#7e04ff;stroke-width:1px;stroke-linecap:butt;stroke-linejoin:miter;stroke-opacity:1"
     d="m 119.9082,89.0098 2,2 -2,2 m -2.370121,-4 2,2 -2,2"
     transform="rotate(89.8128 119.9082 91.0098)"/>
  <line x1="119.9420" y1="101.3539" x2="120.0008" y2="121.9698" stroke="#8d07ef" stroke-width="1.0" />
  <rect
     style="fill:#ffffff;fill-opacity:1;fill-rule:nonzero;stroke:none"
     width="2"
     height="2"
     x="119.4714"
     y="110.6618"
     transform="rotate(89.8366 119.9714 111.6618)" /> 
  <path
     style="fill:none;stroke:#8d07ef;stroke-width:1px;stroke-linecap:butt;stroke-linejoin:miter;stroke-opacity:1"
     d="m 119.9714,109.6618 2,2 -2,2 m -2.370121,-4 2,2 -2,2"
     transform="rotate(89.8366 119.9714 111.6618)"/>
  <line x1="120.0008" y1="121.9698" x2="119.8719" y2="142.5114" stroke="#000000" stroke-width="1.0" />
  <rect
     style="fill:#ffffff;fill-opacity:1;fill-rule:nonzero;stroke:none"
     width="2"
     height="2"
     x="119.4363"
     y="131.2406"
     transform="rotate(90.3596 119.9363 132.2406)" /> 
  <path
     style="fill:none;stroke:#000000;stroke-width:1px;stroke-linecap:butt;stroke-linejoin:miter;stroke-opacity:1"
     d="m 119.9363,130.2406 2,2 -2,2 m -2.370121,-4 2,2 -2,2"
     transform="rotate(90.3596 119.9363 132.2406)"/>
  <line x1="119.8719" y1="142.5114" x2="119.4068" y2="162.8658" stroke="#960bd2" stroke-width="1.0" />
  <rect
     style="fill:#ffffff;fill-opacity:1;fill-rule:nonzero;stroke:none"
     width="2"
     height="2"
     x="119.1393"
     y="151.6886"
     transform="rotate(91.3088 119.6393 152.6886)" /> 
  <path
     style="fill:none;stroke:#960bd2;stroke-width:1px;stroke-linecap:butt;stroke-linejoin:miter;stroke-opacity:1"
     d="m 119.6393,150.6886 2,2 -2,2 m -2.370121,-4 2,2 -2,2"
     transform="rotate(91.3088 119.6393 152.6886)"/>
  <line x1="121.0060" y1="162.9178" x2="120.3502" y2="183.1097" stroke="#e38000" stroke-width="1.0" />
  <rect
     style="fill:#ffffff;fill-opacity:1;fill-rule:nonzero;stroke:none"
     width="2"
     height="2"
     x="119.6781"
     y="172.0137" 
     transform="rotate(91.8602 120.6781 173.0137)" /> 
  <path
     style="fill:none;stroke:#e38000;stroke-width:1px;stroke-linecap:butt;stroke-linejoin:miter;stroke-opacity:1"
     d="m 123.6781,171.0137 -2,2 2,2 m -6,-4 2,2 -2,2"
     transform="rotate(91.8602 120.6781 173.0137)"/>
  <line x1="117.8077" y1="162.8139" x2="117.1519" y2="183.0058" stroke="#d45500" stroke-width="1.0" />
  <rect
     style="fill:#ffffff;fill-opacity:1;fill-rule:nonzero;stroke:none"
     width="2"
     height="2"
     x="116.9798"
     y="171.9098"
     transform="rotate(91.8602 117.4798 172.9098)" /> 
  <path
     style="fill:none;stroke:#d45500;stroke-width:1px;stroke-linecap:butt;stroke-linejoin:miter;stroke-opacity:1"
     d="m 117.4798,170.9098 2,2 -2,2 m -2.370121,-4 2,2 -2,2"
     transform="rotate(91.8602 117.4798 172.9098)"/>
<circle cx="86.0917" cy="162.1916" r="5.0" stroke="#595959" stroke-width="1.0" fill="#ffffff"/>
<text x="86.0917" y="164.8916" text-anchor="middle" font-family="Helvetica" font-size="7.5" fill="#000000" >G</text>
<circle cx="86.3659" cy="142.0197" r="5.0" stroke="#595959" stroke-width="1.0" fill="#ffffff"/>
<text x="86.3659" y="144.7197" text-anchor="middle" font-family="Helvetica" font-size="7.5" fill="#000000" >A</text>
<circle cx="86.6401" cy="121.7493" r="5.0" stroke="#595959" stroke-width="1.0" fill="#ffffff"/>
<text x="86.6401" y="124.4493" text-anchor="middle" font-family="Helvetica" font-size="7.5" fill="#000000" >U</text>
<circle cx="86.8184" cy="101.3721" r="5.0" stroke="#595959" stroke-width="1.0" fill="#ffffff"/>
<text x="86.8184" y="104.0721" text-anchor="middle" font-family="Helvetica" font-size="7.5" fill="#000000" >C</text>
<circle cx="86.7665" cy="81.0443" r="5.0" stroke="#595959" stroke-width="1.0" fill="#ffffff"/>
<text x="86.7665" y="83.7443" text-anchor="middle" font-family="Helvetica" font-size="7.5" fill="#000000" >U</text>
<circle cx="86.3347" cy="60.6777" r="5.0" stroke="#595959" stroke-width="1.0" fill="#ffffff"/>
<text x="86.3347" y="63.3777" text-anchor="middle" font-family="Helvetica" font-size="7.5" fill="#000000" >C</text>
<circle cx="84.3621" cy="40.7440" r="5.0" stroke="#595959" stroke-width="1.0" fill="#ffffff"/>
<text x="84.3621" y="43.4440" text-anchor="middle" font-family="Helvetica" font-size="7.5" fill="#000000" >U</text>
<circle cx="102.7378" cy="48.5009" r="5.0" stroke="#595959" stroke-width="1.0" fill="#ffffff"/>
<text x="102.7378" y="51.2009" text-anchor="middle" font-family="Helvetica" font-size="7.5" fill="#000000" >U</text>
<circle cx="119.3875" cy="59.6981" r="5.0" stroke="#595959" stroke-width="1.0" fill="#ffffff"/>
<text x="119.3875" y="62.3981" text-anchor="middle" font-family="Helvetica" font-size="7.5" fill="#000000" >G</text>
<circle cx="136.6486" cy="69.5780" r="5.0" stroke="#595959" stroke-width="1.0" fill="#ffffff"/>
<text x="136.6486" y="72.2780" text-anchor="middle" font-family="Helvetica" font-size="7.5" fill="#000000" >U</text>
<circle cx="119.8744" cy="80.6657" r="5.0" stroke="#595959" stroke-width="1.0" fill="#ffffff"/>
<text x="119.8744" y="83.3657" text-anchor="middle" font-family="Helvetica" font-size="7.5" fill="#000000" >A</text>
<circle cx="119.9420" cy="101.3539" r="5.0" stroke="#595959" stroke-width="1.0" fill="#ffffff"/>
<text x="119.9420" y="104.0539" text-anchor="middle" font-family="Helvetica" font-size="7.5" fill="#000000" >G</text>
<circle cx="120.0008" cy="121.9698" r="5.0" stroke="#595959" stroke-width="1.0" fill="#ffffff"/>
<text x="120.0008" y="124.6698" text-anchor="middle" font-family="Helvetica" font-size="7.5" fill="#000000" >A</text>
<circle cx="119.8719" cy="142.5114" r="5.0" stroke="#595959" stroke-width="1.0" fill="#ffffff"/>
<text x="119.8719" y="145.2114" text-anchor="middle" font-family="Helvetica" font-size="7.5" fill="#000000" >U</text>
<circle cx="119.4068" cy="162.8658" r="5.0" stroke="#595959" stroke-width="1.0" fill="#ffffff"/>
<text x="119.4068" y="165.5658" text-anchor="middle" font-family="Helvetica" font-size="7.5" fill="#000000" >C</text>
<circle cx="118.7510" cy="183.0577" r="5.0" stroke="#595959" stroke-width="1.0" fill="#ffffff"/>
<text x="118.7510" y="185.7577" text-anchor="middle" font-family="Helvetica" font-size="7.5" fill="#000000" >A</text>
</svg>