<?xml version="1.0" encoding="UTF-8"?>
<!DOCTYPE svg PUBLIC "-//W3C//DTD SVG 1.1//EN" 
"http://www.w3.org/Graphics/SVG/1.1/DTD/svg11.dtd">

<svg version="1.1"
   width="182px"
   height="182px"
xmlns="http://www.w3.org/2000/svg">
    <rect width="100%" height="100%" fill="white"/>

  <line x1="73.6708" y1="110.3991" x2="73.8644" y2="90.4458" stroke="#595959"
     style="stroke-width:2;stroke-miterlimit:4;stroke-dasharray:1,1;stroke-dashoffset:0" />
  <line x1="73.7383" y1="70.5058" x2="74.1579" y2="50.5807" stroke="#595959"
     style="stroke-width:2;stroke-miterlimit:4;stroke-dasharray:1,1;stroke-dashoffset:0" />
  <line x1="83.5059" y1="32.9469" x2="103.4438" y2="34.1198" stroke="#595959"
     style="stroke-width:2;stroke-miterlimit:4;stroke-dasharray:1,1;stroke-dashoffset:0" />
  <line x1="113.4443" y1="51.4171" x2="106.5177" y2="70.2293" stroke="#595959"
     style="stroke-width:2;stroke-miterlimit:4;stroke-dasharray:1,1;stroke-dashoffset:0" />
  <line x1="106.7012" y1="90.4473" x2="106.5852" y2="110.6419" stroke="#595959"
     style="stroke-width:2;stroke-miterlimit:4;stroke-dasharray:1,1;stroke-dashoffset:0" />
  <line x1="72.9280" y1="150.3461" x2="73.3317" y2="130.3540" stroke="#d55800" stroke-width="1.0" />
  <rect
     style="fill:#ffffff;fill-opacity:1;fill-rule:nonzero;stroke:none"
     width="2"
     height="2"
     x="72.6299"
     y="139.3501"
     transform="rotate(-88.8434 73.1299 140.3501)" /> 
  <path
     style="fill:none;stroke:#d55800;stroke-width:1px;stroke-linecap:butt;stroke-linejoin:miter;stroke-opacity:1"
     d="m 73.1299,138.3501 2,2 -2,2 m -2.370121,-4 2,2 -2,2"
     transform="rotate(-88.8434 73.1299 140.3501)"/>
  <line x1="72.9109" y1="151.5960" x2="105.8188" y2="152.0471" stroke="#270026" stroke-width="1.0" />
  <line x1="72.9452" y1="149.0962" x2="105.8530" y2="149.5473" stroke="#270026" stroke-width="1.0" />
  <line x1="73.3317" y1="130.3540" x2="73.6708" y2="110.3991" stroke="#000000" stroke-width="1.0" />
  <rect
     style="fill:#ffffff;fill-opacity:1;fill-rule:nonzero;stroke:none"
     width="2"
     height="2"
     x="73.0012"
     y="119.3766"
     transform="rotate(-89.0265 73.5012 120.3766)" /> 
  <path
     style="fill:none;stroke:#000000;stroke-width:1px;stroke-linecap:butt;stroke-linejoin:miter;stroke-opacity:1"
     d="m 73.5012,118.3766 2,2 -2,2 m -2.370121,-4 2,2 -2,2"
     transform="rotate(-89.0265 73.5012 120.3766)"/>
  <line x1="73.3159" y1="131.6039" x2="106.2591" y2="132.0189" stroke="#2d0032" stroke-width="1.0" />
  <line x1="73.3474" y1="129.1041" x2="106.2906" y2="129.5191" stroke="#2d0032" stroke-width="1.0" />
  <line x1="73.3317" y1="130.3540" x2="105.8359" y2="150.7972" stroke="#e27c00" stroke-width="1.0" />
  <rect
     style="fill:#ffffff;stroke:none"
     width="5.5"
     height="2"
     x="86.8338"
     y="139.5756" 
     transform="rotate(32.1674 89.5838 140.5756)"    /> 
  <path
     style="fill:none;stroke:#e27c00;stroke-width:1px;stroke-linecap:butt;stroke-linejoin:miter;stroke-opacity:1"
    d="m 90.3338,138.5756 2,2 -2,2 m -1.5,-4 -2,2 2,2" transform="rotate(32.1674 89.5838 140.5756)"/>
  <line x1="73.6615" y1="111.6491" x2="106.5760" y2="111.8918" stroke="#2d0032" stroke-width="1.0" />
  <line x1="73.6800" y1="109.1492" x2="106.5944" y2="109.3919" stroke="#2d0032" stroke-width="1.0" />
  <line x1="73.8644" y1="90.4458" x2="73.7383" y2="70.5058" stroke="#000000" stroke-width="1.0" />
  <rect
     style="fill:#ffffff;fill-opacity:1;fill-rule:nonzero;stroke:none"
     width="2"
     height="2"
     x="73.3014"
     y="79.4758"
     transform="rotate(269.6375 73.8014 80.4758)" /> 
  <path
     style="fill:none;stroke:#000000;stroke-width:1px;stroke-linecap:butt;stroke-linejoin:miter;stroke-opacity:1"
     d="m 73.8014,78.4758 2,2 -2,2 m -2.370121,-4 2,2 -2,2"
     transform="rotate(269.6375 73.8014 80.4758)"/>
  <line x1="73.8644" y1="91.6958" x2="106.7012" y2="91.6973" stroke="#2d0032" stroke-width="1.0" />
  <line x1="73.8645" y1="89.1958" x2="106.7013" y2="89.1973" stroke="#2d0032" stroke-width="1.0" />
  <line x1="73.8644" y1="90.4458" x2="106.5852" y2="110.6419" stroke="#200019" stroke-width="1.0" />
  <rect
     style="fill:#ffffff;stroke:none"
     width="5.5"
     height="2"
     x="87.4748"
     y="99.5438" 
     transform="rotate(31.6838 90.2248 100.5438)"    /> 
  <path
     style="fill:none;stroke:#200019;stroke-width:1px;stroke-linecap:butt;stroke-linejoin:miter;stroke-opacity:1"
    d="m 90.9748,98.5438 2,2 -2,2 m -1.5,-4 -2,2 2,2" transform="rotate(31.6838 90.2248 100.5438)"/>
  <line x1="73.7488" y1="71.7557" x2="106.5283" y2="71.4792" stroke="#200019" stroke-width="1.0" />
  <line x1="73.7277" y1="69.2558" x2="106.5072" y2="68.9793" stroke="#200019" stroke-width="1.0" />
  <line x1="74.1579" y1="50.5807" x2="83.5059" y2="32.9469" stroke="#000000" stroke-width="1.0" />
  <rect
     style="fill:#ffffff;fill-opacity:1;fill-rule:nonzero;stroke:none"
     width="2"
     height="2"
     x="78.3319"
     y="40.7638"
     transform="rotate(-62.0709 78.8319 41.7638)" /> 
  <path
     style="fill:none;stroke:#000000;stroke-width:1px;stroke-linecap:butt;stroke-linejoin:miter;stroke-opacity:1"
     d="m 78.8319,39.7638 2,2 -2,2 m -2.370121,-4 2,2 -2,2"
     transform="rotate(-62.0709 78.8319 41.7638)"/>
  <line x1="74.1579" y1="50.5807" x2="106.5177" y2="70.2293" stroke="#6801dc" stroke-width="1.0" />
  <rect
     style="fill:#ffffff;stroke:none"
     width="5.5"
     height="2"
     x="87.5878"
     y="59.4050" 
     transform="rotate(31.2657 90.3378 60.4050)"    /> 
  <path
     style="fill:none;stroke:#6801dc;stroke-width:1px;stroke-linecap:butt;stroke-linejoin:miter;stroke-opacity:1"
    d="m 91.0878,58.4050 2,2 -2,2 m -1.5,-4 -2,2 2,2" transform="rotate(31.2657 90.3378 60.4050)"/>
  <line x1="103.4438" y1="34.1198" x2="113.4443" y2="51.4171" stroke="#eca100" stroke-width="1.0" />
  <rect
     style="fill:#ffffff;fill-opacity:1;fill-rule:nonzero;stroke:none"
     width="2"
     height="2"
     x="107.9441"
     y="41.7684"
     transform="rotate(239.9655 108.4441 42.7684)" /> 
  <path
     style="fill:none;stroke:#eca100;stroke-width:1px;stroke-linecap:butt;stroke-linejoin:miter;stroke-opacity:1"
     d="m 108.4441,40.7684 2,2 -2,2 m -2.370121,-4 2,2 -2,2"
     transform="rotate(239.9655 108.4441 42.7684)"/>
  <line x1="106.5177" y1="70.2293" x2="106.7012" y2="90.4473" stroke="#000000" stroke-width="1.0" />
  <rect
     style="fill:#ffffff;fill-opacity:1;fill-rule:nonzero;stroke:none"
     width="2"
     height="2"
     x="106.1095"
     y="79.3383"
     transform="rotate(89.4799 106.6095 80.3383)" /> 
  <path
     style="fill:none;stroke:#000000;stroke-width:1px;stroke-linecap:butt;stroke-linejoin:miter;stroke-opacity:1"
     d="m 106.6095,78.3383 2,2 -2,2 m -2.370121,-4 2,2 -2,2"
     transform="rotate(89.4799 106.6095 80.3383)"/>
  <line x1="106.5852" y1="110.6419" x2="106.2748" y2="130.7690" stroke="#000000" stroke-width="1.0" />
  <rect
     style="fill:#ffffff;fill-opacity:1;fill-rule:nonzero;stroke:none"
     width="2"
     height="2"
     x="105.9300"
     y="119.7054"
     transform="rotate(90.8835 106.4300 120.7054)" /> 
  <path
     style="fill:none;stroke:#000000;stroke-width:1px;stroke-linecap:butt;stroke-linejoin:miter;stroke-opacity:1"
     d="m 106.4300,118.7054 2,2 -2,2 m -2.370121,-4 2,2 -2,2"
     transform="rotate(90.8835 106.4300 120.7054)"/>
  <line x1="106.2748" y1="130.7690" x2="105.8359" y2="150.7972" stroke="#bf2d00" stroke-width="1.0" />
  <rect
     style="fill:#ffffff;fill-opacity:1;fill-rule:nonzero;stroke:none"
     width="2"
     height="2"
     x="105.5554"
     y="139.7831"
     transform="rotate(91.2555 106.0554 140.7831)" /> 
  <path
     style="fill:none;stroke:#bf2d00;stroke-width:1px;stroke-linecap:butt;stroke-linejoin:miter;stroke-opacity:1"
     d="m 106.0554,138.7831 2,2 -2,2 m -2.370121,-4 2,2 -2,2"
     transform="rotate(91.2555 106.0554 140.7831)"/>
<circle cx="72.9280" cy="150.3461" r="5.0" stroke="#595959" stroke-width="1.0" fill="#ffffff"/>
<text x="72.9280" y="153.0461" text-anchor="middle" font-family="Helvetica" font-size="7.5" fill="#000000" >G</text>
<circle cx="73.3317" cy="130.3540" r="5.0" stroke="#595959" stroke-width="1.0" fill="#ffffff"/>
<text x="73.3317" y="133.0540" text-anchor="middle" font-family="Helvetica" font-size="7.5" fill="#000000" >G</text>
<circle cx="73.6708" cy="110.3991" r="5.0" stroke="#595959" stroke-width="1.0" fill="#ffffff"/>
<text x="73.6708" y="113.0991" text-anchor="middle" font-family="Helvetica" font-size="7.5" fill="#000000" >C</text>
<circle cx="73.8644" cy="90.4458" r="5.0" stroke="#595959" stroke-width="1.0" fill="#ffffff"/>
<text x="73.8644" y="93.1458" text-anchor="middle" font-family="Helvetica" font-size="7.5" fill="#000000" >G</text>
<circle cx="73.7383" cy="70.5058" r="5.0" stroke="#595959" stroke-width="1.0" fill="#ffffff"/>
<text x="73.7383" y="73.2058" text-anchor="middle" font-family="Helvetica" font-size="7.5" fill="#000000" >C</text>
<circle cx="74.1579" cy="50.5807" r="5.0" stroke="#595959" stroke-width="1.0" fill="#ffffff"/>
<text x="74.1579" y="53.2807" text-anchor="middle" font-family="Helvetica" font-size="7.5" fill="#000000" >A</text>
<circle cx="83.5059" cy="32.9469" r="5.0" stroke="#595959" stroke-width="1.0" fill="#ffffff"/>
<text x="83.5059" y="35.6469" text-anchor="middle" font-family="Helvetica" font-size="7.5" fill="#000000" >U</text>
<circle cx="103.4438" cy="34.1198" r="5.0" stroke="#595959" stroke-width="1.0" fill="#ffffff"/>
<text x="103.4438" y="36.8198" text-anchor="middle" font-family="Helvetica" font-size="7.5" fill="#000000" >C</text>
<circle cx="113.4443" cy="51.4171" r="5.0" stroke="#595959" stroke-width="1.0" fill="#ffffff"/>
<text x="113.4443" y="54.1171" text-anchor="middle" font-family="Helvetica" font-size="7.5" fill="#000000" >G</text>
<circle cx="106.5177" cy="70.2293" r="5.0" stroke="#595959" stroke-width="1.0" fill="#ffffff"/>
<text x="106.5177" y="72.9293" text-anchor="middle" font-family="Helvetica" font-size="7.5" fill="#000000" >G</text>
<circle cx="106.7012" cy="90.4473" r="5.0" stroke="#595959" stroke-width="1.0" fill="#ffffff"/>
<text x="106.7012" y="93.1473" text-anchor="middle" font-family="Helvetica" font-size="7.5" fill="#000000" >C</text>
<circle cx="106.5852" cy="110.6419" r="5.0" stroke="#595959" stroke-width="1.0" fill="#ffffff"/>
<text x="106.5852" y="113.3419" text-anchor="middle" font-family="Helvetica" font-size="7.5" fill="#000000" >G</text>
<circle cx="106.2748" cy="130.7690" r="5.0" stroke="#595959" stroke-width="1.0" fill="#ffffff"/>
<text x="106.2748" y="133.4690" text-anchor="middle" font-family="Helvetica" font-size="7.5" fill="#000000" >C</text>
<circle cx="105.8359" cy="150.7972" r="5.0" stroke="#595959" stroke-width="1.0" fill="#ffffff"/>
<text x="105.8359" y="153.4972" text-anchor="middle" font-family="Helvetica" font-size="7.5" fill="#000000" >C</text>
</svg>