<?xml version="1.0" encoding="UTF-8"?>
<!DOCTYPE svg PUBLIC "-//W3C//DTD SVG 1.1//EN" 
"http://www.w3.org/Graphics/SVG/1.1/DTD/svg11.dtd">

<svg version="1.1"
   width="308px"
   height="308px"
xmlns="http://www.w3.org/2000/svg">
    <rect width="100%" height="100%" fill="white"/>

  <line x1="137.1684" y1="217.7726" x2="137.6338" y2="197.7583" stroke="#595959"
     style="stroke-width:2;stroke-miterlimit:4;stroke-dasharray:1,1;stroke-dashoffset:0" />
  <line x1="136.5370" y1="74.9450" x2="133.3550" y2="55.0142" stroke="#595959"
     style="stroke-width:2;stroke-miterlimit:4;stroke-dasharray:1,1;stroke-dashoffset:0" />
  <line x1="133.3550" y1="55.0142" x2="152.2416" y2="61.4279" stroke="#595959"
     style="stroke-width:2;stroke-miterlimit:4;stroke-dasharray:1,1;stroke-dashoffset:0" />
  <line x1="152.2416" y1="61.4279" x2="168.6260" y2="73.4285" stroke="#595959"
     style="stroke-width:2;stroke-miterlimit:4;stroke-dasharray:1,1;stroke-dashoffset:0" />
  <line x1="168.6260" y1="73.4285" x2="185.7226" y2="83.5461" stroke="#595959"
     style="stroke-width:2;stroke-miterlimit:4;stroke-dasharray:1,1;stroke-dashoffset:0" />
  <line x1="185.7226" y1="83.5461" x2="169.5107" y2="95.2324" stroke="#595959"
     style="stroke-width:2;stroke-miterlimit:4;stroke-dasharray:1,1;stroke-dashoffset:0" />
  <line x1="170.1356" y1="198.2130" x2="169.6674" y2="218.3261" stroke="#595959"
     style="stroke-width:2;stroke-miterlimit:4;stroke-dasharray:1,1;stroke-dashoffset:0" />
  <line x1="138.1468" y1="155.9655" x2="170.5895" y2="155.9511" stroke="#e78c00" stroke-width="1.0" />
  <path d="M 148.6182 158.2083 L 148.6182 153.7083 L 153.1182 153.7083 L 153.1182 158.2083 z" style="stroke:#e78c00;stroke-width:1.0" fill="#e78c00" 
    transform="rotate(-0.0255 154.3682 155.9583)"/>
  <path d="M 156.1182 158.2083 L 156.1182 153.7083 L 160.1182 155.9583 z" style="stroke:#e78c00;stroke-width:1.0" fill="#e78c00"
    transform="rotate(-0.0255 154.3682 155.9583)"/>
  <line x1="138.1483" y1="159.1655" x2="170.5909" y2="159.1511" stroke="#9309df" stroke-width="1.0" />
  <circle cx="154.3696" cy="159.1583" r="2.25" stroke="#9309df" stroke-width="1.0" fill="#9309df"/>
  <line x1="136.5370" y1="74.9450" x2="168.6260" y2="73.4285" stroke="#000000" stroke-width="1.0" />
  <path d="M 146.8315 76.4368 L 146.8315 71.9368 L 151.3315 71.9368 L 151.3315 76.4368 z" style="stroke:#000000;stroke-width:1.0" fill="#000000" 
    transform="rotate(177.2943 152.5815 74.1868)"/>
  <path d="M 154.3315 76.4368 L 154.3315 71.9368 L 158.3315 74.1868 z" style="stroke:#000000;stroke-width:1.0" fill="#000000"
    transform="rotate(177.2943 152.5815 74.1868)"/>
  <line x1="136.1235" y1="257.7697" x2="136.6391" y2="237.7732" stroke="#e99400" stroke-width="1.0" />
  <rect
     style="fill:#ffffff;fill-opacity:1;fill-rule:nonzero;stroke:none"
     width="2"
     height="2"
     x="135.8813"
     y="246.7715"
     transform="rotate(-88.5231 136.3813 247.7715)" /> 
  <path
     style="fill:none;stroke:#e99400;stroke-width:1px;stroke-linecap:butt;stroke-linejoin:miter;stroke-opacity:1"
     d="m 136.3813,245.7715 2,2 -2,2 m -2.370121,-4 2,2 -2,2"
     transform="rotate(-88.5231 136.3813 247.7715)"/>
  <line x1="136.1003" y1="259.0195" x2="168.6128" y2="259.6222" stroke="#000000" stroke-width="1.0" />
  <line x1="136.1467" y1="256.5200" x2="168.6592" y2="257.1226" stroke="#000000" stroke-width="1.0" />
  <line x1="136.6391" y1="237.7732" x2="137.1684" y2="217.7726" stroke="#000000" stroke-width="1.0" />
  <rect
     style="fill:#ffffff;fill-opacity:1;fill-rule:nonzero;stroke:none"
     width="2"
     height="2"
     x="136.4038"
     y="226.7729"
     transform="rotate(-88.4838 136.9038 227.7729)" /> 
  <path
     style="fill:none;stroke:#000000;stroke-width:1px;stroke-linecap:butt;stroke-linejoin:miter;stroke-opacity:1"
     d="m 136.9038,225.7729 2,2 -2,2 m -2.370121,-4 2,2 -2,2"
     transform="rotate(-88.4838 136.9038 227.7729)"/>
  <line x1="136.6163" y1="239.0230" x2="169.1183" y2="239.6150" stroke="#000000" stroke-width="1.0" />
  <line x1="136.6618" y1="236.5234" x2="169.1638" y2="237.1154" stroke="#000000" stroke-width="1.0" />
  <line x1="136.6391" y1="237.7732" x2="168.6360" y2="258.3724" stroke="#bc2900" stroke-width="1.0" />
  <rect
     style="fill:#ffffff;stroke:none"
     width="5.5"
     height="2"
     x="149.8875"
     y="247.0728" 
     transform="rotate(32.7729 152.6375 248.0728)"    /> 
  <path
     style="fill:none;stroke:#bc2900;stroke-width:1px;stroke-linecap:butt;stroke-linejoin:miter;stroke-opacity:1"
    d="m 153.3875,246.0728 2,2 -2,2 m -1.5,-4 -2,2 2,2" transform="rotate(32.7729 152.6375 248.0728)"/>
  <line x1="137.1472" y1="219.0224" x2="169.6461" y2="219.5759" stroke="#000000" stroke-width="1.0" />
  <line x1="137.1897" y1="216.5228" x2="169.6887" y2="217.0763" stroke="#000000" stroke-width="1.0" />
  <line x1="137.6338" y1="197.7583" x2="137.9650" y2="177.7055" stroke="#ce4700" stroke-width="1.0" />
  <rect
     style="fill:#ffffff;fill-opacity:1;fill-rule:nonzero;stroke:none"
     width="2"
     height="2"
     x="137.2994"
     y="186.7319"
     transform="rotate(-89.0536 137.7994 187.7319)" /> 
  <path
     style="fill:none;stroke:#ce4700;stroke-width:1px;stroke-linecap:butt;stroke-linejoin:miter;stroke-opacity:1"
     d="m 137.7994,185.7319 2,2 -2,2 m -2.370121,-4 2,2 -2,2"
     transform="rotate(-89.0536 137.7994 187.7319)"/>
  <line x1="137.6338" y1="197.7583" x2="170.1356" y2="198.2130" stroke="#17000d" stroke-width="1.0" />
  <line x1="137.6338" y1="197.7583" x2="169.6674" y2="218.3261" stroke="#000000" stroke-width="1.0" />
  <rect
     style="fill:#ffffff;stroke:none"
     width="5.5"
     height="2"
     x="150.9006"
     y="207.0422" 
     transform="rotate(32.7032 153.6506 208.0422)"    /> 
  <path
     style="fill:none;stroke:#000000;stroke-width:1px;stroke-linecap:butt;stroke-linejoin:miter;stroke-opacity:1"
    d="m 154.4006,206.0422 2,2 -2,2 m -1.5,-4 -2,2 2,2" transform="rotate(32.7032 153.6506 208.0422)"/>
  <line x1="137.9650" y1="177.7055" x2="138.1476" y2="157.5655" stroke="#cf4a00" stroke-width="1.0" />
  <rect
     style="fill:#ffffff;fill-opacity:1;fill-rule:nonzero;stroke:none"
     width="2"
     height="2"
     x="137.5563"
     y="166.6355"
     transform="rotate(-89.4807 138.0563 167.6355)" /> 
  <path
     style="fill:none;stroke:#cf4a00;stroke-width:1px;stroke-linecap:butt;stroke-linejoin:miter;stroke-opacity:1"
     d="m 138.0563,165.6355 2,2 -2,2 m -2.370121,-4 2,2 -2,2"
     transform="rotate(-89.4807 138.0563 167.6355)"/>
  <line x1="137.9548" y1="178.9554" x2="170.4644" y2="179.2210" stroke="#000000" stroke-width="1.0" />
  <line x1="137.9752" y1="176.4555" x2="170.4848" y2="176.7211" stroke="#000000" stroke-width="1.0" />
  <line x1="137.9650" y1="177.7055" x2="170.1356" y2="198.2130" stroke="#cf4a00" stroke-width="1.0" />
  <rect
     style="fill:#ffffff;stroke:none"
     width="5.5"
     height="2"
     x="151.3003"
     y="186.9592" 
     transform="rotate(32.5159 154.0503 187.9592)"    /> 
  <path
     style="fill:none;stroke:#cf4a00;stroke-width:1px;stroke-linecap:butt;stroke-linejoin:miter;stroke-opacity:1"
    d="m 154.8003,185.9592 2,2 -2,2 m -1.5,-4 -2,2 2,2" transform="rotate(32.5159 154.0503 187.9592)"/>
  <line x1="138.1476" y1="157.5655" x2="138.0565" y2="137.2817" stroke="#8806f9" stroke-width="1.0" />
  <rect
     style="fill:#ffffff;fill-opacity:1;fill-rule:nonzero;stroke:none"
     width="2"
     height="2"
     x="137.6020"
     y="146.4236"
     transform="rotate(269.7428 138.1020 147.4236)" /> 
  <path
     style="fill:none;stroke:#8806f9;stroke-width:1px;stroke-linecap:butt;stroke-linejoin:miter;stroke-opacity:1"
     d="m 138.1020,145.4236 2,2 -2,2 m -2.370121,-4 2,2 -2,2"
     transform="rotate(269.7428 138.1020 147.4236)"/>
  <line x1="138.1476" y1="157.5655" x2="170.4746" y2="177.9710" stroke="#efaf00" stroke-width="1.0" />
  <rect
     style="fill:#ffffff;stroke:none"
     width="5.5"
     height="2"
     x="151.5611"
     y="166.7683" 
     transform="rotate(32.2610 154.3111 167.7683)"    /> 
  <path
     style="fill:none;stroke:#efaf00;stroke-width:1px;stroke-linecap:butt;stroke-linejoin:miter;stroke-opacity:1"
    d="m 155.0611,165.7683 2,2 -2,2 m -1.5,-4 -2,2 2,2" transform="rotate(32.2610 154.3111 167.7683)"/>
  <line x1="138.0565" y1="137.2817" x2="137.7675" y2="116.7790" stroke="#a81568" stroke-width="1.0" />
  <rect
     style="fill:#ffffff;fill-opacity:1;fill-rule:nonzero;stroke:none"
     width="2"
     height="2"
     x="137.4120"
     y="126.0303"
     transform="rotate(269.1923 137.9120 127.0303)" /> 
  <path
     style="fill:none;stroke:#a81568;stroke-width:1px;stroke-linecap:butt;stroke-linejoin:miter;stroke-opacity:1"
     d="m 137.9120,125.0303 2,2 -2,2 m -2.370121,-4 2,2 -2,2"
     transform="rotate(269.1923 137.9120 127.0303)"/>
  <line x1="138.0565" y1="137.2817" x2="170.4658" y2="136.9212" stroke="#33003e" stroke-width="1.0" />
  <line x1="137.7675" y1="116.7790" x2="137.3251" y2="96.1431" stroke="#bf2d00" stroke-width="1.0" />
  <rect
     style="fill:#ffffff;fill-opacity:1;fill-rule:nonzero;stroke:none"
     width="2"
     height="2"
     x="137.0463"
     y="105.4610"
     transform="rotate(268.7720 137.5463 106.4610)" /> 
  <path
     style="fill:none;stroke:#bf2d00;stroke-width:1px;stroke-linecap:butt;stroke-linejoin:miter;stroke-opacity:1"
     d="m 137.5463,104.4610 2,2 -2,2 m -2.370121,-4 2,2 -2,2"
     transform="rotate(268.7720 137.5463 106.4610)"/>
  <line x1="137.7923" y1="118.0287" x2="170.0948" y2="117.3870" stroke="#2d0032" stroke-width="1.0" />
  <line x1="137.7427" y1="115.5292" x2="170.0451" y2="114.8875" stroke="#2d0032" stroke-width="1.0" />
  <line x1="137.7675" y1="116.7790" x2="170.4658" y2="136.9212" stroke="#c02e00" stroke-width="1.0" />
  <rect
     style="fill:#ffffff;stroke:none"
     width="5.5"
     height="2"
     x="151.3666"
     y="125.8501" 
     transform="rotate(31.6332 154.1166 126.8501)"    /> 
  <path
     style="fill:none;stroke:#c02e00;stroke-width:1px;stroke-linecap:butt;stroke-linejoin:miter;stroke-opacity:1"
    d="m 154.8666,124.8501 2,2 -2,2 m -1.5,-4 -2,2 2,2" transform="rotate(31.6332 154.1166 126.8501)"/>
  <line x1="137.3251" y1="96.1431" x2="136.5370" y2="74.9450" stroke="#a31289" stroke-width="1.0" />
  <rect
     style="fill:#ffffff;fill-opacity:1;fill-rule:nonzero;stroke:none"
     width="2"
     height="2"
     x="136.4311"
     y="84.5440"
     transform="rotate(267.8707 136.9311 85.5440)" /> 
  <path
     style="fill:none;stroke:#a31289;stroke-width:1px;stroke-linecap:butt;stroke-linejoin:miter;stroke-opacity:1"
     d="m 136.9311,83.5440 2,2 -2,2 m -2.370121,-4 2,2 -2,2"
     transform="rotate(267.8707 136.9311 85.5440)"/>
  <line x1="137.3251" y1="96.1431" x2="169.5107" y2="95.2324" stroke="#200019" stroke-width="1.0" />
  <line x1="137.3251" y1="96.1431" x2="170.0700" y2="116.1372" stroke="#9d0eb1" stroke-width="1.0" />
  <rect
     style="fill:#ffffff;stroke:none"
     width="5.5"
     height="2"
     x="150.9475"
     y="105.1401" 
     transform="rotate(31.4085 153.6975 106.1401)"    /> 
  <path
     style="fill:none;stroke:#9d0eb1;stroke-width:1px;stroke-linecap:butt;stroke-linejoin:miter;stroke-opacity:1"
    d="m 154.4475,104.1401 2,2 -2,2 m -1.5,-4 -2,2 2,2" transform="rotate(31.4085 153.6975 106.1401)"/>
  <line x1="136.5370" y1="74.9450" x2="152.2416" y2="61.4279" stroke="#270026" stroke-width="1.0" />
  <rect
     style="fill:#ffffff;fill-opacity:1;fill-rule:nonzero;stroke:none"
     width="2"
     height="2"
     x="143.8893"
     y="67.1865"
     transform="rotate(-40.7187 144.3893 68.1865)" /> 
  <path
     style="fill:none;stroke:#270026;stroke-width:1px;stroke-linecap:butt;stroke-linejoin:miter;stroke-opacity:1"
     d="m 144.3893,66.1865 2,2 -2,2 m -2.370121,-4 2,2 -2,2"
     transform="rotate(-40.7187 144.3893 68.1865)"/>
  <line x1="168.6260" y1="73.4285" x2="169.5107" y2="95.2324" stroke="#c02e00" stroke-width="1.0" />
  <rect
     style="fill:#ffffff;fill-opacity:1;fill-rule:nonzero;stroke:none"
     width="2"
     height="2"
     x="168.5684"
     y="83.3305"
     transform="rotate(87.6765 169.0684 84.3305)" /> 
  <path
     style="fill:none;stroke:#c02e00;stroke-width:1px;stroke-linecap:butt;stroke-linejoin:miter;stroke-opacity:1"
     d="m 169.0684,82.3305 2,2 -2,2 m -2.370121,-4 2,2 -2,2"
     transform="rotate(87.6765 169.0684 84.3305)"/>
  <line x1="169.5107" y1="95.2324" x2="170.0700" y2="116.1372" stroke="#b62200" stroke-width="1.0" />
  <rect
     style="fill:#ffffff;fill-opacity:1;fill-rule:nonzero;stroke:none"
     width="2"
     height="2"
     x="169.2903"
     y="104.6848"
     transform="rotate(88.4676 169.7903 105.6848)" /> 
  <path
     style="fill:none;stroke:#b62200;stroke-width:1px;stroke-linecap:butt;stroke-linejoin:miter;stroke-opacity:1"
     d="m 169.7903,103.6848 2,2 -2,2 m -2.370121,-4 2,2 -2,2"
     transform="rotate(88.4676 169.7903 105.6848)"/>
  <line x1="170.0700" y1="116.1372" x2="170.4658" y2="136.9212" stroke="#e68800" stroke-width="1.0" />
  <rect
     style="fill:#ffffff;fill-opacity:1;fill-rule:nonzero;stroke:none"
     width="2"
     height="2"
     x="169.7679"
     y="125.5292"
     transform="rotate(88.9089 170.2679 126.5292)" /> 
  <path
     style="fill:none;stroke:#e68800;stroke-width:1px;stroke-linecap:butt;stroke-linejoin:miter;stroke-opacity:1"
     d="m 170.2679,124.5292 2,2 -2,2 m -2.370121,-4 2,2 -2,2"
     transform="rotate(88.9089 170.2679 126.5292)"/>
  <line x1="170.4658" y1="136.9212" x2="170.5902" y2="157.5511" stroke="#980bca" stroke-width="1.0" />
  <rect
     style="fill:#ffffff;fill-opacity:1;fill-rule:nonzero;stroke:none"
     width="2"
     height="2"
     x="170.0280"
     y="146.2361"
     transform="rotate(89.6545 170.5280 147.2361)" /> 
  <path
     style="fill:none;stroke:#980bca;stroke-width:1px;stroke-linecap:butt;stroke-linejoin:miter;stroke-opacity:1"
     d="m 170.5280,145.2361 2,2 -2,2 m -2.370121,-4 2,2 -2,2"
     transform="rotate(89.6545 170.5280 147.2361)"/>
  <line x1="170.5902" y1="157.5511" x2="170.4746" y2="177.9710" stroke="#980bca" stroke-width="1.0" />
  <rect
     style="fill:#ffffff;fill-opacity:1;fill-rule:nonzero;stroke:none"
     width="2"
     height="2"
     x="170.0324"
     y="166.7610"
     transform="rotate(90.3242 170.5324 167.7610)" /> 
  <path
     style="fill:none;stroke:#980bca;stroke-width:1px;stroke-linecap:butt;stroke-linejoin:miter;stroke-opacity:1"
     d="m 170.5324,165.7610 2,2 -2,2 m -2.370121,-4 2,2 -2,2"
     transform="rotate(90.3242 170.5324 167.7610)"/>
  <line x1="170.4746" y1="177.9710" x2="170.1356" y2="198.2130" stroke="#ca4000" stroke-width="1.0" />
  <rect
     style="fill:#ffffff;fill-opacity:1;fill-rule:nonzero;stroke:none"
     width="2"
     height="2"
     x="169.8051"
     y="187.0920"
     transform="rotate(90.9595 170.3051 188.0920)" /> 
  <path
     style="fill:none;stroke:#ca4000;stroke-width:1px;stroke-linecap:butt;stroke-linejoin:miter;stroke-opacity:1"
     d="m 170.3051,186.0920 2,2 -2,2 m -2.370121,-4 2,2 -2,2"
     transform="rotate(90.9595 170.3051 188.0920)"/>
  <line x1="169.6674" y1="218.3261" x2="169.1410" y2="238.3652" stroke="#000000" stroke-width="1.0" />
  <rect
     style="fill:#ffffff;fill-opacity:1;fill-rule:nonzero;stroke:none"
     width="2"
     height="2"
     x="168.9042"
     y="227.3457"
     transform="rotate(91.5046 169.4042 228.3457)" /> 
  <path
     style="fill:none;stroke:#000000;stroke-width:1px;stroke-linecap:butt;stroke-linejoin:miter;stroke-opacity:1"
     d="m 169.4042,226.3457 2,2 -2,2 m -2.370121,-4 2,2 -2,2"
     transform="rotate(91.5046 169.4042 228.3457)"/>
  <line x1="169.1410" y1="238.3652" x2="168.6360" y2="258.3724" stroke="#c73900" stroke-width="1.0" />
  <rect
     style="fill:#ffffff;fill-opacity:1;fill-rule:nonzero;stroke:none"
     width="2"
     height="2"
     x="168.3885"
     y="247.3688"
     transform="rotate(91.4459 168.8885 248.3688)" /> 
  <path
     style="fill:none;stroke:#c73900;stroke-width:1px;stroke-linecap:butt;stroke-linejoin:miter;stroke-opacity:1"
     d="m 168.8885,246.3688 2,2 -2,2 m -2.370121,-4 2,2 -2,2"
     transform="rotate(91.4459 168.8885 248.3688)"/>
<circle cx="136.1235" cy="257.7697" r="5.0" stroke="#595959" stroke-width="1.0" fill="#ffffff"/>
<text x="136.1235" y="260.4697" text-anchor="middle" font-family="Helvetica" font-size="7.5" fill="#000000" >G</text>
<circle cx="136.6391" cy="237.7732" r="5.0" stroke="#595959" stroke-width="1.0" fill="#ffffff"/>
<text x="136.6391" y="240.4732" text-anchor="middle" font-family="Helvetica" font-size="7.5" fill="#000000" >G</text>
<circle cx="137.1684" cy="217.7726" r="5.0" stroke="#595959" stroke-width="1.0" fill="#ffffff"/>
<text x="137.1684" y="220.4726" text-anchor="middle" font-family="Helvetica" font-size="7.5" fill="#000000" >C</text>
<circle cx="137.6338" cy="197.7583" r="5.0" stroke="#595959" stroke-width="1.0" fill="#ffffff"/>
<text x="137.6338" y="200.4583" text-anchor="middle" font-family="Helvetica" font-size="7.5" fill="#000000" >A</text>
<circle cx="137.9650" cy="177.7055" r="5.0" stroke="#595959" stroke-width="1.0" fill="#ffffff"/>
<text x="137.9650" y="180.4055" text-anchor="middle" font-family="Helvetica" font-size="7.5" fill="#000000" >G</text>
<circle cx="138.1476" cy="157.5655" r="5.0" stroke="#595959" stroke-width="1.0" fill="#ffffff"/>
<text x="138.1476" y="160.2655" text-anchor="middle" font-family="Helvetica" font-size="7.5" fill="#000000" >A</text>
<circle cx="138.0565" cy="137.2817" r="5.0" stroke="#595959" stroke-width="1.0" fill="#ffffff"/>
<text x="138.0565" y="139.9817" text-anchor="middle" font-family="Helvetica" font-size="7.5" fill="#000000" >U</text>
<circle cx="137.7675" cy="116.7790" r="5.0" stroke="#595959" stroke-width="1.0" fill="#ffffff"/>
<text x="137.7675" y="119.4790" text-anchor="middle" font-family="Helvetica" font-size="7.5" fill="#000000" >C</text>
<circle cx="137.3251" cy="96.1431" r="5.0" stroke="#595959" stroke-width="1.0" fill="#ffffff"/>
<text x="137.3251" y="98.8431" text-anchor="middle" font-family="Helvetica" font-size="7.5" fill="#000000" >U</text>
<circle cx="136.5370" cy="74.9450" r="5.0" stroke="#595959" stroke-width="1.0" fill="#ffffff"/>
<text x="136.5370" y="77.6450" text-anchor="middle" font-family="Helvetica" font-size="7.5" fill="#000000" >G</text>
<circle cx="133.3550" cy="55.0142" r="5.0" stroke="#595959" stroke-width="1.0" fill="#ffffff"/>
<text x="133.3550" y="57.7142" text-anchor="middle" font-family="Helvetica" font-size="7.5" fill="#000000" >U</text>
<circle cx="152.2416" cy="61.4279" r="5.0" stroke="#595959" stroke-width="1.0" fill="#ffffff"/>
<text x="152.2416" y="64.1279" text-anchor="middle" font-family="Helvetica" font-size="7.5" fill="#000000" >A</text>
<circle cx="168.6260" cy="73.4285" r="5.0" stroke="#595959" stroke-width="1.0" fill="#ffffff"/>
<text x="168.6260" y="76.1285" text-anchor="middle" font-family="Helvetica" font-size="7.5" fill="#000000" >A</text>
<circle cx="185.7226" cy="83.5461" r="5.0" stroke="#595959" stroke-width="1.0" fill="#ffffff"/>
<text x="185.7226" y="86.2461" text-anchor="middle" font-family="Helvetica" font-size="7.5" fill="#000000" >U</text>
<circle cx="169.5107" cy="95.2324" r="5.0" stroke="#595959" stroke-width="1.0" fill="#ffffff"/>
<text x="169.5107" y="97.9324" text-anchor="middle" font-family="Helvetica" font-size="7.5" fill="#000000" >A</text>
<circle cx="170.0700" cy="116.1372" r="5.0" stroke="#595959" stroke-width="1.0" fill="#ffffff"/>
<text x="170.0700" y="118.8372" text-anchor="middle" font-family="Helvetica" font-size="7.5" fill="#000000" >G</text>
<circle cx="170.4658" cy="136.9212" r="5.0" stroke="#595959" stroke-width="1.0" fill="#ffffff"/>
<text x="170.4658" y="139.6212" text-anchor="middle" font-family="Helvetica" font-size="7.5" fill="#000000" >A</text>
<circle cx="170.5902" cy="157.5511" r="5.0" stroke="#595959" stroke-width="1.0" fill="#ffffff"/>
<text x="170.5902" y="160.2511" text-anchor="middle" font-family="Helvetica" font-size="7.5" fill="#000000" >A</text>
<circle cx="170.4746" cy="177.9710" r="5.0" stroke="#595959" stroke-width="1.0" fill="#ffffff"/>
<text x="170.4746" y="180.6710" text-anchor="middle" font-family="Helvetica" font-size="7.5" fill="#000000" >C</text>
<circle cx="170.1356" cy="198.2130" r="5.0" stroke="#595959" stroke-width="1.0" fill="#ffffff"/>
<text x="170.1356" y="200.9130" text-anchor="middle" font-family="Helvetica" font-size="7.5" fill="#000000" >U</text>
<circle cx="169.6674" cy="218.3261" r="5.0" stroke="#595959" stroke-width="1.0" fill="#ffffff"/>
<text x="169.6674" y="221.0261" text-anchor="middle" font-family="Helvetica" font-size="7.5" fill="#000000" >G</text>
<circle cx="169.1410" cy="238.3652" r="5.0" stroke="#595959" stroke-width="1.0" fill="#ffffff"/>
<text x="169.1410" y="241.0652" text-anchor="middle" font-family="Helvetica" font-size="7.5" fill="#000000" >C</text>
<circle cx="168.6360" cy="258.3724" r="5.0" stroke="#595959" stroke-width="1.0" fill="#ffffff"/>
<text x="168.6360" y="261.0724" text-anchor="middle" font-family="Helvetica" font-size="7.5" fill="#000000" >C</text>
</svg>