<?xml version="1.0" encoding="UTF-8"?>
<!DOCTYPE svg PUBLIC "-//W3C//DTD SVG 1.1//EN" 
"http://www.w3.org/Graphics/SVG/1.1/DTD/svg11.dtd">

<svg version="1.1"
   width="308px"
   height="308px"
xmlns="http://www.w3.org/2000/svg">
    <rect width="100%" height="100%" fill="white"/>

  <line x1="137.4924" y1="218.4414" x2="137.4500" y2="198.4644" stroke="#595959"
     style="stroke-width:2;stroke-miterlimit:4;stroke-dasharray:1,1;stroke-dashoffset:0" />
  <line x1="136.9896" y1="98.5649" x2="131.3084" y2="79.3443" stroke="#595959"
     style="stroke-width:2;stroke-miterlimit:4;stroke-dasharray:1,1;stroke-dashoffset:0" />
  <line x1="131.3084" y1="79.3443" x2="136.4649" y2="60.0220" stroke="#595959"
     style="stroke-width:2;stroke-miterlimit:4;stroke-dasharray:1,1;stroke-dashoffset:0" />
  <line x1="136.4649" y1="60.0220" x2="154.0000" y2="50.4265" stroke="#595959"
     style="stroke-width:2;stroke-miterlimit:4;stroke-dasharray:1,1;stroke-dashoffset:0" />
  <line x1="154.0000" y1="50.4265" x2="171.5351" y2="60.0220" stroke="#595959"
     style="stroke-width:2;stroke-miterlimit:4;stroke-dasharray:1,1;stroke-dashoffset:0" />
  <line x1="176.6916" y1="79.3443" x2="171.0104" y2="98.5649" stroke="#595959"
     style="stroke-width:2;stroke-miterlimit:4;stroke-dasharray:1,1;stroke-dashoffset:0" />
  <line x1="171.0104" y1="98.5649" x2="170.8406" y2="118.5585" stroke="#595959"
     style="stroke-width:2;stroke-miterlimit:4;stroke-dasharray:1,1;stroke-dashoffset:0" />
  <line x1="170.5500" y1="198.4644" x2="170.5076" y2="218.4414" stroke="#595959"
     style="stroke-width:2;stroke-miterlimit:4;stroke-dasharray:1,1;stroke-dashoffset:0" />
  <line x1="137.2045" y1="156.9192" x2="170.7955" y2="156.9192" stroke="#a31289" stroke-width="1.0" />
  <circle cx="154.0000" cy="156.9192" r="2.25" stroke="#a31289" stroke-width="1.0" fill="#a31289"/>
  <line x1="137.2045" y1="160.1192" x2="170.7955" y2="160.1192" stroke="#e89000" stroke-width="1.0" />
  <path d="M 148.2500 162.3692 L 148.2500 157.8692 L 152.7500 157.8692 L 152.7500 162.3692 z" style="stroke:#e89000;stroke-width:1.0" fill="#e89000" 
    transform="rotate(-0.0000 154.0000 160.1192)"/>
  <path d="M 155.7500 162.3692 L 155.7500 157.8692 L 159.7500 160.1192 z" style="stroke:#e89000;stroke-width:1.0" fill="#e89000"
    transform="rotate(-0.0000 154.0000 160.1192)"/>
  <line x1="136.9896" y1="100.1649" x2="171.0104" y2="100.1649" stroke="#cd4500" stroke-width="1.0" />
  <circle cx="154.0000" cy="100.1649" r="2.25" stroke="#cd4500" stroke-width="1.0" fill="#cd4500"/>
  <line x1="171.5351" y1="60.0220" x2="176.6916" y2="79.3443" stroke="#e68800" stroke-width="1.0" />
  <path d="M 168.3633 71.9331 L 168.3633 67.4331 L 172.8633 67.4331 L 172.8633 71.9331 z" style="stroke:#e68800;stroke-width:1.0" fill="#e68800" 
    transform="rotate(255.0578 174.1133 69.6831)"/>
  <path d="M 175.8633 71.9331 L 175.8633 67.4331 L 179.8633 69.6831 z" style="stroke:#e68800;stroke-width:1.0" fill="#e68800"
    transform="rotate(255.0578 174.1133 69.6831)"/>
  <line x1="137.6227" y1="258.4155" x2="137.5844" y2="238.4244" stroke="#e78c00" stroke-width="1.0" />
  <rect
     style="fill:#ffffff;fill-opacity:1;fill-rule:nonzero;stroke:none"
     width="2"
     height="2"
     x="137.1035"
     y="247.4200"
     transform="rotate(269.8903 137.6035 248.4200)" /> 
  <path
     style="fill:none;stroke:#e78c00;stroke-width:1px;stroke-linecap:butt;stroke-linejoin:miter;stroke-opacity:1"
     d="m 137.6035,246.4200 2,2 -2,2 m -2.370121,-4 2,2 -2,2"
     transform="rotate(269.8903 137.6035 248.4200)"/>
  <line x1="137.6227" y1="259.6655" x2="170.3773" y2="259.6655" stroke="#000000" stroke-width="1.0" />
  <line x1="137.6227" y1="257.1655" x2="170.3773" y2="257.1655" stroke="#000000" stroke-width="1.0" />
  <line x1="137.5844" y1="238.4244" x2="137.4924" y2="218.4414" stroke="#000000" stroke-width="1.0" />
  <rect
     style="fill:#ffffff;fill-opacity:1;fill-rule:nonzero;stroke:none"
     width="2"
     height="2"
     x="137.0384"
     y="227.4329"
     transform="rotate(269.7364 137.5384 228.4329)" /> 
  <path
     style="fill:none;stroke:#000000;stroke-width:1px;stroke-linecap:butt;stroke-linejoin:miter;stroke-opacity:1"
     d="m 137.5384,226.4329 2,2 -2,2 m -2.370121,-4 2,2 -2,2"
     transform="rotate(269.7364 137.5384 228.4329)"/>
  <line x1="137.5844" y1="239.6744" x2="170.4156" y2="239.6744" stroke="#000000" stroke-width="1.0" />
  <line x1="137.5844" y1="237.1744" x2="170.4156" y2="237.1744" stroke="#000000" stroke-width="1.0" />
  <line x1="137.5844" y1="238.4244" x2="170.3773" y2="258.4155" stroke="#bb2700" stroke-width="1.0" />
  <rect
     style="fill:#ffffff;stroke:none"
     width="5.5"
     height="2"
     x="151.2309"
     y="247.4200" 
     transform="rotate(31.3671 153.9809 248.4200)"    /> 
  <path
     style="fill:none;stroke:#bb2700;stroke-width:1px;stroke-linecap:butt;stroke-linejoin:miter;stroke-opacity:1"
    d="m 154.7309,246.4200 2,2 -2,2 m -1.5,-4 -2,2 2,2" transform="rotate(31.3671 153.9809 248.4200)"/>
  <line x1="137.4924" y1="219.6914" x2="170.5076" y2="219.6914" stroke="#000000" stroke-width="1.0" />
  <line x1="137.4924" y1="217.1914" x2="170.5076" y2="217.1914" stroke="#000000" stroke-width="1.0" />
  <line x1="137.4500" y1="198.4644" x2="137.3035" y2="178.4906" stroke="#d35200" stroke-width="1.0" />
  <rect
     style="fill:#ffffff;fill-opacity:1;fill-rule:nonzero;stroke:none"
     width="2"
     height="2"
     x="136.8767"
     y="187.4775"
     transform="rotate(269.5796 137.3767 188.4775)" /> 
  <path
     style="fill:none;stroke:#d35200;stroke-width:1px;stroke-linecap:butt;stroke-linejoin:miter;stroke-opacity:1"
     d="m 137.3767,186.4775 2,2 -2,2 m -2.370121,-4 2,2 -2,2"
     transform="rotate(269.5796 137.3767 188.4775)"/>
  <line x1="137.4500" y1="198.4644" x2="170.5500" y2="198.4644" stroke="#17000d" stroke-width="1.0" />
  <line x1="137.4500" y1="198.4644" x2="170.5076" y2="218.4414" stroke="#000000" stroke-width="1.0" />
  <rect
     style="fill:#ffffff;stroke:none"
     width="5.5"
     height="2"
     x="151.2288"
     y="207.4529" 
     transform="rotate(31.1450 153.9788 208.4529)"    /> 
  <path
     style="fill:none;stroke:#000000;stroke-width:1px;stroke-linecap:butt;stroke-linejoin:miter;stroke-opacity:1"
    d="m 154.7288,206.4529 2,2 -2,2 m -1.5,-4 -2,2 2,2" transform="rotate(31.1450 153.9788 208.4529)"/>
  <line x1="137.3035" y1="178.4906" x2="137.2045" y2="158.5192" stroke="#ce4700" stroke-width="1.0" />
  <rect
     style="fill:#ffffff;fill-opacity:1;fill-rule:nonzero;stroke:none"
     width="2"
     height="2"
     x="136.7540"
     y="167.5049"
     transform="rotate(269.7160 137.2540 168.5049)" /> 
  <path
     style="fill:none;stroke:#ce4700;stroke-width:1px;stroke-linecap:butt;stroke-linejoin:miter;stroke-opacity:1"
     d="m 137.2540,166.5049 2,2 -2,2 m -2.370121,-4 2,2 -2,2"
     transform="rotate(269.7160 137.2540 168.5049)"/>
  <line x1="137.3035" y1="179.7406" x2="170.6965" y2="179.7406" stroke="#000000" stroke-width="1.0" />
  <line x1="137.3035" y1="177.2406" x2="170.6965" y2="177.2406" stroke="#000000" stroke-width="1.0" />
  <line x1="137.3035" y1="178.4906" x2="170.5500" y2="198.4644" stroke="#cc4200" stroke-width="1.0" />
  <rect
     style="fill:#ffffff;stroke:none"
     width="5.5"
     height="2"
     x="151.1767"
     y="187.4775" 
     transform="rotate(30.9966 153.9267 188.4775)"    /> 
  <path
     style="fill:none;stroke:#cc4200;stroke-width:1px;stroke-linecap:butt;stroke-linejoin:miter;stroke-opacity:1"
    d="m 154.6767,186.4775 2,2 -2,2 m -1.5,-4 -2,2 2,2" transform="rotate(30.9966 153.9267 188.4775)"/>
  <line x1="137.2045" y1="158.5192" x2="137.2773" y2="138.5417" stroke="#7e04ff" stroke-width="1.0" />
  <rect
     style="fill:#ffffff;fill-opacity:1;fill-rule:nonzero;stroke:none"
     width="2"
     height="2"
     x="136.7409"
     y="147.5305"
     transform="rotate(-89.7911 137.2409 148.5305)" /> 
  <path
     style="fill:none;stroke:#7e04ff;stroke-width:1px;stroke-linecap:butt;stroke-linejoin:miter;stroke-opacity:1"
     d="m 137.2409,146.5305 2,2 -2,2 m -2.370121,-4 2,2 -2,2"
     transform="rotate(-89.7911 137.2409 148.5305)"/>
  <line x1="137.2045" y1="158.5192" x2="170.6965" y2="178.4906" stroke="#efaf00" stroke-width="1.0" />
  <rect
     style="fill:#ffffff;stroke:none"
     width="5.5"
     height="2"
     x="151.2005"
     y="167.5049" 
     transform="rotate(30.8077 153.9505 168.5049)"    /> 
  <path
     style="fill:none;stroke:#efaf00;stroke-width:1px;stroke-linecap:butt;stroke-linejoin:miter;stroke-opacity:1"
    d="m 154.7005,166.5049 2,2 -2,2 m -1.5,-4 -2,2 2,2" transform="rotate(30.8077 153.9505 168.5049)"/>
  <line x1="137.2773" y1="138.5417" x2="137.1594" y2="118.5585" stroke="#b62200" stroke-width="1.0" />
  <rect
     style="fill:#ffffff;fill-opacity:1;fill-rule:nonzero;stroke:none"
     width="2"
     height="2"
     x="136.7184"
     y="127.5501"
     transform="rotate(269.6619 137.2184 128.5501)" /> 
  <path
     style="fill:none;stroke:#b62200;stroke-width:1px;stroke-linecap:butt;stroke-linejoin:miter;stroke-opacity:1"
     d="m 137.2184,126.5501 2,2 -2,2 m -2.370121,-4 2,2 -2,2"
     transform="rotate(269.6619 137.2184 128.5501)"/>
  <line x1="137.2773" y1="138.5417" x2="170.7227" y2="138.5417" stroke="#37004b" stroke-width="1.0" />
  <line x1="137.1594" y1="118.5585" x2="136.9896" y2="98.5649" stroke="#8004ff" stroke-width="1.0" />
  <rect
     style="fill:#ffffff;fill-opacity:1;fill-rule:nonzero;stroke:none"
     width="2"
     height="2"
     x="136.5745"
     y="107.5617"
     transform="rotate(269.5133 137.0745 108.5617)" /> 
  <path
     style="fill:none;stroke:#8004ff;stroke-width:1px;stroke-linecap:butt;stroke-linejoin:miter;stroke-opacity:1"
     d="m 137.0745,106.5617 2,2 -2,2 m -2.370121,-4 2,2 -2,2"
     transform="rotate(269.5133 137.0745 108.5617)"/>
  <line x1="137.1594" y1="119.8085" x2="170.8406" y2="119.8085" stroke="#17000d" stroke-width="1.0" />
  <line x1="137.1594" y1="117.3085" x2="170.8406" y2="117.3085" stroke="#17000d" stroke-width="1.0" />
  <line x1="137.1594" y1="118.5585" x2="170.7227" y2="138.5417" stroke="#b82400" stroke-width="1.0" />
  <rect
     style="fill:#ffffff;stroke:none"
     width="5.5"
     height="2"
     x="151.1910"
     y="127.5501" 
     transform="rotate(30.7692 153.9410 128.5501)"    /> 
  <path
     style="fill:none;stroke:#b82400;stroke-width:1px;stroke-linecap:butt;stroke-linejoin:miter;stroke-opacity:1"
    d="m 154.6910,126.5501 2,2 -2,2 m -1.5,-4 -2,2 2,2" transform="rotate(30.7692 153.9410 128.5501)"/>
  <line x1="136.9896" y1="96.9649" x2="171.0104" y2="96.9649" stroke="#980bca" stroke-width="1.0" />
  <line x1="136.9896" y1="98.5649" x2="170.8406" y2="118.5585" stroke="#d45500" stroke-width="1.0" />
  <rect
     style="fill:#ffffff;stroke:none"
     width="5.5"
     height="2"
     x="151.1651"
     y="107.5617" 
     transform="rotate(30.5675 153.9151 108.5617)"    /> 
  <path
     style="fill:none;stroke:#d45500;stroke-width:1px;stroke-linecap:butt;stroke-linejoin:miter;stroke-opacity:1"
    d="m 154.6651,106.5617 2,2 -2,2 m -1.5,-4 -2,2 2,2" transform="rotate(30.5675 153.9151 108.5617)"/>
  <line x1="131.3084" y1="79.3443" x2="171.0104" y2="98.5649" stroke="#37004b" stroke-width="1.0" />
  <rect
     style="fill:#ffffff;stroke:none"
     width="5.5"
     height="2"
     x="148.4094"
     y="87.9546" 
     transform="rotate(25.8327 151.1594 88.9546)"    /> 
  <path
     style="fill:none;stroke:#37004b;stroke-width:1px;stroke-linecap:butt;stroke-linejoin:miter;stroke-opacity:1"
    d="m 151.9094,86.9546 2,2 -2,2 m -1.5,-4 -2,2 2,2" transform="rotate(25.8327 151.1594 88.9546)"/>
  <line x1="170.8406" y1="118.5585" x2="170.7227" y2="138.5417" stroke="#e58400" stroke-width="1.0" />
  <rect
     style="fill:#ffffff;fill-opacity:1;fill-rule:nonzero;stroke:none"
     width="2"
     height="2"
     x="170.2816"
     y="127.5501"
     transform="rotate(90.3381 170.7816 128.5501)" /> 
  <path
     style="fill:none;stroke:#e58400;stroke-width:1px;stroke-linecap:butt;stroke-linejoin:miter;stroke-opacity:1"
     d="m 170.7816,126.5501 2,2 -2,2 m -2.370121,-4 2,2 -2,2"
     transform="rotate(90.3381 170.7816 128.5501)"/>
  <line x1="170.7227" y1="138.5417" x2="170.7955" y2="158.5192" stroke="#990cc2" stroke-width="1.0" />
  <rect
     style="fill:#ffffff;fill-opacity:1;fill-rule:nonzero;stroke:none"
     width="2"
     height="2"
     x="170.2591"
     y="147.5305"
     transform="rotate(89.7911 170.7591 148.5305)" /> 
  <path
     style="fill:none;stroke:#990cc2;stroke-width:1px;stroke-linecap:butt;stroke-linejoin:miter;stroke-opacity:1"
     d="m 170.7591,146.5305 2,2 -2,2 m -2.370121,-4 2,2 -2,2"
     transform="rotate(89.7911 170.7591 148.5305)"/>
  <line x1="170.7955" y1="158.5192" x2="170.6965" y2="178.4906" stroke="#9b0dba" stroke-width="1.0" />
  <rect
     style="fill:#ffffff;fill-opacity:1;fill-rule:nonzero;stroke:none"
     width="2"
     height="2"
     x="170.2460"
     y="167.5049"
     transform="rotate(90.2840 170.7460 168.5049)" /> 
  <path
     style="fill:none;stroke:#9b0dba;stroke-width:1px;stroke-linecap:butt;stroke-linejoin:miter;stroke-opacity:1"
     d="m 170.7460,166.5049 2,2 -2,2 m -2.370121,-4 2,2 -2,2"
     transform="rotate(90.2840 170.7460 168.5049)"/>
  <line x1="170.6965" y1="178.4906" x2="170.5500" y2="198.4644" stroke="#c43500" stroke-width="1.0" />
  <rect
     style="fill:#ffffff;fill-opacity:1;fill-rule:nonzero;stroke:none"
     width="2"
     height="2"
     x="170.1233"
     y="187.4775"
     transform="rotate(90.4204 170.6233 188.4775)" /> 
  <path
     style="fill:none;stroke:#c43500;stroke-width:1px;stroke-linecap:butt;stroke-linejoin:miter;stroke-opacity:1"
     d="m 170.6233,186.4775 2,2 -2,2 m -2.370121,-4 2,2 -2,2"
     transform="rotate(90.4204 170.6233 188.4775)"/>
  <line x1="170.5076" y1="218.4414" x2="170.4156" y2="238.4244" stroke="#000000" stroke-width="1.0" />
  <rect
     style="fill:#ffffff;fill-opacity:1;fill-rule:nonzero;stroke:none"
     width="2"
     height="2"
     x="169.9616"
     y="227.4329"
     transform="rotate(90.2636 170.4616 228.4329)" /> 
  <path
     style="fill:none;stroke:#000000;stroke-width:1px;stroke-linecap:butt;stroke-linejoin:miter;stroke-opacity:1"
     d="m 170.4616,226.4329 2,2 -2,2 m -2.370121,-4 2,2 -2,2"
     transform="rotate(90.2636 170.4616 228.4329)"/>
  <line x1="170.4156" y1="238.4244" x2="170.3773" y2="258.4155" stroke="#c13000" stroke-width="1.0" />
  <rect
     style="fill:#ffffff;fill-opacity:1;fill-rule:nonzero;stroke:none"
     width="2"
     height="2"
     x="169.8965"
     y="247.4200"
     transform="rotate(90.1097 170.3965 248.4200)" /> 
  <path
     style="fill:none;stroke:#c13000;stroke-width:1px;stroke-linecap:butt;stroke-linejoin:miter;stroke-opacity:1"
     d="m 170.3965,246.4200 2,2 -2,2 m -2.370121,-4 2,2 -2,2"
     transform="rotate(90.1097 170.3965 248.4200)"/>
<circle cx="137.6227" cy="258.4155" r="5.0" stroke="#595959" stroke-width="1.0" fill="#ffffff"/>
<text x="137.6227" y="261.1155" text-anchor="middle" font-family="Helvetica" font-size="7.5" fill="#000000" >G</text>
<circle cx="137.5844" cy="238.4244" r="5.0" stroke="#595959" stroke-width="1.0" fill="#ffffff"/>
<text x="137.5844" y="241.1244" text-anchor="middle" font-family="Helvetica" font-size="7.5" fill="#000000" >G</text>
<circle cx="137.4924" cy="218.4414" r="5.0" stroke="#595959" stroke-width="1.0" fill="#ffffff"/>
<text x="137.4924" y="221.1414" text-anchor="middle" font-family="Helvetica" font-size="7.5" fill="#000000" >C</text>
<circle cx="137.4500" cy="198.4644" r="5.0" stroke="#595959" stroke-width="1.0" fill="#ffffff"/>
<text x="137.4500" y="201.1644" text-anchor="middle" font-family="Helvetica" font-size="7.5" fill="#000000" >A</text>
<circle cx="137.3035" cy="178.4906" r="5.0" stroke="#595959" stroke-width="1.0" fill="#ffffff"/>
<text x="137.3035" y="181.1906" text-anchor="middle" font-family="Helvetica" font-size="7.5" fill="#000000" >G</text>
<circle cx="137.2045" cy="158.5192" r="5.0" stroke="#595959" stroke-width="1.0" fill="#ffffff"/>
<text x="137.2045" y="161.2192" text-anchor="middle" font-family="Helvetica" font-size="7.5" fill="#000000" >A</text>
<circle cx="137.2773" cy="138.5417" r="5.0" stroke="#595959" stroke-width="1.0" fill="#ffffff"/>
<text x="137.2773" y="141.2417" text-anchor="middle" font-family="Helvetica" font-size="7.5" fill="#000000" >U</text>
<circle cx="137.1594" cy="118.5585" r="5.0" stroke="#595959" stroke-width="1.0" fill="#ffffff"/>
<text x="137.1594" y="121.2585" text-anchor="middle" font-family="Helvetica" font-size="7.5" fill="#000000" >C</text>
<circle cx="136.9896" cy="98.5649" r="5.0" stroke="#595959" stroke-width="1.0" fill="#ffffff"/>
<text x="136.9896" y="101.2649" text-anchor="middle" font-family="Helvetica" font-size="7.5" fill="#000000" >U</text>
<circle cx="131.3084" cy="79.3443" r="5.0" stroke="#595959" stroke-width="1.0" fill="#ffffff"/>
<text x="131.3084" y="82.0443" text-anchor="middle" font-family="Helvetica" font-size="7.5" fill="#000000" >G</text>
<circle cx="136.4649" cy="60.0220" r="5.0" stroke="#595959" stroke-width="1.0" fill="#ffffff"/>
<text x="136.4649" y="62.7220" text-anchor="middle" font-family="Helvetica" font-size="7.5" fill="#000000" >U</text>
<circle cx="154.0000" cy="50.4265" r="5.0" stroke="#595959" stroke-width="1.0" fill="#ffffff"/>
<text x="154.0000" y="53.1265" text-anchor="middle" font-family="Helvetica" font-size="7.5" fill="#000000" >A</text>
<circle cx="171.5351" cy="60.0220" r="5.0" stroke="#595959" stroke-width="1.0" fill="#ffffff"/>
<text x="171.5351" y="62.7220" text-anchor="middle" font-family="Helvetica" font-size="7.5" fill="#000000" >A</text>
<circle cx="176.6916" cy="79.3443" r="5.0" stroke="#595959" stroke-width="1.0" fill="#ffffff"/>
<text x="176.6916" y="82.0443" text-anchor="middle" font-family="Helvetica" font-size="7.5" fill="#000000" >U</text>
<circle cx="171.0104" cy="98.5649" r="5.0" stroke="#595959" stroke-width="1.0" fill="#ffffff"/>
<text x="171.0104" y="101.2649" text-anchor="middle" font-family="Helvetica" font-size="7.5" fill="#000000" >A</text>
<circle cx="170.8406" cy="118.5585" r="5.0" stroke="#595959" stroke-width="1.0" fill="#ffffff"/>
<text x="170.8406" y="121.2585" text-anchor="middle" font-family="Helvetica" font-size="7.5" fill="#000000" >G</text>
<circle cx="170.7227" cy="138.5417" r="5.0" stroke="#595959" stroke-width="1.0" fill="#ffffff"/>
<text x="170.7227" y="141.2417" text-anchor="middle" font-family="Helvetica" font-size="7.5" fill="#000000" >A</text>
<circle cx="170.7955" cy="158.5192" r="5.0" stroke="#595959" stroke-width="1.0" fill="#ffffff"/>
<text x="170.7955" y="161.2192" text-anchor="middle" font-family="Helvetica" font-size="7.5" fill="#000000" >A</text>
<circle cx="170.6965" cy="178.4906" r="5.0" stroke="#595959" stroke-width="1.0" fill="#ffffff"/>
<text x="170.6965" y="181.1906" text-anchor="middle" font-family="Helvetica" font-size="7.5" fill="#000000" >C</text>
<circle cx="170.5500" cy="198.4644" r="5.0" stroke="#595959" stroke-width="1.0" fill="#ffffff"/>
<text x="170.5500" y="201.1644" text-anchor="middle" font-family="Helvetica" font-size="7.5" fill="#000000" >U</text>
<circle cx="170.5076" cy="218.4414" r="5.0" stroke="#595959" stroke-width="1.0" fill="#ffffff"/>
<text x="170.5076" y="221.1414" text-anchor="middle" font-family="Helvetica" font-size="7.5" fill="#000000" >G</text>
<circle cx="170.4156" cy="238.4244" r="5.0" stroke="#595959" stroke-width="1.0" fill="#ffffff"/>
<text x="170.4156" y="241.1244" text-anchor="middle" font-family="Helvetica" font-size="7.5" fill="#000000" >C</text>
<circle cx="170.3773" cy="258.4155" r="5.0" stroke="#595959" stroke-width="1.0" fill="#ffffff"/>
<text x="170.3773" y="261.1155" text-anchor="middle" font-family="Helvetica" font-size="7.5" fill="#000000" >C</text>
</svg>