<?xml version="1.0" encoding="UTF-8"?>
<!DOCTYPE svg PUBLIC "-//W3C//DTD SVG 1.1//EN" 
"http://www.w3.org/Graphics/SVG/1.1/DTD/svg11.dtd">

<svg version="1.1"
   width="182px"
   height="182px"
xmlns="http://www.w3.org/2000/svg">
    <rect width="100%" height="100%" fill="white"/>

  <line x1="74.9250" y1="109.1938" x2="75.5319" y2="88.9487" stroke="#595959"
     style="stroke-width:2;stroke-miterlimit:4;stroke-dasharray:1,1;stroke-dashoffset:0" />
  <line x1="76.1412" y1="68.6307" x2="77.0160" y2="47.7825" stroke="#595959"
     style="stroke-width:2;stroke-miterlimit:4;stroke-dasharray:1,1;stroke-dashoffset:0" />
  <line x1="77.0160" y1="47.7825" x2="87.9069" y2="31.1071" stroke="#595959"
     style="stroke-width:2;stroke-miterlimit:4;stroke-dasharray:1,1;stroke-dashoffset:0" />
  <line x1="87.9069" y1="31.1071" x2="100.2844" y2="46.9398" stroke="#595959"
     style="stroke-width:2;stroke-miterlimit:4;stroke-dasharray:1,1;stroke-dashoffset:0" />
  <line x1="100.2844" y1="46.9398" x2="118.0606" y2="55.8156" stroke="#595959"
     style="stroke-width:2;stroke-miterlimit:4;stroke-dasharray:1,1;stroke-dashoffset:0" />
  <line x1="103.2328" y1="88.9597" x2="103.5973" y2="109.5075" stroke="#595959"
     style="stroke-width:2;stroke-miterlimit:4;stroke-dasharray:1,1;stroke-dashoffset:0" />
  <line x1="118.0606" y1="55.8156" x2="102.3810" y2="68.3061" stroke="#e58400" stroke-width="1.0" />
  <path d="M 104.4708 64.3109 L 104.4708 59.8109 L 108.9708 59.8109 L 108.9708 64.3109 z" style="stroke:#e58400;stroke-width:1.0" fill="#e58400" 
    transform="rotate(321.4589 110.2208 62.0609)"/>
  <path d="M 111.9708 64.3109 L 111.9708 59.8109 L 115.9708 62.0609 z" style="stroke:#e58400;stroke-width:1.0" fill="#e58400"
    transform="rotate(321.4589 110.2208 62.0609)"/>
  <line x1="73.6569" y1="149.4742" x2="74.2627" y2="129.3528" stroke="#e89000" stroke-width="1.0" />
  <rect
     style="fill:#ffffff;fill-opacity:1;fill-rule:nonzero;stroke:none"
     width="2"
     height="2"
     x="73.4598"
     y="138.4135"
     transform="rotate(-88.2755 73.9598 139.4135)" /> 
  <path
     style="fill:none;stroke:#e89000;stroke-width:1px;stroke-linecap:butt;stroke-linejoin:miter;stroke-opacity:1"
     d="m 73.9598,137.4135 2,2 -2,2 m -2.370121,-4 2,2 -2,2"
     transform="rotate(-88.2755 73.9598 139.4135)"/>
  <line x1="73.6318" y1="150.7239" x2="103.3712" y2="151.3224" stroke="#000000" stroke-width="1.0" />
  <line x1="73.6821" y1="148.2244" x2="103.4215" y2="148.8229" stroke="#000000" stroke-width="1.0" />
  <line x1="74.2627" y1="129.3528" x2="74.9250" y2="109.1938" stroke="#000000" stroke-width="1.0" />
  <rect
     style="fill:#ffffff;fill-opacity:1;fill-rule:nonzero;stroke:none"
     width="2"
     height="2"
     x="74.0938"
     y="118.2733"
     transform="rotate(-88.1184 74.5938 119.2733)" /> 
  <path
     style="fill:none;stroke:#000000;stroke-width:1px;stroke-linecap:butt;stroke-linejoin:miter;stroke-opacity:1"
     d="m 74.5938,117.2733 2,2 -2,2 m -2.370121,-4 2,2 -2,2"
     transform="rotate(-88.1184 74.5938 119.2733)"/>
  <line x1="74.2390" y1="130.6025" x2="103.5831" y2="131.1586" stroke="#000000" stroke-width="1.0" />
  <line x1="74.2864" y1="128.1030" x2="103.6305" y2="128.6590" stroke="#000000" stroke-width="1.0" />
  <line x1="74.2627" y1="129.3528" x2="103.3964" y2="150.0727" stroke="#c33200" stroke-width="1.0" />
  <rect
     style="fill:#ffffff;stroke:none"
     width="5.5"
     height="2"
     x="86.0795"
     y="138.7127" 
     transform="rotate(35.4205 88.8295 139.7127)"    /> 
  <path
     style="fill:none;stroke:#c33200;stroke-width:1px;stroke-linecap:butt;stroke-linejoin:miter;stroke-opacity:1"
    d="m 89.5795,137.7127 2,2 -2,2 m -1.5,-4 -2,2 2,2" transform="rotate(35.4205 88.8295 139.7127)"/>
  <line x1="74.9113" y1="110.4437" x2="103.5836" y2="110.7575" stroke="#000000" stroke-width="1.0" />
  <line x1="74.9387" y1="107.9438" x2="103.6110" y2="108.2576" stroke="#000000" stroke-width="1.0" />
  <line x1="75.5319" y1="88.9487" x2="76.1412" y2="68.6307" stroke="#000000" stroke-width="1.0" />
  <rect
     style="fill:#ffffff;fill-opacity:1;fill-rule:nonzero;stroke:none"
     width="2"
     height="2"
     x="75.3366"
     y="77.7897"
     transform="rotate(-88.2822 75.8366 78.7897)" /> 
  <path
     style="fill:none;stroke:#000000;stroke-width:1px;stroke-linecap:butt;stroke-linejoin:miter;stroke-opacity:1"
     d="m 75.8366,76.7897 2,2 -2,2 m -2.370121,-4 2,2 -2,2"
     transform="rotate(-88.2822 75.8366 78.7897)"/>
  <line x1="75.5319" y1="88.9487" x2="103.2328" y2="88.9597" stroke="#17000d" stroke-width="1.0" />
  <line x1="75.5319" y1="88.9487" x2="103.5973" y2="109.5075" stroke="#000000" stroke-width="1.0" />
  <rect
     style="fill:#ffffff;stroke:none"
     width="5.5"
     height="2"
     x="86.8146"
     y="98.2281" 
     transform="rotate(36.2241 89.5646 99.2281)"    /> 
  <path
     style="fill:none;stroke:#000000;stroke-width:1px;stroke-linecap:butt;stroke-linejoin:miter;stroke-opacity:1"
    d="m 90.3146,97.2281 2,2 -2,2 m -1.5,-4 -2,2 2,2" transform="rotate(36.2241 89.5646 99.2281)"/>
  <line x1="76.1412" y1="68.6307" x2="100.2844" y2="46.9398" stroke="#d14c00" stroke-width="1.0" />
  <rect
     style="fill:#ffffff;fill-opacity:1;fill-rule:nonzero;stroke:none"
     width="2"
     height="2"
     x="87.7128"
     y="56.7853"
     transform="rotate(-41.9374 88.2128 57.7853)" /> 
  <path
     style="fill:none;stroke:#d14c00;stroke-width:1px;stroke-linecap:butt;stroke-linejoin:miter;stroke-opacity:1"
     d="m 88.2128,55.7853 2,2 -2,2 m -2.370121,-4 2,2 -2,2"
     transform="rotate(-41.9374 88.2128 57.7853)"/>
  <line x1="76.1567" y1="69.8806" x2="102.3965" y2="69.5560" stroke="#200019" stroke-width="1.0" />
  <line x1="76.1258" y1="67.3808" x2="102.3656" y2="67.0562" stroke="#200019" stroke-width="1.0" />
  <line x1="77.0160" y1="47.7825" x2="100.2844" y2="46.9398" stroke="#2d0032" stroke-width="1.0" />
  <rect
     style="fill:#ffffff;fill-opacity:1;fill-rule:nonzero;stroke:none"
     width="2"
     height="2"
     x="88.1502"
     y="46.3612"
     transform="rotate(177.9259 88.6502 47.3612)" /> 
  <path
     style="fill:none;stroke:#2d0032;stroke-width:1px;stroke-linecap:butt;stroke-linejoin:miter;stroke-opacity:1"
     d="m 88.6502,45.3612 2,2 -2,2 m -2.370121,-4 2,2 -2,2"
     transform="rotate(177.9259 88.6502 47.3612)"/>
  <line x1="100.2844" y1="46.9398" x2="102.3810" y2="68.3061" stroke="#a0109e" stroke-width="1.0" />
  <rect
     style="fill:#ffffff;stroke:none"
     width="5.5"
     height="2"
     x="98.5827"
     y="56.6230" 
     transform="rotate(84.3957 101.3327 57.6230)"    /> 
  <path
     style="fill:none;stroke:#a0109e;stroke-width:1px;stroke-linecap:butt;stroke-linejoin:miter;stroke-opacity:1"
    d="m 102.0827,55.6230 2,2 -2,2 m -1.5,-4 -2,2 2,2" transform="rotate(84.3957 101.3327 57.6230)"/>
  <line x1="102.3810" y1="68.3061" x2="103.2328" y2="88.9597" stroke="#000000" stroke-width="1.0" />
  <rect
     style="fill:#ffffff;fill-opacity:1;fill-rule:nonzero;stroke:none"
     width="2"
     height="2"
     x="102.3069"
     y="77.6329"
     transform="rotate(87.6383 102.8069 78.6329)" /> 
  <path
     style="fill:none;stroke:#000000;stroke-width:1px;stroke-linecap:butt;stroke-linejoin:miter;stroke-opacity:1"
     d="m 102.8069,76.6329 2,2 -2,2 m -2.370121,-4 2,2 -2,2"
     transform="rotate(87.6383 102.8069 78.6329)"/>
  <line x1="103.5973" y1="109.5075" x2="103.6068" y2="129.9088" stroke="#000000" stroke-width="1.0" />
  <rect
     style="fill:#ffffff;fill-opacity:1;fill-rule:nonzero;stroke:none"
     width="2"
     height="2"
     x="103.1020"
     y="118.7082"
     transform="rotate(89.9733 103.6020 119.7082)" /> 
  <path
     style="fill:none;stroke:#000000;stroke-width:1px;stroke-linecap:butt;stroke-linejoin:miter;stroke-opacity:1"
     d="m 103.6020,117.7082 2,2 -2,2 m -2.370121,-4 2,2 -2,2"
     transform="rotate(89.9733 103.6020 119.7082)"/>
  <line x1="103.6068" y1="129.9088" x2="103.3964" y2="150.0727" stroke="#c53700" stroke-width="1.0" />
  <rect
     style="fill:#ffffff;fill-opacity:1;fill-rule:nonzero;stroke:none"
     width="2"
     height="2"
     x="103.0016"
     y="138.9907"
     transform="rotate(90.5979 103.5016 139.9907)" /> 
  <path
     style="fill:none;stroke:#c53700;stroke-width:1px;stroke-linecap:butt;stroke-linejoin:miter;stroke-opacity:1"
     d="m 103.5016,137.9907 2,2 -2,2 m -2.370121,-4 2,2 -2,2"
     transform="rotate(90.5979 103.5016 139.9907)"/>
<circle cx="73.6569" cy="149.4742" r="5.0" stroke="#595959" stroke-width="1.0" fill="#ffffff"/>
<text x="73.6569" y="152.1742" text-anchor="middle" font-family="Helvetica" font-size="7.5" fill="#000000" >G</text>
<circle cx="74.2627" cy="129.3528" r="5.0" stroke="#595959" stroke-width="1.0" fill="#ffffff"/>
<text x="74.2627" y="132.0528" text-anchor="middle" font-family="Helvetica" font-size="7.5" fill="#000000" >G</text>
<circle cx="74.9250" cy="109.1938" r="5.0" stroke="#595959" stroke-width="1.0" fill="#ffffff"/>
<text x="74.9250" y="111.8938" text-anchor="middle" font-family="Helvetica" font-size="7.5" fill="#000000" >C</text>
<circle cx="75.5319" cy="88.9487" r="5.0" stroke="#595959" stroke-width="1.0" fill="#ffffff"/>
<text x="75.5319" y="91.6487" text-anchor="middle" font-family="Helvetica" font-size="7.5" fill="#000000" >A</text>
<circle cx="76.1412" cy="68.6307" r="5.0" stroke="#595959" stroke-width="1.0" fill="#ffffff"/>
<text x="76.1412" y="71.3307" text-anchor="middle" font-family="Helvetica" font-size="7.5" fill="#000000" >C</text>
<circle cx="77.0160" cy="47.7825" r="5.0" stroke="#595959" stroke-width="1.0" fill="#ffffff"/>
<text x="77.0160" y="50.4825" text-anchor="middle" font-family="Helvetica" font-size="7.5" fill="#000000" >U</text>
<circle cx="87.9069" cy="31.1071" r="5.0" stroke="#595959" stroke-width="1.0" fill="#ffffff"/>
<text x="87.9069" y="33.8071" text-anchor="middle" font-family="Helvetica" font-size="7.5" fill="#000000" >U</text>
<circle cx="100.2844" cy="46.9398" r="5.0" stroke="#595959" stroke-width="1.0" fill="#ffffff"/>
<text x="100.2844" y="49.6398" text-anchor="middle" font-family="Helvetica" font-size="7.5" fill="#000000" >C</text>
<circle cx="118.0606" cy="55.8156" r="5.0" stroke="#595959" stroke-width="1.0" fill="#ffffff"/>
<text x="118.0606" y="58.5156" text-anchor="middle" font-family="Helvetica" font-size="7.5" fill="#000000" >G</text>
<circle cx="102.3810" cy="68.3061" r="5.0" stroke="#595959" stroke-width="1.0" fill="#ffffff"/>
<text x="102.3810" y="71.0061" text-anchor="middle" font-family="Helvetica" font-size="7.5" fill="#000000" >G</text>
<circle cx="103.2328" cy="88.9597" r="5.0" stroke="#595959" stroke-width="1.0" fill="#ffffff"/>
<text x="103.2328" y="91.6597" text-anchor="middle" font-family="Helvetica" font-size="7.5" fill="#000000" >U</text>
<circle cx="103.5973" cy="109.5075" r="5.0" stroke="#595959" stroke-width="1.0" fill="#ffffff"/>
<text x="103.5973" y="112.2075" text-anchor="middle" font-family="Helvetica" font-size="7.5" fill="#000000" >G</text>
<circle cx="103.6068" cy="129.9088" r="5.0" stroke="#595959" stroke-width="1.0" fill="#ffffff"/>
<text x="103.6068" y="132.6088" text-anchor="middle" font-family="Helvetica" font-size="7.5" fill="#000000" >C</text>
<circle cx="103.3964" cy="150.0727" r="5.0" stroke="#595959" stroke-width="1.0" fill="#ffffff"/>
<text x="103.3964" y="152.7727" text-anchor="middle" font-family="Helvetica" font-size="7.5" fill="#000000" >C</text>
</svg>