<?xml version="1.0" encoding="UTF-8"?>
<!DOCTYPE svg PUBLIC "-//W3C//DTD SVG 1.1//EN" 
"http://www.w3.org/Graphics/SVG/1.1/DTD/svg11.dtd">

<svg version="1.1"
   width="182px"
   height="182px"
xmlns="http://www.w3.org/2000/svg">
    <rect width="100%" height="100%" fill="white"/>

  <line x1="74.1928" y1="110.3836" x2="74.2876" y2="90.3988" stroke="#595959"
     style="stroke-width:2;stroke-miterlimit:4;stroke-dasharray:1,1;stroke-dashoffset:0" />
  <line x1="81.8807" y1="33.9245" x2="101.8563" y2="34.3684" stroke="#595959"
     style="stroke-width:2;stroke-miterlimit:4;stroke-dasharray:1,1;stroke-dashoffset:0" />
  <line x1="112.8523" y1="51.0511" x2="107.3683" y2="70.3039" stroke="#595959"
     style="stroke-width:2;stroke-miterlimit:4;stroke-dasharray:1,1;stroke-dashoffset:0" />
  <line x1="107.3357" y1="90.3596" x2="107.2506" y2="110.4138" stroke="#595959"
     style="stroke-width:2;stroke-miterlimit:4;stroke-dasharray:1,1;stroke-dashoffset:0" />
  <line x1="73.8464" y1="150.3698" x2="74.0310" y2="130.3744" stroke="#c33200" stroke-width="1.0" />
  <rect
     style="fill:#ffffff;fill-opacity:1;fill-rule:nonzero;stroke:none"
     width="2"
     height="2"
     x="73.4387"
     y="139.3721"
     transform="rotate(-89.4710 73.9387 140.3721)" /> 
  <path
     style="fill:none;stroke:#c33200;stroke-width:1px;stroke-linecap:butt;stroke-linejoin:miter;stroke-opacity:1"
     d="m 73.9387,138.3721 2,2 -2,2 m -2.370121,-4 2,2 -2,2"
     transform="rotate(-89.4710 73.9387 140.3721)"/>
  <line x1="73.8421" y1="151.6198" x2="106.9190" y2="151.7316" stroke="#37004b" stroke-width="1.0" />
  <line x1="73.8506" y1="149.1198" x2="106.9274" y2="149.2317" stroke="#37004b" stroke-width="1.0" />
  <line x1="74.0310" y1="130.3744" x2="74.1928" y2="110.3836" stroke="#000000" stroke-width="1.0" />
  <rect
     style="fill:#ffffff;fill-opacity:1;fill-rule:nonzero;stroke:none"
     width="2"
     height="2"
     x="73.6119"
     y="119.3790"
     transform="rotate(-89.5361 74.1119 120.3790)" /> 
  <path
     style="fill:none;stroke:#000000;stroke-width:1px;stroke-linecap:butt;stroke-linejoin:miter;stroke-opacity:1"
     d="m 74.1119,118.3790 2,2 -2,2 m -2.370121,-4 2,2 -2,2"
     transform="rotate(-89.5361 74.1119 120.3790)"/>
  <line x1="74.0278" y1="131.6244" x2="107.0687" y2="131.7081" stroke="#2d0032" stroke-width="1.0" />
  <line x1="74.0341" y1="129.1244" x2="107.0750" y2="129.2081" stroke="#2d0032" stroke-width="1.0" />
  <line x1="74.1917" y1="111.6336" x2="107.2494" y2="111.6638" stroke="#33003e" stroke-width="1.0" />
  <line x1="74.1939" y1="109.1336" x2="107.2517" y2="109.1638" stroke="#33003e" stroke-width="1.0" />
  <line x1="74.2876" y1="90.3988" x2="74.0751" y2="70.4239" stroke="#000000" stroke-width="1.0" />
  <rect
     style="fill:#ffffff;fill-opacity:1;fill-rule:nonzero;stroke:none"
     width="2"
     height="2"
     x="73.6813"
     y="79.4114"
     transform="rotate(269.3905 74.1813 80.4114)" /> 
  <path
     style="fill:none;stroke:#000000;stroke-width:1px;stroke-linecap:butt;stroke-linejoin:miter;stroke-opacity:1"
     d="m 74.1813,78.4114 2,2 -2,2 m -2.370121,-4 2,2 -2,2"
     transform="rotate(269.3905 74.1813 80.4114)"/>
  <line x1="74.2891" y1="91.6488" x2="107.3372" y2="91.6096" stroke="#270026" stroke-width="1.0" />
  <line x1="74.2861" y1="89.1488" x2="107.3342" y2="89.1096" stroke="#270026" stroke-width="1.0" />
  <line x1="74.2876" y1="90.3988" x2="107.2506" y2="110.4138" stroke="#17000d" stroke-width="1.0" />
  <rect
     style="fill:#ffffff;stroke:none"
     width="5.5"
     height="2"
     x="88.0191"
     y="99.4063" 
     transform="rotate(31.2659 90.7691 100.4063)"    /> 
  <path
     style="fill:none;stroke:#17000d;stroke-width:1px;stroke-linecap:butt;stroke-linejoin:miter;stroke-opacity:1"
    d="m 91.5191,98.4063 2,2 -2,2 m -1.5,-4 -2,2 2,2" transform="rotate(31.2659 90.7691 100.4063)"/>
  <line x1="74.0751" y1="70.4239" x2="71.0283" y2="50.6884" stroke="#f2b800" stroke-width="1.0" />
  <rect
     style="fill:#ffffff;fill-opacity:1;fill-rule:nonzero;stroke:none"
     width="2"
     height="2"
     x="72.0517"
     y="59.5561"
     transform="rotate(261.2239 72.5517 60.5561)" /> 
  <path
     style="fill:none;stroke:#f2b800;stroke-width:1px;stroke-linecap:butt;stroke-linejoin:miter;stroke-opacity:1"
     d="m 72.5517,58.5561 2,2 -2,2 m -2.370121,-4 2,2 -2,2"
     transform="rotate(261.2239 72.5517 60.5561)"/>
  <line x1="74.0796" y1="71.6739" x2="107.3728" y2="71.5539" stroke="#200019" stroke-width="1.0" />
  <line x1="74.0706" y1="69.1739" x2="107.3638" y2="69.0539" stroke="#200019" stroke-width="1.0" />
  <line x1="71.0283" y1="50.6884" x2="81.8807" y2="33.9245" stroke="#000000" stroke-width="1.0" />
  <rect
     style="fill:#ffffff;fill-opacity:1;fill-rule:nonzero;stroke:none"
     width="2"
     height="2"
     x="75.9545"
     y="41.3064"
     transform="rotate(-57.0823 76.4545 42.3064)" /> 
  <path
     style="fill:none;stroke:#000000;stroke-width:1px;stroke-linecap:butt;stroke-linejoin:miter;stroke-opacity:1"
     d="m 76.4545,40.3064 2,2 -2,2 m -2.370121,-4 2,2 -2,2"
     transform="rotate(-57.0823 76.4545 42.3064)"/>
  <line x1="71.0283" y1="50.6884" x2="107.3683" y2="70.3039" stroke="#e07500" stroke-width="1.0" />
  <rect
     style="fill:#ffffff;stroke:none"
     width="5.5"
     height="2"
     x="86.4483"
     y="59.4961" 
     transform="rotate(28.3592 89.1983 60.4961)"    /> 
  <path
     style="fill:none;stroke:#e07500;stroke-width:1px;stroke-linecap:butt;stroke-linejoin:miter;stroke-opacity:1"
    d="m 89.9483,58.4961 2,2 -2,2 m -1.5,-4 -2,2 2,2" transform="rotate(28.3592 89.1983 60.4961)"/>
  <line x1="101.8563" y1="34.3684" x2="112.8523" y2="51.0511" stroke="#b41f06" stroke-width="1.0" />
  <rect
     style="fill:#ffffff;fill-opacity:1;fill-rule:nonzero;stroke:none"
     width="2"
     height="2"
     x="106.8543"
     y="41.7098"
     transform="rotate(56.6103 107.3543 42.7098)" /> 
  <path
     style="fill:none;stroke:#b41f06;stroke-width:1px;stroke-linecap:butt;stroke-linejoin:miter;stroke-opacity:1"
     d="m 107.3543,40.7098 2,2 -2,2 m -2.370121,-4 2,2 -2,2"
     transform="rotate(56.6103 107.3543 42.7098)"/>
  <line x1="107.3683" y1="70.3039" x2="107.3357" y2="90.3596" stroke="#000000" stroke-width="1.0" />
  <rect
     style="fill:#ffffff;fill-opacity:1;fill-rule:nonzero;stroke:none"
     width="2"
     height="2"
     x="106.8520"
     y="79.3318"
     transform="rotate(90.0930 107.3520 80.3318)" /> 
  <path
     style="fill:none;stroke:#000000;stroke-width:1px;stroke-linecap:butt;stroke-linejoin:miter;stroke-opacity:1"
     d="m 107.3520,78.3318 2,2 -2,2 m -2.370121,-4 2,2 -2,2"
     transform="rotate(90.0930 107.3520 80.3318)"/>
  <line x1="107.2506" y1="110.4138" x2="107.0719" y2="130.4581" stroke="#000000" stroke-width="1.0" />
  <rect
     style="fill:#ffffff;fill-opacity:1;fill-rule:nonzero;stroke:none"
     width="2"
     height="2"
     x="106.6612"
     y="119.4359"
     transform="rotate(90.5108 107.1612 120.4359)" /> 
  <path
     style="fill:none;stroke:#000000;stroke-width:1px;stroke-linecap:butt;stroke-linejoin:miter;stroke-opacity:1"
     d="m 107.1612,118.4359 2,2 -2,2 m -2.370121,-4 2,2 -2,2"
     transform="rotate(90.5108 107.1612 120.4359)"/>
  <line x1="107.0719" y1="130.4581" x2="106.9232" y2="150.4817" stroke="#9e0fa8" stroke-width="1.0" />
  <rect
     style="fill:#ffffff;fill-opacity:1;fill-rule:nonzero;stroke:none"
     width="2"
     height="2"
     x="106.4975"
     y="139.4699"
     transform="rotate(90.4254 106.9975 140.4699)" /> 
  <path
     style="fill:none;stroke:#9e0fa8;stroke-width:1px;stroke-linecap:butt;stroke-linejoin:miter;stroke-opacity:1"
     d="m 106.9975,138.4699 2,2 -2,2 m -2.370121,-4 2,2 -2,2"
     transform="rotate(90.4254 106.9975 140.4699)"/>
<circle cx="73.8464" cy="150.3698" r="5.0" stroke="#595959" stroke-width="1.0" fill="#ffffff"/>
<text x="73.8464" y="153.0698" text-anchor="middle" font-family="Helvetica" font-size="7.5" fill="#000000" >G</text>
<circle cx="74.0310" cy="130.3744" r="5.0" stroke="#595959" stroke-width="1.0" fill="#ffffff"/>
<text x="74.0310" y="133.0744" text-anchor="middle" font-family="Helvetica" font-size="7.5" fill="#000000" >G</text>
<circle cx="74.1928" cy="110.3836" r="5.0" stroke="#595959" stroke-width="1.0" fill="#ffffff"/>
<text x="74.1928" y="113.0836" text-anchor="middle" font-family="Helvetica" font-size="7.5" fill="#000000" >C</text>
<circle cx="74.2876" cy="90.3988" r="5.0" stroke="#595959" stroke-width="1.0" fill="#ffffff"/>
<text x="74.2876" y="93.0988" text-anchor="middle" font-family="Helvetica" font-size="7.5" fill="#000000" >G</text>
<circle cx="74.0751" cy="70.4239" r="5.0" stroke="#595959" stroke-width="1.0" fill="#ffffff"/>
<text x="74.0751" y="73.1239" text-anchor="middle" font-family="Helvetica" font-size="7.5" fill="#000000" >C</text>
<circle cx="71.0283" cy="50.6884" r="5.0" stroke="#595959" stroke-width="1.0" fill="#ffffff"/>
<text x="71.0283" y="53.3884" text-anchor="middle" font-family="Helvetica" font-size="7.5" fill="#000000" >A</text>
<circle cx="81.8807" cy="33.9245" r="5.0" stroke="#595959" stroke-width="1.0" fill="#ffffff"/>
<text x="81.8807" y="36.6245" text-anchor="middle" font-family="Helvetica" font-size="7.5" fill="#000000" >U</text>
<circle cx="101.8563" cy="34.3684" r="5.0" stroke="#595959" stroke-width="1.0" fill="#ffffff"/>
<text x="101.8563" y="37.0684" text-anchor="middle" font-family="Helvetica" font-size="7.5" fill="#000000" >C</text>
<circle cx="112.8523" cy="51.0511" r="5.0" stroke="#595959" stroke-width="1.0" fill="#ffffff"/>
<text x="112.8523" y="53.7511" text-anchor="middle" font-family="Helvetica" font-size="7.5" fill="#000000" >G</text>
<circle cx="107.3683" cy="70.3039" r="5.0" stroke="#595959" stroke-width="1.0" fill="#ffffff"/>
<text x="107.3683" y="73.0039" text-anchor="middle" font-family="Helvetica" font-size="7.5" fill="#000000" >G</text>
<circle cx="107.3357" cy="90.3596" r="5.0" stroke="#595959" stroke-width="1.0" fill="#ffffff"/>
<text x="107.3357" y="93.0596" text-anchor="middle" font-family="Helvetica" font-size="7.5" fill="#000000" >C</text>
<circle cx="107.2506" cy="110.4138" r="5.0" stroke="#595959" stroke-width="1.0" fill="#ffffff"/>
<text x="107.2506" y="113.1138" text-anchor="middle" font-family="Helvetica" font-size="7.5" fill="#000000" >G</text>
<circle cx="107.0719" cy="130.4581" r="5.0" stroke="#595959" stroke-width="1.0" fill="#ffffff"/>
<text x="107.0719" y="133.1581" text-anchor="middle" font-family="Helvetica" font-size="7.5" fill="#000000" >C</text>
<circle cx="106.9232" cy="150.4817" r="5.0" stroke="#595959" stroke-width="1.0" fill="#ffffff"/>
<text x="106.9232" y="153.1817" text-anchor="middle" font-family="Helvetica" font-size="7.5" fill="#000000" >C</text>
</svg>