<?xml version="1.0" encoding="UTF-8"?>
<!DOCTYPE svg PUBLIC "-//W3C//DTD SVG 1.1//EN" 
"http://www.w3.org/Graphics/SVG/1.1/DTD/svg11.dtd">

<svg version="1.1"
   width="308px"
   height="308px"
xmlns="http://www.w3.org/2000/svg">
    <rect width="100%" height="100%" fill="white"/>

  <line x1="136.7683" y1="218.3321" x2="136.9926" y2="198.3514" stroke="#595959"
     style="stroke-width:2;stroke-miterlimit:4;stroke-dasharray:1,1;stroke-dashoffset:0" />
  <line x1="136.6719" y1="98.6769" x2="132.1623" y2="79.3272" stroke="#595959"
     style="stroke-width:2;stroke-miterlimit:4;stroke-dasharray:1,1;stroke-dashoffset:0" />
  <line x1="140.6441" y1="61.3017" x2="157.1552" y2="50.1339" stroke="#595959"
     style="stroke-width:2;stroke-miterlimit:4;stroke-dasharray:1,1;stroke-dashoffset:0" />
  <line x1="178.4139" y1="79.5508" x2="169.4783" y2="97.6151" stroke="#595959"
     style="stroke-width:2;stroke-miterlimit:4;stroke-dasharray:1,1;stroke-dashoffset:0" />
  <line x1="169.4783" y1="97.6151" x2="170.0010" y2="117.9849" stroke="#595959"
     style="stroke-width:2;stroke-miterlimit:4;stroke-dasharray:1,1;stroke-dashoffset:0" />
  <line x1="169.6930" y1="198.6760" x2="169.3819" y2="218.6870" stroke="#595959"
     style="stroke-width:2;stroke-miterlimit:4;stroke-dasharray:1,1;stroke-dashoffset:0" />
  <line x1="137.2829" y1="158.4260" x2="170.2404" y2="158.5490" stroke="#e38000" stroke-width="1.0" />
  <path d="M 148.0117 160.7375 L 148.0117 156.2375 L 152.5117 156.2375 L 152.5117 160.7375 z" style="stroke:#e38000;stroke-width:1.0" fill="#e38000" 
    transform="rotate(0.2137 153.7617 158.4875)"/>
  <path d="M 155.5117 160.7375 L 155.5117 156.2375 L 159.5117 158.4875 z" style="stroke:#e38000;stroke-width:1.0" fill="#e38000"
    transform="rotate(0.2137 153.7617 158.4875)"/>
  <line x1="136.6202" y1="97.0777" x2="169.4265" y2="96.0160" stroke="#7a03fd" stroke-width="1.0" />
  <path d="M 147.2733 98.7968 L 147.2733 94.2968 L 151.7733 94.2968 L 151.7733 98.7968 z" style="stroke:#7a03fd;stroke-width:1.0" fill="#7a03fd" 
    transform="rotate(178.1463 153.0233 96.5468)"/>
  <path d="M 154.7733 98.7968 L 154.7733 94.2968 L 158.7733 96.5468 z" style="stroke:#7a03fd;stroke-width:1.0" fill="#7a03fd"
    transform="rotate(178.1463 153.0233 96.5468)"/>
  <line x1="136.7237" y1="100.2760" x2="169.5300" y2="99.2143" stroke="#f2b800" stroke-width="1.0" />
  <circle cx="156.8769" cy="99.7452" r="2.25" stroke="#f2b800" stroke-width="1.0" fill="#f2b800"
    transform="rotate(178.1463 153.1269 99.7452)" />
  <path d="M 147.1269 101.9952 L 147.1269 97.4952 L 151.6269 97.4952 L 151.6269 101.9952 z" style="stroke:#f2b800; stroke-width:1.0" fill="#f2b800" 
    transform="rotate(178.1463 153.1269 99.7452)"/>
  <line x1="136.2511" y1="258.3116" x2="136.4772" y2="238.3186" stroke="#da6400" stroke-width="1.0" />
  <rect
     style="fill:#ffffff;fill-opacity:1;fill-rule:nonzero;stroke:none"
     width="2"
     height="2"
     x="135.8642"
     y="247.3151"
     transform="rotate(-89.3522 136.3642 248.3151)" /> 
  <path
     style="fill:none;stroke:#da6400;stroke-width:1px;stroke-linecap:butt;stroke-linejoin:miter;stroke-opacity:1"
     d="m 136.3642,246.3151 2,2 -2,2 m -2.370121,-4 2,2 -2,2"
     transform="rotate(-89.3522 136.3642 248.3151)"/>
  <line x1="136.2367" y1="259.5615" x2="168.8325" y2="259.9370" stroke="#7302f5" stroke-width="1.0" />
  <line x1="136.2655" y1="257.0617" x2="168.8613" y2="257.4371" stroke="#7302f5" stroke-width="1.0" />
  <line x1="136.4772" y1="238.3186" x2="136.7683" y2="218.3321" stroke="#000000" stroke-width="1.0" />
  <rect
     style="fill:#ffffff;fill-opacity:1;fill-rule:nonzero;stroke:none"
     width="2"
     height="2"
     x="136.1228"
     y="227.3253"
     transform="rotate(-89.1655 136.6228 228.3253)" /> 
  <path
     style="fill:none;stroke:#000000;stroke-width:1px;stroke-linecap:butt;stroke-linejoin:miter;stroke-opacity:1"
     d="m 136.6228,226.3253 2,2 -2,2 m -2.370121,-4 2,2 -2,2"
     transform="rotate(-89.1655 136.6228 228.3253)"/>
  <line x1="136.4630" y1="239.5685" x2="169.0445" y2="239.9375" stroke="#2d0032" stroke-width="1.0" />
  <line x1="136.4914" y1="237.0686" x2="169.0728" y2="237.4377" stroke="#2d0032" stroke-width="1.0" />
  <line x1="136.4772" y1="238.3186" x2="168.8469" y2="258.6870" stroke="#e17900" stroke-width="1.0" />
  <rect
     style="fill:#ffffff;stroke:none"
     width="5.5"
     height="2"
     x="149.9121"
     y="247.5028" 
     transform="rotate(32.1800 152.6621 248.5028)"    /> 
  <path
     style="fill:none;stroke:#e17900;stroke-width:1px;stroke-linecap:butt;stroke-linejoin:miter;stroke-opacity:1"
    d="m 153.4121,246.5028 2,2 -2,2 m -1.5,-4 -2,2 2,2" transform="rotate(32.1800 152.6621 248.5028)"/>
  <line x1="136.7547" y1="219.5821" x2="169.3683" y2="219.9369" stroke="#200019" stroke-width="1.0" />
  <line x1="136.7819" y1="217.0822" x2="169.3955" y2="217.4371" stroke="#200019" stroke-width="1.0" />
  <line x1="136.9926" y1="198.3514" x2="137.1903" y2="178.3799" stroke="#9d0eb1" stroke-width="1.0" />
  <rect
     style="fill:#ffffff;fill-opacity:1;fill-rule:nonzero;stroke:none"
     width="2"
     height="2"
     x="136.5915"
     y="187.3657"
     transform="rotate(-89.4329 137.0915 188.3657)" /> 
  <path
     style="fill:none;stroke:#9d0eb1;stroke-width:1px;stroke-linecap:butt;stroke-linejoin:miter;stroke-opacity:1"
     d="m 137.0915,186.3657 2,2 -2,2 m -2.370121,-4 2,2 -2,2"
     transform="rotate(-89.4329 137.0915 188.3657)"/>
  <line x1="136.9926" y1="198.3514" x2="169.6930" y2="198.6760" stroke="#270026" stroke-width="1.0" />
  <line x1="136.9926" y1="198.3514" x2="169.3819" y2="218.6870" stroke="#000000" stroke-width="1.0" />
  <rect
     style="fill:#ffffff;stroke:none"
     width="5.5"
     height="2"
     x="150.4373"
     y="207.5192" 
     transform="rotate(32.1226 153.1873 208.5192)"    /> 
  <path
     style="fill:none;stroke:#000000;stroke-width:1px;stroke-linecap:butt;stroke-linejoin:miter;stroke-opacity:1"
    d="m 153.9373,206.5192 2,2 -2,2 m -1.5,-4 -2,2 2,2" transform="rotate(32.1226 153.1873 208.5192)"/>
  <line x1="137.1903" y1="178.3799" x2="137.2829" y2="158.4260" stroke="#c33200" stroke-width="1.0" />
  <rect
     style="fill:#ffffff;fill-opacity:1;fill-rule:nonzero;stroke:none"
     width="2"
     height="2"
     x="136.7366"
     y="167.4029"
     transform="rotate(-89.7340 137.2366 168.4029)" /> 
  <path
     style="fill:none;stroke:#c33200;stroke-width:1px;stroke-linecap:butt;stroke-linejoin:miter;stroke-opacity:1"
     d="m 137.2366,166.4029 2,2 -2,2 m -2.370121,-4 2,2 -2,2"
     transform="rotate(-89.7340 137.2366 168.4029)"/>
  <line x1="137.1804" y1="179.6298" x2="169.9928" y2="179.8889" stroke="#400062" stroke-width="1.0" />
  <line x1="137.2002" y1="177.1299" x2="170.0125" y2="177.3890" stroke="#400062" stroke-width="1.0" />
  <line x1="137.2829" y1="158.4260" x2="137.3445" y2="138.4978" stroke="#c13000" stroke-width="1.0" />
  <rect
     style="fill:#ffffff;fill-opacity:1;fill-rule:nonzero;stroke:none"
     width="2"
     height="2"
     x="136.8137"
     y="147.4619"
     transform="rotate(-89.8230 137.3137 148.4619)" /> 
  <path
     style="fill:none;stroke:#c13000;stroke-width:1px;stroke-linecap:butt;stroke-linejoin:miter;stroke-opacity:1"
     d="m 137.3137,146.4619 2,2 -2,2 m -2.370121,-4 2,2 -2,2"
     transform="rotate(-89.8230 137.3137 148.4619)"/>
  <line x1="137.2829" y1="158.4260" x2="170.0026" y2="178.6389" stroke="#eda600" stroke-width="1.0" />
  <rect
     style="fill:#ffffff;stroke:none"
     width="5.5"
     height="2"
     x="150.8928"
     y="167.5325" 
     transform="rotate(31.7061 153.6428 168.5325)"    /> 
  <path
     style="fill:none;stroke:#eda600;stroke-width:1px;stroke-linecap:butt;stroke-linejoin:miter;stroke-opacity:1"
    d="m 154.3928,166.5325 2,2 -2,2 m -1.5,-4 -2,2 2,2" transform="rotate(31.7061 153.6428 168.5325)"/>
  <line x1="137.3445" y1="138.4978" x2="137.1652" y2="118.5880" stroke="#960bd2" stroke-width="1.0" />
  <rect
     style="fill:#ffffff;fill-opacity:1;fill-rule:nonzero;stroke:none"
     width="2"
     height="2"
     x="136.7549"
     y="127.5429"
     transform="rotate(269.4841 137.2549 128.5429)" /> 
  <path
     style="fill:none;stroke:#960bd2;stroke-width:1px;stroke-linecap:butt;stroke-linejoin:miter;stroke-opacity:1"
     d="m 137.2549,126.5429 2,2 -2,2 m -2.370121,-4 2,2 -2,2"
     transform="rotate(269.4841 137.2549 128.5429)"/>
  <line x1="137.3445" y1="138.4978" x2="170.2378" y2="138.3280" stroke="#4e008f" stroke-width="1.0" />
  <line x1="137.1652" y1="118.5880" x2="136.6719" y2="98.6769" stroke="#2d0032" stroke-width="1.0" />
  <rect
     style="fill:#ffffff;fill-opacity:1;fill-rule:nonzero;stroke:none"
     width="2"
     height="2"
     x="136.4186"
     y="107.6324"
     transform="rotate(268.5809 136.9186 108.6324)" /> 
  <path
     style="fill:none;stroke:#2d0032;stroke-width:1px;stroke-linecap:butt;stroke-linejoin:miter;stroke-opacity:1"
     d="m 136.9186,106.6324 2,2 -2,2 m -2.370121,-4 2,2 -2,2"
     transform="rotate(268.5809 136.9186 108.6324)"/>
  <line x1="137.1882" y1="119.8378" x2="170.0240" y2="119.2347" stroke="#270026" stroke-width="1.0" />
  <line x1="137.1423" y1="117.3382" x2="169.9781" y2="116.7351" stroke="#270026" stroke-width="1.0" />
  <line x1="137.1652" y1="118.5880" x2="170.2378" y2="138.3280" stroke="#d96100" stroke-width="1.0" />
  <rect
     style="fill:#ffffff;stroke:none"
     width="5.5"
     height="2"
     x="150.9515"
     y="127.4580" 
     transform="rotate(30.8317 153.7015 128.4580)"    /> 
  <path
     style="fill:none;stroke:#d96100;stroke-width:1px;stroke-linecap:butt;stroke-linejoin:miter;stroke-opacity:1"
    d="m 154.4515,126.4580 2,2 -2,2 m -1.5,-4 -2,2 2,2" transform="rotate(30.8317 153.7015 128.4580)"/>
  <line x1="132.1623" y1="79.3272" x2="140.6441" y2="61.3017" stroke="#000000" stroke-width="1.0" />
  <rect
     style="fill:#ffffff;fill-opacity:1;fill-rule:nonzero;stroke:none"
     width="2"
     height="2"
     x="135.9032"
     y="69.3145"
     transform="rotate(-64.8009 136.4032 70.3145)" /> 
  <path
     style="fill:none;stroke:#000000;stroke-width:1px;stroke-linecap:butt;stroke-linejoin:miter;stroke-opacity:1"
     d="m 136.4032,68.3145 2,2 -2,2 m -2.370121,-4 2,2 -2,2"
     transform="rotate(-64.8009 136.4032 70.3145)"/>
  <line x1="132.1623" y1="79.3272" x2="169.4783" y2="97.6151" stroke="#8405fd" stroke-width="1.0" />
  <rect
     style="fill:#ffffff;stroke:none"
     width="5.5"
     height="2"
     x="148.0703"
     y="87.4712" 
     transform="rotate(26.1087 150.8203 88.4712)"    /> 
  <path
     style="fill:none;stroke:#8405fd;stroke-width:1px;stroke-linecap:butt;stroke-linejoin:miter;stroke-opacity:1"
    d="m 151.5703,86.4712 2,2 -2,2 m -1.5,-4 -2,2 2,2" transform="rotate(26.1087 150.8203 88.4712)"/>
  <line x1="140.6441" y1="61.3017" x2="178.4139" y2="79.5508" stroke="#e89000" stroke-width="1.0" />
  <path d="M 153.7790 72.6763 L 153.7790 68.1763 L 158.2790 68.1763 L 158.2790 72.6763 z" style="stroke:#e89000;stroke-width:1.0" fill="#ffffff" 
    transform="rotate(205.7882 159.5290 70.4263)"/>
  <path d="M 161.2790 72.6763 L 161.2790 68.1763 L 165.2790 70.4263 z" style="stroke:#e89000;stroke-width:1.0" fill="#ffffff"
    transform="rotate(205.7882 159.5290 70.4263)"/>
  <line x1="157.1552" y1="50.1339" x2="174.5398" y2="59.9505" stroke="#8204ff" stroke-width="1.0" />
  <rect
     style="fill:#ffffff;fill-opacity:1;fill-rule:nonzero;stroke:none"
     width="2"
     height="2"
     x="165.3475"
     y="54.0422"
     transform="rotate(29.4522 165.8475 55.0422)" /> 
  <path
     style="fill:none;stroke:#8204ff;stroke-width:1px;stroke-linecap:butt;stroke-linejoin:miter;stroke-opacity:1"
     d="m 165.8475,53.0422 2,2 -2,2 m -2.370121,-4 2,2 -2,2"
     transform="rotate(29.4522 165.8475 55.0422)"/>
  <line x1="174.5398" y1="59.9505" x2="178.4139" y2="79.5508" stroke="#000000" stroke-width="1.0" />
  <rect
     style="fill:#ffffff;fill-opacity:1;fill-rule:nonzero;stroke:none"
     width="2"
     height="2"
     x="175.9768"
     y="68.7507"
     transform="rotate(78.8193 176.4768 69.7507)" /> 
  <path
     style="fill:none;stroke:#000000;stroke-width:1px;stroke-linecap:butt;stroke-linejoin:miter;stroke-opacity:1"
     d="m 176.4768,67.7507 2,2 -2,2 m -2.370121,-4 2,2 -2,2"
     transform="rotate(78.8193 176.4768 69.7507)"/>
  <line x1="170.0010" y1="117.9849" x2="170.2378" y2="138.3280" stroke="#d96100" stroke-width="1.0" />
  <rect
     style="fill:#ffffff;fill-opacity:1;fill-rule:nonzero;stroke:none"
     width="2"
     height="2"
     x="169.6194"
     y="127.1564"
     transform="rotate(89.3334 170.1194 128.1564)" /> 
  <path
     style="fill:none;stroke:#d96100;stroke-width:1px;stroke-linecap:butt;stroke-linejoin:miter;stroke-opacity:1"
     d="m 170.1194,126.1564 2,2 -2,2 m -2.370121,-4 2,2 -2,2"
     transform="rotate(89.3334 170.1194 128.1564)"/>
  <line x1="170.2378" y1="138.3280" x2="170.2404" y2="158.5490" stroke="#d55800" stroke-width="1.0" />
  <rect
     style="fill:#ffffff;fill-opacity:1;fill-rule:nonzero;stroke:none"
     width="2"
     height="2"
     x="169.7391"
     y="147.4385"
     transform="rotate(89.9924 170.2391 148.4385)" /> 
  <path
     style="fill:none;stroke:#d55800;stroke-width:1px;stroke-linecap:butt;stroke-linejoin:miter;stroke-opacity:1"
     d="m 170.2391,146.4385 2,2 -2,2 m -2.370121,-4 2,2 -2,2"
     transform="rotate(89.9924 170.2391 148.4385)"/>
  <line x1="170.2404" y1="158.5490" x2="170.0026" y2="178.6389" stroke="#f2b800" stroke-width="1.0" />
  <rect
     style="fill:#ffffff;fill-opacity:1;fill-rule:nonzero;stroke:none"
     width="2"
     height="2"
     x="169.6215"
     y="167.5939"
     transform="rotate(90.6781 170.1215 168.5939)" /> 
  <path
     style="fill:none;stroke:#f2b800;stroke-width:1px;stroke-linecap:butt;stroke-linejoin:miter;stroke-opacity:1"
     d="m 170.1215,166.5939 2,2 -2,2 m -2.370121,-4 2,2 -2,2"
     transform="rotate(90.6781 170.1215 168.5939)"/>
  <line x1="170.0026" y1="178.6389" x2="169.6930" y2="198.6760" stroke="#9e0fa8" stroke-width="1.0" />
  <rect
     style="fill:#ffffff;fill-opacity:1;fill-rule:nonzero;stroke:none"
     width="2"
     height="2"
     x="169.3478"
     y="187.6575"
     transform="rotate(90.8855 169.8478 188.6575)" /> 
  <path
     style="fill:none;stroke:#9e0fa8;stroke-width:1px;stroke-linecap:butt;stroke-linejoin:miter;stroke-opacity:1"
     d="m 169.8478,186.6575 2,2 -2,2 m -2.370121,-4 2,2 -2,2"
     transform="rotate(90.8855 169.8478 188.6575)"/>
  <line x1="169.3819" y1="218.6870" x2="169.0587" y2="238.6876" stroke="#000000" stroke-width="1.0" />
  <rect
     style="fill:#ffffff;fill-opacity:1;fill-rule:nonzero;stroke:none"
     width="2"
     height="2"
     x="168.7203"
     y="227.6873"
     transform="rotate(90.9259 169.2203 228.6873)" /> 
  <path
     style="fill:none;stroke:#000000;stroke-width:1px;stroke-linecap:butt;stroke-linejoin:miter;stroke-opacity:1"
     d="m 169.2203,226.6873 2,2 -2,2 m -2.370121,-4 2,2 -2,2"
     transform="rotate(90.9259 169.2203 228.6873)"/>
  <line x1="169.0587" y1="238.6876" x2="168.8469" y2="258.6870" stroke="#b41f06" stroke-width="1.0" />
  <rect
     style="fill:#ffffff;fill-opacity:1;fill-rule:nonzero;stroke:none"
     width="2"
     height="2"
     x="168.4528"
     y="247.6873"
     transform="rotate(90.6066 168.9528 248.6873)" /> 
  <path
     style="fill:none;stroke:#b41f06;stroke-width:1px;stroke-linecap:butt;stroke-linejoin:miter;stroke-opacity:1"
     d="m 168.9528,246.6873 2,2 -2,2 m -2.370121,-4 2,2 -2,2"
     transform="rotate(90.6066 168.9528 248.6873)"/>
<circle cx="136.2511" cy="258.3116" r="5.0" stroke="#595959" stroke-width="1.0" fill="#ffffff"/>
<text x="136.2511" y="261.0116" text-anchor="middle" font-family="Helvetica" font-size="7.5" fill="#000000" >G</text>
<circle cx="136.4772" cy="238.3186" r="5.0" stroke="#595959" stroke-width="1.0" fill="#ffffff"/>
<text x="136.4772" y="241.0186" text-anchor="middle" font-family="Helvetica" font-size="7.5" fill="#000000" >G</text>
<circle cx="136.7683" cy="218.3321" r="5.0" stroke="#595959" stroke-width="1.0" fill="#ffffff"/>
<text x="136.7683" y="221.0321" text-anchor="middle" font-family="Helvetica" font-size="7.5" fill="#000000" >C</text>
<circle cx="136.9926" cy="198.3514" r="5.0" stroke="#595959" stroke-width="1.0" fill="#ffffff"/>
<text x="136.9926" y="201.0514" text-anchor="middle" font-family="Helvetica" font-size="7.5" fill="#000000" >A</text>
<circle cx="137.1903" cy="178.3799" r="5.0" stroke="#595959" stroke-width="1.0" fill="#ffffff"/>
<text x="137.1903" y="181.0799" text-anchor="middle" font-family="Helvetica" font-size="7.5" fill="#000000" >G</text>
<circle cx="137.2829" cy="158.4260" r="5.0" stroke="#595959" stroke-width="1.0" fill="#ffffff"/>
<text x="137.2829" y="161.1260" text-anchor="middle" font-family="Helvetica" font-size="7.5" fill="#000000" >A</text>
<circle cx="137.3445" cy="138.4978" r="5.0" stroke="#595959" stroke-width="1.0" fill="#ffffff"/>
<text x="137.3445" y="141.1978" text-anchor="middle" font-family="Helvetica" font-size="7.5" fill="#000000" >U</text>
<circle cx="137.1652" cy="118.5880" r="5.0" stroke="#595959" stroke-width="1.0" fill="#ffffff"/>
<text x="137.1652" y="121.2880" text-anchor="middle" font-family="Helvetica" font-size="7.5" fill="#000000" >C</text>
<circle cx="136.6719" cy="98.6769" r="5.0" stroke="#595959" stroke-width="1.0" fill="#ffffff"/>
<text x="136.6719" y="101.3769" text-anchor="middle" font-family="Helvetica" font-size="7.5" fill="#000000" >U</text>
<circle cx="132.1623" cy="79.3272" r="5.0" stroke="#595959" stroke-width="1.0" fill="#ffffff"/>
<text x="132.1623" y="82.0272" text-anchor="middle" font-family="Helvetica" font-size="7.5" fill="#000000" >G</text>
<circle cx="140.6441" cy="61.3017" r="5.0" stroke="#595959" stroke-width="1.0" fill="#ffffff"/>
<text x="140.6441" y="64.0017" text-anchor="middle" font-family="Helvetica" font-size="7.5" fill="#000000" >U</text>
<circle cx="157.1552" cy="50.1339" r="5.0" stroke="#595959" stroke-width="1.0" fill="#ffffff"/>
<text x="157.1552" y="52.8339" text-anchor="middle" font-family="Helvetica" font-size="7.5" fill="#000000" >A</text>
<circle cx="174.5398" cy="59.9505" r="5.0" stroke="#595959" stroke-width="1.0" fill="#ffffff"/>
<text x="174.5398" y="62.6505" text-anchor="middle" font-family="Helvetica" font-size="7.5" fill="#000000" >A</text>
<circle cx="178.4139" cy="79.5508" r="5.0" stroke="#595959" stroke-width="1.0" fill="#ffffff"/>
<text x="178.4139" y="82.2508" text-anchor="middle" font-family="Helvetica" font-size="7.5" fill="#000000" >U</text>
<circle cx="169.4783" cy="97.6151" r="5.0" stroke="#595959" stroke-width="1.0" fill="#ffffff"/>
<text x="169.4783" y="100.3151" text-anchor="middle" font-family="Helvetica" font-size="7.5" fill="#000000" >A</text>
<circle cx="170.0010" cy="117.9849" r="5.0" stroke="#595959" stroke-width="1.0" fill="#ffffff"/>
<text x="170.0010" y="120.6849" text-anchor="middle" font-family="Helvetica" font-size="7.5" fill="#000000" >G</text>
<circle cx="170.2378" cy="138.3280" r="5.0" stroke="#595959" stroke-width="1.0" fill="#ffffff"/>
<text x="170.2378" y="141.0280" text-anchor="middle" font-family="Helvetica" font-size="7.5" fill="#000000" >A</text>
<circle cx="170.2404" cy="158.5490" r="5.0" stroke="#595959" stroke-width="1.0" fill="#ffffff"/>
<text x="170.2404" y="161.2490" text-anchor="middle" font-family="Helvetica" font-size="7.5" fill="#000000" >A</text>
<circle cx="170.0026" cy="178.6389" r="5.0" stroke="#595959" stroke-width="1.0" fill="#ffffff"/>
<text x="170.0026" y="181.3389" text-anchor="middle" font-family="Helvetica" font-size="7.5" fill="#000000" >C</text>
<circle cx="169.6930" cy="198.6760" r="5.0" stroke="#595959" stroke-width="1.0" fill="#ffffff"/>
<text x="169.6930" y="201.3760" text-anchor="middle" font-family="Helvetica" font-size="7.5" fill="#000000" >U</text>
<circle cx="169.3819" cy="218.6870" r="5.0" stroke="#595959" stroke-width="1.0" fill="#ffffff"/>
<text x="169.3819" y="221.3870" text-anchor="middle" font-family="Helvetica" font-size="7.5" fill="#000000" >G</text>
<circle cx="169.0587" cy="238.6876" r="5.0" stroke="#595959" stroke-width="1.0" fill="#ffffff"/>
<text x="169.0587" y="241.3876" text-anchor="middle" font-family="Helvetica" font-size="7.5" fill="#000000" >C</text>
<circle cx="168.8469" cy="258.6870" r="5.0" stroke="#595959" stroke-width="1.0" fill="#ffffff"/>
<text x="168.8469" y="261.3870" text-anchor="middle" font-family="Helvetica" font-size="7.5" fill="#000000" >C</text>
</svg>