<?xml version="1.0" encoding="UTF-8"?>
<!DOCTYPE svg PUBLIC "-//W3C//DTD SVG 1.1//EN" 
"http://www.w3.org/Graphics/SVG/1.1/DTD/svg11.dtd">

<svg version="1.1"
   width="182px"
   height="182px"
xmlns="http://www.w3.org/2000/svg">
    <rect width="100%" height="100%" fill="white"/>

  <line x1="75.4511" y1="110.8263" x2="75.2021" y2="90.6110" stroke="#595959"
     style="stroke-width:2;stroke-miterlimit:4;stroke-dasharray:1,1;stroke-dashoffset:0" />
  <line x1="75.4966" y1="50.0796" x2="74.9382" y2="30.1136" stroke="#595959"
     style="stroke-width:2;stroke-miterlimit:4;stroke-dasharray:1,1;stroke-dashoffset:0" />
  <line x1="74.9382" y1="30.1136" x2="93.4132" y2="37.5114" stroke="#595959"
     style="stroke-width:2;stroke-miterlimit:4;stroke-dasharray:1,1;stroke-dashoffset:0" />
  <line x1="93.4132" y1="37.5114" x2="108.4957" y2="50.5674" stroke="#595959"
     style="stroke-width:2;stroke-miterlimit:4;stroke-dasharray:1,1;stroke-dashoffset:0" />
  <line x1="108.4957" y1="50.5674" x2="108.3236" y2="70.5081" stroke="#595959"
     style="stroke-width:2;stroke-miterlimit:4;stroke-dasharray:1,1;stroke-dashoffset:0" />
  <line x1="108.2725" y1="90.4555" x2="108.5411" y2="110.4009" stroke="#595959"
     style="stroke-width:2;stroke-miterlimit:4;stroke-dasharray:1,1;stroke-dashoffset:0" />
  <line x1="76.4002" y1="150.9606" x2="75.8584" y2="130.9308" stroke="#e89000" stroke-width="1.0" />
  <rect
     style="fill:#ffffff;fill-opacity:1;fill-rule:nonzero;stroke:none"
     width="2"
     height="2"
     x="75.6293"
     y="139.9457"
     transform="rotate(268.4504 76.1293 140.9457)" /> 
  <path
     style="fill:none;stroke:#e89000;stroke-width:1px;stroke-linecap:butt;stroke-linejoin:miter;stroke-opacity:1"
     d="m 76.1293,138.9457 2,2 -2,2 m -2.370121,-4 2,2 -2,2"
     transform="rotate(268.4504 76.1293 140.9457)"/>
  <line x1="76.4239" y1="152.2104" x2="109.4771" y2="151.5831" stroke="#17000d" stroke-width="1.0" />
  <line x1="76.3765" y1="149.7109" x2="109.4297" y2="149.0836" stroke="#17000d" stroke-width="1.0" />
  <line x1="75.8584" y1="130.9308" x2="75.4511" y2="110.8263" stroke="#000000" stroke-width="1.0" />
  <rect
     style="fill:#ffffff;fill-opacity:1;fill-rule:nonzero;stroke:none"
     width="2"
     height="2"
     x="75.1547"
     y="119.8786"
     transform="rotate(268.8397 75.6547 120.8786)" /> 
  <path
     style="fill:none;stroke:#000000;stroke-width:1px;stroke-linecap:butt;stroke-linejoin:miter;stroke-opacity:1"
     d="m 75.6547,118.8786 2,2 -2,2 m -2.370121,-4 2,2 -2,2"
     transform="rotate(268.8397 75.6547 120.8786)"/>
  <line x1="75.8799" y1="132.1807" x2="108.9725" y2="131.6090" stroke="#000000" stroke-width="1.0" />
  <line x1="75.8368" y1="129.6810" x2="108.9294" y2="129.1094" stroke="#000000" stroke-width="1.0" />
  <line x1="75.8584" y1="130.9308" x2="109.4534" y2="150.3334" stroke="#bb2700" stroke-width="1.0" />
  <rect
     style="fill:#ffffff;stroke:none"
     width="5.5"
     height="2"
     x="89.9059"
     y="139.6321" 
     transform="rotate(30.0082 92.6559 140.6321)"    /> 
  <path
     style="fill:none;stroke:#bb2700;stroke-width:1px;stroke-linecap:butt;stroke-linejoin:miter;stroke-opacity:1"
    d="m 93.4059,138.6321 2,2 -2,2 m -1.5,-4 -2,2 2,2" transform="rotate(30.0082 92.6559 140.6321)"/>
  <line x1="75.4672" y1="112.0762" x2="108.5572" y2="111.6508" stroke="#000000" stroke-width="1.0" />
  <line x1="75.4351" y1="109.5764" x2="108.5251" y2="109.1510" stroke="#000000" stroke-width="1.0" />
  <line x1="75.2021" y1="90.6110" x2="75.2028" y2="70.3422" stroke="#000000" stroke-width="1.0" />
  <rect
     style="fill:#ffffff;fill-opacity:1;fill-rule:nonzero;stroke:none"
     width="2"
     height="2"
     x="74.7025"
     y="79.4766"
     transform="rotate(-89.9980 75.2025 80.4766)" /> 
  <path
     style="fill:none;stroke:#000000;stroke-width:1px;stroke-linecap:butt;stroke-linejoin:miter;stroke-opacity:1"
     d="m 75.2025,78.4766 2,2 -2,2 m -2.370121,-4 2,2 -2,2"
     transform="rotate(-89.9980 75.2025 80.4766)"/>
  <line x1="75.2021" y1="90.6110" x2="108.2725" y2="90.4555" stroke="#17000d" stroke-width="1.0" />
  <line x1="75.2021" y1="90.6110" x2="108.5411" y2="110.4009" stroke="#000000" stroke-width="1.0" />
  <rect
     style="fill:#ffffff;stroke:none"
     width="5.5"
     height="2"
     x="89.1216"
     y="99.5060" 
     transform="rotate(30.6932 91.8716 100.5060)"    /> 
  <path
     style="fill:none;stroke:#000000;stroke-width:1px;stroke-linecap:butt;stroke-linejoin:miter;stroke-opacity:1"
    d="m 92.6216,98.5060 2,2 -2,2 m -1.5,-4 -2,2 2,2" transform="rotate(30.6932 91.8716 100.5060)"/>
  <line x1="75.2028" y1="70.3422" x2="75.4966" y2="50.0796" stroke="#6a01e2" stroke-width="1.0" />
  <rect
     style="fill:#ffffff;fill-opacity:1;fill-rule:nonzero;stroke:none"
     width="2"
     height="2"
     x="74.8497"
     y="59.2109"
     transform="rotate(-89.1693 75.3497 60.2109)" /> 
  <path
     style="fill:none;stroke:#6a01e2;stroke-width:1px;stroke-linecap:butt;stroke-linejoin:miter;stroke-opacity:1"
     d="m 75.3497,58.2109 2,2 -2,2 m -2.370121,-4 2,2 -2,2"
     transform="rotate(-89.1693 75.3497 60.2109)"/>
  <line x1="75.1965" y1="71.5922" x2="108.3174" y2="71.7581" stroke="#000000" stroke-width="1.0" />
  <line x1="75.2091" y1="69.0922" x2="108.3299" y2="69.2582" stroke="#000000" stroke-width="1.0" />
  <line x1="75.4966" y1="50.0796" x2="93.4132" y2="37.5114" stroke="#c93d00" stroke-width="1.0" />
  <rect
     style="fill:#ffffff;fill-opacity:1;fill-rule:nonzero;stroke:none"
     width="2"
     height="2"
     x="83.9549"
     y="42.7955"
     transform="rotate(-35.0490 84.4549 43.7955)" /> 
  <path
     style="fill:none;stroke:#c93d00;stroke-width:1px;stroke-linecap:butt;stroke-linejoin:miter;stroke-opacity:1"
     d="m 84.4549,41.7955 2,2 -2,2 m -2.370121,-4 2,2 -2,2"
     transform="rotate(-35.0490 84.4549 43.7955)"/>
  <line x1="75.4966" y1="50.0796" x2="108.4957" y2="50.5674" stroke="#17000d" stroke-width="1.0" />
  <circle cx="95.4961" cy="50.3235" r="2.25" stroke="#17000d" stroke-width="1.0" fill="#ffffff"
    transform="rotate(0.8469 91.9961 50.3235)" />
  <path d="M 90.2461 52.5735 L 90.2461 48.0735 L 86.2461 50.3235 z" style="stroke:#17000d;stroke-width:1.0" fill="#ffffff" 
    transform="rotate(0.8469 91.9961 50.3235)"/>
  <line x1="75.4966" y1="50.0796" x2="108.3236" y2="70.5081" stroke="#eeaa00" stroke-width="1.0" />
  <rect
     style="fill:#ffffff;stroke:none"
     width="5.5"
     height="2"
     x="89.1601"
     y="59.2939" 
     transform="rotate(31.8944 91.9101 60.2939)"    /> 
  <path
     style="fill:none;stroke:#eeaa00;stroke-width:1px;stroke-linecap:butt;stroke-linejoin:miter;stroke-opacity:1"
    d="m 92.6601,58.2939 2,2 -2,2 m -1.5,-4 -2,2 2,2" transform="rotate(31.8944 91.9101 60.2939)"/>
  <line x1="108.3236" y1="70.5081" x2="108.2725" y2="90.4555" stroke="#000000" stroke-width="1.0" />
  <rect
     style="fill:#ffffff;fill-opacity:1;fill-rule:nonzero;stroke:none"
     width="2"
     height="2"
     x="107.7981"
     y="79.4818"
     transform="rotate(90.1468 108.2981 80.4818)" /> 
  <path
     style="fill:none;stroke:#000000;stroke-width:1px;stroke-linecap:butt;stroke-linejoin:miter;stroke-opacity:1"
     d="m 108.2981,78.4818 2,2 -2,2 m -2.370121,-4 2,2 -2,2"
     transform="rotate(90.1468 108.2981 80.4818)"/>
  <line x1="108.5411" y1="110.4009" x2="108.9509" y2="130.3592" stroke="#000000" stroke-width="1.0" />
  <rect
     style="fill:#ffffff;fill-opacity:1;fill-rule:nonzero;stroke:none"
     width="2"
     height="2"
     x="108.2460"
     y="119.3801"
     transform="rotate(88.8237 108.7460 120.3801)" /> 
  <path
     style="fill:none;stroke:#000000;stroke-width:1px;stroke-linecap:butt;stroke-linejoin:miter;stroke-opacity:1"
     d="m 108.7460,118.3801 2,2 -2,2 m -2.370121,-4 2,2 -2,2"
     transform="rotate(88.8237 108.7460 120.3801)"/>
  <line x1="108.9509" y1="130.3592" x2="109.4534" y2="150.3334" stroke="#c43500" stroke-width="1.0" />
  <rect
     style="fill:#ffffff;fill-opacity:1;fill-rule:nonzero;stroke:none"
     width="2"
     height="2"
     x="108.7022"
     y="139.3463"
     transform="rotate(88.5590 109.2022 140.3463)" /> 
  <path
     style="fill:none;stroke:#c43500;stroke-width:1px;stroke-linecap:butt;stroke-linejoin:miter;stroke-opacity:1"
     d="m 109.2022,138.3463 2,2 -2,2 m -2.370121,-4 2,2 -2,2"
     transform="rotate(88.5590 109.2022 140.3463)"/>
<circle cx="76.4002" cy="150.9606" r="5.0" stroke="#595959" stroke-width="1.0" fill="#ffffff"/>
<text x="76.4002" y="153.6606" text-anchor="middle" font-family="Helvetica" font-size="7.5" fill="#000000" >G</text>
<circle cx="75.8584" cy="130.9308" r="5.0" stroke="#595959" stroke-width="1.0" fill="#ffffff"/>
<text x="75.8584" y="133.6308" text-anchor="middle" font-family="Helvetica" font-size="7.5" fill="#000000" >G</text>
<circle cx="75.4511" cy="110.8263" r="5.0" stroke="#595959" stroke-width="1.0" fill="#ffffff"/>
<text x="75.4511" y="113.5263" text-anchor="middle" font-family="Helvetica" font-size="7.5" fill="#000000" >C</text>
<circle cx="75.2021" cy="90.6110" r="5.0" stroke="#595959" stroke-width="1.0" fill="#ffffff"/>
<text x="75.2021" y="93.3110" text-anchor="middle" font-family="Helvetica" font-size="7.5" fill="#000000" >A</text>
<circle cx="75.2028" cy="70.3422" r="5.0" stroke="#595959" stroke-width="1.0" fill="#ffffff"/>
<text x="75.2028" y="73.0422" text-anchor="middle" font-family="Helvetica" font-size="7.5" fill="#000000" >C</text>
<circle cx="75.4966" cy="50.0796" r="5.0" stroke="#595959" stroke-width="1.0" fill="#ffffff"/>
<text x="75.4966" y="52.7796" text-anchor="middle" font-family="Helvetica" font-size="7.5" fill="#000000" >U</text>
<circle cx="74.9382" cy="30.1136" r="5.0" stroke="#595959" stroke-width="1.0" fill="#ffffff"/>
<text x="74.9382" y="32.8136" text-anchor="middle" font-family="Helvetica" font-size="7.5" fill="#000000" >U</text>
<circle cx="93.4132" cy="37.5114" r="5.0" stroke="#595959" stroke-width="1.0" fill="#ffffff"/>
<text x="93.4132" y="40.2114" text-anchor="middle" font-family="Helvetica" font-size="7.5" fill="#000000" >C</text>
<circle cx="108.4957" cy="50.5674" r="5.0" stroke="#595959" stroke-width="1.0" fill="#ffffff"/>
<text x="108.4957" y="53.2674" text-anchor="middle" font-family="Helvetica" font-size="7.5" fill="#000000" >G</text>
<circle cx="108.3236" cy="70.5081" r="5.0" stroke="#595959" stroke-width="1.0" fill="#ffffff"/>
<text x="108.3236" y="73.2081" text-anchor="middle" font-family="Helvetica" font-size="7.5" fill="#000000" >G</text>
<circle cx="108.2725" cy="90.4555" r="5.0" stroke="#595959" stroke-width="1.0" fill="#ffffff"/>
<text x="108.2725" y="93.1555" text-anchor="middle" font-family="Helvetica" font-size="7.5" fill="#000000" >U</text>
<circle cx="108.5411" cy="110.4009" r="5.0" stroke="#595959" stroke-width="1.0" fill="#ffffff"/>
<text x="108.5411" y="113.1009" text-anchor="middle" font-family="Helvetica" font-size="7.5" fill="#000000" >G</text>
<circle cx="108.9509" cy="130.3592" r="5.0" stroke="#595959" stroke-width="1.0" fill="#ffffff"/>
<text x="108.9509" y="133.0592" text-anchor="middle" font-family="Helvetica" font-size="7.5" fill="#000000" >C</text>
<circle cx="109.4534" cy="150.3334" r="5.0" stroke="#595959" stroke-width="1.0" fill="#ffffff"/>
<text x="109.4534" y="153.0334" text-anchor="middle" font-family="Helvetica" font-size="7.5" fill="#000000" >C</text>
</svg>