<?xml version="1.0" encoding="UTF-8"?>
<!DOCTYPE svg PUBLIC "-//W3C//DTD SVG 1.1//EN" 
"http://www.w3.org/Graphics/SVG/1.1/DTD/svg11.dtd">

<svg version="1.1"
   width="182px"
   height="182px"
xmlns="http://www.w3.org/2000/svg">
    <rect width="100%" height="100%" fill="white"/>

  <line x1="74.4789" y1="110.3054" x2="74.2794" y2="90.3037" stroke="#595959"
     style="stroke-width:2;stroke-miterlimit:4;stroke-dasharray:1,1;stroke-dashoffset:0" />
  <line x1="69.4629" y1="50.8764" x2="81.0075" y2="34.5706" stroke="#595959"
     style="stroke-width:2;stroke-miterlimit:4;stroke-dasharray:1,1;stroke-dashoffset:0" />
  <line x1="81.0075" y1="34.5706" x2="100.9925" y2="34.5706" stroke="#595959"
     style="stroke-width:2;stroke-miterlimit:4;stroke-dasharray:1,1;stroke-dashoffset:0" />
  <line x1="112.5371" y1="50.8764" x2="107.8263" y2="70.3102" stroke="#595959"
     style="stroke-width:2;stroke-miterlimit:4;stroke-dasharray:1,1;stroke-dashoffset:0" />
  <line x1="107.7206" y1="90.3037" x2="107.5211" y2="110.3054" stroke="#595959"
     style="stroke-width:2;stroke-miterlimit:4;stroke-dasharray:1,1;stroke-dashoffset:0" />
  <line x1="74.2794" y1="91.9037" x2="107.7206" y2="91.9037" stroke="#eeaa00" stroke-width="1.0" />
  <circle cx="91.0000" cy="91.9037" r="2.25" stroke="#eeaa00" stroke-width="1.0" fill="#eeaa00"/>
  <line x1="74.6343" y1="150.3200" x2="74.5868" y2="130.3137" stroke="#d35200" stroke-width="1.0" />
  <rect
     style="fill:#ffffff;fill-opacity:1;fill-rule:nonzero;stroke:none"
     width="2"
     height="2"
     x="74.1105"
     y="139.3169"
     transform="rotate(269.8638 74.6105 140.3169)" /> 
  <path
     style="fill:none;stroke:#d35200;stroke-width:1px;stroke-linecap:butt;stroke-linejoin:miter;stroke-opacity:1"
     d="m 74.6105,138.3169 2,2 -2,2 m -2.370121,-4 2,2 -2,2"
     transform="rotate(269.8638 74.6105 140.3169)"/>
  <line x1="74.6343" y1="151.5700" x2="107.3657" y2="151.5700" stroke="#33003e" stroke-width="1.0" />
  <line x1="74.6343" y1="149.0700" x2="107.3657" y2="149.0700" stroke="#33003e" stroke-width="1.0" />
  <line x1="74.5868" y1="130.3137" x2="74.4789" y2="110.3054" stroke="#000000" stroke-width="1.0" />
  <rect
     style="fill:#ffffff;fill-opacity:1;fill-rule:nonzero;stroke:none"
     width="2"
     height="2"
     x="74.0328"
     y="119.3096"
     transform="rotate(269.6911 74.5328 120.3096)" /> 
  <path
     style="fill:none;stroke:#000000;stroke-width:1px;stroke-linecap:butt;stroke-linejoin:miter;stroke-opacity:1"
     d="m 74.5328,118.3096 2,2 -2,2 m -2.370121,-4 2,2 -2,2"
     transform="rotate(269.6911 74.5328 120.3096)"/>
  <line x1="74.5868" y1="131.5637" x2="107.4132" y2="131.5637" stroke="#33003e" stroke-width="1.0" />
  <line x1="74.5868" y1="129.0637" x2="107.4132" y2="129.0637" stroke="#33003e" stroke-width="1.0" />
  <line x1="74.5868" y1="130.3137" x2="107.3657" y2="150.3200" stroke="#e07500" stroke-width="1.0" />
  <rect
     style="fill:#ffffff;stroke:none"
     width="5.5"
     height="2"
     x="88.2262"
     y="139.3169" 
     transform="rotate(31.3973 90.9762 140.3169)"    /> 
  <path
     style="fill:none;stroke:#e07500;stroke-width:1px;stroke-linecap:butt;stroke-linejoin:miter;stroke-opacity:1"
    d="m 91.7262,138.3169 2,2 -2,2 m -1.5,-4 -2,2 2,2" transform="rotate(31.3973 90.9762 140.3169)"/>
  <line x1="74.4789" y1="111.5554" x2="107.5211" y2="111.5554" stroke="#270026" stroke-width="1.0" />
  <line x1="74.4789" y1="109.0554" x2="107.5211" y2="109.0554" stroke="#270026" stroke-width="1.0" />
  <line x1="74.2794" y1="90.3037" x2="74.1737" y2="70.3102" stroke="#000000" stroke-width="1.0" />
  <rect
     style="fill:#ffffff;fill-opacity:1;fill-rule:nonzero;stroke:none"
     width="2"
     height="2"
     x="73.7266"
     y="79.3069"
     transform="rotate(269.6971 74.2266 80.3069)" /> 
  <path
     style="fill:none;stroke:#000000;stroke-width:1px;stroke-linecap:butt;stroke-linejoin:miter;stroke-opacity:1"
     d="m 74.2266,78.3069 2,2 -2,2 m -2.370121,-4 2,2 -2,2"
     transform="rotate(269.6971 74.2266 80.3069)"/>
  <line x1="74.2794" y1="88.7037" x2="107.7206" y2="88.7037" stroke="#5d01be" stroke-width="1.0" />
  <line x1="74.2794" y1="90.3037" x2="107.5211" y2="110.3054" stroke="#2d0032" stroke-width="1.0" />
  <rect
     style="fill:#ffffff;stroke:none"
     width="5.5"
     height="2"
     x="88.1503"
     y="99.3045" 
     transform="rotate(31.0355 90.9003 100.3045)"    /> 
  <path
     style="fill:none;stroke:#2d0032;stroke-width:1px;stroke-linecap:butt;stroke-linejoin:miter;stroke-opacity:1"
    d="m 91.6503,98.3045 2,2 -2,2 m -1.5,-4 -2,2 2,2" transform="rotate(31.0355 90.9003 100.3045)"/>
  <line x1="74.1737" y1="70.3102" x2="69.4629" y2="50.8764" stroke="#bb2700" stroke-width="1.0" />
  <rect
     style="fill:#ffffff;fill-opacity:1;fill-rule:nonzero;stroke:none"
     width="2"
     height="2"
     x="71.3183"
     y="59.5933"
     transform="rotate(256.3742 71.8183 60.5933)" /> 
  <path
     style="fill:none;stroke:#bb2700;stroke-width:1px;stroke-linecap:butt;stroke-linejoin:miter;stroke-opacity:1"
     d="m 71.8183,58.5933 2,2 -2,2 m -2.370121,-4 2,2 -2,2"
     transform="rotate(256.3742 71.8183 60.5933)"/>
  <line x1="74.1737" y1="71.5602" x2="107.8263" y2="71.5602" stroke="#3c0057" stroke-width="1.0" />
  <line x1="74.1737" y1="69.0602" x2="107.8263" y2="69.0602" stroke="#3c0057" stroke-width="1.0" />
  <line x1="100.9925" y1="34.5706" x2="112.5371" y2="50.8764" stroke="#520099" stroke-width="1.0" />
  <rect
     style="fill:#ffffff;fill-opacity:1;fill-rule:nonzero;stroke:none"
     width="2"
     height="2"
     x="105.7648"
     y="41.7235" 
     transform="rotate(54.7014 106.7648 42.7235)" /> 
  <path
     style="fill:none;stroke:#520099;stroke-width:1px;stroke-linecap:butt;stroke-linejoin:miter;stroke-opacity:1"
     d="m 109.7648,40.7235 -2,2 2,2 m -6,-4 2,2 -2,2"
     transform="rotate(54.7014 106.7648 42.7235)"/>
  <line x1="107.8263" y1="70.3102" x2="107.7206" y2="90.3037" stroke="#5500a3" stroke-width="1.0" />
  <rect
     style="fill:#ffffff;fill-opacity:1;fill-rule:nonzero;stroke:none"
     width="2"
     height="2"
     x="107.2734"
     y="79.3069"
     transform="rotate(90.3029 107.7734 80.3069)" /> 
  <path
     style="fill:none;stroke:#5500a3;stroke-width:1px;stroke-linecap:butt;stroke-linejoin:miter;stroke-opacity:1"
     d="m 107.7734,78.3069 2,2 -2,2 m -2.370121,-4 2,2 -2,2"
     transform="rotate(90.3029 107.7734 80.3069)"/>
  <line x1="107.5211" y1="110.3054" x2="107.4132" y2="130.3137" stroke="#000000" stroke-width="1.0" />
  <rect
     style="fill:#ffffff;fill-opacity:1;fill-rule:nonzero;stroke:none"
     width="2"
     height="2"
     x="106.9672"
     y="119.3096"
     transform="rotate(90.3089 107.4672 120.3096)" /> 
  <path
     style="fill:none;stroke:#000000;stroke-width:1px;stroke-linecap:butt;stroke-linejoin:miter;stroke-opacity:1"
     d="m 107.4672,118.3096 2,2 -2,2 m -2.370121,-4 2,2 -2,2"
     transform="rotate(90.3089 107.4672 120.3096)"/>
  <line x1="107.4132" y1="130.3137" x2="107.3657" y2="150.3200" stroke="#990cc2" stroke-width="1.0" />
  <rect
     style="fill:#ffffff;fill-opacity:1;fill-rule:nonzero;stroke:none"
     width="2"
     height="2"
     x="106.8895"
     y="139.3169"
     transform="rotate(90.1362 107.3895 140.3169)" /> 
  <path
     style="fill:none;stroke:#990cc2;stroke-width:1px;stroke-linecap:butt;stroke-linejoin:miter;stroke-opacity:1"
     d="m 107.3895,138.3169 2,2 -2,2 m -2.370121,-4 2,2 -2,2"
     transform="rotate(90.1362 107.3895 140.3169)"/>
<circle cx="74.6343" cy="150.3200" r="5.0" stroke="#595959" stroke-width="1.0" fill="#ffffff"/>
<text x="74.6343" y="153.0200" text-anchor="middle" font-family="Helvetica" font-size="7.5" fill="#000000" >G</text>
<circle cx="74.5868" cy="130.3137" r="5.0" stroke="#595959" stroke-width="1.0" fill="#ffffff"/>
<text x="74.5868" y="133.0137" text-anchor="middle" font-family="Helvetica" font-size="7.5" fill="#000000" >G</text>
<circle cx="74.4789" cy="110.3054" r="5.0" stroke="#595959" stroke-width="1.0" fill="#ffffff"/>
<text x="74.4789" y="113.0054" text-anchor="middle" font-family="Helvetica" font-size="7.5" fill="#000000" >C</text>
<circle cx="74.2794" cy="90.3037" r="5.0" stroke="#595959" stroke-width="1.0" fill="#ffffff"/>
<text x="74.2794" y="93.0037" text-anchor="middle" font-family="Helvetica" font-size="7.5" fill="#000000" >A</text>
<circle cx="74.1737" cy="70.3102" r="5.0" stroke="#595959" stroke-width="1.0" fill="#ffffff"/>
<text x="74.1737" y="73.0102" text-anchor="middle" font-family="Helvetica" font-size="7.5" fill="#000000" >C</text>
<circle cx="69.4629" cy="50.8764" r="5.0" stroke="#595959" stroke-width="1.0" fill="#ffffff"/>
<text x="69.4629" y="53.5764" text-anchor="middle" font-family="Helvetica" font-size="7.5" fill="#000000" >U</text>
<circle cx="81.0075" cy="34.5706" r="5.0" stroke="#595959" stroke-width="1.0" fill="#ffffff"/>
<text x="81.0075" y="37.2706" text-anchor="middle" font-family="Helvetica" font-size="7.5" fill="#000000" >U</text>
<circle cx="100.9925" cy="34.5706" r="5.0" stroke="#595959" stroke-width="1.0" fill="#ffffff"/>
<text x="100.9925" y="37.2706" text-anchor="middle" font-family="Helvetica" font-size="7.5" fill="#000000" >C</text>
<circle cx="112.5371" cy="50.8764" r="5.0" stroke="#595959" stroke-width="1.0" fill="#ffffff"/>
<text x="112.5371" y="53.5764" text-anchor="middle" font-family="Helvetica" font-size="7.5" fill="#000000" >G</text>
<circle cx="107.8263" cy="70.3102" r="5.0" stroke="#595959" stroke-width="1.0" fill="#ffffff"/>
<text x="107.8263" y="73.0102" text-anchor="middle" font-family="Helvetica" font-size="7.5" fill="#000000" >G</text>
<circle cx="107.7206" cy="90.3037" r="5.0" stroke="#595959" stroke-width="1.0" fill="#ffffff"/>
<text x="107.7206" y="93.0037" text-anchor="middle" font-family="Helvetica" font-size="7.5" fill="#000000" >U</text>
<circle cx="107.5211" cy="110.3054" r="5.0" stroke="#595959" stroke-width="1.0" fill="#ffffff"/>
<text x="107.5211" y="113.0054" text-anchor="middle" font-family="Helvetica" font-size="7.5" fill="#000000" >G</text>
<circle cx="107.4132" cy="130.3137" r="5.0" stroke="#595959" stroke-width="1.0" fill="#ffffff"/>
<text x="107.4132" y="133.0137" text-anchor="middle" font-family="Helvetica" font-size="7.5" fill="#000000" >C</text>
<circle cx="107.3657" cy="150.3200" r="5.0" stroke="#595959" stroke-width="1.0" fill="#ffffff"/>
<text x="107.3657" y="153.0200" text-anchor="middle" font-family="Helvetica" font-size="7.5" fill="#000000" >C</text>
</svg>