<?xml version="1.0" encoding="UTF-8"?>
<!DOCTYPE svg PUBLIC "-//W3C//DTD SVG 1.1//EN" 
"http://www.w3.org/Graphics/SVG/1.1/DTD/svg11.dtd">

<svg version="1.1"
   width="182px"
   height="182px"
xmlns="http://www.w3.org/2000/svg">
    <rect width="100%" height="100%" fill="white"/>

  <line x1="73.9744" y1="109.0307" x2="74.1393" y2="88.9493" stroke="#595959"
     style="stroke-width:2;stroke-miterlimit:4;stroke-dasharray:1,1;stroke-dashoffset:0" />
  <line x1="73.9300" y1="68.8618" x2="69.6035" y2="49.3460" stroke="#595959"
     style="stroke-width:2;stroke-miterlimit:4;stroke-dasharray:1,1;stroke-dashoffset:0" />
  <line x1="83.4695" y1="34.9954" x2="100.3187" y2="45.8283" stroke="#595959"
     style="stroke-width:2;stroke-miterlimit:4;stroke-dasharray:1,1;stroke-dashoffset:0" />
  <line x1="100.3187" y1="45.8283" x2="119.0227" y2="52.6434" stroke="#595959"
     style="stroke-width:2;stroke-miterlimit:4;stroke-dasharray:1,1;stroke-dashoffset:0" />
  <line x1="119.0227" y1="52.6434" x2="106.7710" y2="68.4008" stroke="#595959"
     style="stroke-width:2;stroke-miterlimit:4;stroke-dasharray:1,1;stroke-dashoffset:0" />
  <line x1="106.8563" y1="88.8960" x2="106.7266" y2="109.3394" stroke="#595959"
     style="stroke-width:2;stroke-miterlimit:4;stroke-dasharray:1,1;stroke-dashoffset:0" />
  <line x1="73.1677" y1="149.1997" x2="73.6468" y2="129.1377" stroke="#d55800" stroke-width="1.0" />
  <rect
     style="fill:#ffffff;fill-opacity:1;fill-rule:nonzero;stroke:none"
     width="2"
     height="2"
     x="72.9073"
     y="138.1687"
     transform="rotate(-88.6321 73.4073 139.1687)" /> 
  <path
     style="fill:none;stroke:#d55800;stroke-width:1px;stroke-linecap:butt;stroke-linejoin:miter;stroke-opacity:1"
     d="m 73.4073,137.1687 2,2 -2,2 m -2.370121,-4 2,2 -2,2"
     transform="rotate(-88.6321 73.4073 139.1687)"/>
  <line x1="73.1467" y1="150.4496" x2="105.9302" y2="151.0025" stroke="#37004b" stroke-width="1.0" />
  <line x1="73.1888" y1="147.9499" x2="105.9724" y2="148.5029" stroke="#37004b" stroke-width="1.0" />
  <line x1="73.6468" y1="129.1377" x2="73.9744" y2="109.0307" stroke="#000000" stroke-width="1.0" />
  <rect
     style="fill:#ffffff;fill-opacity:1;fill-rule:nonzero;stroke:none"
     width="2"
     height="2"
     x="73.3106"
     y="118.0842"
     transform="rotate(-89.0665 73.8106 119.0842)" /> 
  <path
     style="fill:none;stroke:#000000;stroke-width:1px;stroke-linecap:butt;stroke-linejoin:miter;stroke-opacity:1"
     d="m 73.8106,117.0842 2,2 -2,2 m -2.370121,-4 2,2 -2,2"
     transform="rotate(-89.0665 73.8106 119.0842)"/>
  <line x1="73.6285" y1="130.3876" x2="106.4037" y2="130.8685" stroke="#270026" stroke-width="1.0" />
  <line x1="73.6651" y1="127.8879" x2="106.4404" y2="128.3688" stroke="#270026" stroke-width="1.0" />
  <line x1="73.6468" y1="129.1377" x2="105.9513" y2="149.7527" stroke="#eb9d00" stroke-width="1.0" />
  <rect
     style="fill:#ffffff;stroke:none"
     width="5.5"
     height="2"
     x="87.0491"
     y="138.4452" 
     transform="rotate(32.5438 89.7991 139.4452)"    /> 
  <path
     style="fill:none;stroke:#eb9d00;stroke-width:1px;stroke-linecap:butt;stroke-linejoin:miter;stroke-opacity:1"
    d="m 90.5491,137.4452 2,2 -2,2 m -1.5,-4 -2,2 2,2" transform="rotate(32.5438 89.7991 139.4452)"/>
  <line x1="73.9626" y1="110.2806" x2="106.7148" y2="110.5894" stroke="#200019" stroke-width="1.0" />
  <line x1="73.9862" y1="107.7807" x2="106.7384" y2="108.0895" stroke="#200019" stroke-width="1.0" />
  <line x1="74.1393" y1="88.9493" x2="73.9300" y2="68.8618" stroke="#000000" stroke-width="1.0" />
  <rect
     style="fill:#ffffff;fill-opacity:1;fill-rule:nonzero;stroke:none"
     width="2"
     height="2"
     x="73.5347"
     y="77.9055"
     transform="rotate(269.4032 74.0347 78.9055)" /> 
  <path
     style="fill:none;stroke:#000000;stroke-width:1px;stroke-linecap:butt;stroke-linejoin:miter;stroke-opacity:1"
     d="m 74.0347,76.9055 2,2 -2,2 m -2.370121,-4 2,2 -2,2"
     transform="rotate(269.4032 74.0347 78.9055)"/>
  <line x1="74.1413" y1="90.1993" x2="106.8584" y2="90.1460" stroke="#17000d" stroke-width="1.0" />
  <line x1="74.1372" y1="87.6993" x2="106.8543" y2="87.6460" stroke="#17000d" stroke-width="1.0" />
  <line x1="74.1393" y1="88.9493" x2="106.7266" y2="109.3394" stroke="#270026" stroke-width="1.0" />
  <rect
     style="fill:#ffffff;stroke:none"
     width="5.5"
     height="2"
     x="87.6829"
     y="98.1444" 
     transform="rotate(32.0345 90.4329 99.1444)"    /> 
  <path
     style="fill:none;stroke:#270026;stroke-width:1px;stroke-linecap:butt;stroke-linejoin:miter;stroke-opacity:1"
    d="m 91.1829,97.1444 2,2 -2,2 m -1.5,-4 -2,2 2,2" transform="rotate(32.0345 90.4329 99.1444)"/>
  <line x1="73.9300" y1="68.8618" x2="100.3187" y2="45.8283" stroke="#8a06f6" stroke-width="1.0" />
  <rect
     style="fill:#ffffff;fill-opacity:1;fill-rule:nonzero;stroke:none"
     width="2"
     height="2"
     x="86.6244"
     y="56.3450"
     transform="rotate(-41.1163 87.1244 57.3450)" /> 
  <path
     style="fill:none;stroke:#8a06f6;stroke-width:1px;stroke-linecap:butt;stroke-linejoin:miter;stroke-opacity:1"
     d="m 87.1244,55.3450 2,2 -2,2 m -2.370121,-4 2,2 -2,2"
     transform="rotate(-41.1163 87.1244 57.3450)"/>
  <line x1="73.9476" y1="70.1117" x2="106.7885" y2="69.6507" stroke="#17000d" stroke-width="1.0" />
  <line x1="73.9125" y1="67.6119" x2="106.7534" y2="67.1510" stroke="#17000d" stroke-width="1.0" />
  <line x1="69.6035" y1="49.3460" x2="83.4695" y2="34.9954" stroke="#000000" stroke-width="1.0" />
  <rect
     style="fill:#ffffff;fill-opacity:1;fill-rule:nonzero;stroke:none"
     width="2"
     height="2"
     x="76.0365"
     y="41.1707"
     transform="rotate(-45.9841 76.5365 42.1707)" /> 
  <path
     style="fill:none;stroke:#000000;stroke-width:1px;stroke-linecap:butt;stroke-linejoin:miter;stroke-opacity:1"
     d="m 76.5365,40.1707 2,2 -2,2 m -2.370121,-4 2,2 -2,2"
     transform="rotate(-45.9841 76.5365 42.1707)"/>
  <line x1="100.3187" y1="45.8283" x2="106.7710" y2="68.4008" stroke="#da6400" stroke-width="1.0" />
  <rect
     style="fill:#ffffff;stroke:none"
     width="5.5"
     height="2"
     x="100.7948"
     y="56.1146" 
     transform="rotate(74.0475 103.5448 57.1146)"    /> 
  <path
     style="fill:none;stroke:#da6400;stroke-width:1px;stroke-linecap:butt;stroke-linejoin:miter;stroke-opacity:1"
    d="m 104.2948,55.1146 2,2 -2,2 m -1.5,-4 -2,2 2,2" transform="rotate(74.0475 103.5448 57.1146)"/>
  <line x1="106.7710" y1="68.4008" x2="106.8563" y2="88.8960" stroke="#000000" stroke-width="1.0" />
  <rect
     style="fill:#ffffff;fill-opacity:1;fill-rule:nonzero;stroke:none"
     width="2"
     height="2"
     x="106.3137"
     y="77.6484"
     transform="rotate(89.7614 106.8137 78.6484)" /> 
  <path
     style="fill:none;stroke:#000000;stroke-width:1px;stroke-linecap:butt;stroke-linejoin:miter;stroke-opacity:1"
     d="m 106.8137,76.6484 2,2 -2,2 m -2.370121,-4 2,2 -2,2"
     transform="rotate(89.7614 106.8137 78.6484)"/>
  <line x1="106.7266" y1="109.3394" x2="106.4221" y2="129.6187" stroke="#000000" stroke-width="1.0" />
  <rect
     style="fill:#ffffff;fill-opacity:1;fill-rule:nonzero;stroke:none"
     width="2"
     height="2"
     x="106.0743"
     y="118.4791"
     transform="rotate(90.8603 106.5743 119.4791)" /> 
  <path
     style="fill:none;stroke:#000000;stroke-width:1px;stroke-linecap:butt;stroke-linejoin:miter;stroke-opacity:1"
     d="m 106.5743,117.4791 2,2 -2,2 m -2.370121,-4 2,2 -2,2"
     transform="rotate(90.8603 106.5743 119.4791)"/>
  <line x1="106.4221" y1="129.6187" x2="105.9513" y2="149.7527" stroke="#9e0fa8" stroke-width="1.0" />
  <rect
     style="fill:#ffffff;fill-opacity:1;fill-rule:nonzero;stroke:none"
     width="2"
     height="2"
     x="105.6867"
     y="138.6857"
     transform="rotate(91.3394 106.1867 139.6857)" /> 
  <path
     style="fill:none;stroke:#9e0fa8;stroke-width:1px;stroke-linecap:butt;stroke-linejoin:miter;stroke-opacity:1"
     d="m 106.1867,137.6857 2,2 -2,2 m -2.370121,-4 2,2 -2,2"
     transform="rotate(91.3394 106.1867 139.6857)"/>
<circle cx="73.1677" cy="149.1997" r="5.0" stroke="#595959" stroke-width="1.0" fill="#ffffff"/>
<text x="73.1677" y="151.8997" text-anchor="middle" font-family="Helvetica" font-size="7.5" fill="#000000" >G</text>
<circle cx="73.6468" cy="129.1377" r="5.0" stroke="#595959" stroke-width="1.0" fill="#ffffff"/>
<text x="73.6468" y="131.8377" text-anchor="middle" font-family="Helvetica" font-size="7.5" fill="#000000" >G</text>
<circle cx="73.9744" cy="109.0307" r="5.0" stroke="#595959" stroke-width="1.0" fill="#ffffff"/>
<text x="73.9744" y="111.7307" text-anchor="middle" font-family="Helvetica" font-size="7.5" fill="#000000" >C</text>
<circle cx="74.1393" cy="88.9493" r="5.0" stroke="#595959" stroke-width="1.0" fill="#ffffff"/>
<text x="74.1393" y="91.6493" text-anchor="middle" font-family="Helvetica" font-size="7.5" fill="#000000" >G</text>
<circle cx="73.9300" cy="68.8618" r="5.0" stroke="#595959" stroke-width="1.0" fill="#ffffff"/>
<text x="73.9300" y="71.5618" text-anchor="middle" font-family="Helvetica" font-size="7.5" fill="#000000" >C</text>
<circle cx="69.6035" cy="49.3460" r="5.0" stroke="#595959" stroke-width="1.0" fill="#ffffff"/>
<text x="69.6035" y="52.0460" text-anchor="middle" font-family="Helvetica" font-size="7.5" fill="#000000" >A</text>
<circle cx="83.4695" cy="34.9954" r="5.0" stroke="#595959" stroke-width="1.0" fill="#ffffff"/>
<text x="83.4695" y="37.6954" text-anchor="middle" font-family="Helvetica" font-size="7.5" fill="#000000" >U</text>
<circle cx="100.3187" cy="45.8283" r="5.0" stroke="#595959" stroke-width="1.0" fill="#ffffff"/>
<text x="100.3187" y="48.5283" text-anchor="middle" font-family="Helvetica" font-size="7.5" fill="#000000" >C</text>
<circle cx="119.0227" cy="52.6434" r="5.0" stroke="#595959" stroke-width="1.0" fill="#ffffff"/>
<text x="119.0227" y="55.3434" text-anchor="middle" font-family="Helvetica" font-size="7.5" fill="#000000" >G</text>
<circle cx="106.7710" cy="68.4008" r="5.0" stroke="#595959" stroke-width="1.0" fill="#ffffff"/>
<text x="106.7710" y="71.1008" text-anchor="middle" font-family="Helvetica" font-size="7.5" fill="#000000" >G</text>
<circle cx="106.8563" cy="88.8960" r="5.0" stroke="#595959" stroke-width="1.0" fill="#ffffff"/>
<text x="106.8563" y="91.5960" text-anchor="middle" font-family="Helvetica" font-size="7.5" fill="#000000" >C</text>
<circle cx="106.7266" cy="109.3394" r="5.0" stroke="#595959" stroke-width="1.0" fill="#ffffff"/>
<text x="106.7266" y="112.0394" text-anchor="middle" font-family="Helvetica" font-size="7.5" fill="#000000" >G</text>
<circle cx="106.4221" cy="129.6187" r="5.0" stroke="#595959" stroke-width="1.0" fill="#ffffff"/>
<text x="106.4221" y="132.3187" text-anchor="middle" font-family="Helvetica" font-size="7.5" fill="#000000" >C</text>
<circle cx="105.9513" cy="149.7527" r="5.0" stroke="#595959" stroke-width="1.0" fill="#ffffff"/>
<text x="105.9513" y="152.4527" text-anchor="middle" font-family="Helvetica" font-size="7.5" fill="#000000" >C</text>
</svg>