<?xml version="1.0" encoding="UTF-8"?>
<!DOCTYPE svg PUBLIC "-//W3C//DTD SVG 1.1//EN" 
"http://www.w3.org/Graphics/SVG/1.1/DTD/svg11.dtd">

<svg version="1.1"
   width="308px"
   height="308px"
xmlns="http://www.w3.org/2000/svg">
    <rect width="100%" height="100%" fill="white"/>

  <line x1="136.3073" y1="217.7094" x2="136.8541" y2="197.7199" stroke="#595959"
     style="stroke-width:2;stroke-miterlimit:4;stroke-dasharray:1,1;stroke-dashoffset:0" />
  <line x1="134.9668" y1="76.1734" x2="139.8170" y2="56.6215" stroke="#595959"
     style="stroke-width:2;stroke-miterlimit:4;stroke-dasharray:1,1;stroke-dashoffset:0" />
  <line x1="139.8170" y1="56.6215" x2="159.7272" y2="55.0173" stroke="#595959"
     style="stroke-width:2;stroke-miterlimit:4;stroke-dasharray:1,1;stroke-dashoffset:0" />
  <line x1="159.7272" y1="55.0173" x2="167.7918" y2="73.8878" stroke="#595959"
     style="stroke-width:2;stroke-miterlimit:4;stroke-dasharray:1,1;stroke-dashoffset:0" />
  <line x1="167.7918" y1="73.8878" x2="185.2206" y2="83.4258" stroke="#595959"
     style="stroke-width:2;stroke-miterlimit:4;stroke-dasharray:1,1;stroke-dashoffset:0" />
  <line x1="185.2206" y1="83.4258" x2="169.0707" y2="95.2804" stroke="#595959"
     style="stroke-width:2;stroke-miterlimit:4;stroke-dasharray:1,1;stroke-dashoffset:0" />
  <line x1="169.5884" y1="198.4028" x2="168.9779" y2="218.4252" stroke="#595959"
     style="stroke-width:2;stroke-miterlimit:4;stroke-dasharray:1,1;stroke-dashoffset:0" />
  <line x1="137.5468" y1="157.7138" x2="170.4265" y2="157.8939" stroke="#d75b00" stroke-width="1.0" />
  <circle cx="153.9867" cy="157.8038" r="2.25" stroke="#d75b00" stroke-width="1.0" fill="#d75b00"/>
  <line x1="137.4964" y1="139.2449" x2="170.3937" y2="138.8399" stroke="#e78c00" stroke-width="1.0" />
  <circle cx="153.9451" cy="139.0424" r="2.25" stroke="#e78c00" stroke-width="1.0" fill="#e78c00"/>
  <line x1="134.9668" y1="76.1734" x2="167.7918" y2="73.8878" stroke="#000000" stroke-width="1.0" />
  <path d="M 145.6293 77.2806 L 145.6293 72.7806 L 150.1293 72.7806 L 150.1293 77.2806 z" style="stroke:#000000;stroke-width:1.0" fill="#000000" 
    transform="rotate(176.0170 151.3793 75.0306)"/>
  <path d="M 153.1293 77.2806 L 153.1293 72.7806 L 157.1293 75.0306 z" style="stroke:#000000;stroke-width:1.0" fill="#000000"
    transform="rotate(176.0170 151.3793 75.0306)"/>
  <line x1="135.2723" y1="257.6881" x2="135.7310" y2="237.6967" stroke="#d14c00" stroke-width="1.0" />
  <rect
     style="fill:#ffffff;fill-opacity:1;fill-rule:nonzero;stroke:none"
     width="2"
     height="2"
     x="135.0017"
     y="246.6924"
     transform="rotate(-88.6856 135.5017 247.6924)" /> 
  <path
     style="fill:none;stroke:#d14c00;stroke-width:1px;stroke-linecap:butt;stroke-linejoin:miter;stroke-opacity:1"
     d="m 135.5017,245.6924 2,2 -2,2 m -2.370121,-4 2,2 -2,2"
     transform="rotate(-88.6856 135.5017 247.6924)"/>
  <line x1="135.2445" y1="258.9378" x2="167.8600" y2="259.6645" stroke="#37004b" stroke-width="1.0" />
  <line x1="135.3002" y1="256.4384" x2="167.9157" y2="257.1651" stroke="#37004b" stroke-width="1.0" />
  <line x1="135.7310" y1="237.6967" x2="136.3073" y2="217.7094" stroke="#000000" stroke-width="1.0" />
  <rect
     style="fill:#ffffff;fill-opacity:1;fill-rule:nonzero;stroke:none"
     width="2"
     height="2"
     x="135.5192"
     y="226.7031"
     transform="rotate(-88.3484 136.0192 227.7031)" /> 
  <path
     style="fill:none;stroke:#000000;stroke-width:1px;stroke-linecap:butt;stroke-linejoin:miter;stroke-opacity:1"
     d="m 136.0192,225.7031 2,2 -2,2 m -2.370121,-4 2,2 -2,2"
     transform="rotate(-88.3484 136.0192 227.7031)"/>
  <line x1="135.7033" y1="238.9464" x2="168.3398" y2="239.6699" stroke="#2d0032" stroke-width="1.0" />
  <line x1="135.7587" y1="236.4470" x2="168.3952" y2="237.1705" stroke="#2d0032" stroke-width="1.0" />
  <line x1="135.7310" y1="237.6967" x2="167.8879" y2="258.4148" stroke="#e99400" stroke-width="1.0" />
  <rect
     style="fill:#ffffff;stroke:none"
     width="5.5"
     height="2"
     x="149.0594"
     y="247.0558" 
     transform="rotate(32.7930 151.8094 248.0558)"    /> 
  <path
     style="fill:none;stroke:#e99400;stroke-width:1px;stroke-linecap:butt;stroke-linejoin:miter;stroke-opacity:1"
    d="m 152.5594,246.0558 2,2 -2,2 m -1.5,-4 -2,2 2,2" transform="rotate(32.7930 151.8094 248.0558)"/>
  <line x1="136.2799" y1="218.9591" x2="168.9506" y2="219.6749" stroke="#17000d" stroke-width="1.0" />
  <line x1="136.3347" y1="216.4597" x2="169.0053" y2="217.1755" stroke="#17000d" stroke-width="1.0" />
  <line x1="136.8541" y1="197.7199" x2="137.3067" y2="177.7231" stroke="#9d0eb1" stroke-width="1.0" />
  <rect
     style="fill:#ffffff;fill-opacity:1;fill-rule:nonzero;stroke:none"
     width="2"
     height="2"
     x="136.5804"
     y="186.7215"
     transform="rotate(-88.7035 137.0804 187.7215)" /> 
  <path
     style="fill:none;stroke:#9d0eb1;stroke-width:1px;stroke-linecap:butt;stroke-linejoin:miter;stroke-opacity:1"
     d="m 137.0804,185.7215 2,2 -2,2 m -2.370121,-4 2,2 -2,2"
     transform="rotate(-88.7035 137.0804 187.7215)"/>
  <line x1="136.8541" y1="197.7199" x2="169.5884" y2="198.4028" stroke="#44006e" stroke-width="1.0" />
  <line x1="136.8541" y1="197.7199" x2="168.9779" y2="218.4252" stroke="#000000" stroke-width="1.0" />
  <rect
     style="fill:#ffffff;stroke:none"
     width="5.5"
     height="2"
     x="150.1660"
     y="207.0726" 
     transform="rotate(32.8037 152.9160 208.0726)"    /> 
  <path
     style="fill:none;stroke:#000000;stroke-width:1px;stroke-linecap:butt;stroke-linejoin:miter;stroke-opacity:1"
    d="m 153.6660,206.0726 2,2 -2,2 m -1.5,-4 -2,2 2,2" transform="rotate(32.8037 152.9160 208.0726)"/>
  <line x1="137.3067" y1="177.7231" x2="137.5468" y2="157.7138" stroke="#8405fd" stroke-width="1.0" />
  <rect
     style="fill:#ffffff;fill-opacity:1;fill-rule:nonzero;stroke:none"
     width="2"
     height="2"
     x="136.9268"
     y="166.7184"
     transform="rotate(-89.3124 137.4268 167.7184)" /> 
  <path
     style="fill:none;stroke:#8405fd;stroke-width:1px;stroke-linecap:butt;stroke-linejoin:miter;stroke-opacity:1"
     d="m 137.4268,165.7184 2,2 -2,2 m -2.370121,-4 2,2 -2,2"
     transform="rotate(-89.3124 137.4268 167.7184)"/>
  <line x1="137.2860" y1="178.9729" x2="170.0995" y2="179.5162" stroke="#5500a3" stroke-width="1.0" />
  <line x1="137.3274" y1="176.4733" x2="170.1408" y2="177.0165" stroke="#5500a3" stroke-width="1.0" />
  <line x1="137.5468" y1="157.7138" x2="137.4767" y2="137.6450" stroke="#8f08ea" stroke-width="1.0" />
  <rect
     style="fill:#ffffff;fill-opacity:1;fill-rule:nonzero;stroke:none"
     width="2"
     height="2"
     x="137.0118"
     y="146.6794"
     transform="rotate(269.7997 137.5118 147.6794)" /> 
  <path
     style="fill:none;stroke:#8f08ea;stroke-width:1px;stroke-linecap:butt;stroke-linejoin:miter;stroke-opacity:1"
     d="m 137.5118,145.6794 2,2 -2,2 m -2.370121,-4 2,2 -2,2"
     transform="rotate(269.7997 137.5118 147.6794)"/>
  <line x1="137.4767" y1="137.6450" x2="137.0394" y2="117.3706" stroke="#ae1a38" stroke-width="1.0" />
  <rect
     style="fill:#ffffff;fill-opacity:1;fill-rule:nonzero;stroke:none"
     width="2"
     height="2"
     x="136.7581"
     y="126.5078"
     transform="rotate(268.7645 137.2581 127.5078)" /> 
  <path
     style="fill:none;stroke:#ae1a38;stroke-width:1px;stroke-linecap:butt;stroke-linejoin:miter;stroke-opacity:1"
     d="m 137.2581,125.5078 2,2 -2,2 m -2.370121,-4 2,2 -2,2"
     transform="rotate(268.7645 137.2581 127.5078)"/>
  <line x1="137.4570" y1="136.0451" x2="170.3544" y2="135.6401" stroke="#9309df" stroke-width="1.0" />
  <line x1="137.0394" y1="117.3706" x2="136.2146" y2="96.9148" stroke="#8d07ef" stroke-width="1.0" />
  <rect
     style="fill:#ffffff;fill-opacity:1;fill-rule:nonzero;stroke:none"
     width="2"
     height="2"
     x="136.1270"
     y="106.1427"
     transform="rotate(267.6908 136.6270 107.1427)" /> 
  <path
     style="fill:none;stroke:#8d07ef;stroke-width:1px;stroke-linecap:butt;stroke-linejoin:miter;stroke-opacity:1"
     d="m 136.6270,105.1427 2,2 -2,2 m -2.370121,-4 2,2 -2,2"
     transform="rotate(267.6908 136.6270 107.1427)"/>
  <line x1="137.0782" y1="118.6200" x2="169.9533" y2="117.5985" stroke="#33003e" stroke-width="1.0" />
  <line x1="137.0006" y1="116.1212" x2="169.8757" y2="115.0997" stroke="#33003e" stroke-width="1.0" />
  <line x1="137.0394" y1="117.3706" x2="170.3741" y2="137.2400" stroke="#eeaa00" stroke-width="1.0" />
  <rect
     style="fill:#ffffff;stroke:none"
     width="5.5"
     height="2"
     x="150.9567"
     y="126.3053" 
     transform="rotate(30.7975 153.7067 127.3053)"    /> 
  <path
     style="fill:none;stroke:#eeaa00;stroke-width:1px;stroke-linecap:butt;stroke-linejoin:miter;stroke-opacity:1"
    d="m 154.4567,125.3053 2,2 -2,2 m -1.5,-4 -2,2 2,2" transform="rotate(30.7975 153.7067 127.3053)"/>
  <line x1="136.2146" y1="96.9148" x2="134.9668" y2="76.1734" stroke="#44006e" stroke-width="1.0" />
  <rect
     style="fill:#ffffff;fill-opacity:1;fill-rule:nonzero;stroke:none"
     width="2"
     height="2"
     x="135.0907"
     y="85.5441"
     transform="rotate(266.5574 135.5907 86.5441)" /> 
  <path
     style="fill:none;stroke:#44006e;stroke-width:1px;stroke-linecap:butt;stroke-linejoin:miter;stroke-opacity:1"
     d="m 135.5907,84.5441 2,2 -2,2 m -2.370121,-4 2,2 -2,2"
     transform="rotate(266.5574 135.5907 86.5441)"/>
  <line x1="136.2146" y1="96.9148" x2="169.0707" y2="95.2804" stroke="#2d0032" stroke-width="1.0" />
  <line x1="167.7918" y1="73.8878" x2="169.0707" y2="95.2804" stroke="#6501d5" stroke-width="1.0" />
  <rect
     style="fill:#ffffff;fill-opacity:1;fill-rule:nonzero;stroke:none"
     width="2"
     height="2"
     x="167.9313"
     y="83.5841"
     transform="rotate(86.5788 168.4313 84.5841)" /> 
  <path
     style="fill:none;stroke:#6501d5;stroke-width:1px;stroke-linecap:butt;stroke-linejoin:miter;stroke-opacity:1"
     d="m 168.4313,82.5841 2,2 -2,2 m -2.370121,-4 2,2 -2,2"
     transform="rotate(86.5788 168.4313 84.5841)"/>
  <line x1="169.0707" y1="95.2804" x2="169.9145" y2="116.3491" stroke="#9d0eb1" stroke-width="1.0" />
  <rect
     style="fill:#ffffff;fill-opacity:1;fill-rule:nonzero;stroke:none"
     width="2"
     height="2"
     x="168.9926"
     y="104.8148"
     transform="rotate(87.7065 169.4926 105.8148)" /> 
  <path
     style="fill:none;stroke:#9d0eb1;stroke-width:1px;stroke-linecap:butt;stroke-linejoin:miter;stroke-opacity:1"
     d="m 169.4926,103.8148 2,2 -2,2 m -2.370121,-4 2,2 -2,2"
     transform="rotate(87.7065 169.4926 105.8148)"/>
  <line x1="169.9145" y1="116.3491" x2="170.3741" y2="137.2400" stroke="#b11c1f" stroke-width="1.0" />
  <rect
     style="fill:#ffffff;fill-opacity:1;fill-rule:nonzero;stroke:none"
     width="2"
     height="2"
     x="169.6443"
     y="125.7946"
     transform="rotate(88.7399 170.1443 126.7946)" /> 
  <path
     style="fill:none;stroke:#b11c1f;stroke-width:1px;stroke-linecap:butt;stroke-linejoin:miter;stroke-opacity:1"
     d="m 170.1443,124.7946 2,2 -2,2 m -2.370121,-4 2,2 -2,2"
     transform="rotate(88.7399 170.1443 126.7946)"/>
  <line x1="170.3741" y1="137.2400" x2="170.4265" y2="157.8939" stroke="#8f08ea" stroke-width="1.0" />
  <rect
     style="fill:#ffffff;fill-opacity:1;fill-rule:nonzero;stroke:none"
     width="2"
     height="2"
     x="169.9003"
     y="146.5670"
     transform="rotate(89.8544 170.4003 147.5670)" /> 
  <path
     style="fill:none;stroke:#8f08ea;stroke-width:1px;stroke-linecap:butt;stroke-linejoin:miter;stroke-opacity:1"
     d="m 170.4003,145.5670 2,2 -2,2 m -2.370121,-4 2,2 -2,2"
     transform="rotate(89.8544 170.4003 147.5670)"/>
  <line x1="170.4265" y1="157.8939" x2="170.1202" y2="178.2663" stroke="#b92500" stroke-width="1.0" />
  <rect
     style="fill:#ffffff;fill-opacity:1;fill-rule:nonzero;stroke:none"
     width="2"
     height="2"
     x="169.7733"
     y="167.0801"
     transform="rotate(90.8616 170.2733 168.0801)" /> 
  <path
     style="fill:none;stroke:#b92500;stroke-width:1px;stroke-linecap:butt;stroke-linejoin:miter;stroke-opacity:1"
     d="m 170.2733,166.0801 2,2 -2,2 m -2.370121,-4 2,2 -2,2"
     transform="rotate(90.8616 170.2733 168.0801)"/>
  <line x1="170.1202" y1="178.2663" x2="169.5884" y2="198.4028" stroke="#a5137f" stroke-width="1.0" />
  <rect
     style="fill:#ffffff;fill-opacity:1;fill-rule:nonzero;stroke:none"
     width="2"
     height="2"
     x="169.3543"
     y="187.3346"
     transform="rotate(91.5127 169.8543 188.3346)" /> 
  <path
     style="fill:none;stroke:#a5137f;stroke-width:1px;stroke-linecap:butt;stroke-linejoin:miter;stroke-opacity:1"
     d="m 169.8543,186.3346 2,2 -2,2 m -2.370121,-4 2,2 -2,2"
     transform="rotate(91.5127 169.8543 188.3346)"/>
  <line x1="168.9779" y1="218.4252" x2="168.3675" y2="238.4202" stroke="#000000" stroke-width="1.0" />
  <rect
     style="fill:#ffffff;fill-opacity:1;fill-rule:nonzero;stroke:none"
     width="2"
     height="2"
     x="168.1727"
     y="227.4227"
     transform="rotate(91.7486 168.6727 228.4227)" /> 
  <path
     style="fill:none;stroke:#000000;stroke-width:1px;stroke-linecap:butt;stroke-linejoin:miter;stroke-opacity:1"
     d="m 168.6727,226.4227 2,2 -2,2 m -2.370121,-4 2,2 -2,2"
     transform="rotate(91.7486 168.6727 228.4227)"/>
  <line x1="168.3675" y1="238.4202" x2="167.8879" y2="258.4148" stroke="#a61473" stroke-width="1.0" />
  <rect
     style="fill:#ffffff;fill-opacity:1;fill-rule:nonzero;stroke:none"
     width="2"
     height="2"
     x="167.6277"
     y="247.4175"
     transform="rotate(91.3743 168.1277 248.4175)" /> 
  <path
     style="fill:none;stroke:#a61473;stroke-width:1px;stroke-linecap:butt;stroke-linejoin:miter;stroke-opacity:1"
     d="m 168.1277,246.4175 2,2 -2,2 m -2.370121,-4 2,2 -2,2"
     transform="rotate(91.3743 168.1277 248.4175)"/>
<circle cx="135.2723" cy="257.6881" r="5.0" stroke="#595959" stroke-width="1.0" fill="#ffffff"/>
<text x="135.2723" y="260.3881" text-anchor="middle" font-family="Helvetica" font-size="7.5" fill="#000000" >G</text>
<circle cx="135.7310" cy="237.6967" r="5.0" stroke="#595959" stroke-width="1.0" fill="#ffffff"/>
<text x="135.7310" y="240.3967" text-anchor="middle" font-family="Helvetica" font-size="7.5" fill="#000000" >G</text>
<circle cx="136.3073" cy="217.7094" r="5.0" stroke="#595959" stroke-width="1.0" fill="#ffffff"/>
<text x="136.3073" y="220.4094" text-anchor="middle" font-family="Helvetica" font-size="7.5" fill="#000000" >C</text>
<circle cx="136.8541" cy="197.7199" r="5.0" stroke="#595959" stroke-width="1.0" fill="#ffffff"/>
<text x="136.8541" y="200.4199" text-anchor="middle" font-family="Helvetica" font-size="7.5" fill="#000000" >A</text>
<circle cx="137.3067" cy="177.7231" r="5.0" stroke="#595959" stroke-width="1.0" fill="#ffffff"/>
<text x="137.3067" y="180.4231" text-anchor="middle" font-family="Helvetica" font-size="7.5" fill="#000000" >G</text>
<circle cx="137.5468" cy="157.7138" r="5.0" stroke="#595959" stroke-width="1.0" fill="#ffffff"/>
<text x="137.5468" y="160.4138" text-anchor="middle" font-family="Helvetica" font-size="7.5" fill="#000000" >A</text>
<circle cx="137.4767" cy="137.6450" r="5.0" stroke="#595959" stroke-width="1.0" fill="#ffffff"/>
<text x="137.4767" y="140.3450" text-anchor="middle" font-family="Helvetica" font-size="7.5" fill="#000000" >U</text>
<circle cx="137.0394" cy="117.3706" r="5.0" stroke="#595959" stroke-width="1.0" fill="#ffffff"/>
<text x="137.0394" y="120.0706" text-anchor="middle" font-family="Helvetica" font-size="7.5" fill="#000000" >C</text>
<circle cx="136.2146" cy="96.9148" r="5.0" stroke="#595959" stroke-width="1.0" fill="#ffffff"/>
<text x="136.2146" y="99.6148" text-anchor="middle" font-family="Helvetica" font-size="7.5" fill="#000000" >U</text>
<circle cx="134.9668" cy="76.1734" r="5.0" stroke="#595959" stroke-width="1.0" fill="#ffffff"/>
<text x="134.9668" y="78.8734" text-anchor="middle" font-family="Helvetica" font-size="7.5" fill="#000000" >G</text>
<circle cx="139.8170" cy="56.6215" r="5.0" stroke="#595959" stroke-width="1.0" fill="#ffffff"/>
<text x="139.8170" y="59.3215" text-anchor="middle" font-family="Helvetica" font-size="7.5" fill="#000000" >U</text>
<circle cx="159.7272" cy="55.0173" r="5.0" stroke="#595959" stroke-width="1.0" fill="#ffffff"/>
<text x="159.7272" y="57.7173" text-anchor="middle" font-family="Helvetica" font-size="7.5" fill="#000000" >A</text>
<circle cx="167.7918" cy="73.8878" r="5.0" stroke="#595959" stroke-width="1.0" fill="#ffffff"/>
<text x="167.7918" y="76.5878" text-anchor="middle" font-family="Helvetica" font-size="7.5" fill="#000000" >A</text>
<circle cx="185.2206" cy="83.4258" r="5.0" stroke="#595959" stroke-width="1.0" fill="#ffffff"/>
<text x="185.2206" y="86.1258" text-anchor="middle" font-family="Helvetica" font-size="7.5" fill="#000000" >U</text>
<circle cx="169.0707" cy="95.2804" r="5.0" stroke="#595959" stroke-width="1.0" fill="#ffffff"/>
<text x="169.0707" y="97.9804" text-anchor="middle" font-family="Helvetica" font-size="7.5" fill="#000000" >A</text>
<circle cx="169.9145" cy="116.3491" r="5.0" stroke="#595959" stroke-width="1.0" fill="#ffffff"/>
<text x="169.9145" y="119.0491" text-anchor="middle" font-family="Helvetica" font-size="7.5" fill="#000000" >G</text>
<circle cx="170.3741" cy="137.2400" r="5.0" stroke="#595959" stroke-width="1.0" fill="#ffffff"/>
<text x="170.3741" y="139.9400" text-anchor="middle" font-family="Helvetica" font-size="7.5" fill="#000000" >A</text>
<circle cx="170.4265" cy="157.8939" r="5.0" stroke="#595959" stroke-width="1.0" fill="#ffffff"/>
<text x="170.4265" y="160.5939" text-anchor="middle" font-family="Helvetica" font-size="7.5" fill="#000000" >A</text>
<circle cx="170.1202" cy="178.2663" r="5.0" stroke="#595959" stroke-width="1.0" fill="#ffffff"/>
<text x="170.1202" y="180.9663" text-anchor="middle" font-family="Helvetica" font-size="7.5" fill="#000000" >C</text>
<circle cx="169.5884" cy="198.4028" r="5.0" stroke="#595959" stroke-width="1.0" fill="#ffffff"/>
<text x="169.5884" y="201.1028" text-anchor="middle" font-family="Helvetica" font-size="7.5" fill="#000000" >U</text>
<circle cx="168.9779" cy="218.4252" r="5.0" stroke="#595959" stroke-width="1.0" fill="#ffffff"/>
<text x="168.9779" y="221.1252" text-anchor="middle" font-family="Helvetica" font-size="7.5" fill="#000000" >G</text>
<circle cx="168.3675" cy="238.4202" r="5.0" stroke="#595959" stroke-width="1.0" fill="#ffffff"/>
<text x="168.3675" y="241.1202" text-anchor="middle" font-family="Helvetica" font-size="7.5" fill="#000000" >C</text>
<circle cx="167.8879" cy="258.4148" r="5.0" stroke="#595959" stroke-width="1.0" fill="#ffffff"/>
<text x="167.8879" y="261.1148" text-anchor="middle" font-family="Helvetica" font-size="7.5" fill="#000000" >C</text>
</svg>