<?xml version="1.0" encoding="UTF-8"?>
<!DOCTYPE svg PUBLIC "-//W3C//DTD SVG 1.1//EN" 
"http://www.w3.org/Graphics/SVG/1.1/DTD/svg11.dtd">

<svg version="1.1"
   width="308px"
   height="308px"
xmlns="http://www.w3.org/2000/svg">
    <rect width="100%" height="100%" fill="white"/>

  <line x1="137.0846" y1="218.4259" x2="137.1985" y2="198.4598" stroke="#595959"
     style="stroke-width:2;stroke-miterlimit:4;stroke-dasharray:1,1;stroke-dashoffset:0" />
  <line x1="137.0729" y1="98.8577" x2="134.8960" y2="79.0943" stroke="#595959"
     style="stroke-width:2;stroke-miterlimit:4;stroke-dasharray:1,1;stroke-dashoffset:0" />
  <line x1="134.8960" y1="79.0943" x2="137.9042" y2="59.3638" stroke="#595959"
     style="stroke-width:2;stroke-miterlimit:4;stroke-dasharray:1,1;stroke-dashoffset:0" />
  <line x1="137.9042" y1="59.3638" x2="155.5599" y2="50.0322" stroke="#595959"
     style="stroke-width:2;stroke-miterlimit:4;stroke-dasharray:1,1;stroke-dashoffset:0" />
  <line x1="155.5599" y1="50.0322" x2="172.8570" y2="60.0411" stroke="#595959"
     style="stroke-width:2;stroke-miterlimit:4;stroke-dasharray:1,1;stroke-dashoffset:0" />
  <line x1="172.8570" y1="60.0411" x2="177.0886" y2="79.5791" stroke="#595959"
     style="stroke-width:2;stroke-miterlimit:4;stroke-dasharray:1,1;stroke-dashoffset:0" />
  <line x1="177.0886" y1="79.5791" x2="169.7074" y2="98.2171" stroke="#595959"
     style="stroke-width:2;stroke-miterlimit:4;stroke-dasharray:1,1;stroke-dashoffset:0" />
  <line x1="169.7074" y1="98.2171" x2="170.0674" y2="118.4426" stroke="#595959"
     style="stroke-width:2;stroke-miterlimit:4;stroke-dasharray:1,1;stroke-dashoffset:0" />
  <line x1="169.8882" y1="198.6113" x2="169.6956" y2="218.6005" stroke="#595959"
     style="stroke-width:2;stroke-miterlimit:4;stroke-dasharray:1,1;stroke-dashoffset:0" />
  <line x1="137.2550" y1="156.9666" x2="170.2795" y2="157.0232" stroke="#eeaa00" stroke-width="1.0" />
  <circle cx="153.7673" cy="156.9949" r="2.25" stroke="#eeaa00" stroke-width="1.0" fill="#eeaa00"/>
  <line x1="137.2495" y1="160.1666" x2="170.2740" y2="160.2231" stroke="#efaf00" stroke-width="1.0" />
  <path d="M 148.0118 162.4449 L 148.0118 157.9449 L 152.5118 157.9449 L 152.5118 162.4449 z" style="stroke:#efaf00;stroke-width:1.0" fill="#efaf00" 
    transform="rotate(0.0981 153.7618 160.1949)"/>
  <path d="M 155.5118 162.4449 L 155.5118 157.9449 L 159.5118 160.1949 z" style="stroke:#efaf00;stroke-width:1.0" fill="#efaf00"
    transform="rotate(0.0981 153.7618 160.1949)"/>
  <line x1="137.0729" y1="98.8577" x2="169.7074" y2="98.2171" stroke="#7302f5" stroke-width="1.0" />
  <path d="M 147.6401 100.7874 L 147.6401 96.2874 L 152.1401 96.2874 L 152.1401 100.7874 z" style="stroke:#7302f5;stroke-width:1.0" fill="#7302f5" 
    transform="rotate(178.8755 153.3901 98.5374)"/>
  <path d="M 155.1401 100.7874 L 155.1401 96.2874 L 159.1401 98.5374 z" style="stroke:#7302f5;stroke-width:1.0" fill="#7302f5"
    transform="rotate(178.8755 153.3901 98.5374)"/>
  <line x1="136.9396" y1="258.3943" x2="136.9879" y2="238.4044" stroke="#d24f00" stroke-width="1.0" />
  <rect
     style="fill:#ffffff;fill-opacity:1;fill-rule:nonzero;stroke:none"
     width="2"
     height="2"
     x="136.4637"
     y="247.3993"
     transform="rotate(-89.8616 136.9637 248.3993)" /> 
  <path
     style="fill:none;stroke:#d24f00;stroke-width:1px;stroke-linecap:butt;stroke-linejoin:miter;stroke-opacity:1"
     d="m 136.9637,246.3993 2,2 -2,2 m -2.370121,-4 2,2 -2,2"
     transform="rotate(-89.8616 136.9637 248.3993)"/>
  <line x1="136.9323" y1="259.6442" x2="169.4971" y2="259.8356" stroke="#37004b" stroke-width="1.0" />
  <line x1="136.9469" y1="257.1443" x2="169.5118" y2="257.3356" stroke="#37004b" stroke-width="1.0" />
  <line x1="136.9879" y1="238.4044" x2="137.0846" y2="218.4259" stroke="#000000" stroke-width="1.0" />
  <rect
     style="fill:#ffffff;fill-opacity:1;fill-rule:nonzero;stroke:none"
     width="2"
     height="2"
     x="136.5363"
     y="227.4151"
     transform="rotate(-89.7226 137.0363 228.4151)" /> 
  <path
     style="fill:none;stroke:#000000;stroke-width:1px;stroke-linecap:butt;stroke-linejoin:miter;stroke-opacity:1"
     d="m 137.0363,226.4151 2,2 -2,2 m -2.370121,-4 2,2 -2,2"
     transform="rotate(-89.7226 137.0363 228.4151)"/>
  <line x1="136.9807" y1="239.6544" x2="169.5675" y2="239.8411" stroke="#33003e" stroke-width="1.0" />
  <line x1="136.9950" y1="237.1544" x2="169.5819" y2="237.3411" stroke="#33003e" stroke-width="1.0" />
  <line x1="136.9879" y1="238.4044" x2="169.5045" y2="258.5856" stroke="#e38000" stroke-width="1.0" />
  <rect
     style="fill:#ffffff;stroke:none"
     width="5.5"
     height="2"
     x="150.4962"
     y="247.4950" 
     transform="rotate(31.8256 153.2462 248.4950)"    /> 
  <path
     style="fill:none;stroke:#e38000;stroke-width:1px;stroke-linecap:butt;stroke-linejoin:miter;stroke-opacity:1"
    d="m 153.9962,246.4950 2,2 -2,2 m -1.5,-4 -2,2 2,2" transform="rotate(31.8256 153.2462 248.4950)"/>
  <line x1="137.0779" y1="219.6758" x2="169.6889" y2="219.8505" stroke="#270026" stroke-width="1.0" />
  <line x1="137.0913" y1="217.1759" x2="169.7023" y2="217.3506" stroke="#270026" stroke-width="1.0" />
  <line x1="137.1985" y1="198.4598" x2="137.3141" y2="178.5065" stroke="#a21194" stroke-width="1.0" />
  <rect
     style="fill:#ffffff;fill-opacity:1;fill-rule:nonzero;stroke:none"
     width="2"
     height="2"
     x="136.7563"
     y="187.4832"
     transform="rotate(-89.6680 137.2563 188.4832)" /> 
  <path
     style="fill:none;stroke:#a21194;stroke-width:1px;stroke-linecap:butt;stroke-linejoin:miter;stroke-opacity:1"
     d="m 137.2563,186.4832 2,2 -2,2 m -2.370121,-4 2,2 -2,2"
     transform="rotate(-89.6680 137.2563 188.4832)"/>
  <line x1="137.1985" y1="198.4598" x2="169.8882" y2="198.6113" stroke="#33003e" stroke-width="1.0" />
  <line x1="137.1985" y1="198.4598" x2="169.6956" y2="218.6005" stroke="#17000d" stroke-width="1.0" />
  <rect
     style="fill:#ffffff;stroke:none"
     width="5.5"
     height="2"
     x="150.6971"
     y="207.5302" 
     transform="rotate(31.7894 153.4471 208.5302)"    /> 
  <path
     style="fill:none;stroke:#17000d;stroke-width:1px;stroke-linecap:butt;stroke-linejoin:miter;stroke-opacity:1"
    d="m 154.1971,206.5302 2,2 -2,2 m -1.5,-4 -2,2 2,2" transform="rotate(31.7894 153.4471 208.5302)"/>
  <line x1="137.3141" y1="178.5065" x2="137.2523" y2="158.5666" stroke="#b62200" stroke-width="1.0" />
  <rect
     style="fill:#ffffff;fill-opacity:1;fill-rule:nonzero;stroke:none"
     width="2"
     height="2"
     x="136.7832"
     y="167.5366"
     transform="rotate(269.8222 137.2832 168.5366)" /> 
  <path
     style="fill:none;stroke:#b62200;stroke-width:1px;stroke-linecap:butt;stroke-linejoin:miter;stroke-opacity:1"
     d="m 137.2832,166.5366 2,2 -2,2 m -2.370121,-4 2,2 -2,2"
     transform="rotate(269.8222 137.2832 168.5366)"/>
  <line x1="137.3098" y1="179.7565" x2="170.1271" y2="179.8704" stroke="#480079" stroke-width="1.0" />
  <line x1="137.3185" y1="177.2565" x2="170.1358" y2="177.3704" stroke="#480079" stroke-width="1.0" />
  <line x1="137.2523" y1="158.5666" x2="137.3824" y2="138.6448" stroke="#bb2700" stroke-width="1.0" />
  <rect
     style="fill:#ffffff;fill-opacity:1;fill-rule:nonzero;stroke:none"
     width="2"
     height="2"
     x="136.8173"
     y="147.6057"
     transform="rotate(-89.6258 137.3173 148.6057)" /> 
  <path
     style="fill:none;stroke:#bb2700;stroke-width:1px;stroke-linecap:butt;stroke-linejoin:miter;stroke-opacity:1"
     d="m 137.3173,146.6057 2,2 -2,2 m -2.370121,-4 2,2 -2,2"
     transform="rotate(-89.6258 137.3173 148.6057)"/>
  <line x1="137.3824" y1="138.6448" x2="137.3857" y2="118.7429" stroke="#9e0fa8" stroke-width="1.0" />
  <rect
     style="fill:#ffffff;fill-opacity:1;fill-rule:nonzero;stroke:none"
     width="2"
     height="2"
     x="136.8840"
     y="127.6939"
     transform="rotate(-89.9905 137.3840 128.6939)" /> 
  <path
     style="fill:none;stroke:#9e0fa8;stroke-width:1px;stroke-linecap:butt;stroke-linejoin:miter;stroke-opacity:1"
     d="m 137.3840,126.6939 2,2 -2,2 m -2.370121,-4 2,2 -2,2"
     transform="rotate(-89.9905 137.3840 128.6939)"/>
  <line x1="137.3824" y1="138.6448" x2="170.2304" y2="138.5947" stroke="#6501d5" stroke-width="1.0" />
  <line x1="137.3857" y1="118.7429" x2="137.0729" y2="98.8577" stroke="#270026" stroke-width="1.0" />
  <rect
     style="fill:#ffffff;fill-opacity:1;fill-rule:nonzero;stroke:none"
     width="2"
     height="2"
     x="136.7293"
     y="107.8003"
     transform="rotate(269.0989 137.2293 108.8003)" /> 
  <path
     style="fill:none;stroke:#270026;stroke-width:1px;stroke-linecap:butt;stroke-linejoin:miter;stroke-opacity:1"
     d="m 137.2293,106.8003 2,2 -2,2 m -2.370121,-4 2,2 -2,2"
     transform="rotate(269.0989 137.2293 108.8003)"/>
  <line x1="137.3971" y1="119.9929" x2="170.0789" y2="119.6925" stroke="#2d0032" stroke-width="1.0" />
  <line x1="137.3742" y1="117.4930" x2="170.0559" y2="117.1926" stroke="#2d0032" stroke-width="1.0" />
  <line x1="137.3857" y1="118.7429" x2="170.2304" y2="138.5947" stroke="#db6700" stroke-width="1.0" />
  <rect
     style="fill:#ffffff;stroke:none"
     width="5.5"
     height="2"
     x="151.0580"
     y="127.6688" 
     transform="rotate(31.1493 153.8080 128.6688)"    /> 
  <path
     style="fill:none;stroke:#db6700;stroke-width:1px;stroke-linecap:butt;stroke-linejoin:miter;stroke-opacity:1"
    d="m 154.5580,126.6688 2,2 -2,2 m -1.5,-4 -2,2 2,2" transform="rotate(31.1493 153.8080 128.6688)"/>
  <line x1="134.8960" y1="79.0943" x2="169.7074" y2="98.2171" stroke="#5800ac" stroke-width="1.0" />
  <rect
     style="fill:#ffffff;stroke:none"
     width="5.5"
     height="2"
     x="149.5517"
     y="87.6557" 
     transform="rotate(28.7812 152.3017 88.6557)"    /> 
  <path
     style="fill:none;stroke:#5800ac;stroke-width:1px;stroke-linecap:butt;stroke-linejoin:miter;stroke-opacity:1"
    d="m 153.0517,86.6557 2,2 -2,2 m -1.5,-4 -2,2 2,2" transform="rotate(28.7812 152.3017 88.6557)"/>
  <line x1="170.0674" y1="118.4426" x2="170.2304" y2="138.5947" stroke="#cc4200" stroke-width="1.0" />
  <rect
     style="fill:#ffffff;fill-opacity:1;fill-rule:nonzero;stroke:none"
     width="2"
     height="2"
     x="169.6489"
     y="127.5186"
     transform="rotate(89.5364 170.1489 128.5186)" /> 
  <path
     style="fill:none;stroke:#cc4200;stroke-width:1px;stroke-linecap:butt;stroke-linejoin:miter;stroke-opacity:1"
     d="m 170.1489,126.5186 2,2 -2,2 m -2.370121,-4 2,2 -2,2"
     transform="rotate(89.5364 170.1489 128.5186)"/>
  <line x1="170.2304" y1="138.5947" x2="170.2768" y2="158.6231" stroke="#c73900" stroke-width="1.0" />
  <rect
     style="fill:#ffffff;fill-opacity:1;fill-rule:nonzero;stroke:none"
     width="2"
     height="2"
     x="169.7536"
     y="147.6089"
     transform="rotate(89.8675 170.2536 148.6089)" /> 
  <path
     style="fill:none;stroke:#c73900;stroke-width:1px;stroke-linecap:butt;stroke-linejoin:miter;stroke-opacity:1"
     d="m 170.2536,146.6089 2,2 -2,2 m -2.370121,-4 2,2 -2,2"
     transform="rotate(89.8675 170.2536 148.6089)"/>
  <line x1="170.2768" y1="158.6231" x2="170.1315" y2="178.6204" stroke="#df7200" stroke-width="1.0" />
  <rect
     style="fill:#ffffff;fill-opacity:1;fill-rule:nonzero;stroke:none"
     width="2"
     height="2"
     x="169.7041"
     y="167.6218"
     transform="rotate(90.4164 170.2041 168.6218)" /> 
  <path
     style="fill:none;stroke:#df7200;stroke-width:1px;stroke-linecap:butt;stroke-linejoin:miter;stroke-opacity:1"
     d="m 170.2041,166.6218 2,2 -2,2 m -2.370121,-4 2,2 -2,2"
     transform="rotate(90.4164 170.2041 168.6218)"/>
  <line x1="170.1315" y1="178.6204" x2="169.8882" y2="198.6113" stroke="#a5137f" stroke-width="1.0" />
  <rect
     style="fill:#ffffff;fill-opacity:1;fill-rule:nonzero;stroke:none"
     width="2"
     height="2"
     x="169.5098"
     y="187.6159"
     transform="rotate(90.6972 170.0098 188.6159)" /> 
  <path
     style="fill:none;stroke:#a5137f;stroke-width:1px;stroke-linecap:butt;stroke-linejoin:miter;stroke-opacity:1"
     d="m 170.0098,186.6159 2,2 -2,2 m -2.370121,-4 2,2 -2,2"
     transform="rotate(90.6972 170.0098 188.6159)"/>
  <line x1="169.6956" y1="218.6005" x2="169.5747" y2="238.5911" stroke="#000000" stroke-width="1.0" />
  <rect
     style="fill:#ffffff;fill-opacity:1;fill-rule:nonzero;stroke:none"
     width="2"
     height="2"
     x="169.1352"
     y="227.5958"
     transform="rotate(90.3466 169.6352 228.5958)" /> 
  <path
     style="fill:none;stroke:#000000;stroke-width:1px;stroke-linecap:butt;stroke-linejoin:miter;stroke-opacity:1"
     d="m 169.6352,226.5958 2,2 -2,2 m -2.370121,-4 2,2 -2,2"
     transform="rotate(90.3466 169.6352 228.5958)"/>
  <line x1="169.5747" y1="238.5911" x2="169.5045" y2="258.5856" stroke="#b11c1f" stroke-width="1.0" />
  <rect
     style="fill:#ffffff;fill-opacity:1;fill-rule:nonzero;stroke:none"
     width="2"
     height="2"
     x="169.0396"
     y="247.5884"
     transform="rotate(90.2013 169.5396 248.5884)" /> 
  <path
     style="fill:none;stroke:#b11c1f;stroke-width:1px;stroke-linecap:butt;stroke-linejoin:miter;stroke-opacity:1"
     d="m 169.5396,246.5884 2,2 -2,2 m -2.370121,-4 2,2 -2,2"
     transform="rotate(90.2013 169.5396 248.5884)"/>
<circle cx="136.9396" cy="258.3943" r="5.0" stroke="#595959" stroke-width="1.0" fill="#ffffff"/>
<text x="136.9396" y="261.0943" text-anchor="middle" font-family="Helvetica" font-size="7.5" fill="#000000" >G</text>
<circle cx="136.9879" cy="238.4044" r="5.0" stroke="#595959" stroke-width="1.0" fill="#ffffff"/>
<text x="136.9879" y="241.1044" text-anchor="middle" font-family="Helvetica" font-size="7.5" fill="#000000" >G</text>
<circle cx="137.0846" cy="218.4259" r="5.0" stroke="#595959" stroke-width="1.0" fill="#ffffff"/>
<text x="137.0846" y="221.1259" text-anchor="middle" font-family="Helvetica" font-size="7.5" fill="#000000" >C</text>
<circle cx="137.1985" cy="198.4598" r="5.0" stroke="#595959" stroke-width="1.0" fill="#ffffff"/>
<text x="137.1985" y="201.1598" text-anchor="middle" font-family="Helvetica" font-size="7.5" fill="#000000" >A</text>
<circle cx="137.3141" cy="178.5065" r="5.0" stroke="#595959" stroke-width="1.0" fill="#ffffff"/>
<text x="137.3141" y="181.2065" text-anchor="middle" font-family="Helvetica" font-size="7.5" fill="#000000" >G</text>
<circle cx="137.2523" cy="158.5666" r="5.0" stroke="#595959" stroke-width="1.0" fill="#ffffff"/>
<text x="137.2523" y="161.2666" text-anchor="middle" font-family="Helvetica" font-size="7.5" fill="#000000" >A</text>
<circle cx="137.3824" cy="138.6448" r="5.0" stroke="#595959" stroke-width="1.0" fill="#ffffff"/>
<text x="137.3824" y="141.3448" text-anchor="middle" font-family="Helvetica" font-size="7.5" fill="#000000" >U</text>
<circle cx="137.3857" cy="118.7429" r="5.0" stroke="#595959" stroke-width="1.0" fill="#ffffff"/>
<text x="137.3857" y="121.4429" text-anchor="middle" font-family="Helvetica" font-size="7.5" fill="#000000" >C</text>
<circle cx="137.0729" cy="98.8577" r="5.0" stroke="#595959" stroke-width="1.0" fill="#ffffff"/>
<text x="137.0729" y="101.5577" text-anchor="middle" font-family="Helvetica" font-size="7.5" fill="#000000" >U</text>
<circle cx="134.8960" cy="79.0943" r="5.0" stroke="#595959" stroke-width="1.0" fill="#ffffff"/>
<text x="134.8960" y="81.7943" text-anchor="middle" font-family="Helvetica" font-size="7.5" fill="#000000" >G</text>
<circle cx="137.9042" cy="59.3638" r="5.0" stroke="#595959" stroke-width="1.0" fill="#ffffff"/>
<text x="137.9042" y="62.0638" text-anchor="middle" font-family="Helvetica" font-size="7.5" fill="#000000" >U</text>
<circle cx="155.5599" cy="50.0322" r="5.0" stroke="#595959" stroke-width="1.0" fill="#ffffff"/>
<text x="155.5599" y="52.7322" text-anchor="middle" font-family="Helvetica" font-size="7.5" fill="#000000" >A</text>
<circle cx="172.8570" cy="60.0411" r="5.0" stroke="#595959" stroke-width="1.0" fill="#ffffff"/>
<text x="172.8570" y="62.7411" text-anchor="middle" font-family="Helvetica" font-size="7.5" fill="#000000" >A</text>
<circle cx="177.0886" cy="79.5791" r="5.0" stroke="#595959" stroke-width="1.0" fill="#ffffff"/>
<text x="177.0886" y="82.2791" text-anchor="middle" font-family="Helvetica" font-size="7.5" fill="#000000" >U</text>
<circle cx="169.7074" cy="98.2171" r="5.0" stroke="#595959" stroke-width="1.0" fill="#ffffff"/>
<text x="169.7074" y="100.9171" text-anchor="middle" font-family="Helvetica" font-size="7.5" fill="#000000" >A</text>
<circle cx="170.0674" cy="118.4426" r="5.0" stroke="#595959" stroke-width="1.0" fill="#ffffff"/>
<text x="170.0674" y="121.1426" text-anchor="middle" font-family="Helvetica" font-size="7.5" fill="#000000" >G</text>
<circle cx="170.2304" cy="138.5947" r="5.0" stroke="#595959" stroke-width="1.0" fill="#ffffff"/>
<text x="170.2304" y="141.2947" text-anchor="middle" font-family="Helvetica" font-size="7.5" fill="#000000" >A</text>
<circle cx="170.2768" cy="158.6231" r="5.0" stroke="#595959" stroke-width="1.0" fill="#ffffff"/>
<text x="170.2768" y="161.3231" text-anchor="middle" font-family="Helvetica" font-size="7.5" fill="#000000" >A</text>
<circle cx="170.1315" cy="178.6204" r="5.0" stroke="#595959" stroke-width="1.0" fill="#ffffff"/>
<text x="170.1315" y="181.3204" text-anchor="middle" font-family="Helvetica" font-size="7.5" fill="#000000" >C</text>
<circle cx="169.8882" cy="198.6113" r="5.0" stroke="#595959" stroke-width="1.0" fill="#ffffff"/>
<text x="169.8882" y="201.3113" text-anchor="middle" font-family="Helvetica" font-size="7.5" fill="#000000" >U</text>
<circle cx="169.6956" cy="218.6005" r="5.0" stroke="#595959" stroke-width="1.0" fill="#ffffff"/>
<text x="169.6956" y="221.3005" text-anchor="middle" font-family="Helvetica" font-size="7.5" fill="#000000" >G</text>
<circle cx="169.5747" cy="238.5911" r="5.0" stroke="#595959" stroke-width="1.0" fill="#ffffff"/>
<text x="169.5747" y="241.2911" text-anchor="middle" font-family="Helvetica" font-size="7.5" fill="#000000" >C</text>
<circle cx="169.5045" cy="258.5856" r="5.0" stroke="#595959" stroke-width="1.0" fill="#ffffff"/>
<text x="169.5045" y="261.2856" text-anchor="middle" font-family="Helvetica" font-size="7.5" fill="#000000" >C</text>
</svg>