<?xml version="1.0" encoding="UTF-8"?>
<!DOCTYPE svg PUBLIC "-//W3C//DTD SVG 1.1//EN" 
"http://www.w3.org/Graphics/SVG/1.1/DTD/svg11.dtd">

<svg version="1.1"
   width="182px"
   height="182px"
xmlns="http://www.w3.org/2000/svg">
    <rect width="100%" height="100%" fill="white"/>

  <line x1="74.5718" y1="108.0419" x2="74.4779" y2="87.6115" stroke="#595959"
     style="stroke-width:2;stroke-miterlimit:4;stroke-dasharray:1,1;stroke-dashoffset:0" />
  <line x1="74.4355" y1="67.1909" x2="62.4051" y2="51.2292" stroke="#595959"
     style="stroke-width:2;stroke-miterlimit:4;stroke-dasharray:1,1;stroke-dashoffset:0" />
  <line x1="80.9697" y1="44.1290" x2="100.6892" y2="47.1605" stroke="#595959"
     style="stroke-width:2;stroke-miterlimit:4;stroke-dasharray:1,1;stroke-dashoffset:0" />
  <line x1="100.6892" y1="47.1605" x2="120.0088" y2="51.9158" stroke="#595959"
     style="stroke-width:2;stroke-miterlimit:4;stroke-dasharray:1,1;stroke-dashoffset:0" />
  <line x1="120.0088" y1="51.9158" x2="107.3729" y2="67.4129" stroke="#595959"
     style="stroke-width:2;stroke-miterlimit:4;stroke-dasharray:1,1;stroke-dashoffset:0" />
  <line x1="107.1658" y1="87.7594" x2="107.2366" y2="108.0335" stroke="#595959"
     style="stroke-width:2;stroke-miterlimit:4;stroke-dasharray:1,1;stroke-dashoffset:0" />
  <line x1="74.9097" y1="148.5222" x2="74.7496" y2="128.3574" stroke="#d35200" stroke-width="1.0" />
  <rect
     style="fill:#ffffff;fill-opacity:1;fill-rule:nonzero;stroke:none"
     width="2"
     height="2"
     x="74.3297"
     y="137.4398"
     transform="rotate(269.5449 74.8297 138.4398)" /> 
  <path
     style="fill:none;stroke:#d35200;stroke-width:1px;stroke-linecap:butt;stroke-linejoin:miter;stroke-opacity:1"
     d="m 74.8297,136.4398 2,2 -2,2 m -2.370121,-4 2,2 -2,2"
     transform="rotate(269.5449 74.8297 138.4398)"/>
  <line x1="74.9152" y1="149.7722" x2="107.5835" y2="149.6302" stroke="#33003e" stroke-width="1.0" />
  <line x1="74.9043" y1="147.2722" x2="107.5726" y2="147.1303" stroke="#33003e" stroke-width="1.0" />
  <line x1="74.7496" y1="128.3574" x2="74.5718" y2="108.0419" stroke="#000000" stroke-width="1.0" />
  <rect
     style="fill:#ffffff;fill-opacity:1;fill-rule:nonzero;stroke:none"
     width="2"
     height="2"
     x="74.1607"
     y="117.1996"
     transform="rotate(269.4986 74.6607 118.1996)" /> 
  <path
     style="fill:none;stroke:#000000;stroke-width:1px;stroke-linecap:butt;stroke-linejoin:miter;stroke-opacity:1"
     d="m 74.6607,116.1996 2,2 -2,2 m -2.370121,-4 2,2 -2,2"
     transform="rotate(269.4986 74.6607 118.1996)"/>
  <line x1="74.7535" y1="129.6074" x2="107.4333" y2="129.5056" stroke="#33003e" stroke-width="1.0" />
  <line x1="74.7457" y1="127.1074" x2="107.4255" y2="127.0057" stroke="#33003e" stroke-width="1.0" />
  <line x1="74.7496" y1="128.3574" x2="107.5780" y2="148.3803" stroke="#e89000" stroke-width="1.0" />
  <rect
     style="fill:#ffffff;stroke:none"
     width="5.5"
     height="2"
     x="88.4138"
     y="137.3688" 
     transform="rotate(31.3800 91.1638 138.3688)"    /> 
  <path
     style="fill:none;stroke:#e89000;stroke-width:1px;stroke-linecap:butt;stroke-linejoin:miter;stroke-opacity:1"
    d="m 91.9138,136.3688 2,2 -2,2 m -1.5,-4 -2,2 2,2" transform="rotate(31.3800 91.1638 138.3688)"/>
  <line x1="74.5721" y1="109.2919" x2="107.2369" y2="109.2835" stroke="#2d0032" stroke-width="1.0" />
  <line x1="74.5715" y1="106.7919" x2="107.2363" y2="106.7835" stroke="#2d0032" stroke-width="1.0" />
  <line x1="74.4779" y1="87.6115" x2="74.4355" y2="67.1909" stroke="#6d02e7" stroke-width="1.0" />
  <rect
     style="fill:#ffffff;fill-opacity:1;fill-rule:nonzero;stroke:none"
     width="2"
     height="2"
     x="73.9567"
     y="76.4012"
     transform="rotate(269.8811 74.4567 77.4012)" /> 
  <path
     style="fill:none;stroke:#6d02e7;stroke-width:1px;stroke-linecap:butt;stroke-linejoin:miter;stroke-opacity:1"
     d="m 74.4567,75.4012 2,2 -2,2 m -2.370121,-4 2,2 -2,2"
     transform="rotate(269.8811 74.4567 77.4012)"/>
  <line x1="74.4722" y1="88.8614" x2="107.1601" y2="89.0094" stroke="#4b0084" stroke-width="1.0" />
  <line x1="74.4835" y1="86.3615" x2="107.1715" y2="86.5094" stroke="#4b0084" stroke-width="1.0" />
  <line x1="74.4779" y1="87.6115" x2="107.2366" y2="108.0335" stroke="#270026" stroke-width="1.0" />
  <rect
     style="fill:#ffffff;stroke:none"
     width="5.5"
     height="2"
     x="88.1073"
     y="96.8225" 
     transform="rotate(31.9397 90.8573 97.8225)"    /> 
  <path
     style="fill:none;stroke:#270026;stroke-width:1px;stroke-linecap:butt;stroke-linejoin:miter;stroke-opacity:1"
    d="m 91.6073,95.8225 2,2 -2,2 m -1.5,-4 -2,2 2,2" transform="rotate(31.9397 90.8573 97.8225)"/>
  <line x1="74.4355" y1="67.1909" x2="80.9697" y2="44.1290" stroke="#e68800" stroke-width="1.0" />
  <rect
     style="fill:#ffffff;fill-opacity:1;fill-rule:nonzero;stroke:none"
     width="2"
     height="2"
     x="76.7026"
     y="54.6600" 
     transform="rotate(-74.1808 77.7026 55.6600)" /> 
  <path
     style="fill:none;stroke:#e68800;stroke-width:1px;stroke-linecap:butt;stroke-linejoin:miter;stroke-opacity:1"
     d="m 80.7026,53.6600 -2,2 2,2 m -6,-4 2,2 -2,2"
     transform="rotate(-74.1808 77.7026 55.6600)"/>
  <line x1="74.4355" y1="67.1909" x2="100.6892" y2="47.1605" stroke="#b11c1f" stroke-width="1.0" />
  <rect
     style="fill:#ffffff;fill-opacity:1;fill-rule:nonzero;stroke:none"
     width="2"
     height="2"
     x="87.0624"
     y="56.1757"
     transform="rotate(-37.3420 87.5624 57.1757)" /> 
  <path
     style="fill:none;stroke:#b11c1f;stroke-width:1px;stroke-linecap:butt;stroke-linejoin:miter;stroke-opacity:1"
     d="m 87.5624,55.1757 2,2 -2,2 m -2.370121,-4 2,2 -2,2"
     transform="rotate(-37.3420 87.5624 57.1757)"/>
  <line x1="74.4271" y1="68.4408" x2="107.3645" y2="68.6628" stroke="#7602f8" stroke-width="1.0" />
  <line x1="74.4439" y1="65.9409" x2="107.3813" y2="66.1629" stroke="#7602f8" stroke-width="1.0" />
  <line x1="62.4051" y1="51.2292" x2="80.9697" y2="44.1290" stroke="#17000d" stroke-width="1.0" />
  <rect
     style="fill:#ffffff;fill-opacity:1;fill-rule:nonzero;stroke:none"
     width="2"
     height="2"
     x="71.1874"
     y="46.6791"
     transform="rotate(-20.9297 71.6874 47.6791)" /> 
  <path
     style="fill:none;stroke:#17000d;stroke-width:1px;stroke-linecap:butt;stroke-linejoin:miter;stroke-opacity:1"
     d="m 71.6874,45.6791 2,2 -2,2 m -2.370121,-4 2,2 -2,2"
     transform="rotate(-20.9297 71.6874 47.6791)"/>
  <line x1="100.6892" y1="47.1605" x2="107.3729" y2="67.4129" stroke="#bf2d00" stroke-width="1.0" />
  <rect
     style="fill:#ffffff;stroke:none"
     width="5.5"
     height="2"
     x="101.2811"
     y="56.2867" 
     transform="rotate(71.7361 104.0311 57.2867)"    /> 
  <path
     style="fill:none;stroke:#bf2d00;stroke-width:1px;stroke-linecap:butt;stroke-linejoin:miter;stroke-opacity:1"
    d="m 104.7811,55.2867 2,2 -2,2 m -1.5,-4 -2,2 2,2" transform="rotate(71.7361 104.0311 57.2867)"/>
  <line x1="107.3729" y1="67.4129" x2="107.1658" y2="87.7594" stroke="#17000d" stroke-width="1.0" />
  <rect
     style="fill:#ffffff;fill-opacity:1;fill-rule:nonzero;stroke:none"
     width="2"
     height="2"
     x="106.7694"
     y="76.5861"
     transform="rotate(90.5832 107.2694 77.5861)" /> 
  <path
     style="fill:none;stroke:#17000d;stroke-width:1px;stroke-linecap:butt;stroke-linejoin:miter;stroke-opacity:1"
     d="m 107.2694,75.5861 2,2 -2,2 m -2.370121,-4 2,2 -2,2"
     transform="rotate(90.5832 107.2694 77.5861)"/>
  <line x1="107.2366" y1="108.0335" x2="107.4294" y2="128.2556" stroke="#000000" stroke-width="1.0" />
  <rect
     style="fill:#ffffff;fill-opacity:1;fill-rule:nonzero;stroke:none"
     width="2"
     height="2"
     x="106.8330"
     y="117.1446"
     transform="rotate(89.4538 107.3330 118.1446)" /> 
  <path
     style="fill:none;stroke:#000000;stroke-width:1px;stroke-linecap:butt;stroke-linejoin:miter;stroke-opacity:1"
     d="m 107.3330,116.1446 2,2 -2,2 m -2.370121,-4 2,2 -2,2"
     transform="rotate(89.4538 107.3330 118.1446)"/>
  <line x1="107.4294" y1="128.2556" x2="107.5780" y2="148.3803" stroke="#940ad9" stroke-width="1.0" />
  <rect
     style="fill:#ffffff;fill-opacity:1;fill-rule:nonzero;stroke:none"
     width="2"
     height="2"
     x="107.0037"
     y="137.3180"
     transform="rotate(89.5768 107.5037 138.3180)" /> 
  <path
     style="fill:none;stroke:#940ad9;stroke-width:1px;stroke-linecap:butt;stroke-linejoin:miter;stroke-opacity:1"
     d="m 107.5037,136.3180 2,2 -2,2 m -2.370121,-4 2,2 -2,2"
     transform="rotate(89.5768 107.5037 138.3180)"/>
<circle cx="74.9097" cy="148.5222" r="5.0" stroke="#595959" stroke-width="1.0" fill="#ffffff"/>
<text x="74.9097" y="151.2222" text-anchor="middle" font-family="Helvetica" font-size="7.5" fill="#000000" >G</text>
<circle cx="74.7496" cy="128.3574" r="5.0" stroke="#595959" stroke-width="1.0" fill="#ffffff"/>
<text x="74.7496" y="131.0574" text-anchor="middle" font-family="Helvetica" font-size="7.5" fill="#000000" >G</text>
<circle cx="74.5718" cy="108.0419" r="5.0" stroke="#595959" stroke-width="1.0" fill="#ffffff"/>
<text x="74.5718" y="110.7419" text-anchor="middle" font-family="Helvetica" font-size="7.5" fill="#000000" >C</text>
<circle cx="74.4779" cy="87.6115" r="5.0" stroke="#595959" stroke-width="1.0" fill="#ffffff"/>
<text x="74.4779" y="90.3115" text-anchor="middle" font-family="Helvetica" font-size="7.5" fill="#000000" >G</text>
<circle cx="74.4355" cy="67.1909" r="5.0" stroke="#595959" stroke-width="1.0" fill="#ffffff"/>
<text x="74.4355" y="69.8909" text-anchor="middle" font-family="Helvetica" font-size="7.5" fill="#000000" >C</text>
<circle cx="62.4051" cy="51.2292" r="5.0" stroke="#595959" stroke-width="1.0" fill="#ffffff"/>
<text x="62.4051" y="53.9292" text-anchor="middle" font-family="Helvetica" font-size="7.5" fill="#000000" >A</text>
<circle cx="80.9697" cy="44.1290" r="5.0" stroke="#595959" stroke-width="1.0" fill="#ffffff"/>
<text x="80.9697" y="46.8290" text-anchor="middle" font-family="Helvetica" font-size="7.5" fill="#000000" >U</text>
<circle cx="100.6892" cy="47.1605" r="5.0" stroke="#595959" stroke-width="1.0" fill="#ffffff"/>
<text x="100.6892" y="49.8605" text-anchor="middle" font-family="Helvetica" font-size="7.5" fill="#000000" >C</text>
<circle cx="120.0088" cy="51.9158" r="5.0" stroke="#595959" stroke-width="1.0" fill="#ffffff"/>
<text x="120.0088" y="54.6158" text-anchor="middle" font-family="Helvetica" font-size="7.5" fill="#000000" >G</text>
<circle cx="107.3729" cy="67.4129" r="5.0" stroke="#595959" stroke-width="1.0" fill="#ffffff"/>
<text x="107.3729" y="70.1129" text-anchor="middle" font-family="Helvetica" font-size="7.5" fill="#000000" >G</text>
<circle cx="107.1658" cy="87.7594" r="5.0" stroke="#595959" stroke-width="1.0" fill="#ffffff"/>
<text x="107.1658" y="90.4594" text-anchor="middle" font-family="Helvetica" font-size="7.5" fill="#000000" >C</text>
<circle cx="107.2366" cy="108.0335" r="5.0" stroke="#595959" stroke-width="1.0" fill="#ffffff"/>
<text x="107.2366" y="110.7335" text-anchor="middle" font-family="Helvetica" font-size="7.5" fill="#000000" >G</text>
<circle cx="107.4294" cy="128.2556" r="5.0" stroke="#595959" stroke-width="1.0" fill="#ffffff"/>
<text x="107.4294" y="130.9556" text-anchor="middle" font-family="Helvetica" font-size="7.5" fill="#000000" >C</text>
<circle cx="107.5780" cy="148.3803" r="5.0" stroke="#595959" stroke-width="1.0" fill="#ffffff"/>
<text x="107.5780" y="151.0803" text-anchor="middle" font-family="Helvetica" font-size="7.5" fill="#000000" >C</text>
</svg>