<?xml version="1.0" encoding="UTF-8"?>
<!DOCTYPE svg PUBLIC "-//W3C//DTD SVG 1.1//EN" 
"http://www.w3.org/Graphics/SVG/1.1/DTD/svg11.dtd">

<svg version="1.1"
   width="182px"
   height="182px"
xmlns="http://www.w3.org/2000/svg">
    <rect width="100%" height="100%" fill="white"/>

  <line x1="73.7968" y1="110.3981" x2="73.9772" y2="90.4424" stroke="#595959"
     style="stroke-width:2;stroke-miterlimit:4;stroke-dasharray:1,1;stroke-dashoffset:0" />
  <line x1="73.8446" y1="70.4979" x2="73.2333" y2="50.5705" stroke="#595959"
     style="stroke-width:2;stroke-miterlimit:4;stroke-dasharray:1,1;stroke-dashoffset:0" />
  <line x1="83.0630" y1="33.1990" x2="103.0100" y2="34.2290" stroke="#595959"
     style="stroke-width:2;stroke-miterlimit:4;stroke-dasharray:1,1;stroke-dashoffset:0" />
  <line x1="113.2998" y1="51.3540" x2="106.7487" y2="70.2747" stroke="#595959"
     style="stroke-width:2;stroke-miterlimit:4;stroke-dasharray:1,1;stroke-dashoffset:0" />
  <line x1="106.8409" y1="90.4308" x2="106.7965" y2="110.5654" stroke="#595959"
     style="stroke-width:2;stroke-miterlimit:4;stroke-dasharray:1,1;stroke-dashoffset:0" />
  <line x1="73.1994" y1="150.3616" x2="73.5169" y2="130.3598" stroke="#ca4000" stroke-width="1.0" />
  <rect
     style="fill:#ffffff;fill-opacity:1;fill-rule:nonzero;stroke:none"
     width="2"
     height="2"
     x="72.8582"
     y="139.3607"
     transform="rotate(-89.0904 73.3582 140.3607)" /> 
  <path
     style="fill:none;stroke:#ca4000;stroke-width:1px;stroke-linecap:butt;stroke-linejoin:miter;stroke-opacity:1"
     d="m 73.3582,138.3607 2,2 -2,2 m -2.370121,-4 2,2 -2,2"
     transform="rotate(-89.0904 73.3582 140.3607)"/>
  <line x1="73.1878" y1="151.6116" x2="106.1576" y2="151.9171" stroke="#33003e" stroke-width="1.0" />
  <line x1="73.2110" y1="149.1117" x2="106.1808" y2="149.4172" stroke="#33003e" stroke-width="1.0" />
  <line x1="73.5169" y1="130.3598" x2="73.7968" y2="110.3981" stroke="#000000" stroke-width="1.0" />
  <rect
     style="fill:#ffffff;fill-opacity:1;fill-rule:nonzero;stroke:none"
     width="2"
     height="2"
     x="73.1569"
     y="119.3789"
     transform="rotate(-89.1969 73.6569 120.3789)" /> 
  <path
     style="fill:none;stroke:#000000;stroke-width:1px;stroke-linecap:butt;stroke-linejoin:miter;stroke-opacity:1"
     d="m 73.6569,118.3789 2,2 -2,2 m -2.370121,-4 2,2 -2,2"
     transform="rotate(-89.1969 73.6569 120.3789)"/>
  <line x1="73.5060" y1="131.6098" x2="106.4929" y2="131.8995" stroke="#3c0057" stroke-width="1.0" />
  <line x1="73.5279" y1="129.1099" x2="106.5148" y2="129.3996" stroke="#3c0057" stroke-width="1.0" />
  <line x1="73.5169" y1="130.3598" x2="106.1692" y2="150.6672" stroke="#e99400" stroke-width="1.0" />
  <rect
     style="fill:#ffffff;stroke:none"
     width="5.5"
     height="2"
     x="87.0931"
     y="139.5135" 
     transform="rotate(31.8787 89.8431 140.5135)"    /> 
  <path
     style="fill:none;stroke:#e99400;stroke-width:1px;stroke-linecap:butt;stroke-linejoin:miter;stroke-opacity:1"
    d="m 90.5931,138.5135 2,2 -2,2 m -1.5,-4 -2,2 2,2" transform="rotate(31.8787 89.8431 140.5135)"/>
  <line x1="73.7904" y1="111.6481" x2="106.7901" y2="111.8154" stroke="#37004b" stroke-width="1.0" />
  <line x1="73.8031" y1="109.1481" x2="106.8028" y2="109.3154" stroke="#37004b" stroke-width="1.0" />
  <line x1="73.9772" y1="90.4424" x2="73.8446" y2="70.4979" stroke="#000000" stroke-width="1.0" />
  <rect
     style="fill:#ffffff;fill-opacity:1;fill-rule:nonzero;stroke:none"
     width="2"
     height="2"
     x="73.4109"
     y="79.4701"
     transform="rotate(269.6189 73.9109 80.4701)" /> 
  <path
     style="fill:none;stroke:#000000;stroke-width:1px;stroke-linecap:butt;stroke-linejoin:miter;stroke-opacity:1"
     d="m 73.9109,78.4701 2,2 -2,2 m -2.370121,-4 2,2 -2,2"
     transform="rotate(269.6189 73.9109 80.4701)"/>
  <line x1="73.9777" y1="91.6924" x2="106.8414" y2="91.6808" stroke="#200019" stroke-width="1.0" />
  <line x1="73.9768" y1="89.1924" x2="106.8405" y2="89.1808" stroke="#200019" stroke-width="1.0" />
  <line x1="73.9772" y1="90.4424" x2="106.7965" y2="110.5654" stroke="#000000" stroke-width="1.0" />
  <rect
     style="fill:#ffffff;stroke:none"
     width="5.5"
     height="2"
     x="87.6368"
     y="99.5039" 
     transform="rotate(31.5144 90.3868 100.5039)"    /> 
  <path
     style="fill:none;stroke:#000000;stroke-width:1px;stroke-linecap:butt;stroke-linejoin:miter;stroke-opacity:1"
    d="m 91.1368,98.5039 2,2 -2,2 m -1.5,-4 -2,2 2,2" transform="rotate(31.5144 90.3868 100.5039)"/>
  <line x1="73.8530" y1="71.7478" x2="106.7571" y2="71.5247" stroke="#270026" stroke-width="1.0" />
  <line x1="73.8361" y1="69.2479" x2="106.7402" y2="69.0248" stroke="#270026" stroke-width="1.0" />
  <line x1="73.2333" y1="50.5705" x2="83.0630" y2="33.1990" stroke="#000000" stroke-width="1.0" />
  <rect
     style="fill:#ffffff;fill-opacity:1;fill-rule:nonzero;stroke:none"
     width="2"
     height="2"
     x="77.6481"
     y="40.8848"
     transform="rotate(-60.4966 78.1481 41.8848)" /> 
  <path
     style="fill:none;stroke:#000000;stroke-width:1px;stroke-linecap:butt;stroke-linejoin:miter;stroke-opacity:1"
     d="m 78.1481,39.8848 2,2 -2,2 m -2.370121,-4 2,2 -2,2"
     transform="rotate(-60.4966 78.1481 41.8848)"/>
  <line x1="73.2333" y1="50.5705" x2="106.7487" y2="70.2747" stroke="#9b0dba" stroke-width="1.0" />
  <rect
     style="fill:#ffffff;stroke:none"
     width="5.5"
     height="2"
     x="87.2410"
     y="59.4226" 
     transform="rotate(30.4520 89.9910 60.4226)"    /> 
  <path
     style="fill:none;stroke:#9b0dba;stroke-width:1px;stroke-linecap:butt;stroke-linejoin:miter;stroke-opacity:1"
    d="m 90.7410,58.4226 2,2 -2,2 m -1.5,-4 -2,2 2,2" transform="rotate(30.4520 89.9910 60.4226)"/>
  <line x1="103.0100" y1="34.2290" x2="113.2998" y2="51.3540" stroke="#000000" stroke-width="1.0" />
  <rect
     style="fill:#ffffff;fill-opacity:1;fill-rule:nonzero;stroke:none"
     width="2"
     height="2"
     x="107.1549"
     y="41.7915" 
     transform="rotate(59.0000 108.1549 42.7915)" /> 
  <path
     style="fill:none;stroke:#000000;stroke-width:1px;stroke-linecap:butt;stroke-linejoin:miter;stroke-opacity:1"
     d="m 111.1549,40.7915 -2,2 2,2 m -6,-4 2,2 -2,2"
     transform="rotate(59.0000 108.1549 42.7915)"/>
  <line x1="106.7487" y1="70.2747" x2="106.8409" y2="90.4308" stroke="#000000" stroke-width="1.0" />
  <rect
     style="fill:#ffffff;fill-opacity:1;fill-rule:nonzero;stroke:none"
     width="2"
     height="2"
     x="106.2948"
     y="79.3528"
     transform="rotate(89.7377 106.7948 80.3528)" /> 
  <path
     style="fill:none;stroke:#000000;stroke-width:1px;stroke-linecap:butt;stroke-linejoin:miter;stroke-opacity:1"
     d="m 106.7948,78.3528 2,2 -2,2 m -2.370121,-4 2,2 -2,2"
     transform="rotate(89.7377 106.7948 80.3528)"/>
  <line x1="106.7965" y1="110.5654" x2="106.5038" y2="130.6496" stroke="#000000" stroke-width="1.0" />
  <rect
     style="fill:#ffffff;fill-opacity:1;fill-rule:nonzero;stroke:none"
     width="2"
     height="2"
     x="106.1501"
     y="119.6075"
     transform="rotate(90.8347 106.6501 120.6075)" /> 
  <path
     style="fill:none;stroke:#000000;stroke-width:1px;stroke-linecap:butt;stroke-linejoin:miter;stroke-opacity:1"
     d="m 106.6501,118.6075 2,2 -2,2 m -2.370121,-4 2,2 -2,2"
     transform="rotate(90.8347 106.6501 120.6075)"/>
  <line x1="106.5038" y1="130.6496" x2="106.1692" y2="150.6672" stroke="#b11c1f" stroke-width="1.0" />
  <rect
     style="fill:#ffffff;fill-opacity:1;fill-rule:nonzero;stroke:none"
     width="2"
     height="2"
     x="105.8365"
     y="139.6584"
     transform="rotate(90.9578 106.3365 140.6584)" /> 
  <path
     style="fill:none;stroke:#b11c1f;stroke-width:1px;stroke-linecap:butt;stroke-linejoin:miter;stroke-opacity:1"
     d="m 106.3365,138.6584 2,2 -2,2 m -2.370121,-4 2,2 -2,2"
     transform="rotate(90.9578 106.3365 140.6584)"/>
<circle cx="73.1994" cy="150.3616" r="5.0" stroke="#595959" stroke-width="1.0" fill="#ffffff"/>
<text x="73.1994" y="153.0616" text-anchor="middle" font-family="Helvetica" font-size="7.5" fill="#000000" >G</text>
<circle cx="73.5169" cy="130.3598" r="5.0" stroke="#595959" stroke-width="1.0" fill="#ffffff"/>
<text x="73.5169" y="133.0598" text-anchor="middle" font-family="Helvetica" font-size="7.5" fill="#000000" >G</text>
<circle cx="73.7968" cy="110.3981" r="5.0" stroke="#595959" stroke-width="1.0" fill="#ffffff"/>
<text x="73.7968" y="113.0981" text-anchor="middle" font-family="Helvetica" font-size="7.5" fill="#000000" >C</text>
<circle cx="73.9772" cy="90.4424" r="5.0" stroke="#595959" stroke-width="1.0" fill="#ffffff"/>
<text x="73.9772" y="93.1424" text-anchor="middle" font-family="Helvetica" font-size="7.5" fill="#000000" >G</text>
<circle cx="73.8446" cy="70.4979" r="5.0" stroke="#595959" stroke-width="1.0" fill="#ffffff"/>
<text x="73.8446" y="73.1979" text-anchor="middle" font-family="Helvetica" font-size="7.5" fill="#000000" >C</text>
<circle cx="73.2333" cy="50.5705" r="5.0" stroke="#595959" stroke-width="1.0" fill="#ffffff"/>
<text x="73.2333" y="53.2705" text-anchor="middle" font-family="Helvetica" font-size="7.5" fill="#000000" >A</text>
<circle cx="83.0630" cy="33.1990" r="5.0" stroke="#595959" stroke-width="1.0" fill="#ffffff"/>
<text x="83.0630" y="35.8990" text-anchor="middle" font-family="Helvetica" font-size="7.5" fill="#000000" >U</text>
<circle cx="103.0100" cy="34.2290" r="5.0" stroke="#595959" stroke-width="1.0" fill="#ffffff"/>
<text x="103.0100" y="36.9290" text-anchor="middle" font-family="Helvetica" font-size="7.5" fill="#000000" >C</text>
<circle cx="113.2998" cy="51.3540" r="5.0" stroke="#595959" stroke-width="1.0" fill="#ffffff"/>
<text x="113.2998" y="54.0540" text-anchor="middle" font-family="Helvetica" font-size="7.5" fill="#000000" >G</text>
<circle cx="106.7487" cy="70.2747" r="5.0" stroke="#595959" stroke-width="1.0" fill="#ffffff"/>
<text x="106.7487" y="72.9747" text-anchor="middle" font-family="Helvetica" font-size="7.5" fill="#000000" >G</text>
<circle cx="106.8409" cy="90.4308" r="5.0" stroke="#595959" stroke-width="1.0" fill="#ffffff"/>
<text x="106.8409" y="93.1308" text-anchor="middle" font-family="Helvetica" font-size="7.5" fill="#000000" >C</text>
<circle cx="106.7965" cy="110.5654" r="5.0" stroke="#595959" stroke-width="1.0" fill="#ffffff"/>
<text x="106.7965" y="113.2654" text-anchor="middle" font-family="Helvetica" font-size="7.5" fill="#000000" >G</text>
<circle cx="106.5038" cy="130.6496" r="5.0" stroke="#595959" stroke-width="1.0" fill="#ffffff"/>
<text x="106.5038" y="133.3496" text-anchor="middle" font-family="Helvetica" font-size="7.5" fill="#000000" >C</text>
<circle cx="106.1692" cy="150.6672" r="5.0" stroke="#595959" stroke-width="1.0" fill="#ffffff"/>
<text x="106.1692" y="153.3672" text-anchor="middle" font-family="Helvetica" font-size="7.5" fill="#000000" >C</text>
</svg>