<?xml version="1.0" encoding="UTF-8"?>
<!DOCTYPE svg PUBLIC "-//W3C//DTD SVG 1.1//EN" 
"http://www.w3.org/Graphics/SVG/1.1/DTD/svg11.dtd">

<svg version="1.1"
   width="182px"
   height="182px"
xmlns="http://www.w3.org/2000/svg">
    <rect width="100%" height="100%" fill="white"/>

  <line x1="75.7997" y1="109.0274" x2="75.6351" y2="88.5376" stroke="#595959"
     style="stroke-width:2;stroke-miterlimit:4;stroke-dasharray:1,1;stroke-dashoffset:0" />
  <line x1="60.8838" y1="54.4865" x2="79.3471" y2="47.1110" stroke="#595959"
     style="stroke-width:2;stroke-miterlimit:4;stroke-dasharray:1,1;stroke-dashoffset:0" />
  <line x1="79.3471" y1="47.1110" x2="95.9131" y2="35.9170" stroke="#595959"
     style="stroke-width:2;stroke-miterlimit:4;stroke-dasharray:1,1;stroke-dashoffset:0" />
  <line x1="95.9131" y1="35.9170" x2="111.3132" y2="48.5990" stroke="#595959"
     style="stroke-width:2;stroke-miterlimit:4;stroke-dasharray:1,1;stroke-dashoffset:0" />
  <line x1="111.3132" y1="48.5990" x2="109.1161" y2="68.4684" stroke="#595959"
     style="stroke-width:2;stroke-miterlimit:4;stroke-dasharray:1,1;stroke-dashoffset:0" />
  <line x1="108.9042" y1="88.5778" x2="109.0181" y2="108.6819" stroke="#595959"
     style="stroke-width:2;stroke-miterlimit:4;stroke-dasharray:1,1;stroke-dashoffset:0" />
  <line x1="76.7916" y1="149.5716" x2="76.2097" y2="129.3971" stroke="#ce4700" stroke-width="1.0" />
  <rect
     style="fill:#ffffff;fill-opacity:1;fill-rule:nonzero;stroke:none"
     width="2"
     height="2"
     x="76.0007"
     y="138.4844"
     transform="rotate(268.3479 76.5007 139.4844)" /> 
  <path
     style="fill:none;stroke:#ce4700;stroke-width:1px;stroke-linecap:butt;stroke-linejoin:miter;stroke-opacity:1"
     d="m 76.5007,137.4844 2,2 -2,2 m -2.370121,-4 2,2 -2,2"
     transform="rotate(268.3479 76.5007 139.4844)"/>
  <line x1="76.8197" y1="150.8213" x2="109.9925" y2="150.0766" stroke="#37004b" stroke-width="1.0" />
  <line x1="76.7636" y1="148.3219" x2="109.9363" y2="147.5773" stroke="#37004b" stroke-width="1.0" />
  <line x1="76.2097" y1="129.3971" x2="75.7997" y2="109.0274" stroke="#000000" stroke-width="1.0" />
  <rect
     style="fill:#ffffff;fill-opacity:1;fill-rule:nonzero;stroke:none"
     width="2"
     height="2"
     x="75.5047"
     y="118.2122"
     transform="rotate(268.8468 76.0047 119.2122)" /> 
  <path
     style="fill:none;stroke:#000000;stroke-width:1px;stroke-linecap:butt;stroke-linejoin:miter;stroke-opacity:1"
     d="m 76.0047,117.2122 2,2 -2,2 m -2.370121,-4 2,2 -2,2"
     transform="rotate(268.8468 76.0047 119.2122)"/>
  <line x1="76.2335" y1="130.6469" x2="109.4260" y2="130.0162" stroke="#2d0032" stroke-width="1.0" />
  <line x1="76.1860" y1="128.1473" x2="109.3785" y2="127.5166" stroke="#2d0032" stroke-width="1.0" />
  <line x1="76.2097" y1="129.3971" x2="109.9644" y2="148.8269" stroke="#eda600" stroke-width="1.0" />
  <rect
     style="fill:#ffffff;stroke:none"
     width="5.5"
     height="2"
     x="90.3371"
     y="138.1120" 
     transform="rotate(29.9256 93.0871 139.1120)"    /> 
  <path
     style="fill:none;stroke:#eda600;stroke-width:1px;stroke-linecap:butt;stroke-linejoin:miter;stroke-opacity:1"
    d="m 93.8371,137.1120 2,2 -2,2 m -1.5,-4 -2,2 2,2" transform="rotate(29.9256 93.0871 139.1120)"/>
  <line x1="75.8127" y1="110.2773" x2="109.0311" y2="109.9318" stroke="#200019" stroke-width="1.0" />
  <line x1="75.7867" y1="107.7774" x2="109.0051" y2="107.4320" stroke="#200019" stroke-width="1.0" />
  <line x1="75.6351" y1="88.5376" x2="75.7017" y2="68.0314" stroke="#000000" stroke-width="1.0" />
  <rect
     style="fill:#ffffff;fill-opacity:1;fill-rule:nonzero;stroke:none"
     width="2"
     height="2"
     x="75.1684"
     y="77.2845"
     transform="rotate(-89.8137 75.6684 78.2845)" /> 
  <path
     style="fill:none;stroke:#000000;stroke-width:1px;stroke-linecap:butt;stroke-linejoin:miter;stroke-opacity:1"
     d="m 75.6684,76.2845 2,2 -2,2 m -2.370121,-4 2,2 -2,2"
     transform="rotate(-89.8137 75.6684 78.2845)"/>
  <line x1="75.6351" y1="88.5376" x2="108.9042" y2="88.5778" stroke="#37004b" stroke-width="1.0" />
  <line x1="75.6351" y1="88.5376" x2="109.0181" y2="108.6819" stroke="#000000" stroke-width="1.0" />
  <rect
     style="fill:#ffffff;stroke:none"
     width="5.5"
     height="2"
     x="89.5766"
     y="97.6098" 
     transform="rotate(31.1080 92.3266 98.6098)"    /> 
  <path
     style="fill:none;stroke:#000000;stroke-width:1px;stroke-linecap:butt;stroke-linejoin:miter;stroke-opacity:1"
    d="m 93.0766,96.6098 2,2 -2,2 m -1.5,-4 -2,2 2,2" transform="rotate(31.1080 92.3266 98.6098)"/>
  <line x1="75.7017" y1="68.0314" x2="60.8838" y2="54.4865" stroke="#e17900" stroke-width="1.0" />
  <rect
     style="fill:#ffffff;fill-opacity:1;fill-rule:nonzero;stroke:none"
     width="2"
     height="2"
     x="67.7928"
     y="60.2589"
     transform="rotate(222.4301 68.2928 61.2589)" /> 
  <path
     style="fill:none;stroke:#e17900;stroke-width:1px;stroke-linecap:butt;stroke-linejoin:miter;stroke-opacity:1"
     d="m 68.2928,59.2589 2,2 -2,2 m -2.370121,-4 2,2 -2,2"
     transform="rotate(222.4301 68.2928 61.2589)"/>
  <line x1="75.7017" y1="68.0314" x2="79.3471" y2="47.1110" stroke="#8405fd" stroke-width="1.0" />
  <rect
     style="fill:#ffffff;fill-opacity:1;fill-rule:nonzero;stroke:none"
     width="2"
     height="2"
     x="77.0244"
     y="56.5712"
     transform="rotate(-80.1154 77.5244 57.5712)" /> 
  <path
     style="fill:none;stroke:#8405fd;stroke-width:1px;stroke-linecap:butt;stroke-linejoin:miter;stroke-opacity:1"
     d="m 77.5244,55.5712 2,2 -2,2 m -2.370121,-4 2,2 -2,2"
     transform="rotate(-80.1154 77.5244 57.5712)"/>
  <line x1="75.6854" y1="69.2813" x2="109.0997" y2="69.7183" stroke="#33003e" stroke-width="1.0" />
  <line x1="75.7181" y1="66.7815" x2="109.1324" y2="67.2185" stroke="#33003e" stroke-width="1.0" />
  <line x1="109.1161" y1="68.4684" x2="108.9042" y2="88.5778" stroke="#000000" stroke-width="1.0" />
  <rect
     style="fill:#ffffff;fill-opacity:1;fill-rule:nonzero;stroke:none"
     width="2"
     height="2"
     x="108.5101"
     y="77.5231"
     transform="rotate(90.6037 109.0101 78.5231)" /> 
  <path
     style="fill:none;stroke:#000000;stroke-width:1px;stroke-linecap:butt;stroke-linejoin:miter;stroke-opacity:1"
     d="m 109.0101,76.5231 2,2 -2,2 m -2.370121,-4 2,2 -2,2"
     transform="rotate(90.6037 109.0101 78.5231)"/>
  <line x1="109.0181" y1="108.6819" x2="109.4023" y2="128.7664" stroke="#000000" stroke-width="1.0" />
  <rect
     style="fill:#ffffff;fill-opacity:1;fill-rule:nonzero;stroke:none"
     width="2"
     height="2"
     x="108.7102"
     y="117.7242"
     transform="rotate(88.9041 109.2102 118.7242)" /> 
  <path
     style="fill:none;stroke:#000000;stroke-width:1px;stroke-linecap:butt;stroke-linejoin:miter;stroke-opacity:1"
     d="m 109.2102,116.7242 2,2 -2,2 m -2.370121,-4 2,2 -2,2"
     transform="rotate(88.9041 109.2102 118.7242)"/>
  <line x1="109.4023" y1="128.7664" x2="109.9644" y2="148.8269" stroke="#bf2d00" stroke-width="1.0" />
  <rect
     style="fill:#ffffff;fill-opacity:1;fill-rule:nonzero;stroke:none"
     width="2"
     height="2"
     x="109.1833"
     y="137.7967"
     transform="rotate(88.3949 109.6833 138.7967)" /> 
  <path
     style="fill:none;stroke:#bf2d00;stroke-width:1px;stroke-linecap:butt;stroke-linejoin:miter;stroke-opacity:1"
     d="m 109.6833,136.7967 2,2 -2,2 m -2.370121,-4 2,2 -2,2"
     transform="rotate(88.3949 109.6833 138.7967)"/>
<circle cx="76.7916" cy="149.5716" r="5.0" stroke="#595959" stroke-width="1.0" fill="#ffffff"/>
<text x="76.7916" y="152.2716" text-anchor="middle" font-family="Helvetica" font-size="7.5" fill="#000000" >G</text>
<circle cx="76.2097" cy="129.3971" r="5.0" stroke="#595959" stroke-width="1.0" fill="#ffffff"/>
<text x="76.2097" y="132.0971" text-anchor="middle" font-family="Helvetica" font-size="7.5" fill="#000000" >G</text>
<circle cx="75.7997" cy="109.0274" r="5.0" stroke="#595959" stroke-width="1.0" fill="#ffffff"/>
<text x="75.7997" y="111.7274" text-anchor="middle" font-family="Helvetica" font-size="7.5" fill="#000000" >C</text>
<circle cx="75.6351" cy="88.5376" r="5.0" stroke="#595959" stroke-width="1.0" fill="#ffffff"/>
<text x="75.6351" y="91.2376" text-anchor="middle" font-family="Helvetica" font-size="7.5" fill="#000000" >A</text>
<circle cx="75.7017" cy="68.0314" r="5.0" stroke="#595959" stroke-width="1.0" fill="#ffffff"/>
<text x="75.7017" y="70.7314" text-anchor="middle" font-family="Helvetica" font-size="7.5" fill="#000000" >C</text>
<circle cx="60.8838" cy="54.4865" r="5.0" stroke="#595959" stroke-width="1.0" fill="#ffffff"/>
<text x="60.8838" y="57.1865" text-anchor="middle" font-family="Helvetica" font-size="7.5" fill="#000000" >U</text>
<circle cx="79.3471" cy="47.1110" r="5.0" stroke="#595959" stroke-width="1.0" fill="#ffffff"/>
<text x="79.3471" y="49.8110" text-anchor="middle" font-family="Helvetica" font-size="7.5" fill="#000000" >U</text>
<circle cx="95.9131" cy="35.9170" r="5.0" stroke="#595959" stroke-width="1.0" fill="#ffffff"/>
<text x="95.9131" y="38.6170" text-anchor="middle" font-family="Helvetica" font-size="7.5" fill="#000000" >C</text>
<circle cx="111.3132" cy="48.5990" r="5.0" stroke="#595959" stroke-width="1.0" fill="#ffffff"/>
<text x="111.3132" y="51.2990" text-anchor="middle" font-family="Helvetica" font-size="7.5" fill="#000000" >G</text>
<circle cx="109.1161" cy="68.4684" r="5.0" stroke="#595959" stroke-width="1.0" fill="#ffffff"/>
<text x="109.1161" y="71.1684" text-anchor="middle" font-family="Helvetica" font-size="7.5" fill="#000000" >G</text>
<circle cx="108.9042" cy="88.5778" r="5.0" stroke="#595959" stroke-width="1.0" fill="#ffffff"/>
<text x="108.9042" y="91.2778" text-anchor="middle" font-family="Helvetica" font-size="7.5" fill="#000000" >U</text>
<circle cx="109.0181" cy="108.6819" r="5.0" stroke="#595959" stroke-width="1.0" fill="#ffffff"/>
<text x="109.0181" y="111.3819" text-anchor="middle" font-family="Helvetica" font-size="7.5" fill="#000000" >G</text>
<circle cx="109.4023" cy="128.7664" r="5.0" stroke="#595959" stroke-width="1.0" fill="#ffffff"/>
<text x="109.4023" y="131.4664" text-anchor="middle" font-family="Helvetica" font-size="7.5" fill="#000000" >C</text>
<circle cx="109.9644" cy="148.8269" r="5.0" stroke="#595959" stroke-width="1.0" fill="#ffffff"/>
<text x="109.9644" y="151.5269" text-anchor="middle" font-family="Helvetica" font-size="7.5" fill="#000000" >C</text>
</svg>