<?xml version="1.0" encoding="UTF-8"?>
<!DOCTYPE svg PUBLIC "-//W3C//DTD SVG 1.1//EN" 
"http://www.w3.org/Graphics/SVG/1.1/DTD/svg11.dtd">

<svg version="1.1"
   width="182px"
   height="182px"
xmlns="http://www.w3.org/2000/svg">
    <rect width="100%" height="100%" fill="white"/>

  <line x1="72.6297" y1="108.5550" x2="72.7823" y2="88.3958" stroke="#595959"
     style="stroke-width:2;stroke-miterlimit:4;stroke-dasharray:1,1;stroke-dashoffset:0" />
  <line x1="72.0194" y1="47.8451" x2="87.9655" y2="35.8164" stroke="#595959"
     style="stroke-width:2;stroke-miterlimit:4;stroke-dasharray:1,1;stroke-dashoffset:0" />
  <line x1="104.8755" y1="46.5882" x2="122.1496" y2="56.3927" stroke="#595959"
     style="stroke-width:2;stroke-miterlimit:4;stroke-dasharray:1,1;stroke-dashoffset:0" />
  <line x1="122.1496" y1="56.3927" x2="105.4736" y2="67.6531" stroke="#595959"
     style="stroke-width:2;stroke-miterlimit:4;stroke-dasharray:1,1;stroke-dashoffset:0" />
  <line x1="105.6301" y1="88.3968" x2="105.4418" y2="109.1142" stroke="#595959"
     style="stroke-width:2;stroke-miterlimit:4;stroke-dasharray:1,1;stroke-dashoffset:0" />
  <line x1="71.3282" y1="148.8055" x2="72.0877" y2="128.6977" stroke="#d55800" stroke-width="1.0" />
  <rect
     style="fill:#ffffff;fill-opacity:1;fill-rule:nonzero;stroke:none"
     width="2"
     height="2"
     x="71.2080"
     y="137.7516"
     transform="rotate(-87.8370 71.7080 138.7516)" /> 
  <path
     style="fill:none;stroke:#d55800;stroke-width:1px;stroke-linecap:butt;stroke-linejoin:miter;stroke-opacity:1"
     d="m 71.7080,136.7516 2,2 -2,2 m -2.370121,-4 2,2 -2,2"
     transform="rotate(-87.8370 71.7080 138.7516)"/>
  <line x1="71.2877" y1="150.0549" x2="104.0866" y2="151.1192" stroke="#270026" stroke-width="1.0" />
  <line x1="71.3688" y1="147.5562" x2="104.1677" y2="148.6205" stroke="#270026" stroke-width="1.0" />
  <line x1="72.0877" y1="128.6977" x2="72.6297" y2="108.5550" stroke="#000000" stroke-width="1.0" />
  <rect
     style="fill:#ffffff;fill-opacity:1;fill-rule:nonzero;stroke:none"
     width="2"
     height="2"
     x="71.8587"
     y="117.6263"
     transform="rotate(-88.4587 72.3587 118.6263)" /> 
  <path
     style="fill:none;stroke:#000000;stroke-width:1px;stroke-linecap:butt;stroke-linejoin:miter;stroke-opacity:1"
     d="m 72.3587,116.6263 2,2 -2,2 m -2.370121,-4 2,2 -2,2"
     transform="rotate(-88.4587 72.3587 118.6263)"/>
  <line x1="72.0519" y1="129.9472" x2="104.8558" y2="130.8869" stroke="#270026" stroke-width="1.0" />
  <line x1="72.1235" y1="127.4482" x2="104.9273" y2="128.3880" stroke="#270026" stroke-width="1.0" />
  <line x1="72.0877" y1="128.6977" x2="104.1272" y2="149.8699" stroke="#e68800" stroke-width="1.0" />
  <rect
     style="fill:#ffffff;stroke:none"
     width="5.5"
     height="2"
     x="85.3574"
     y="138.2838" 
     transform="rotate(33.4573 88.1074 139.2838)"    /> 
  <path
     style="fill:none;stroke:#e68800;stroke-width:1px;stroke-linecap:butt;stroke-linejoin:miter;stroke-opacity:1"
    d="m 88.8574,137.2838 2,2 -2,2 m -1.5,-4 -2,2 2,2" transform="rotate(33.4573 88.1074 139.2838)"/>
  <line x1="72.6084" y1="109.8048" x2="105.4205" y2="110.3640" stroke="#2d0032" stroke-width="1.0" />
  <line x1="72.6510" y1="107.3051" x2="105.4631" y2="107.8644" stroke="#2d0032" stroke-width="1.0" />
  <line x1="72.7823" y1="88.3958" x2="72.5979" y2="68.2321" stroke="#17000d" stroke-width="1.0" />
  <rect
     style="fill:#ffffff;fill-opacity:1;fill-rule:nonzero;stroke:none"
     width="2"
     height="2"
     x="72.1901"
     y="77.3139"
     transform="rotate(269.4760 72.6901 78.3139)" /> 
  <path
     style="fill:none;stroke:#17000d;stroke-width:1px;stroke-linecap:butt;stroke-linejoin:miter;stroke-opacity:1"
     d="m 72.6901,76.3139 2,2 -2,2 m -2.370121,-4 2,2 -2,2"
     transform="rotate(269.4760 72.6901 78.3139)"/>
  <line x1="72.7823" y1="88.3958" x2="105.6301" y2="88.3968" stroke="#4e008f" stroke-width="1.0" />
  <line x1="72.7823" y1="88.3958" x2="105.4418" y2="109.1142" stroke="#2d0032" stroke-width="1.0" />
  <rect
     style="fill:#ffffff;stroke:none"
     width="5.5"
     height="2"
     x="86.3621"
     y="97.7550" 
     transform="rotate(32.3901 89.1121 98.7550)"    /> 
  <path
     style="fill:none;stroke:#2d0032;stroke-width:1px;stroke-linecap:butt;stroke-linejoin:miter;stroke-opacity:1"
    d="m 89.8621,96.7550 2,2 -2,2 m -1.5,-4 -2,2 2,2" transform="rotate(32.3901 89.1121 98.7550)"/>
  <line x1="72.5979" y1="68.2321" x2="72.0194" y2="47.8451" stroke="#200019" stroke-width="1.0" />
  <rect
     style="fill:#ffffff;fill-opacity:1;fill-rule:nonzero;stroke:none"
     width="2"
     height="2"
     x="71.8087"
     y="57.0386"
     transform="rotate(268.3746 72.3087 58.0386)" /> 
  <path
     style="fill:none;stroke:#200019;stroke-width:1px;stroke-linecap:butt;stroke-linejoin:miter;stroke-opacity:1"
     d="m 72.3087,56.0386 2,2 -2,2 m -2.370121,-4 2,2 -2,2"
     transform="rotate(268.3746 72.3087 58.0386)"/>
  <line x1="72.6199" y1="69.4819" x2="105.4956" y2="68.9029" stroke="#400062" stroke-width="1.0" />
  <line x1="72.5759" y1="66.9822" x2="105.4516" y2="66.4033" stroke="#400062" stroke-width="1.0" />
  <line x1="71.9583" y1="46.2463" x2="104.8143" y2="44.9894" stroke="#d75b00" stroke-width="1.0" />
  <path d="M 86.3863 47.8679 L 86.3863 43.3679 L 90.3863 45.6179 z" style="stroke:#d75b00;stroke-width:1.0" fill="#ffffff"
    transform="rotate(-2.1907 88.3863 45.6179)"/>
  <line x1="72.0806" y1="49.4440" x2="104.9367" y2="48.1871" stroke="#d24f00" stroke-width="1.0" />
  <path d="M 82.7586 51.0655 L 82.7586 46.5655 L 87.2586 46.5655 L 87.2586 51.0655 z" style="stroke:#d24f00;stroke-width:1.0" fill="#ffffff" 
    transform="rotate(177.8093 88.5086 48.8155)"/>
  <path d="M 90.2586 51.0655 L 90.2586 46.5655 L 94.2586 48.8155 z" style="stroke:#d24f00;stroke-width:1.0" fill="#ffffff"
    transform="rotate(177.8093 88.5086 48.8155)"/>
  <line x1="87.9655" y1="35.8164" x2="104.8755" y2="46.5882" stroke="#ac1845" stroke-width="1.0" />
  <rect
     style="fill:#ffffff;fill-opacity:1;fill-rule:nonzero;stroke:none"
     width="2"
     height="2"
     x="95.9205"
     y="40.2023"
     transform="rotate(32.4976 96.4205 41.2023)" /> 
  <path
     style="fill:none;stroke:#ac1845;stroke-width:1px;stroke-linecap:butt;stroke-linejoin:miter;stroke-opacity:1"
     d="m 96.4205,39.2023 2,2 -2,2 m -2.370121,-4 2,2 -2,2"
     transform="rotate(32.4976 96.4205 41.2023)"/>
  <line x1="104.8755" y1="46.5882" x2="105.4736" y2="67.6531" stroke="#940ad9" stroke-width="1.0" />
  <rect
     style="fill:#ffffff;fill-opacity:1;fill-rule:nonzero;stroke:none"
     width="2"
     height="2"
     x="104.6745"
     y="56.1207"
     transform="rotate(88.3737 105.1745 57.1207)" /> 
  <path
     style="fill:none;stroke:#940ad9;stroke-width:1px;stroke-linecap:butt;stroke-linejoin:miter;stroke-opacity:1"
     d="m 105.1745,55.1207 2,2 -2,2 m -2.370121,-4 2,2 -2,2"
     transform="rotate(88.3737 105.1745 57.1207)"/>
  <line x1="105.4736" y1="67.6531" x2="105.6301" y2="88.3968" stroke="#000000" stroke-width="1.0" />
  <rect
     style="fill:#ffffff;fill-opacity:1;fill-rule:nonzero;stroke:none"
     width="2"
     height="2"
     x="105.0518"
     y="77.0250"
     transform="rotate(89.5678 105.5518 78.0250)" /> 
  <path
     style="fill:none;stroke:#000000;stroke-width:1px;stroke-linecap:butt;stroke-linejoin:miter;stroke-opacity:1"
     d="m 105.5518,76.0250 2,2 -2,2 m -2.370121,-4 2,2 -2,2"
     transform="rotate(89.5678 105.5518 78.0250)"/>
  <line x1="105.4418" y1="109.1142" x2="104.8915" y2="129.6375" stroke="#000000" stroke-width="1.0" />
  <rect
     style="fill:#ffffff;fill-opacity:1;fill-rule:nonzero;stroke:none"
     width="2"
     height="2"
     x="104.6667"
     y="118.3758"
     transform="rotate(91.5359 105.1667 119.3758)" /> 
  <path
     style="fill:none;stroke:#000000;stroke-width:1px;stroke-linecap:butt;stroke-linejoin:miter;stroke-opacity:1"
     d="m 105.1667,117.3758 2,2 -2,2 m -2.370121,-4 2,2 -2,2"
     transform="rotate(91.5359 105.1667 119.3758)"/>
  <line x1="104.8915" y1="129.6375" x2="104.1272" y2="149.8699" stroke="#c33200" stroke-width="1.0" />
  <rect
     style="fill:#ffffff;fill-opacity:1;fill-rule:nonzero;stroke:none"
     width="2"
     height="2"
     x="104.0094"
     y="138.7537"
     transform="rotate(92.1636 104.5094 139.7537)" /> 
  <path
     style="fill:none;stroke:#c33200;stroke-width:1px;stroke-linecap:butt;stroke-linejoin:miter;stroke-opacity:1"
     d="m 104.5094,137.7537 2,2 -2,2 m -2.370121,-4 2,2 -2,2"
     transform="rotate(92.1636 104.5094 139.7537)"/>
<circle cx="71.3282" cy="148.8055" r="5.0" stroke="#595959" stroke-width="1.0" fill="#ffffff"/>
<text x="71.3282" y="151.5055" text-anchor="middle" font-family="Helvetica" font-size="7.5" fill="#000000" >G</text>
<circle cx="72.0877" cy="128.6977" r="5.0" stroke="#595959" stroke-width="1.0" fill="#ffffff"/>
<text x="72.0877" y="131.3977" text-anchor="middle" font-family="Helvetica" font-size="7.5" fill="#000000" >G</text>
<circle cx="72.6297" cy="108.5550" r="5.0" stroke="#595959" stroke-width="1.0" fill="#ffffff"/>
<text x="72.6297" y="111.2550" text-anchor="middle" font-family="Helvetica" font-size="7.5" fill="#000000" >C</text>
<circle cx="72.7823" cy="88.3958" r="5.0" stroke="#595959" stroke-width="1.0" fill="#ffffff"/>
<text x="72.7823" y="91.0958" text-anchor="middle" font-family="Helvetica" font-size="7.5" fill="#000000" >A</text>
<circle cx="72.5979" cy="68.2321" r="5.0" stroke="#595959" stroke-width="1.0" fill="#ffffff"/>
<text x="72.5979" y="70.9321" text-anchor="middle" font-family="Helvetica" font-size="7.5" fill="#000000" >C</text>
<circle cx="72.0194" cy="47.8451" r="5.0" stroke="#595959" stroke-width="1.0" fill="#ffffff"/>
<text x="72.0194" y="50.5451" text-anchor="middle" font-family="Helvetica" font-size="7.5" fill="#000000" >U</text>
<circle cx="87.9655" cy="35.8164" r="5.0" stroke="#595959" stroke-width="1.0" fill="#ffffff"/>
<text x="87.9655" y="38.5164" text-anchor="middle" font-family="Helvetica" font-size="7.5" fill="#000000" >U</text>
<circle cx="104.8755" cy="46.5882" r="5.0" stroke="#595959" stroke-width="1.0" fill="#ffffff"/>
<text x="104.8755" y="49.2882" text-anchor="middle" font-family="Helvetica" font-size="7.5" fill="#000000" >C</text>
<circle cx="122.1496" cy="56.3927" r="5.0" stroke="#595959" stroke-width="1.0" fill="#ffffff"/>
<text x="122.1496" y="59.0927" text-anchor="middle" font-family="Helvetica" font-size="7.5" fill="#000000" >G</text>
<circle cx="105.4736" cy="67.6531" r="5.0" stroke="#595959" stroke-width="1.0" fill="#ffffff"/>
<text x="105.4736" y="70.3531" text-anchor="middle" font-family="Helvetica" font-size="7.5" fill="#000000" >G</text>
<circle cx="105.6301" cy="88.3968" r="5.0" stroke="#595959" stroke-width="1.0" fill="#ffffff"/>
<text x="105.6301" y="91.0968" text-anchor="middle" font-family="Helvetica" font-size="7.5" fill="#000000" >U</text>
<circle cx="105.4418" cy="109.1142" r="5.0" stroke="#595959" stroke-width="1.0" fill="#ffffff"/>
<text x="105.4418" y="111.8142" text-anchor="middle" font-family="Helvetica" font-size="7.5" fill="#000000" >G</text>
<circle cx="104.8915" cy="129.6375" r="5.0" stroke="#595959" stroke-width="1.0" fill="#ffffff"/>
<text x="104.8915" y="132.3375" text-anchor="middle" font-family="Helvetica" font-size="7.5" fill="#000000" >C</text>
<circle cx="104.1272" cy="149.8699" r="5.0" stroke="#595959" stroke-width="1.0" fill="#ffffff"/>
<text x="104.1272" y="152.5699" text-anchor="middle" font-family="Helvetica" font-size="7.5" fill="#000000" >C</text>
</svg>