<?xml version="1.0" encoding="UTF-8"?>
<!DOCTYPE svg PUBLIC "-//W3C//DTD SVG 1.1//EN" 
"http://www.w3.org/Graphics/SVG/1.1/DTD/svg11.dtd">

<svg version="1.1"
   width="182px"
   height="182px"
xmlns="http://www.w3.org/2000/svg">
    <rect width="100%" height="100%" fill="white"/>

  <line x1="74.0704" y1="110.3873" x2="74.1833" y2="90.4194" stroke="#595959"
     style="stroke-width:2;stroke-miterlimit:4;stroke-dasharray:1,1;stroke-dashoffset:0" />
  <line x1="82.2361" y1="33.7169" x2="102.2040" y2="34.3399" stroke="#595959"
     style="stroke-width:2;stroke-miterlimit:4;stroke-dasharray:1,1;stroke-dashoffset:0" />
  <line x1="113.0145" y1="51.1408" x2="107.2163" y2="70.2877" stroke="#595959"
     style="stroke-width:2;stroke-miterlimit:4;stroke-dasharray:1,1;stroke-dashoffset:0" />
  <line x1="107.1989" y1="90.3703" x2="107.1357" y2="110.4639" stroke="#595959"
     style="stroke-width:2;stroke-miterlimit:4;stroke-dasharray:1,1;stroke-dashoffset:0" />
  <line x1="73.6697" y1="150.3618" x2="73.8660" y2="130.3634" stroke="#d14c00" stroke-width="1.0" />
  <rect
     style="fill:#ffffff;fill-opacity:1;fill-rule:nonzero;stroke:none"
     width="2"
     height="2"
     x="73.2678"
     y="139.3626"
     transform="rotate(-89.4378 73.7678 140.3626)" /> 
  <path
     style="fill:none;stroke:#d14c00;stroke-width:1px;stroke-linecap:butt;stroke-linejoin:miter;stroke-opacity:1"
     d="m 73.7678,138.3626 2,2 -2,2 m -2.370121,-4 2,2 -2,2"
     transform="rotate(-89.4378 73.7678 140.3626)"/>
  <line x1="73.6632" y1="151.6118" x2="106.6494" y2="151.7843" stroke="#37004b" stroke-width="1.0" />
  <line x1="73.6763" y1="149.1118" x2="106.6625" y2="149.2843" stroke="#37004b" stroke-width="1.0" />
  <line x1="73.8660" y1="130.3634" x2="74.0704" y2="110.3873" stroke="#000000" stroke-width="1.0" />
  <rect
     style="fill:#ffffff;fill-opacity:1;fill-rule:nonzero;stroke:none"
     width="2"
     height="2"
     x="73.4682"
     y="119.3754"
     transform="rotate(-89.4135 73.9682 120.3754)" /> 
  <path
     style="fill:none;stroke:#000000;stroke-width:1px;stroke-linecap:butt;stroke-linejoin:miter;stroke-opacity:1"
     d="m 73.9682,118.3754 2,2 -2,2 m -2.370121,-4 2,2 -2,2"
     transform="rotate(-89.4135 73.9682 120.3754)"/>
  <line x1="73.8603" y1="131.6134" x2="106.9098" y2="131.7623" stroke="#2d0032" stroke-width="1.0" />
  <line x1="73.8716" y1="129.1134" x2="106.9211" y2="129.2623" stroke="#2d0032" stroke-width="1.0" />
  <line x1="73.8660" y1="130.3634" x2="106.6560" y2="150.5343" stroke="#e99400" stroke-width="1.0" />
  <rect
     style="fill:#ffffff;stroke:none"
     width="5.5"
     height="2"
     x="87.5110"
     y="139.4489" 
     transform="rotate(31.5979 90.2610 140.4489)"    /> 
  <path
     style="fill:none;stroke:#e99400;stroke-width:1px;stroke-linecap:butt;stroke-linejoin:miter;stroke-opacity:1"
    d="m 91.0110,138.4489 2,2 -2,2 m -1.5,-4 -2,2 2,2" transform="rotate(31.5979 90.2610 140.4489)"/>
  <line x1="74.0675" y1="111.6373" x2="107.1328" y2="111.7139" stroke="#270026" stroke-width="1.0" />
  <line x1="74.0733" y1="109.1373" x2="107.1386" y2="109.2139" stroke="#270026" stroke-width="1.0" />
  <line x1="74.1833" y1="90.4194" x2="73.9899" y2="70.4608" stroke="#000000" stroke-width="1.0" />
  <rect
     style="fill:#ffffff;fill-opacity:1;fill-rule:nonzero;stroke:none"
     width="2"
     height="2"
     x="73.5866"
     y="79.4401"
     transform="rotate(269.4448 74.0866 80.4401)" /> 
  <path
     style="fill:none;stroke:#000000;stroke-width:1px;stroke-linecap:butt;stroke-linejoin:miter;stroke-opacity:1"
     d="m 74.0866,78.4401 2,2 -2,2 m -2.370121,-4 2,2 -2,2"
     transform="rotate(269.4448 74.0866 80.4401)"/>
  <line x1="74.1833" y1="90.4194" x2="107.1989" y2="90.3703" stroke="#4e008f" stroke-width="1.0" />
  <line x1="74.1833" y1="90.4194" x2="107.1357" y2="110.4639" stroke="#200019" stroke-width="1.0" />
  <rect
     style="fill:#ffffff;stroke:none"
     width="5.5"
     height="2"
     x="87.9095"
     y="99.4417" 
     transform="rotate(31.3116 90.6595 100.4417)"    /> 
  <path
     style="fill:none;stroke:#200019;stroke-width:1px;stroke-linecap:butt;stroke-linejoin:miter;stroke-opacity:1"
    d="m 91.4095,98.4417 2,2 -2,2 m -1.5,-4 -2,2 2,2" transform="rotate(31.3116 90.6595 100.4417)"/>
  <line x1="73.9899" y1="70.4608" x2="71.6437" y2="50.6410" stroke="#7c03fe" stroke-width="1.0" />
  <rect
     style="fill:#ffffff;fill-opacity:1;fill-rule:nonzero;stroke:none"
     width="2"
     height="2"
     x="72.3168"
     y="59.5509"
     transform="rotate(263.2489 72.8168 60.5509)" /> 
  <path
     style="fill:none;stroke:#7c03fe;stroke-width:1px;stroke-linecap:butt;stroke-linejoin:miter;stroke-opacity:1"
     d="m 72.8168,58.5509 2,2 -2,2 m -2.370121,-4 2,2 -2,2"
     transform="rotate(263.2489 72.8168 60.5509)"/>
  <line x1="73.9964" y1="71.7108" x2="107.2228" y2="71.5377" stroke="#2d0032" stroke-width="1.0" />
  <line x1="73.9834" y1="69.2108" x2="107.2098" y2="69.0377" stroke="#2d0032" stroke-width="1.0" />
  <line x1="71.6437" y1="50.6410" x2="82.2361" y2="33.7169" stroke="#17000d" stroke-width="1.0" />
  <rect
     style="fill:#ffffff;fill-opacity:1;fill-rule:nonzero;stroke:none"
     width="2"
     height="2"
     x="76.4399"
     y="41.1790"
     transform="rotate(-57.9585 76.9399 42.1790)" /> 
  <path
     style="fill:none;stroke:#17000d;stroke-width:1px;stroke-linecap:butt;stroke-linejoin:miter;stroke-opacity:1"
     d="m 76.9399,40.1790 2,2 -2,2 m -2.370121,-4 2,2 -2,2"
     transform="rotate(-57.9585 76.9399 42.1790)"/>
  <line x1="71.6437" y1="50.6410" x2="107.2163" y2="70.2877" stroke="#d14c00" stroke-width="1.0" />
  <rect
     style="fill:#ffffff;stroke:none"
     width="5.5"
     height="2"
     x="86.6800"
     y="59.4643" 
     transform="rotate(28.9118 89.4300 60.4643)"    /> 
  <path
     style="fill:none;stroke:#d14c00;stroke-width:1px;stroke-linecap:butt;stroke-linejoin:miter;stroke-opacity:1"
    d="m 90.1800,58.4643 2,2 -2,2 m -1.5,-4 -2,2 2,2" transform="rotate(28.9118 89.4300 60.4643)"/>
  <line x1="102.2040" y1="34.3399" x2="113.0145" y2="51.1408" stroke="#c53700" stroke-width="1.0" />
  <rect
     style="fill:#ffffff;fill-opacity:1;fill-rule:nonzero;stroke:none"
     width="2"
     height="2"
     x="107.1093"
     y="41.7403"
     transform="rotate(237.2408 107.6093 42.7403)" /> 
  <path
     style="fill:none;stroke:#c53700;stroke-width:1px;stroke-linecap:butt;stroke-linejoin:miter;stroke-opacity:1"
     d="m 107.6093,40.7403 2,2 -2,2 m -2.370121,-4 2,2 -2,2"
     transform="rotate(237.2408 107.6093 42.7403)"/>
  <line x1="107.2163" y1="70.2877" x2="107.1989" y2="90.3703" stroke="#000000" stroke-width="1.0" />
  <rect
     style="fill:#ffffff;fill-opacity:1;fill-rule:nonzero;stroke:none"
     width="2"
     height="2"
     x="106.7076"
     y="79.3290"
     transform="rotate(90.0494 107.2076 80.3290)" /> 
  <path
     style="fill:none;stroke:#000000;stroke-width:1px;stroke-linecap:butt;stroke-linejoin:miter;stroke-opacity:1"
     d="m 107.2076,78.3290 2,2 -2,2 m -2.370121,-4 2,2 -2,2"
     transform="rotate(90.0494 107.2076 80.3290)"/>
  <line x1="107.1357" y1="110.4639" x2="106.9155" y2="130.5123" stroke="#000000" stroke-width="1.0" />
  <rect
     style="fill:#ffffff;fill-opacity:1;fill-rule:nonzero;stroke:none"
     width="2"
     height="2"
     x="106.5256"
     y="119.4881"
     transform="rotate(90.6295 107.0256 120.4881)" /> 
  <path
     style="fill:none;stroke:#000000;stroke-width:1px;stroke-linecap:butt;stroke-linejoin:miter;stroke-opacity:1"
     d="m 107.0256,118.4881 2,2 -2,2 m -2.370121,-4 2,2 -2,2"
     transform="rotate(90.6295 107.0256 120.4881)"/>
  <line x1="106.9155" y1="130.5123" x2="106.6560" y2="150.5343" stroke="#a31289" stroke-width="1.0" />
  <rect
     style="fill:#ffffff;fill-opacity:1;fill-rule:nonzero;stroke:none"
     width="2"
     height="2"
     x="106.2857"
     y="139.5233"
     transform="rotate(90.7426 106.7857 140.5233)" /> 
  <path
     style="fill:none;stroke:#a31289;stroke-width:1px;stroke-linecap:butt;stroke-linejoin:miter;stroke-opacity:1"
     d="m 106.7857,138.5233 2,2 -2,2 m -2.370121,-4 2,2 -2,2"
     transform="rotate(90.7426 106.7857 140.5233)"/>
<circle cx="73.6697" cy="150.3618" r="5.0" stroke="#595959" stroke-width="1.0" fill="#ffffff"/>
<text x="73.6697" y="153.0618" text-anchor="middle" font-family="Helvetica" font-size="7.5" fill="#000000" >G</text>
<circle cx="73.8660" cy="130.3634" r="5.0" stroke="#595959" stroke-width="1.0" fill="#ffffff"/>
<text x="73.8660" y="133.0634" text-anchor="middle" font-family="Helvetica" font-size="7.5" fill="#000000" >G</text>
<circle cx="74.0704" cy="110.3873" r="5.0" stroke="#595959" stroke-width="1.0" fill="#ffffff"/>
<text x="74.0704" y="113.0873" text-anchor="middle" font-family="Helvetica" font-size="7.5" fill="#000000" >C</text>
<circle cx="74.1833" cy="90.4194" r="5.0" stroke="#595959" stroke-width="1.0" fill="#ffffff"/>
<text x="74.1833" y="93.1194" text-anchor="middle" font-family="Helvetica" font-size="7.5" fill="#000000" >A</text>
<circle cx="73.9899" cy="70.4608" r="5.0" stroke="#595959" stroke-width="1.0" fill="#ffffff"/>
<text x="73.9899" y="73.1608" text-anchor="middle" font-family="Helvetica" font-size="7.5" fill="#000000" >C</text>
<circle cx="71.6437" cy="50.6410" r="5.0" stroke="#595959" stroke-width="1.0" fill="#ffffff"/>
<text x="71.6437" y="53.3410" text-anchor="middle" font-family="Helvetica" font-size="7.5" fill="#000000" >U</text>
<circle cx="82.2361" cy="33.7169" r="5.0" stroke="#595959" stroke-width="1.0" fill="#ffffff"/>
<text x="82.2361" y="36.4169" text-anchor="middle" font-family="Helvetica" font-size="7.5" fill="#000000" >U</text>
<circle cx="102.2040" cy="34.3399" r="5.0" stroke="#595959" stroke-width="1.0" fill="#ffffff"/>
<text x="102.2040" y="37.0399" text-anchor="middle" font-family="Helvetica" font-size="7.5" fill="#000000" >C</text>
<circle cx="113.0145" cy="51.1408" r="5.0" stroke="#595959" stroke-width="1.0" fill="#ffffff"/>
<text x="113.0145" y="53.8408" text-anchor="middle" font-family="Helvetica" font-size="7.5" fill="#000000" >G</text>
<circle cx="107.2163" cy="70.2877" r="5.0" stroke="#595959" stroke-width="1.0" fill="#ffffff"/>
<text x="107.2163" y="72.9877" text-anchor="middle" font-family="Helvetica" font-size="7.5" fill="#000000" >G</text>
<circle cx="107.1989" cy="90.3703" r="5.0" stroke="#595959" stroke-width="1.0" fill="#ffffff"/>
<text x="107.1989" y="93.0703" text-anchor="middle" font-family="Helvetica" font-size="7.5" fill="#000000" >U</text>
<circle cx="107.1357" cy="110.4639" r="5.0" stroke="#595959" stroke-width="1.0" fill="#ffffff"/>
<text x="107.1357" y="113.1639" text-anchor="middle" font-family="Helvetica" font-size="7.5" fill="#000000" >G</text>
<circle cx="106.9155" cy="130.5123" r="5.0" stroke="#595959" stroke-width="1.0" fill="#ffffff"/>
<text x="106.9155" y="133.2123" text-anchor="middle" font-family="Helvetica" font-size="7.5" fill="#000000" >C</text>
<circle cx="106.6560" cy="150.5343" r="5.0" stroke="#595959" stroke-width="1.0" fill="#ffffff"/>
<text x="106.6560" y="153.2343" text-anchor="middle" font-family="Helvetica" font-size="7.5" fill="#000000" >C</text>
</svg>