<?xml version="1.0" encoding="UTF-8"?>
<!DOCTYPE svg PUBLIC "-//W3C//DTD SVG 1.1//EN" 
"http://www.w3.org/Graphics/SVG/1.1/DTD/svg11.dtd">

<svg version="1.1"
   width="308px"
   height="308px"
xmlns="http://www.w3.org/2000/svg">
    <rect width="100%" height="100%" fill="white"/>

  <line x1="136.2944" y1="217.6894" x2="136.8018" y2="197.6980" stroke="#595959"
     style="stroke-width:2;stroke-miterlimit:4;stroke-dasharray:1,1;stroke-dashoffset:0" />
  <line x1="134.9452" y1="76.2108" x2="139.8634" y2="56.6807" stroke="#595959"
     style="stroke-width:2;stroke-miterlimit:4;stroke-dasharray:1,1;stroke-dashoffset:0" />
  <line x1="139.8634" y1="56.6807" x2="159.7714" y2="55.0511" stroke="#595959"
     style="stroke-width:2;stroke-miterlimit:4;stroke-dasharray:1,1;stroke-dashoffset:0" />
  <line x1="159.7714" y1="55.0511" x2="167.8267" y2="73.9251" stroke="#595959"
     style="stroke-width:2;stroke-miterlimit:4;stroke-dasharray:1,1;stroke-dashoffset:0" />
  <line x1="167.8267" y1="73.9251" x2="185.2723" y2="83.4319" stroke="#595959"
     style="stroke-width:2;stroke-miterlimit:4;stroke-dasharray:1,1;stroke-dashoffset:0" />
  <line x1="185.2723" y1="83.4319" x2="169.0980" y2="95.2764" stroke="#595959"
     style="stroke-width:2;stroke-miterlimit:4;stroke-dasharray:1,1;stroke-dashoffset:0" />
  <line x1="169.5841" y1="198.4007" x2="168.9813" y2="218.4186" stroke="#595959"
     style="stroke-width:2;stroke-miterlimit:4;stroke-dasharray:1,1;stroke-dashoffset:0" />
  <line x1="137.4930" y1="157.6940" x2="170.4446" y2="157.8991" stroke="#e68800" stroke-width="1.0" />
  <circle cx="153.9688" cy="157.7965" r="2.25" stroke="#e68800" stroke-width="1.0" fill="#e68800"/>
  <line x1="137.4425" y1="139.2421" x2="170.4113" y2="138.8320" stroke="#eb9d00" stroke-width="1.0" />
  <circle cx="153.9269" cy="139.0371" r="2.25" stroke="#eb9d00" stroke-width="1.0" fill="#eb9d00"/>
  <line x1="134.9452" y1="76.2108" x2="167.8267" y2="73.9251" stroke="#000000" stroke-width="1.0" />
  <path d="M 145.6359 77.3180 L 145.6359 72.8180 L 150.1359 72.8180 L 150.1359 77.3180 z" style="stroke:#000000;stroke-width:1.0" fill="#000000" 
    transform="rotate(176.0237 151.3859 75.0680)"/>
  <path d="M 153.1359 77.3180 L 153.1359 72.8180 L 157.1359 75.0680 z" style="stroke:#000000;stroke-width:1.0" fill="#000000"
    transform="rotate(176.0237 151.3859 75.0680)"/>
  <line x1="135.2884" y1="257.6665" x2="135.7536" y2="237.6764" stroke="#c73900" stroke-width="1.0" />
  <rect
     style="fill:#ffffff;fill-opacity:1;fill-rule:nonzero;stroke:none"
     width="2"
     height="2"
     x="135.0210"
     y="246.6714"
     transform="rotate(-88.6670 135.5210 247.6714)" /> 
  <path
     style="fill:none;stroke:#c73900;stroke-width:1px;stroke-linecap:butt;stroke-linejoin:miter;stroke-opacity:1"
     d="m 135.5210,245.6714 2,2 -2,2 m -2.370121,-4 2,2 -2,2"
     transform="rotate(-88.6670 135.5210 247.6714)"/>
  <line x1="135.2600" y1="258.9161" x2="167.8711" y2="259.6581" stroke="#33003e" stroke-width="1.0" />
  <line x1="135.3169" y1="256.4168" x2="167.9280" y2="257.1587" stroke="#33003e" stroke-width="1.0" />
  <line x1="135.7536" y1="237.6764" x2="136.2944" y2="217.6894" stroke="#000000" stroke-width="1.0" />
  <rect
     style="fill:#ffffff;fill-opacity:1;fill-rule:nonzero;stroke:none"
     width="2"
     height="2"
     x="135.5240"
     y="226.6829"
     transform="rotate(-88.4500 136.0240 227.6829)" /> 
  <path
     style="fill:none;stroke:#000000;stroke-width:1px;stroke-linecap:butt;stroke-linejoin:miter;stroke-opacity:1"
     d="m 136.0240,225.6829 2,2 -2,2 m -2.370121,-4 2,2 -2,2"
     transform="rotate(-88.4500 136.0240 227.6829)"/>
  <line x1="135.7253" y1="238.9261" x2="168.3764" y2="239.6642" stroke="#2d0032" stroke-width="1.0" />
  <line x1="135.7818" y1="236.4267" x2="168.4329" y2="237.1648" stroke="#2d0032" stroke-width="1.0" />
  <line x1="135.7536" y1="237.6764" x2="167.8996" y2="258.4084" stroke="#e89000" stroke-width="1.0" />
  <rect
     style="fill:#ffffff;stroke:none"
     width="5.5"
     height="2"
     x="149.0766"
     y="247.0424" 
     transform="rotate(32.8193 151.8266 248.0424)"    /> 
  <path
     style="fill:none;stroke:#e89000;stroke-width:1px;stroke-linecap:butt;stroke-linejoin:miter;stroke-opacity:1"
    d="m 152.5766,246.0424 2,2 -2,2 m -1.5,-4 -2,2 2,2" transform="rotate(32.8193 151.8266 248.0424)"/>
  <line x1="136.2665" y1="218.9391" x2="168.9534" y2="219.6683" stroke="#17000d" stroke-width="1.0" />
  <line x1="136.3223" y1="216.4397" x2="169.0092" y2="217.1689" stroke="#17000d" stroke-width="1.0" />
  <line x1="136.8018" y1="197.6980" x2="137.2365" y2="177.7016" stroke="#9e0fa8" stroke-width="1.0" />
  <rect
     style="fill:#ffffff;fill-opacity:1;fill-rule:nonzero;stroke:none"
     width="2"
     height="2"
     x="136.5191"
     y="186.6998"
     transform="rotate(-88.7546 137.0191 187.6998)" /> 
  <path
     style="fill:none;stroke:#9e0fa8;stroke-width:1px;stroke-linecap:butt;stroke-linejoin:miter;stroke-opacity:1"
     d="m 137.0191,185.6998 2,2 -2,2 m -2.370121,-4 2,2 -2,2"
     transform="rotate(-88.7546 137.0191 187.6998)"/>
  <line x1="136.8018" y1="197.6980" x2="169.5841" y2="198.4007" stroke="#4b0084" stroke-width="1.0" />
  <line x1="136.8018" y1="197.6980" x2="168.9813" y2="218.4186" stroke="#270026" stroke-width="1.0" />
  <rect
     style="fill:#ffffff;stroke:none"
     width="5.5"
     height="2"
     x="150.1415"
     y="207.0583" 
     transform="rotate(32.7778 152.8915 208.0583)"    /> 
  <path
     style="fill:none;stroke:#270026;stroke-width:1px;stroke-linecap:butt;stroke-linejoin:miter;stroke-opacity:1"
    d="m 153.6415,206.0583 2,2 -2,2 m -1.5,-4 -2,2 2,2" transform="rotate(32.7778 152.8915 208.0583)"/>
  <line x1="137.2365" y1="177.7016" x2="137.4930" y2="157.6940" stroke="#9309df" stroke-width="1.0" />
  <rect
     style="fill:#ffffff;fill-opacity:1;fill-rule:nonzero;stroke:none"
     width="2"
     height="2"
     x="136.8647"
     y="166.6978"
     transform="rotate(-89.2655 137.3647 167.6978)" /> 
  <path
     style="fill:none;stroke:#9309df;stroke-width:1px;stroke-linecap:butt;stroke-linejoin:miter;stroke-opacity:1"
     d="m 137.3647,165.6978 2,2 -2,2 m -2.370121,-4 2,2 -2,2"
     transform="rotate(-89.2655 137.3647 167.6978)"/>
  <line x1="137.2150" y1="178.9514" x2="170.0982" y2="179.5175" stroke="#6001c6" stroke-width="1.0" />
  <line x1="137.2580" y1="176.4518" x2="170.1412" y2="177.0179" stroke="#6001c6" stroke-width="1.0" />
  <line x1="137.4930" y1="157.6940" x2="137.4225" y2="137.6423" stroke="#a0109e" stroke-width="1.0" />
  <rect
     style="fill:#ffffff;fill-opacity:1;fill-rule:nonzero;stroke:none"
     width="2"
     height="2"
     x="136.9578"
     y="146.6681"
     transform="rotate(269.7987 137.4578 147.6681)" /> 
  <path
     style="fill:none;stroke:#a0109e;stroke-width:1px;stroke-linecap:butt;stroke-linejoin:miter;stroke-opacity:1"
     d="m 137.4578,145.6681 2,2 -2,2 m -2.370121,-4 2,2 -2,2"
     transform="rotate(269.7987 137.4578 147.6681)"/>
  <line x1="137.4225" y1="137.6423" x2="136.9967" y2="117.3640" stroke="#9109e5" stroke-width="1.0" />
  <rect
     style="fill:#ffffff;fill-opacity:1;fill-rule:nonzero;stroke:none"
     width="2"
     height="2"
     x="136.7096"
     y="126.5032"
     transform="rotate(268.7968 137.2096 127.5032)" /> 
  <path
     style="fill:none;stroke:#9109e5;stroke-width:1px;stroke-linecap:butt;stroke-linejoin:miter;stroke-opacity:1"
     d="m 137.2096,125.5032 2,2 -2,2 m -2.370121,-4 2,2 -2,2"
     transform="rotate(268.7968 137.2096 127.5032)"/>
  <line x1="137.4026" y1="136.0424" x2="170.3715" y2="135.6322" stroke="#7302f5" stroke-width="1.0" />
  <line x1="136.9967" y1="117.3640" x2="136.1777" y2="96.9052" stroke="#8a06f6" stroke-width="1.0" />
  <rect
     style="fill:#ffffff;fill-opacity:1;fill-rule:nonzero;stroke:none"
     width="2"
     height="2"
     x="136.0872"
     y="106.1346"
     transform="rotate(267.7078 136.5872 107.1346)" /> 
  <path
     style="fill:none;stroke:#8a06f6;stroke-width:1px;stroke-linecap:butt;stroke-linejoin:miter;stroke-opacity:1"
     d="m 136.5872,105.1346 2,2 -2,2 m -2.370121,-4 2,2 -2,2"
     transform="rotate(267.7078 136.5872 107.1346)"/>
  <line x1="137.0353" y1="118.6134" x2="169.9718" y2="117.5950" stroke="#37004b" stroke-width="1.0" />
  <line x1="136.9580" y1="116.1146" x2="169.8945" y2="115.0962" stroke="#37004b" stroke-width="1.0" />
  <line x1="136.9967" y1="117.3640" x2="170.3914" y2="137.2321" stroke="#f1b400" stroke-width="1.0" />
  <rect
     style="fill:#ffffff;stroke:none"
     width="5.5"
     height="2"
     x="150.9440"
     y="126.2981" 
     transform="rotate(30.7503 153.6940 127.2981)"    /> 
  <path
     style="fill:none;stroke:#f1b400;stroke-width:1px;stroke-linecap:butt;stroke-linejoin:miter;stroke-opacity:1"
    d="m 154.4440,125.2981 2,2 -2,2 m -1.5,-4 -2,2 2,2" transform="rotate(30.7503 153.6940 127.2981)"/>
  <line x1="136.1777" y1="96.9052" x2="134.9452" y2="76.2108" stroke="#33003e" stroke-width="1.0" />
  <rect
     style="fill:#ffffff;fill-opacity:1;fill-rule:nonzero;stroke:none"
     width="2"
     height="2"
     x="135.0615"
     y="85.5580"
     transform="rotate(266.5915 135.5615 86.5580)" /> 
  <path
     style="fill:none;stroke:#33003e;stroke-width:1px;stroke-linecap:butt;stroke-linejoin:miter;stroke-opacity:1"
     d="m 135.5615,84.5580 2,2 -2,2 m -2.370121,-4 2,2 -2,2"
     transform="rotate(266.5915 135.5615 86.5580)"/>
  <line x1="136.1777" y1="96.9052" x2="169.0980" y2="95.2764" stroke="#2d0032" stroke-width="1.0" />
  <line x1="167.8267" y1="73.9251" x2="169.0980" y2="95.2764" stroke="#520099" stroke-width="1.0" />
  <rect
     style="fill:#ffffff;fill-opacity:1;fill-rule:nonzero;stroke:none"
     width="2"
     height="2"
     x="167.9623"
     y="83.6008"
     transform="rotate(86.5925 168.4623 84.6008)" /> 
  <path
     style="fill:none;stroke:#520099;stroke-width:1px;stroke-linecap:butt;stroke-linejoin:miter;stroke-opacity:1"
     d="m 168.4623,82.6008 2,2 -2,2 m -2.370121,-4 2,2 -2,2"
     transform="rotate(86.5925 168.4623 84.6008)"/>
  <line x1="169.0980" y1="95.2764" x2="169.9331" y2="116.3456" stroke="#980bca" stroke-width="1.0" />
  <rect
     style="fill:#ffffff;fill-opacity:1;fill-rule:nonzero;stroke:none"
     width="2"
     height="2"
     x="169.0156"
     y="104.8110"
     transform="rotate(87.7300 169.5156 105.8110)" /> 
  <path
     style="fill:none;stroke:#980bca;stroke-width:1px;stroke-linecap:butt;stroke-linejoin:miter;stroke-opacity:1"
     d="m 169.5156,103.8110 2,2 -2,2 m -2.370121,-4 2,2 -2,2"
     transform="rotate(87.7300 169.5156 105.8110)"/>
  <line x1="169.9331" y1="116.3456" x2="170.3914" y2="137.2321" stroke="#a9165c" stroke-width="1.0" />
  <rect
     style="fill:#ffffff;fill-opacity:1;fill-rule:nonzero;stroke:none"
     width="2"
     height="2"
     x="169.6623"
     y="125.7889"
     transform="rotate(88.7430 170.1623 126.7889)" /> 
  <path
     style="fill:none;stroke:#a9165c;stroke-width:1px;stroke-linecap:butt;stroke-linejoin:miter;stroke-opacity:1"
     d="m 170.1623,124.7889 2,2 -2,2 m -2.370121,-4 2,2 -2,2"
     transform="rotate(88.7430 170.1623 126.7889)"/>
  <line x1="170.3914" y1="137.2321" x2="170.4446" y2="157.8991" stroke="#9b0dba" stroke-width="1.0" />
  <rect
     style="fill:#ffffff;fill-opacity:1;fill-rule:nonzero;stroke:none"
     width="2"
     height="2"
     x="169.9180"
     y="146.5656"
     transform="rotate(89.8527 170.4180 147.5656)" /> 
  <path
     style="fill:none;stroke:#9b0dba;stroke-width:1px;stroke-linecap:butt;stroke-linejoin:miter;stroke-opacity:1"
     d="m 170.4180,145.5656 2,2 -2,2 m -2.370121,-4 2,2 -2,2"
     transform="rotate(89.8527 170.4180 147.5656)"/>
  <line x1="170.4446" y1="157.8991" x2="170.1197" y2="178.2677" stroke="#c02e00" stroke-width="1.0" />
  <rect
     style="fill:#ffffff;fill-opacity:1;fill-rule:nonzero;stroke:none"
     width="2"
     height="2"
     x="169.7822"
     y="167.0834"
     transform="rotate(90.9137 170.2822 168.0834)" /> 
  <path
     style="fill:none;stroke:#c02e00;stroke-width:1px;stroke-linecap:butt;stroke-linejoin:miter;stroke-opacity:1"
     d="m 170.2822,166.0834 2,2 -2,2 m -2.370121,-4 2,2 -2,2"
     transform="rotate(90.9137 170.2822 168.0834)"/>
  <line x1="170.1197" y1="178.2677" x2="169.5841" y2="198.4007" stroke="#a31289" stroke-width="1.0" />
  <rect
     style="fill:#ffffff;fill-opacity:1;fill-rule:nonzero;stroke:none"
     width="2"
     height="2"
     x="169.3519"
     y="187.3342"
     transform="rotate(91.5240 169.8519 188.3342)" /> 
  <path
     style="fill:none;stroke:#a31289;stroke-width:1px;stroke-linecap:butt;stroke-linejoin:miter;stroke-opacity:1"
     d="m 169.8519,186.3342 2,2 -2,2 m -2.370121,-4 2,2 -2,2"
     transform="rotate(91.5240 169.8519 188.3342)"/>
  <line x1="168.9813" y1="218.4186" x2="168.4047" y2="238.4145" stroke="#000000" stroke-width="1.0" />
  <rect
     style="fill:#ffffff;fill-opacity:1;fill-rule:nonzero;stroke:none"
     width="2"
     height="2"
     x="168.1930"
     y="227.4165"
     transform="rotate(91.6518 168.6930 228.4165)" /> 
  <path
     style="fill:none;stroke:#000000;stroke-width:1px;stroke-linecap:butt;stroke-linejoin:miter;stroke-opacity:1"
     d="m 168.6930,226.4165 2,2 -2,2 m -2.370121,-4 2,2 -2,2"
     transform="rotate(91.6518 168.6930 228.4165)"/>
  <line x1="168.4047" y1="238.4145" x2="167.8996" y2="258.4084" stroke="#980bca" stroke-width="1.0" />
  <rect
     style="fill:#ffffff;fill-opacity:1;fill-rule:nonzero;stroke:none"
     width="2"
     height="2"
     x="167.6521"
     y="247.4114"
     transform="rotate(91.4472 168.1521 248.4114)" /> 
  <path
     style="fill:none;stroke:#980bca;stroke-width:1px;stroke-linecap:butt;stroke-linejoin:miter;stroke-opacity:1"
     d="m 168.1521,246.4114 2,2 -2,2 m -2.370121,-4 2,2 -2,2"
     transform="rotate(91.4472 168.1521 248.4114)"/>
<circle cx="135.2884" cy="257.6665" r="5.0" stroke="#595959" stroke-width="1.0" fill="#ffffff"/>
<text x="135.2884" y="260.3665" text-anchor="middle" font-family="Helvetica" font-size="7.5" fill="#000000" >G</text>
<circle cx="135.7536" cy="237.6764" r="5.0" stroke="#595959" stroke-width="1.0" fill="#ffffff"/>
<text x="135.7536" y="240.3764" text-anchor="middle" font-family="Helvetica" font-size="7.5" fill="#000000" >G</text>
<circle cx="136.2944" cy="217.6894" r="5.0" stroke="#595959" stroke-width="1.0" fill="#ffffff"/>
<text x="136.2944" y="220.3894" text-anchor="middle" font-family="Helvetica" font-size="7.5" fill="#000000" >C</text>
<circle cx="136.8018" cy="197.6980" r="5.0" stroke="#595959" stroke-width="1.0" fill="#ffffff"/>
<text x="136.8018" y="200.3980" text-anchor="middle" font-family="Helvetica" font-size="7.5" fill="#000000" >A</text>
<circle cx="137.2365" cy="177.7016" r="5.0" stroke="#595959" stroke-width="1.0" fill="#ffffff"/>
<text x="137.2365" y="180.4016" text-anchor="middle" font-family="Helvetica" font-size="7.5" fill="#000000" >G</text>
<circle cx="137.4930" cy="157.6940" r="5.0" stroke="#595959" stroke-width="1.0" fill="#ffffff"/>
<text x="137.4930" y="160.3940" text-anchor="middle" font-family="Helvetica" font-size="7.5" fill="#000000" >A</text>
<circle cx="137.4225" cy="137.6423" r="5.0" stroke="#595959" stroke-width="1.0" fill="#ffffff"/>
<text x="137.4225" y="140.3423" text-anchor="middle" font-family="Helvetica" font-size="7.5" fill="#000000" >U</text>
<circle cx="136.9967" cy="117.3640" r="5.0" stroke="#595959" stroke-width="1.0" fill="#ffffff"/>
<text x="136.9967" y="120.0640" text-anchor="middle" font-family="Helvetica" font-size="7.5" fill="#000000" >C</text>
<circle cx="136.1777" cy="96.9052" r="5.0" stroke="#595959" stroke-width="1.0" fill="#ffffff"/>
<text x="136.1777" y="99.6052" text-anchor="middle" font-family="Helvetica" font-size="7.5" fill="#000000" >U</text>
<circle cx="134.9452" cy="76.2108" r="5.0" stroke="#595959" stroke-width="1.0" fill="#ffffff"/>
<text x="134.9452" y="78.9108" text-anchor="middle" font-family="Helvetica" font-size="7.5" fill="#000000" >G</text>
<circle cx="139.8634" cy="56.6807" r="5.0" stroke="#595959" stroke-width="1.0" fill="#ffffff"/>
<text x="139.8634" y="59.3807" text-anchor="middle" font-family="Helvetica" font-size="7.5" fill="#000000" >U</text>
<circle cx="159.7714" cy="55.0511" r="5.0" stroke="#595959" stroke-width="1.0" fill="#ffffff"/>
<text x="159.7714" y="57.7511" text-anchor="middle" font-family="Helvetica" font-size="7.5" fill="#000000" >A</text>
<circle cx="167.8267" cy="73.9251" r="5.0" stroke="#595959" stroke-width="1.0" fill="#ffffff"/>
<text x="167.8267" y="76.6251" text-anchor="middle" font-family="Helvetica" font-size="7.5" fill="#000000" >A</text>
<circle cx="185.2723" cy="83.4319" r="5.0" stroke="#595959" stroke-width="1.0" fill="#ffffff"/>
<text x="185.2723" y="86.1319" text-anchor="middle" font-family="Helvetica" font-size="7.5" fill="#000000" >U</text>
<circle cx="169.0980" cy="95.2764" r="5.0" stroke="#595959" stroke-width="1.0" fill="#ffffff"/>
<text x="169.0980" y="97.9764" text-anchor="middle" font-family="Helvetica" font-size="7.5" fill="#000000" >A</text>
<circle cx="169.9331" cy="116.3456" r="5.0" stroke="#595959" stroke-width="1.0" fill="#ffffff"/>
<text x="169.9331" y="119.0456" text-anchor="middle" font-family="Helvetica" font-size="7.5" fill="#000000" >G</text>
<circle cx="170.3914" cy="137.2321" r="5.0" stroke="#595959" stroke-width="1.0" fill="#ffffff"/>
<text x="170.3914" y="139.9321" text-anchor="middle" font-family="Helvetica" font-size="7.5" fill="#000000" >A</text>
<circle cx="170.4446" cy="157.8991" r="5.0" stroke="#595959" stroke-width="1.0" fill="#ffffff"/>
<text x="170.4446" y="160.5991" text-anchor="middle" font-family="Helvetica" font-size="7.5" fill="#000000" >A</text>
<circle cx="170.1197" cy="178.2677" r="5.0" stroke="#595959" stroke-width="1.0" fill="#ffffff"/>
<text x="170.1197" y="180.9677" text-anchor="middle" font-family="Helvetica" font-size="7.5" fill="#000000" >C</text>
<circle cx="169.5841" cy="198.4007" r="5.0" stroke="#595959" stroke-width="1.0" fill="#ffffff"/>
<text x="169.5841" y="201.1007" text-anchor="middle" font-family="Helvetica" font-size="7.5" fill="#000000" >U</text>
<circle cx="168.9813" cy="218.4186" r="5.0" stroke="#595959" stroke-width="1.0" fill="#ffffff"/>
<text x="168.9813" y="221.1186" text-anchor="middle" font-family="Helvetica" font-size="7.5" fill="#000000" >G</text>
<circle cx="168.4047" cy="238.4145" r="5.0" stroke="#595959" stroke-width="1.0" fill="#ffffff"/>
<text x="168.4047" y="241.1145" text-anchor="middle" font-family="Helvetica" font-size="7.5" fill="#000000" >C</text>
<circle cx="167.8996" cy="258.4084" r="5.0" stroke="#595959" stroke-width="1.0" fill="#ffffff"/>
<text x="167.8996" y="261.1084" text-anchor="middle" font-family="Helvetica" font-size="7.5" fill="#000000" >C</text>
</svg>