<?xml version="1.0" encoding="UTF-8"?>
<!DOCTYPE svg PUBLIC "-//W3C//DTD SVG 1.1//EN" 
"http://www.w3.org/Graphics/SVG/1.1/DTD/svg11.dtd">

<svg version="1.1"
   width="182px"
   height="182px"
xmlns="http://www.w3.org/2000/svg">
    <rect width="100%" height="100%" fill="white"/>

  <line x1="73.7299" y1="110.3712" x2="73.9382" y2="90.4252" stroke="#595959"
     style="stroke-width:2;stroke-miterlimit:4;stroke-dasharray:1,1;stroke-dashoffset:0" />
  <line x1="73.7781" y1="70.4807" x2="73.7742" y2="50.5492" stroke="#595959"
     style="stroke-width:2;stroke-miterlimit:4;stroke-dasharray:1,1;stroke-dashoffset:0" />
  <line x1="83.3561" y1="33.0405" x2="103.2960" y2="34.1845" stroke="#595959"
     style="stroke-width:2;stroke-miterlimit:4;stroke-dasharray:1,1;stroke-dashoffset:0" />
  <line x1="103.2960" y1="34.1845" x2="113.3887" y2="51.4271" stroke="#595959"
     style="stroke-width:2;stroke-miterlimit:4;stroke-dasharray:1,1;stroke-dashoffset:0" />
  <line x1="113.3887" y1="51.4271" x2="106.6282" y2="70.2833" stroke="#595959"
     style="stroke-width:2;stroke-miterlimit:4;stroke-dasharray:1,1;stroke-dashoffset:0" />
  <line x1="106.7731" y1="90.4651" x2="106.6765" y2="110.6257" stroke="#595959"
     style="stroke-width:2;stroke-miterlimit:4;stroke-dasharray:1,1;stroke-dashoffset:0" />
  <line x1="73.0082" y1="150.3258" x2="73.3966" y2="130.3466" stroke="#d75b00" stroke-width="1.0" />
  <rect
     style="fill:#ffffff;fill-opacity:1;fill-rule:nonzero;stroke:none"
     width="2"
     height="2"
     x="72.7024"
     y="139.3362"
     transform="rotate(-88.8864 73.2024 140.3362)" /> 
  <path
     style="fill:none;stroke:#d75b00;stroke-width:1px;stroke-linecap:butt;stroke-linejoin:miter;stroke-opacity:1"
     d="m 73.2024,138.3362 2,2 -2,2 m -2.370121,-4 2,2 -2,2"
     transform="rotate(-88.8864 73.2024 140.3362)"/>
  <line x1="72.9918" y1="151.5756" x2="105.9004" y2="152.0071" stroke="#2d0032" stroke-width="1.0" />
  <line x1="73.0246" y1="149.0759" x2="105.9332" y2="149.5073" stroke="#2d0032" stroke-width="1.0" />
  <line x1="73.3966" y1="130.3466" x2="73.7299" y2="110.3712" stroke="#000000" stroke-width="1.0" />
  <rect
     style="fill:#ffffff;fill-opacity:1;fill-rule:nonzero;stroke:none"
     width="2"
     height="2"
     x="73.0632"
     y="119.3589"
     transform="rotate(-89.0441 73.5632 120.3589)" /> 
  <path
     style="fill:none;stroke:#000000;stroke-width:1px;stroke-linecap:butt;stroke-linejoin:miter;stroke-opacity:1"
     d="m 73.5632,118.3589 2,2 -2,2 m -2.370121,-4 2,2 -2,2"
     transform="rotate(-89.0441 73.5632 120.3589)"/>
  <line x1="73.3825" y1="131.5965" x2="106.3254" y2="131.9677" stroke="#200019" stroke-width="1.0" />
  <line x1="73.4106" y1="129.0967" x2="106.3535" y2="129.4679" stroke="#200019" stroke-width="1.0" />
  <line x1="73.3966" y1="130.3466" x2="105.9168" y2="150.7572" stroke="#e99400" stroke-width="1.0" />
  <rect
     style="fill:#ffffff;stroke:none"
     width="5.5"
     height="2"
     x="86.9067"
     y="139.5519" 
     transform="rotate(32.1135 89.6567 140.5519)"    /> 
  <path
     style="fill:none;stroke:#e99400;stroke-width:1px;stroke-linecap:butt;stroke-linejoin:miter;stroke-opacity:1"
    d="m 90.4067,138.5519 2,2 -2,2 m -1.5,-4 -2,2 2,2" transform="rotate(32.1135 89.6567 140.5519)"/>
  <line x1="73.7202" y1="111.6212" x2="106.6668" y2="111.8756" stroke="#270026" stroke-width="1.0" />
  <line x1="73.7395" y1="109.1213" x2="106.6861" y2="109.3757" stroke="#270026" stroke-width="1.0" />
  <line x1="73.9382" y1="90.4252" x2="73.7781" y2="70.4807" stroke="#000000" stroke-width="1.0" />
  <rect
     style="fill:#ffffff;fill-opacity:1;fill-rule:nonzero;stroke:none"
     width="2"
     height="2"
     x="73.3582"
     y="79.4530"
     transform="rotate(269.5402 73.8582 80.4530)" /> 
  <path
     style="fill:none;stroke:#000000;stroke-width:1px;stroke-linecap:butt;stroke-linejoin:miter;stroke-opacity:1"
     d="m 73.8582,78.4530 2,2 -2,2 m -2.370121,-4 2,2 -2,2"
     transform="rotate(269.5402 73.8582 80.4530)"/>
  <line x1="73.9367" y1="91.6752" x2="106.7716" y2="91.7151" stroke="#270026" stroke-width="1.0" />
  <line x1="73.9397" y1="89.1752" x2="106.7746" y2="89.2151" stroke="#270026" stroke-width="1.0" />
  <line x1="73.9382" y1="90.4252" x2="106.6765" y2="110.6257" stroke="#200019" stroke-width="1.0" />
  <rect
     style="fill:#ffffff;stroke:none"
     width="5.5"
     height="2"
     x="87.5573"
     y="99.5254" 
     transform="rotate(31.6758 90.3073 100.5254)"    /> 
  <path
     style="fill:none;stroke:#200019;stroke-width:1px;stroke-linecap:butt;stroke-linejoin:miter;stroke-opacity:1"
    d="m 91.0573,98.5254 2,2 -2,2 m -1.5,-4 -2,2 2,2" transform="rotate(31.6758 90.3073 100.5254)"/>
  <line x1="73.7856" y1="71.7307" x2="106.6357" y2="71.5333" stroke="#17000d" stroke-width="1.0" />
  <line x1="73.7706" y1="69.2307" x2="106.6207" y2="69.0334" stroke="#17000d" stroke-width="1.0" />
  <line x1="73.7742" y1="50.5492" x2="83.3561" y2="33.0405" stroke="#000000" stroke-width="1.0" />
  <rect
     style="fill:#ffffff;fill-opacity:1;fill-rule:nonzero;stroke:none"
     width="2"
     height="2"
     x="78.0651"
     y="40.7949"
     transform="rotate(-61.3096 78.5651 41.7949)" /> 
  <path
     style="fill:none;stroke:#000000;stroke-width:1px;stroke-linecap:butt;stroke-linejoin:miter;stroke-opacity:1"
     d="m 78.5651,39.7949 2,2 -2,2 m -2.370121,-4 2,2 -2,2"
     transform="rotate(-61.3096 78.5651 41.7949)"/>
  <line x1="73.7742" y1="50.5492" x2="106.6282" y2="70.2833" stroke="#8204ff" stroke-width="1.0" />
  <rect
     style="fill:#ffffff;stroke:none"
     width="5.5"
     height="2"
     x="87.4512"
     y="59.4163" 
     transform="rotate(30.9917 90.2012 60.4163)"    /> 
  <path
     style="fill:none;stroke:#8204ff;stroke-width:1px;stroke-linecap:butt;stroke-linejoin:miter;stroke-opacity:1"
    d="m 90.9512,58.4163 2,2 -2,2 m -1.5,-4 -2,2 2,2" transform="rotate(30.9917 90.2012 60.4163)"/>
  <line x1="106.6282" y1="70.2833" x2="106.7731" y2="90.4651" stroke="#000000" stroke-width="1.0" />
  <rect
     style="fill:#ffffff;fill-opacity:1;fill-rule:nonzero;stroke:none"
     width="2"
     height="2"
     x="106.2007"
     y="79.3742"
     transform="rotate(89.5887 106.7007 80.3742)" /> 
  <path
     style="fill:none;stroke:#000000;stroke-width:1px;stroke-linecap:butt;stroke-linejoin:miter;stroke-opacity:1"
     d="m 106.7007,78.3742 2,2 -2,2 m -2.370121,-4 2,2 -2,2"
     transform="rotate(89.5887 106.7007 80.3742)"/>
  <line x1="106.6765" y1="110.6257" x2="106.3394" y2="130.7178" stroke="#000000" stroke-width="1.0" />
  <rect
     style="fill:#ffffff;fill-opacity:1;fill-rule:nonzero;stroke:none"
     width="2"
     height="2"
     x="106.0080"
     y="119.6717"
     transform="rotate(90.9611 106.5080 120.6717)" /> 
  <path
     style="fill:none;stroke:#000000;stroke-width:1px;stroke-linecap:butt;stroke-linejoin:miter;stroke-opacity:1"
     d="m 106.5080,118.6717 2,2 -2,2 m -2.370121,-4 2,2 -2,2"
     transform="rotate(90.9611 106.5080 120.6717)"/>
  <line x1="106.3394" y1="130.7178" x2="105.9168" y2="150.7572" stroke="#a0109e" stroke-width="1.0" />
  <rect
     style="fill:#ffffff;fill-opacity:1;fill-rule:nonzero;stroke:none"
     width="2"
     height="2"
     x="105.6281"
     y="139.7375"
     transform="rotate(91.2082 106.1281 140.7375)" /> 
  <path
     style="fill:none;stroke:#a0109e;stroke-width:1px;stroke-linecap:butt;stroke-linejoin:miter;stroke-opacity:1"
     d="m 106.1281,138.7375 2,2 -2,2 m -2.370121,-4 2,2 -2,2"
     transform="rotate(91.2082 106.1281 140.7375)"/>
<circle cx="73.0082" cy="150.3258" r="5.0" stroke="#595959" stroke-width="1.0" fill="#ffffff"/>
<text x="73.0082" y="153.0258" text-anchor="middle" font-family="Helvetica" font-size="7.5" fill="#000000" >G</text>
<circle cx="73.3966" cy="130.3466" r="5.0" stroke="#595959" stroke-width="1.0" fill="#ffffff"/>
<text x="73.3966" y="133.0466" text-anchor="middle" font-family="Helvetica" font-size="7.5" fill="#000000" >G</text>
<circle cx="73.7299" cy="110.3712" r="5.0" stroke="#595959" stroke-width="1.0" fill="#ffffff"/>
<text x="73.7299" y="113.0712" text-anchor="middle" font-family="Helvetica" font-size="7.5" fill="#000000" >C</text>
<circle cx="73.9382" cy="90.4252" r="5.0" stroke="#595959" stroke-width="1.0" fill="#ffffff"/>
<text x="73.9382" y="93.1252" text-anchor="middle" font-family="Helvetica" font-size="7.5" fill="#000000" >G</text>
<circle cx="73.7781" cy="70.4807" r="5.0" stroke="#595959" stroke-width="1.0" fill="#ffffff"/>
<text x="73.7781" y="73.1807" text-anchor="middle" font-family="Helvetica" font-size="7.5" fill="#000000" >C</text>
<circle cx="73.7742" cy="50.5492" r="5.0" stroke="#595959" stroke-width="1.0" fill="#ffffff"/>
<text x="73.7742" y="53.2492" text-anchor="middle" font-family="Helvetica" font-size="7.5" fill="#000000" >A</text>
<circle cx="83.3561" cy="33.0405" r="5.0" stroke="#595959" stroke-width="1.0" fill="#ffffff"/>
<text x="83.3561" y="35.7405" text-anchor="middle" font-family="Helvetica" font-size="7.5" fill="#000000" >U</text>
<circle cx="103.2960" cy="34.1845" r="5.0" stroke="#595959" stroke-width="1.0" fill="#ffffff"/>
<text x="103.2960" y="36.8845" text-anchor="middle" font-family="Helvetica" font-size="7.5" fill="#000000" >C</text>
<circle cx="113.3887" cy="51.4271" r="5.0" stroke="#595959" stroke-width="1.0" fill="#ffffff"/>
<text x="113.3887" y="54.1271" text-anchor="middle" font-family="Helvetica" font-size="7.5" fill="#000000" >G</text>
<circle cx="106.6282" cy="70.2833" r="5.0" stroke="#595959" stroke-width="1.0" fill="#ffffff"/>
<text x="106.6282" y="72.9833" text-anchor="middle" font-family="Helvetica" font-size="7.5" fill="#000000" >G</text>
<circle cx="106.7731" cy="90.4651" r="5.0" stroke="#595959" stroke-width="1.0" fill="#ffffff"/>
<text x="106.7731" y="93.1651" text-anchor="middle" font-family="Helvetica" font-size="7.5" fill="#000000" >C</text>
<circle cx="106.6765" cy="110.6257" r="5.0" stroke="#595959" stroke-width="1.0" fill="#ffffff"/>
<text x="106.6765" y="113.3257" text-anchor="middle" font-family="Helvetica" font-size="7.5" fill="#000000" >G</text>
<circle cx="106.3394" cy="130.7178" r="5.0" stroke="#595959" stroke-width="1.0" fill="#ffffff"/>
<text x="106.3394" y="133.4178" text-anchor="middle" font-family="Helvetica" font-size="7.5" fill="#000000" >C</text>
<circle cx="105.9168" cy="150.7572" r="5.0" stroke="#595959" stroke-width="1.0" fill="#ffffff"/>
<text x="105.9168" y="153.4572" text-anchor="middle" font-family="Helvetica" font-size="7.5" fill="#000000" >C</text>
</svg>