<?xml version="1.0" encoding="UTF-8"?>
<!DOCTYPE svg PUBLIC "-//W3C//DTD SVG 1.1//EN" 
"http://www.w3.org/Graphics/SVG/1.1/DTD/svg11.dtd">

<svg version="1.1"
   width="308px"
   height="308px"
xmlns="http://www.w3.org/2000/svg">
    <rect width="100%" height="100%" fill="white"/>

  <line x1="137.0881" y1="218.4141" x2="137.1614" y2="198.4534" stroke="#595959"
     style="stroke-width:2;stroke-miterlimit:4;stroke-dasharray:1,1;stroke-dashoffset:0" />
  <line x1="137.0460" y1="98.8712" x2="134.8741" y2="79.1214" stroke="#595959"
     style="stroke-width:2;stroke-miterlimit:4;stroke-dasharray:1,1;stroke-dashoffset:0" />
  <line x1="137.9458" y1="59.4117" x2="155.5563" y2="49.9992" stroke="#595959"
     style="stroke-width:2;stroke-miterlimit:4;stroke-dasharray:1,1;stroke-dashoffset:0" />
  <line x1="155.5563" y1="49.9992" x2="172.8217" y2="60.0603" stroke="#595959"
     style="stroke-width:2;stroke-miterlimit:4;stroke-dasharray:1,1;stroke-dashoffset:0" />
  <line x1="176.9537" y1="79.6194" x2="169.8200" y2="98.3456" stroke="#595959"
     style="stroke-width:2;stroke-miterlimit:4;stroke-dasharray:1,1;stroke-dashoffset:0" />
  <line x1="169.9451" y1="198.5684" x2="169.7780" y2="218.5545" stroke="#595959"
     style="stroke-width:2;stroke-miterlimit:4;stroke-dasharray:1,1;stroke-dashoffset:0" />
  <line x1="137.2102" y1="158.5772" x2="170.3268" y2="158.5855" stroke="#e58400" stroke-width="1.0" />
  <circle cx="153.7685" cy="158.5814" r="2.25" stroke="#e58400" stroke-width="1.0" fill="#e58400"/>
  <line x1="137.2402" y1="140.2601" x2="170.3565" y2="140.1671" stroke="#eda600" stroke-width="1.0" />
  <circle cx="153.7984" cy="140.2136" r="2.25" stroke="#eda600" stroke-width="1.0" fill="#eda600"/>
  <line x1="136.8990" y1="258.3747" x2="137.0390" y2="238.3882" stroke="#dd6b00" stroke-width="1.0" />
  <rect
     style="fill:#ffffff;fill-opacity:1;fill-rule:nonzero;stroke:none"
     width="2"
     height="2"
     x="136.4690"
     y="247.3815"
     transform="rotate(-89.5988 136.9690 248.3815)" /> 
  <path
     style="fill:none;stroke:#dd6b00;stroke-width:1px;stroke-linecap:butt;stroke-linejoin:miter;stroke-opacity:1"
     d="m 136.9690,246.3815 2,2 -2,2 m -2.370121,-4 2,2 -2,2"
     transform="rotate(-89.5988 136.9690 248.3815)"/>
  <line x1="136.8928" y1="259.6247" x2="169.5141" y2="259.7876" stroke="#200019" stroke-width="1.0" />
  <line x1="136.9052" y1="257.1247" x2="169.5265" y2="257.2876" stroke="#200019" stroke-width="1.0" />
  <line x1="137.0390" y1="238.3882" x2="137.0881" y2="218.4141" stroke="#000000" stroke-width="1.0" />
  <rect
     style="fill:#ffffff;fill-opacity:1;fill-rule:nonzero;stroke:none"
     width="2"
     height="2"
     x="136.5635"
     y="227.4012"
     transform="rotate(-89.8592 137.0635 228.4012)" /> 
  <path
     style="fill:none;stroke:#000000;stroke-width:1px;stroke-linecap:butt;stroke-linejoin:miter;stroke-opacity:1"
     d="m 137.0635,226.4012 2,2 -2,2 m -2.370121,-4 2,2 -2,2"
     transform="rotate(-89.8592 137.0635 228.4012)"/>
  <line x1="137.0330" y1="239.6382" x2="169.6748" y2="239.7938" stroke="#200019" stroke-width="1.0" />
  <line x1="137.0449" y1="237.1383" x2="169.6868" y2="237.2938" stroke="#200019" stroke-width="1.0" />
  <line x1="137.0390" y1="238.3882" x2="169.5203" y2="258.5376" stroke="#e27c00" stroke-width="1.0" />
  <rect
     style="fill:#ffffff;stroke:none"
     width="5.5"
     height="2"
     x="150.5296"
     y="247.4629" 
     transform="rotate(31.8129 153.2796 248.4629)"    /> 
  <path
     style="fill:none;stroke:#e27c00;stroke-width:1px;stroke-linecap:butt;stroke-linejoin:miter;stroke-opacity:1"
    d="m 154.0296,246.4629 2,2 -2,2 m -1.5,-4 -2,2 2,2" transform="rotate(31.8129 153.2796 248.4629)"/>
  <line x1="137.0827" y1="219.6641" x2="169.7726" y2="219.8045" stroke="#000000" stroke-width="1.0" />
  <line x1="137.0934" y1="217.1641" x2="169.7833" y2="217.3046" stroke="#000000" stroke-width="1.0" />
  <line x1="137.1614" y1="198.4534" x2="137.2191" y2="178.5088" stroke="#960bd2" stroke-width="1.0" />
  <rect
     style="fill:#ffffff;fill-opacity:1;fill-rule:nonzero;stroke:none"
     width="2"
     height="2"
     x="136.6903"
     y="187.4811"
     transform="rotate(-89.8342 137.1903 188.4811)" /> 
  <path
     style="fill:none;stroke:#960bd2;stroke-width:1px;stroke-linecap:butt;stroke-linejoin:miter;stroke-opacity:1"
     d="m 137.1903,186.4811 2,2 -2,2 m -2.370121,-4 2,2 -2,2"
     transform="rotate(-89.8342 137.1903 188.4811)"/>
  <line x1="137.1614" y1="198.4534" x2="169.9451" y2="198.5684" stroke="#44006e" stroke-width="1.0" />
  <line x1="137.1614" y1="198.4534" x2="169.7780" y2="218.5545" stroke="#000000" stroke-width="1.0" />
  <rect
     style="fill:#ffffff;stroke:none"
     width="5.5"
     height="2"
     x="150.7197"
     y="207.5040" 
     transform="rotate(31.6450 153.4697 208.5040)"    /> 
  <path
     style="fill:none;stroke:#000000;stroke-width:1px;stroke-linecap:butt;stroke-linejoin:miter;stroke-opacity:1"
    d="m 154.2197,206.5040 2,2 -2,2 m -1.5,-4 -2,2 2,2" transform="rotate(31.6450 153.4697 208.5040)"/>
  <line x1="137.2191" y1="178.5088" x2="137.2102" y2="158.5772" stroke="#a0109e" stroke-width="1.0" />
  <rect
     style="fill:#ffffff;fill-opacity:1;fill-rule:nonzero;stroke:none"
     width="2"
     height="2"
     x="136.7147"
     y="167.5430"
     transform="rotate(269.9744 137.2147 168.5430)" /> 
  <path
     style="fill:none;stroke:#a0109e;stroke-width:1px;stroke-linecap:butt;stroke-linejoin:miter;stroke-opacity:1"
     d="m 137.2147,166.5430 2,2 -2,2 m -2.370121,-4 2,2 -2,2"
     transform="rotate(269.9744 137.2147 168.5430)"/>
  <line x1="137.2164" y1="179.7588" x2="170.1416" y2="179.8305" stroke="#5800ac" stroke-width="1.0" />
  <line x1="137.2219" y1="177.2588" x2="170.1470" y2="177.3305" stroke="#5800ac" stroke-width="1.0" />
  <line x1="137.2102" y1="158.5772" x2="137.2357" y2="138.6601" stroke="#8d07ef" stroke-width="1.0" />
  <rect
     style="fill:#ffffff;fill-opacity:1;fill-rule:nonzero;stroke:none"
     width="2"
     height="2"
     x="136.7230"
     y="147.6186"
     transform="rotate(-89.9266 137.2230 148.6186)" /> 
  <path
     style="fill:none;stroke:#8d07ef;stroke-width:1px;stroke-linecap:butt;stroke-linejoin:miter;stroke-opacity:1"
     d="m 137.2230,146.6186 2,2 -2,2 m -2.370121,-4 2,2 -2,2"
     transform="rotate(-89.9266 137.2230 148.6186)"/>
  <line x1="137.2357" y1="138.6601" x2="137.2688" y2="118.7638" stroke="#ae1a38" stroke-width="1.0" />
  <rect
     style="fill:#ffffff;fill-opacity:1;fill-rule:nonzero;stroke:none"
     width="2"
     height="2"
     x="136.7523"
     y="127.7119"
     transform="rotate(-89.9047 137.2523 128.7119)" /> 
  <path
     style="fill:none;stroke:#ae1a38;stroke-width:1px;stroke-linecap:butt;stroke-linejoin:miter;stroke-opacity:1"
     d="m 137.2523,126.7119 2,2 -2,2 m -2.370121,-4 2,2 -2,2"
     transform="rotate(-89.9047 137.2523 128.7119)"/>
  <line x1="137.2312" y1="137.0601" x2="170.3475" y2="136.9671" stroke="#7302f5" stroke-width="1.0" />
  <line x1="137.2688" y1="118.7638" x2="137.0460" y2="98.8712" stroke="#6f02ec" stroke-width="1.0" />
  <rect
     style="fill:#ffffff;fill-opacity:1;fill-rule:nonzero;stroke:none"
     width="2"
     height="2"
     x="136.6574"
     y="107.8175"
     transform="rotate(269.3582 137.1574 108.8175)" /> 
  <path
     style="fill:none;stroke:#6f02ec;stroke-width:1px;stroke-linecap:butt;stroke-linejoin:miter;stroke-opacity:1"
     d="m 137.1574,106.8175 2,2 -2,2 m -2.370121,-4 2,2 -2,2"
     transform="rotate(269.3582 137.1574 108.8175)"/>
  <line x1="137.2791" y1="120.0137" x2="170.1240" y2="119.7435" stroke="#3c0057" stroke-width="1.0" />
  <line x1="137.2586" y1="117.5138" x2="170.1035" y2="117.2436" stroke="#3c0057" stroke-width="1.0" />
  <line x1="137.2688" y1="118.7638" x2="170.3520" y2="138.5671" stroke="#e27c00" stroke-width="1.0" />
  <rect
     style="fill:#ffffff;stroke:none"
     width="5.5"
     height="2"
     x="151.0604"
     y="127.6654" 
     transform="rotate(30.9044 153.8104 128.6654)"    /> 
  <path
     style="fill:none;stroke:#e27c00;stroke-width:1px;stroke-linecap:butt;stroke-linejoin:miter;stroke-opacity:1"
    d="m 154.5604,126.6654 2,2 -2,2 m -1.5,-4 -2,2 2,2" transform="rotate(30.9044 153.8104 128.6654)"/>
  <line x1="137.0460" y1="98.8712" x2="169.8200" y2="98.3456" stroke="#5500a3" stroke-width="1.0" />
  <line x1="134.8741" y1="79.1214" x2="137.9458" y2="59.4117" stroke="#7602f8" stroke-width="1.0" />
  <rect
     style="fill:#ffffff;fill-opacity:1;fill-rule:nonzero;stroke:none"
     width="2"
     height="2"
     x="135.9100"
     y="68.2665"
     transform="rotate(-81.1416 136.4100 69.2665)" /> 
  <path
     style="fill:none;stroke:#7602f8;stroke-width:1px;stroke-linecap:butt;stroke-linejoin:miter;stroke-opacity:1"
     d="m 136.4100,67.2665 2,2 -2,2 m -2.370121,-4 2,2 -2,2"
     transform="rotate(-81.1416 136.4100 69.2665)"/>
  <line x1="134.8741" y1="79.1214" x2="169.8200" y2="98.3456" stroke="#3c0057" stroke-width="1.0" />
  <rect
     style="fill:#ffffff;stroke:none"
     width="5.5"
     height="2"
     x="149.5970"
     y="87.7335" 
     transform="rotate(28.8157 152.3470 88.7335)"    /> 
  <path
     style="fill:none;stroke:#3c0057;stroke-width:1px;stroke-linecap:butt;stroke-linejoin:miter;stroke-opacity:1"
    d="m 153.0970,86.7335 2,2 -2,2 m -1.5,-4 -2,2 2,2" transform="rotate(28.8157 152.3470 88.7335)"/>
  <line x1="172.8217" y1="60.0603" x2="176.9537" y2="79.6194" stroke="#000000" stroke-width="1.0" />
  <rect
     style="fill:#ffffff;fill-opacity:1;fill-rule:nonzero;stroke:none"
     width="2"
     height="2"
     x="174.3877"
     y="68.8399"
     transform="rotate(78.0713 174.8877 69.8399)" /> 
  <path
     style="fill:none;stroke:#000000;stroke-width:1px;stroke-linecap:butt;stroke-linejoin:miter;stroke-opacity:1"
     d="m 174.8877,67.8399 2,2 -2,2 m -2.370121,-4 2,2 -2,2"
     transform="rotate(78.0713 174.8877 69.8399)"/>
  <line x1="169.8200" y1="98.3456" x2="170.1138" y2="118.4935" stroke="#9e0fa8" stroke-width="1.0" />
  <rect
     style="fill:#ffffff;fill-opacity:1;fill-rule:nonzero;stroke:none"
     width="2"
     height="2"
     x="169.4669"
     y="107.4195"
     transform="rotate(89.1648 169.9669 108.4195)" /> 
  <path
     style="fill:none;stroke:#9e0fa8;stroke-width:1px;stroke-linecap:butt;stroke-linejoin:miter;stroke-opacity:1"
     d="m 169.9669,106.4195 2,2 -2,2 m -2.370121,-4 2,2 -2,2"
     transform="rotate(89.1648 169.9669 108.4195)"/>
  <line x1="170.1138" y1="118.4935" x2="170.3520" y2="138.5671" stroke="#bc2900" stroke-width="1.0" />
  <rect
     style="fill:#ffffff;fill-opacity:1;fill-rule:nonzero;stroke:none"
     width="2"
     height="2"
     x="169.7329"
     y="127.5303"
     transform="rotate(89.3199 170.2329 128.5303)" /> 
  <path
     style="fill:none;stroke:#bc2900;stroke-width:1px;stroke-linecap:butt;stroke-linejoin:miter;stroke-opacity:1"
     d="m 170.2329,126.5303 2,2 -2,2 m -2.370121,-4 2,2 -2,2"
     transform="rotate(89.3199 170.2329 128.5303)"/>
  <line x1="170.3520" y1="138.5671" x2="170.3268" y2="158.5855" stroke="#9109e5" stroke-width="1.0" />
  <rect
     style="fill:#ffffff;fill-opacity:1;fill-rule:nonzero;stroke:none"
     width="2"
     height="2"
     x="169.8394"
     y="147.5763"
     transform="rotate(90.0722 170.3394 148.5763)" /> 
  <path
     style="fill:none;stroke:#9109e5;stroke-width:1px;stroke-linecap:butt;stroke-linejoin:miter;stroke-opacity:1"
     d="m 170.3394,146.5763 2,2 -2,2 m -2.370121,-4 2,2 -2,2"
     transform="rotate(90.0722 170.3394 148.5763)"/>
  <line x1="170.3268" y1="158.5855" x2="170.1443" y2="178.5805" stroke="#d24f00" stroke-width="1.0" />
  <rect
     style="fill:#ffffff;fill-opacity:1;fill-rule:nonzero;stroke:none"
     width="2"
     height="2"
     x="169.7355"
     y="167.5830"
     transform="rotate(90.5230 170.2355 168.5830)" /> 
  <path
     style="fill:none;stroke:#d24f00;stroke-width:1px;stroke-linecap:butt;stroke-linejoin:miter;stroke-opacity:1"
     d="m 170.2355,166.5830 2,2 -2,2 m -2.370121,-4 2,2 -2,2"
     transform="rotate(90.5230 170.2355 168.5830)"/>
  <line x1="170.1443" y1="178.5805" x2="169.9451" y2="198.5684" stroke="#9e0fa8" stroke-width="1.0" />
  <rect
     style="fill:#ffffff;fill-opacity:1;fill-rule:nonzero;stroke:none"
     width="2"
     height="2"
     x="169.5447"
     y="187.5744"
     transform="rotate(90.5709 170.0447 188.5744)" /> 
  <path
     style="fill:none;stroke:#9e0fa8;stroke-width:1px;stroke-linecap:butt;stroke-linejoin:miter;stroke-opacity:1"
     d="m 170.0447,186.5744 2,2 -2,2 m -2.370121,-4 2,2 -2,2"
     transform="rotate(90.5709 170.0447 188.5744)"/>
  <line x1="169.7780" y1="218.5545" x2="169.6808" y2="238.5438" stroke="#000000" stroke-width="1.0" />
  <rect
     style="fill:#ffffff;fill-opacity:1;fill-rule:nonzero;stroke:none"
     width="2"
     height="2"
     x="169.2294"
     y="227.5492"
     transform="rotate(90.2786 169.7294 228.5492)" /> 
  <path
     style="fill:none;stroke:#000000;stroke-width:1px;stroke-linecap:butt;stroke-linejoin:miter;stroke-opacity:1"
     d="m 169.7294,226.5492 2,2 -2,2 m -2.370121,-4 2,2 -2,2"
     transform="rotate(90.2786 169.7294 228.5492)"/>
  <line x1="169.6808" y1="238.5438" x2="169.5203" y2="258.5376" stroke="#a61473" stroke-width="1.0" />
  <rect
     style="fill:#ffffff;fill-opacity:1;fill-rule:nonzero;stroke:none"
     width="2"
     height="2"
     x="169.1005"
     y="247.5407"
     transform="rotate(90.4599 169.6005 248.5407)" /> 
  <path
     style="fill:none;stroke:#a61473;stroke-width:1px;stroke-linecap:butt;stroke-linejoin:miter;stroke-opacity:1"
     d="m 169.6005,246.5407 2,2 -2,2 m -2.370121,-4 2,2 -2,2"
     transform="rotate(90.4599 169.6005 248.5407)"/>
<circle cx="136.8990" cy="258.3747" r="5.0" stroke="#595959" stroke-width="1.0" fill="#ffffff"/>
<text x="136.8990" y="261.0747" text-anchor="middle" font-family="Helvetica" font-size="7.5" fill="#000000" >G</text>
<circle cx="137.0390" cy="238.3882" r="5.0" stroke="#595959" stroke-width="1.0" fill="#ffffff"/>
<text x="137.0390" y="241.0882" text-anchor="middle" font-family="Helvetica" font-size="7.5" fill="#000000" >G</text>
<circle cx="137.0881" cy="218.4141" r="5.0" stroke="#595959" stroke-width="1.0" fill="#ffffff"/>
<text x="137.0881" y="221.1141" text-anchor="middle" font-family="Helvetica" font-size="7.5" fill="#000000" >C</text>
<circle cx="137.1614" cy="198.4534" r="5.0" stroke="#595959" stroke-width="1.0" fill="#ffffff"/>
<text x="137.1614" y="201.1534" text-anchor="middle" font-family="Helvetica" font-size="7.5" fill="#000000" >A</text>
<circle cx="137.2191" cy="178.5088" r="5.0" stroke="#595959" stroke-width="1.0" fill="#ffffff"/>
<text x="137.2191" y="181.2088" text-anchor="middle" font-family="Helvetica" font-size="7.5" fill="#000000" >G</text>
<circle cx="137.2102" cy="158.5772" r="5.0" stroke="#595959" stroke-width="1.0" fill="#ffffff"/>
<text x="137.2102" y="161.2772" text-anchor="middle" font-family="Helvetica" font-size="7.5" fill="#000000" >A</text>
<circle cx="137.2357" cy="138.6601" r="5.0" stroke="#595959" stroke-width="1.0" fill="#ffffff"/>
<text x="137.2357" y="141.3601" text-anchor="middle" font-family="Helvetica" font-size="7.5" fill="#000000" >U</text>
<circle cx="137.2688" cy="118.7638" r="5.0" stroke="#595959" stroke-width="1.0" fill="#ffffff"/>
<text x="137.2688" y="121.4638" text-anchor="middle" font-family="Helvetica" font-size="7.5" fill="#000000" >C</text>
<circle cx="137.0460" cy="98.8712" r="5.0" stroke="#595959" stroke-width="1.0" fill="#ffffff"/>
<text x="137.0460" y="101.5712" text-anchor="middle" font-family="Helvetica" font-size="7.5" fill="#000000" >U</text>
<circle cx="134.8741" cy="79.1214" r="5.0" stroke="#595959" stroke-width="1.0" fill="#ffffff"/>
<text x="134.8741" y="81.8214" text-anchor="middle" font-family="Helvetica" font-size="7.5" fill="#000000" >G</text>
<circle cx="137.9458" cy="59.4117" r="5.0" stroke="#595959" stroke-width="1.0" fill="#ffffff"/>
<text x="137.9458" y="62.1117" text-anchor="middle" font-family="Helvetica" font-size="7.5" fill="#000000" >U</text>
<circle cx="155.5563" cy="49.9992" r="5.0" stroke="#595959" stroke-width="1.0" fill="#ffffff"/>
<text x="155.5563" y="52.6992" text-anchor="middle" font-family="Helvetica" font-size="7.5" fill="#000000" >A</text>
<circle cx="172.8217" cy="60.0603" r="5.0" stroke="#595959" stroke-width="1.0" fill="#ffffff"/>
<text x="172.8217" y="62.7603" text-anchor="middle" font-family="Helvetica" font-size="7.5" fill="#000000" >A</text>
<circle cx="176.9537" cy="79.6194" r="5.0" stroke="#595959" stroke-width="1.0" fill="#ffffff"/>
<text x="176.9537" y="82.3194" text-anchor="middle" font-family="Helvetica" font-size="7.5" fill="#000000" >U</text>
<circle cx="169.8200" cy="98.3456" r="5.0" stroke="#595959" stroke-width="1.0" fill="#ffffff"/>
<text x="169.8200" y="101.0456" text-anchor="middle" font-family="Helvetica" font-size="7.5" fill="#000000" >A</text>
<circle cx="170.1138" cy="118.4935" r="5.0" stroke="#595959" stroke-width="1.0" fill="#ffffff"/>
<text x="170.1138" y="121.1935" text-anchor="middle" font-family="Helvetica" font-size="7.5" fill="#000000" >G</text>
<circle cx="170.3520" cy="138.5671" r="5.0" stroke="#595959" stroke-width="1.0" fill="#ffffff"/>
<text x="170.3520" y="141.2671" text-anchor="middle" font-family="Helvetica" font-size="7.5" fill="#000000" >A</text>
<circle cx="170.3268" cy="158.5855" r="5.0" stroke="#595959" stroke-width="1.0" fill="#ffffff"/>
<text x="170.3268" y="161.2855" text-anchor="middle" font-family="Helvetica" font-size="7.5" fill="#000000" >A</text>
<circle cx="170.1443" cy="178.5805" r="5.0" stroke="#595959" stroke-width="1.0" fill="#ffffff"/>
<text x="170.1443" y="181.2805" text-anchor="middle" font-family="Helvetica" font-size="7.5" fill="#000000" >C</text>
<circle cx="169.9451" cy="198.5684" r="5.0" stroke="#595959" stroke-width="1.0" fill="#ffffff"/>
<text x="169.9451" y="201.2684" text-anchor="middle" font-family="Helvetica" font-size="7.5" fill="#000000" >U</text>
<circle cx="169.7780" cy="218.5545" r="5.0" stroke="#595959" stroke-width="1.0" fill="#ffffff"/>
<text x="169.7780" y="221.2545" text-anchor="middle" font-family="Helvetica" font-size="7.5" fill="#000000" >G</text>
<circle cx="169.6808" cy="238.5438" r="5.0" stroke="#595959" stroke-width="1.0" fill="#ffffff"/>
<text x="169.6808" y="241.2438" text-anchor="middle" font-family="Helvetica" font-size="7.5" fill="#000000" >C</text>
<circle cx="169.5203" cy="258.5376" r="5.0" stroke="#595959" stroke-width="1.0" fill="#ffffff"/>
<text x="169.5203" y="261.2376" text-anchor="middle" font-family="Helvetica" font-size="7.5" fill="#000000" >C</text>
</svg>