<?xml version="1.0" encoding="UTF-8"?>
<!DOCTYPE svg PUBLIC "-//W3C//DTD SVG 1.1//EN" 
"http://www.w3.org/Graphics/SVG/1.1/DTD/svg11.dtd">

<svg version="1.1"
   width="308px"
   height="308px"
xmlns="http://www.w3.org/2000/svg">
    <rect width="100%" height="100%" fill="white"/>

  <line x1="137.4548" y1="218.5394" x2="137.3112" y2="198.5433" stroke="#595959"
     style="stroke-width:2;stroke-miterlimit:4;stroke-dasharray:1,1;stroke-dashoffset:0" />
  <line x1="136.7605" y1="98.4733" x2="131.0859" y2="79.1627" stroke="#595959"
     style="stroke-width:2;stroke-miterlimit:4;stroke-dasharray:1,1;stroke-dashoffset:0" />
  <line x1="131.0859" y1="79.1627" x2="136.4199" y2="59.8687" stroke="#595959"
     style="stroke-width:2;stroke-miterlimit:4;stroke-dasharray:1,1;stroke-dashoffset:0" />
  <line x1="136.4199" y1="59.8687" x2="154.0000" y2="50.3473" stroke="#595959"
     style="stroke-width:2;stroke-miterlimit:4;stroke-dasharray:1,1;stroke-dashoffset:0" />
  <line x1="154.0000" y1="50.3473" x2="171.5801" y2="59.8687" stroke="#595959"
     style="stroke-width:2;stroke-miterlimit:4;stroke-dasharray:1,1;stroke-dashoffset:0" />
  <line x1="176.9141" y1="79.1627" x2="171.2395" y2="98.4733" stroke="#595959"
     style="stroke-width:2;stroke-miterlimit:4;stroke-dasharray:1,1;stroke-dashoffset:0" />
  <line x1="170.6888" y1="198.5433" x2="170.5452" y2="218.5394" stroke="#595959"
     style="stroke-width:2;stroke-miterlimit:4;stroke-dasharray:1,1;stroke-dashoffset:0" />
  <line x1="137.0451" y1="156.9482" x2="170.9549" y2="156.9482" stroke="#efaf00" stroke-width="1.0" />
  <circle cx="154.0000" cy="156.9482" r="2.25" stroke="#efaf00" stroke-width="1.0" fill="#efaf00"/>
  <line x1="137.0451" y1="160.1482" x2="170.9549" y2="160.1482" stroke="#eda600" stroke-width="1.0" />
  <path d="M 148.2500 162.3982 L 148.2500 157.8982 L 152.7500 157.8982 L 152.7500 162.3982 z" style="stroke:#eda600;stroke-width:1.0" fill="#eda600" 
    transform="rotate(0.0000 154.0000 160.1482)"/>
  <path d="M 155.7500 162.3982 L 155.7500 157.8982 L 159.7500 160.1482 z" style="stroke:#eda600;stroke-width:1.0" fill="#eda600"
    transform="rotate(0.0000 154.0000 160.1482)"/>
  <line x1="136.7605" y1="98.4733" x2="171.2395" y2="98.4733" stroke="#ea9900" stroke-width="1.0" />
  <circle cx="154.0000" cy="98.4733" r="2.25" stroke="#ea9900" stroke-width="1.0" fill="#ea9900"/>
  <line x1="136.7605" y1="101.6733" x2="171.2395" y2="101.6733" stroke="#e17900" stroke-width="1.0" />
  <path d="M 148.2500 103.9233 L 148.2500 99.4233 L 152.7500 99.4233 L 152.7500 103.9233 z" style="stroke:#e17900;stroke-width:1.0" fill="#e17900" 
    transform="rotate(180.0000 154.0000 101.6733)"/>
  <path d="M 155.7500 103.9233 L 155.7500 99.4233 L 159.7500 101.6733 z" style="stroke:#e17900;stroke-width:1.0" fill="#e17900"
    transform="rotate(180.0000 154.0000 101.6733)"/>
  <line x1="171.5801" y1="59.8687" x2="176.9141" y2="79.1627" stroke="#eca100" stroke-width="1.0" />
  <path d="M 168.4971 71.7657 L 168.4971 67.2657 L 172.9971 67.2657 L 172.9971 71.7657 z" style="stroke:#eca100;stroke-width:1.0" fill="#eca100" 
    transform="rotate(254.5461 174.2471 69.5157)"/>
  <path d="M 175.9971 71.7657 L 175.9971 67.2657 L 179.9971 69.5157 z" style="stroke:#eca100;stroke-width:1.0" fill="#eca100"
    transform="rotate(254.5461 174.2471 69.5157)"/>
  <line x1="137.5616" y1="258.5347" x2="137.5174" y2="238.5364" stroke="#d45500" stroke-width="1.0" />
  <rect
     style="fill:#ffffff;fill-opacity:1;fill-rule:nonzero;stroke:none"
     width="2"
     height="2"
     x="137.0395"
     y="247.5356"
     transform="rotate(269.8733 137.5395 248.5356)" /> 
  <path
     style="fill:none;stroke:#d45500;stroke-width:1px;stroke-linecap:butt;stroke-linejoin:miter;stroke-opacity:1"
     d="m 137.5395,246.5356 2,2 -2,2 m -2.370121,-4 2,2 -2,2"
     transform="rotate(269.8733 137.5395 248.5356)"/>
  <line x1="137.5616" y1="259.7847" x2="170.4384" y2="259.7847" stroke="#2d0032" stroke-width="1.0" />
  <line x1="137.5616" y1="257.2847" x2="170.4384" y2="257.2847" stroke="#2d0032" stroke-width="1.0" />
  <line x1="137.5174" y1="238.5364" x2="137.4548" y2="218.5394" stroke="#000000" stroke-width="1.0" />
  <rect
     style="fill:#ffffff;fill-opacity:1;fill-rule:nonzero;stroke:none"
     width="2"
     height="2"
     x="136.9861"
     y="227.5379"
     transform="rotate(269.8208 137.4861 228.5379)" /> 
  <path
     style="fill:none;stroke:#000000;stroke-width:1px;stroke-linecap:butt;stroke-linejoin:miter;stroke-opacity:1"
     d="m 137.4861,226.5379 2,2 -2,2 m -2.370121,-4 2,2 -2,2"
     transform="rotate(269.8208 137.4861 228.5379)"/>
  <line x1="137.5174" y1="239.7864" x2="170.4826" y2="239.7864" stroke="#2d0032" stroke-width="1.0" />
  <line x1="137.5174" y1="237.2864" x2="170.4826" y2="237.2864" stroke="#2d0032" stroke-width="1.0" />
  <line x1="137.5174" y1="238.5364" x2="170.4384" y2="258.5347" stroke="#e17900" stroke-width="1.0" />
  <rect
     style="fill:#ffffff;stroke:none"
     width="5.5"
     height="2"
     x="151.2279"
     y="247.5356" 
     transform="rotate(31.2772 153.9779 248.5356)"    /> 
  <path
     style="fill:none;stroke:#e17900;stroke-width:1px;stroke-linecap:butt;stroke-linejoin:miter;stroke-opacity:1"
    d="m 154.7279,246.5356 2,2 -2,2 m -1.5,-4 -2,2 2,2" transform="rotate(31.2772 153.9779 248.5356)"/>
  <line x1="137.4548" y1="219.7894" x2="170.5452" y2="219.7894" stroke="#200019" stroke-width="1.0" />
  <line x1="137.4548" y1="217.2894" x2="170.5452" y2="217.2894" stroke="#200019" stroke-width="1.0" />
  <line x1="137.3112" y1="198.5433" x2="137.1879" y2="178.5464" stroke="#a0109e" stroke-width="1.0" />
  <rect
     style="fill:#ffffff;fill-opacity:1;fill-rule:nonzero;stroke:none"
     width="2"
     height="2"
     x="136.7496"
     y="187.5448"
     transform="rotate(269.6468 137.2496 188.5448)" /> 
  <path
     style="fill:none;stroke:#a0109e;stroke-width:1px;stroke-linecap:butt;stroke-linejoin:miter;stroke-opacity:1"
     d="m 137.2496,186.5448 2,2 -2,2 m -2.370121,-4 2,2 -2,2"
     transform="rotate(269.6468 137.2496 188.5448)"/>
  <line x1="137.3112" y1="198.5433" x2="170.6888" y2="198.5433" stroke="#2d0032" stroke-width="1.0" />
  <line x1="137.3112" y1="198.5433" x2="170.5452" y2="218.5394" stroke="#000000" stroke-width="1.0" />
  <rect
     style="fill:#ffffff;stroke:none"
     width="5.5"
     height="2"
     x="151.1782"
     y="207.5413" 
     transform="rotate(31.0344 153.9282 208.5413)"    /> 
  <path
     style="fill:none;stroke:#000000;stroke-width:1px;stroke-linecap:butt;stroke-linejoin:miter;stroke-opacity:1"
    d="m 154.6782,206.5413 2,2 -2,2 m -1.5,-4 -2,2 2,2" transform="rotate(31.0344 153.9282 208.5413)"/>
  <line x1="137.1879" y1="178.5464" x2="137.0451" y2="158.5482" stroke="#bb2700" stroke-width="1.0" />
  <rect
     style="fill:#ffffff;fill-opacity:1;fill-rule:nonzero;stroke:none"
     width="2"
     height="2"
     x="136.6165"
     y="167.5473"
     transform="rotate(269.5907 137.1165 168.5473)" /> 
  <path
     style="fill:none;stroke:#bb2700;stroke-width:1px;stroke-linecap:butt;stroke-linejoin:miter;stroke-opacity:1"
     d="m 137.1165,166.5473 2,2 -2,2 m -2.370121,-4 2,2 -2,2"
     transform="rotate(269.5907 137.1165 168.5473)"/>
  <line x1="137.1879" y1="179.7964" x2="170.8121" y2="179.7964" stroke="#480079" stroke-width="1.0" />
  <line x1="137.1879" y1="177.2964" x2="170.8121" y2="177.2964" stroke="#480079" stroke-width="1.0" />
  <line x1="137.0451" y1="158.5482" x2="137.0061" y2="138.5468" stroke="#bb2700" stroke-width="1.0" />
  <rect
     style="fill:#ffffff;fill-opacity:1;fill-rule:nonzero;stroke:none"
     width="2"
     height="2"
     x="136.5256"
     y="147.5475"
     transform="rotate(269.8883 137.0256 148.5475)" /> 
  <path
     style="fill:none;stroke:#bb2700;stroke-width:1px;stroke-linecap:butt;stroke-linejoin:miter;stroke-opacity:1"
     d="m 137.0256,146.5475 2,2 -2,2 m -2.370121,-4 2,2 -2,2"
     transform="rotate(269.8883 137.0256 148.5475)"/>
  <line x1="137.0451" y1="158.5482" x2="170.8121" y2="178.5464" stroke="#f2b800" stroke-width="1.0" />
  <rect
     style="fill:#ffffff;stroke:none"
     width="5.5"
     height="2"
     x="151.1786"
     y="167.5473" 
     transform="rotate(30.6358 153.9286 168.5473)"    /> 
  <path
     style="fill:none;stroke:#f2b800;stroke-width:1px;stroke-linecap:butt;stroke-linejoin:miter;stroke-opacity:1"
    d="m 154.6786,166.5473 2,2 -2,2 m -1.5,-4 -2,2 2,2" transform="rotate(30.6358 153.9286 168.5473)"/>
  <line x1="137.0061" y1="138.5468" x2="136.9442" y2="118.5264" stroke="#960bd2" stroke-width="1.0" />
  <rect
     style="fill:#ffffff;fill-opacity:1;fill-rule:nonzero;stroke:none"
     width="2"
     height="2"
     x="136.4751"
     y="127.5366"
     transform="rotate(269.8228 136.9751 128.5366)" /> 
  <path
     style="fill:none;stroke:#960bd2;stroke-width:1px;stroke-linecap:butt;stroke-linejoin:miter;stroke-opacity:1"
     d="m 136.9751,126.5366 2,2 -2,2 m -2.370121,-4 2,2 -2,2"
     transform="rotate(269.8228 136.9751 128.5366)"/>
  <line x1="137.0061" y1="138.5468" x2="170.9939" y2="138.5468" stroke="#6301ce" stroke-width="1.0" />
  <line x1="136.9442" y1="118.5264" x2="136.7605" y2="98.4733" stroke="#6001c6" stroke-width="1.0" />
  <rect
     style="fill:#ffffff;fill-opacity:1;fill-rule:nonzero;stroke:none"
     width="2"
     height="2"
     x="136.3523"
     y="107.4998"
     transform="rotate(269.4751 136.8523 108.4998)" /> 
  <path
     style="fill:none;stroke:#6001c6;stroke-width:1px;stroke-linecap:butt;stroke-linejoin:miter;stroke-opacity:1"
     d="m 136.8523,106.4998 2,2 -2,2 m -2.370121,-4 2,2 -2,2"
     transform="rotate(269.4751 136.8523 108.4998)"/>
  <line x1="136.9442" y1="119.7764" x2="171.0558" y2="119.7764" stroke="#33003e" stroke-width="1.0" />
  <line x1="136.9442" y1="117.2764" x2="171.0558" y2="117.2764" stroke="#33003e" stroke-width="1.0" />
  <line x1="136.9442" y1="118.5264" x2="170.9939" y2="138.5468" stroke="#e68800" stroke-width="1.0" />
  <rect
     style="fill:#ffffff;stroke:none"
     width="5.5"
     height="2"
     x="151.2190"
     y="127.5366" 
     transform="rotate(30.4544 153.9690 128.5366)"    /> 
  <path
     style="fill:none;stroke:#e68800;stroke-width:1px;stroke-linecap:butt;stroke-linejoin:miter;stroke-opacity:1"
    d="m 154.7190,126.5366 2,2 -2,2 m -1.5,-4 -2,2 2,2" transform="rotate(30.4544 153.9690 128.5366)"/>
  <line x1="136.7605" y1="95.2733" x2="171.2395" y2="95.2733" stroke="#a9165c" stroke-width="1.0" />
  <line x1="136.7605" y1="98.4733" x2="171.0558" y2="118.5264" stroke="#f1b400" stroke-width="1.0" />
  <rect
     style="fill:#ffffff;stroke:none"
     width="5.5"
     height="2"
     x="151.1581"
     y="107.4998" 
     transform="rotate(30.3155 153.9081 108.4998)"    /> 
  <path
     style="fill:none;stroke:#f1b400;stroke-width:1px;stroke-linecap:butt;stroke-linejoin:miter;stroke-opacity:1"
    d="m 154.6581,106.4998 2,2 -2,2 m -1.5,-4 -2,2 2,2" transform="rotate(30.3155 153.9081 108.4998)"/>
  <line x1="131.0859" y1="79.1627" x2="171.2395" y2="98.4733" stroke="#44006e" stroke-width="1.0" />
  <rect
     style="fill:#ffffff;stroke:none"
     width="5.5"
     height="2"
     x="148.4127"
     y="87.8180" 
     transform="rotate(25.6837 151.1627 88.8180)"    /> 
  <path
     style="fill:none;stroke:#44006e;stroke-width:1px;stroke-linecap:butt;stroke-linejoin:miter;stroke-opacity:1"
    d="m 151.9127,86.8180 2,2 -2,2 m -1.5,-4 -2,2 2,2" transform="rotate(25.6837 151.1627 88.8180)"/>
  <line x1="171.2395" y1="98.4733" x2="171.0558" y2="118.5264" stroke="#eca100" stroke-width="1.0" />
  <rect
     style="fill:#ffffff;fill-opacity:1;fill-rule:nonzero;stroke:none"
     width="2"
     height="2"
     x="170.6477"
     y="107.4998"
     transform="rotate(90.5249 171.1477 108.4998)" /> 
  <path
     style="fill:none;stroke:#eca100;stroke-width:1px;stroke-linecap:butt;stroke-linejoin:miter;stroke-opacity:1"
     d="m 171.1477,106.4998 2,2 -2,2 m -2.370121,-4 2,2 -2,2"
     transform="rotate(90.5249 171.1477 108.4998)"/>
  <line x1="171.0558" y1="118.5264" x2="170.9939" y2="138.5468" stroke="#c33200" stroke-width="1.0" />
  <rect
     style="fill:#ffffff;fill-opacity:1;fill-rule:nonzero;stroke:none"
     width="2"
     height="2"
     x="170.5249"
     y="127.5366"
     transform="rotate(90.1772 171.0249 128.5366)" /> 
  <path
     style="fill:none;stroke:#c33200;stroke-width:1px;stroke-linecap:butt;stroke-linejoin:miter;stroke-opacity:1"
     d="m 171.0249,126.5366 2,2 -2,2 m -2.370121,-4 2,2 -2,2"
     transform="rotate(90.1772 171.0249 128.5366)"/>
  <line x1="170.9939" y1="138.5468" x2="170.9549" y2="158.5482" stroke="#cc4200" stroke-width="1.0" />
  <rect
     style="fill:#ffffff;fill-opacity:1;fill-rule:nonzero;stroke:none"
     width="2"
     height="2"
     x="170.4744"
     y="147.5475"
     transform="rotate(90.1117 170.9744 148.5475)" /> 
  <path
     style="fill:none;stroke:#cc4200;stroke-width:1px;stroke-linecap:butt;stroke-linejoin:miter;stroke-opacity:1"
     d="m 170.9744,146.5475 2,2 -2,2 m -2.370121,-4 2,2 -2,2"
     transform="rotate(90.1117 170.9744 148.5475)"/>
  <line x1="170.9549" y1="158.5482" x2="170.8121" y2="178.5464" stroke="#e38000" stroke-width="1.0" />
  <rect
     style="fill:#ffffff;fill-opacity:1;fill-rule:nonzero;stroke:none"
     width="2"
     height="2"
     x="170.3835"
     y="167.5473"
     transform="rotate(90.4093 170.8835 168.5473)" /> 
  <path
     style="fill:none;stroke:#e38000;stroke-width:1px;stroke-linecap:butt;stroke-linejoin:miter;stroke-opacity:1"
     d="m 170.8835,166.5473 2,2 -2,2 m -2.370121,-4 2,2 -2,2"
     transform="rotate(90.4093 170.8835 168.5473)"/>
  <line x1="170.8121" y1="178.5464" x2="170.6888" y2="198.5433" stroke="#a21194" stroke-width="1.0" />
  <rect
     style="fill:#ffffff;fill-opacity:1;fill-rule:nonzero;stroke:none"
     width="2"
     height="2"
     x="170.2504"
     y="187.5448"
     transform="rotate(90.3532 170.7504 188.5448)" /> 
  <path
     style="fill:none;stroke:#a21194;stroke-width:1px;stroke-linecap:butt;stroke-linejoin:miter;stroke-opacity:1"
     d="m 170.7504,186.5448 2,2 -2,2 m -2.370121,-4 2,2 -2,2"
     transform="rotate(90.3532 170.7504 188.5448)"/>
  <line x1="170.5452" y1="218.5394" x2="170.4826" y2="238.5364" stroke="#000000" stroke-width="1.0" />
  <rect
     style="fill:#ffffff;fill-opacity:1;fill-rule:nonzero;stroke:none"
     width="2"
     height="2"
     x="170.0139"
     y="227.5379"
     transform="rotate(90.1792 170.5139 228.5379)" /> 
  <path
     style="fill:none;stroke:#000000;stroke-width:1px;stroke-linecap:butt;stroke-linejoin:miter;stroke-opacity:1"
     d="m 170.5139,226.5379 2,2 -2,2 m -2.370121,-4 2,2 -2,2"
     transform="rotate(90.1792 170.5139 228.5379)"/>
  <line x1="170.4826" y1="238.5364" x2="170.4384" y2="258.5347" stroke="#b52100" stroke-width="1.0" />
  <rect
     style="fill:#ffffff;fill-opacity:1;fill-rule:nonzero;stroke:none"
     width="2"
     height="2"
     x="169.9605"
     y="247.5356"
     transform="rotate(90.1267 170.4605 248.5356)" /> 
  <path
     style="fill:none;stroke:#b52100;stroke-width:1px;stroke-linecap:butt;stroke-linejoin:miter;stroke-opacity:1"
     d="m 170.4605,246.5356 2,2 -2,2 m -2.370121,-4 2,2 -2,2"
     transform="rotate(90.1267 170.4605 248.5356)"/>
<circle cx="137.5616" cy="258.5347" r="5.0" stroke="#595959" stroke-width="1.0" fill="#ffffff"/>
<text x="137.5616" y="261.2347" text-anchor="middle" font-family="Helvetica" font-size="7.5" fill="#000000" >G</text>
<circle cx="137.5174" cy="238.5364" r="5.0" stroke="#595959" stroke-width="1.0" fill="#ffffff"/>
<text x="137.5174" y="241.2364" text-anchor="middle" font-family="Helvetica" font-size="7.5" fill="#000000" >G</text>
<circle cx="137.4548" cy="218.5394" r="5.0" stroke="#595959" stroke-width="1.0" fill="#ffffff"/>
<text x="137.4548" y="221.2394" text-anchor="middle" font-family="Helvetica" font-size="7.5" fill="#000000" >C</text>
<circle cx="137.3112" cy="198.5433" r="5.0" stroke="#595959" stroke-width="1.0" fill="#ffffff"/>
<text x="137.3112" y="201.2433" text-anchor="middle" font-family="Helvetica" font-size="7.5" fill="#000000" >A</text>
<circle cx="137.1879" cy="178.5464" r="5.0" stroke="#595959" stroke-width="1.0" fill="#ffffff"/>
<text x="137.1879" y="181.2464" text-anchor="middle" font-family="Helvetica" font-size="7.5" fill="#000000" >G</text>
<circle cx="137.0451" cy="158.5482" r="5.0" stroke="#595959" stroke-width="1.0" fill="#ffffff"/>
<text x="137.0451" y="161.2482" text-anchor="middle" font-family="Helvetica" font-size="7.5" fill="#000000" >A</text>
<circle cx="137.0061" cy="138.5468" r="5.0" stroke="#595959" stroke-width="1.0" fill="#ffffff"/>
<text x="137.0061" y="141.2468" text-anchor="middle" font-family="Helvetica" font-size="7.5" fill="#000000" >U</text>
<circle cx="136.9442" cy="118.5264" r="5.0" stroke="#595959" stroke-width="1.0" fill="#ffffff"/>
<text x="136.9442" y="121.2264" text-anchor="middle" font-family="Helvetica" font-size="7.5" fill="#000000" >C</text>
<circle cx="136.7605" cy="98.4733" r="5.0" stroke="#595959" stroke-width="1.0" fill="#ffffff"/>
<text x="136.7605" y="101.1733" text-anchor="middle" font-family="Helvetica" font-size="7.5" fill="#000000" >U</text>
<circle cx="131.0859" cy="79.1627" r="5.0" stroke="#595959" stroke-width="1.0" fill="#ffffff"/>
<text x="131.0859" y="81.8627" text-anchor="middle" font-family="Helvetica" font-size="7.5" fill="#000000" >G</text>
<circle cx="136.4199" cy="59.8687" r="5.0" stroke="#595959" stroke-width="1.0" fill="#ffffff"/>
<text x="136.4199" y="62.5687" text-anchor="middle" font-family="Helvetica" font-size="7.5" fill="#000000" >U</text>
<circle cx="154.0000" cy="50.3473" r="5.0" stroke="#595959" stroke-width="1.0" fill="#ffffff"/>
<text x="154.0000" y="53.0473" text-anchor="middle" font-family="Helvetica" font-size="7.5" fill="#000000" >A</text>
<circle cx="171.5801" cy="59.8687" r="5.0" stroke="#595959" stroke-width="1.0" fill="#ffffff"/>
<text x="171.5801" y="62.5687" text-anchor="middle" font-family="Helvetica" font-size="7.5" fill="#000000" >A</text>
<circle cx="176.9141" cy="79.1627" r="5.0" stroke="#595959" stroke-width="1.0" fill="#ffffff"/>
<text x="176.9141" y="81.8627" text-anchor="middle" font-family="Helvetica" font-size="7.5" fill="#000000" >U</text>
<circle cx="171.2395" cy="98.4733" r="5.0" stroke="#595959" stroke-width="1.0" fill="#ffffff"/>
<text x="171.2395" y="101.1733" text-anchor="middle" font-family="Helvetica" font-size="7.5" fill="#000000" >A</text>
<circle cx="171.0558" cy="118.5264" r="5.0" stroke="#595959" stroke-width="1.0" fill="#ffffff"/>
<text x="171.0558" y="121.2264" text-anchor="middle" font-family="Helvetica" font-size="7.5" fill="#000000" >G</text>
<circle cx="170.9939" cy="138.5468" r="5.0" stroke="#595959" stroke-width="1.0" fill="#ffffff"/>
<text x="170.9939" y="141.2468" text-anchor="middle" font-family="Helvetica" font-size="7.5" fill="#000000" >A</text>
<circle cx="170.9549" cy="158.5482" r="5.0" stroke="#595959" stroke-width="1.0" fill="#ffffff"/>
<text x="170.9549" y="161.2482" text-anchor="middle" font-family="Helvetica" font-size="7.5" fill="#000000" >A</text>
<circle cx="170.8121" cy="178.5464" r="5.0" stroke="#595959" stroke-width="1.0" fill="#ffffff"/>
<text x="170.8121" y="181.2464" text-anchor="middle" font-family="Helvetica" font-size="7.5" fill="#000000" >C</text>
<circle cx="170.6888" cy="198.5433" r="5.0" stroke="#595959" stroke-width="1.0" fill="#ffffff"/>
<text x="170.6888" y="201.2433" text-anchor="middle" font-family="Helvetica" font-size="7.5" fill="#000000" >U</text>
<circle cx="170.5452" cy="218.5394" r="5.0" stroke="#595959" stroke-width="1.0" fill="#ffffff"/>
<text x="170.5452" y="221.2394" text-anchor="middle" font-family="Helvetica" font-size="7.5" fill="#000000" >G</text>
<circle cx="170.4826" cy="238.5364" r="5.0" stroke="#595959" stroke-width="1.0" fill="#ffffff"/>
<text x="170.4826" y="241.2364" text-anchor="middle" font-family="Helvetica" font-size="7.5" fill="#000000" >C</text>
<circle cx="170.4384" cy="258.5347" r="5.0" stroke="#595959" stroke-width="1.0" fill="#ffffff"/>
<text x="170.4384" y="261.2347" text-anchor="middle" font-family="Helvetica" font-size="7.5" fill="#000000" >C</text>
</svg>