<?xml version="1.0" encoding="UTF-8"?>
<!DOCTYPE svg PUBLIC "-//W3C//DTD SVG 1.1//EN" 
"http://www.w3.org/Graphics/SVG/1.1/DTD/svg11.dtd">

<svg version="1.1"
   width="308px"
   height="308px"
xmlns="http://www.w3.org/2000/svg">
    <rect width="100%" height="100%" fill="white"/>

  <line x1="137.0917" y1="218.4065" x2="137.2084" y2="198.4432" stroke="#595959"
     style="stroke-width:2;stroke-miterlimit:4;stroke-dasharray:1,1;stroke-dashoffset:0" />
  <line x1="137.1533" y1="98.9268" x2="134.5966" y2="79.2261" stroke="#595959"
     style="stroke-width:2;stroke-miterlimit:4;stroke-dasharray:1,1;stroke-dashoffset:0" />
  <line x1="134.5966" y1="79.2261" x2="137.8179" y2="59.5390" stroke="#595959"
     style="stroke-width:2;stroke-miterlimit:4;stroke-dasharray:1,1;stroke-dashoffset:0" />
  <line x1="137.8179" y1="59.5390" x2="155.3894" y2="50.0581" stroke="#595959"
     style="stroke-width:2;stroke-miterlimit:4;stroke-dasharray:1,1;stroke-dashoffset:0" />
  <line x1="155.3894" y1="50.0581" x2="172.6809" y2="60.0714" stroke="#595959"
     style="stroke-width:2;stroke-miterlimit:4;stroke-dasharray:1,1;stroke-dashoffset:0" />
  <line x1="172.6809" y1="60.0714" x2="176.8281" y2="79.6248" stroke="#595959"
     style="stroke-width:2;stroke-miterlimit:4;stroke-dasharray:1,1;stroke-dashoffset:0" />
  <line x1="176.8281" y1="79.6248" x2="169.7002" y2="98.3297" stroke="#595959"
     style="stroke-width:2;stroke-miterlimit:4;stroke-dasharray:1,1;stroke-dashoffset:0" />
  <line x1="169.9878" y1="198.5180" x2="169.7618" y2="218.4867" stroke="#595959"
     style="stroke-width:2;stroke-miterlimit:4;stroke-dasharray:1,1;stroke-dashoffset:0" />
  <line x1="137.3554" y1="156.9748" x2="170.2672" y2="156.9630" stroke="#e89000" stroke-width="1.0" />
  <circle cx="153.8113" cy="156.9689" r="2.25" stroke="#e89000" stroke-width="1.0" fill="#e89000"/>
  <line x1="137.3566" y1="160.1748" x2="170.2684" y2="160.1630" stroke="#9b0dba" stroke-width="1.0" />
  <path d="M 148.0625 162.4189 L 148.0625 157.9189 L 152.5625 157.9189 L 152.5625 162.4189 z" style="stroke:#9b0dba;stroke-width:1.0" fill="#9b0dba" 
    transform="rotate(-0.0204 153.8125 160.1689)"/>
  <path d="M 155.5625 162.4189 L 155.5625 157.9189 L 159.5625 160.1689 z" style="stroke:#9b0dba;stroke-width:1.0" fill="#9b0dba"
    transform="rotate(-0.0204 153.8125 160.1689)"/>
  <line x1="137.1533" y1="98.9268" x2="169.7002" y2="98.3297" stroke="#6801dc" stroke-width="1.0" />
  <circle cx="153.4268" cy="98.6283" r="2.25" stroke="#6801dc" stroke-width="1.0" fill="#6801dc"/>
  <line x1="137.0608" y1="258.3686" x2="137.0895" y2="238.3820" stroke="#d35200" stroke-width="1.0" />
  <rect
     style="fill:#ffffff;fill-opacity:1;fill-rule:nonzero;stroke:none"
     width="2"
     height="2"
     x="136.5751"
     y="247.3753"
     transform="rotate(-89.9177 137.0751 248.3753)" /> 
  <path
     style="fill:none;stroke:#d35200;stroke-width:1px;stroke-linecap:butt;stroke-linejoin:miter;stroke-opacity:1"
     d="m 137.0751,246.3753 2,2 -2,2 m -2.370121,-4 2,2 -2,2"
     transform="rotate(-89.9177 137.0751 248.3753)"/>
  <line x1="137.0575" y1="259.6186" x2="169.6541" y2="259.7039" stroke="#270026" stroke-width="1.0" />
  <line x1="137.0640" y1="257.1186" x2="169.6607" y2="257.2039" stroke="#270026" stroke-width="1.0" />
  <line x1="137.0895" y1="238.3820" x2="137.0917" y2="218.4065" stroke="#000000" stroke-width="1.0" />
  <rect
     style="fill:#ffffff;fill-opacity:1;fill-rule:nonzero;stroke:none"
     width="2"
     height="2"
     x="136.5906"
     y="227.3942"
     transform="rotate(-89.9935 137.0906 228.3942)" /> 
  <path
     style="fill:none;stroke:#000000;stroke-width:1px;stroke-linecap:butt;stroke-linejoin:miter;stroke-opacity:1"
     d="m 137.0906,226.3942 2,2 -2,2 m -2.370121,-4 2,2 -2,2"
     transform="rotate(-89.9935 137.0906 228.3942)"/>
  <line x1="137.0863" y1="239.6320" x2="169.7160" y2="239.7146" stroke="#33003e" stroke-width="1.0" />
  <line x1="137.0926" y1="237.1320" x2="169.7223" y2="237.2146" stroke="#33003e" stroke-width="1.0" />
  <line x1="137.0895" y1="238.3820" x2="169.6574" y2="258.4539" stroke="#df7200" stroke-width="1.0" />
  <rect
     style="fill:#ffffff;stroke:none"
     width="5.5"
     height="2"
     x="150.6234"
     y="247.4180" 
     transform="rotate(31.6459 153.3734 248.4180)"    /> 
  <path
     style="fill:none;stroke:#df7200;stroke-width:1px;stroke-linecap:butt;stroke-linejoin:miter;stroke-opacity:1"
    d="m 154.1234,246.4180 2,2 -2,2 m -1.5,-4 -2,2 2,2" transform="rotate(31.6459 153.3734 248.4180)"/>
  <line x1="137.0887" y1="219.6565" x2="169.7587" y2="219.7367" stroke="#200019" stroke-width="1.0" />
  <line x1="137.0948" y1="217.1565" x2="169.7648" y2="217.2367" stroke="#200019" stroke-width="1.0" />
  <line x1="137.2084" y1="198.4432" x2="137.3214" y2="178.4984" stroke="#8605fc" stroke-width="1.0" />
  <rect
     style="fill:#ffffff;fill-opacity:1;fill-rule:nonzero;stroke:none"
     width="2"
     height="2"
     x="136.7649"
     y="187.4708"
     transform="rotate(-89.6756 137.2649 188.4708)" /> 
  <path
     style="fill:none;stroke:#8605fc;stroke-width:1px;stroke-linecap:butt;stroke-linejoin:miter;stroke-opacity:1"
     d="m 137.2649,186.4708 2,2 -2,2 m -2.370121,-4 2,2 -2,2"
     transform="rotate(-89.6756 137.2649 188.4708)"/>
  <line x1="137.2084" y1="198.4432" x2="169.9878" y2="198.5180" stroke="#33003e" stroke-width="1.0" />
  <line x1="137.2084" y1="198.4432" x2="169.7618" y2="218.4867" stroke="#17000d" stroke-width="1.0" />
  <rect
     style="fill:#ffffff;stroke:none"
     width="5.5"
     height="2"
     x="150.7351"
     y="207.4650" 
     transform="rotate(31.6212 153.4851 208.4650)"    /> 
  <path
     style="fill:none;stroke:#17000d;stroke-width:1px;stroke-linecap:butt;stroke-linejoin:miter;stroke-opacity:1"
    d="m 154.2351,206.4650 2,2 -2,2 m -1.5,-4 -2,2 2,2" transform="rotate(31.6212 153.4851 208.4650)"/>
  <line x1="137.3214" y1="178.4984" x2="137.3560" y2="158.5748" stroke="#e78c00" stroke-width="1.0" />
  <rect
     style="fill:#ffffff;fill-opacity:1;fill-rule:nonzero;stroke:none"
     width="2"
     height="2"
     x="136.8387"
     y="167.5366"
     transform="rotate(-89.9005 137.3387 168.5366)" /> 
  <path
     style="fill:none;stroke:#e78c00;stroke-width:1px;stroke-linecap:butt;stroke-linejoin:miter;stroke-opacity:1"
     d="m 137.3387,166.5366 2,2 -2,2 m -2.370121,-4 2,2 -2,2"
     transform="rotate(-89.9005 137.3387 168.5366)"/>
  <line x1="137.3196" y1="179.7484" x2="170.0973" y2="179.7961" stroke="#2d0032" stroke-width="1.0" />
  <line x1="137.3232" y1="177.2484" x2="170.1009" y2="177.2961" stroke="#2d0032" stroke-width="1.0" />
  <line x1="137.3560" y1="158.5748" x2="137.4553" y2="138.6739" stroke="#7102f1" stroke-width="1.0" />
  <rect
     style="fill:#ffffff;fill-opacity:1;fill-rule:nonzero;stroke:none"
     width="2"
     height="2"
     x="136.9056"
     y="147.6243"
     transform="rotate(-89.7141 137.4056 148.6243)" /> 
  <path
     style="fill:none;stroke:#7102f1;stroke-width:1px;stroke-linecap:butt;stroke-linejoin:miter;stroke-opacity:1"
     d="m 137.4056,146.6243 2,2 -2,2 m -2.370121,-4 2,2 -2,2"
     transform="rotate(-89.7141 137.4056 148.6243)"/>
  <line x1="137.3560" y1="158.5748" x2="170.0991" y2="178.5461" stroke="#d14c00" stroke-width="1.0" />
  <rect
     style="fill:#ffffff;stroke:none"
     width="5.5"
     height="2"
     x="150.9775"
     y="167.5604" 
     transform="rotate(31.3807 153.7275 168.5604)"    /> 
  <path
     style="fill:none;stroke:#d14c00;stroke-width:1px;stroke-linecap:butt;stroke-linejoin:miter;stroke-opacity:1"
    d="m 154.4775,166.5604 2,2 -2,2 m -1.5,-4 -2,2 2,2" transform="rotate(31.3807 153.7275 168.5604)"/>
  <line x1="137.4553" y1="138.6739" x2="137.4383" y2="118.7938" stroke="#8405fd" stroke-width="1.0" />
  <rect
     style="fill:#ffffff;fill-opacity:1;fill-rule:nonzero;stroke:none"
     width="2"
     height="2"
     x="136.9468"
     y="127.7339"
     transform="rotate(269.9510 137.4468 128.7339)" /> 
  <path
     style="fill:none;stroke:#8405fd;stroke-width:1px;stroke-linecap:butt;stroke-linejoin:miter;stroke-opacity:1"
     d="m 137.4468,126.7339 2,2 -2,2 m -2.370121,-4 2,2 -2,2"
     transform="rotate(269.9510 137.4468 128.7339)"/>
  <line x1="137.4553" y1="138.6739" x2="170.2557" y2="138.5634" stroke="#400062" stroke-width="1.0" />
  <line x1="137.4383" y1="118.7938" x2="137.1533" y2="98.9268" stroke="#200019" stroke-width="1.0" />
  <rect
     style="fill:#ffffff;fill-opacity:1;fill-rule:nonzero;stroke:none"
     width="2"
     height="2"
     x="136.7958"
     y="107.8603"
     transform="rotate(269.1782 137.2958 108.8603)" /> 
  <path
     style="fill:none;stroke:#200019;stroke-width:1px;stroke-linecap:butt;stroke-linejoin:miter;stroke-opacity:1"
     d="m 137.2958,106.8603 2,2 -2,2 m -2.370121,-4 2,2 -2,2"
     transform="rotate(269.1782 137.2958 108.8603)"/>
  <line x1="137.4500" y1="120.0438" x2="170.0751" y2="119.7371" stroke="#2d0032" stroke-width="1.0" />
  <line x1="137.4265" y1="117.5439" x2="170.0516" y2="117.2372" stroke="#2d0032" stroke-width="1.0" />
  <line x1="137.4383" y1="118.7938" x2="170.2557" y2="138.5634" stroke="#dd6b00" stroke-width="1.0" />
  <rect
     style="fill:#ffffff;stroke:none"
     width="5.5"
     height="2"
     x="151.0970"
     y="127.6786" 
     transform="rotate(31.0652 153.8470 128.6786)"    /> 
  <path
     style="fill:none;stroke:#dd6b00;stroke-width:1px;stroke-linecap:butt;stroke-linejoin:miter;stroke-opacity:1"
    d="m 154.5970,126.6786 2,2 -2,2 m -1.5,-4 -2,2 2,2" transform="rotate(31.0652 153.8470 128.6786)"/>
  <line x1="134.5966" y1="79.2261" x2="169.7002" y2="98.3297" stroke="#480079" stroke-width="1.0" />
  <rect
     style="fill:#ffffff;stroke:none"
     width="5.5"
     height="2"
     x="149.3984"
     y="87.7779" 
     transform="rotate(28.5554 152.1484 88.7779)"    /> 
  <path
     style="fill:none;stroke:#480079;stroke-width:1px;stroke-linecap:butt;stroke-linejoin:miter;stroke-opacity:1"
    d="m 152.8984,86.7779 2,2 -2,2 m -1.5,-4 -2,2 2,2" transform="rotate(28.5554 152.1484 88.7779)"/>
  <line x1="169.7002" y1="98.3297" x2="170.0633" y2="118.4871" stroke="#f1b400" stroke-width="1.0" />
  <rect
     style="fill:#ffffff;fill-opacity:1;fill-rule:nonzero;stroke:none"
     width="2"
     height="2"
     x="169.3818"
     y="107.4084"
     transform="rotate(88.9679 169.8818 108.4084)" /> 
  <path
     style="fill:none;stroke:#f1b400;stroke-width:1px;stroke-linecap:butt;stroke-linejoin:miter;stroke-opacity:1"
     d="m 169.8818,106.4084 2,2 -2,2 m -2.370121,-4 2,2 -2,2"
     transform="rotate(88.9679 169.8818 108.4084)"/>
  <line x1="170.0633" y1="118.4871" x2="170.2557" y2="138.5634" stroke="#ca4000" stroke-width="1.0" />
  <rect
     style="fill:#ffffff;fill-opacity:1;fill-rule:nonzero;stroke:none"
     width="2"
     height="2"
     x="169.6595"
     y="127.5253"
     transform="rotate(89.4510 170.1595 128.5253)" /> 
  <path
     style="fill:none;stroke:#ca4000;stroke-width:1px;stroke-linecap:butt;stroke-linejoin:miter;stroke-opacity:1"
     d="m 170.1595,126.5253 2,2 -2,2 m -2.370121,-4 2,2 -2,2"
     transform="rotate(89.4510 170.1595 128.5253)"/>
  <line x1="170.2557" y1="138.5634" x2="170.2678" y2="158.5630" stroke="#c83b00" stroke-width="1.0" />
  <rect
     style="fill:#ffffff;fill-opacity:1;fill-rule:nonzero;stroke:none"
     width="2"
     height="2"
     x="169.7618"
     y="147.5632"
     transform="rotate(89.9653 170.2618 148.5632)" /> 
  <path
     style="fill:none;stroke:#c83b00;stroke-width:1px;stroke-linecap:butt;stroke-linejoin:miter;stroke-opacity:1"
     d="m 170.2618,146.5632 2,2 -2,2 m -2.370121,-4 2,2 -2,2"
     transform="rotate(89.9653 170.2618 148.5632)"/>
  <line x1="170.2678" y1="158.5630" x2="170.0991" y2="178.5461" stroke="#e07500" stroke-width="1.0" />
  <rect
     style="fill:#ffffff;fill-opacity:1;fill-rule:nonzero;stroke:none"
     width="2"
     height="2"
     x="169.6835"
     y="167.5546"
     transform="rotate(90.4837 170.1835 168.5546)" /> 
  <path
     style="fill:none;stroke:#e07500;stroke-width:1px;stroke-linecap:butt;stroke-linejoin:miter;stroke-opacity:1"
     d="m 170.1835,166.5546 2,2 -2,2 m -2.370121,-4 2,2 -2,2"
     transform="rotate(90.4837 170.1835 168.5546)"/>
  <line x1="170.0991" y1="178.5461" x2="169.9878" y2="198.5180" stroke="#9309df" stroke-width="1.0" />
  <rect
     style="fill:#ffffff;fill-opacity:1;fill-rule:nonzero;stroke:none"
     width="2"
     height="2"
     x="169.5435"
     y="187.5321"
     transform="rotate(90.3193 170.0435 188.5321)" /> 
  <path
     style="fill:none;stroke:#9309df;stroke-width:1px;stroke-linecap:butt;stroke-linejoin:miter;stroke-opacity:1"
     d="m 170.0435,186.5321 2,2 -2,2 m -2.370121,-4 2,2 -2,2"
     transform="rotate(90.3193 170.0435 188.5321)"/>
  <line x1="169.7618" y1="218.4867" x2="169.7191" y2="238.4646" stroke="#000000" stroke-width="1.0" />
  <rect
     style="fill:#ffffff;fill-opacity:1;fill-rule:nonzero;stroke:none"
     width="2"
     height="2"
     x="169.2405"
     y="227.4757"
     transform="rotate(90.1223 169.7405 228.4757)" /> 
  <path
     style="fill:none;stroke:#000000;stroke-width:1px;stroke-linecap:butt;stroke-linejoin:miter;stroke-opacity:1"
     d="m 169.7405,226.4757 2,2 -2,2 m -2.370121,-4 2,2 -2,2"
     transform="rotate(90.1223 169.7405 228.4757)"/>
  <line x1="169.7191" y1="238.4646" x2="169.6574" y2="258.4539" stroke="#b92500" stroke-width="1.0" />
  <rect
     style="fill:#ffffff;fill-opacity:1;fill-rule:nonzero;stroke:none"
     width="2"
     height="2"
     x="169.1883"
     y="247.4593"
     transform="rotate(90.1769 169.6883 248.4593)" /> 
  <path
     style="fill:none;stroke:#b92500;stroke-width:1px;stroke-linecap:butt;stroke-linejoin:miter;stroke-opacity:1"
     d="m 169.6883,246.4593 2,2 -2,2 m -2.370121,-4 2,2 -2,2"
     transform="rotate(90.1769 169.6883 248.4593)"/>
<circle cx="137.0608" cy="258.3686" r="5.0" stroke="#595959" stroke-width="1.0" fill="#ffffff"/>
<text x="137.0608" y="261.0686" text-anchor="middle" font-family="Helvetica" font-size="7.5" fill="#000000" >G</text>
<circle cx="137.0895" cy="238.3820" r="5.0" stroke="#595959" stroke-width="1.0" fill="#ffffff"/>
<text x="137.0895" y="241.0820" text-anchor="middle" font-family="Helvetica" font-size="7.5" fill="#000000" >G</text>
<circle cx="137.0917" cy="218.4065" r="5.0" stroke="#595959" stroke-width="1.0" fill="#ffffff"/>
<text x="137.0917" y="221.1065" text-anchor="middle" font-family="Helvetica" font-size="7.5" fill="#000000" >C</text>
<circle cx="137.2084" cy="198.4432" r="5.0" stroke="#595959" stroke-width="1.0" fill="#ffffff"/>
<text x="137.2084" y="201.1432" text-anchor="middle" font-family="Helvetica" font-size="7.5" fill="#000000" >A</text>
<circle cx="137.3214" cy="178.4984" r="5.0" stroke="#595959" stroke-width="1.0" fill="#ffffff"/>
<text x="137.3214" y="181.1984" text-anchor="middle" font-family="Helvetica" font-size="7.5" fill="#000000" >G</text>
<circle cx="137.3560" cy="158.5748" r="5.0" stroke="#595959" stroke-width="1.0" fill="#ffffff"/>
<text x="137.3560" y="161.2748" text-anchor="middle" font-family="Helvetica" font-size="7.5" fill="#000000" >A</text>
<circle cx="137.4553" cy="138.6739" r="5.0" stroke="#595959" stroke-width="1.0" fill="#ffffff"/>
<text x="137.4553" y="141.3739" text-anchor="middle" font-family="Helvetica" font-size="7.5" fill="#000000" >U</text>
<circle cx="137.4383" cy="118.7938" r="5.0" stroke="#595959" stroke-width="1.0" fill="#ffffff"/>
<text x="137.4383" y="121.4938" text-anchor="middle" font-family="Helvetica" font-size="7.5" fill="#000000" >C</text>
<circle cx="137.1533" cy="98.9268" r="5.0" stroke="#595959" stroke-width="1.0" fill="#ffffff"/>
<text x="137.1533" y="101.6268" text-anchor="middle" font-family="Helvetica" font-size="7.5" fill="#000000" >U</text>
<circle cx="134.5966" cy="79.2261" r="5.0" stroke="#595959" stroke-width="1.0" fill="#ffffff"/>
<text x="134.5966" y="81.9261" text-anchor="middle" font-family="Helvetica" font-size="7.5" fill="#000000" >G</text>
<circle cx="137.8179" cy="59.5390" r="5.0" stroke="#595959" stroke-width="1.0" fill="#ffffff"/>
<text x="137.8179" y="62.2390" text-anchor="middle" font-family="Helvetica" font-size="7.5" fill="#000000" >U</text>
<circle cx="155.3894" cy="50.0581" r="5.0" stroke="#595959" stroke-width="1.0" fill="#ffffff"/>
<text x="155.3894" y="52.7581" text-anchor="middle" font-family="Helvetica" font-size="7.5" fill="#000000" >A</text>
<circle cx="172.6809" cy="60.0714" r="5.0" stroke="#595959" stroke-width="1.0" fill="#ffffff"/>
<text x="172.6809" y="62.7714" text-anchor="middle" font-family="Helvetica" font-size="7.5" fill="#000000" >A</text>
<circle cx="176.8281" cy="79.6248" r="5.0" stroke="#595959" stroke-width="1.0" fill="#ffffff"/>
<text x="176.8281" y="82.3248" text-anchor="middle" font-family="Helvetica" font-size="7.5" fill="#000000" >U</text>
<circle cx="169.7002" cy="98.3297" r="5.0" stroke="#595959" stroke-width="1.0" fill="#ffffff"/>
<text x="169.7002" y="101.0297" text-anchor="middle" font-family="Helvetica" font-size="7.5" fill="#000000" >A</text>
<circle cx="170.0633" cy="118.4871" r="5.0" stroke="#595959" stroke-width="1.0" fill="#ffffff"/>
<text x="170.0633" y="121.1871" text-anchor="middle" font-family="Helvetica" font-size="7.5" fill="#000000" >G</text>
<circle cx="170.2557" cy="138.5634" r="5.0" stroke="#595959" stroke-width="1.0" fill="#ffffff"/>
<text x="170.2557" y="141.2634" text-anchor="middle" font-family="Helvetica" font-size="7.5" fill="#000000" >A</text>
<circle cx="170.2678" cy="158.5630" r="5.0" stroke="#595959" stroke-width="1.0" fill="#ffffff"/>
<text x="170.2678" y="161.2630" text-anchor="middle" font-family="Helvetica" font-size="7.5" fill="#000000" >A</text>
<circle cx="170.0991" cy="178.5461" r="5.0" stroke="#595959" stroke-width="1.0" fill="#ffffff"/>
<text x="170.0991" y="181.2461" text-anchor="middle" font-family="Helvetica" font-size="7.5" fill="#000000" >C</text>
<circle cx="169.9878" cy="198.5180" r="5.0" stroke="#595959" stroke-width="1.0" fill="#ffffff"/>
<text x="169.9878" y="201.2180" text-anchor="middle" font-family="Helvetica" font-size="7.5" fill="#000000" >U</text>
<circle cx="169.7618" cy="218.4867" r="5.0" stroke="#595959" stroke-width="1.0" fill="#ffffff"/>
<text x="169.7618" y="221.1867" text-anchor="middle" font-family="Helvetica" font-size="7.5" fill="#000000" >G</text>
<circle cx="169.7191" cy="238.4646" r="5.0" stroke="#595959" stroke-width="1.0" fill="#ffffff"/>
<text x="169.7191" y="241.1646" text-anchor="middle" font-family="Helvetica" font-size="7.5" fill="#000000" >C</text>
<circle cx="169.6574" cy="258.4539" r="5.0" stroke="#595959" stroke-width="1.0" fill="#ffffff"/>
<text x="169.6574" y="261.1539" text-anchor="middle" font-family="Helvetica" font-size="7.5" fill="#000000" >C</text>
</svg>