<?xml version="1.0" encoding="UTF-8"?>
<!DOCTYPE svg PUBLIC "-//W3C//DTD SVG 1.1//EN" 
"http://www.w3.org/Graphics/SVG/1.1/DTD/svg11.dtd">

<svg version="1.1"
   width="308px"
   height="308px"
xmlns="http://www.w3.org/2000/svg">
    <rect width="100%" height="100%" fill="white"/>

  <line x1="136.2980" y1="217.7718" x2="136.8515" y2="197.7612" stroke="#595959"
     style="stroke-width:2;stroke-miterlimit:4;stroke-dasharray:1,1;stroke-dashoffset:0" />
  <line x1="134.9087" y1="76.1322" x2="139.7390" y2="56.6299" stroke="#595959"
     style="stroke-width:2;stroke-miterlimit:4;stroke-dasharray:1,1;stroke-dashoffset:0" />
  <line x1="139.7390" y1="56.6299" x2="159.6518" y2="55.0835" stroke="#595959"
     style="stroke-width:2;stroke-miterlimit:4;stroke-dasharray:1,1;stroke-dashoffset:0" />
  <line x1="159.6518" y1="55.0835" x2="167.8784" y2="73.8570" stroke="#595959"
     style="stroke-width:2;stroke-miterlimit:4;stroke-dasharray:1,1;stroke-dashoffset:0" />
  <line x1="167.8784" y1="73.8570" x2="185.3846" y2="83.2501" stroke="#595959"
     style="stroke-width:2;stroke-miterlimit:4;stroke-dasharray:1,1;stroke-dashoffset:0" />
  <line x1="185.3846" y1="83.2501" x2="169.1610" y2="95.1535" stroke="#595959"
     style="stroke-width:2;stroke-miterlimit:4;stroke-dasharray:1,1;stroke-dashoffset:0" />
  <line x1="169.6252" y1="198.5009" x2="168.9958" y2="218.5415" stroke="#595959"
     style="stroke-width:2;stroke-miterlimit:4;stroke-dasharray:1,1;stroke-dashoffset:0" />
  <line x1="137.4616" y1="157.7083" x2="170.4966" y2="157.8900" stroke="#db6700" stroke-width="1.0" />
  <circle cx="153.9791" cy="157.7991" r="2.25" stroke="#db6700" stroke-width="1.0" fill="#db6700"/>
  <line x1="137.3813" y1="135.9888" x2="170.4103" y2="135.5761" stroke="#e27c00" stroke-width="1.0" />
  <circle cx="153.8958" cy="135.7824" r="2.25" stroke="#e27c00" stroke-width="1.0" fill="#e27c00"/>
  <line x1="136.1329" y1="96.7766" x2="167.8784" y2="73.8570" stroke="#e17900" stroke-width="1.0" />
  <circle cx="152.0056" cy="85.3168" r="2.25" stroke="#e17900" stroke-width="1.0" fill="#e17900"/>
  <line x1="136.2114" y1="98.3746" x2="169.2395" y2="96.7516" stroke="#eda600" stroke-width="1.0" />
  <circle cx="152.7255" cy="97.5631" r="2.25" stroke="#eda600" stroke-width="1.0" fill="#eda600"/>
  <line x1="134.9087" y1="76.1322" x2="167.8784" y2="73.8570" stroke="#33003e" stroke-width="1.0" />
  <path d="M 145.6435 77.2446 L 145.6435 72.7446 L 150.1435 72.7446 L 150.1435 77.2446 z" style="stroke:#33003e;stroke-width:1.0" fill="#33003e" 
    transform="rotate(176.0523 151.3935 74.9946)"/>
  <path d="M 153.1435 77.2446 L 153.1435 72.7446 L 157.1435 74.9946 z" style="stroke:#33003e;stroke-width:1.0" fill="#33003e"
    transform="rotate(176.0523 151.3935 74.9946)"/>
  <line x1="135.2405" y1="257.7598" x2="135.7193" y2="237.7655" stroke="#d24f00" stroke-width="1.0" />
  <rect
     style="fill:#ffffff;fill-opacity:1;fill-rule:nonzero;stroke:none"
     width="2"
     height="2"
     x="134.9799"
     y="246.7626"
     transform="rotate(-88.6281 135.4799 247.7626)" /> 
  <path
     style="fill:none;stroke:#d24f00;stroke-width:1px;stroke-linecap:butt;stroke-linejoin:miter;stroke-opacity:1"
     d="m 135.4799,245.7626 2,2 -2,2 m -2.370121,-4 2,2 -2,2"
     transform="rotate(-88.6281 135.4799 247.7626)"/>
  <line x1="135.2105" y1="259.0094" x2="167.8205" y2="259.7912" stroke="#3c0057" stroke-width="1.0" />
  <line x1="135.2704" y1="256.5101" x2="167.8804" y2="257.2919" stroke="#3c0057" stroke-width="1.0" />
  <line x1="135.7193" y1="237.7655" x2="136.2980" y2="217.7718" stroke="#000000" stroke-width="1.0" />
  <rect
     style="fill:#ffffff;fill-opacity:1;fill-rule:nonzero;stroke:none"
     width="2"
     height="2"
     x="135.5087"
     y="226.7686"
     transform="rotate(-88.3420 136.0087 227.7686)" /> 
  <path
     style="fill:none;stroke:#000000;stroke-width:1px;stroke-linecap:butt;stroke-linejoin:miter;stroke-opacity:1"
     d="m 136.0087,225.7686 2,2 -2,2 m -2.370121,-4 2,2 -2,2"
     transform="rotate(-88.3420 136.0087 227.7686)"/>
  <line x1="135.6895" y1="239.0151" x2="168.3389" y2="239.7952" stroke="#2d0032" stroke-width="1.0" />
  <line x1="135.7492" y1="236.5158" x2="168.3987" y2="237.2959" stroke="#2d0032" stroke-width="1.0" />
  <line x1="135.7193" y1="237.7655" x2="167.8504" y2="258.5416" stroke="#eb9d00" stroke-width="1.0" />
  <rect
     style="fill:#ffffff;stroke:none"
     width="5.5"
     height="2"
     x="149.0349"
     y="247.1535" 
     transform="rotate(32.8869 151.7849 248.1535)"    /> 
  <path
     style="fill:none;stroke:#eb9d00;stroke-width:1px;stroke-linecap:butt;stroke-linejoin:miter;stroke-opacity:1"
    d="m 152.5349,246.1535 2,2 -2,2 m -1.5,-4 -2,2 2,2" transform="rotate(32.8869 151.7849 248.1535)"/>
  <line x1="136.2686" y1="219.0214" x2="168.9664" y2="219.7912" stroke="#17000d" stroke-width="1.0" />
  <line x1="136.3275" y1="216.5221" x2="169.0253" y2="217.2919" stroke="#17000d" stroke-width="1.0" />
  <line x1="136.8515" y1="197.7612" x2="137.2813" y2="177.7439" stroke="#9d0eb1" stroke-width="1.0" />
  <rect
     style="fill:#ffffff;fill-opacity:1;fill-rule:nonzero;stroke:none"
     width="2"
     height="2"
     x="136.5664"
     y="186.7525"
     transform="rotate(-88.7699 137.0664 187.7525)" /> 
  <path
     style="fill:none;stroke:#9d0eb1;stroke-width:1px;stroke-linecap:butt;stroke-linejoin:miter;stroke-opacity:1"
     d="m 137.0664,185.7525 2,2 -2,2 m -2.370121,-4 2,2 -2,2"
     transform="rotate(-88.7699 137.0664 187.7525)"/>
  <line x1="136.8515" y1="197.7612" x2="169.6252" y2="198.5009" stroke="#400062" stroke-width="1.0" />
  <line x1="136.8515" y1="197.7612" x2="168.9958" y2="218.5415" stroke="#17000d" stroke-width="1.0" />
  <rect
     style="fill:#ffffff;stroke:none"
     width="5.5"
     height="2"
     x="150.1737"
     y="207.1514" 
     transform="rotate(32.8814 152.9237 208.1514)"    /> 
  <path
     style="fill:none;stroke:#17000d;stroke-width:1px;stroke-linecap:butt;stroke-linejoin:miter;stroke-opacity:1"
    d="m 153.6737,206.1514 2,2 -2,2 m -1.5,-4 -2,2 2,2" transform="rotate(32.8814 152.9237 208.1514)"/>
  <line x1="137.2813" y1="177.7439" x2="137.4616" y2="157.7083" stroke="#8806f9" stroke-width="1.0" />
  <rect
     style="fill:#ffffff;fill-opacity:1;fill-rule:nonzero;stroke:none"
     width="2"
     height="2"
     x="136.8715"
     y="166.7261"
     transform="rotate(-89.4845 137.3715 167.7261)" /> 
  <path
     style="fill:none;stroke:#8806f9;stroke-width:1px;stroke-linecap:butt;stroke-linejoin:miter;stroke-opacity:1"
     d="m 137.3715,165.7261 2,2 -2,2 m -2.370121,-4 2,2 -2,2"
     transform="rotate(-89.4845 137.3715 167.7261)"/>
  <line x1="137.2594" y1="178.9937" x2="170.1567" y2="179.5709" stroke="#520099" stroke-width="1.0" />
  <line x1="137.3033" y1="176.4941" x2="170.2006" y2="177.0713" stroke="#520099" stroke-width="1.0" />
  <line x1="137.4616" y1="157.7083" x2="137.4013" y2="137.5887" stroke="#8b07f3" stroke-width="1.0" />
  <rect
     style="fill:#ffffff;fill-opacity:1;fill-rule:nonzero;stroke:none"
     width="2"
     height="2"
     x="136.9314"
     y="146.6485"
     transform="rotate(269.8283 137.4314 147.6485)" /> 
  <path
     style="fill:none;stroke:#8b07f3;stroke-width:1px;stroke-linecap:butt;stroke-linejoin:miter;stroke-opacity:1"
     d="m 137.4314,145.6485 2,2 -2,2 m -2.370121,-4 2,2 -2,2"
     transform="rotate(269.8283 137.4314 147.6485)"/>
  <line x1="137.4013" y1="137.5887" x2="136.9688" y2="117.2605" stroke="#9d0eb1" stroke-width="1.0" />
  <rect
     style="fill:#ffffff;fill-opacity:1;fill-rule:nonzero;stroke:none"
     width="2"
     height="2"
     x="136.6851"
     y="126.4246"
     transform="rotate(268.7812 137.1851 127.4246)" /> 
  <path
     style="fill:none;stroke:#9d0eb1;stroke-width:1px;stroke-linecap:butt;stroke-linejoin:miter;stroke-opacity:1"
     d="m 137.1851,125.4246 2,2 -2,2 m -2.370121,-4 2,2 -2,2"
     transform="rotate(268.7812 137.1851 127.4246)"/>
  <line x1="137.4213" y1="139.1885" x2="170.4503" y2="138.7758" stroke="#8a06f6" stroke-width="1.0" />
  <line x1="136.9688" y1="117.2605" x2="136.1329" y2="96.7766" stroke="#940ad9" stroke-width="1.0" />
  <rect
     style="fill:#ffffff;fill-opacity:1;fill-rule:nonzero;stroke:none"
     width="2"
     height="2"
     x="136.0509"
     y="106.0185"
     transform="rotate(267.6631 136.5509 107.0185)" /> 
  <path
     style="fill:none;stroke:#940ad9;stroke-width:1px;stroke-linecap:butt;stroke-linejoin:miter;stroke-opacity:1"
     d="m 136.5509,105.0185 2,2 -2,2 m -2.370121,-4 2,2 -2,2"
     transform="rotate(267.6631 136.5509 107.0185)"/>
  <line x1="137.0074" y1="118.5099" x2="170.0141" y2="117.4905" stroke="#400062" stroke-width="1.0" />
  <line x1="136.9302" y1="116.0111" x2="169.9370" y2="114.9917" stroke="#400062" stroke-width="1.0" />
  <line x1="136.9688" y1="117.2605" x2="170.4303" y2="137.1759" stroke="#efaf00" stroke-width="1.0" />
  <rect
     style="fill:#ffffff;stroke:none"
     width="5.5"
     height="2"
     x="150.9495"
     y="126.2182" 
     transform="rotate(30.7601 153.6995 127.2182)"    /> 
  <path
     style="fill:none;stroke:#efaf00;stroke-width:1px;stroke-linecap:butt;stroke-linejoin:miter;stroke-opacity:1"
    d="m 154.4495,125.2182 2,2 -2,2 m -1.5,-4 -2,2 2,2" transform="rotate(30.7601 153.6995 127.2182)"/>
  <line x1="136.1329" y1="96.7766" x2="134.9087" y2="76.1322" stroke="#37004b" stroke-width="1.0" />
  <rect
     style="fill:#ffffff;fill-opacity:1;fill-rule:nonzero;stroke:none"
     width="2"
     height="2"
     x="135.0208"
     y="85.4544"
     transform="rotate(266.6063 135.5208 86.4544)" /> 
  <path
     style="fill:none;stroke:#37004b;stroke-width:1px;stroke-linecap:butt;stroke-linejoin:miter;stroke-opacity:1"
     d="m 135.5208,84.4544 2,2 -2,2 m -2.370121,-4 2,2 -2,2"
     transform="rotate(266.6063 135.5208 86.4544)"/>
  <line x1="136.0544" y1="95.1785" x2="169.0824" y2="93.5555" stroke="#5d01be" stroke-width="1.0" />
  <line x1="167.8784" y1="73.8570" x2="169.1610" y2="95.1535" stroke="#5d01be" stroke-width="1.0" />
  <rect
     style="fill:#ffffff;fill-opacity:1;fill-rule:nonzero;stroke:none"
     width="2"
     height="2"
     x="168.0197"
     y="83.5052"
     transform="rotate(86.5535 168.5197 84.5052)" /> 
  <path
     style="fill:none;stroke:#5d01be;stroke-width:1px;stroke-linecap:butt;stroke-linejoin:miter;stroke-opacity:1"
     d="m 168.5197,82.5052 2,2 -2,2 m -2.370121,-4 2,2 -2,2"
     transform="rotate(86.5535 168.5197 84.5052)"/>
  <line x1="169.1610" y1="95.1535" x2="169.9755" y2="116.2411" stroke="#7102f1" stroke-width="1.0" />
  <rect
     style="fill:#ffffff;fill-opacity:1;fill-rule:nonzero;stroke:none"
     width="2"
     height="2"
     x="169.0683"
     y="104.6973"
     transform="rotate(87.7879 169.5683 105.6973)" /> 
  <path
     style="fill:none;stroke:#7102f1;stroke-width:1px;stroke-linecap:butt;stroke-linejoin:miter;stroke-opacity:1"
     d="m 169.5683,103.6973 2,2 -2,2 m -2.370121,-4 2,2 -2,2"
     transform="rotate(87.7879 169.5683 105.6973)"/>
  <line x1="169.9755" y1="116.2411" x2="170.4303" y2="137.1759" stroke="#980bca" stroke-width="1.0" />
  <rect
     style="fill:#ffffff;fill-opacity:1;fill-rule:nonzero;stroke:none"
     width="2"
     height="2"
     x="169.7029"
     y="125.7085"
     transform="rotate(88.7557 170.2029 126.7085)" /> 
  <path
     style="fill:none;stroke:#980bca;stroke-width:1px;stroke-linecap:butt;stroke-linejoin:miter;stroke-opacity:1"
     d="m 170.2029,124.7085 2,2 -2,2 m -2.370121,-4 2,2 -2,2"
     transform="rotate(88.7557 170.2029 126.7085)"/>
  <line x1="170.4303" y1="137.1759" x2="170.4966" y2="157.8900" stroke="#a81568" stroke-width="1.0" />
  <rect
     style="fill:#ffffff;fill-opacity:1;fill-rule:nonzero;stroke:none"
     width="2"
     height="2"
     x="169.9634"
     y="146.5330"
     transform="rotate(89.8166 170.4634 147.5330)" /> 
  <path
     style="fill:none;stroke:#a81568;stroke-width:1px;stroke-linecap:butt;stroke-linejoin:miter;stroke-opacity:1"
     d="m 170.4634,145.5330 2,2 -2,2 m -2.370121,-4 2,2 -2,2"
     transform="rotate(89.8166 170.4634 147.5330)"/>
  <line x1="170.4966" y1="157.8900" x2="170.1786" y2="178.3211" stroke="#b62200" stroke-width="1.0" />
  <rect
     style="fill:#ffffff;fill-opacity:1;fill-rule:nonzero;stroke:none"
     width="2"
     height="2"
     x="169.8376"
     y="167.1055"
     transform="rotate(90.8915 170.3376 168.1055)" /> 
  <path
     style="fill:none;stroke:#b62200;stroke-width:1px;stroke-linecap:butt;stroke-linejoin:miter;stroke-opacity:1"
     d="m 170.3376,166.1055 2,2 -2,2 m -2.370121,-4 2,2 -2,2"
     transform="rotate(90.8915 170.3376 168.1055)"/>
  <line x1="170.1786" y1="178.3211" x2="169.6252" y2="198.5009" stroke="#9d0eb1" stroke-width="1.0" />
  <rect
     style="fill:#ffffff;fill-opacity:1;fill-rule:nonzero;stroke:none"
     width="2"
     height="2"
     x="169.4019"
     y="187.4110"
     transform="rotate(91.5708 169.9019 188.4110)" /> 
  <path
     style="fill:none;stroke:#9d0eb1;stroke-width:1px;stroke-linecap:butt;stroke-linejoin:miter;stroke-opacity:1"
     d="m 169.9019,186.4110 2,2 -2,2 m -2.370121,-4 2,2 -2,2"
     transform="rotate(91.5708 169.9019 188.4110)"/>
  <line x1="168.9958" y1="218.5415" x2="168.3688" y2="238.5456" stroke="#000000" stroke-width="1.0" />
  <rect
     style="fill:#ffffff;fill-opacity:1;fill-rule:nonzero;stroke:none"
     width="2"
     height="2"
     x="168.1823"
     y="227.5435"
     transform="rotate(91.7954 168.6823 228.5435)" /> 
  <path
     style="fill:none;stroke:#000000;stroke-width:1px;stroke-linecap:butt;stroke-linejoin:miter;stroke-opacity:1"
     d="m 168.6823,226.5435 2,2 -2,2 m -2.370121,-4 2,2 -2,2"
     transform="rotate(91.7954 168.6823 228.5435)"/>
  <line x1="168.3688" y1="238.5456" x2="167.8504" y2="258.5416" stroke="#a31289" stroke-width="1.0" />
  <rect
     style="fill:#ffffff;fill-opacity:1;fill-rule:nonzero;stroke:none"
     width="2"
     height="2"
     x="167.6096"
     y="247.5436"
     transform="rotate(91.4850 168.1096 248.5436)" /> 
  <path
     style="fill:none;stroke:#a31289;stroke-width:1px;stroke-linecap:butt;stroke-linejoin:miter;stroke-opacity:1"
     d="m 168.1096,246.5436 2,2 -2,2 m -2.370121,-4 2,2 -2,2"
     transform="rotate(91.4850 168.1096 248.5436)"/>
<circle cx="135.2405" cy="257.7598" r="5.0" stroke="#595959" stroke-width="1.0" fill="#ffffff"/>
<text x="135.2405" y="260.4598" text-anchor="middle" font-family="Helvetica" font-size="7.5" fill="#000000" >G</text>
<circle cx="135.7193" cy="237.7655" r="5.0" stroke="#595959" stroke-width="1.0" fill="#ffffff"/>
<text x="135.7193" y="240.4655" text-anchor="middle" font-family="Helvetica" font-size="7.5" fill="#000000" >G</text>
<circle cx="136.2980" cy="217.7718" r="5.0" stroke="#595959" stroke-width="1.0" fill="#ffffff"/>
<text x="136.2980" y="220.4718" text-anchor="middle" font-family="Helvetica" font-size="7.5" fill="#000000" >C</text>
<circle cx="136.8515" cy="197.7612" r="5.0" stroke="#595959" stroke-width="1.0" fill="#ffffff"/>
<text x="136.8515" y="200.4612" text-anchor="middle" font-family="Helvetica" font-size="7.5" fill="#000000" >A</text>
<circle cx="137.2813" cy="177.7439" r="5.0" stroke="#595959" stroke-width="1.0" fill="#ffffff"/>
<text x="137.2813" y="180.4439" text-anchor="middle" font-family="Helvetica" font-size="7.5" fill="#000000" >G</text>
<circle cx="137.4616" cy="157.7083" r="5.0" stroke="#595959" stroke-width="1.0" fill="#ffffff"/>
<text x="137.4616" y="160.4083" text-anchor="middle" font-family="Helvetica" font-size="7.5" fill="#000000" >A</text>
<circle cx="137.4013" cy="137.5887" r="5.0" stroke="#595959" stroke-width="1.0" fill="#ffffff"/>
<text x="137.4013" y="140.2887" text-anchor="middle" font-family="Helvetica" font-size="7.5" fill="#000000" >U</text>
<circle cx="136.9688" cy="117.2605" r="5.0" stroke="#595959" stroke-width="1.0" fill="#ffffff"/>
<text x="136.9688" y="119.9605" text-anchor="middle" font-family="Helvetica" font-size="7.5" fill="#000000" >C</text>
<circle cx="136.1329" cy="96.7766" r="5.0" stroke="#595959" stroke-width="1.0" fill="#ffffff"/>
<text x="136.1329" y="99.4766" text-anchor="middle" font-family="Helvetica" font-size="7.5" fill="#000000" >U</text>
<circle cx="134.9087" cy="76.1322" r="5.0" stroke="#595959" stroke-width="1.0" fill="#ffffff"/>
<text x="134.9087" y="78.8322" text-anchor="middle" font-family="Helvetica" font-size="7.5" fill="#000000" >G</text>
<circle cx="139.7390" cy="56.6299" r="5.0" stroke="#595959" stroke-width="1.0" fill="#ffffff"/>
<text x="139.7390" y="59.3299" text-anchor="middle" font-family="Helvetica" font-size="7.5" fill="#000000" >U</text>
<circle cx="159.6518" cy="55.0835" r="5.0" stroke="#595959" stroke-width="1.0" fill="#ffffff"/>
<text x="159.6518" y="57.7835" text-anchor="middle" font-family="Helvetica" font-size="7.5" fill="#000000" >A</text>
<circle cx="167.8784" cy="73.8570" r="5.0" stroke="#595959" stroke-width="1.0" fill="#ffffff"/>
<text x="167.8784" y="76.5570" text-anchor="middle" font-family="Helvetica" font-size="7.5" fill="#000000" >A</text>
<circle cx="185.3846" cy="83.2501" r="5.0" stroke="#595959" stroke-width="1.0" fill="#ffffff"/>
<text x="185.3846" y="85.9501" text-anchor="middle" font-family="Helvetica" font-size="7.5" fill="#000000" >U</text>
<circle cx="169.1610" cy="95.1535" r="5.0" stroke="#595959" stroke-width="1.0" fill="#ffffff"/>
<text x="169.1610" y="97.8535" text-anchor="middle" font-family="Helvetica" font-size="7.5" fill="#000000" >A</text>
<circle cx="169.9755" cy="116.2411" r="5.0" stroke="#595959" stroke-width="1.0" fill="#ffffff"/>
<text x="169.9755" y="118.9411" text-anchor="middle" font-family="Helvetica" font-size="7.5" fill="#000000" >G</text>
<circle cx="170.4303" cy="137.1759" r="5.0" stroke="#595959" stroke-width="1.0" fill="#ffffff"/>
<text x="170.4303" y="139.8759" text-anchor="middle" font-family="Helvetica" font-size="7.5" fill="#000000" >A</text>
<circle cx="170.4966" cy="157.8900" r="5.0" stroke="#595959" stroke-width="1.0" fill="#ffffff"/>
<text x="170.4966" y="160.5900" text-anchor="middle" font-family="Helvetica" font-size="7.5" fill="#000000" >A</text>
<circle cx="170.1786" cy="178.3211" r="5.0" stroke="#595959" stroke-width="1.0" fill="#ffffff"/>
<text x="170.1786" y="181.0211" text-anchor="middle" font-family="Helvetica" font-size="7.5" fill="#000000" >C</text>
<circle cx="169.6252" cy="198.5009" r="5.0" stroke="#595959" stroke-width="1.0" fill="#ffffff"/>
<text x="169.6252" y="201.2009" text-anchor="middle" font-family="Helvetica" font-size="7.5" fill="#000000" >U</text>
<circle cx="168.9958" cy="218.5415" r="5.0" stroke="#595959" stroke-width="1.0" fill="#ffffff"/>
<text x="168.9958" y="221.2415" text-anchor="middle" font-family="Helvetica" font-size="7.5" fill="#000000" >G</text>
<circle cx="168.3688" cy="238.5456" r="5.0" stroke="#595959" stroke-width="1.0" fill="#ffffff"/>
<text x="168.3688" y="241.2456" text-anchor="middle" font-family="Helvetica" font-size="7.5" fill="#000000" >C</text>
<circle cx="167.8504" cy="258.5416" r="5.0" stroke="#595959" stroke-width="1.0" fill="#ffffff"/>
<text x="167.8504" y="261.2416" text-anchor="middle" font-family="Helvetica" font-size="7.5" fill="#000000" >C</text>
</svg>