<?xml version="1.0" encoding="UTF-8"?>
<!DOCTYPE svg PUBLIC "-//W3C//DTD SVG 1.1//EN" 
"http://www.w3.org/Graphics/SVG/1.1/DTD/svg11.dtd">

<svg version="1.1"
   width="308px"
   height="308px"
xmlns="http://www.w3.org/2000/svg">
    <rect width="100%" height="100%" fill="white"/>

  <line x1="137.1990" y1="217.8939" x2="137.7101" y2="197.8186" stroke="#595959"
     style="stroke-width:2;stroke-miterlimit:4;stroke-dasharray:1,1;stroke-dashoffset:0" />
  <line x1="136.2927" y1="74.8786" x2="132.9979" y2="55.0280" stroke="#595959"
     style="stroke-width:2;stroke-miterlimit:4;stroke-dasharray:1,1;stroke-dashoffset:0" />
  <line x1="132.9979" y1="55.0280" x2="151.8927" y2="61.4205" stroke="#595959"
     style="stroke-width:2;stroke-miterlimit:4;stroke-dasharray:1,1;stroke-dashoffset:0" />
  <line x1="151.8927" y1="61.4205" x2="168.5086" y2="72.9873" stroke="#595959"
     style="stroke-width:2;stroke-miterlimit:4;stroke-dasharray:1,1;stroke-dashoffset:0" />
  <line x1="168.5086" y1="72.9873" x2="185.5849" y2="83.1356" stroke="#595959"
     style="stroke-width:2;stroke-miterlimit:4;stroke-dasharray:1,1;stroke-dashoffset:0" />
  <line x1="185.5849" y1="83.1356" x2="169.5855" y2="95.1061" stroke="#595959"
     style="stroke-width:2;stroke-miterlimit:4;stroke-dasharray:1,1;stroke-dashoffset:0" />
  <line x1="170.2004" y1="198.3463" x2="169.6788" y2="218.5467" stroke="#595959"
     style="stroke-width:2;stroke-miterlimit:4;stroke-dasharray:1,1;stroke-dashoffset:0" />
  <line x1="138.2513" y1="157.4798" x2="170.7347" y2="157.4865" stroke="#d55800" stroke-width="1.0" />
  <circle cx="154.4930" cy="157.4831" r="2.25" stroke="#d55800" stroke-width="1.0" fill="#d55800"/>
  <line x1="138.1930" y1="138.7674" x2="170.5929" y2="138.3974" stroke="#eeaa00" stroke-width="1.0" />
  <circle cx="154.3929" cy="138.5824" r="2.25" stroke="#eeaa00" stroke-width="1.0" fill="#eeaa00"/>
  <line x1="166.9105" y1="73.0651" x2="167.9874" y2="95.1839" stroke="#f2b800" stroke-width="1.0" />
  <circle cx="170.9489" cy="84.1245" r="2.25" stroke="#f2b800" stroke-width="1.0" fill="#f2b800"
    transform="rotate(267.2128 167.4489 84.1245)" />
  <path d="M 165.6989 86.3745 L 165.6989 81.8745 L 161.6989 84.1245 z" style="stroke:#f2b800;stroke-width:1.0" fill="#f2b800" 
    transform="rotate(267.2128 167.4489 84.1245)"/>
  <line x1="136.1603" y1="257.9407" x2="136.6982" y2="237.9300" stroke="#d45500" stroke-width="1.0" />
  <rect
     style="fill:#ffffff;fill-opacity:1;fill-rule:nonzero;stroke:none"
     width="2"
     height="2"
     x="135.9293"
     y="246.9353"
     transform="rotate(-88.4603 136.4293 247.9353)" /> 
  <path
     style="fill:none;stroke:#d45500;stroke-width:1px;stroke-linecap:butt;stroke-linejoin:miter;stroke-opacity:1"
     d="m 136.4293,245.9353 2,2 -2,2 m -2.370121,-4 2,2 -2,2"
     transform="rotate(-88.4603 136.4293 247.9353)"/>
  <line x1="136.1313" y1="259.1903" x2="168.6166" y2="259.9457" stroke="#270026" stroke-width="1.0" />
  <line x1="136.1894" y1="256.6910" x2="168.6747" y2="257.4463" stroke="#270026" stroke-width="1.0" />
  <line x1="136.6982" y1="237.9300" x2="137.1990" y2="217.8939" stroke="#000000" stroke-width="1.0" />
  <rect
     style="fill:#ffffff;fill-opacity:1;fill-rule:nonzero;stroke:none"
     width="2"
     height="2"
     x="136.4486"
     y="226.9119"
     transform="rotate(-88.5683 136.9486 227.9119)" /> 
  <path
     style="fill:none;stroke:#000000;stroke-width:1px;stroke-linecap:butt;stroke-linejoin:miter;stroke-opacity:1"
     d="m 136.9486,225.9119 2,2 -2,2 m -2.370121,-4 2,2 -2,2"
     transform="rotate(-88.5683 136.9486 227.9119)"/>
  <line x1="136.6704" y1="239.1797" x2="169.1467" y2="239.9037" stroke="#2d0032" stroke-width="1.0" />
  <line x1="136.7261" y1="236.6803" x2="169.2025" y2="237.4043" stroke="#2d0032" stroke-width="1.0" />
  <line x1="136.6982" y1="237.9300" x2="168.6456" y2="258.6960" stroke="#e78c00" stroke-width="1.0" />
  <rect
     style="fill:#ffffff;stroke:none"
     width="5.5"
     height="2"
     x="149.9219"
     y="247.3130" 
     transform="rotate(33.0241 152.6719 248.3130)"    /> 
  <path
     style="fill:none;stroke:#e78c00;stroke-width:1px;stroke-linecap:butt;stroke-linejoin:miter;stroke-opacity:1"
    d="m 153.4219,246.3130 2,2 -2,2 m -1.5,-4 -2,2 2,2" transform="rotate(33.0241 152.6719 248.3130)"/>
  <line x1="137.1739" y1="219.1437" x2="169.6537" y2="219.7964" stroke="#200019" stroke-width="1.0" />
  <line x1="137.2241" y1="216.6442" x2="169.7039" y2="217.2969" stroke="#200019" stroke-width="1.0" />
  <line x1="137.7101" y1="197.8186" x2="138.0836" y2="177.6882" stroke="#9d0eb1" stroke-width="1.0" />
  <rect
     style="fill:#ffffff;fill-opacity:1;fill-rule:nonzero;stroke:none"
     width="2"
     height="2"
     x="137.3968"
     y="186.7534"
     transform="rotate(-88.9371 137.8968 187.7534)" /> 
  <path
     style="fill:none;stroke:#9d0eb1;stroke-width:1px;stroke-linecap:butt;stroke-linejoin:miter;stroke-opacity:1"
     d="m 137.8968,185.7534 2,2 -2,2 m -2.370121,-4 2,2 -2,2"
     transform="rotate(-88.9371 137.8968 187.7534)"/>
  <line x1="137.7101" y1="197.8186" x2="170.2004" y2="198.3463" stroke="#4b0084" stroke-width="1.0" />
  <line x1="137.7101" y1="197.8186" x2="169.6788" y2="218.5467" stroke="#17000d" stroke-width="1.0" />
  <rect
     style="fill:#ffffff;stroke:none"
     width="5.5"
     height="2"
     x="150.9444"
     y="207.1827" 
     transform="rotate(32.9587 153.6944 208.1827)"    /> 
  <path
     style="fill:none;stroke:#17000d;stroke-width:1px;stroke-linecap:butt;stroke-linejoin:miter;stroke-opacity:1"
    d="m 154.4444,206.1827 2,2 -2,2 m -1.5,-4 -2,2 2,2" transform="rotate(32.9587 153.6944 208.1827)"/>
  <line x1="138.0836" y1="177.6882" x2="138.2513" y2="157.4798" stroke="#8806f9" stroke-width="1.0" />
  <rect
     style="fill:#ffffff;fill-opacity:1;fill-rule:nonzero;stroke:none"
     width="2"
     height="2"
     x="137.6674"
     y="166.5840"
     transform="rotate(-89.5244 138.1674 167.5840)" /> 
  <path
     style="fill:none;stroke:#8806f9;stroke-width:1px;stroke-linecap:butt;stroke-linejoin:miter;stroke-opacity:1"
     d="m 138.1674,165.5840 2,2 -2,2 m -2.370121,-4 2,2 -2,2"
     transform="rotate(-89.5244 138.1674 167.5840)"/>
  <line x1="138.0714" y1="178.9382" x2="170.5806" y2="179.2540" stroke="#520099" stroke-width="1.0" />
  <line x1="138.0957" y1="176.4383" x2="170.6049" y2="176.7541" stroke="#520099" stroke-width="1.0" />
  <line x1="138.2513" y1="157.4798" x2="138.1747" y2="137.1675" stroke="#8204ff" stroke-width="1.0" />
  <rect
     style="fill:#ffffff;fill-opacity:1;fill-rule:nonzero;stroke:none"
     width="2"
     height="2"
     x="137.7130"
     y="146.3236"
     transform="rotate(269.7840 138.2130 147.3236)" /> 
  <path
     style="fill:none;stroke:#8204ff;stroke-width:1px;stroke-linecap:butt;stroke-linejoin:miter;stroke-opacity:1"
     d="m 138.2130,145.3236 2,2 -2,2 m -2.370121,-4 2,2 -2,2"
     transform="rotate(269.7840 138.2130 147.3236)"/>
  <line x1="138.1747" y1="137.1675" x2="137.8264" y2="116.7444" stroke="#a0109e" stroke-width="1.0" />
  <rect
     style="fill:#ffffff;fill-opacity:1;fill-rule:nonzero;stroke:none"
     width="2"
     height="2"
     x="137.5006"
     y="125.9560"
     transform="rotate(269.0229 138.0006 126.9560)" /> 
  <path
     style="fill:none;stroke:#a0109e;stroke-width:1px;stroke-linecap:butt;stroke-linejoin:miter;stroke-opacity:1"
     d="m 138.0006,124.9560 2,2 -2,2 m -2.370121,-4 2,2 -2,2"
     transform="rotate(269.0229 138.0006 126.9560)"/>
  <line x1="138.1565" y1="135.5676" x2="170.5563" y2="135.1977" stroke="#8605fc" stroke-width="1.0" />
  <line x1="137.8264" y1="116.7444" x2="137.2923" y2="96.2656" stroke="#8b07f3" stroke-width="1.0" />
  <rect
     style="fill:#ffffff;fill-opacity:1;fill-rule:nonzero;stroke:none"
     width="2"
     height="2"
     x="137.0594"
     y="105.5050"
     transform="rotate(268.5060 137.5594 106.5050)" /> 
  <path
     style="fill:none;stroke:#8b07f3;stroke-width:1px;stroke-linecap:butt;stroke-linejoin:miter;stroke-opacity:1"
     d="m 137.5594,104.5050 2,2 -2,2 m -2.370121,-4 2,2 -2,2"
     transform="rotate(268.5060 137.5594 106.5050)"/>
  <line x1="137.8558" y1="117.9941" x2="170.1698" y2="117.2338" stroke="#3c0057" stroke-width="1.0" />
  <line x1="137.7970" y1="115.4948" x2="170.1109" y2="114.7345" stroke="#3c0057" stroke-width="1.0" />
  <line x1="137.2923" y1="96.2656" x2="136.2927" y2="74.8786" stroke="#da6400" stroke-width="1.0" />
  <rect
     style="fill:#ffffff;fill-opacity:1;fill-rule:nonzero;stroke:none"
     width="2"
     height="2"
     x="136.2925"
     y="84.5721"
     transform="rotate(267.3240 136.7925 85.5721)" /> 
  <path
     style="fill:none;stroke:#da6400;stroke-width:1px;stroke-linecap:butt;stroke-linejoin:miter;stroke-opacity:1"
     d="m 136.7925,83.5721 2,2 -2,2 m -2.370121,-4 2,2 -2,2"
     transform="rotate(267.3240 136.7925 85.5721)"/>
  <line x1="137.2923" y1="96.2656" x2="169.5855" y2="95.1061" stroke="#4b0084" stroke-width="1.0" />
  <line x1="137.2923" y1="96.2656" x2="170.1403" y2="115.9842" stroke="#eeaa00" stroke-width="1.0" />
  <rect
     style="fill:#ffffff;stroke:none"
     width="5.5"
     height="2"
     x="150.9663"
     y="105.1249" 
     transform="rotate(30.9763 153.7163 106.1249)"    /> 
  <path
     style="fill:none;stroke:#eeaa00;stroke-width:1px;stroke-linecap:butt;stroke-linejoin:miter;stroke-opacity:1"
    d="m 154.4663,104.1249 2,2 -2,2 m -1.5,-4 -2,2 2,2" transform="rotate(30.9763 153.7163 106.1249)"/>
  <line x1="136.2927" y1="74.8786" x2="151.8927" y2="61.4205" stroke="#000000" stroke-width="1.0" />
  <rect
     style="fill:#ffffff;fill-opacity:1;fill-rule:nonzero;stroke:none"
     width="2"
     height="2"
     x="143.5927"
     y="67.1495"
     transform="rotate(-40.7844 144.0927 68.1495)" /> 
  <path
     style="fill:none;stroke:#000000;stroke-width:1px;stroke-linecap:butt;stroke-linejoin:miter;stroke-opacity:1"
     d="m 144.0927,66.1495 2,2 -2,2 m -2.370121,-4 2,2 -2,2"
     transform="rotate(-40.7844 144.0927 68.1495)"/>
  <line x1="136.2927" y1="74.8786" x2="168.5086" y2="72.9873" stroke="#33003e" stroke-width="1.0" />
  <circle cx="155.9007" cy="73.9329" r="2.25" stroke="#33003e" stroke-width="1.0" fill="#ffffff"
    transform="rotate(-3.3598 152.4007 73.9329)" />
  <path d="M 150.6507 76.1829 L 150.6507 71.6829 L 146.6507 73.9329 z" style="stroke:#33003e;stroke-width:1.0" fill="#ffffff" 
    transform="rotate(-3.3598 152.4007 73.9329)"/>
  <line x1="136.2927" y1="74.8786" x2="169.5855" y2="95.1061" stroke="#db6700" stroke-width="1.0" />
  <rect
     style="fill:#ffffff;stroke:none"
     width="5.5"
     height="2"
     x="150.1891"
     y="83.9923" 
     transform="rotate(31.2814 152.9391 84.9923)"    /> 
  <path
     style="fill:none;stroke:#db6700;stroke-width:1px;stroke-linecap:butt;stroke-linejoin:miter;stroke-opacity:1"
    d="m 153.6891,82.9923 2,2 -2,2 m -1.5,-4 -2,2 2,2" transform="rotate(31.2814 152.9391 84.9923)"/>
  <line x1="170.1068" y1="72.9095" x2="171.1836" y2="95.0283" stroke="#ea9900" stroke-width="1.0" />
  <rect
     style="fill:#ffffff;stroke:none"
     width="5.5"
     height="2"
     x="167.8952"
     y="82.9689" 
     transform="rotate(87.2128 170.6452 83.9689)"    /> 
  <path
     style="fill:none;stroke:#ea9900;stroke-width:1px;stroke-linecap:butt;stroke-linejoin:miter;stroke-opacity:1"
    d="m 171.3952,81.9689 2,2 -2,2 m -1.5,-4 -2,2 2,2" transform="rotate(87.2128 170.6452 83.9689)"/>
  <line x1="169.5855" y1="95.1061" x2="170.1403" y2="115.9842" stroke="#d55800" stroke-width="1.0" />
  <rect
     style="fill:#ffffff;fill-opacity:1;fill-rule:nonzero;stroke:none"
     width="2"
     height="2"
     x="169.3629"
     y="104.5451"
     transform="rotate(88.4776 169.8629 105.5451)" /> 
  <path
     style="fill:none;stroke:#d55800;stroke-width:1px;stroke-linecap:butt;stroke-linejoin:miter;stroke-opacity:1"
     d="m 169.8629,103.5451 2,2 -2,2 m -2.370121,-4 2,2 -2,2"
     transform="rotate(88.4776 169.8629 105.5451)"/>
  <line x1="170.1403" y1="115.9842" x2="170.5746" y2="136.7976" stroke="#b82400" stroke-width="1.0" />
  <rect
     style="fill:#ffffff;fill-opacity:1;fill-rule:nonzero;stroke:none"
     width="2"
     height="2"
     x="169.8575"
     y="125.3909"
     transform="rotate(88.8048 170.3575 126.3909)" /> 
  <path
     style="fill:none;stroke:#b82400;stroke-width:1px;stroke-linecap:butt;stroke-linejoin:miter;stroke-opacity:1"
     d="m 170.3575,124.3909 2,2 -2,2 m -2.370121,-4 2,2 -2,2"
     transform="rotate(88.8048 170.3575 126.3909)"/>
  <line x1="170.5746" y1="136.7976" x2="170.7347" y2="157.4865" stroke="#8605fc" stroke-width="1.0" />
  <rect
     style="fill:#ffffff;fill-opacity:1;fill-rule:nonzero;stroke:none"
     width="2"
     height="2"
     x="170.1546"
     y="146.1420"
     transform="rotate(89.5567 170.6546 147.1420)" /> 
  <path
     style="fill:none;stroke:#8605fc;stroke-width:1px;stroke-linecap:butt;stroke-linejoin:miter;stroke-opacity:1"
     d="m 170.6546,145.1420 2,2 -2,2 m -2.370121,-4 2,2 -2,2"
     transform="rotate(89.5567 170.6546 147.1420)"/>
  <line x1="170.7347" y1="157.4865" x2="170.5928" y2="178.0040" stroke="#bc2900" stroke-width="1.0" />
  <rect
     style="fill:#ffffff;fill-opacity:1;fill-rule:nonzero;stroke:none"
     width="2"
     height="2"
     x="170.1637"
     y="166.7453"
     transform="rotate(90.3963 170.6637 167.7453)" /> 
  <path
     style="fill:none;stroke:#bc2900;stroke-width:1px;stroke-linecap:butt;stroke-linejoin:miter;stroke-opacity:1"
     d="m 170.6637,165.7453 2,2 -2,2 m -2.370121,-4 2,2 -2,2"
     transform="rotate(90.3963 170.6637 167.7453)"/>
  <line x1="170.5928" y1="178.0040" x2="170.2004" y2="198.3463" stroke="#960bd2" stroke-width="1.0" />
  <rect
     style="fill:#ffffff;fill-opacity:1;fill-rule:nonzero;stroke:none"
     width="2"
     height="2"
     x="169.8966"
     y="187.1752"
     transform="rotate(91.1051 170.3966 188.1752)" /> 
  <path
     style="fill:none;stroke:#960bd2;stroke-width:1px;stroke-linecap:butt;stroke-linejoin:miter;stroke-opacity:1"
     d="m 170.3966,186.1752 2,2 -2,2 m -2.370121,-4 2,2 -2,2"
     transform="rotate(91.1051 170.3966 188.1752)"/>
  <line x1="169.6788" y1="218.5467" x2="169.1746" y2="238.6540" stroke="#000000" stroke-width="1.0" />
  <rect
     style="fill:#ffffff;fill-opacity:1;fill-rule:nonzero;stroke:none"
     width="2"
     height="2"
     x="168.9267"
     y="227.6003"
     transform="rotate(91.4364 169.4267 228.6003)" /> 
  <path
     style="fill:none;stroke:#000000;stroke-width:1px;stroke-linecap:butt;stroke-linejoin:miter;stroke-opacity:1"
     d="m 169.4267,226.6003 2,2 -2,2 m -2.370121,-4 2,2 -2,2"
     transform="rotate(91.4364 169.4267 228.6003)"/>
  <line x1="169.1746" y1="238.6540" x2="168.6456" y2="258.6960" stroke="#a5137f" stroke-width="1.0" />
  <rect
     style="fill:#ffffff;fill-opacity:1;fill-rule:nonzero;stroke:none"
     width="2"
     height="2"
     x="168.4101"
     y="247.6750"
     transform="rotate(91.5119 168.9101 248.6750)" /> 
  <path
     style="fill:none;stroke:#a5137f;stroke-width:1px;stroke-linecap:butt;stroke-linejoin:miter;stroke-opacity:1"
     d="m 168.9101,246.6750 2,2 -2,2 m -2.370121,-4 2,2 -2,2"
     transform="rotate(91.5119 168.9101 248.6750)"/>
<circle cx="136.1603" cy="257.9407" r="5.0" stroke="#595959" stroke-width="1.0" fill="#ffffff"/>
<text x="136.1603" y="260.6407" text-anchor="middle" font-family="Helvetica" font-size="7.5" fill="#000000" >G</text>
<circle cx="136.6982" cy="237.9300" r="5.0" stroke="#595959" stroke-width="1.0" fill="#ffffff"/>
<text x="136.6982" y="240.6300" text-anchor="middle" font-family="Helvetica" font-size="7.5" fill="#000000" >G</text>
<circle cx="137.1990" cy="217.8939" r="5.0" stroke="#595959" stroke-width="1.0" fill="#ffffff"/>
<text x="137.1990" y="220.5939" text-anchor="middle" font-family="Helvetica" font-size="7.5" fill="#000000" >C</text>
<circle cx="137.7101" cy="197.8186" r="5.0" stroke="#595959" stroke-width="1.0" fill="#ffffff"/>
<text x="137.7101" y="200.5186" text-anchor="middle" font-family="Helvetica" font-size="7.5" fill="#000000" >A</text>
<circle cx="138.0836" cy="177.6882" r="5.0" stroke="#595959" stroke-width="1.0" fill="#ffffff"/>
<text x="138.0836" y="180.3882" text-anchor="middle" font-family="Helvetica" font-size="7.5" fill="#000000" >G</text>
<circle cx="138.2513" cy="157.4798" r="5.0" stroke="#595959" stroke-width="1.0" fill="#ffffff"/>
<text x="138.2513" y="160.1798" text-anchor="middle" font-family="Helvetica" font-size="7.5" fill="#000000" >A</text>
<circle cx="138.1747" cy="137.1675" r="5.0" stroke="#595959" stroke-width="1.0" fill="#ffffff"/>
<text x="138.1747" y="139.8675" text-anchor="middle" font-family="Helvetica" font-size="7.5" fill="#000000" >U</text>
<circle cx="137.8264" cy="116.7444" r="5.0" stroke="#595959" stroke-width="1.0" fill="#ffffff"/>
<text x="137.8264" y="119.4444" text-anchor="middle" font-family="Helvetica" font-size="7.5" fill="#000000" >C</text>
<circle cx="137.2923" cy="96.2656" r="5.0" stroke="#595959" stroke-width="1.0" fill="#ffffff"/>
<text x="137.2923" y="98.9656" text-anchor="middle" font-family="Helvetica" font-size="7.5" fill="#000000" >U</text>
<circle cx="136.2927" cy="74.8786" r="5.0" stroke="#595959" stroke-width="1.0" fill="#ffffff"/>
<text x="136.2927" y="77.5786" text-anchor="middle" font-family="Helvetica" font-size="7.5" fill="#000000" >G</text>
<circle cx="132.9979" cy="55.0280" r="5.0" stroke="#595959" stroke-width="1.0" fill="#ffffff"/>
<text x="132.9979" y="57.7280" text-anchor="middle" font-family="Helvetica" font-size="7.5" fill="#000000" >U</text>
<circle cx="151.8927" cy="61.4205" r="5.0" stroke="#595959" stroke-width="1.0" fill="#ffffff"/>
<text x="151.8927" y="64.1205" text-anchor="middle" font-family="Helvetica" font-size="7.5" fill="#000000" >A</text>
<circle cx="168.5086" cy="72.9873" r="5.0" stroke="#595959" stroke-width="1.0" fill="#ffffff"/>
<text x="168.5086" y="75.6873" text-anchor="middle" font-family="Helvetica" font-size="7.5" fill="#000000" >A</text>
<circle cx="185.5849" cy="83.1356" r="5.0" stroke="#595959" stroke-width="1.0" fill="#ffffff"/>
<text x="185.5849" y="85.8356" text-anchor="middle" font-family="Helvetica" font-size="7.5" fill="#000000" >U</text>
<circle cx="169.5855" cy="95.1061" r="5.0" stroke="#595959" stroke-width="1.0" fill="#ffffff"/>
<text x="169.5855" y="97.8061" text-anchor="middle" font-family="Helvetica" font-size="7.5" fill="#000000" >A</text>
<circle cx="170.1403" cy="115.9842" r="5.0" stroke="#595959" stroke-width="1.0" fill="#ffffff"/>
<text x="170.1403" y="118.6842" text-anchor="middle" font-family="Helvetica" font-size="7.5" fill="#000000" >G</text>
<circle cx="170.5746" cy="136.7976" r="5.0" stroke="#595959" stroke-width="1.0" fill="#ffffff"/>
<text x="170.5746" y="139.4976" text-anchor="middle" font-family="Helvetica" font-size="7.5" fill="#000000" >A</text>
<circle cx="170.7347" cy="157.4865" r="5.0" stroke="#595959" stroke-width="1.0" fill="#ffffff"/>
<text x="170.7347" y="160.1865" text-anchor="middle" font-family="Helvetica" font-size="7.5" fill="#000000" >A</text>
<circle cx="170.5928" cy="178.0040" r="5.0" stroke="#595959" stroke-width="1.0" fill="#ffffff"/>
<text x="170.5928" y="180.7040" text-anchor="middle" font-family="Helvetica" font-size="7.5" fill="#000000" >C</text>
<circle cx="170.2004" cy="198.3463" r="5.0" stroke="#595959" stroke-width="1.0" fill="#ffffff"/>
<text x="170.2004" y="201.0463" text-anchor="middle" font-family="Helvetica" font-size="7.5" fill="#000000" >U</text>
<circle cx="169.6788" cy="218.5467" r="5.0" stroke="#595959" stroke-width="1.0" fill="#ffffff"/>
<text x="169.6788" y="221.2467" text-anchor="middle" font-family="Helvetica" font-size="7.5" fill="#000000" >G</text>
<circle cx="169.1746" cy="238.6540" r="5.0" stroke="#595959" stroke-width="1.0" fill="#ffffff"/>
<text x="169.1746" y="241.3540" text-anchor="middle" font-family="Helvetica" font-size="7.5" fill="#000000" >C</text>
<circle cx="168.6456" cy="258.6960" r="5.0" stroke="#595959" stroke-width="1.0" fill="#ffffff"/>
<text x="168.6456" y="261.3960" text-anchor="middle" font-family="Helvetica" font-size="7.5" fill="#000000" >C</text>
</svg>