<?xml version="1.0" encoding="UTF-8"?>
<!DOCTYPE svg PUBLIC "-//W3C//DTD SVG 1.1//EN" 
"http://www.w3.org/Graphics/SVG/1.1/DTD/svg11.dtd">

<svg version="1.1"
   width="182px"
   height="182px"
xmlns="http://www.w3.org/2000/svg">
    <rect width="100%" height="100%" fill="white"/>

  <line x1="72.9882" y1="108.5937" x2="73.0403" y2="88.5124" stroke="#595959"
     style="stroke-width:2;stroke-miterlimit:4;stroke-dasharray:1,1;stroke-dashoffset:0" />
  <line x1="72.8407" y1="68.4258" x2="70.6163" y2="48.5657" stroke="#595959"
     style="stroke-width:2;stroke-miterlimit:4;stroke-dasharray:1,1;stroke-dashoffset:0" />
  <line x1="102.7077" y1="47.4953" x2="121.1974" y2="54.8170" stroke="#595959"
     style="stroke-width:2;stroke-miterlimit:4;stroke-dasharray:1,1;stroke-dashoffset:0" />
  <line x1="121.1974" y1="54.8170" x2="106.1908" y2="68.1056" stroke="#595959"
     style="stroke-width:2;stroke-miterlimit:4;stroke-dasharray:1,1;stroke-dashoffset:0" />
  <line x1="106.2114" y1="88.5060" x2="106.0433" y2="108.8991" stroke="#595959"
     style="stroke-width:2;stroke-miterlimit:4;stroke-dasharray:1,1;stroke-dashoffset:0" />
  <line x1="72.2332" y1="148.7139" x2="72.6732" y2="128.6714" stroke="#d75b00" stroke-width="1.0" />
  <rect
     style="fill:#ffffff;fill-opacity:1;fill-rule:nonzero;stroke:none"
     width="2"
     height="2"
     x="71.9532"
     y="137.6927"
     transform="rotate(-88.7425 72.4532 138.6927)" /> 
  <path
     style="fill:none;stroke:#d75b00;stroke-width:1px;stroke-linecap:butt;stroke-linejoin:miter;stroke-opacity:1"
     d="m 72.4532,136.6927 2,2 -2,2 m -2.370121,-4 2,2 -2,2"
     transform="rotate(-88.7425 72.4532 138.6927)"/>
  <line x1="72.2095" y1="149.9637" x2="105.2489" y2="150.5908" stroke="#33003e" stroke-width="1.0" />
  <line x1="72.2569" y1="147.4641" x2="105.2964" y2="148.0912" stroke="#33003e" stroke-width="1.0" />
  <line x1="72.6732" y1="128.6714" x2="72.9882" y2="108.5937" stroke="#000000" stroke-width="1.0" />
  <rect
     style="fill:#ffffff;fill-opacity:1;fill-rule:nonzero;stroke:none"
     width="2"
     height="2"
     x="72.3307"
     y="117.6326"
     transform="rotate(-89.1010 72.8307 118.6326)" /> 
  <path
     style="fill:none;stroke:#000000;stroke-width:1px;stroke-linecap:butt;stroke-linejoin:miter;stroke-opacity:1"
     d="m 72.8307,116.6326 2,2 -2,2 m -2.370121,-4 2,2 -2,2"
     transform="rotate(-89.1010 72.8307 118.6326)"/>
  <line x1="72.6536" y1="129.9213" x2="105.7248" y2="130.4395" stroke="#270026" stroke-width="1.0" />
  <line x1="72.6927" y1="127.4216" x2="105.7640" y2="127.9398" stroke="#270026" stroke-width="1.0" />
  <line x1="72.6732" y1="128.6714" x2="105.2727" y2="149.3410" stroke="#eb9d00" stroke-width="1.0" />
  <rect
     style="fill:#ffffff;stroke:none"
     width="5.5"
     height="2"
     x="86.2229"
     y="138.0062" 
     transform="rotate(32.3765 88.9729 139.0062)"    /> 
  <path
     style="fill:none;stroke:#eb9d00;stroke-width:1px;stroke-linecap:butt;stroke-linejoin:miter;stroke-opacity:1"
    d="m 89.7229,137.0062 2,2 -2,2 m -1.5,-4 -2,2 2,2" transform="rotate(32.3765 88.9729 139.0062)"/>
  <line x1="72.9767" y1="109.8436" x2="106.0318" y2="110.1491" stroke="#200019" stroke-width="1.0" />
  <line x1="72.9998" y1="107.3437" x2="106.0549" y2="107.6492" stroke="#200019" stroke-width="1.0" />
  <line x1="73.0403" y1="88.5124" x2="72.8407" y2="68.4258" stroke="#000000" stroke-width="1.0" />
  <rect
     style="fill:#ffffff;fill-opacity:1;fill-rule:nonzero;stroke:none"
     width="2"
     height="2"
     x="72.4405"
     y="77.4691"
     transform="rotate(269.4308 72.9405 78.4691)" /> 
  <path
     style="fill:none;stroke:#000000;stroke-width:1px;stroke-linecap:butt;stroke-linejoin:miter;stroke-opacity:1"
     d="m 72.9405,76.4691 2,2 -2,2 m -2.370121,-4 2,2 -2,2"
     transform="rotate(269.4308 72.9405 78.4691)"/>
  <line x1="73.0405" y1="89.7624" x2="106.2117" y2="89.7560" stroke="#2d0032" stroke-width="1.0" />
  <line x1="73.0400" y1="87.2624" x2="106.2112" y2="87.2560" stroke="#2d0032" stroke-width="1.0" />
  <line x1="73.0403" y1="88.5124" x2="106.0433" y2="108.8991" stroke="#17000d" stroke-width="1.0" />
  <rect
     style="fill:#ffffff;stroke:none"
     width="5.5"
     height="2"
     x="86.7918"
     y="97.7058" 
     transform="rotate(31.7046 89.5418 98.7058)"    /> 
  <path
     style="fill:none;stroke:#17000d;stroke-width:1px;stroke-linecap:butt;stroke-linejoin:miter;stroke-opacity:1"
    d="m 90.2918,96.7058 2,2 -2,2 m -1.5,-4 -2,2 2,2" transform="rotate(31.7046 89.5418 98.7058)"/>
  <line x1="72.8527" y1="69.6757" x2="106.2028" y2="69.3556" stroke="#200019" stroke-width="1.0" />
  <line x1="72.8287" y1="67.1758" x2="106.1788" y2="66.8557" stroke="#200019" stroke-width="1.0" />
  <line x1="70.6163" y1="48.5657" x2="86.2403" y2="36.1635" stroke="#17000d" stroke-width="1.0" />
  <rect
     style="fill:#ffffff;fill-opacity:1;fill-rule:nonzero;stroke:none"
     width="2"
     height="2"
     x="77.9283"
     y="41.3646"
     transform="rotate(-38.4422 78.4283 42.3646)" /> 
  <path
     style="fill:none;stroke:#17000d;stroke-width:1px;stroke-linecap:butt;stroke-linejoin:miter;stroke-opacity:1"
     d="m 78.4283,40.3646 2,2 -2,2 m -2.370121,-4 2,2 -2,2"
     transform="rotate(-38.4422 78.4283 42.3646)"/>
  <line x1="86.2403" y1="36.1635" x2="102.7077" y2="47.4953" stroke="#270026" stroke-width="1.0" />
  <rect
     style="fill:#ffffff;fill-opacity:1;fill-rule:nonzero;stroke:none"
     width="2"
     height="2"
     x="93.9740"
     y="40.8294"
     transform="rotate(34.5332 94.4740 41.8294)" /> 
  <path
     style="fill:none;stroke:#270026;stroke-width:1px;stroke-linecap:butt;stroke-linejoin:miter;stroke-opacity:1"
     d="m 94.4740,39.8294 2,2 -2,2 m -2.370121,-4 2,2 -2,2"
     transform="rotate(34.5332 94.4740 41.8294)"/>
  <line x1="102.7077" y1="47.4953" x2="106.1908" y2="68.1056" stroke="#480079" stroke-width="1.0" />
  <rect
     style="fill:#ffffff;fill-opacity:1;fill-rule:nonzero;stroke:none"
     width="2"
     height="2"
     x="103.9493"
     y="56.8005"
     transform="rotate(80.4077 104.4493 57.8005)" /> 
  <path
     style="fill:none;stroke:#480079;stroke-width:1px;stroke-linecap:butt;stroke-linejoin:miter;stroke-opacity:1"
     d="m 104.4493,55.8005 2,2 -2,2 m -2.370121,-4 2,2 -2,2"
     transform="rotate(80.4077 104.4493 57.8005)"/>
  <line x1="106.1908" y1="68.1056" x2="106.2114" y2="88.5060" stroke="#000000" stroke-width="1.0" />
  <rect
     style="fill:#ffffff;fill-opacity:1;fill-rule:nonzero;stroke:none"
     width="2"
     height="2"
     x="105.7011"
     y="77.3058"
     transform="rotate(89.9421 106.2011 78.3058)" /> 
  <path
     style="fill:none;stroke:#000000;stroke-width:1px;stroke-linecap:butt;stroke-linejoin:miter;stroke-opacity:1"
     d="m 106.2011,76.3058 2,2 -2,2 m -2.370121,-4 2,2 -2,2"
     transform="rotate(89.9421 106.2011 78.3058)"/>
  <line x1="106.0433" y1="108.8991" x2="105.7444" y2="129.1896" stroke="#000000" stroke-width="1.0" />
  <rect
     style="fill:#ffffff;fill-opacity:1;fill-rule:nonzero;stroke:none"
     width="2"
     height="2"
     x="105.3939"
     y="118.0444"
     transform="rotate(90.8440 105.8939 119.0444)" /> 
  <path
     style="fill:none;stroke:#000000;stroke-width:1px;stroke-linecap:butt;stroke-linejoin:miter;stroke-opacity:1"
     d="m 105.8939,117.0444 2,2 -2,2 m -2.370121,-4 2,2 -2,2"
     transform="rotate(90.8440 105.8939 119.0444)"/>
  <line x1="105.7444" y1="129.1896" x2="105.2727" y2="149.3410" stroke="#9b0dba" stroke-width="1.0" />
  <rect
     style="fill:#ffffff;fill-opacity:1;fill-rule:nonzero;stroke:none"
     width="2"
     height="2"
     x="105.0085"
     y="138.2653"
     transform="rotate(91.3411 105.5085 139.2653)" /> 
  <path
     style="fill:none;stroke:#9b0dba;stroke-width:1px;stroke-linecap:butt;stroke-linejoin:miter;stroke-opacity:1"
     d="m 105.5085,137.2653 2,2 -2,2 m -2.370121,-4 2,2 -2,2"
     transform="rotate(91.3411 105.5085 139.2653)"/>
<circle cx="72.2332" cy="148.7139" r="5.0" stroke="#595959" stroke-width="1.0" fill="#ffffff"/>
<text x="72.2332" y="151.4139" text-anchor="middle" font-family="Helvetica" font-size="7.5" fill="#000000" >G</text>
<circle cx="72.6732" cy="128.6714" r="5.0" stroke="#595959" stroke-width="1.0" fill="#ffffff"/>
<text x="72.6732" y="131.3714" text-anchor="middle" font-family="Helvetica" font-size="7.5" fill="#000000" >G</text>
<circle cx="72.9882" cy="108.5937" r="5.0" stroke="#595959" stroke-width="1.0" fill="#ffffff"/>
<text x="72.9882" y="111.2937" text-anchor="middle" font-family="Helvetica" font-size="7.5" fill="#000000" >C</text>
<circle cx="73.0403" cy="88.5124" r="5.0" stroke="#595959" stroke-width="1.0" fill="#ffffff"/>
<text x="73.0403" y="91.2124" text-anchor="middle" font-family="Helvetica" font-size="7.5" fill="#000000" >G</text>
<circle cx="72.8407" cy="68.4258" r="5.0" stroke="#595959" stroke-width="1.0" fill="#ffffff"/>
<text x="72.8407" y="71.1258" text-anchor="middle" font-family="Helvetica" font-size="7.5" fill="#000000" >C</text>
<circle cx="70.6163" cy="48.5657" r="5.0" stroke="#595959" stroke-width="1.0" fill="#ffffff"/>
<text x="70.6163" y="51.2657" text-anchor="middle" font-family="Helvetica" font-size="7.5" fill="#000000" >A</text>
<circle cx="86.2403" cy="36.1635" r="5.0" stroke="#595959" stroke-width="1.0" fill="#ffffff"/>
<text x="86.2403" y="38.8635" text-anchor="middle" font-family="Helvetica" font-size="7.5" fill="#000000" >U</text>
<circle cx="102.7077" cy="47.4953" r="5.0" stroke="#595959" stroke-width="1.0" fill="#ffffff"/>
<text x="102.7077" y="50.1953" text-anchor="middle" font-family="Helvetica" font-size="7.5" fill="#000000" >C</text>
<circle cx="121.1974" cy="54.8170" r="5.0" stroke="#595959" stroke-width="1.0" fill="#ffffff"/>
<text x="121.1974" y="57.5170" text-anchor="middle" font-family="Helvetica" font-size="7.5" fill="#000000" >G</text>
<circle cx="106.1908" cy="68.1056" r="5.0" stroke="#595959" stroke-width="1.0" fill="#ffffff"/>
<text x="106.1908" y="70.8056" text-anchor="middle" font-family="Helvetica" font-size="7.5" fill="#000000" >G</text>
<circle cx="106.2114" cy="88.5060" r="5.0" stroke="#595959" stroke-width="1.0" fill="#ffffff"/>
<text x="106.2114" y="91.2060" text-anchor="middle" font-family="Helvetica" font-size="7.5" fill="#000000" >C</text>
<circle cx="106.0433" cy="108.8991" r="5.0" stroke="#595959" stroke-width="1.0" fill="#ffffff"/>
<text x="106.0433" y="111.5991" text-anchor="middle" font-family="Helvetica" font-size="7.5" fill="#000000" >G</text>
<circle cx="105.7444" cy="129.1896" r="5.0" stroke="#595959" stroke-width="1.0" fill="#ffffff"/>
<text x="105.7444" y="131.8896" text-anchor="middle" font-family="Helvetica" font-size="7.5" fill="#000000" >C</text>
<circle cx="105.2727" cy="149.3410" r="5.0" stroke="#595959" stroke-width="1.0" fill="#ffffff"/>
<text x="105.2727" y="152.0410" text-anchor="middle" font-family="Helvetica" font-size="7.5" fill="#000000" >C</text>
</svg>