<?xml version="1.0" encoding="UTF-8"?>
<!DOCTYPE svg PUBLIC "-//W3C//DTD SVG 1.1//EN" 
"http://www.w3.org/Graphics/SVG/1.1/DTD/svg11.dtd">

<svg version="1.1"
   width="182px"
   height="182px"
xmlns="http://www.w3.org/2000/svg">
    <rect width="100%" height="100%" fill="white"/>

  <line x1="74.3226" y1="110.4121" x2="74.3358" y2="90.4052" stroke="#595959"
     style="stroke-width:2;stroke-miterlimit:4;stroke-dasharray:1,1;stroke-dashoffset:0" />
  <line x1="81.4650" y1="34.0672" x2="101.4461" y2="34.2848" stroke="#595959"
     style="stroke-width:2;stroke-miterlimit:4;stroke-dasharray:1,1;stroke-dashoffset:0" />
  <line x1="101.4461" y1="34.2848" x2="112.5372" y2="50.9077" stroke="#595959"
     style="stroke-width:2;stroke-miterlimit:4;stroke-dasharray:1,1;stroke-dashoffset:0" />
  <line x1="112.5372" y1="50.9077" x2="107.5850" y2="70.3099" stroke="#595959"
     style="stroke-width:2;stroke-miterlimit:4;stroke-dasharray:1,1;stroke-dashoffset:0" />
  <line x1="107.4673" y1="90.3421" x2="107.3736" y2="110.3917" stroke="#595959"
     style="stroke-width:2;stroke-miterlimit:4;stroke-dasharray:1,1;stroke-dashoffset:0" />
  <line x1="74.1421" y1="150.4056" x2="74.2546" y2="130.4052" stroke="#e89000" stroke-width="1.0" />
  <rect
     style="fill:#ffffff;fill-opacity:1;fill-rule:nonzero;stroke:none"
     width="2"
     height="2"
     x="73.6984"
     y="139.4054"
     transform="rotate(-89.6777 74.1984 140.4054)" /> 
  <path
     style="fill:none;stroke:#e89000;stroke-width:1px;stroke-linecap:butt;stroke-linejoin:miter;stroke-opacity:1"
     d="m 74.1984,138.4054 2,2 -2,2 m -2.370121,-4 2,2 -2,2"
     transform="rotate(-89.6777 74.1984 140.4054)"/>
  <line x1="74.1404" y1="151.6556" x2="107.1704" y2="151.7020" stroke="#17000d" stroke-width="1.0" />
  <line x1="74.1439" y1="149.1556" x2="107.1739" y2="149.2020" stroke="#17000d" stroke-width="1.0" />
  <line x1="74.2546" y1="130.4052" x2="74.3226" y2="110.4121" stroke="#000000" stroke-width="1.0" />
  <rect
     style="fill:#ffffff;fill-opacity:1;fill-rule:nonzero;stroke:none"
     width="2"
     height="2"
     x="73.7886"
     y="119.4087"
     transform="rotate(-89.8052 74.2886 120.4087)" /> 
  <path
     style="fill:none;stroke:#000000;stroke-width:1px;stroke-linecap:butt;stroke-linejoin:miter;stroke-opacity:1"
     d="m 74.2886,118.4087 2,2 -2,2 m -2.370121,-4 2,2 -2,2"
     transform="rotate(-89.8052 74.2886 120.4087)"/>
  <line x1="74.2536" y1="131.6552" x2="107.2881" y2="131.6817" stroke="#000000" stroke-width="1.0" />
  <line x1="74.2556" y1="129.1552" x2="107.2901" y2="129.1817" stroke="#000000" stroke-width="1.0" />
  <line x1="74.2546" y1="130.4052" x2="107.1722" y2="150.4520" stroke="#b21e13" stroke-width="1.0" />
  <rect
     style="fill:#ffffff;stroke:none"
     width="5.5"
     height="2"
     x="87.9634"
     y="139.4286" 
     transform="rotate(31.3415 90.7134 140.4286)"    /> 
  <path
     style="fill:none;stroke:#b21e13;stroke-width:1px;stroke-linecap:butt;stroke-linejoin:miter;stroke-opacity:1"
    d="m 91.4634,138.4286 2,2 -2,2 m -1.5,-4 -2,2 2,2" transform="rotate(31.3415 90.7134 140.4286)"/>
  <line x1="74.3234" y1="111.6621" x2="107.3744" y2="111.6417" stroke="#000000" stroke-width="1.0" />
  <line x1="74.3218" y1="109.1621" x2="107.3729" y2="109.1417" stroke="#000000" stroke-width="1.0" />
  <line x1="74.3358" y1="90.4052" x2="74.1112" y2="70.4256" stroke="#000000" stroke-width="1.0" />
  <rect
     style="fill:#ffffff;fill-opacity:1;fill-rule:nonzero;stroke:none"
     width="2"
     height="2"
     x="73.7235"
     y="79.4154"
     transform="rotate(269.3561 74.2235 80.4154)" /> 
  <path
     style="fill:none;stroke:#000000;stroke-width:1px;stroke-linecap:butt;stroke-linejoin:miter;stroke-opacity:1"
     d="m 74.2235,78.4154 2,2 -2,2 m -2.370121,-4 2,2 -2,2"
     transform="rotate(269.3561 74.2235 80.4154)"/>
  <line x1="74.3358" y1="90.4052" x2="107.4673" y2="90.3421" stroke="#000000" stroke-width="1.0" />
  <line x1="74.3358" y1="90.4052" x2="107.3736" y2="110.3917" stroke="#000000" stroke-width="1.0" />
  <rect
     style="fill:#ffffff;stroke:none"
     width="5.5"
     height="2"
     x="88.1047"
     y="99.3985" 
     transform="rotate(31.1722 90.8547 100.3985)"    /> 
  <path
     style="fill:none;stroke:#000000;stroke-width:1px;stroke-linecap:butt;stroke-linejoin:miter;stroke-opacity:1"
    d="m 91.6047,98.3985 2,2 -2,2 m -1.5,-4 -2,2 2,2" transform="rotate(31.1722 90.8547 100.3985)"/>
  <line x1="74.1112" y1="70.4256" x2="70.4983" y2="50.7591" stroke="#5d01be" stroke-width="1.0" />
  <rect
     style="fill:#ffffff;fill-opacity:1;fill-rule:nonzero;stroke:none"
     width="2"
     height="2"
     x="71.8047"
     y="59.5924"
     transform="rotate(259.5902 72.3047 60.5924)" /> 
  <path
     style="fill:none;stroke:#5d01be;stroke-width:1px;stroke-linecap:butt;stroke-linejoin:miter;stroke-opacity:1"
     d="m 72.3047,58.5924 2,2 -2,2 m -2.370121,-4 2,2 -2,2"
     transform="rotate(259.5902 72.3047 60.5924)"/>
  <line x1="74.1155" y1="71.6756" x2="107.5893" y2="71.5599" stroke="#17000d" stroke-width="1.0" />
  <line x1="74.1069" y1="69.1756" x2="107.5807" y2="69.0599" stroke="#17000d" stroke-width="1.0" />
  <line x1="70.4983" y1="50.7591" x2="81.4650" y2="34.0672" stroke="#270026" stroke-width="1.0" />
  <rect
     style="fill:#ffffff;fill-opacity:1;fill-rule:nonzero;stroke:none"
     width="2"
     height="2"
     x="75.4816"
     y="41.4131"
     transform="rotate(-56.6946 75.9816 42.4131)" /> 
  <path
     style="fill:none;stroke:#270026;stroke-width:1px;stroke-linecap:butt;stroke-linejoin:miter;stroke-opacity:1"
     d="m 75.9816,40.4131 2,2 -2,2 m -2.370121,-4 2,2 -2,2"
     transform="rotate(-56.6946 75.9816 42.4131)"/>
  <line x1="70.4983" y1="50.7591" x2="107.5850" y2="70.3099" stroke="#eeaa00" stroke-width="1.0" />
  <rect
     style="fill:#ffffff;stroke:none"
     width="5.5"
     height="2"
     x="86.2916"
     y="59.5345" 
     transform="rotate(27.7966 89.0416 60.5345)"    /> 
  <path
     style="fill:none;stroke:#eeaa00;stroke-width:1px;stroke-linecap:butt;stroke-linejoin:miter;stroke-opacity:1"
    d="m 89.7916,58.5345 2,2 -2,2 m -1.5,-4 -2,2 2,2" transform="rotate(27.7966 89.0416 60.5345)"/>
  <line x1="107.5850" y1="70.3099" x2="107.4673" y2="90.3421" stroke="#200019" stroke-width="1.0" />
  <rect
     style="fill:#ffffff;fill-opacity:1;fill-rule:nonzero;stroke:none"
     width="2"
     height="2"
     x="107.0261"
     y="79.3260"
     transform="rotate(90.3366 107.5261 80.3260)" /> 
  <path
     style="fill:none;stroke:#200019;stroke-width:1px;stroke-linecap:butt;stroke-linejoin:miter;stroke-opacity:1"
     d="m 107.5261,78.3260 2,2 -2,2 m -2.370121,-4 2,2 -2,2"
     transform="rotate(90.3366 107.5261 80.3260)"/>
  <line x1="107.3736" y1="110.3917" x2="107.2891" y2="130.4317" stroke="#000000" stroke-width="1.0" />
  <rect
     style="fill:#ffffff;fill-opacity:1;fill-rule:nonzero;stroke:none"
     width="2"
     height="2"
     x="106.8314"
     y="119.4117"
     transform="rotate(90.2417 107.3314 120.4117)" /> 
  <path
     style="fill:none;stroke:#000000;stroke-width:1px;stroke-linecap:butt;stroke-linejoin:miter;stroke-opacity:1"
     d="m 107.3314,118.4117 2,2 -2,2 m -2.370121,-4 2,2 -2,2"
     transform="rotate(90.2417 107.3314 120.4117)"/>
  <line x1="107.2891" y1="130.4317" x2="107.1722" y2="150.4520" stroke="#c83b00" stroke-width="1.0" />
  <rect
     style="fill:#ffffff;fill-opacity:1;fill-rule:nonzero;stroke:none"
     width="2"
     height="2"
     x="106.7306"
     y="139.4419"
     transform="rotate(90.3346 107.2306 140.4419)" /> 
  <path
     style="fill:none;stroke:#c83b00;stroke-width:1px;stroke-linecap:butt;stroke-linejoin:miter;stroke-opacity:1"
     d="m 107.2306,138.4419 2,2 -2,2 m -2.370121,-4 2,2 -2,2"
     transform="rotate(90.3346 107.2306 140.4419)"/>
<circle cx="74.1421" cy="150.4056" r="5.0" stroke="#595959" stroke-width="1.0" fill="#ffffff"/>
<text x="74.1421" y="153.1056" text-anchor="middle" font-family="Helvetica" font-size="7.5" fill="#000000" >G</text>
<circle cx="74.2546" cy="130.4052" r="5.0" stroke="#595959" stroke-width="1.0" fill="#ffffff"/>
<text x="74.2546" y="133.1052" text-anchor="middle" font-family="Helvetica" font-size="7.5" fill="#000000" >G</text>
<circle cx="74.3226" cy="110.4121" r="5.0" stroke="#595959" stroke-width="1.0" fill="#ffffff"/>
<text x="74.3226" y="113.1121" text-anchor="middle" font-family="Helvetica" font-size="7.5" fill="#000000" >C</text>
<circle cx="74.3358" cy="90.4052" r="5.0" stroke="#595959" stroke-width="1.0" fill="#ffffff"/>
<text x="74.3358" y="93.1052" text-anchor="middle" font-family="Helvetica" font-size="7.5" fill="#000000" >A</text>
<circle cx="74.1112" cy="70.4256" r="5.0" stroke="#595959" stroke-width="1.0" fill="#ffffff"/>
<text x="74.1112" y="73.1256" text-anchor="middle" font-family="Helvetica" font-size="7.5" fill="#000000" >C</text>
<circle cx="70.4983" cy="50.7591" r="5.0" stroke="#595959" stroke-width="1.0" fill="#ffffff"/>
<text x="70.4983" y="53.4591" text-anchor="middle" font-family="Helvetica" font-size="7.5" fill="#000000" >U</text>
<circle cx="81.4650" cy="34.0672" r="5.0" stroke="#595959" stroke-width="1.0" fill="#ffffff"/>
<text x="81.4650" y="36.7672" text-anchor="middle" font-family="Helvetica" font-size="7.5" fill="#000000" >U</text>
<circle cx="101.4461" cy="34.2848" r="5.0" stroke="#595959" stroke-width="1.0" fill="#ffffff"/>
<text x="101.4461" y="36.9848" text-anchor="middle" font-family="Helvetica" font-size="7.5" fill="#000000" >C</text>
<circle cx="112.5372" cy="50.9077" r="5.0" stroke="#595959" stroke-width="1.0" fill="#ffffff"/>
<text x="112.5372" y="53.6077" text-anchor="middle" font-family="Helvetica" font-size="7.5" fill="#000000" >G</text>
<circle cx="107.5850" cy="70.3099" r="5.0" stroke="#595959" stroke-width="1.0" fill="#ffffff"/>
<text x="107.5850" y="73.0099" text-anchor="middle" font-family="Helvetica" font-size="7.5" fill="#000000" >G</text>
<circle cx="107.4673" cy="90.3421" r="5.0" stroke="#595959" stroke-width="1.0" fill="#ffffff"/>
<text x="107.4673" y="93.0421" text-anchor="middle" font-family="Helvetica" font-size="7.5" fill="#000000" >U</text>
<circle cx="107.3736" cy="110.3917" r="5.0" stroke="#595959" stroke-width="1.0" fill="#ffffff"/>
<text x="107.3736" y="113.0917" text-anchor="middle" font-family="Helvetica" font-size="7.5" fill="#000000" >G</text>
<circle cx="107.2891" cy="130.4317" r="5.0" stroke="#595959" stroke-width="1.0" fill="#ffffff"/>
<text x="107.2891" y="133.1317" text-anchor="middle" font-family="Helvetica" font-size="7.5" fill="#000000" >C</text>
<circle cx="107.1722" cy="150.4520" r="5.0" stroke="#595959" stroke-width="1.0" fill="#ffffff"/>
<text x="107.1722" y="153.1520" text-anchor="middle" font-family="Helvetica" font-size="7.5" fill="#000000" >C</text>
</svg>