<?xml version="1.0" encoding="UTF-8"?>
<!DOCTYPE svg PUBLIC "-//W3C//DTD SVG 1.1//EN" 
"http://www.w3.org/Graphics/SVG/1.1/DTD/svg11.dtd">

<svg version="1.1"
   width="182px"
   height="182px"
xmlns="http://www.w3.org/2000/svg">
    <rect width="100%" height="100%" fill="white"/>

  <line x1="72.6061" y1="108.6323" x2="72.7639" y2="88.5353" stroke="#595959"
     style="stroke-width:2;stroke-miterlimit:4;stroke-dasharray:1,1;stroke-dashoffset:0" />
  <line x1="72.5539" y1="68.4322" x2="70.5316" y2="48.5442" stroke="#595959"
     style="stroke-width:2;stroke-miterlimit:4;stroke-dasharray:1,1;stroke-dashoffset:0" />
  <line x1="102.7524" y1="47.3943" x2="121.3325" y2="54.4640" stroke="#595959"
     style="stroke-width:2;stroke-miterlimit:4;stroke-dasharray:1,1;stroke-dashoffset:0" />
  <line x1="121.3325" y1="54.4640" x2="106.4462" y2="68.0181" stroke="#595959"
     style="stroke-width:2;stroke-miterlimit:4;stroke-dasharray:1,1;stroke-dashoffset:0" />
  <line x1="106.4991" y1="88.5066" x2="106.3940" y2="108.9731" stroke="#595959"
     style="stroke-width:2;stroke-miterlimit:4;stroke-dasharray:1,1;stroke-dashoffset:0" />
  <line x1="71.6663" y1="150.4127" x2="105.8731" y2="151.0557" stroke="#f1b400" stroke-width="1.0" />
  <circle cx="88.7697" cy="150.7342" r="2.25" stroke="#f1b400" stroke-width="1.0" fill="#f1b400"/>
  <line x1="71.6963" y1="148.8130" x2="72.2312" y2="128.7294" stroke="#c33200" stroke-width="1.0" />
  <rect
     style="fill:#ffffff;fill-opacity:1;fill-rule:nonzero;stroke:none"
     width="2"
     height="2"
     x="71.4638"
     y="137.7712"
     transform="rotate(-88.4743 71.9638 138.7712)" /> 
  <path
     style="fill:none;stroke:#c33200;stroke-width:1px;stroke-linecap:butt;stroke-linejoin:miter;stroke-opacity:1"
     d="m 71.9638,136.7712 2,2 -2,2 m -2.370121,-4 2,2 -2,2"
     transform="rotate(-88.4743 71.9638 138.7712)"/>
  <line x1="71.7029" y1="148.4631" x2="105.9097" y2="149.1060" stroke="#7a03fd" stroke-width="1.0" />
  <line x1="71.7499" y1="145.9635" x2="105.9567" y2="146.6065" stroke="#7a03fd" stroke-width="1.0" />
  <line x1="72.2312" y1="128.7294" x2="72.6061" y2="108.6323" stroke="#000000" stroke-width="1.0" />
  <rect
     style="fill:#ffffff;fill-opacity:1;fill-rule:nonzero;stroke:none"
     width="2"
     height="2"
     x="71.9187"
     y="117.6808"
     transform="rotate(-88.9313 72.4187 118.6808)" /> 
  <path
     style="fill:none;stroke:#000000;stroke-width:1px;stroke-linecap:butt;stroke-linejoin:miter;stroke-opacity:1"
     d="m 72.4187,116.6808 2,2 -2,2 m -2.370121,-4 2,2 -2,2"
     transform="rotate(-88.9313 72.4187 118.6808)"/>
  <line x1="72.2099" y1="129.9792" x2="106.0712" y2="130.5575" stroke="#2d0032" stroke-width="1.0" />
  <line x1="72.2526" y1="127.4796" x2="106.1139" y2="128.0579" stroke="#2d0032" stroke-width="1.0" />
  <line x1="72.2312" y1="128.7294" x2="105.9031" y2="149.4560" stroke="#eeaa00" stroke-width="1.0" />
  <rect
     style="fill:#ffffff;stroke:none"
     width="5.5"
     height="2"
     x="86.3172"
     y="138.0927" 
     transform="rotate(31.6142 89.0672 139.0927)"    /> 
  <path
     style="fill:none;stroke:#eeaa00;stroke-width:1px;stroke-linecap:butt;stroke-linejoin:miter;stroke-opacity:1"
    d="m 89.8172,137.0927 2,2 -2,2 m -1.5,-4 -2,2 2,2" transform="rotate(31.6142 89.0672 139.0927)"/>
  <line x1="72.5935" y1="109.8823" x2="106.3814" y2="110.2230" stroke="#2d0032" stroke-width="1.0" />
  <line x1="72.6188" y1="107.3824" x2="106.4066" y2="107.7231" stroke="#2d0032" stroke-width="1.0" />
  <line x1="72.7639" y1="88.5353" x2="72.5539" y2="68.4322" stroke="#000000" stroke-width="1.0" />
  <rect
     style="fill:#ffffff;fill-opacity:1;fill-rule:nonzero;stroke:none"
     width="2"
     height="2"
     x="72.1589"
     y="77.4837"
     transform="rotate(269.4015 72.6589 78.4837)" /> 
  <path
     style="fill:none;stroke:#000000;stroke-width:1px;stroke-linecap:butt;stroke-linejoin:miter;stroke-opacity:1"
     d="m 72.6589,76.4837 2,2 -2,2 m -2.370121,-4 2,2 -2,2"
     transform="rotate(269.4015 72.6589 78.4837)"/>
  <line x1="72.7650" y1="89.7853" x2="106.5002" y2="89.7566" stroke="#3c0057" stroke-width="1.0" />
  <line x1="72.7628" y1="87.2853" x2="106.4981" y2="87.2566" stroke="#3c0057" stroke-width="1.0" />
  <line x1="72.7639" y1="88.5353" x2="106.3940" y2="108.9731" stroke="#3c0057" stroke-width="1.0" />
  <rect
     style="fill:#ffffff;stroke:none"
     width="5.5"
     height="2"
     x="86.8289"
     y="97.7542" 
     transform="rotate(31.2880 89.5789 98.7542)"    /> 
  <path
     style="fill:none;stroke:#3c0057;stroke-width:1px;stroke-linecap:butt;stroke-linejoin:miter;stroke-opacity:1"
    d="m 90.3289,96.7542 2,2 -2,2 m -1.5,-4 -2,2 2,2" transform="rotate(31.2880 89.5789 98.7542)"/>
  <line x1="72.5692" y1="69.6821" x2="106.4615" y2="69.2680" stroke="#2d0032" stroke-width="1.0" />
  <line x1="72.5386" y1="67.1823" x2="106.4310" y2="66.7681" stroke="#2d0032" stroke-width="1.0" />
  <line x1="70.5316" y1="48.5442" x2="86.1971" y2="36.1939" stroke="#17000d" stroke-width="1.0" />
  <rect
     style="fill:#ffffff;fill-opacity:1;fill-rule:nonzero;stroke:none"
     width="2"
     height="2"
     x="77.8643"
     y="41.3691"
     transform="rotate(-38.2513 78.3643 42.3691)" /> 
  <path
     style="fill:none;stroke:#17000d;stroke-width:1px;stroke-linecap:butt;stroke-linejoin:miter;stroke-opacity:1"
     d="m 78.3643,40.3691 2,2 -2,2 m -2.370121,-4 2,2 -2,2"
     transform="rotate(-38.2513 78.3643 42.3691)"/>
  <line x1="86.1971" y1="36.1939" x2="102.7524" y2="47.3943" stroke="#33003e" stroke-width="1.0" />
  <rect
     style="fill:#ffffff;fill-opacity:1;fill-rule:nonzero;stroke:none"
     width="2"
     height="2"
     x="93.9747"
     y="40.7941"
     transform="rotate(34.0802 94.4747 41.7941)" /> 
  <path
     style="fill:none;stroke:#33003e;stroke-width:1px;stroke-linecap:butt;stroke-linejoin:miter;stroke-opacity:1"
     d="m 94.4747,39.7941 2,2 -2,2 m -2.370121,-4 2,2 -2,2"
     transform="rotate(34.0802 94.4747 41.7941)"/>
  <line x1="102.7524" y1="47.3943" x2="106.4462" y2="68.0181" stroke="#520099" stroke-width="1.0" />
  <rect
     style="fill:#ffffff;fill-opacity:1;fill-rule:nonzero;stroke:none"
     width="2"
     height="2"
     x="104.0993"
     y="56.7062"
     transform="rotate(79.8456 104.5993 57.7062)" /> 
  <path
     style="fill:none;stroke:#520099;stroke-width:1px;stroke-linecap:butt;stroke-linejoin:miter;stroke-opacity:1"
     d="m 104.5993,55.7062 2,2 -2,2 m -2.370121,-4 2,2 -2,2"
     transform="rotate(79.8456 104.5993 57.7062)"/>
  <line x1="106.4462" y1="68.0181" x2="106.4991" y2="88.5066" stroke="#000000" stroke-width="1.0" />
  <rect
     style="fill:#ffffff;fill-opacity:1;fill-rule:nonzero;stroke:none"
     width="2"
     height="2"
     x="105.9727"
     y="77.2623"
     transform="rotate(89.8521 106.4727 78.2623)" /> 
  <path
     style="fill:none;stroke:#000000;stroke-width:1px;stroke-linecap:butt;stroke-linejoin:miter;stroke-opacity:1"
     d="m 106.4727,76.2623 2,2 -2,2 m -2.370121,-4 2,2 -2,2"
     transform="rotate(89.8521 106.4727 78.2623)"/>
  <line x1="106.3940" y1="108.9731" x2="106.0925" y2="129.3077" stroke="#000000" stroke-width="1.0" />
  <rect
     style="fill:#ffffff;fill-opacity:1;fill-rule:nonzero;stroke:none"
     width="2"
     height="2"
     x="105.7433"
     y="118.1404"
     transform="rotate(90.8493 106.2433 119.1404)" /> 
  <path
     style="fill:none;stroke:#000000;stroke-width:1px;stroke-linecap:butt;stroke-linejoin:miter;stroke-opacity:1"
     d="m 106.2433,117.1404 2,2 -2,2 m -2.370121,-4 2,2 -2,2"
     transform="rotate(90.8493 106.2433 119.1404)"/>
  <line x1="107.6925" y1="129.3228" x2="107.5031" y2="149.4710" stroke="#ac1845" stroke-width="1.0" />
  <rect
     style="fill:#ffffff;fill-opacity:1;fill-rule:nonzero;stroke:none"
     width="2"
     height="2"
     x="107.0978"
     y="138.3969"
     transform="rotate(90.5386 107.5978 139.3969)" /> 
  <path
     style="fill:none;stroke:#ac1845;stroke-width:1px;stroke-linecap:butt;stroke-linejoin:miter;stroke-opacity:1"
     d="m 107.5978,137.3969 2,2 -2,2 m -2.370121,-4 2,2 -2,2"
     transform="rotate(90.5386 107.5978 139.3969)"/>
  <line x1="104.4926" y1="129.2927" x2="104.3032" y2="149.4409" stroke="#ea9900" stroke-width="1.0" />
  <rect
     style="fill:#ffffff;fill-opacity:1;fill-rule:nonzero;stroke:none"
     width="2"
     height="2"
     x="103.3979"
     y="138.3668" 
     transform="rotate(90.5386 104.3979 139.3668)" /> 
  <path
     style="fill:none;stroke:#ea9900;stroke-width:1px;stroke-linecap:butt;stroke-linejoin:miter;stroke-opacity:1"
     d="m 107.3979,137.3668 -2,2 2,2 m -6,-4 2,2 -2,2"
     transform="rotate(90.5386 104.3979 139.3668)"/>
<circle cx="71.6963" cy="148.8130" r="5.0" stroke="#595959" stroke-width="1.0" fill="#ffffff"/>
<text x="71.6963" y="151.5130" text-anchor="middle" font-family="Helvetica" font-size="7.5" fill="#000000" >G</text>
<circle cx="72.2312" cy="128.7294" r="5.0" stroke="#595959" stroke-width="1.0" fill="#ffffff"/>
<text x="72.2312" y="131.4294" text-anchor="middle" font-family="Helvetica" font-size="7.5" fill="#000000" >G</text>
<circle cx="72.6061" cy="108.6323" r="5.0" stroke="#595959" stroke-width="1.0" fill="#ffffff"/>
<text x="72.6061" y="111.3323" text-anchor="middle" font-family="Helvetica" font-size="7.5" fill="#000000" >C</text>
<circle cx="72.7639" cy="88.5353" r="5.0" stroke="#595959" stroke-width="1.0" fill="#ffffff"/>
<text x="72.7639" y="91.2353" text-anchor="middle" font-family="Helvetica" font-size="7.5" fill="#000000" >G</text>
<circle cx="72.5539" cy="68.4322" r="5.0" stroke="#595959" stroke-width="1.0" fill="#ffffff"/>
<text x="72.5539" y="71.1322" text-anchor="middle" font-family="Helvetica" font-size="7.5" fill="#000000" >C</text>
<circle cx="70.5316" cy="48.5442" r="5.0" stroke="#595959" stroke-width="1.0" fill="#ffffff"/>
<text x="70.5316" y="51.2442" text-anchor="middle" font-family="Helvetica" font-size="7.5" fill="#000000" >A</text>
<circle cx="86.1971" cy="36.1939" r="5.0" stroke="#595959" stroke-width="1.0" fill="#ffffff"/>
<text x="86.1971" y="38.8939" text-anchor="middle" font-family="Helvetica" font-size="7.5" fill="#000000" >U</text>
<circle cx="102.7524" cy="47.3943" r="5.0" stroke="#595959" stroke-width="1.0" fill="#ffffff"/>
<text x="102.7524" y="50.0943" text-anchor="middle" font-family="Helvetica" font-size="7.5" fill="#000000" >C</text>
<circle cx="121.3325" cy="54.4640" r="5.0" stroke="#595959" stroke-width="1.0" fill="#ffffff"/>
<text x="121.3325" y="57.1640" text-anchor="middle" font-family="Helvetica" font-size="7.5" fill="#000000" >G</text>
<circle cx="106.4462" cy="68.0181" r="5.0" stroke="#595959" stroke-width="1.0" fill="#ffffff"/>
<text x="106.4462" y="70.7181" text-anchor="middle" font-family="Helvetica" font-size="7.5" fill="#000000" >G</text>
<circle cx="106.4991" cy="88.5066" r="5.0" stroke="#595959" stroke-width="1.0" fill="#ffffff"/>
<text x="106.4991" y="91.2066" text-anchor="middle" font-family="Helvetica" font-size="7.5" fill="#000000" >C</text>
<circle cx="106.3940" cy="108.9731" r="5.0" stroke="#595959" stroke-width="1.0" fill="#ffffff"/>
<text x="106.3940" y="111.6731" text-anchor="middle" font-family="Helvetica" font-size="7.5" fill="#000000" >G</text>
<circle cx="106.0925" cy="129.3077" r="5.0" stroke="#595959" stroke-width="1.0" fill="#ffffff"/>
<text x="106.0925" y="132.0077" text-anchor="middle" font-family="Helvetica" font-size="7.5" fill="#000000" >C</text>
<circle cx="105.9031" cy="149.4560" r="5.0" stroke="#595959" stroke-width="1.0" fill="#ffffff"/>
<text x="105.9031" y="152.1560" text-anchor="middle" font-family="Helvetica" font-size="7.5" fill="#000000" >C</text>
</svg>