<?xml version="1.0" encoding="UTF-8"?>
<!DOCTYPE svg PUBLIC "-//W3C//DTD SVG 1.1//EN" 
"http://www.w3.org/Graphics/SVG/1.1/DTD/svg11.dtd">

<svg version="1.1"
   width="182px"
   height="182px"
xmlns="http://www.w3.org/2000/svg">
    <rect width="100%" height="100%" fill="white"/>

  <line x1="72.5416" y1="108.5377" x2="72.7126" y2="88.3590" stroke="#595959"
     style="stroke-width:2;stroke-miterlimit:4;stroke-dasharray:1,1;stroke-dashoffset:0" />
  <line x1="87.9569" y1="36.0118" x2="104.9134" y2="46.6906" stroke="#595959"
     style="stroke-width:2;stroke-miterlimit:4;stroke-dasharray:1,1;stroke-dashoffset:0" />
  <line x1="104.9134" y1="46.6906" x2="122.2897" y2="56.3196" stroke="#595959"
     style="stroke-width:2;stroke-miterlimit:4;stroke-dasharray:1,1;stroke-dashoffset:0" />
  <line x1="122.2897" y1="56.3196" x2="105.5357" y2="67.5711" stroke="#595959"
     style="stroke-width:2;stroke-miterlimit:4;stroke-dasharray:1,1;stroke-dashoffset:0" />
  <line x1="105.6964" y1="88.3384" x2="105.5020" y2="109.0885" stroke="#595959"
     style="stroke-width:2;stroke-miterlimit:4;stroke-dasharray:1,1;stroke-dashoffset:0" />
  <line x1="71.9420" y1="47.9311" x2="104.9134" y2="46.6906" stroke="#5b01b5" stroke-width="1.0" />
  <path d="M 82.6777 49.5609 L 82.6777 45.0609 L 87.1777 45.0609 L 87.1777 49.5609 z" style="stroke:#5b01b5;stroke-width:1.0" fill="#5b01b5" 
    transform="rotate(177.8452 88.4277 47.3109)"/>
  <path d="M 90.1777 49.5609 L 90.1777 45.0609 L 94.1777 47.3109 z" style="stroke:#5b01b5;stroke-width:1.0" fill="#5b01b5"
    transform="rotate(177.8452 88.4277 47.3109)"/>
  <line x1="71.2465" y1="148.7761" x2="72.0186" y2="128.6723" stroke="#ce4700" stroke-width="1.0" />
  <rect
     style="fill:#ffffff;fill-opacity:1;fill-rule:nonzero;stroke:none"
     width="2"
     height="2"
     x="71.1325"
     y="137.7242"
     transform="rotate(-87.8007 71.6325 138.7242)" /> 
  <path
     style="fill:none;stroke:#ce4700;stroke-width:1px;stroke-linecap:butt;stroke-linejoin:miter;stroke-opacity:1"
     d="m 71.6325,136.7242 2,2 -2,2 m -2.370121,-4 2,2 -2,2"
     transform="rotate(-87.8007 71.6325 138.7242)"/>
  <line x1="71.2040" y1="150.0253" x2="104.1344" y2="151.1457" stroke="#37004b" stroke-width="1.0" />
  <line x1="71.2890" y1="147.5268" x2="104.2194" y2="148.6471" stroke="#37004b" stroke-width="1.0" />
  <line x1="72.0186" y1="128.6723" x2="72.5416" y2="108.5377" stroke="#000000" stroke-width="1.0" />
  <rect
     style="fill:#ffffff;fill-opacity:1;fill-rule:nonzero;stroke:none"
     width="2"
     height="2"
     x="71.7801"
     y="117.6050"
     transform="rotate(-88.5118 72.2801 118.6050)" /> 
  <path
     style="fill:none;stroke:#000000;stroke-width:1px;stroke-linecap:butt;stroke-linejoin:miter;stroke-opacity:1"
     d="m 72.2801,116.6050 2,2 -2,2 m -2.370121,-4 2,2 -2,2"
     transform="rotate(-88.5118 72.2801 118.6050)"/>
  <line x1="71.9815" y1="129.9218" x2="104.9225" y2="130.8995" stroke="#33003e" stroke-width="1.0" />
  <line x1="72.0556" y1="127.4229" x2="104.9967" y2="128.4006" stroke="#33003e" stroke-width="1.0" />
  <line x1="72.0186" y1="128.6723" x2="104.1769" y2="149.8964" stroke="#e99400" stroke-width="1.0" />
  <rect
     style="fill:#ffffff;stroke:none"
     width="5.5"
     height="2"
     x="85.3477"
     y="138.2844" 
     transform="rotate(33.4243 88.0977 139.2844)"    /> 
  <path
     style="fill:none;stroke:#e99400;stroke-width:1px;stroke-linecap:butt;stroke-linejoin:miter;stroke-opacity:1"
    d="m 88.8477,137.2844 2,2 -2,2 m -1.5,-4 -2,2 2,2" transform="rotate(33.4243 88.0977 139.2844)"/>
  <line x1="72.5207" y1="109.7876" x2="105.4811" y2="110.3383" stroke="#33003e" stroke-width="1.0" />
  <line x1="72.5625" y1="107.2879" x2="105.5229" y2="107.8386" stroke="#33003e" stroke-width="1.0" />
  <line x1="72.7126" y1="88.3590" x2="72.5080" y2="68.1573" stroke="#000000" stroke-width="1.0" />
  <rect
     style="fill:#ffffff;fill-opacity:1;fill-rule:nonzero;stroke:none"
     width="2"
     height="2"
     x="72.1103"
     y="77.2581"
     transform="rotate(269.4197 72.6103 78.2581)" /> 
  <path
     style="fill:none;stroke:#000000;stroke-width:1px;stroke-linecap:butt;stroke-linejoin:miter;stroke-opacity:1"
     d="m 72.6103,76.2581 2,2 -2,2 m -2.370121,-4 2,2 -2,2"
     transform="rotate(269.4197 72.6103 78.2581)"/>
  <line x1="72.7134" y1="89.6090" x2="105.6972" y2="89.5884" stroke="#2d0032" stroke-width="1.0" />
  <line x1="72.7118" y1="87.1090" x2="105.6956" y2="87.0884" stroke="#2d0032" stroke-width="1.0" />
  <line x1="72.7126" y1="88.3590" x2="105.5020" y2="109.0885" stroke="#37004b" stroke-width="1.0" />
  <rect
     style="fill:#ffffff;stroke:none"
     width="5.5"
     height="2"
     x="86.3573"
     y="97.7237" 
     transform="rotate(32.3011 89.1073 98.7237)"    /> 
  <path
     style="fill:none;stroke:#37004b;stroke-width:1px;stroke-linecap:butt;stroke-linejoin:miter;stroke-opacity:1"
    d="m 89.8573,96.7237 2,2 -2,2 m -1.5,-4 -2,2 2,2" transform="rotate(32.3011 89.1073 98.7237)"/>
  <line x1="72.5080" y1="68.1573" x2="71.9420" y2="47.9311" stroke="#480079" stroke-width="1.0" />
  <rect
     style="fill:#ffffff;fill-opacity:1;fill-rule:nonzero;stroke:none"
     width="2"
     height="2"
     x="71.7250"
     y="57.0442"
     transform="rotate(268.3972 72.2250 58.0442)" /> 
  <path
     style="fill:none;stroke:#480079;stroke-width:1px;stroke-linecap:butt;stroke-linejoin:miter;stroke-opacity:1"
     d="m 72.2250,56.0442 2,2 -2,2 m -2.370121,-4 2,2 -2,2"
     transform="rotate(268.3972 72.2250 58.0442)"/>
  <line x1="72.5302" y1="69.4071" x2="105.5578" y2="68.8209" stroke="#37004b" stroke-width="1.0" />
  <line x1="72.4858" y1="66.9075" x2="105.5135" y2="66.3213" stroke="#37004b" stroke-width="1.0" />
  <line x1="71.9420" y1="47.9311" x2="87.9569" y2="36.0118" stroke="#4e008f" stroke-width="1.0" />
  <rect
     style="fill:#ffffff;fill-opacity:1;fill-rule:nonzero;stroke:none"
     width="2"
     height="2"
     x="79.4495"
     y="40.9715"
     transform="rotate(-36.6590 79.9495 41.9715)" /> 
  <path
     style="fill:none;stroke:#4e008f;stroke-width:1px;stroke-linecap:butt;stroke-linejoin:miter;stroke-opacity:1"
     d="m 79.9495,39.9715 2,2 -2,2 m -2.370121,-4 2,2 -2,2"
     transform="rotate(-36.6590 79.9495 41.9715)"/>
  <line x1="104.9134" y1="46.6906" x2="105.5357" y2="67.5711" stroke="#200019" stroke-width="1.0" />
  <rect
     style="fill:#ffffff;fill-opacity:1;fill-rule:nonzero;stroke:none"
     width="2"
     height="2"
     x="104.7246"
     y="56.1308"
     transform="rotate(88.2931 105.2246 57.1308)" /> 
  <path
     style="fill:none;stroke:#200019;stroke-width:1px;stroke-linecap:butt;stroke-linejoin:miter;stroke-opacity:1"
     d="m 105.2246,55.1308 2,2 -2,2 m -2.370121,-4 2,2 -2,2"
     transform="rotate(88.2931 105.2246 57.1308)"/>
  <line x1="105.5357" y1="67.5711" x2="105.6964" y2="88.3384" stroke="#000000" stroke-width="1.0" />
  <rect
     style="fill:#ffffff;fill-opacity:1;fill-rule:nonzero;stroke:none"
     width="2"
     height="2"
     x="105.1160"
     y="76.9547"
     transform="rotate(89.5565 105.6160 77.9547)" /> 
  <path
     style="fill:none;stroke:#000000;stroke-width:1px;stroke-linecap:butt;stroke-linejoin:miter;stroke-opacity:1"
     d="m 105.6160,75.9547 2,2 -2,2 m -2.370121,-4 2,2 -2,2"
     transform="rotate(89.5565 105.6160 77.9547)"/>
  <line x1="105.5020" y1="109.0885" x2="104.9596" y2="129.6500" stroke="#000000" stroke-width="1.0" />
  <rect
     style="fill:#ffffff;fill-opacity:1;fill-rule:nonzero;stroke:none"
     width="2"
     height="2"
     x="104.7308"
     y="118.3693"
     transform="rotate(91.5112 105.2308 119.3693)" /> 
  <path
     style="fill:none;stroke:#000000;stroke-width:1px;stroke-linecap:butt;stroke-linejoin:miter;stroke-opacity:1"
     d="m 105.2308,117.3693 2,2 -2,2 m -2.370121,-4 2,2 -2,2"
     transform="rotate(91.5112 105.2308 119.3693)"/>
  <line x1="104.9596" y1="129.6500" x2="104.1769" y2="149.8964" stroke="#980bca" stroke-width="1.0" />
  <rect
     style="fill:#ffffff;fill-opacity:1;fill-rule:nonzero;stroke:none"
     width="2"
     height="2"
     x="104.0682"
     y="138.7732"
     transform="rotate(92.2138 104.5682 139.7732)" /> 
  <path
     style="fill:none;stroke:#980bca;stroke-width:1px;stroke-linecap:butt;stroke-linejoin:miter;stroke-opacity:1"
     d="m 104.5682,137.7732 2,2 -2,2 m -2.370121,-4 2,2 -2,2"
     transform="rotate(92.2138 104.5682 139.7732)"/>
<circle cx="71.2465" cy="148.7761" r="5.0" stroke="#595959" stroke-width="1.0" fill="#ffffff"/>
<text x="71.2465" y="151.4761" text-anchor="middle" font-family="Helvetica" font-size="7.5" fill="#000000" >G</text>
<circle cx="72.0186" cy="128.6723" r="5.0" stroke="#595959" stroke-width="1.0" fill="#ffffff"/>
<text x="72.0186" y="131.3723" text-anchor="middle" font-family="Helvetica" font-size="7.5" fill="#000000" >G</text>
<circle cx="72.5416" cy="108.5377" r="5.0" stroke="#595959" stroke-width="1.0" fill="#ffffff"/>
<text x="72.5416" y="111.2377" text-anchor="middle" font-family="Helvetica" font-size="7.5" fill="#000000" >C</text>
<circle cx="72.7126" cy="88.3590" r="5.0" stroke="#595959" stroke-width="1.0" fill="#ffffff"/>
<text x="72.7126" y="91.0590" text-anchor="middle" font-family="Helvetica" font-size="7.5" fill="#000000" >G</text>
<circle cx="72.5080" cy="68.1573" r="5.0" stroke="#595959" stroke-width="1.0" fill="#ffffff"/>
<text x="72.5080" y="70.8573" text-anchor="middle" font-family="Helvetica" font-size="7.5" fill="#000000" >C</text>
<circle cx="71.9420" cy="47.9311" r="5.0" stroke="#595959" stroke-width="1.0" fill="#ffffff"/>
<text x="71.9420" y="50.6311" text-anchor="middle" font-family="Helvetica" font-size="7.5" fill="#000000" >A</text>
<circle cx="87.9569" cy="36.0118" r="5.0" stroke="#595959" stroke-width="1.0" fill="#ffffff"/>
<text x="87.9569" y="38.7118" text-anchor="middle" font-family="Helvetica" font-size="7.5" fill="#000000" >U</text>
<circle cx="104.9134" cy="46.6906" r="5.0" stroke="#595959" stroke-width="1.0" fill="#ffffff"/>
<text x="104.9134" y="49.3906" text-anchor="middle" font-family="Helvetica" font-size="7.5" fill="#000000" >C</text>
<circle cx="122.2897" cy="56.3196" r="5.0" stroke="#595959" stroke-width="1.0" fill="#ffffff"/>
<text x="122.2897" y="59.0196" text-anchor="middle" font-family="Helvetica" font-size="7.5" fill="#000000" >G</text>
<circle cx="105.5357" cy="67.5711" r="5.0" stroke="#595959" stroke-width="1.0" fill="#ffffff"/>
<text x="105.5357" y="70.2711" text-anchor="middle" font-family="Helvetica" font-size="7.5" fill="#000000" >G</text>
<circle cx="105.6964" cy="88.3384" r="5.0" stroke="#595959" stroke-width="1.0" fill="#ffffff"/>
<text x="105.6964" y="91.0384" text-anchor="middle" font-family="Helvetica" font-size="7.5" fill="#000000" >C</text>
<circle cx="105.5020" cy="109.0885" r="5.0" stroke="#595959" stroke-width="1.0" fill="#ffffff"/>
<text x="105.5020" y="111.7885" text-anchor="middle" font-family="Helvetica" font-size="7.5" fill="#000000" >G</text>
<circle cx="104.9596" cy="129.6500" r="5.0" stroke="#595959" stroke-width="1.0" fill="#ffffff"/>
<text x="104.9596" y="132.3500" text-anchor="middle" font-family="Helvetica" font-size="7.5" fill="#000000" >C</text>
<circle cx="104.1769" cy="149.8964" r="5.0" stroke="#595959" stroke-width="1.0" fill="#ffffff"/>
<text x="104.1769" y="152.5964" text-anchor="middle" font-family="Helvetica" font-size="7.5" fill="#000000" >C</text>
</svg>