<?xml version="1.0" encoding="UTF-8"?>
<!DOCTYPE svg PUBLIC "-//W3C//DTD SVG 1.1//EN" 
"http://www.w3.org/Graphics/SVG/1.1/DTD/svg11.dtd">

<svg version="1.1"
   width="308px"
   height="308px"
xmlns="http://www.w3.org/2000/svg">
    <rect width="100%" height="100%" fill="white"/>

  <line x1="137.0780" y1="218.3632" x2="137.1440" y2="198.4068" stroke="#595959"
     style="stroke-width:2;stroke-miterlimit:4;stroke-dasharray:1,1;stroke-dashoffset:0" />
  <line x1="137.0582" y1="98.8940" x2="134.5022" y2="79.1964" stroke="#595959"
     style="stroke-width:2;stroke-miterlimit:4;stroke-dasharray:1,1;stroke-dashoffset:0" />
  <line x1="134.5022" y1="79.1964" x2="137.8697" y2="59.5352" stroke="#595959"
     style="stroke-width:2;stroke-miterlimit:4;stroke-dasharray:1,1;stroke-dashoffset:0" />
  <line x1="137.8697" y1="59.5352" x2="155.5072" y2="50.1770" stroke="#595959"
     style="stroke-width:2;stroke-miterlimit:4;stroke-dasharray:1,1;stroke-dashoffset:0" />
  <line x1="155.5072" y1="50.1770" x2="172.8309" y2="60.1359" stroke="#595959"
     style="stroke-width:2;stroke-miterlimit:4;stroke-dasharray:1,1;stroke-dashoffset:0" />
  <line x1="172.8309" y1="60.1359" x2="177.1059" y2="79.6630" stroke="#595959"
     style="stroke-width:2;stroke-miterlimit:4;stroke-dasharray:1,1;stroke-dashoffset:0" />
  <line x1="177.1059" y1="79.6630" x2="169.8758" y2="98.3451" stroke="#595959"
     style="stroke-width:2;stroke-miterlimit:4;stroke-dasharray:1,1;stroke-dashoffset:0" />
  <line x1="169.8758" y1="98.3451" x2="170.2160" y2="118.5198" stroke="#595959"
     style="stroke-width:2;stroke-miterlimit:4;stroke-dasharray:1,1;stroke-dashoffset:0" />
  <line x1="170.0014" y1="198.5292" x2="169.8561" y2="218.5039" stroke="#595959"
     style="stroke-width:2;stroke-miterlimit:4;stroke-dasharray:1,1;stroke-dashoffset:0" />
  <line x1="137.0290" y1="158.5431" x2="170.4476" y2="158.5778" stroke="#e89000" stroke-width="1.0" />
  <circle cx="153.7383" cy="158.5605" r="2.25" stroke="#e89000" stroke-width="1.0" fill="#e89000"/>
  <line x1="137.1535" y1="140.2502" x2="170.4709" y2="140.1619" stroke="#eeaa00" stroke-width="1.0" />
  <circle cx="153.8122" cy="140.2060" r="2.25" stroke="#eeaa00" stroke-width="1.0" fill="#eeaa00"/>
  <line x1="137.0850" y1="100.4938" x2="169.9026" y2="99.9449" stroke="#7302f5" stroke-width="1.0" />
  <circle cx="153.4938" cy="100.2193" r="2.25" stroke="#7302f5" stroke-width="1.0" fill="#7302f5"/>
  <line x1="136.9472" y1="258.3199" x2="136.9860" y2="238.3343" stroke="#c93d00" stroke-width="1.0" />
  <rect
     style="fill:#ffffff;fill-opacity:1;fill-rule:nonzero;stroke:none"
     width="2"
     height="2"
     x="136.4666"
     y="247.3271"
     transform="rotate(-89.8888 136.9666 248.3271)" /> 
  <path
     style="fill:none;stroke:#c93d00;stroke-width:1px;stroke-linecap:butt;stroke-linejoin:miter;stroke-opacity:1"
     d="m 136.9666,246.3271 2,2 -2,2 m -2.370121,-4 2,2 -2,2"
     transform="rotate(-89.8888 136.9666 248.3271)"/>
  <line x1="136.9414" y1="259.5699" x2="169.6250" y2="259.7239" stroke="#37004b" stroke-width="1.0" />
  <line x1="136.9531" y1="257.0700" x2="169.6368" y2="257.2239" stroke="#37004b" stroke-width="1.0" />
  <line x1="136.9860" y1="238.3343" x2="137.0780" y2="218.3632" stroke="#000000" stroke-width="1.0" />
  <rect
     style="fill:#ffffff;fill-opacity:1;fill-rule:nonzero;stroke:none"
     width="2"
     height="2"
     x="136.5320"
     y="227.3488"
     transform="rotate(-89.7362 137.0320 228.3488)" /> 
  <path
     style="fill:none;stroke:#000000;stroke-width:1px;stroke-linecap:butt;stroke-linejoin:miter;stroke-opacity:1"
     d="m 137.0320,226.3488 2,2 -2,2 m -2.370121,-4 2,2 -2,2"
     transform="rotate(-89.7362 137.0320 228.3488)"/>
  <line x1="136.9803" y1="239.5843" x2="169.7079" y2="239.7343" stroke="#2d0032" stroke-width="1.0" />
  <line x1="136.9918" y1="237.0843" x2="169.7193" y2="237.2343" stroke="#2d0032" stroke-width="1.0" />
  <line x1="136.9860" y1="238.3343" x2="169.6309" y2="258.4739" stroke="#efaf00" stroke-width="1.0" />
  <rect
     style="fill:#ffffff;stroke:none"
     width="5.5"
     height="2"
     x="150.5585"
     y="247.4041" 
     transform="rotate(31.6717 153.3085 248.4041)"    /> 
  <path
     style="fill:none;stroke:#efaf00;stroke-width:1px;stroke-linecap:butt;stroke-linejoin:miter;stroke-opacity:1"
    d="m 154.0585,246.4041 2,2 -2,2 m -1.5,-4 -2,2 2,2" transform="rotate(31.6717 153.3085 248.4041)"/>
  <line x1="137.0726" y1="219.6132" x2="169.8507" y2="219.7538" stroke="#200019" stroke-width="1.0" />
  <line x1="137.0834" y1="217.1132" x2="169.8614" y2="217.2539" stroke="#200019" stroke-width="1.0" />
  <line x1="137.1440" y1="198.4068" x2="137.1530" y2="178.4673" stroke="#8d07ef" stroke-width="1.0" />
  <rect
     style="fill:#ffffff;fill-opacity:1;fill-rule:nonzero;stroke:none"
     width="2"
     height="2"
     x="136.6485"
     y="187.4371"
     transform="rotate(-89.9740 137.1485 188.4371)" /> 
  <path
     style="fill:none;stroke:#8d07ef;stroke-width:1px;stroke-linecap:butt;stroke-linejoin:miter;stroke-opacity:1"
     d="m 137.1485,186.4371 2,2 -2,2 m -2.370121,-4 2,2 -2,2"
     transform="rotate(-89.9740 137.1485 188.4371)"/>
  <line x1="137.1440" y1="198.4068" x2="170.0014" y2="198.5292" stroke="#37004b" stroke-width="1.0" />
  <line x1="137.1440" y1="198.4068" x2="169.8561" y2="218.5039" stroke="#270026" stroke-width="1.0" />
  <rect
     style="fill:#ffffff;stroke:none"
     width="5.5"
     height="2"
     x="150.7500"
     y="207.4554" 
     transform="rotate(31.5649 153.5000 208.4554)"    /> 
  <path
     style="fill:none;stroke:#270026;stroke-width:1px;stroke-linecap:butt;stroke-linejoin:miter;stroke-opacity:1"
    d="m 154.2500,206.4554 2,2 -2,2 m -1.5,-4 -2,2 2,2" transform="rotate(31.5649 153.5000 208.4554)"/>
  <line x1="137.1530" y1="178.4673" x2="137.0290" y2="158.5431" stroke="#8806f9" stroke-width="1.0" />
  <rect
     style="fill:#ffffff;fill-opacity:1;fill-rule:nonzero;stroke:none"
     width="2"
     height="2"
     x="136.5910"
     y="167.5052"
     transform="rotate(269.6433 137.0910 168.5052)" /> 
  <path
     style="fill:none;stroke:#8806f9;stroke-width:1px;stroke-linecap:butt;stroke-linejoin:miter;stroke-opacity:1"
     d="m 137.0910,166.5052 2,2 -2,2 m -2.370121,-4 2,2 -2,2"
     transform="rotate(269.6433 137.0910 168.5052)"/>
  <line x1="137.1497" y1="179.7173" x2="170.2305" y2="179.8051" stroke="#400062" stroke-width="1.0" />
  <line x1="137.1563" y1="177.2173" x2="170.2371" y2="177.3051" stroke="#400062" stroke-width="1.0" />
  <line x1="137.0290" y1="158.5431" x2="137.1493" y2="138.6502" stroke="#9d0eb1" stroke-width="1.0" />
  <rect
     style="fill:#ffffff;fill-opacity:1;fill-rule:nonzero;stroke:none"
     width="2"
     height="2"
     x="136.5891"
     y="147.5966"
     transform="rotate(-89.6536 137.0891 148.5966)" /> 
  <path
     style="fill:none;stroke:#9d0eb1;stroke-width:1px;stroke-linecap:butt;stroke-linejoin:miter;stroke-opacity:1"
     d="m 137.0891,146.5966 2,2 -2,2 m -2.370121,-4 2,2 -2,2"
     transform="rotate(-89.6536 137.0891 148.5966)"/>
  <line x1="137.1493" y1="138.6502" x2="137.1975" y2="118.7627" stroke="#980bca" stroke-width="1.0" />
  <rect
     style="fill:#ffffff;fill-opacity:1;fill-rule:nonzero;stroke:none"
     width="2"
     height="2"
     x="136.6734"
     y="127.7065"
     transform="rotate(-89.8611 137.1734 128.7065)" /> 
  <path
     style="fill:none;stroke:#980bca;stroke-width:1px;stroke-linecap:butt;stroke-linejoin:miter;stroke-opacity:1"
     d="m 137.1734,126.7065 2,2 -2,2 m -2.370121,-4 2,2 -2,2"
     transform="rotate(-89.8611 137.1734 128.7065)"/>
  <line x1="137.1450" y1="137.0502" x2="170.4624" y2="136.9619" stroke="#7302f5" stroke-width="1.0" />
  <line x1="137.1975" y1="118.7627" x2="137.0582" y2="98.8940" stroke="#17000d" stroke-width="1.0" />
  <rect
     style="fill:#ffffff;fill-opacity:1;fill-rule:nonzero;stroke:none"
     width="2"
     height="2"
     x="136.6279"
     y="107.8284"
     transform="rotate(269.5984 137.1279 108.8284)" /> 
  <path
     style="fill:none;stroke:#17000d;stroke-width:1px;stroke-linecap:butt;stroke-linejoin:miter;stroke-opacity:1"
     d="m 137.1279,106.8284 2,2 -2,2 m -2.370121,-4 2,2 -2,2"
     transform="rotate(269.5984 137.1279 108.8284)"/>
  <line x1="137.2067" y1="120.0127" x2="170.2252" y2="119.7698" stroke="#270026" stroke-width="1.0" />
  <line x1="137.1883" y1="117.5128" x2="170.2068" y2="117.2698" stroke="#270026" stroke-width="1.0" />
  <line x1="137.1975" y1="118.7627" x2="170.4667" y2="138.5619" stroke="#e89000" stroke-width="1.0" />
  <rect
     style="fill:#ffffff;stroke:none"
     width="5.5"
     height="2"
     x="151.0821"
     y="127.6623" 
     transform="rotate(30.7577 153.8321 128.6623)"    /> 
  <path
     style="fill:none;stroke:#e89000;stroke-width:1px;stroke-linecap:butt;stroke-linejoin:miter;stroke-opacity:1"
    d="m 154.5821,126.6623 2,2 -2,2 m -1.5,-4 -2,2 2,2" transform="rotate(30.7577 153.8321 128.6623)"/>
  <line x1="137.0315" y1="97.2942" x2="169.8491" y2="96.7453" stroke="#f1b400" stroke-width="1.0" />
  <line x1="134.5022" y1="79.1964" x2="169.8758" y2="98.3451" stroke="#44006e" stroke-width="1.0" />
  <rect
     style="fill:#ffffff;stroke:none"
     width="5.5"
     height="2"
     x="149.4390"
     y="87.7707" 
     transform="rotate(28.4279 152.1890 88.7707)"    /> 
  <path
     style="fill:none;stroke:#44006e;stroke-width:1px;stroke-linecap:butt;stroke-linejoin:miter;stroke-opacity:1"
    d="m 152.9390,86.7707 2,2 -2,2 m -1.5,-4 -2,2 2,2" transform="rotate(28.4279 152.1890 88.7707)"/>
  <line x1="170.2160" y1="118.5198" x2="170.4667" y2="138.5619" stroke="#c02e00" stroke-width="1.0" />
  <rect
     style="fill:#ffffff;fill-opacity:1;fill-rule:nonzero;stroke:none"
     width="2"
     height="2"
     x="169.8413"
     y="127.5408"
     transform="rotate(89.2835 170.3413 128.5408)" /> 
  <path
     style="fill:none;stroke:#c02e00;stroke-width:1px;stroke-linecap:butt;stroke-linejoin:miter;stroke-opacity:1"
     d="m 170.3413,126.5408 2,2 -2,2 m -2.370121,-4 2,2 -2,2"
     transform="rotate(89.2835 170.3413 128.5408)"/>
  <line x1="170.4667" y1="138.5619" x2="170.4476" y2="158.5778" stroke="#8f08ea" stroke-width="1.0" />
  <rect
     style="fill:#ffffff;fill-opacity:1;fill-rule:nonzero;stroke:none"
     width="2"
     height="2"
     x="169.9571"
     y="147.5699"
     transform="rotate(90.0546 170.4571 148.5699)" /> 
  <path
     style="fill:none;stroke:#8f08ea;stroke-width:1px;stroke-linecap:butt;stroke-linejoin:miter;stroke-opacity:1"
     d="m 170.4571,146.5699 2,2 -2,2 m -2.370121,-4 2,2 -2,2"
     transform="rotate(90.0546 170.4571 148.5699)"/>
  <line x1="170.4476" y1="158.5778" x2="170.2338" y2="178.5551" stroke="#d55800" stroke-width="1.0" />
  <rect
     style="fill:#ffffff;fill-opacity:1;fill-rule:nonzero;stroke:none"
     width="2"
     height="2"
     x="169.8407"
     y="167.5665"
     transform="rotate(90.6132 170.3407 168.5665)" /> 
  <path
     style="fill:none;stroke:#d55800;stroke-width:1px;stroke-linecap:butt;stroke-linejoin:miter;stroke-opacity:1"
     d="m 170.3407,166.5665 2,2 -2,2 m -2.370121,-4 2,2 -2,2"
     transform="rotate(90.6132 170.3407 168.5665)"/>
  <line x1="170.2338" y1="178.5551" x2="170.0014" y2="198.5292" stroke="#a5137f" stroke-width="1.0" />
  <rect
     style="fill:#ffffff;fill-opacity:1;fill-rule:nonzero;stroke:none"
     width="2"
     height="2"
     x="169.6176"
     y="187.5421"
     transform="rotate(90.6665 170.1176 188.5421)" /> 
  <path
     style="fill:none;stroke:#a5137f;stroke-width:1px;stroke-linecap:butt;stroke-linejoin:miter;stroke-opacity:1"
     d="m 170.1176,186.5421 2,2 -2,2 m -2.370121,-4 2,2 -2,2"
     transform="rotate(90.6665 170.1176 188.5421)"/>
  <line x1="169.8561" y1="218.5039" x2="169.7136" y2="238.4843" stroke="#000000" stroke-width="1.0" />
  <rect
     style="fill:#ffffff;fill-opacity:1;fill-rule:nonzero;stroke:none"
     width="2"
     height="2"
     x="169.2848"
     y="227.4941"
     transform="rotate(90.4085 169.7848 228.4941)" /> 
  <path
     style="fill:none;stroke:#000000;stroke-width:1px;stroke-linecap:butt;stroke-linejoin:miter;stroke-opacity:1"
     d="m 169.7848,226.4941 2,2 -2,2 m -2.370121,-4 2,2 -2,2"
     transform="rotate(90.4085 169.7848 228.4941)"/>
  <line x1="169.7136" y1="238.4843" x2="169.6309" y2="258.4739" stroke="#9d0eb1" stroke-width="1.0" />
  <rect
     style="fill:#ffffff;fill-opacity:1;fill-rule:nonzero;stroke:none"
     width="2"
     height="2"
     x="169.1722"
     y="247.4791"
     transform="rotate(90.2371 169.6722 248.4791)" /> 
  <path
     style="fill:none;stroke:#9d0eb1;stroke-width:1px;stroke-linecap:butt;stroke-linejoin:miter;stroke-opacity:1"
     d="m 169.6722,246.4791 2,2 -2,2 m -2.370121,-4 2,2 -2,2"
     transform="rotate(90.2371 169.6722 248.4791)"/>
<circle cx="136.9472" cy="258.3199" r="5.0" stroke="#595959" stroke-width="1.0" fill="#ffffff"/>
<text x="136.9472" y="261.0199" text-anchor="middle" font-family="Helvetica" font-size="7.5" fill="#000000" >G</text>
<circle cx="136.9860" cy="238.3343" r="5.0" stroke="#595959" stroke-width="1.0" fill="#ffffff"/>
<text x="136.9860" y="241.0343" text-anchor="middle" font-family="Helvetica" font-size="7.5" fill="#000000" >G</text>
<circle cx="137.0780" cy="218.3632" r="5.0" stroke="#595959" stroke-width="1.0" fill="#ffffff"/>
<text x="137.0780" y="221.0632" text-anchor="middle" font-family="Helvetica" font-size="7.5" fill="#000000" >C</text>
<circle cx="137.1440" cy="198.4068" r="5.0" stroke="#595959" stroke-width="1.0" fill="#ffffff"/>
<text x="137.1440" y="201.1068" text-anchor="middle" font-family="Helvetica" font-size="7.5" fill="#000000" >A</text>
<circle cx="137.1530" cy="178.4673" r="5.0" stroke="#595959" stroke-width="1.0" fill="#ffffff"/>
<text x="137.1530" y="181.1673" text-anchor="middle" font-family="Helvetica" font-size="7.5" fill="#000000" >G</text>
<circle cx="137.0290" cy="158.5431" r="5.0" stroke="#595959" stroke-width="1.0" fill="#ffffff"/>
<text x="137.0290" y="161.2431" text-anchor="middle" font-family="Helvetica" font-size="7.5" fill="#000000" >A</text>
<circle cx="137.1493" cy="138.6502" r="5.0" stroke="#595959" stroke-width="1.0" fill="#ffffff"/>
<text x="137.1493" y="141.3502" text-anchor="middle" font-family="Helvetica" font-size="7.5" fill="#000000" >U</text>
<circle cx="137.1975" cy="118.7627" r="5.0" stroke="#595959" stroke-width="1.0" fill="#ffffff"/>
<text x="137.1975" y="121.4627" text-anchor="middle" font-family="Helvetica" font-size="7.5" fill="#000000" >C</text>
<circle cx="137.0582" cy="98.8940" r="5.0" stroke="#595959" stroke-width="1.0" fill="#ffffff"/>
<text x="137.0582" y="101.5940" text-anchor="middle" font-family="Helvetica" font-size="7.5" fill="#000000" >U</text>
<circle cx="134.5022" cy="79.1964" r="5.0" stroke="#595959" stroke-width="1.0" fill="#ffffff"/>
<text x="134.5022" y="81.8964" text-anchor="middle" font-family="Helvetica" font-size="7.5" fill="#000000" >G</text>
<circle cx="137.8697" cy="59.5352" r="5.0" stroke="#595959" stroke-width="1.0" fill="#ffffff"/>
<text x="137.8697" y="62.2352" text-anchor="middle" font-family="Helvetica" font-size="7.5" fill="#000000" >U</text>
<circle cx="155.5072" cy="50.1770" r="5.0" stroke="#595959" stroke-width="1.0" fill="#ffffff"/>
<text x="155.5072" y="52.8770" text-anchor="middle" font-family="Helvetica" font-size="7.5" fill="#000000" >A</text>
<circle cx="172.8309" cy="60.1359" r="5.0" stroke="#595959" stroke-width="1.0" fill="#ffffff"/>
<text x="172.8309" y="62.8359" text-anchor="middle" font-family="Helvetica" font-size="7.5" fill="#000000" >A</text>
<circle cx="177.1059" cy="79.6630" r="5.0" stroke="#595959" stroke-width="1.0" fill="#ffffff"/>
<text x="177.1059" y="82.3630" text-anchor="middle" font-family="Helvetica" font-size="7.5" fill="#000000" >U</text>
<circle cx="169.8758" cy="98.3451" r="5.0" stroke="#595959" stroke-width="1.0" fill="#ffffff"/>
<text x="169.8758" y="101.0451" text-anchor="middle" font-family="Helvetica" font-size="7.5" fill="#000000" >A</text>
<circle cx="170.2160" cy="118.5198" r="5.0" stroke="#595959" stroke-width="1.0" fill="#ffffff"/>
<text x="170.2160" y="121.2198" text-anchor="middle" font-family="Helvetica" font-size="7.5" fill="#000000" >G</text>
<circle cx="170.4667" cy="138.5619" r="5.0" stroke="#595959" stroke-width="1.0" fill="#ffffff"/>
<text x="170.4667" y="141.2619" text-anchor="middle" font-family="Helvetica" font-size="7.5" fill="#000000" >A</text>
<circle cx="170.4476" cy="158.5778" r="5.0" stroke="#595959" stroke-width="1.0" fill="#ffffff"/>
<text x="170.4476" y="161.2778" text-anchor="middle" font-family="Helvetica" font-size="7.5" fill="#000000" >A</text>
<circle cx="170.2338" cy="178.5551" r="5.0" stroke="#595959" stroke-width="1.0" fill="#ffffff"/>
<text x="170.2338" y="181.2551" text-anchor="middle" font-family="Helvetica" font-size="7.5" fill="#000000" >C</text>
<circle cx="170.0014" cy="198.5292" r="5.0" stroke="#595959" stroke-width="1.0" fill="#ffffff"/>
<text x="170.0014" y="201.2292" text-anchor="middle" font-family="Helvetica" font-size="7.5" fill="#000000" >U</text>
<circle cx="169.8561" cy="218.5039" r="5.0" stroke="#595959" stroke-width="1.0" fill="#ffffff"/>
<text x="169.8561" y="221.2039" text-anchor="middle" font-family="Helvetica" font-size="7.5" fill="#000000" >G</text>
<circle cx="169.7136" cy="238.4843" r="5.0" stroke="#595959" stroke-width="1.0" fill="#ffffff"/>
<text x="169.7136" y="241.1843" text-anchor="middle" font-family="Helvetica" font-size="7.5" fill="#000000" >C</text>
<circle cx="169.6309" cy="258.4739" r="5.0" stroke="#595959" stroke-width="1.0" fill="#ffffff"/>
<text x="169.6309" y="261.1739" text-anchor="middle" font-family="Helvetica" font-size="7.5" fill="#000000" >C</text>
</svg>