<?xml version="1.0" encoding="UTF-8"?>
<!DOCTYPE svg PUBLIC "-//W3C//DTD SVG 1.1//EN" 
"http://www.w3.org/Graphics/SVG/1.1/DTD/svg11.dtd">

<svg version="1.1"
   width="182px"
   height="182px"
xmlns="http://www.w3.org/2000/svg">
    <rect width="100%" height="100%" fill="white"/>

  <line x1="74.2830" y1="110.3719" x2="74.2549" y2="90.3407" stroke="#595959"
     style="stroke-width:2;stroke-miterlimit:4;stroke-dasharray:1,1;stroke-dashoffset:0" />
  <line x1="69.5889" y1="50.7833" x2="81.0094" y2="34.3803" stroke="#595959"
     style="stroke-width:2;stroke-miterlimit:4;stroke-dasharray:1,1;stroke-dashoffset:0" />
  <line x1="81.0094" y1="34.3803" x2="100.9906" y2="34.3803" stroke="#595959"
     style="stroke-width:2;stroke-miterlimit:4;stroke-dasharray:1,1;stroke-dashoffset:0" />
  <line x1="112.4111" y1="50.7833" x2="107.9407" y2="70.3136" stroke="#595959"
     style="stroke-width:2;stroke-miterlimit:4;stroke-dasharray:1,1;stroke-dashoffset:0" />
  <line x1="107.7451" y1="90.3407" x2="107.7170" y2="110.3719" stroke="#595959"
     style="stroke-width:2;stroke-miterlimit:4;stroke-dasharray:1,1;stroke-dashoffset:0" />
  <line x1="74.3483" y1="150.4124" x2="74.3356" y2="130.3976" stroke="#c73900" stroke-width="1.0" />
  <rect
     style="fill:#ffffff;fill-opacity:1;fill-rule:nonzero;stroke:none"
     width="2"
     height="2"
     x="73.8420"
     y="139.4050"
     transform="rotate(269.9637 74.3420 140.4050)" /> 
  <path
     style="fill:none;stroke:#c73900;stroke-width:1px;stroke-linecap:butt;stroke-linejoin:miter;stroke-opacity:1"
     d="m 74.3420,138.4050 2,2 -2,2 m -2.370121,-4 2,2 -2,2"
     transform="rotate(269.9637 74.3420 140.4050)"/>
  <line x1="74.3483" y1="151.6624" x2="107.6517" y2="151.6624" stroke="#33003e" stroke-width="1.0" />
  <line x1="74.3483" y1="149.1624" x2="107.6517" y2="149.1624" stroke="#33003e" stroke-width="1.0" />
  <line x1="74.3356" y1="130.3976" x2="74.2830" y2="110.3719" stroke="#000000" stroke-width="1.0" />
  <rect
     style="fill:#ffffff;fill-opacity:1;fill-rule:nonzero;stroke:none"
     width="2"
     height="2"
     x="73.8093"
     y="119.3848"
     transform="rotate(269.8493 74.3093 120.3848)" /> 
  <path
     style="fill:none;stroke:#000000;stroke-width:1px;stroke-linecap:butt;stroke-linejoin:miter;stroke-opacity:1"
     d="m 74.3093,118.3848 2,2 -2,2 m -2.370121,-4 2,2 -2,2"
     transform="rotate(269.8493 74.3093 120.3848)"/>
  <line x1="74.3356" y1="131.6476" x2="107.6644" y2="131.6476" stroke="#33003e" stroke-width="1.0" />
  <line x1="74.3356" y1="129.1476" x2="107.6644" y2="129.1476" stroke="#33003e" stroke-width="1.0" />
  <line x1="74.3356" y1="130.3976" x2="107.6517" y2="150.4124" stroke="#eb9d00" stroke-width="1.0" />
  <rect
     style="fill:#ffffff;stroke:none"
     width="5.5"
     height="2"
     x="88.2437"
     y="139.4050" 
     transform="rotate(30.9956 90.9937 140.4050)"    /> 
  <path
     style="fill:none;stroke:#eb9d00;stroke-width:1px;stroke-linecap:butt;stroke-linejoin:miter;stroke-opacity:1"
    d="m 91.7437,138.4050 2,2 -2,2 m -1.5,-4 -2,2 2,2" transform="rotate(30.9956 90.9937 140.4050)"/>
  <line x1="74.2830" y1="111.6219" x2="107.7170" y2="111.6219" stroke="#2d0032" stroke-width="1.0" />
  <line x1="74.2830" y1="109.1219" x2="107.7170" y2="109.1219" stroke="#2d0032" stroke-width="1.0" />
  <line x1="74.2549" y1="90.3407" x2="74.0593" y2="70.3136" stroke="#000000" stroke-width="1.0" />
  <rect
     style="fill:#ffffff;fill-opacity:1;fill-rule:nonzero;stroke:none"
     width="2"
     height="2"
     x="73.6571"
     y="79.3272"
     transform="rotate(269.4404 74.1571 80.3272)" /> 
  <path
     style="fill:none;stroke:#000000;stroke-width:1px;stroke-linecap:butt;stroke-linejoin:miter;stroke-opacity:1"
     d="m 74.1571,78.3272 2,2 -2,2 m -2.370121,-4 2,2 -2,2"
     transform="rotate(269.4404 74.1571 80.3272)"/>
  <line x1="74.2549" y1="91.5907" x2="107.7451" y2="91.5907" stroke="#270026" stroke-width="1.0" />
  <line x1="74.2549" y1="89.0907" x2="107.7451" y2="89.0907" stroke="#270026" stroke-width="1.0" />
  <line x1="74.2549" y1="90.3407" x2="107.7170" y2="110.3719" stroke="#200019" stroke-width="1.0" />
  <rect
     style="fill:#ffffff;stroke:none"
     width="5.5"
     height="2"
     x="88.2360"
     y="99.3563" 
     transform="rotate(30.9057 90.9860 100.3563)"    /> 
  <path
     style="fill:none;stroke:#200019;stroke-width:1px;stroke-linecap:butt;stroke-linejoin:miter;stroke-opacity:1"
    d="m 91.7360,98.3563 2,2 -2,2 m -1.5,-4 -2,2 2,2" transform="rotate(30.9057 90.9860 100.3563)"/>
  <line x1="74.0593" y1="70.3136" x2="69.5889" y2="50.7833" stroke="#e58400" stroke-width="1.0" />
  <rect
     style="fill:#ffffff;fill-opacity:1;fill-rule:nonzero;stroke:none"
     width="2"
     height="2"
     x="71.3241"
     y="59.5485"
     transform="rotate(257.1074 71.8241 60.5485)" /> 
  <path
     style="fill:none;stroke:#e58400;stroke-width:1px;stroke-linecap:butt;stroke-linejoin:miter;stroke-opacity:1"
     d="m 71.8241,58.5485 2,2 -2,2 m -2.370121,-4 2,2 -2,2"
     transform="rotate(257.1074 71.8241 60.5485)"/>
  <line x1="74.0593" y1="71.5636" x2="107.9407" y2="71.5636" stroke="#2d0032" stroke-width="1.0" />
  <line x1="74.0593" y1="69.0636" x2="107.9407" y2="69.0636" stroke="#2d0032" stroke-width="1.0" />
  <line x1="100.9906" y1="34.3803" x2="112.4111" y2="50.7833" stroke="#200019" stroke-width="1.0" />
  <rect
     style="fill:#ffffff;fill-opacity:1;fill-rule:nonzero;stroke:none"
     width="2"
     height="2"
     x="106.2009"
     y="41.5818"
     transform="rotate(55.1528 106.7009 42.5818)" /> 
  <path
     style="fill:none;stroke:#200019;stroke-width:1px;stroke-linecap:butt;stroke-linejoin:miter;stroke-opacity:1"
     d="m 106.7009,40.5818 2,2 -2,2 m -2.370121,-4 2,2 -2,2"
     transform="rotate(55.1528 106.7009 42.5818)"/>
  <line x1="107.9407" y1="70.3136" x2="107.7451" y2="90.3407" stroke="#000000" stroke-width="1.0" />
  <rect
     style="fill:#ffffff;fill-opacity:1;fill-rule:nonzero;stroke:none"
     width="2"
     height="2"
     x="107.3429"
     y="79.3272"
     transform="rotate(90.5596 107.8429 80.3272)" /> 
  <path
     style="fill:none;stroke:#000000;stroke-width:1px;stroke-linecap:butt;stroke-linejoin:miter;stroke-opacity:1"
     d="m 107.8429,78.3272 2,2 -2,2 m -2.370121,-4 2,2 -2,2"
     transform="rotate(90.5596 107.8429 80.3272)"/>
  <line x1="107.7170" y1="110.3719" x2="107.6644" y2="130.3976" stroke="#000000" stroke-width="1.0" />
  <rect
     style="fill:#ffffff;fill-opacity:1;fill-rule:nonzero;stroke:none"
     width="2"
     height="2"
     x="107.1907"
     y="119.3848"
     transform="rotate(90.1507 107.6907 120.3848)" /> 
  <path
     style="fill:none;stroke:#000000;stroke-width:1px;stroke-linecap:butt;stroke-linejoin:miter;stroke-opacity:1"
     d="m 107.6907,118.3848 2,2 -2,2 m -2.370121,-4 2,2 -2,2"
     transform="rotate(90.1507 107.6907 120.3848)"/>
  <line x1="107.6644" y1="130.3976" x2="107.6517" y2="150.4124" stroke="#990cc2" stroke-width="1.0" />
  <rect
     style="fill:#ffffff;fill-opacity:1;fill-rule:nonzero;stroke:none"
     width="2"
     height="2"
     x="107.1580"
     y="139.4050"
     transform="rotate(90.0363 107.6580 140.4050)" /> 
  <path
     style="fill:none;stroke:#990cc2;stroke-width:1px;stroke-linecap:butt;stroke-linejoin:miter;stroke-opacity:1"
     d="m 107.6580,138.4050 2,2 -2,2 m -2.370121,-4 2,2 -2,2"
     transform="rotate(90.0363 107.6580 140.4050)"/>
<circle cx="74.3483" cy="150.4124" r="5.0" stroke="#595959" stroke-width="1.0" fill="#ffffff"/>
<text x="74.3483" y="153.1124" text-anchor="middle" font-family="Helvetica" font-size="7.5" fill="#000000" >G</text>
<circle cx="74.3356" cy="130.3976" r="5.0" stroke="#595959" stroke-width="1.0" fill="#ffffff"/>
<text x="74.3356" y="133.0976" text-anchor="middle" font-family="Helvetica" font-size="7.5" fill="#000000" >G</text>
<circle cx="74.2830" cy="110.3719" r="5.0" stroke="#595959" stroke-width="1.0" fill="#ffffff"/>
<text x="74.2830" y="113.0719" text-anchor="middle" font-family="Helvetica" font-size="7.5" fill="#000000" >C</text>
<circle cx="74.2549" cy="90.3407" r="5.0" stroke="#595959" stroke-width="1.0" fill="#ffffff"/>
<text x="74.2549" y="93.0407" text-anchor="middle" font-family="Helvetica" font-size="7.5" fill="#000000" >G</text>
<circle cx="74.0593" cy="70.3136" r="5.0" stroke="#595959" stroke-width="1.0" fill="#ffffff"/>
<text x="74.0593" y="73.0136" text-anchor="middle" font-family="Helvetica" font-size="7.5" fill="#000000" >C</text>
<circle cx="69.5889" cy="50.7833" r="5.0" stroke="#595959" stroke-width="1.0" fill="#ffffff"/>
<text x="69.5889" y="53.4833" text-anchor="middle" font-family="Helvetica" font-size="7.5" fill="#000000" >A</text>
<circle cx="81.0094" cy="34.3803" r="5.0" stroke="#595959" stroke-width="1.0" fill="#ffffff"/>
<text x="81.0094" y="37.0803" text-anchor="middle" font-family="Helvetica" font-size="7.5" fill="#000000" >U</text>
<circle cx="100.9906" cy="34.3803" r="5.0" stroke="#595959" stroke-width="1.0" fill="#ffffff"/>
<text x="100.9906" y="37.0803" text-anchor="middle" font-family="Helvetica" font-size="7.5" fill="#000000" >C</text>
<circle cx="112.4111" cy="50.7833" r="5.0" stroke="#595959" stroke-width="1.0" fill="#ffffff"/>
<text x="112.4111" y="53.4833" text-anchor="middle" font-family="Helvetica" font-size="7.5" fill="#000000" >G</text>
<circle cx="107.9407" cy="70.3136" r="5.0" stroke="#595959" stroke-width="1.0" fill="#ffffff"/>
<text x="107.9407" y="73.0136" text-anchor="middle" font-family="Helvetica" font-size="7.5" fill="#000000" >G</text>
<circle cx="107.7451" cy="90.3407" r="5.0" stroke="#595959" stroke-width="1.0" fill="#ffffff"/>
<text x="107.7451" y="93.0407" text-anchor="middle" font-family="Helvetica" font-size="7.5" fill="#000000" >C</text>
<circle cx="107.7170" cy="110.3719" r="5.0" stroke="#595959" stroke-width="1.0" fill="#ffffff"/>
<text x="107.7170" y="113.0719" text-anchor="middle" font-family="Helvetica" font-size="7.5" fill="#000000" >G</text>
<circle cx="107.6644" cy="130.3976" r="5.0" stroke="#595959" stroke-width="1.0" fill="#ffffff"/>
<text x="107.6644" y="133.0976" text-anchor="middle" font-family="Helvetica" font-size="7.5" fill="#000000" >C</text>
<circle cx="107.6517" cy="150.4124" r="5.0" stroke="#595959" stroke-width="1.0" fill="#ffffff"/>
<text x="107.6517" y="153.1124" text-anchor="middle" font-family="Helvetica" font-size="7.5" fill="#000000" >C</text>
</svg>