<?xml version="1.0" encoding="UTF-8"?>
<!DOCTYPE svg PUBLIC "-//W3C//DTD SVG 1.1//EN" 
"http://www.w3.org/Graphics/SVG/1.1/DTD/svg11.dtd">

<svg version="1.1"
   width="182px"
   height="182px"
xmlns="http://www.w3.org/2000/svg">
    <rect width="100%" height="100%" fill="white"/>

  <line x1="73.9011" y1="108.9491" x2="73.8733" y2="88.8325" stroke="#595959"
     style="stroke-width:2;stroke-miterlimit:4;stroke-dasharray:1,1;stroke-dashoffset:0" />
  <line x1="73.7571" y1="68.7708" x2="68.9058" y2="49.3787" stroke="#595959"
     style="stroke-width:2;stroke-miterlimit:4;stroke-dasharray:1,1;stroke-dashoffset:0" />
  <line x1="68.9058" y1="49.3787" x2="83.3791" y2="35.6558" stroke="#595959"
     style="stroke-width:2;stroke-miterlimit:4;stroke-dasharray:1,1;stroke-dashoffset:0" />
  <line x1="83.3791" y1="35.6558" x2="100.2882" y2="46.3328" stroke="#595959"
     style="stroke-width:2;stroke-miterlimit:4;stroke-dasharray:1,1;stroke-dashoffset:0" />
  <line x1="100.2882" y1="46.3328" x2="119.1818" y2="52.5959" stroke="#595959"
     style="stroke-width:2;stroke-miterlimit:4;stroke-dasharray:1,1;stroke-dashoffset:0" />
  <line x1="119.1818" y1="52.5959" x2="107.0425" y2="68.4528" stroke="#595959"
     style="stroke-width:2;stroke-miterlimit:4;stroke-dasharray:1,1;stroke-dashoffset:0" />
  <line x1="107.0430" y1="88.8508" x2="106.8986" y2="109.1590" stroke="#595959"
     style="stroke-width:2;stroke-miterlimit:4;stroke-dasharray:1,1;stroke-dashoffset:0" />
  <line x1="73.8724" y1="90.4325" x2="107.0421" y2="90.4508" stroke="#f2b800" stroke-width="1.0" />
  <circle cx="90.4572" cy="90.4417" r="2.25" stroke="#f2b800" stroke-width="1.0" fill="#f2b800"/>
  <line x1="73.2981" y1="149.0870" x2="73.6563" y2="129.0417" stroke="#cf4a00" stroke-width="1.0" />
  <rect
     style="fill:#ffffff;fill-opacity:1;fill-rule:nonzero;stroke:none"
     width="2"
     height="2"
     x="72.9772"
     y="138.0644"
     transform="rotate(-88.9764 73.4772 139.0644)" /> 
  <path
     style="fill:none;stroke:#cf4a00;stroke-width:1px;stroke-linecap:butt;stroke-linejoin:miter;stroke-opacity:1"
     d="m 73.4772,137.0644 2,2 -2,2 m -2.370121,-4 2,2 -2,2"
     transform="rotate(-88.9764 73.4772 139.0644)"/>
  <line x1="73.2822" y1="150.3369" x2="106.1785" y2="150.7570" stroke="#37004b" stroke-width="1.0" />
  <line x1="73.3141" y1="147.8371" x2="106.2104" y2="148.2572" stroke="#37004b" stroke-width="1.0" />
  <line x1="73.6563" y1="129.0417" x2="73.9011" y2="108.9491" stroke="#000000" stroke-width="1.0" />
  <rect
     style="fill:#ffffff;fill-opacity:1;fill-rule:nonzero;stroke:none"
     width="2"
     height="2"
     x="73.2787"
     y="117.9954"
     transform="rotate(-89.3019 73.7787 118.9954)" /> 
  <path
     style="fill:none;stroke:#000000;stroke-width:1px;stroke-linecap:butt;stroke-linejoin:miter;stroke-opacity:1"
     d="m 73.7787,116.9954 2,2 -2,2 m -2.370121,-4 2,2 -2,2"
     transform="rotate(-89.3019 73.7787 118.9954)"/>
  <line x1="73.6432" y1="130.2916" x2="106.5677" y2="130.6358" stroke="#33003e" stroke-width="1.0" />
  <line x1="73.6693" y1="127.7918" x2="106.5938" y2="128.1359" stroke="#33003e" stroke-width="1.0" />
  <line x1="73.6563" y1="129.0417" x2="106.1944" y2="149.5071" stroke="#ea9900" stroke-width="1.0" />
  <rect
     style="fill:#ffffff;stroke:none"
     width="5.5"
     height="2"
     x="87.1754"
     y="138.2744" 
     transform="rotate(32.1685 89.9254 139.2744)"    /> 
  <path
     style="fill:none;stroke:#ea9900;stroke-width:1px;stroke-linecap:butt;stroke-linejoin:miter;stroke-opacity:1"
    d="m 90.6754,137.2744 2,2 -2,2 m -1.5,-4 -2,2 2,2" transform="rotate(32.1685 89.9254 139.2744)"/>
  <line x1="73.8931" y1="110.1991" x2="106.8906" y2="110.4090" stroke="#270026" stroke-width="1.0" />
  <line x1="73.9090" y1="107.6992" x2="106.9065" y2="107.9091" stroke="#270026" stroke-width="1.0" />
  <line x1="73.8733" y1="88.8325" x2="73.7571" y2="68.7708" stroke="#000000" stroke-width="1.0" />
  <rect
     style="fill:#ffffff;fill-opacity:1;fill-rule:nonzero;stroke:none"
     width="2"
     height="2"
     x="73.3152"
     y="77.8017"
     transform="rotate(269.6683 73.8152 78.8017)" /> 
  <path
     style="fill:none;stroke:#000000;stroke-width:1px;stroke-linecap:butt;stroke-linejoin:miter;stroke-opacity:1"
     d="m 73.8152,76.8017 2,2 -2,2 m -2.370121,-4 2,2 -2,2"
     transform="rotate(269.6683 73.8152 78.8017)"/>
  <line x1="73.8742" y1="87.2325" x2="107.0438" y2="87.2508" stroke="#520099" stroke-width="1.0" />
  <line x1="73.8733" y1="88.8325" x2="106.8986" y2="109.1590" stroke="#400062" stroke-width="1.0" />
  <rect
     style="fill:#ffffff;stroke:none"
     width="5.5"
     height="2"
     x="87.6359"
     y="97.9958" 
     transform="rotate(31.6116 90.3859 98.9958)"    /> 
  <path
     style="fill:none;stroke:#400062;stroke-width:1px;stroke-linecap:butt;stroke-linejoin:miter;stroke-opacity:1"
    d="m 91.1359,96.9958 2,2 -2,2 m -1.5,-4 -2,2 2,2" transform="rotate(31.6116 90.3859 98.9958)"/>
  <line x1="73.7571" y1="68.7708" x2="100.2882" y2="46.3328" stroke="#8405fd" stroke-width="1.0" />
  <rect
     style="fill:#ffffff;fill-opacity:1;fill-rule:nonzero;stroke:none"
     width="2"
     height="2"
     x="86.5227"
     y="56.5518"
     transform="rotate(-40.2221 87.0227 57.5518)" /> 
  <path
     style="fill:none;stroke:#8405fd;stroke-width:1px;stroke-linecap:butt;stroke-linejoin:miter;stroke-opacity:1"
     d="m 87.0227,55.5518 2,2 -2,2 m -2.370121,-4 2,2 -2,2"
     transform="rotate(-40.2221 87.0227 57.5518)"/>
  <line x1="73.7691" y1="70.0208" x2="107.0545" y2="69.7028" stroke="#4b0084" stroke-width="1.0" />
  <line x1="73.7452" y1="67.5209" x2="107.0306" y2="67.2029" stroke="#4b0084" stroke-width="1.0" />
  <line x1="100.2882" y1="46.3328" x2="107.0425" y2="68.4528" stroke="#dd6b00" stroke-width="1.0" />
  <rect
     style="fill:#ffffff;stroke:none"
     width="5.5"
     height="2"
     x="100.9154"
     y="56.3928" 
     transform="rotate(73.0200 103.6654 57.3928)"    /> 
  <path
     style="fill:none;stroke:#dd6b00;stroke-width:1px;stroke-linecap:butt;stroke-linejoin:miter;stroke-opacity:1"
    d="m 104.4154,55.3928 2,2 -2,2 m -1.5,-4 -2,2 2,2" transform="rotate(73.0200 103.6654 57.3928)"/>
  <line x1="107.0425" y1="68.4528" x2="107.0430" y2="88.8508" stroke="#000000" stroke-width="1.0" />
  <rect
     style="fill:#ffffff;fill-opacity:1;fill-rule:nonzero;stroke:none"
     width="2"
     height="2"
     x="106.5427"
     y="77.6518"
     transform="rotate(89.9987 107.0427 78.6518)" /> 
  <path
     style="fill:none;stroke:#000000;stroke-width:1px;stroke-linecap:butt;stroke-linejoin:miter;stroke-opacity:1"
     d="m 107.0427,76.6518 2,2 -2,2 m -2.370121,-4 2,2 -2,2"
     transform="rotate(89.9987 107.0427 78.6518)"/>
  <line x1="106.8986" y1="109.1590" x2="106.5808" y2="129.3858" stroke="#000000" stroke-width="1.0" />
  <rect
     style="fill:#ffffff;fill-opacity:1;fill-rule:nonzero;stroke:none"
     width="2"
     height="2"
     x="106.2397"
     y="118.2724"
     transform="rotate(90.9002 106.7397 119.2724)" /> 
  <path
     style="fill:none;stroke:#000000;stroke-width:1px;stroke-linecap:butt;stroke-linejoin:miter;stroke-opacity:1"
     d="m 106.7397,117.2724 2,2 -2,2 m -2.370121,-4 2,2 -2,2"
     transform="rotate(90.9002 106.7397 119.2724)"/>
  <line x1="106.5808" y1="129.3858" x2="106.1944" y2="149.5071" stroke="#9309df" stroke-width="1.0" />
  <rect
     style="fill:#ffffff;fill-opacity:1;fill-rule:nonzero;stroke:none"
     width="2"
     height="2"
     x="105.8876"
     y="138.4465"
     transform="rotate(91.0999 106.3876 139.4465)" /> 
  <path
     style="fill:none;stroke:#9309df;stroke-width:1px;stroke-linecap:butt;stroke-linejoin:miter;stroke-opacity:1"
     d="m 106.3876,137.4465 2,2 -2,2 m -2.370121,-4 2,2 -2,2"
     transform="rotate(91.0999 106.3876 139.4465)"/>
<circle cx="73.2981" cy="149.0870" r="5.0" stroke="#595959" stroke-width="1.0" fill="#ffffff"/>
<text x="73.2981" y="151.7870" text-anchor="middle" font-family="Helvetica" font-size="7.5" fill="#000000" >G</text>
<circle cx="73.6563" cy="129.0417" r="5.0" stroke="#595959" stroke-width="1.0" fill="#ffffff"/>
<text x="73.6563" y="131.7417" text-anchor="middle" font-family="Helvetica" font-size="7.5" fill="#000000" >G</text>
<circle cx="73.9011" cy="108.9491" r="5.0" stroke="#595959" stroke-width="1.0" fill="#ffffff"/>
<text x="73.9011" y="111.6491" text-anchor="middle" font-family="Helvetica" font-size="7.5" fill="#000000" >C</text>
<circle cx="73.8733" cy="88.8325" r="5.0" stroke="#595959" stroke-width="1.0" fill="#ffffff"/>
<text x="73.8733" y="91.5325" text-anchor="middle" font-family="Helvetica" font-size="7.5" fill="#000000" >A</text>
<circle cx="73.7571" cy="68.7708" r="5.0" stroke="#595959" stroke-width="1.0" fill="#ffffff"/>
<text x="73.7571" y="71.4708" text-anchor="middle" font-family="Helvetica" font-size="7.5" fill="#000000" >C</text>
<circle cx="68.9058" cy="49.3787" r="5.0" stroke="#595959" stroke-width="1.0" fill="#ffffff"/>
<text x="68.9058" y="52.0787" text-anchor="middle" font-family="Helvetica" font-size="7.5" fill="#000000" >U</text>
<circle cx="83.3791" cy="35.6558" r="5.0" stroke="#595959" stroke-width="1.0" fill="#ffffff"/>
<text x="83.3791" y="38.3558" text-anchor="middle" font-family="Helvetica" font-size="7.5" fill="#000000" >U</text>
<circle cx="100.2882" cy="46.3328" r="5.0" stroke="#595959" stroke-width="1.0" fill="#ffffff"/>
<text x="100.2882" y="49.0328" text-anchor="middle" font-family="Helvetica" font-size="7.5" fill="#000000" >C</text>
<circle cx="119.1818" cy="52.5959" r="5.0" stroke="#595959" stroke-width="1.0" fill="#ffffff"/>
<text x="119.1818" y="55.2959" text-anchor="middle" font-family="Helvetica" font-size="7.5" fill="#000000" >G</text>
<circle cx="107.0425" cy="68.4528" r="5.0" stroke="#595959" stroke-width="1.0" fill="#ffffff"/>
<text x="107.0425" y="71.1528" text-anchor="middle" font-family="Helvetica" font-size="7.5" fill="#000000" >G</text>
<circle cx="107.0430" cy="88.8508" r="5.0" stroke="#595959" stroke-width="1.0" fill="#ffffff"/>
<text x="107.0430" y="91.5508" text-anchor="middle" font-family="Helvetica" font-size="7.5" fill="#000000" >U</text>
<circle cx="106.8986" cy="109.1590" r="5.0" stroke="#595959" stroke-width="1.0" fill="#ffffff"/>
<text x="106.8986" y="111.8590" text-anchor="middle" font-family="Helvetica" font-size="7.5" fill="#000000" >G</text>
<circle cx="106.5808" cy="129.3858" r="5.0" stroke="#595959" stroke-width="1.0" fill="#ffffff"/>
<text x="106.5808" y="132.0858" text-anchor="middle" font-family="Helvetica" font-size="7.5" fill="#000000" >C</text>
<circle cx="106.1944" cy="149.5071" r="5.0" stroke="#595959" stroke-width="1.0" fill="#ffffff"/>
<text x="106.1944" y="152.2071" text-anchor="middle" font-family="Helvetica" font-size="7.5" fill="#000000" >C</text>
</svg>