<?xml version="1.0" encoding="UTF-8"?>
<!DOCTYPE svg PUBLIC "-//W3C//DTD SVG 1.1//EN" 
"http://www.w3.org/Graphics/SVG/1.1/DTD/svg11.dtd">

<svg version="1.1"
   width="182px"
   height="182px"
xmlns="http://www.w3.org/2000/svg">
    <rect width="100%" height="100%" fill="white"/>

  <line x1="72.7616" y1="108.5254" x2="72.6826" y2="88.4419" stroke="#595959"
     style="stroke-width:2;stroke-miterlimit:4;stroke-dasharray:1,1;stroke-dashoffset:0" />
  <line x1="72.5240" y1="68.4230" x2="70.0981" y2="48.5867" stroke="#595959"
     style="stroke-width:2;stroke-miterlimit:4;stroke-dasharray:1,1;stroke-dashoffset:0" />
  <line x1="86.2435" y1="36.8740" x2="103.0469" y2="47.6782" stroke="#595959"
     style="stroke-width:2;stroke-miterlimit:4;stroke-dasharray:1,1;stroke-dashoffset:0" />
  <line x1="103.0469" y1="47.6782" x2="121.5128" y2="55.0666" stroke="#595959"
     style="stroke-width:2;stroke-miterlimit:4;stroke-dasharray:1,1;stroke-dashoffset:0" />
  <line x1="121.5128" y1="55.0666" x2="106.3394" y2="68.1359" stroke="#595959"
     style="stroke-width:2;stroke-miterlimit:4;stroke-dasharray:1,1;stroke-dashoffset:0" />
  <line x1="106.3109" y1="88.4581" x2="106.1018" y2="108.7036" stroke="#595959"
     style="stroke-width:2;stroke-miterlimit:4;stroke-dasharray:1,1;stroke-dashoffset:0" />
  <line x1="72.6819" y1="90.0419" x2="106.3101" y2="90.0581" stroke="#efaf00" stroke-width="1.0" />
  <circle cx="89.4960" cy="90.0500" r="2.25" stroke="#efaf00" stroke-width="1.0" fill="#efaf00"/>
  <line x1="86.2435" y1="36.8740" x2="106.3394" y2="68.1359" stroke="#eb9d00" stroke-width="1.0" />
  <path d="M 94.2914 54.7550 L 94.2914 50.2550 L 98.2914 52.5050 z" style="stroke:#eb9d00;stroke-width:1.0" fill="#eb9d00"
    transform="rotate(57.2661 96.2914 52.5050)"/>
  <line x1="72.3866" y1="148.6284" x2="72.7039" y2="128.5872" stroke="#c02e00" stroke-width="1.0" />
  <rect
     style="fill:#ffffff;fill-opacity:1;fill-rule:nonzero;stroke:none"
     width="2"
     height="2"
     x="72.0453"
     y="137.6078"
     transform="rotate(-89.0928 72.5453 138.6078)" /> 
  <path
     style="fill:none;stroke:#c02e00;stroke-width:1px;stroke-linecap:butt;stroke-linejoin:miter;stroke-opacity:1"
     d="m 72.5453,136.6078 2,2 -2,2 m -2.370121,-4 2,2 -2,2"
     transform="rotate(-89.0928 72.5453 138.6078)"/>
  <line x1="72.3728" y1="149.8783" x2="105.4539" y2="150.2428" stroke="#400062" stroke-width="1.0" />
  <line x1="72.4004" y1="147.3785" x2="105.4814" y2="147.7429" stroke="#400062" stroke-width="1.0" />
  <line x1="72.7039" y1="128.5872" x2="72.7616" y2="108.5254" stroke="#000000" stroke-width="1.0" />
  <rect
     style="fill:#ffffff;fill-opacity:1;fill-rule:nonzero;stroke:none"
     width="2"
     height="2"
     x="72.2328"
     y="117.5563"
     transform="rotate(-89.8353 72.7328 118.5563)" /> 
  <path
     style="fill:none;stroke:#000000;stroke-width:1px;stroke-linecap:butt;stroke-linejoin:miter;stroke-opacity:1"
     d="m 72.7328,116.5563 2,2 -2,2 m -2.370121,-4 2,2 -2,2"
     transform="rotate(-89.8353 72.7328 118.5563)"/>
  <line x1="72.6922" y1="129.8371" x2="105.8085" y2="130.1481" stroke="#2d0032" stroke-width="1.0" />
  <line x1="72.7157" y1="127.3372" x2="105.8320" y2="127.6482" stroke="#2d0032" stroke-width="1.0" />
  <line x1="72.7549" y1="109.7754" x2="106.0951" y2="109.9536" stroke="#2d0032" stroke-width="1.0" />
  <line x1="72.7683" y1="107.2754" x2="106.1085" y2="107.4536" stroke="#2d0032" stroke-width="1.0" />
  <line x1="72.6826" y1="88.4419" x2="72.5240" y2="68.4230" stroke="#000000" stroke-width="1.0" />
  <rect
     style="fill:#ffffff;fill-opacity:1;fill-rule:nonzero;stroke:none"
     width="2"
     height="2"
     x="72.1033"
     y="77.4325"
     transform="rotate(269.5460 72.6033 78.4325)" /> 
  <path
     style="fill:none;stroke:#000000;stroke-width:1px;stroke-linecap:butt;stroke-linejoin:miter;stroke-opacity:1"
     d="m 72.6033,76.4325 2,2 -2,2 m -2.370121,-4 2,2 -2,2"
     transform="rotate(269.5460 72.6033 78.4325)"/>
  <line x1="72.6834" y1="86.8419" x2="106.3117" y2="86.8581" stroke="#5800ac" stroke-width="1.0" />
  <line x1="72.6826" y1="88.4419" x2="106.1018" y2="108.7036" stroke="#17000d" stroke-width="1.0" />
  <rect
     style="fill:#ffffff;stroke:none"
     width="5.5"
     height="2"
     x="86.6422"
     y="97.5727" 
     transform="rotate(31.2280 89.3922 98.5727)"    /> 
  <path
     style="fill:none;stroke:#17000d;stroke-width:1px;stroke-linecap:butt;stroke-linejoin:miter;stroke-opacity:1"
    d="m 90.1422,96.5727 2,2 -2,2 m -1.5,-4 -2,2 2,2" transform="rotate(31.2280 89.3922 98.5727)"/>
  <line x1="72.5346" y1="69.6730" x2="106.3500" y2="69.3859" stroke="#37004b" stroke-width="1.0" />
  <line x1="72.5134" y1="67.1731" x2="106.3288" y2="66.8860" stroke="#37004b" stroke-width="1.0" />
  <line x1="70.0981" y1="48.5867" x2="86.2435" y2="36.8740" stroke="#980bca" stroke-width="1.0" />
  <rect
     style="fill:#ffffff;fill-opacity:1;fill-rule:nonzero;stroke:none"
     width="2"
     height="2"
     x="77.1708"
     y="41.7304" 
     transform="rotate(-35.9591 78.1708 42.7304)" /> 
  <path
     style="fill:none;stroke:#980bca;stroke-width:1px;stroke-linecap:butt;stroke-linejoin:miter;stroke-opacity:1"
     d="m 81.1708,40.7304 -2,2 2,2 m -6,-4 2,2 -2,2"
     transform="rotate(-35.9591 78.1708 42.7304)"/>
  <line x1="103.0469" y1="47.6782" x2="106.3394" y2="68.1359" stroke="#000000" stroke-width="1.0" />
  <rect
     style="fill:#ffffff;stroke:none"
     width="5.5"
     height="2"
     x="101.9431"
     y="56.9071" 
     transform="rotate(80.8570 104.6931 57.9071)"    /> 
  <path
     style="fill:none;stroke:#000000;stroke-width:1px;stroke-linecap:butt;stroke-linejoin:miter;stroke-opacity:1"
    d="m 105.4431,55.9071 2,2 -2,2 m -1.5,-4 -2,2 2,2" transform="rotate(80.8570 104.6931 57.9071)"/>
  <line x1="106.3394" y1="68.1359" x2="106.3109" y2="88.4581" stroke="#000000" stroke-width="1.0" />
  <rect
     style="fill:#ffffff;fill-opacity:1;fill-rule:nonzero;stroke:none"
     width="2"
     height="2"
     x="105.8252"
     y="77.2970"
     transform="rotate(90.0803 106.3252 78.2970)" /> 
  <path
     style="fill:none;stroke:#000000;stroke-width:1px;stroke-linecap:butt;stroke-linejoin:miter;stroke-opacity:1"
     d="m 106.3252,76.2970 2,2 -2,2 m -2.370121,-4 2,2 -2,2"
     transform="rotate(90.0803 106.3252 78.2970)"/>
  <line x1="106.1018" y1="108.7036" x2="105.8202" y2="128.8981" stroke="#000000" stroke-width="1.0" />
  <rect
     style="fill:#ffffff;fill-opacity:1;fill-rule:nonzero;stroke:none"
     width="2"
     height="2"
     x="105.4610"
     y="117.8009"
     transform="rotate(90.7988 105.9610 118.8009)" /> 
  <path
     style="fill:none;stroke:#000000;stroke-width:1px;stroke-linecap:butt;stroke-linejoin:miter;stroke-opacity:1"
     d="m 105.9610,116.8009 2,2 -2,2 m -2.370121,-4 2,2 -2,2"
     transform="rotate(90.7988 105.9610 118.8009)"/>
  <line x1="105.8202" y1="128.8981" x2="105.4677" y2="148.9928" stroke="#990cc2" stroke-width="1.0" />
  <rect
     style="fill:#ffffff;fill-opacity:1;fill-rule:nonzero;stroke:none"
     width="2"
     height="2"
     x="105.1440"
     y="137.9455"
     transform="rotate(91.0052 105.6440 138.9455)" /> 
  <path
     style="fill:none;stroke:#990cc2;stroke-width:1px;stroke-linecap:butt;stroke-linejoin:miter;stroke-opacity:1"
     d="m 105.6440,136.9455 2,2 -2,2 m -2.370121,-4 2,2 -2,2"
     transform="rotate(91.0052 105.6440 138.9455)"/>
<circle cx="72.3866" cy="148.6284" r="5.0" stroke="#595959" stroke-width="1.0" fill="#ffffff"/>
<text x="72.3866" y="151.3284" text-anchor="middle" font-family="Helvetica" font-size="7.5" fill="#000000" >G</text>
<circle cx="72.7039" cy="128.5872" r="5.0" stroke="#595959" stroke-width="1.0" fill="#ffffff"/>
<text x="72.7039" y="131.2872" text-anchor="middle" font-family="Helvetica" font-size="7.5" fill="#000000" >G</text>
<circle cx="72.7616" cy="108.5254" r="5.0" stroke="#595959" stroke-width="1.0" fill="#ffffff"/>
<text x="72.7616" y="111.2254" text-anchor="middle" font-family="Helvetica" font-size="7.5" fill="#000000" >C</text>
<circle cx="72.6826" cy="88.4419" r="5.0" stroke="#595959" stroke-width="1.0" fill="#ffffff"/>
<text x="72.6826" y="91.1419" text-anchor="middle" font-family="Helvetica" font-size="7.5" fill="#000000" >A</text>
<circle cx="72.5240" cy="68.4230" r="5.0" stroke="#595959" stroke-width="1.0" fill="#ffffff"/>
<text x="72.5240" y="71.1230" text-anchor="middle" font-family="Helvetica" font-size="7.5" fill="#000000" >C</text>
<circle cx="70.0981" cy="48.5867" r="5.0" stroke="#595959" stroke-width="1.0" fill="#ffffff"/>
<text x="70.0981" y="51.2867" text-anchor="middle" font-family="Helvetica" font-size="7.5" fill="#000000" >U</text>
<circle cx="86.2435" cy="36.8740" r="5.0" stroke="#595959" stroke-width="1.0" fill="#ffffff"/>
<text x="86.2435" y="39.5740" text-anchor="middle" font-family="Helvetica" font-size="7.5" fill="#000000" >U</text>
<circle cx="103.0469" cy="47.6782" r="5.0" stroke="#595959" stroke-width="1.0" fill="#ffffff"/>
<text x="103.0469" y="50.3782" text-anchor="middle" font-family="Helvetica" font-size="7.5" fill="#000000" >C</text>
<circle cx="121.5128" cy="55.0666" r="5.0" stroke="#595959" stroke-width="1.0" fill="#ffffff"/>
<text x="121.5128" y="57.7666" text-anchor="middle" font-family="Helvetica" font-size="7.5" fill="#000000" >G</text>
<circle cx="106.3394" cy="68.1359" r="5.0" stroke="#595959" stroke-width="1.0" fill="#ffffff"/>
<text x="106.3394" y="70.8359" text-anchor="middle" font-family="Helvetica" font-size="7.5" fill="#000000" >G</text>
<circle cx="106.3109" cy="88.4581" r="5.0" stroke="#595959" stroke-width="1.0" fill="#ffffff"/>
<text x="106.3109" y="91.1581" text-anchor="middle" font-family="Helvetica" font-size="7.5" fill="#000000" >U</text>
<circle cx="106.1018" cy="108.7036" r="5.0" stroke="#595959" stroke-width="1.0" fill="#ffffff"/>
<text x="106.1018" y="111.4036" text-anchor="middle" font-family="Helvetica" font-size="7.5" fill="#000000" >G</text>
<circle cx="105.8202" cy="128.8981" r="5.0" stroke="#595959" stroke-width="1.0" fill="#ffffff"/>
<text x="105.8202" y="131.5981" text-anchor="middle" font-family="Helvetica" font-size="7.5" fill="#000000" >C</text>
<circle cx="105.4677" cy="148.9928" r="5.0" stroke="#595959" stroke-width="1.0" fill="#ffffff"/>
<text x="105.4677" y="151.6928" text-anchor="middle" font-family="Helvetica" font-size="7.5" fill="#000000" >C</text>
</svg>