<?xml version="1.0" encoding="UTF-8"?>
<!DOCTYPE svg PUBLIC "-//W3C//DTD SVG 1.1//EN" 
"http://www.w3.org/Graphics/SVG/1.1/DTD/svg11.dtd">

<svg version="1.1"
   width="182px"
   height="182px"
xmlns="http://www.w3.org/2000/svg">
    <rect width="100%" height="100%" fill="white"/>

  <line x1="73.9716" y1="109.0858" x2="74.1405" y2="88.9690" stroke="#595959"
     style="stroke-width:2;stroke-miterlimit:4;stroke-dasharray:1,1;stroke-dashoffset:0" />
  <line x1="73.9469" y1="68.8520" x2="69.5037" y2="49.3624" stroke="#595959"
     style="stroke-width:2;stroke-miterlimit:4;stroke-dasharray:1,1;stroke-dashoffset:0" />
  <line x1="83.3153" y1="34.9648" x2="100.3230" y2="45.5798" stroke="#595959"
     style="stroke-width:2;stroke-miterlimit:4;stroke-dasharray:1,1;stroke-dashoffset:0" />
  <line x1="100.3230" y1="45.5798" x2="118.9770" y2="52.5165" stroke="#595959"
     style="stroke-width:2;stroke-miterlimit:4;stroke-dasharray:1,1;stroke-dashoffset:0" />
  <line x1="118.9770" y1="52.5165" x2="106.8627" y2="68.3911" stroke="#595959"
     style="stroke-width:2;stroke-miterlimit:4;stroke-dasharray:1,1;stroke-dashoffset:0" />
  <line x1="106.9653" y1="88.9246" x2="106.8380" y2="109.3829" stroke="#595959"
     style="stroke-width:2;stroke-miterlimit:4;stroke-dasharray:1,1;stroke-dashoffset:0" />
  <line x1="73.0994" y1="149.2477" x2="73.6082" y2="129.1866" stroke="#d14c00" stroke-width="1.0" />
  <rect
     style="fill:#ffffff;fill-opacity:1;fill-rule:nonzero;stroke:none"
     width="2"
     height="2"
     x="72.8538"
     y="138.2171"
     transform="rotate(-88.5471 73.3538 139.2171)" /> 
  <path
     style="fill:none;stroke:#d14c00;stroke-width:1px;stroke-linecap:butt;stroke-linejoin:miter;stroke-opacity:1"
     d="m 73.3538,137.2171 2,2 -2,2 m -2.370121,-4 2,2 -2,2"
     transform="rotate(-88.5471 73.3538 139.2171)"/>
  <line x1="73.0768" y1="150.4975" x2="105.9743" y2="151.0916" stroke="#2d0032" stroke-width="1.0" />
  <line x1="73.1220" y1="147.9979" x2="106.0194" y2="148.5921" stroke="#2d0032" stroke-width="1.0" />
  <line x1="73.6082" y1="129.1866" x2="73.9716" y2="109.0858" stroke="#000000" stroke-width="1.0" />
  <rect
     style="fill:#ffffff;fill-opacity:1;fill-rule:nonzero;stroke:none"
     width="2"
     height="2"
     x="73.2899"
     y="118.1362"
     transform="rotate(-88.9643 73.7899 119.1362)" /> 
  <path
     style="fill:none;stroke:#000000;stroke-width:1px;stroke-linecap:butt;stroke-linejoin:miter;stroke-opacity:1"
     d="m 73.7899,117.1362 2,2 -2,2 m -2.370121,-4 2,2 -2,2"
     transform="rotate(-88.9643 73.7899 119.1362)"/>
  <line x1="73.5889" y1="130.4364" x2="106.4321" y2="130.9449" stroke="#270026" stroke-width="1.0" />
  <line x1="73.6276" y1="127.9367" x2="106.4708" y2="128.4452" stroke="#270026" stroke-width="1.0" />
  <line x1="73.6082" y1="129.1866" x2="105.9968" y2="149.8419" stroke="#eb9d00" stroke-width="1.0" />
  <rect
     style="fill:#ffffff;stroke:none"
     width="5.5"
     height="2"
     x="87.0525"
     y="138.5142" 
     transform="rotate(32.5270 89.8025 139.5142)"    /> 
  <path
     style="fill:none;stroke:#eb9d00;stroke-width:1px;stroke-linecap:butt;stroke-linejoin:miter;stroke-opacity:1"
    d="m 90.5525,137.5142 2,2 -2,2 m -1.5,-4 -2,2 2,2" transform="rotate(32.5270 89.8025 139.5142)"/>
  <line x1="73.9603" y1="110.3357" x2="106.8267" y2="110.6328" stroke="#270026" stroke-width="1.0" />
  <line x1="73.9829" y1="107.8358" x2="106.8493" y2="108.1329" stroke="#270026" stroke-width="1.0" />
  <line x1="74.1405" y1="88.9690" x2="73.9469" y2="68.8520" stroke="#000000" stroke-width="1.0" />
  <rect
     style="fill:#ffffff;fill-opacity:1;fill-rule:nonzero;stroke:none"
     width="2"
     height="2"
     x="73.5437"
     y="77.9105"
     transform="rotate(269.4488 74.0437 78.9105)" /> 
  <path
     style="fill:none;stroke:#000000;stroke-width:1px;stroke-linecap:butt;stroke-linejoin:miter;stroke-opacity:1"
     d="m 74.0437,76.9105 2,2 -2,2 m -2.370121,-4 2,2 -2,2"
     transform="rotate(269.4488 74.0437 78.9105)"/>
  <line x1="74.1422" y1="90.2190" x2="106.9670" y2="90.1746" stroke="#270026" stroke-width="1.0" />
  <line x1="74.1388" y1="87.7190" x2="106.9636" y2="87.6746" stroke="#270026" stroke-width="1.0" />
  <line x1="74.1405" y1="88.9690" x2="106.8380" y2="109.3829" stroke="#270026" stroke-width="1.0" />
  <rect
     style="fill:#ffffff;stroke:none"
     width="5.5"
     height="2"
     x="87.7393"
     y="98.1759" 
     transform="rotate(31.9775 90.4893 99.1759)"    /> 
  <path
     style="fill:none;stroke:#270026;stroke-width:1px;stroke-linecap:butt;stroke-linejoin:miter;stroke-opacity:1"
    d="m 91.2393,97.1759 2,2 -2,2 m -1.5,-4 -2,2 2,2" transform="rotate(31.9775 90.4893 99.1759)"/>
  <line x1="73.9469" y1="68.8520" x2="100.3230" y2="45.5798" stroke="#8405fd" stroke-width="1.0" />
  <rect
     style="fill:#ffffff;fill-opacity:1;fill-rule:nonzero;stroke:none"
     width="2"
     height="2"
     x="86.6350"
     y="56.2159"
     transform="rotate(-41.4227 87.1350 57.2159)" /> 
  <path
     style="fill:none;stroke:#8405fd;stroke-width:1px;stroke-linecap:butt;stroke-linejoin:miter;stroke-opacity:1"
     d="m 87.1350,55.2159 2,2 -2,2 m -2.370121,-4 2,2 -2,2"
     transform="rotate(-41.4227 87.1350 57.2159)"/>
  <line x1="73.9644" y1="70.1019" x2="106.8802" y2="69.6410" stroke="#200019" stroke-width="1.0" />
  <line x1="73.9294" y1="67.6021" x2="106.8452" y2="67.1412" stroke="#200019" stroke-width="1.0" />
  <line x1="69.5037" y1="49.3624" x2="83.3153" y2="34.9648" stroke="#200019" stroke-width="1.0" />
  <rect
     style="fill:#ffffff;fill-opacity:1;fill-rule:nonzero;stroke:none"
     width="2"
     height="2"
     x="75.9095"
     y="41.1636"
     transform="rotate(-46.1902 76.4095 42.1636)" /> 
  <path
     style="fill:none;stroke:#200019;stroke-width:1px;stroke-linecap:butt;stroke-linejoin:miter;stroke-opacity:1"
     d="m 76.4095,40.1636 2,2 -2,2 m -2.370121,-4 2,2 -2,2"
     transform="rotate(-46.1902 76.4095 42.1636)"/>
  <line x1="100.3230" y1="45.5798" x2="106.8627" y2="68.3911" stroke="#db6700" stroke-width="1.0" />
  <rect
     style="fill:#ffffff;stroke:none"
     width="5.5"
     height="2"
     x="100.8429"
     y="55.9854" 
     transform="rotate(74.0032 103.5929 56.9854)"    /> 
  <path
     style="fill:none;stroke:#db6700;stroke-width:1px;stroke-linecap:butt;stroke-linejoin:miter;stroke-opacity:1"
    d="m 104.3429,54.9854 2,2 -2,2 m -1.5,-4 -2,2 2,2" transform="rotate(74.0032 103.5929 56.9854)"/>
  <line x1="106.8627" y1="68.3911" x2="106.9653" y2="88.9246" stroke="#000000" stroke-width="1.0" />
  <rect
     style="fill:#ffffff;fill-opacity:1;fill-rule:nonzero;stroke:none"
     width="2"
     height="2"
     x="106.4140"
     y="77.6578"
     transform="rotate(89.7137 106.9140 78.6578)" /> 
  <path
     style="fill:none;stroke:#000000;stroke-width:1px;stroke-linecap:butt;stroke-linejoin:miter;stroke-opacity:1"
     d="m 106.9140,76.6578 2,2 -2,2 m -2.370121,-4 2,2 -2,2"
     transform="rotate(89.7137 106.9140 78.6578)"/>
  <line x1="106.8380" y1="109.3829" x2="106.4515" y2="129.6951" stroke="#000000" stroke-width="1.0" />
  <rect
     style="fill:#ffffff;fill-opacity:1;fill-rule:nonzero;stroke:none"
     width="2"
     height="2"
     x="106.1448"
     y="118.5390"
     transform="rotate(91.0902 106.6448 119.5390)" /> 
  <path
     style="fill:none;stroke:#000000;stroke-width:1px;stroke-linecap:butt;stroke-linejoin:miter;stroke-opacity:1"
     d="m 106.6448,117.5390 2,2 -2,2 m -2.370121,-4 2,2 -2,2"
     transform="rotate(91.0902 106.6448 119.5390)"/>
  <line x1="106.4515" y1="129.6951" x2="105.9968" y2="149.8419" stroke="#9309df" stroke-width="1.0" />
  <rect
     style="fill:#ffffff;fill-opacity:1;fill-rule:nonzero;stroke:none"
     width="2"
     height="2"
     x="105.7242"
     y="138.7685"
     transform="rotate(91.2928 106.2242 139.7685)" /> 
  <path
     style="fill:none;stroke:#9309df;stroke-width:1px;stroke-linecap:butt;stroke-linejoin:miter;stroke-opacity:1"
     d="m 106.2242,137.7685 2,2 -2,2 m -2.370121,-4 2,2 -2,2"
     transform="rotate(91.2928 106.2242 139.7685)"/>
<circle cx="73.0994" cy="149.2477" r="5.0" stroke="#595959" stroke-width="1.0" fill="#ffffff"/>
<text x="73.0994" y="151.9477" text-anchor="middle" font-family="Helvetica" font-size="7.5" fill="#000000" >G</text>
<circle cx="73.6082" cy="129.1866" r="5.0" stroke="#595959" stroke-width="1.0" fill="#ffffff"/>
<text x="73.6082" y="131.8866" text-anchor="middle" font-family="Helvetica" font-size="7.5" fill="#000000" >G</text>
<circle cx="73.9716" cy="109.0858" r="5.0" stroke="#595959" stroke-width="1.0" fill="#ffffff"/>
<text x="73.9716" y="111.7858" text-anchor="middle" font-family="Helvetica" font-size="7.5" fill="#000000" >C</text>
<circle cx="74.1405" cy="88.9690" r="5.0" stroke="#595959" stroke-width="1.0" fill="#ffffff"/>
<text x="74.1405" y="91.6690" text-anchor="middle" font-family="Helvetica" font-size="7.5" fill="#000000" >G</text>
<circle cx="73.9469" cy="68.8520" r="5.0" stroke="#595959" stroke-width="1.0" fill="#ffffff"/>
<text x="73.9469" y="71.5520" text-anchor="middle" font-family="Helvetica" font-size="7.5" fill="#000000" >C</text>
<circle cx="69.5037" cy="49.3624" r="5.0" stroke="#595959" stroke-width="1.0" fill="#ffffff"/>
<text x="69.5037" y="52.0624" text-anchor="middle" font-family="Helvetica" font-size="7.5" fill="#000000" >A</text>
<circle cx="83.3153" cy="34.9648" r="5.0" stroke="#595959" stroke-width="1.0" fill="#ffffff"/>
<text x="83.3153" y="37.6648" text-anchor="middle" font-family="Helvetica" font-size="7.5" fill="#000000" >U</text>
<circle cx="100.3230" cy="45.5798" r="5.0" stroke="#595959" stroke-width="1.0" fill="#ffffff"/>
<text x="100.3230" y="48.2798" text-anchor="middle" font-family="Helvetica" font-size="7.5" fill="#000000" >C</text>
<circle cx="118.9770" cy="52.5165" r="5.0" stroke="#595959" stroke-width="1.0" fill="#ffffff"/>
<text x="118.9770" y="55.2165" text-anchor="middle" font-family="Helvetica" font-size="7.5" fill="#000000" >G</text>
<circle cx="106.8627" cy="68.3911" r="5.0" stroke="#595959" stroke-width="1.0" fill="#ffffff"/>
<text x="106.8627" y="71.0911" text-anchor="middle" font-family="Helvetica" font-size="7.5" fill="#000000" >G</text>
<circle cx="106.9653" cy="88.9246" r="5.0" stroke="#595959" stroke-width="1.0" fill="#ffffff"/>
<text x="106.9653" y="91.6246" text-anchor="middle" font-family="Helvetica" font-size="7.5" fill="#000000" >C</text>
<circle cx="106.8380" cy="109.3829" r="5.0" stroke="#595959" stroke-width="1.0" fill="#ffffff"/>
<text x="106.8380" y="112.0829" text-anchor="middle" font-family="Helvetica" font-size="7.5" fill="#000000" >G</text>
<circle cx="106.4515" cy="129.6951" r="5.0" stroke="#595959" stroke-width="1.0" fill="#ffffff"/>
<text x="106.4515" y="132.3951" text-anchor="middle" font-family="Helvetica" font-size="7.5" fill="#000000" >C</text>
<circle cx="105.9968" cy="149.8419" r="5.0" stroke="#595959" stroke-width="1.0" fill="#ffffff"/>
<text x="105.9968" y="152.5419" text-anchor="middle" font-family="Helvetica" font-size="7.5" fill="#000000" >C</text>
</svg>