<?xml version="1.0" encoding="UTF-8"?>
<!DOCTYPE svg PUBLIC "-//W3C//DTD SVG 1.1//EN" 
"http://www.w3.org/Graphics/SVG/1.1/DTD/svg11.dtd">

<svg version="1.1"
   width="210px"
   height="210px"
xmlns="http://www.w3.org/2000/svg">
    <rect width="100%" height="100%" fill="white"/>

  <line x1="86.3980" y1="60.6111" x2="84.3997" y2="40.6639" stroke="#595959"
     style="stroke-width:2;stroke-miterlimit:4;stroke-dasharray:1,1;stroke-dashoffset:0" />
  <line x1="84.3997" y1="40.6639" x2="102.8217" y2="48.3015" stroke="#595959"
     style="stroke-width:2;stroke-miterlimit:4;stroke-dasharray:1,1;stroke-dashoffset:0" />
  <line x1="102.8217" y1="48.3015" x2="119.2982" y2="59.7253" stroke="#595959"
     style="stroke-width:2;stroke-miterlimit:4;stroke-dasharray:1,1;stroke-dashoffset:0" />
  <line x1="119.2982" y1="59.7253" x2="136.5155" y2="69.6772" stroke="#595959"
     style="stroke-width:2;stroke-miterlimit:4;stroke-dasharray:1,1;stroke-dashoffset:0" />
  <line x1="136.5155" y1="69.6772" x2="119.7432" y2="80.7065" stroke="#595959"
     style="stroke-width:2;stroke-miterlimit:4;stroke-dasharray:1,1;stroke-dashoffset:0" />
  <line x1="86.3349" y1="143.6890" x2="119.7387" y2="144.0941" stroke="#ea9900" stroke-width="1.0" />
  <circle cx="103.0368" cy="143.8915" r="2.25" stroke="#ea9900" stroke-width="1.0" fill="#ea9900"/>
  <line x1="86.6374" y1="123.4013" x2="119.8360" y2="123.5507" stroke="#ea9900" stroke-width="1.0" />
  <circle cx="103.2367" cy="123.4760" r="2.25" stroke="#ea9900" stroke-width="1.0" fill="#ea9900"/>
  <line x1="86.3549" y1="59.0117" x2="119.2551" y2="58.1258" stroke="#d96100" stroke-width="1.0" />
  <circle cx="102.8050" cy="58.5688" r="2.25" stroke="#d96100" stroke-width="1.0" fill="#d96100"/>
  <line x1="86.3980" y1="60.6111" x2="119.7432" y2="80.7065" stroke="#eca100" stroke-width="1.0" />
  <circle cx="103.0706" cy="70.6588" r="2.25" stroke="#eca100" stroke-width="1.0" fill="#eca100"/>
  <line x1="86.1776" y1="162.2635" x2="86.3543" y2="142.0891" stroke="#b11c1f" stroke-width="1.0" />
  <rect
     style="fill:#ffffff;fill-opacity:1;fill-rule:nonzero;stroke:none"
     width="2"
     height="2"
     x="85.7659"
     y="151.1763"
     transform="rotate(-89.4982 86.2659 152.1763)" /> 
  <path
     style="fill:none;stroke:#b11c1f;stroke-width:1px;stroke-linecap:butt;stroke-linejoin:miter;stroke-opacity:1"
     d="m 86.2659,150.1763 2,2 -2,2 m -2.370121,-4 2,2 -2,2"
     transform="rotate(-89.4982 86.2659 152.1763)"/>
  <line x1="86.1548" y1="163.5133" x2="119.3356" y2="164.1188" stroke="#33003e" stroke-width="1.0" />
  <line x1="86.2004" y1="161.0137" x2="119.3813" y2="161.6193" stroke="#33003e" stroke-width="1.0" />
  <line x1="86.1776" y1="162.2635" x2="119.3746" y2="183.0721" stroke="#c02e00" stroke-width="1.0" />
  <rect
     style="fill:#ffffff;stroke:none"
     width="5.5"
     height="2"
     x="100.0261"
     y="171.6678" 
     transform="rotate(32.0805 102.7761 172.6678)"    /> 
  <path
     style="fill:none;stroke:#c02e00;stroke-width:1px;stroke-linecap:butt;stroke-linejoin:miter;stroke-opacity:1"
    d="m 103.5261,170.6678 2,2 -2,2 m -1.5,-4 -2,2 2,2" transform="rotate(32.0805 102.7761 172.6678)"/>
  <line x1="86.3543" y1="142.0891" x2="86.6446" y2="121.8013" stroke="#000000" stroke-width="1.0" />
  <rect
     style="fill:#ffffff;fill-opacity:1;fill-rule:nonzero;stroke:none"
     width="2"
     height="2"
     x="85.9994"
     y="130.9452"
     transform="rotate(-89.1802 86.4994 131.9452)" /> 
  <path
     style="fill:none;stroke:#000000;stroke-width:1px;stroke-linecap:butt;stroke-linejoin:miter;stroke-opacity:1"
     d="m 86.4994,129.9452 2,2 -2,2 m -2.370121,-4 2,2 -2,2"
     transform="rotate(-89.1802 86.4994 131.9452)"/>
  <line x1="86.3737" y1="140.4892" x2="119.7775" y2="140.8943" stroke="#6801dc" stroke-width="1.0" />
  <line x1="86.3543" y1="142.0891" x2="119.3585" y2="162.8690" stroke="#eb9d00" stroke-width="1.0" />
  <rect
     style="fill:#ffffff;stroke:none"
     width="5.5"
     height="2"
     x="100.1064"
     y="151.4791" 
     transform="rotate(32.1951 102.8564 152.4791)"    /> 
  <path
     style="fill:none;stroke:#eb9d00;stroke-width:1px;stroke-linecap:butt;stroke-linejoin:miter;stroke-opacity:1"
    d="m 103.6064,150.4791 2,2 -2,2 m -1.5,-4 -2,2 2,2" transform="rotate(32.1951 102.8564 152.4791)"/>
  <line x1="86.6446" y1="121.8013" x2="86.8025" y2="101.3945" stroke="#940ad9" stroke-width="1.0" />
  <rect
     style="fill:#ffffff;fill-opacity:1;fill-rule:nonzero;stroke:none"
     width="2"
     height="2"
     x="86.2236"
     y="110.5979"
     transform="rotate(-89.5565 86.7236 111.5979)" /> 
  <path
     style="fill:none;stroke:#940ad9;stroke-width:1px;stroke-linecap:butt;stroke-linejoin:miter;stroke-opacity:1"
     d="m 86.7236,109.5979 2,2 -2,2 m -2.370121,-4 2,2 -2,2"
     transform="rotate(-89.5565 86.7236 111.5979)"/>
  <line x1="86.6518" y1="120.2013" x2="119.8504" y2="120.3507" stroke="#6801dc" stroke-width="1.0" />
  <line x1="86.8025" y1="101.3945" x2="86.7446" y2="81.0257" stroke="#8204ff" stroke-width="1.0" />
  <rect
     style="fill:#ffffff;fill-opacity:1;fill-rule:nonzero;stroke:none"
     width="2"
     height="2"
     x="86.2736"
     y="90.2101"
     transform="rotate(269.8371 86.7736 91.2101)" /> 
  <path
     style="fill:none;stroke:#8204ff;stroke-width:1px;stroke-linecap:butt;stroke-linejoin:miter;stroke-opacity:1"
     d="m 86.7736,89.2101 2,2 -2,2 m -2.370121,-4 2,2 -2,2"
     transform="rotate(269.8371 86.7736 91.2101)"/>
  <line x1="86.8041" y1="102.6445" x2="119.7673" y2="102.6042" stroke="#37004b" stroke-width="1.0" />
  <line x1="86.8010" y1="100.1445" x2="119.7642" y2="100.1042" stroke="#37004b" stroke-width="1.0" />
  <line x1="86.7446" y1="81.0257" x2="86.3980" y2="60.6111" stroke="#7e04ff" stroke-width="1.0" />
  <rect
     style="fill:#ffffff;fill-opacity:1;fill-rule:nonzero;stroke:none"
     width="2"
     height="2"
     x="86.0713"
     y="69.8184"
     transform="rotate(269.0271 86.5713 70.8184)" /> 
  <path
     style="fill:none;stroke:#7e04ff;stroke-width:1px;stroke-linecap:butt;stroke-linejoin:miter;stroke-opacity:1"
     d="m 86.5713,68.8184 2,2 -2,2 m -2.370121,-4 2,2 -2,2"
     transform="rotate(269.0271 86.5713 70.8184)"/>
  <line x1="86.7446" y1="81.0257" x2="119.7432" y2="80.7065" stroke="#44006e" stroke-width="1.0" />
  <line x1="86.3980" y1="60.6111" x2="102.8217" y2="48.3015" stroke="#6d02e7" stroke-width="1.0" />
  <rect
     style="fill:#ffffff;fill-opacity:1;fill-rule:nonzero;stroke:none"
     width="2"
     height="2"
     x="94.1098"
     y="53.4563"
     transform="rotate(-36.8517 94.6098 54.4563)" /> 
  <path
     style="fill:none;stroke:#6d02e7;stroke-width:1px;stroke-linecap:butt;stroke-linejoin:miter;stroke-opacity:1"
     d="m 94.6098,52.4563 2,2 -2,2 m -2.370121,-4 2,2 -2,2"
     transform="rotate(-36.8517 94.6098 54.4563)"/>
  <line x1="86.4747" y1="63.4601" x2="119.3749" y2="62.5742" stroke="#9109e5" stroke-width="1.0" />
  <line x1="86.4074" y1="60.9610" x2="119.3076" y2="60.0751" stroke="#9109e5" stroke-width="1.0" />
  <line x1="119.2982" y1="59.7253" x2="119.7432" y2="80.7065" stroke="#7803fb" stroke-width="1.0" />
  <rect
     style="fill:#ffffff;fill-opacity:1;fill-rule:nonzero;stroke:none"
     width="2"
     height="2"
     x="119.0207"
     y="69.2159"
     transform="rotate(88.7850 119.5207 70.2159)" /> 
  <path
     style="fill:none;stroke:#7803fb;stroke-width:1px;stroke-linecap:butt;stroke-linejoin:miter;stroke-opacity:1"
     d="m 119.5207,68.2159 2,2 -2,2 m -2.370121,-4 2,2 -2,2"
     transform="rotate(88.7850 119.5207 70.2159)"/>
  <line x1="119.7432" y1="80.7065" x2="119.7658" y2="101.3542" stroke="#8605fc" stroke-width="1.0" />
  <rect
     style="fill:#ffffff;fill-opacity:1;fill-rule:nonzero;stroke:none"
     width="2"
     height="2"
     x="119.2545"
     y="90.0304"
     transform="rotate(89.9373 119.7545 91.0304)" /> 
  <path
     style="fill:none;stroke:#8605fc;stroke-width:1px;stroke-linecap:butt;stroke-linejoin:miter;stroke-opacity:1"
     d="m 119.7545,89.0304 2,2 -2,2 m -2.370121,-4 2,2 -2,2"
     transform="rotate(89.9373 119.7545 91.0304)"/>
  <line x1="119.7658" y1="101.3542" x2="119.8432" y2="121.9507" stroke="#8d07ef" stroke-width="1.0" />
  <rect
     style="fill:#ffffff;fill-opacity:1;fill-rule:nonzero;stroke:none"
     width="2"
     height="2"
     x="119.3045"
     y="110.6525"
     transform="rotate(89.7845 119.8045 111.6525)" /> 
  <path
     style="fill:none;stroke:#8d07ef;stroke-width:1px;stroke-linecap:butt;stroke-linejoin:miter;stroke-opacity:1"
     d="m 119.8045,109.6525 2,2 -2,2 m -2.370121,-4 2,2 -2,2"
     transform="rotate(89.7845 119.8045 111.6525)"/>
  <line x1="119.8432" y1="121.9507" x2="119.7581" y2="142.4942" stroke="#000000" stroke-width="1.0" />
  <rect
     style="fill:#ffffff;fill-opacity:1;fill-rule:nonzero;stroke:none"
     width="2"
     height="2"
     x="119.3007"
     y="131.2224"
     transform="rotate(90.2373 119.8007 132.2224)" /> 
  <path
     style="fill:none;stroke:#000000;stroke-width:1px;stroke-linecap:butt;stroke-linejoin:miter;stroke-opacity:1"
     d="m 119.8007,130.2224 2,2 -2,2 m -2.370121,-4 2,2 -2,2"
     transform="rotate(90.2373 119.8007 132.2224)"/>
  <line x1="119.7581" y1="142.4942" x2="119.3585" y2="162.8690" stroke="#8806f9" stroke-width="1.0" />
  <rect
     style="fill:#ffffff;fill-opacity:1;fill-rule:nonzero;stroke:none"
     width="2"
     height="2"
     x="119.0583"
     y="151.6816"
     transform="rotate(91.1238 119.5583 152.6816)" /> 
  <path
     style="fill:none;stroke:#8806f9;stroke-width:1px;stroke-linecap:butt;stroke-linejoin:miter;stroke-opacity:1"
     d="m 119.5583,150.6816 2,2 -2,2 m -2.370121,-4 2,2 -2,2"
     transform="rotate(91.1238 119.5583 152.6816)"/>
  <line x1="119.3585" y1="162.8690" x2="119.3746" y2="183.0721" stroke="#c83b00" stroke-width="1.0" />
  <rect
     style="fill:#ffffff;fill-opacity:1;fill-rule:nonzero;stroke:none"
     width="2"
     height="2"
     x="118.8665"
     y="171.9706"
     transform="rotate(89.9543 119.3665 172.9706)" /> 
  <path
     style="fill:none;stroke:#c83b00;stroke-width:1px;stroke-linecap:butt;stroke-linejoin:miter;stroke-opacity:1"
     d="m 119.3665,170.9706 2,2 -2,2 m -2.370121,-4 2,2 -2,2"
     transform="rotate(89.9543 119.3665 172.9706)"/>
<circle cx="86.1776" cy="162.2635" r="5.0" stroke="#595959" stroke-width="1.0" fill="#ffffff"/>
<text x="86.1776" y="164.9635" text-anchor="middle" font-family="Helvetica" font-size="7.5" fill="#000000" >G</text>
<circle cx="86.3543" cy="142.0891" r="5.0" stroke="#595959" stroke-width="1.0" fill="#ffffff"/>
<text x="86.3543" y="144.7891" text-anchor="middle" font-family="Helvetica" font-size="7.5" fill="#000000" >A</text>
<circle cx="86.6446" cy="121.8013" r="5.0" stroke="#595959" stroke-width="1.0" fill="#ffffff"/>
<text x="86.6446" y="124.5013" text-anchor="middle" font-family="Helvetica" font-size="7.5" fill="#000000" >U</text>
<circle cx="86.8025" cy="101.3945" r="5.0" stroke="#595959" stroke-width="1.0" fill="#ffffff"/>
<text x="86.8025" y="104.0945" text-anchor="middle" font-family="Helvetica" font-size="7.5" fill="#000000" >C</text>
<circle cx="86.7446" cy="81.0257" r="5.0" stroke="#595959" stroke-width="1.0" fill="#ffffff"/>
<text x="86.7446" y="83.7257" text-anchor="middle" font-family="Helvetica" font-size="7.5" fill="#000000" >U</text>
<circle cx="86.3980" cy="60.6111" r="5.0" stroke="#595959" stroke-width="1.0" fill="#ffffff"/>
<text x="86.3980" y="63.3111" text-anchor="middle" font-family="Helvetica" font-size="7.5" fill="#000000" >C</text>
<circle cx="84.3997" cy="40.6639" r="5.0" stroke="#595959" stroke-width="1.0" fill="#ffffff"/>
<text x="84.3997" y="43.3639" text-anchor="middle" font-family="Helvetica" font-size="7.5" fill="#000000" >U</text>
<circle cx="102.8217" cy="48.3015" r="5.0" stroke="#595959" stroke-width="1.0" fill="#ffffff"/>
<text x="102.8217" y="51.0015" text-anchor="middle" font-family="Helvetica" font-size="7.5" fill="#000000" >U</text>
<circle cx="119.2982" cy="59.7253" r="5.0" stroke="#595959" stroke-width="1.0" fill="#ffffff"/>
<text x="119.2982" y="62.4253" text-anchor="middle" font-family="Helvetica" font-size="7.5" fill="#000000" >G</text>
<circle cx="136.5155" cy="69.6772" r="5.0" stroke="#595959" stroke-width="1.0" fill="#ffffff"/>
<text x="136.5155" y="72.3772" text-anchor="middle" font-family="Helvetica" font-size="7.5" fill="#000000" >U</text>
<circle cx="119.7432" cy="80.7065" r="5.0" stroke="#595959" stroke-width="1.0" fill="#ffffff"/>
<text x="119.7432" y="83.4065" text-anchor="middle" font-family="Helvetica" font-size="7.5" fill="#000000" >A</text>
<circle cx="119.7658" cy="101.3542" r="5.0" stroke="#595959" stroke-width="1.0" fill="#ffffff"/>
<text x="119.7658" y="104.0542" text-anchor="middle" font-family="Helvetica" font-size="7.5" fill="#000000" >G</text>
<circle cx="119.8432" cy="121.9507" r="5.0" stroke="#595959" stroke-width="1.0" fill="#ffffff"/>
<text x="119.8432" y="124.6507" text-anchor="middle" font-family="Helvetica" font-size="7.5" fill="#000000" >A</text>
<circle cx="119.7581" cy="142.4942" r="5.0" stroke="#595959" stroke-width="1.0" fill="#ffffff"/>
<text x="119.7581" y="145.1942" text-anchor="middle" font-family="Helvetica" font-size="7.5" fill="#000000" >U</text>
<circle cx="119.3585" cy="162.8690" r="5.0" stroke="#595959" stroke-width="1.0" fill="#ffffff"/>
<text x="119.3585" y="165.5690" text-anchor="middle" font-family="Helvetica" font-size="7.5" fill="#000000" >C</text>
<circle cx="119.3746" cy="183.0721" r="5.0" stroke="#595959" stroke-width="1.0" fill="#ffffff"/>
<text x="119.3746" y="185.7721" text-anchor="middle" font-family="Helvetica" font-size="7.5" fill="#000000" >A</text>
</svg>