<?xml version="1.0" encoding="UTF-8"?>
<!DOCTYPE svg PUBLIC "-//W3C//DTD SVG 1.1//EN" 
"http://www.w3.org/Graphics/SVG/1.1/DTD/svg11.dtd">

<svg version="1.1"
   width="182px"
   height="182px"
xmlns="http://www.w3.org/2000/svg">
    <rect width="100%" height="100%" fill="white"/>

  <line x1="73.8366" y1="110.3895" x2="74.0022" y2="90.4363" stroke="#595959"
     style="stroke-width:2;stroke-miterlimit:4;stroke-dasharray:1,1;stroke-dashoffset:0" />
  <line x1="73.8445" y1="70.4914" x2="73.1781" y2="50.5662" stroke="#595959"
     style="stroke-width:2;stroke-miterlimit:4;stroke-dasharray:1,1;stroke-dashoffset:0" />
  <line x1="83.0353" y1="33.2102" x2="102.9842" y2="34.2122" stroke="#595959"
     style="stroke-width:2;stroke-miterlimit:4;stroke-dasharray:1,1;stroke-dashoffset:0" />
  <line x1="113.2794" y1="51.3344" x2="106.7728" y2="70.2738" stroke="#595959"
     style="stroke-width:2;stroke-miterlimit:4;stroke-dasharray:1,1;stroke-dashoffset:0" />
  <line x1="106.8555" y1="90.4343" x2="106.7807" y2="110.5786" stroke="#595959"
     style="stroke-width:2;stroke-miterlimit:4;stroke-dasharray:1,1;stroke-dashoffset:0" />
  <line x1="73.2532" y1="150.3527" x2="73.5487" y2="130.3564" stroke="#d55800" stroke-width="1.0" />
  <rect
     style="fill:#ffffff;fill-opacity:1;fill-rule:nonzero;stroke:none"
     width="2"
     height="2"
     x="72.9010"
     y="139.3546"
     transform="rotate(-89.1532 73.4010 140.3546)" /> 
  <path
     style="fill:none;stroke:#d55800;stroke-width:1px;stroke-linecap:butt;stroke-linejoin:miter;stroke-opacity:1"
     d="m 73.4010,138.3546 2,2 -2,2 m -2.370121,-4 2,2 -2,2"
     transform="rotate(-89.1532 73.4010 140.3546)"/>
  <line x1="73.2403" y1="151.6027" x2="106.1336" y2="151.9404" stroke="#33003e" stroke-width="1.0" />
  <line x1="73.2660" y1="149.1028" x2="106.1593" y2="149.4406" stroke="#33003e" stroke-width="1.0" />
  <line x1="73.5487" y1="130.3564" x2="73.8366" y2="110.3895" stroke="#000000" stroke-width="1.0" />
  <rect
     style="fill:#ffffff;fill-opacity:1;fill-rule:nonzero;stroke:none"
     width="2"
     height="2"
     x="73.1927"
     y="119.3729"
     transform="rotate(-89.1739 73.6927 120.3729)" /> 
  <path
     style="fill:none;stroke:#000000;stroke-width:1px;stroke-linecap:butt;stroke-linejoin:miter;stroke-opacity:1"
     d="m 73.6927,118.3729 2,2 -2,2 m -2.370121,-4 2,2 -2,2"
     transform="rotate(-89.1739 73.6927 120.3729)"/>
  <line x1="73.5367" y1="131.6063" x2="106.4704" y2="131.9233" stroke="#200019" stroke-width="1.0" />
  <line x1="73.5608" y1="129.1064" x2="106.4945" y2="129.4234" stroke="#200019" stroke-width="1.0" />
  <line x1="73.5487" y1="130.3564" x2="106.1464" y2="150.6905" stroke="#eca100" stroke-width="1.0" />
  <rect
     style="fill:#ffffff;stroke:none"
     width="5.5"
     height="2"
     x="87.0976"
     y="139.5234" 
     transform="rotate(31.9555 89.8476 140.5234)"    /> 
  <path
     style="fill:none;stroke:#eca100;stroke-width:1px;stroke-linecap:butt;stroke-linejoin:miter;stroke-opacity:1"
    d="m 90.5976,138.5234 2,2 -2,2 m -1.5,-4 -2,2 2,2" transform="rotate(31.9555 89.8476 140.5234)"/>
  <line x1="73.8295" y1="111.6395" x2="106.7735" y2="111.8286" stroke="#270026" stroke-width="1.0" />
  <line x1="73.8438" y1="109.1395" x2="106.7878" y2="109.3286" stroke="#270026" stroke-width="1.0" />
  <line x1="74.0022" y1="90.4363" x2="73.8445" y2="70.4914" stroke="#000000" stroke-width="1.0" />
  <rect
     style="fill:#ffffff;fill-opacity:1;fill-rule:nonzero;stroke:none"
     width="2"
     height="2"
     x="73.4234"
     y="79.4639"
     transform="rotate(269.5470 73.9234 80.4639)" /> 
  <path
     style="fill:none;stroke:#000000;stroke-width:1px;stroke-linecap:butt;stroke-linejoin:miter;stroke-opacity:1"
     d="m 73.9234,78.4639 2,2 -2,2 m -2.370121,-4 2,2 -2,2"
     transform="rotate(269.5470 73.9234 80.4639)"/>
  <line x1="74.0023" y1="91.6863" x2="106.8555" y2="91.6843" stroke="#33003e" stroke-width="1.0" />
  <line x1="74.0021" y1="89.1863" x2="106.8554" y2="89.1843" stroke="#33003e" stroke-width="1.0" />
  <line x1="74.0022" y1="90.4363" x2="106.7807" y2="110.5786" stroke="#17000d" stroke-width="1.0" />
  <rect
     style="fill:#ffffff;stroke:none"
     width="5.5"
     height="2"
     x="87.6414"
     y="99.5075" 
     transform="rotate(31.5706 90.3914 100.5075)"    /> 
  <path
     style="fill:none;stroke:#17000d;stroke-width:1px;stroke-linecap:butt;stroke-linejoin:miter;stroke-opacity:1"
    d="m 91.1414,98.5075 2,2 -2,2 m -1.5,-4 -2,2 2,2" transform="rotate(31.5706 90.3914 100.5075)"/>
  <line x1="73.8528" y1="71.7414" x2="106.7810" y2="71.5238" stroke="#17000d" stroke-width="1.0" />
  <line x1="73.8363" y1="69.2415" x2="106.7645" y2="69.0239" stroke="#17000d" stroke-width="1.0" />
  <line x1="73.1781" y1="50.5662" x2="83.0353" y2="33.2102" stroke="#200019" stroke-width="1.0" />
  <rect
     style="fill:#ffffff;fill-opacity:1;fill-rule:nonzero;stroke:none"
     width="2"
     height="2"
     x="77.6067"
     y="40.8882"
     transform="rotate(-60.4060 78.1067 41.8882)" /> 
  <path
     style="fill:none;stroke:#200019;stroke-width:1px;stroke-linecap:butt;stroke-linejoin:miter;stroke-opacity:1"
     d="m 78.1067,39.8882 2,2 -2,2 m -2.370121,-4 2,2 -2,2"
     transform="rotate(-60.4060 78.1067 41.8882)"/>
  <line x1="73.1781" y1="50.5662" x2="106.7728" y2="70.2738" stroke="#9e0fa8" stroke-width="1.0" />
  <rect
     style="fill:#ffffff;stroke:none"
     width="5.5"
     height="2"
     x="87.2254"
     y="59.4200" 
     transform="rotate(30.3972 89.9754 60.4200)"    /> 
  <path
     style="fill:none;stroke:#9e0fa8;stroke-width:1px;stroke-linecap:butt;stroke-linejoin:miter;stroke-opacity:1"
    d="m 90.7254,58.4200 2,2 -2,2 m -1.5,-4 -2,2 2,2" transform="rotate(30.3972 89.9754 60.4200)"/>
  <line x1="102.9842" y1="34.2122" x2="113.2794" y2="51.3344" stroke="#c13000" stroke-width="1.0" />
  <rect
     style="fill:#ffffff;fill-opacity:1;fill-rule:nonzero;stroke:none"
     width="2"
     height="2"
     x="107.1318"
     y="41.7733" 
     transform="rotate(58.9824 108.1318 42.7733)" /> 
  <path
     style="fill:none;stroke:#c13000;stroke-width:1px;stroke-linecap:butt;stroke-linejoin:miter;stroke-opacity:1"
     d="m 111.1318,40.7733 -2,2 2,2 m -6,-4 2,2 -2,2"
     transform="rotate(58.9824 108.1318 42.7733)"/>
  <line x1="106.7728" y1="70.2738" x2="106.8555" y2="90.4343" stroke="#000000" stroke-width="1.0" />
  <rect
     style="fill:#ffffff;fill-opacity:1;fill-rule:nonzero;stroke:none"
     width="2"
     height="2"
     x="106.3141"
     y="79.3541"
     transform="rotate(89.7650 106.8141 80.3541)" /> 
  <path
     style="fill:none;stroke:#000000;stroke-width:1px;stroke-linecap:butt;stroke-linejoin:miter;stroke-opacity:1"
     d="m 106.8141,78.3541 2,2 -2,2 m -2.370121,-4 2,2 -2,2"
     transform="rotate(89.7650 106.8141 80.3541)"/>
  <line x1="106.7807" y1="110.5786" x2="106.4824" y2="130.6734" stroke="#000000" stroke-width="1.0" />
  <rect
     style="fill:#ffffff;fill-opacity:1;fill-rule:nonzero;stroke:none"
     width="2"
     height="2"
     x="106.1315"
     y="119.6260"
     transform="rotate(90.8502 106.6315 120.6260)" /> 
  <path
     style="fill:none;stroke:#000000;stroke-width:1px;stroke-linecap:butt;stroke-linejoin:miter;stroke-opacity:1"
     d="m 106.6315,118.6260 2,2 -2,2 m -2.370121,-4 2,2 -2,2"
     transform="rotate(90.8502 106.6315 120.6260)"/>
  <line x1="106.4824" y1="130.6734" x2="106.1464" y2="150.6905" stroke="#9e0fa8" stroke-width="1.0" />
  <rect
     style="fill:#ffffff;fill-opacity:1;fill-rule:nonzero;stroke:none"
     width="2"
     height="2"
     x="105.8144"
     y="139.6819"
     transform="rotate(90.9617 106.3144 140.6819)" /> 
  <path
     style="fill:none;stroke:#9e0fa8;stroke-width:1px;stroke-linecap:butt;stroke-linejoin:miter;stroke-opacity:1"
     d="m 106.3144,138.6819 2,2 -2,2 m -2.370121,-4 2,2 -2,2"
     transform="rotate(90.9617 106.3144 140.6819)"/>
<circle cx="73.2532" cy="150.3527" r="5.0" stroke="#595959" stroke-width="1.0" fill="#ffffff"/>
<text x="73.2532" y="153.0527" text-anchor="middle" font-family="Helvetica" font-size="7.5" fill="#000000" >G</text>
<circle cx="73.5487" cy="130.3564" r="5.0" stroke="#595959" stroke-width="1.0" fill="#ffffff"/>
<text x="73.5487" y="133.0564" text-anchor="middle" font-family="Helvetica" font-size="7.5" fill="#000000" >G</text>
<circle cx="73.8366" cy="110.3895" r="5.0" stroke="#595959" stroke-width="1.0" fill="#ffffff"/>
<text x="73.8366" y="113.0895" text-anchor="middle" font-family="Helvetica" font-size="7.5" fill="#000000" >C</text>
<circle cx="74.0022" cy="90.4363" r="5.0" stroke="#595959" stroke-width="1.0" fill="#ffffff"/>
<text x="74.0022" y="93.1363" text-anchor="middle" font-family="Helvetica" font-size="7.5" fill="#000000" >G</text>
<circle cx="73.8445" cy="70.4914" r="5.0" stroke="#595959" stroke-width="1.0" fill="#ffffff"/>
<text x="73.8445" y="73.1914" text-anchor="middle" font-family="Helvetica" font-size="7.5" fill="#000000" >C</text>
<circle cx="73.1781" cy="50.5662" r="5.0" stroke="#595959" stroke-width="1.0" fill="#ffffff"/>
<text x="73.1781" y="53.2662" text-anchor="middle" font-family="Helvetica" font-size="7.5" fill="#000000" >A</text>
<circle cx="83.0353" cy="33.2102" r="5.0" stroke="#595959" stroke-width="1.0" fill="#ffffff"/>
<text x="83.0353" y="35.9102" text-anchor="middle" font-family="Helvetica" font-size="7.5" fill="#000000" >U</text>
<circle cx="102.9842" cy="34.2122" r="5.0" stroke="#595959" stroke-width="1.0" fill="#ffffff"/>
<text x="102.9842" y="36.9122" text-anchor="middle" font-family="Helvetica" font-size="7.5" fill="#000000" >C</text>
<circle cx="113.2794" cy="51.3344" r="5.0" stroke="#595959" stroke-width="1.0" fill="#ffffff"/>
<text x="113.2794" y="54.0344" text-anchor="middle" font-family="Helvetica" font-size="7.5" fill="#000000" >G</text>
<circle cx="106.7728" cy="70.2738" r="5.0" stroke="#595959" stroke-width="1.0" fill="#ffffff"/>
<text x="106.7728" y="72.9738" text-anchor="middle" font-family="Helvetica" font-size="7.5" fill="#000000" >G</text>
<circle cx="106.8555" cy="90.4343" r="5.0" stroke="#595959" stroke-width="1.0" fill="#ffffff"/>
<text x="106.8555" y="93.1343" text-anchor="middle" font-family="Helvetica" font-size="7.5" fill="#000000" >C</text>
<circle cx="106.7807" cy="110.5786" r="5.0" stroke="#595959" stroke-width="1.0" fill="#ffffff"/>
<text x="106.7807" y="113.2786" text-anchor="middle" font-family="Helvetica" font-size="7.5" fill="#000000" >G</text>
<circle cx="106.4824" cy="130.6734" r="5.0" stroke="#595959" stroke-width="1.0" fill="#ffffff"/>
<text x="106.4824" y="133.3734" text-anchor="middle" font-family="Helvetica" font-size="7.5" fill="#000000" >C</text>
<circle cx="106.1464" cy="150.6905" r="5.0" stroke="#595959" stroke-width="1.0" fill="#ffffff"/>
<text x="106.1464" y="153.3905" text-anchor="middle" font-family="Helvetica" font-size="7.5" fill="#000000" >C</text>
</svg>