<?xml version="1.0" encoding="UTF-8"?>
<!DOCTYPE svg PUBLIC "-//W3C//DTD SVG 1.1//EN" 
"http://www.w3.org/Graphics/SVG/1.1/DTD/svg11.dtd">

<svg version="1.1"
   width="182px"
   height="182px"
xmlns="http://www.w3.org/2000/svg">
    <rect width="100%" height="100%" fill="white"/>

  <line x1="74.0210" y1="110.3982" x2="74.1238" y2="90.4421" stroke="#595959"
     style="stroke-width:2;stroke-miterlimit:4;stroke-dasharray:1,1;stroke-dashoffset:0" />
  <line x1="73.9730" y1="70.4673" x2="72.4077" y2="50.5760" stroke="#595959"
     style="stroke-width:2;stroke-miterlimit:4;stroke-dasharray:1,1;stroke-dashoffset:0" />
  <line x1="82.6387" y1="33.4328" x2="102.5973" y2="34.2669" stroke="#595959"
     style="stroke-width:2;stroke-miterlimit:4;stroke-dasharray:1,1;stroke-dashoffset:0" />
  <line x1="113.0992" y1="51.2626" x2="106.9503" y2="70.3066" stroke="#595959"
     style="stroke-width:2;stroke-miterlimit:4;stroke-dasharray:1,1;stroke-dashoffset:0" />
  <line x1="106.9858" y1="90.4027" x2="106.9024" y2="110.5141" stroke="#595959"
     style="stroke-width:2;stroke-miterlimit:4;stroke-dasharray:1,1;stroke-dashoffset:0" />
  <line x1="73.4610" y1="150.3662" x2="73.7665" y2="130.3773" stroke="#d96100" stroke-width="1.0" />
  <rect
     style="fill:#ffffff;fill-opacity:1;fill-rule:nonzero;stroke:none"
     width="2"
     height="2"
     x="73.1138"
     y="139.3717"
     transform="rotate(-89.1243 73.6138 140.3717)" /> 
  <path
     style="fill:none;stroke:#d96100;stroke-width:1px;stroke-linecap:butt;stroke-linejoin:miter;stroke-opacity:1"
     d="m 73.6138,138.3717 2,2 -2,2 m -2.370121,-4 2,2 -2,2"
     transform="rotate(-89.1243 73.6138 140.3717)"/>
  <line x1="73.4518" y1="151.6161" x2="106.3762" y2="151.8589" stroke="#270026" stroke-width="1.0" />
  <line x1="73.4702" y1="149.1162" x2="106.3946" y2="149.3590" stroke="#270026" stroke-width="1.0" />
  <line x1="73.7665" y1="130.3773" x2="74.0210" y2="110.3982" stroke="#000000" stroke-width="1.0" />
  <rect
     style="fill:#ffffff;fill-opacity:1;fill-rule:nonzero;stroke:none"
     width="2"
     height="2"
     x="73.3938"
     y="119.3877"
     transform="rotate(-89.2704 73.8938 120.3877)" /> 
  <path
     style="fill:none;stroke:#000000;stroke-width:1px;stroke-linecap:butt;stroke-linejoin:miter;stroke-opacity:1"
     d="m 73.8938,118.3877 2,2 -2,2 m -2.370121,-4 2,2 -2,2"
     transform="rotate(-89.2704 73.8938 120.3877)"/>
  <line x1="73.7589" y1="131.6273" x2="106.6802" y2="131.8284" stroke="#270026" stroke-width="1.0" />
  <line x1="73.7742" y1="129.1274" x2="106.6955" y2="129.3285" stroke="#270026" stroke-width="1.0" />
  <line x1="73.7665" y1="130.3773" x2="106.3854" y2="150.6089" stroke="#dd6b00" stroke-width="1.0" />
  <rect
     style="fill:#ffffff;stroke:none"
     width="5.5"
     height="2"
     x="87.3260"
     y="139.4931" 
     transform="rotate(31.8090 90.0760 140.4931)"    /> 
  <path
     style="fill:none;stroke:#dd6b00;stroke-width:1px;stroke-linecap:butt;stroke-linejoin:miter;stroke-opacity:1"
    d="m 90.8260,138.4931 2,2 -2,2 m -1.5,-4 -2,2 2,2" transform="rotate(31.8090 90.0760 140.4931)"/>
  <line x1="74.0166" y1="111.6482" x2="106.8980" y2="111.7640" stroke="#17000d" stroke-width="1.0" />
  <line x1="74.0254" y1="109.1482" x2="106.9068" y2="109.2641" stroke="#17000d" stroke-width="1.0" />
  <line x1="74.1238" y1="90.4421" x2="73.9730" y2="70.4673" stroke="#000000" stroke-width="1.0" />
  <rect
     style="fill:#ffffff;fill-opacity:1;fill-rule:nonzero;stroke:none"
     width="2"
     height="2"
     x="73.5484"
     y="79.4547"
     transform="rotate(269.5676 74.0484 80.4547)" /> 
  <path
     style="fill:none;stroke:#000000;stroke-width:1px;stroke-linecap:butt;stroke-linejoin:miter;stroke-opacity:1"
     d="m 74.0484,78.4547 2,2 -2,2 m -2.370121,-4 2,2 -2,2"
     transform="rotate(269.5676 74.0484 80.4547)"/>
  <line x1="74.1253" y1="91.6921" x2="106.9873" y2="91.6527" stroke="#33003e" stroke-width="1.0" />
  <line x1="74.1223" y1="89.1921" x2="106.9843" y2="89.1527" stroke="#33003e" stroke-width="1.0" />
  <line x1="74.1238" y1="90.4421" x2="106.9024" y2="110.5141" stroke="#17000d" stroke-width="1.0" />
  <rect
     style="fill:#ffffff;stroke:none"
     width="5.5"
     height="2"
     x="87.7631"
     y="99.4781" 
     transform="rotate(31.4813 90.5131 100.4781)"    /> 
  <path
     style="fill:none;stroke:#17000d;stroke-width:1px;stroke-linecap:butt;stroke-linejoin:miter;stroke-opacity:1"
    d="m 91.2631,98.4781 2,2 -2,2 m -1.5,-4 -2,2 2,2" transform="rotate(31.4813 90.5131 100.4781)"/>
  <line x1="73.9791" y1="71.7173" x2="106.9564" y2="71.5565" stroke="#200019" stroke-width="1.0" />
  <line x1="73.9669" y1="69.2173" x2="106.9443" y2="69.0566" stroke="#200019" stroke-width="1.0" />
  <line x1="72.4077" y1="50.5760" x2="82.6387" y2="33.4328" stroke="#000000" stroke-width="1.0" />
  <rect
     style="fill:#ffffff;fill-opacity:1;fill-rule:nonzero;stroke:none"
     width="2"
     height="2"
     x="77.0232"
     y="41.0044"
     transform="rotate(-59.1713 77.5232 42.0044)" /> 
  <path
     style="fill:none;stroke:#000000;stroke-width:1px;stroke-linecap:butt;stroke-linejoin:miter;stroke-opacity:1"
     d="m 77.5232,40.0044 2,2 -2,2 m -2.370121,-4 2,2 -2,2"
     transform="rotate(-59.1713 77.5232 42.0044)"/>
  <line x1="72.4077" y1="50.5760" x2="106.9503" y2="70.3066" stroke="#bc2900" stroke-width="1.0" />
  <rect
     style="fill:#ffffff;stroke:none"
     width="5.5"
     height="2"
     x="86.9290"
     y="59.4413" 
     transform="rotate(29.7348 89.6790 60.4413)"    /> 
  <path
     style="fill:none;stroke:#bc2900;stroke-width:1px;stroke-linecap:butt;stroke-linejoin:miter;stroke-opacity:1"
    d="m 90.4290,58.4413 2,2 -2,2 m -1.5,-4 -2,2 2,2" transform="rotate(29.7348 89.6790 60.4413)"/>
  <line x1="102.5973" y1="34.2669" x2="113.0992" y2="51.2626" stroke="#5500a3" stroke-width="1.0" />
  <rect
     style="fill:#ffffff;fill-opacity:1;fill-rule:nonzero;stroke:none"
     width="2"
     height="2"
     x="106.8482"
     y="41.7647" 
     transform="rotate(58.2876 107.8482 42.7647)" /> 
  <path
     style="fill:none;stroke:#5500a3;stroke-width:1px;stroke-linecap:butt;stroke-linejoin:miter;stroke-opacity:1"
     d="m 110.8482,40.7647 -2,2 2,2 m -6,-4 2,2 -2,2"
     transform="rotate(58.2876 107.8482 42.7647)"/>
  <line x1="106.9503" y1="70.3066" x2="106.9858" y2="90.4027" stroke="#000000" stroke-width="1.0" />
  <rect
     style="fill:#ffffff;fill-opacity:1;fill-rule:nonzero;stroke:none"
     width="2"
     height="2"
     x="106.4681"
     y="79.3546"
     transform="rotate(89.8989 106.9681 80.3546)" /> 
  <path
     style="fill:none;stroke:#000000;stroke-width:1px;stroke-linecap:butt;stroke-linejoin:miter;stroke-opacity:1"
     d="m 106.9681,78.3546 2,2 -2,2 m -2.370121,-4 2,2 -2,2"
     transform="rotate(89.8989 106.9681 80.3546)"/>
  <line x1="106.9024" y1="110.5141" x2="106.6878" y2="130.5785" stroke="#000000" stroke-width="1.0" />
  <rect
     style="fill:#ffffff;fill-opacity:1;fill-rule:nonzero;stroke:none"
     width="2"
     height="2"
     x="106.2951"
     y="119.5463"
     transform="rotate(90.6126 106.7951 120.5463)" /> 
  <path
     style="fill:none;stroke:#000000;stroke-width:1px;stroke-linecap:butt;stroke-linejoin:miter;stroke-opacity:1"
     d="m 106.7951,118.5463 2,2 -2,2 m -2.370121,-4 2,2 -2,2"
     transform="rotate(90.6126 106.7951 120.5463)"/>
  <line x1="106.6878" y1="130.5785" x2="106.3854" y2="150.6089" stroke="#af1b2c" stroke-width="1.0" />
  <rect
     style="fill:#ffffff;fill-opacity:1;fill-rule:nonzero;stroke:none"
     width="2"
     height="2"
     x="106.0366"
     y="139.5937"
     transform="rotate(90.8650 106.5366 140.5937)" /> 
  <path
     style="fill:none;stroke:#af1b2c;stroke-width:1px;stroke-linecap:butt;stroke-linejoin:miter;stroke-opacity:1"
     d="m 106.5366,138.5937 2,2 -2,2 m -2.370121,-4 2,2 -2,2"
     transform="rotate(90.8650 106.5366 140.5937)"/>
<circle cx="73.4610" cy="150.3662" r="5.0" stroke="#595959" stroke-width="1.0" fill="#ffffff"/>
<text x="73.4610" y="153.0662" text-anchor="middle" font-family="Helvetica" font-size="7.5" fill="#000000" >G</text>
<circle cx="73.7665" cy="130.3773" r="5.0" stroke="#595959" stroke-width="1.0" fill="#ffffff"/>
<text x="73.7665" y="133.0773" text-anchor="middle" font-family="Helvetica" font-size="7.5" fill="#000000" >G</text>
<circle cx="74.0210" cy="110.3982" r="5.0" stroke="#595959" stroke-width="1.0" fill="#ffffff"/>
<text x="74.0210" y="113.0982" text-anchor="middle" font-family="Helvetica" font-size="7.5" fill="#000000" >C</text>
<circle cx="74.1238" cy="90.4421" r="5.0" stroke="#595959" stroke-width="1.0" fill="#ffffff"/>
<text x="74.1238" y="93.1421" text-anchor="middle" font-family="Helvetica" font-size="7.5" fill="#000000" >G</text>
<circle cx="73.9730" cy="70.4673" r="5.0" stroke="#595959" stroke-width="1.0" fill="#ffffff"/>
<text x="73.9730" y="73.1673" text-anchor="middle" font-family="Helvetica" font-size="7.5" fill="#000000" >C</text>
<circle cx="72.4077" cy="50.5760" r="5.0" stroke="#595959" stroke-width="1.0" fill="#ffffff"/>
<text x="72.4077" y="53.2760" text-anchor="middle" font-family="Helvetica" font-size="7.5" fill="#000000" >A</text>
<circle cx="82.6387" cy="33.4328" r="5.0" stroke="#595959" stroke-width="1.0" fill="#ffffff"/>
<text x="82.6387" y="36.1328" text-anchor="middle" font-family="Helvetica" font-size="7.5" fill="#000000" >U</text>
<circle cx="102.5973" cy="34.2669" r="5.0" stroke="#595959" stroke-width="1.0" fill="#ffffff"/>
<text x="102.5973" y="36.9669" text-anchor="middle" font-family="Helvetica" font-size="7.5" fill="#000000" >C</text>
<circle cx="113.0992" cy="51.2626" r="5.0" stroke="#595959" stroke-width="1.0" fill="#ffffff"/>
<text x="113.0992" y="53.9626" text-anchor="middle" font-family="Helvetica" font-size="7.5" fill="#000000" >G</text>
<circle cx="106.9503" cy="70.3066" r="5.0" stroke="#595959" stroke-width="1.0" fill="#ffffff"/>
<text x="106.9503" y="73.0066" text-anchor="middle" font-family="Helvetica" font-size="7.5" fill="#000000" >G</text>
<circle cx="106.9858" cy="90.4027" r="5.0" stroke="#595959" stroke-width="1.0" fill="#ffffff"/>
<text x="106.9858" y="93.1027" text-anchor="middle" font-family="Helvetica" font-size="7.5" fill="#000000" >C</text>
<circle cx="106.9024" cy="110.5141" r="5.0" stroke="#595959" stroke-width="1.0" fill="#ffffff"/>
<text x="106.9024" y="113.2141" text-anchor="middle" font-family="Helvetica" font-size="7.5" fill="#000000" >G</text>
<circle cx="106.6878" cy="130.5785" r="5.0" stroke="#595959" stroke-width="1.0" fill="#ffffff"/>
<text x="106.6878" y="133.2785" text-anchor="middle" font-family="Helvetica" font-size="7.5" fill="#000000" >C</text>
<circle cx="106.3854" cy="150.6089" r="5.0" stroke="#595959" stroke-width="1.0" fill="#ffffff"/>
<text x="106.3854" y="153.3089" text-anchor="middle" font-family="Helvetica" font-size="7.5" fill="#000000" >C</text>
</svg>