<?xml version="1.0" encoding="UTF-8"?>
<!DOCTYPE svg PUBLIC "-//W3C//DTD SVG 1.1//EN" 
"http://www.w3.org/Graphics/SVG/1.1/DTD/svg11.dtd">

<svg version="1.1"
   width="182px"
   height="182px"
xmlns="http://www.w3.org/2000/svg">
    <rect width="100%" height="100%" fill="white"/>

  <line x1="74.0899" y1="110.3889" x2="74.1844" y2="90.4259" stroke="#595959"
     style="stroke-width:2;stroke-miterlimit:4;stroke-dasharray:1,1;stroke-dashoffset:0" />
  <line x1="74.0118" y1="70.4506" x2="71.7676" y2="50.6180" stroke="#595959"
     style="stroke-width:2;stroke-miterlimit:4;stroke-dasharray:1,1;stroke-dashoffset:0" />
  <line x1="82.2992" y1="33.6557" x2="102.2662" y2="34.3084" stroke="#595959"
     style="stroke-width:2;stroke-miterlimit:4;stroke-dasharray:1,1;stroke-dashoffset:0" />
  <line x1="113.0064" y1="51.1552" x2="107.1876" y2="70.3023" stroke="#595959"
     style="stroke-width:2;stroke-miterlimit:4;stroke-dasharray:1,1;stroke-dashoffset:0" />
  <line x1="107.1542" y1="90.3820" x2="107.1096" y2="110.4771" stroke="#595959"
     style="stroke-width:2;stroke-miterlimit:4;stroke-dasharray:1,1;stroke-dashoffset:0" />
  <line x1="73.5993" y1="150.3624" x2="73.8415" y2="130.3711" stroke="#d55800" stroke-width="1.0" />
  <rect
     style="fill:#ffffff;fill-opacity:1;fill-rule:nonzero;stroke:none"
     width="2"
     height="2"
     x="73.2204"
     y="139.3667"
     transform="rotate(-89.3057 73.7204 140.3667)" /> 
  <path
     style="fill:none;stroke:#d55800;stroke-width:1px;stroke-linecap:butt;stroke-linejoin:miter;stroke-opacity:1"
     d="m 73.7204,138.3667 2,2 -2,2 m -2.370121,-4 2,2 -2,2"
     transform="rotate(-89.3057 73.7204 140.3667)"/>
  <line x1="73.5917" y1="151.6124" x2="106.5901" y2="151.8111" stroke="#270026" stroke-width="1.0" />
  <line x1="73.6068" y1="149.1124" x2="106.6051" y2="149.3111" stroke="#270026" stroke-width="1.0" />
  <line x1="73.8415" y1="130.3711" x2="74.0899" y2="110.3889" stroke="#000000" stroke-width="1.0" />
  <rect
     style="fill:#ffffff;fill-opacity:1;fill-rule:nonzero;stroke:none"
     width="2"
     height="2"
     x="73.4657"
     y="119.3800"
     transform="rotate(-89.2879 73.9657 120.3800)" /> 
  <path
     style="fill:none;stroke:#000000;stroke-width:1px;stroke-linecap:butt;stroke-linejoin:miter;stroke-opacity:1"
     d="m 73.9657,118.3800 2,2 -2,2 m -2.370121,-4 2,2 -2,2"
     transform="rotate(-89.2879 73.9657 120.3800)"/>
  <line x1="73.8351" y1="131.6211" x2="106.8781" y2="131.7914" stroke="#270026" stroke-width="1.0" />
  <line x1="73.8480" y1="129.1211" x2="106.8910" y2="129.2914" stroke="#270026" stroke-width="1.0" />
  <line x1="73.8415" y1="130.3711" x2="106.5976" y2="150.5611" stroke="#e99400" stroke-width="1.0" />
  <rect
     style="fill:#ffffff;stroke:none"
     width="5.5"
     height="2"
     x="87.4696"
     y="139.4661" 
     transform="rotate(31.6486 90.2196 140.4661)"    /> 
  <path
     style="fill:none;stroke:#e99400;stroke-width:1px;stroke-linecap:butt;stroke-linejoin:miter;stroke-opacity:1"
    d="m 90.9696,138.4661 2,2 -2,2 m -1.5,-4 -2,2 2,2" transform="rotate(31.6486 90.2196 140.4661)"/>
  <line x1="74.0865" y1="111.6389" x2="107.1062" y2="111.7271" stroke="#33003e" stroke-width="1.0" />
  <line x1="74.0932" y1="109.1389" x2="107.1129" y2="109.2271" stroke="#33003e" stroke-width="1.0" />
  <line x1="74.1844" y1="90.4259" x2="74.0118" y2="70.4506" stroke="#000000" stroke-width="1.0" />
  <rect
     style="fill:#ffffff;fill-opacity:1;fill-rule:nonzero;stroke:none"
     width="2"
     height="2"
     x="73.5981"
     y="79.4382"
     transform="rotate(269.5049 74.0981 80.4382)" /> 
  <path
     style="fill:none;stroke:#000000;stroke-width:1px;stroke-linecap:butt;stroke-linejoin:miter;stroke-opacity:1"
     d="m 74.0981,78.4382 2,2 -2,2 m -2.370121,-4 2,2 -2,2"
     transform="rotate(269.5049 74.0981 80.4382)"/>
  <line x1="74.1861" y1="91.6759" x2="107.1559" y2="91.6320" stroke="#33003e" stroke-width="1.0" />
  <line x1="74.1828" y1="89.1759" x2="107.1526" y2="89.1320" stroke="#33003e" stroke-width="1.0" />
  <line x1="74.1844" y1="90.4259" x2="107.1096" y2="110.4771" stroke="#000000" stroke-width="1.0" />
  <rect
     style="fill:#ffffff;stroke:none"
     width="5.5"
     height="2"
     x="87.8970"
     y="99.4515" 
     transform="rotate(31.3411 90.6470 100.4515)"    /> 
  <path
     style="fill:none;stroke:#000000;stroke-width:1px;stroke-linecap:butt;stroke-linejoin:miter;stroke-opacity:1"
    d="m 91.3970,98.4515 2,2 -2,2 m -1.5,-4 -2,2 2,2" transform="rotate(31.3411 90.6470 100.4515)"/>
  <line x1="74.0174" y1="71.7006" x2="107.1932" y2="71.5523" stroke="#200019" stroke-width="1.0" />
  <line x1="74.0062" y1="69.2006" x2="107.1820" y2="69.0523" stroke="#200019" stroke-width="1.0" />
  <line x1="71.7676" y1="50.6180" x2="82.2992" y2="33.6557" stroke="#17000d" stroke-width="1.0" />
  <rect
     style="fill:#ffffff;fill-opacity:1;fill-rule:nonzero;stroke:none"
     width="2"
     height="2"
     x="76.5334"
     y="41.1368"
     transform="rotate(-58.1646 77.0334 42.1368)" /> 
  <path
     style="fill:none;stroke:#17000d;stroke-width:1px;stroke-linecap:butt;stroke-linejoin:miter;stroke-opacity:1"
     d="m 77.0334,40.1368 2,2 -2,2 m -2.370121,-4 2,2 -2,2"
     transform="rotate(-58.1646 77.0334 42.1368)"/>
  <line x1="71.7676" y1="50.6180" x2="107.1876" y2="70.3023" stroke="#cd4500" stroke-width="1.0" />
  <rect
     style="fill:#ffffff;stroke:none"
     width="5.5"
     height="2"
     x="86.7276"
     y="59.4601" 
     transform="rotate(29.0627 89.4776 60.4601)"    /> 
  <path
     style="fill:none;stroke:#cd4500;stroke-width:1px;stroke-linecap:butt;stroke-linejoin:miter;stroke-opacity:1"
    d="m 90.2276,58.4601 2,2 -2,2 m -1.5,-4 -2,2 2,2" transform="rotate(29.0627 89.4776 60.4601)"/>
  <line x1="102.2662" y1="34.3084" x2="113.0064" y2="51.1552" stroke="#cc4200" stroke-width="1.0" />
  <rect
     style="fill:#ffffff;fill-opacity:1;fill-rule:nonzero;stroke:none"
     width="2"
     height="2"
     x="106.6363"
     y="41.7318" 
     transform="rotate(57.4816 107.6363 42.7318)" /> 
  <path
     style="fill:none;stroke:#cc4200;stroke-width:1px;stroke-linecap:butt;stroke-linejoin:miter;stroke-opacity:1"
     d="m 110.6363,40.7318 -2,2 2,2 m -6,-4 2,2 -2,2"
     transform="rotate(57.4816 107.6363 42.7318)"/>
  <line x1="107.1876" y1="70.3023" x2="107.1542" y2="90.3820" stroke="#000000" stroke-width="1.0" />
  <rect
     style="fill:#ffffff;fill-opacity:1;fill-rule:nonzero;stroke:none"
     width="2"
     height="2"
     x="106.6709"
     y="79.3422"
     transform="rotate(90.0952 107.1709 80.3422)" /> 
  <path
     style="fill:none;stroke:#000000;stroke-width:1px;stroke-linecap:butt;stroke-linejoin:miter;stroke-opacity:1"
     d="m 107.1709,78.3422 2,2 -2,2 m -2.370121,-4 2,2 -2,2"
     transform="rotate(90.0952 107.1709 80.3422)"/>
  <line x1="107.1096" y1="110.4771" x2="106.8846" y2="130.5414" stroke="#000000" stroke-width="1.0" />
  <rect
     style="fill:#ffffff;fill-opacity:1;fill-rule:nonzero;stroke:none"
     width="2"
     height="2"
     x="106.4971"
     y="119.5092"
     transform="rotate(90.6425 106.9971 120.5092)" /> 
  <path
     style="fill:none;stroke:#000000;stroke-width:1px;stroke-linecap:butt;stroke-linejoin:miter;stroke-opacity:1"
     d="m 106.9971,118.5092 2,2 -2,2 m -2.370121,-4 2,2 -2,2"
     transform="rotate(90.6425 106.9971 120.5092)"/>
  <line x1="106.8846" y1="130.5414" x2="106.5976" y2="150.5611" stroke="#b92500" stroke-width="1.0" />
  <rect
     style="fill:#ffffff;fill-opacity:1;fill-rule:nonzero;stroke:none"
     width="2"
     height="2"
     x="106.2411"
     y="139.5513"
     transform="rotate(90.8212 106.7411 140.5513)" /> 
  <path
     style="fill:none;stroke:#b92500;stroke-width:1px;stroke-linecap:butt;stroke-linejoin:miter;stroke-opacity:1"
     d="m 106.7411,138.5513 2,2 -2,2 m -2.370121,-4 2,2 -2,2"
     transform="rotate(90.8212 106.7411 140.5513)"/>
<circle cx="73.5993" cy="150.3624" r="5.0" stroke="#595959" stroke-width="1.0" fill="#ffffff"/>
<text x="73.5993" y="153.0624" text-anchor="middle" font-family="Helvetica" font-size="7.5" fill="#000000" >G</text>
<circle cx="73.8415" cy="130.3711" r="5.0" stroke="#595959" stroke-width="1.0" fill="#ffffff"/>
<text x="73.8415" y="133.0711" text-anchor="middle" font-family="Helvetica" font-size="7.5" fill="#000000" >G</text>
<circle cx="74.0899" cy="110.3889" r="5.0" stroke="#595959" stroke-width="1.0" fill="#ffffff"/>
<text x="74.0899" y="113.0889" text-anchor="middle" font-family="Helvetica" font-size="7.5" fill="#000000" >C</text>
<circle cx="74.1844" cy="90.4259" r="5.0" stroke="#595959" stroke-width="1.0" fill="#ffffff"/>
<text x="74.1844" y="93.1259" text-anchor="middle" font-family="Helvetica" font-size="7.5" fill="#000000" >G</text>
<circle cx="74.0118" cy="70.4506" r="5.0" stroke="#595959" stroke-width="1.0" fill="#ffffff"/>
<text x="74.0118" y="73.1506" text-anchor="middle" font-family="Helvetica" font-size="7.5" fill="#000000" >C</text>
<circle cx="71.7676" cy="50.6180" r="5.0" stroke="#595959" stroke-width="1.0" fill="#ffffff"/>
<text x="71.7676" y="53.3180" text-anchor="middle" font-family="Helvetica" font-size="7.5" fill="#000000" >A</text>
<circle cx="82.2992" cy="33.6557" r="5.0" stroke="#595959" stroke-width="1.0" fill="#ffffff"/>
<text x="82.2992" y="36.3557" text-anchor="middle" font-family="Helvetica" font-size="7.5" fill="#000000" >U</text>
<circle cx="102.2662" cy="34.3084" r="5.0" stroke="#595959" stroke-width="1.0" fill="#ffffff"/>
<text x="102.2662" y="37.0084" text-anchor="middle" font-family="Helvetica" font-size="7.5" fill="#000000" >C</text>
<circle cx="113.0064" cy="51.1552" r="5.0" stroke="#595959" stroke-width="1.0" fill="#ffffff"/>
<text x="113.0064" y="53.8552" text-anchor="middle" font-family="Helvetica" font-size="7.5" fill="#000000" >G</text>
<circle cx="107.1876" cy="70.3023" r="5.0" stroke="#595959" stroke-width="1.0" fill="#ffffff"/>
<text x="107.1876" y="73.0023" text-anchor="middle" font-family="Helvetica" font-size="7.5" fill="#000000" >G</text>
<circle cx="107.1542" cy="90.3820" r="5.0" stroke="#595959" stroke-width="1.0" fill="#ffffff"/>
<text x="107.1542" y="93.0820" text-anchor="middle" font-family="Helvetica" font-size="7.5" fill="#000000" >C</text>
<circle cx="107.1096" cy="110.4771" r="5.0" stroke="#595959" stroke-width="1.0" fill="#ffffff"/>
<text x="107.1096" y="113.1771" text-anchor="middle" font-family="Helvetica" font-size="7.5" fill="#000000" >G</text>
<circle cx="106.8846" cy="130.5414" r="5.0" stroke="#595959" stroke-width="1.0" fill="#ffffff"/>
<text x="106.8846" y="133.2414" text-anchor="middle" font-family="Helvetica" font-size="7.5" fill="#000000" >C</text>
<circle cx="106.5976" cy="150.5611" r="5.0" stroke="#595959" stroke-width="1.0" fill="#ffffff"/>
<text x="106.5976" y="153.2611" text-anchor="middle" font-family="Helvetica" font-size="7.5" fill="#000000" >C</text>
</svg>